<?xml version="1.0" encoding="utf-8"?>
<!-- Generator: Adobe Illustrator 27.0.0, SVG Export Plug-In . SVG Version: 6.00 Build 0)  -->
<svg version="1.1" id="Layer_2_00000158747591028252629070000000996762007759535492_"
	 xmlns="http://www.w3.org/2000/svg" xmlns:xlink="http://www.w3.org/1999/xlink" x="0px" y="0px" viewBox="0 0 200.6 298.6"
	 style="enable-background:new 0 0 200.6 298.6;" xml:space="preserve">
<style type="text/css">
	.st0{fill:#FFFFFF;}
	.st1{fill:#CACBD4;}
	.st2{fill:#9EA1B5;}
	.st3{fill:#EDEEF4;}
	.st4{fill:#FBD356;}
	.st5{fill:#191818;}
	.st6{opacity:0.35;fill:#FE7E52;enable-background:new    ;}
	.st7{fill:#FDC6A2;}
	.st8{opacity:0.37;fill:#EF7756;enable-background:new    ;}
	.st9{fill:#F7991C;}
	.st10{fill:#6F6372;}
	.st11{fill:#9C8DA0;}
	.st12{fill:#63456B;}
	.st13{fill:#E89176;}
	.st14{opacity:0.14;}
	.st15{fill:#4B74B9;}
	.st16{fill:#58E9FF;}
	.st17{opacity:0.22;fill:#8F90FD;enable-background:new    ;}
	.st18{fill:#FC5D32;}
	.st19{fill:#07D0E5;}
	.st20{opacity:0.41;}
	.st21{fill:#8BF1FC;}
	.st22{fill:#FE7E52;}
	.st23{opacity:0.46;}
	.st24{fill:#F45A31;}
	.st25{opacity:0.46;fill:#F45A31;enable-background:new    ;}
	.st26{opacity:0.23;fill:#EF7756;enable-background:new    ;}
	.st27{fill:#6EA1FF;}
	.st28{fill:#3C596B;}
	.st29{fill:#5AFF9D;}
	.st30{fill:#253F4C;}
	.st31{fill:#1B333D;}
	.st32{opacity:0.22;}
	.st33{fill:#8F90FD;}
</style>
<path class="st0" d="M59.2,103.8c-13.2-0.2-34.1,3.6-48,7.4c-1.7,0.4-3.3-0.7-3.6-2.3l-7-43.6c-0.1-0.6-0.2-1.2,0-1.8
	c0.4-1.2,1.7-1.8,2.9-2.2c20-6.7,41-10.5,62-11.2l12.2,41.8C77.7,91.9,59.2,103.8,59.2,103.8z"/>
<g>
	<path class="st0" d="M32,118.8c-5.2,0.8-10.4,1.7-15.5,2.7c1.7,8.4,2.9,17,3.7,25.5c4.7-0.5,9.3-0.9,14-1.4"/>
	<g>
		<path class="st0" d="M24.4,141.3c3.1-0.4,6.3-0.8,9.4-1.2"/>
		<path class="st0" d="M24,138.8c3.1-0.4,6.3-0.8,9.4-1.2"/>
		<path class="st0" d="M23.9,136.2l5.6-0.7"/>
	</g>
	<g>
		<path class="st0" d="M22.8,130.3c3.1-0.4,6.3-0.8,9.4-1.2"/>
		<path class="st0" d="M22.4,127.8c3.1-0.4,6.3-0.8,9.4-1.2"/>
		<path class="st0" d="M22.2,125.2l5.5-0.7"/>
	</g>
</g>
<g>
	<path class="st0" d="M115.4,148.6c5.2,0.8,10.4,1.6,15.5,2.7c-1.7,8.4-2.9,17-3.7,25.5c-4.7-0.5-9.3-0.9-14-1.4"/>
	<g>
		<path class="st0" d="M123,171.2l-9.4-1.2"/>
		<path class="st0" d="M123.4,168.6l-9.4-1.2"/>
		<path class="st0" d="M123.6,166l-5.6-0.7"/>
	</g>
	<g>
		<path class="st0" d="M124.6,160.2c-3.1-0.4-6.3-0.8-9.4-1.2"/>
		<path class="st0" d="M125,157.6l-9.4-1.2"/>
		<path class="st0" d="M125.2,155l-5.6-0.7"/>
	</g>
</g>
<path class="st1" d="M59,52.3C59,52.3,59,52.3,59,52.3c-0.1-0.7-0.6-1.4-1.5-1.3c-9.2,0.1-18.5,1.3-27.4,3.6
	c-0.3,0.1-0.5,0.2-0.7,0.4c-4,0.5-8,1.4-11.8,2.7c-1.3,0.2-2.5,0.4-3.8,0.5c-0.7,0.1-1.3,0.5-1.5,1.2c-0.3-0.3-0.8-0.4-1.3-0.3
	c-3.4,1-6.8,2.2-10,3.8c-0.7,0.3-0.9,0.9-0.7,1.4c-0.2,0.2,0.1,1,0,1.3C0.3,66,0,66,0.3,66.4c-0.1,0.9,0.7,2,1.9,1.6
	c0.1,0,0.2,0,0.2-0.1c0.1,0,0.2,0,0.3-0.1c0,0,0.1,0,0.1,0c2.9-0.8,5.7-1.6,8.6-2.5c0.2-0.1,0.4-0.2,0.5-0.3
	c3.3-0.7,6.6-1.3,9.8-2.3c0.2,0,0.3,0,0.5,0c7.2-1.5,14.5-3,21.8-3.9c3.5-0.4,7-0.5,10.4-0.9C57,57.6,60.1,55.4,59,52.3L59,52.3z"/>
<path class="st2" d="M57.4,51.9c0.3-0.5-0.1-1.2-0.7-1.1c-1.7,0.1-3.3,0.2-4.9,0.8c-1.4,0.5-2.5,1.5-3.6,2.5
	c-1.2,1.1-2.3,2.1-3.7,2.8c-1.6,0.8-3.3,1.1-5.1,1.2c-0.9,0.1-1,1.6,0,1.5c5.3-0.6,10.5-1.2,15.8-1.7c0.3,0.3,0.9,0.2,1.2-0.2
	c0.7-0.3,0.6-1.3,0-1.4C56.2,54.7,56.6,53.2,57.4,51.9z M54.3,53.5L54.3,53.5C54.2,53.5,54.2,53.5,54.3,53.5c0-0.1,0-0.1,0-0.1
	C54.3,53.4,54.3,53.5,54.3,53.5L54.3,53.5z M50.5,55.9C50.5,55.9,50.5,55.9,50.5,55.9c0,0.1,0,0.1,0,0.1c-0.1,0-0.2,0-0.2,0
	C50.4,56,50.4,55.9,50.5,55.9L50.5,55.9z M47,57.1c0,0,0,0.1,0,0.1c-0.1,0-0.2,0-0.3,0C46.8,57.2,46.9,57.2,47,57.1z"/>
<path class="st3" d="M16,59.6c2.7-0.8,5.4-1.6,8.1-2.3c0.9-0.2,0.5-1.7-0.4-1.5c-2.7,0.7-5.4,1.5-8.1,2.3
	C14.7,58.4,15.1,59.9,16,59.6L16,59.6z"/>
<path class="st3" d="M27.6,56.5c1.4-0.3,2.9-0.6,4.3-1c0.4-0.1,0.6-0.5,0.5-0.9c-0.1-0.4-0.5-0.6-0.9-0.5c-1.4,0.3-2.9,0.6-4.3,1
	c-0.4,0.1-0.6,0.5-0.5,0.9C26.9,56.4,27.2,56.6,27.6,56.5L27.6,56.5z"/>
<path class="st3" d="M35.4,54.8l3.7-0.5c0.4-0.1,0.6-0.6,0.5-0.9c-0.1-0.4-0.5-0.6-0.9-0.5L35,53.4c-0.4,0.1-0.6,0.6-0.5,0.9
	C34.6,54.8,35,54.9,35.4,54.8L35.4,54.8z"/>
<path class="st4" d="M4.7,70.7l5.9,35.5c0,0,14.8-5.3,23-4.8l-5.2-36.2C28.4,65.2,13.3,68.1,4.7,70.7L4.7,70.7z"/>
<path class="st5" d="M59,103.9c-6.4-0.1-12.7,0.6-19,1.5c-7.1,1-14.2,2.3-21.2,3.9c-1.6,0.4-3.1,0.7-4.7,1.1s-3.7,1.4-5.1,0.6
	c-1-0.6-1.2-1.6-1.4-2.7l-1.2-7.5c-1.3-8.2-2.7-16.5-4-24.8L1,67.3c-0.1-0.6-0.2-1.1-0.3-1.7c0-0.3-0.1-0.6-0.1-0.9
	c0-1.5,1.2-2.2,2.4-2.6c2-0.7,4-1.3,6-1.9c16.3-5,33.1-8,50.1-9c2.1-0.1,4.1-0.2,6.2-0.3c0.4,0,0.4-0.7,0-0.7
	c-17.5,0.6-34.8,3.2-51.7,8c-2.1,0.6-4.3,1.2-6.4,1.9c-1.8,0.6-3.8,1-5.5,1.9s-2,2.3-1.7,4.1c0.3,2.2,0.7,4.4,1.1,6.7
	c1.4,8.5,2.8,17,4.1,25.6l1.5,9.4c0.1,0.6,0.2,1.2,0.3,1.8c0.5,2.4,2.6,3,4.7,2.4c6.9-1.9,13.9-3.3,21-4.6s14.4-2.2,21.7-2.6
	c1.5-0.1,3.1-0.1,4.6-0.1C59.5,104.5,59.5,103.8,59,103.9L59,103.9L59,103.9z"/>
<path class="st5" d="M1.5,68.6C19.1,63.5,37.2,60,55.4,58c0.4,0,0.4-0.7,0-0.7C37.1,59.3,19,62.8,1.4,68C0.9,68.1,1.1,68.8,1.5,68.6
	C1.5,68.6,1.5,68.6,1.5,68.6z"/>
<circle class="st5" cx="4.7" cy="64.4" r="1.3"/>
<circle class="st5" cx="8.3" cy="63.3" r="1.3"/>
<circle class="st5" cx="11.9" cy="62.2" r="1.3"/>
<path class="st6" d="M25.9,67.1c0.5,5.7,1.2,11.3,1.9,17c0.3,2.8,0.7,5.5,1.1,8.3s0.6,5.4,1.6,7.9c0.3,0.8,1.4,0.9,2,0.5
	c0.8-0.4,0.8-1.3,0.5-2.1c-1-2.3-1-5-1.4-7.4c-0.4-2.7-0.7-5.5-1.1-8.2c-0.6-5.3-1.2-10.7-1.8-16C28.7,65.2,25.7,65.2,25.9,67.1
	L25.9,67.1L25.9,67.1z"/>
<path class="st5" d="M4.3,70.8c1.7,10.3,3.5,20.7,5.2,31.1c0.2,1.5,0.5,2.9,0.7,4.4c0,0.2,0.3,0.3,0.4,0.2c2.7-1,5.5-1.8,8.3-2.5
	c4.7-1.3,9.7-2.5,14.6-2.2c0.2,0,0.4-0.2,0.3-0.4c-1.5-10.6-3-21.1-4.5-31.7c-0.2-1.5-0.4-3-0.6-4.5c0-0.2-0.3-0.3-0.4-0.2
	c-8,1.5-16,3.2-23.8,5.5c-0.4,0.1-0.2,0.8,0.2,0.7c7.8-2.3,15.8-4,23.8-5.5l-0.4-0.2c1.5,10.6,3,21.1,4.5,31.7
	c0.2,1.5,0.4,3,0.6,4.5l0.3-0.4c-4.9-0.2-9.8,0.9-14.5,2.2c-2.9,0.8-5.8,1.6-8.6,2.6l0.4,0.2C9.2,95.7,7.5,85.3,5.7,75
	c-0.2-1.5-0.5-2.9-0.7-4.4C4.9,70.2,4.3,70.3,4.3,70.8z"/>
<path class="st5" d="M4.4,70.9c8.4,8.9,16.9,17.9,25.3,26.8c1.2,1.3,2.4,2.6,3.6,3.8c0.3,0.3,0.8-0.2,0.5-0.5
	C25.4,92.2,17,83.2,8.5,74.3c-1.2-1.3-2.4-2.6-3.6-3.8C4.6,70.1,4.1,70.6,4.4,70.9C4.4,70.9,4.4,70.9,4.4,70.9z"/>
<path class="st5" d="M27.8,65.6c-2,4.5-3.9,9.1-5.9,13.6c-3.1,7.2-6.3,14.5-9.4,21.7c-0.7,1.7-1.4,3.3-2.2,5
	c-0.2,0.4,0.4,0.8,0.6,0.3c2-4.5,3.9-9.1,5.9-13.6c3.1-7.2,6.3-14.5,9.4-21.7c0.7-1.7,1.4-3.3,2.2-5C28.6,65.5,28,65.1,27.8,65.6
	L27.8,65.6z"/>
<path class="st5" d="M37.4,69.7c4.4-0.7,8.7-1.4,13.1-2.2c0.4-0.1,0.2-0.7-0.2-0.7c-4.4,0.7-8.7,1.4-13.1,2.2
	C36.8,69.1,37,69.8,37.4,69.7L37.4,69.7z"/>
<path class="st5" d="M36.2,65.2l13.1-2.2c0.4-0.1,0.2-0.7-0.2-0.7l-13.1,2.1C35.6,64.6,35.8,65.3,36.2,65.2L36.2,65.2z"/>
<path class="st5" d="M38.3,75c6.2-1,12.4-2,18.6-3.1c0.4-0.1,0.2-0.7-0.2-0.7c-6.2,1-12.4,2-18.6,3.1C37.7,74.4,37.9,75.1,38.3,75
	L38.3,75z"/>
<path class="st5" d="M38.8,79.3c6.2-1,12.4-2,18.6-3.1c0.4-0.1,0.2-0.7-0.2-0.7c-6.2,1-12.4,2-18.6,3.1
	C38.2,78.7,38.3,79.3,38.8,79.3L38.8,79.3z"/>
<path class="st7" d="M158.6,45c0,5.2-1.8,9.1-6,10.1c-0.6,0.1-1.2,4.2-1.9,4.2c-2.4,0-7.5-0.4-9.5-3c-0.4-0.5,0.5-4.8,0.2-5.2
	c-1.2-1.8-1.1-3.7-1.1-6.2c0-5.9,4.1-10.6,9.1-10.6S158.6,39.1,158.6,45L158.6,45z"/>
<path class="st7" d="M151.6,57.2l-0.5,3c-2,8.1-4,16.2-6,24.4c-0.9,3.8-1.9,7.7-4.2,10.8c-1.3,1.9-3.1,3.4-4.9,4.8
	c-1.1,0.9-3.8,2.9-5,3.7l-1.2-1.2l-3.6-4.2l-1.7-4.5l-0.7-3.5c0.4-0.2,0.9-0.4,1.3-0.6c1.6-0.6,3.1-1.3,4.4-2.4
	c1.5-1.3,2.4-3.1,3.2-4.9c4.2-9.3,7-19.3,8.3-29.4L151.6,57.2L151.6,57.2z"/>
<path class="st8" d="M149.9,64.9c0.4-2.6,1.1-5.2,1.8-7.8c0.1-0.3,0.2-0.6,0.3-1c0.1-0.2,0.1-0.3,0.1-0.5c0.1-0.2,0.3-0.6-0.1-0.1
	c-0.3,0.4-0.1,0.2,0.1,0.1c0.1-0.1,0.3-0.1,0.4-0.2c0.2-0.1,0.5-0.2,0.8-0.4c1.1-0.6,2-1.3,2.9-2.2c1.4-1.3-0.7-3.5-2.1-2.1
	c-0.8,0.8-1.7,1.5-2.8,2c-0.6,0.3-1.2,0.5-1.6,1c-0.4,0.6-0.6,1.4-0.7,2c-0.8,2.7-1.5,5.5-1.9,8.2c-0.1,0.8,0.2,1.6,1.1,1.8
	C148.8,66.2,149.8,65.7,149.9,64.9L149.9,64.9L149.9,64.9z"/>
<path class="st0" d="M149.3,0.4h46c2.7,0,4.9,2.2,4.9,4.9v41.2c0,2.7-2.2,4.9-4.9,4.9h-46c-2.7,0-4.9-2.2-4.9-4.9V5.3
	C144.4,2.6,146.6,0.4,149.3,0.4z"/>
<path class="st0" d="M72.9,89.2c-2.3,0.1-4.3,3.7-4.1,6s1.8,4.3,3.8,5.5c3.8,2.3,9.1,2,12.6-0.7c1.8-1.4,3.2-3.4,3.3-5.7
	c0.1-2.2-1.5-5-3.7-5.6"/>
<g>
	<path class="st4" d="M107.2,278.7c5.9,2.8,10.7,7.9,13.2,13.9c0.2,0.4,0.3,0.9,0.2,1.3c-0.1,0.5-0.6,0.9-1.1,1.2
		c-2.2,1.4-4.8,2.1-7.3,2.5c-8.4,1.4-17.2,0.4-25.1-2.9c-0.4-0.2-0.8-0.3-1.1-0.7c-0.2-0.3-0.3-0.8-0.3-1.2
		c0.3-4.3,0.9-6.6,3.2-11.1"/>
	<path class="st9" d="M107.2,279.6c-4.2,4.9-11.4,4.3-16.9,2.4c-1.2-0.4-1.7,1.4-0.5,1.8c3.4,1.2,7.1,1.9,10.7,1.3
		c3-0.5,6-1.8,8.1-4.2C109.4,280.1,108,278.7,107.2,279.6L107.2,279.6L107.2,279.6z"/>
	<path class="st5" d="M107,279c3.6,1.7,6.7,4.2,9.2,7.3c1.3,1.6,2.4,3.3,3.2,5.1c0.2,0.4,0.5,0.9,0.6,1.4c0.2,1-0.2,1.7-1,2.3
		c-1,0.6-2.1,1.1-3.3,1.4c-4.3,1.3-9.1,1.6-13.6,1.3s-9-1.2-13.3-2.7c-0.6-0.2-1.6-0.4-2-0.8c-0.7-0.6-0.7-1.5-0.6-2.4
		c0.1-1.1,0.2-2.2,0.5-3.4c0.5-2.3,1.5-4.4,2.6-6.5c0.2-0.4-0.4-0.8-0.6-0.4c-1.1,2.1-2,4.2-2.6,6.5c-0.2,1-0.4,1.9-0.5,2.9
		s-0.4,2.3,0.2,3.2c0.5,0.7,1.4,0.9,2.1,1.2c1.3,0.5,2.7,1,4,1.3c2.6,0.7,5.2,1.2,7.8,1.5c5.2,0.6,10.7,0.4,15.8-1
		c1.6-0.5,4.6-1.3,5.3-2.9c0.4-0.9-0.1-1.8-0.5-2.6c-0.5-1-1-2.1-1.6-3c-2.8-4.4-6.7-8-11.4-10.3C107,278.2,106.6,278.8,107,279
		L107,279L107,279z"/>
</g>
<g>
	<path class="st4" d="M50.1,277.1c-5.5,3.5-9.7,9.1-11.5,15.3c-0.1,0.4-0.2,0.9-0.1,1.3c0.2,0.5,0.7,0.8,1.2,1.1
		c2.3,1.1,5,1.5,7.5,1.6c8.5,0.4,16.3,1.1,23.8-3c0.4-0.2,0.8-0.4,1-0.8c0.2-0.4,0.1-0.8,0.1-1.2c0.3-5.4-0.4-9.4-3.6-13.3"/>
	<path class="st9" d="M49.5,280c5.1,4.7,13.3,3.9,19.1,1.1c1.1-0.5,0.1-2.2-1-1.6c-5,2.4-12.4,3.2-16.8-0.8
		C49.9,277.8,48.6,279.2,49.5,280L49.5,280L49.5,280z"/>
	<path class="st5" d="M50,276.8c-4,2.6-7.4,6.2-9.6,10.5c-0.5,1-1,2-1.4,3.1c-0.4,1-1.1,2.5-0.8,3.5c0.6,1.8,4,2.3,5.5,2.6
		c2.7,0.5,5.5,0.5,8.2,0.6s5.5,0.1,8.3-0.1c2.6-0.2,5.2-0.7,7.6-1.6c1.7-0.6,4.5-1.4,4.7-3.5c0.2-2.5,0.5-5,0-7.4s-1.8-4.8-3.7-6.6
		c-0.3-0.3-0.8,0.2-0.5,0.5c3.2,3,4,7,3.7,11.2c-0.1,1.1,0,2.6-0.8,3.4s-2.5,1.3-3.6,1.7c-2.1,0.8-4.3,1.3-6.6,1.5
		c-4.5,0.5-9,0.2-13.5,0c-2.5-0.1-5.1-0.4-7.4-1.5c-0.9-0.4-1.2-1-1.1-2.1c0.1-0.5,0.3-1,0.5-1.5c0.4-1.1,0.8-2.1,1.3-3.1
		c2.2-4.3,5.5-8,9.6-10.6C50.7,277.2,50.3,276.6,50,276.8L50,276.8L50,276.8z"/>
	<path class="st0" d="M43.2,291.6c0.4-0.8,0.8-1.6,1.3-2.3c0.2-0.4,0.5-0.7,0.8-1.1c0,0.1-0.1,0.1,0,0c0,0,0.1-0.1,0.1-0.1
		c0.1-0.1,0.1-0.2,0.2-0.2c0.2-0.2,0.3-0.4,0.5-0.5c0.3-0.4,0.4-1,0-1.4c-0.4-0.3-1-0.4-1.3,0c-1.2,1.4-2.3,3-3.2,4.7
		c-0.2,0.5-0.1,1,0.3,1.3C42.3,292.1,42.9,292,43.2,291.6C43.2,291.6,43.2,291.6,43.2,291.6z"/>
	<path class="st0" d="M48.2,284.5c1.2,0,1.2-1.9,0-1.9S47,284.5,48.2,284.5L48.2,284.5z"/>
</g>
<path class="st10" d="M60.8,194.1l-2.7,22.2L55.5,270c0,0-0.6,1.9-0.8,2.1c-0.4,0.4-0.6,0.6-1.1,0.7c-1.8,0.3-3.3,2.1-3,3.8
	s1.7,3.2,3.3,3.9c1.6,0.7,3.5,0.8,5.2,0.8c2.3-0.1,5.2,0.3,7.1-1c0.8-0.6,1.9-1.7,2-2.7c0-0.8-0.4-2.1-0.7-2.8
	c-0.3-0.8-0.8,1.2-0.6,0.3c0.7-3.2,5.6-38.6,6-40.5c2.9-13.9,3.5-25.6,10.3-38.4c-0.7,0-0.4-0.3-1-0.4"/>
<path class="st10" d="M100.6,188.9c1.9,18.7,2.9,68.1,3.2,86.9l0.3-2.8c1.8,0.2,3.8,0.9,4.4,2.5c0.4,1.1,0.1,2.4-0.6,3.4
	s-1.7,1.6-2.8,2.2c-4.1,2.1-9.1,2.6-13.5,1.2c-0.9-0.3-1.9-0.7-2.6-1.3s-1.3-1.6-1.2-2.6c0.1-1,0.7-1.9,1.4-2.5s1.7-1,2.6-1.3
	l-0.3,2.9c-1.2-11-3.1-36.3-6-55.9c-1.2-7.9-2.7-22-2.7-22"/>
<path class="st11" d="M58.9,210.1c-0.4,5.5-0.8,11.1-1.2,16.6c-0.1,0.8-0.1,1.6-0.2,2.4c-0.1,1.9,2.9,1.9,3,0
	c0.4-5.5,0.8-11.1,1.2-16.6c0.1-0.8,0.1-1.6,0.2-2.4C62,208.2,59,208.2,58.9,210.1L58.9,210.1z"/>
<path class="st12" d="M73.1,231.9c0.5-3.6,1.2-7.2,2-10.8c1.3-6.1,2.9-12.4,5.8-18c0.9-1.7-1.7-3.2-2.6-1.5
	c-3,5.7-4.7,12.1-6.1,18.4c-0.8,3.7-1.6,7.4-2.1,11.1C70,233,72.9,233.8,73.1,231.9L73.1,231.9L73.1,231.9z"/>
<path class="st5" d="M67,275.7c2-9.3,3.1-18.8,4.4-28.3c1.5-10.7,3-21.5,5.5-32.1c1.1-4.8,2.5-9.6,4.6-14.1c0.2-0.4-0.4-0.8-0.6-0.4
	c-4,8.5-5.7,18.2-7.3,27.4c-1.9,10.9-3.2,21.8-4.8,32.7c-0.7,4.9-1.4,9.8-2.5,14.6C66.2,275.9,66.9,276.1,67,275.7L67,275.7
	L67,275.7z"/>
<path class="st12" d="M50.8,277.8c1.3,3.2,5,3.9,8.2,4c1.8,0,3.6-0.2,5.4-0.6c1.7-0.4,3.4-1,4.1-2.7c0.3-0.8-0.3-1.6-1.1-1.9
	c-0.8-0.2-1.6,0.3-1.8,1c0,0-0.7,0.3-0.8,0.3c-0.6,0.2-1.2,0.4-1.8,0.5c-1.3,0.3-2.6,0.4-3.9,0.3c-1.2,0-2.3-0.2-3.4-0.5
	c-0.7-0.2-1.5-0.6-1.8-1.3c-0.3-0.8-1-1.3-1.8-1C51.1,276.2,50.5,277.1,50.8,277.8L50.8,277.8L50.8,277.8z"/>
<path class="st5" d="M59,282c1.5,0,3.1-0.1,4.6-0.3c1.3-0.2,2.6-0.5,3.7-1.3c0.9-0.7,1.6-1.7,1.6-2.8c0.1-1.2-0.7-2.3-1.5-3.2
	c-0.3-0.3-0.8,0.2-0.5,0.5c0.7,0.8,1.4,1.7,1.3,2.8c-0.1,1-0.9,1.9-1.8,2.4c-1,0.6-2.2,0.8-3.4,0.9c-1.3,0.2-2.7,0.2-4,0.2
	C58.5,281.2,58.5,282,59,282L59,282L59,282z"/>
<path class="st5" d="M54.9,272.2c-2.3,0.4-5.1,2.5-4.7,5.1c0.2,1.3,1.3,2.2,2.3,2.9c1.1,0.8,2.4,1.2,3.8,1.5
	c0.5,0.1,0.6-0.6,0.2-0.7c-1.1-0.2-2.2-0.6-3.2-1.2c-0.9-0.5-2.1-1.4-2.3-2.5s0.5-2.3,1.2-3c0.8-0.8,1.8-1.3,3-1.5
	C55.5,272.8,55.3,272.1,54.9,272.2L54.9,272.2L54.9,272.2z"/>
<path class="st5" d="M55.6,273.9c0.6-9.5,1-19.1,1.6-28.6c0.6-11.6,1.3-23.2,2.2-34.8c0.4-4.7,0.8-9.5,1.6-14.2
	c0.1-0.4-0.6-0.6-0.7-0.2c-1.5,9.4-2,19-2.6,28.4c-0.8,11.7-1.3,23.4-2,35.1c-0.2,4.7-0.5,9.5-0.8,14.2
	C54.9,274.4,55.6,274.4,55.6,273.9L55.6,273.9L55.6,273.9z"/>
<path class="st12" d="M98.4,200c1,9.2,1.3,18.6,1.7,27.8c0.4,11.1,0.8,22.2,1,33.3c0.1,4.6,0.2,9.3,0.2,14c0,1.5,2.3,1.4,2.2,0
	c0-9.3-0.2-18.6-0.5-27.9c-0.3-11.1-0.7-22.2-1.3-33.3c-0.3-4.6-0.6-9.3-1.1-13.9C100.5,198.5,98.3,198.6,98.4,200L98.4,200
	L98.4,200z"/>
<path class="st5" d="M100.3,189.3c1.1,10.7,1.4,21.5,1.8,32.3c0.5,12.8,0.8,25.6,1.1,38.4c0.1,5.4,0.2,10.8,0.3,16.2
	c0,0.5,0.7,0.5,0.7,0c-0.1-10.8-0.4-21.6-0.7-32.4c-0.3-12.8-0.7-25.6-1.4-38.3c-0.3-5.4-0.6-10.8-1.1-16.2
	C100.9,188.9,100.2,188.9,100.3,189.3L100.3,189.3L100.3,189.3z"/>
<path class="st5" d="M85.6,224.3c0.5,5.1,1.1,10.3,1.6,15.4c0.9,9.2,1.9,18.3,2.8,27.5c0.3,3.4,0.7,6.8,1.1,10.2
	c0.1,0.5,0.8,0.5,0.7,0c-0.8-7.2-1.5-14.5-2.3-21.7c-0.9-8.6-1.8-17.1-2.7-25.7c-0.2-1.9-0.4-3.8-0.6-5.6
	C86.3,223.9,85.6,223.9,85.6,224.3L85.6,224.3L85.6,224.3z"/>
<path class="st5" d="M82.4,200.4c0.8,5.7,1.6,11.4,2.3,17.1c0.1,0.8,0.2,1.6,0.3,2.4c0.1,0.4,0.8,0.3,0.7-0.2
	c-0.8-5.7-1.6-11.4-2.3-17.1c-0.1-0.8-0.2-1.6-0.3-2.4C83.1,199.7,82.4,199.9,82.4,200.4L82.4,200.4z"/>
<path class="st5" d="M90.3,275.3c-2.1,1-3.8,3.3-2.3,5.6c1.5,2.1,4.7,2.7,7.1,2.9c3,0.3,6-0.2,8.8-1.3c2.2-0.9,4.8-2.4,5.1-5.1
	c0.3-2.9-2.6-4-5-4.3c-0.4-0.1-0.4,0.7,0,0.7c1.2,0.2,2.6,0.5,3.5,1.4c1.2,1.2,0.8,3.1-0.2,4.3c-1.7,2-4.8,3-7.4,3.4
	c-2.7,0.5-5.6,0.4-8.3-0.5c-1.4-0.4-3-1.1-3.5-2.7c-0.6-1.8,1-3.1,2.4-3.8C91.1,275.7,90.7,275.1,90.3,275.3L90.3,275.3L90.3,275.3z
	"/>
<path class="st5" d="M68.3,252.2c0.5-3.2,1-6.4,1.5-9.5c0.1-0.4,0.1-0.9,0.2-1.4s-0.6-0.6-0.7-0.2c-0.5,3.2-1,6.4-1.5,9.5
	c-0.1,0.4-0.1,0.9-0.2,1.4S68.2,252.7,68.3,252.2L68.3,252.2z"/>
<circle class="st5" cx="85.7" cy="222.2" r="0.6"/>
<path class="st10" d="M55.6,175c-3.8,8.8-0.1,19.4,9.3,25.2c9.3,5.8,23.8,6,33.1,0.2c2-1.2,3.7-2.7,5.3-4.2c4.3-4.3,6.7-9.2,6-14.6"
	/>
<path class="st7" d="M46.3,120.1c-0.8,18.1-2,48.6-2.8,66.6c-0.1,2.4-0.1,6.2,0.5,8.6c0.6,2.3,2.3,4.2,4.5,5s5.6-0.4,6.5-2.6
	c0.7-1.7,0.7-4.9,0.3-6.7c-2.3-10.9,2.2-33.7,3.8-44.7c1.1-7.5,0.5-15.2-1.6-22.4"/>
<path class="st13" d="M46,126.1c2.5,2.3,5.8,4.1,9.2,4.2c0.8,0,1.2-1.2,0.4-1.6c-2.2-1-4.3-2.2-6.7-2.8c-1.1-0.2-1.6,1.4-0.5,1.7
	c2.2,0.5,4.2,1.7,6.2,2.6l0.4-1.6c-3-0.1-5.9-1.7-8-3.7C46.4,124.1,45.1,125.3,46,126.1L46,126.1L46,126.1z"/>
<path class="st0" d="M67.1,92.6c-10.3,4-22.1,14.8-24.5,27.5c-0.2,0.9,0.8,1.7,1.3,2.4c0.4,0.6,0.8,1,1.5,1.3
	c2.5,1.1,4.1,2.3,6.6,3.4c1,0.4,2,0.9,3.2,0.8c1.5-0.1,2.6-1.2,3.5-2.4c1.7-2.4,2.7-5.3,3.3-8.1c1-4.3,1.6-8.6,1.8-13"/>
<path class="st12" d="M55.8,183c6.6,5.9,15.7,5.9,24,4.6c4.7-0.8,9.4-1.8,14.2-2.3c2.2-0.2,4.4-0.3,6.6-0.2c1.2,0.1,2.4,0.2,3.5,0.5
	c0.9,0.2,2.2,0.4,3,0.9l-0.5-0.7c-0.1-0.2,0-0.2-0.1,0.1c-0.1,0.1-0.1,0.3-0.2,0.5c-0.1,0.4-0.1,0.9-0.2,1.3c-0.3,1.1-0.7,2.1-1.1,3
	c-0.9,1.8-2.1,3.5-3.7,4.8c-1.1,0.9,0.5,2.5,1.6,1.6c3-2.4,4.9-6.2,5.6-9.8c0.1-0.7,0.6-1.4,0.3-2.1c-0.3-0.9-1.2-1-2-1.2
	c-2.2-0.7-4.5-1.1-6.8-1.2c-9.8-0.4-19.1,3.4-28.8,3.3c-4.9-0.1-9.9-1.4-13.6-4.7C56.3,180.4,54.7,182,55.8,183L55.8,183L55.8,183z"
	/>
<path class="st5" d="M99.8,200.2c5.6-4.4,10.9-11.5,9.8-19.1c-0.1-0.4-0.8-0.3-0.7,0.2c1.1,7.3-4.3,14.1-9.7,18.4
	C98.9,200,99.4,200.5,99.8,200.2L99.8,200.2L99.8,200.2z"/>
<path class="st5" d="M75.4,204.4c4.7,0.8,9.6,0.7,14.3-0.3c0.4-0.1,0.3-0.8-0.2-0.7c-4.6,1-9.3,1.1-13.9,0.3
	C75.2,203.6,75,204.3,75.4,204.4L75.4,204.4z"/>
<path class="st5" d="M56.9,182c6.5,5,15.4,5.3,23.2,4c4.8-0.8,9.4-2.2,14.2-2.5s9.9,0,14.7,1c0.4,0.1,0.6-0.6,0.2-0.7
	c-4.4-0.9-9-1.4-13.5-1.1s-8.7,1.2-13,2.1c-8.2,1.7-18.3,2.1-25.3-3.3C57,181.2,56.5,181.7,56.9,182L56.9,182L56.9,182z"/>
<path class="st11" d="M54.6,187c1.4,4.2,3.8,8,7.1,11c1.1,1,2.7-0.6,1.6-1.6c-3-2.7-5.3-6.1-6.5-10C56.3,185,54.1,185.6,54.6,187
	L54.6,187L54.6,187z"/>
<path class="st5" d="M54,179.6c-1,7.7,2.8,15,8.9,19.6c0.4,0.3,0.7-0.3,0.4-0.6c-5.9-4.5-9.5-11.6-8.5-19
	C54.8,179.1,54.1,179.1,54,179.6L54,179.6z"/>
<path class="st0" d="M107.1,128.7c-0.7,0,0.7,0.4,0.3,0.8c-0.4,0.5,0.2,1.9,0.2,2.6c0.1,2.5,0.3,12.9,1.1,22.7
	c0.7,8.9,0.7,30.4,0.8,32.7c-3.6-0.6-8.4-1.3-12.1-1.1c-3.1,0.2-7.7,0.6-10.7,1.3c-5.8,1.3-11.7,2.2-17.5,1.7
	c-5.9-0.5-13.5-3.9-17.4-8.4c1.6-4,2.8-17.8,3.6-31.9c0.8-13.7,2.4-27.5,2.4-32.7c0-0.7,0.7-1,0.3-1.5c0-0.1-0.1-0.1-0.2-0.2
	c0.1-0.5,0.2-1.1,0.3-1.7c1.2-6.7,2-12.9,5.2-18.9c0-0.1,1.7-0.6,1.8-0.6c0.4-0.3,1.2-0.8,1.6-1c0.9-0.5,7.9-1.5,8.3-0.5l17.2-2.7
	l5.1-0.6l15.7,0.9l6.7-0.4l2.2-1.3l1.2-1.4l0.3,3.5l1.5,5.2l1.7,3.7l3.1,3.8l2.5,2l-13.9,8.2l-5.2,3.2c-3.4,2.1-5.6,5.6-5.9,9.6
	L107.1,128.7L107.1,128.7z"/>
<path class="st5" d="M57.9,116c0.2-3,0.6-6,1.6-8.9c0.2-0.4-0.5-0.6-0.7-0.2c-1,2.9-1.5,6-1.7,9.1C57.1,116.5,57.9,116.5,57.9,116
	L57.9,116L57.9,116z"/>
<path class="st5" d="M57.2,131.9c0.7-4.3,0.5-8.7,0.6-13.1c0-0.5-0.7-0.5-0.7,0c-0.1,4.3,0.1,8.6-0.6,12.9
	C56.4,132.1,57.1,132.3,57.2,131.9L57.2,131.9L57.2,131.9z"/>
<path class="st5" d="M55.3,184.1c-1.1-1.1-2.4-1.9-3.5-3v0.5c1.1-1.2,1.1-3.7,1.3-5.2c0.5-3.5,0.8-7.1,1.1-10.6
	c0.7-8.1,1.2-16.1,1.7-24.2c0.2-2.3,0.1-4.8,0.7-7c0.1-0.4-0.6-0.6-0.7-0.2c-0.4,1.8-0.4,3.7-0.5,5.5c-0.3,3.6-0.5,7.1-0.7,10.7
	c-0.5,7.9-1,15.9-2,23.8c-0.2,1.5-0.4,3-0.7,4.5c-0.1,0.6-0.2,1.6-0.7,2.2c-0.1,0.1-0.1,0.4,0,0.5c1.1,1.1,2.4,1.9,3.5,3
	C55.1,184.9,55.6,184.4,55.3,184.1L55.3,184.1L55.3,184.1z"/>
<g>
	<path class="st0" d="M61.6,126c0.2-1.7,0.3-3.5,0.3-5.2c0-0.5-0.4-1-1-0.9s-1,0.4-1,0.9c0,1.7-0.1,3.5-0.3,5.2
		c-0.1,0.5,0.5,1,1,0.9C61.2,126.9,61.6,126.5,61.6,126L61.6,126z"/>
	<path class="st0" d="M62.1,116.6c1.2,0,1.2-1.9,0-1.9S60.9,116.6,62.1,116.6L62.1,116.6z"/>
</g>
<path class="st5" d="M66.9,92.4c-6.5,2.3-12.1,6.7-16.5,12c-3.9,4.7-7.4,10.3-8.3,16.5c-0.1,0.4,0.6,0.6,0.7,0.2
	c0.9-6,4.3-11.6,8.1-16.2c4.3-5.2,9.8-9.6,16.2-11.8C67.5,92.9,67.3,92.2,66.9,92.4L66.9,92.4L66.9,92.4z"/>
<path class="st5" d="M42.1,121.2c3.4,4,8.3,6.7,13.5,7.4c0.5,0.1,0.6-0.6,0.2-0.7c-5.1-0.7-9.8-3.3-13.2-7.2
	C42.3,120.3,41.8,120.8,42.1,121.2C42.1,121.2,42.1,121.2,42.1,121.2z"/>
<path class="st5" d="M45.7,124.6c-0.8,16.6-1.4,33.2-2.1,49.7c-0.2,4.1-0.3,8.3-0.5,12.4c0,0.5,0.7,0.5,0.7,0
	c0.8-16.6,1.4-33.1,2.1-49.7c0.2-4.1,0.3-8.3,0.5-12.4C46.5,124.1,45.8,124.1,45.7,124.6C45.7,124.6,45.7,124.6,45.7,124.6z"/>
<path class="st5" d="M43.2,192.2c-0.4,2.9,0.8,6.1,3.4,7.7c2.5,1.5,5.8,1.4,7.8-0.8c1.1-1.1,1.7-2.7,1.5-4.3c0-0.4-0.8-0.5-0.7,0
	c0.2,1.6-0.5,3.2-1.8,4.3s-3,1.4-4.6,1c-3.5-0.9-5.3-4.5-4.8-7.9C44,191.8,43.3,191.8,43.2,192.2L43.2,192.2L43.2,192.2z"/>
<path class="st5" d="M77,189.6l0.2,4c0.1,1.2,0.1,2.5,0.2,3.7c0.1,0.9,0.5,1.9,1.3,2.4c0.7,0.4,1.6,0.4,2.3-0.1
	c0.3-0.3-0.2-0.8-0.5-0.5c-0.6,0.5-1.5,0.1-1.9-0.4c-0.6-0.8-0.6-1.8-0.6-2.7c-0.1-2.1-0.2-4.2-0.3-6.3
	C77.6,189.2,76.9,189.2,77,189.6L77,189.6L77,189.6z"/>
<path class="st5" d="M76.2,193.1c1.3,0.1,2.6,0,3.8-0.1c0.2,0,0.4-0.1,0.4-0.4c0-0.2-0.2-0.4-0.4-0.4c-1.3,0.2-2.5,0.2-3.8,0.1
	C75.7,192.3,75.7,193.1,76.2,193.1L76.2,193.1z"/>
<path class="st5" d="M76.3,196.2c1.7,0.1,3.4,0,5.1-0.2c0.4,0,0.5-0.8,0-0.7c-1.7,0.2-3.4,0.2-5.1,0.2
	C75.8,195.5,75.8,196.2,76.3,196.2L76.3,196.2z"/>
<path class="st5" d="M98.5,182.6l3.3-1.3c0.2-0.1,0.3-0.2,0.2-0.4c-0.1-0.2-0.3-0.3-0.4-0.2l-3.3,1.3c-0.2,0.1-0.3,0.2-0.2,0.4
	C98.1,182.5,98.3,182.7,98.5,182.6L98.5,182.6z"/>
<path class="st5" d="M99.7,180.5c1-0.4,2-0.9,3-1.2c0.2-0.1,0.3-0.2,0.2-0.4c-0.1-0.2-0.3-0.3-0.4-0.2c-1.1,0.4-2.1,0.8-3.1,1.3
	c-0.2,0.1-0.2,0.3-0.1,0.5C99.3,180.5,99.5,180.6,99.7,180.5L99.7,180.5L99.7,180.5z"/>
<path class="st5" d="M52.8,177.3c4,5.4,10.5,8.6,17.2,8.6c0.5,0,0.5-0.7,0-0.7c-6.4,0-12.7-3-16.5-8.2
	C53.1,176.6,52.5,176.9,52.8,177.3C52.8,177.3,52.8,177.3,52.8,177.3z"/>
<path class="st5" d="M71.7,185.9c0.5,0.1,1,0,1.5-0.2c0.1,0,0.2-0.1,0.2-0.2c0-0.1,0.1-0.2,0-0.3c-0.1-0.2-0.2-0.3-0.4-0.2
	c-0.1,0-0.2,0.1-0.3,0.1c-0.1,0-0.1,0-0.2,0c0,0-0.1,0-0.1,0c0,0,0,0-0.1,0c0.1,0,0.1,0,0,0c-0.2,0-0.5,0-0.7,0
	c-0.1,0-0.2,0.1-0.2,0.1c-0.1,0.1-0.1,0.2-0.1,0.2s0,0.2,0.1,0.2C71.5,185.9,71.6,185.9,71.7,185.9L71.7,185.9L71.7,185.9z"/>
<g class="st14">
	<path class="st15" d="M73.9,124.3c0.3,0,0.3-0.4,0-0.4S73.7,124.3,73.9,124.3L73.9,124.3z"/>
</g>
<path class="st5" d="M110.3,280.2c-0.5,1.4-0.8,3-1.8,4.1c-0.8,0.9-2.8,1.6-3.4,0c-0.5-1.4,1.5-2.6,2.6-3c1.2-0.4,2.4-0.5,3.6-0.7
	c2.1-0.3,4.6-0.8,5.6-2.8c0.5-0.9,0.5-2.1-0.3-2.8c-0.8-0.6-1.9-0.5-2.8-0.2c-2.4,1-3.8,3.5-3.7,6c0,0.5,0.7,0.5,0.7,0
	c-0.1-2.3,1.4-5.2,3.9-5.6c0.5-0.1,1.1,0,1.5,0.3c0.6,0.6,0.3,1.5-0.1,2.1c-0.7,1-1.8,1.5-2.9,1.8c-2.3,0.6-4.8,0.4-6.9,1.6
	c-0.9,0.5-1.8,1.4-1.9,2.5c-0.1,1,0.6,1.9,1.6,2.2c1.3,0.4,2.6-0.4,3.3-1.4c0.9-1.2,1.3-2.8,1.8-4.1
	C111.2,280,110.5,279.8,110.3,280.2L110.3,280.2L110.3,280.2z"/>
<path class="st5" d="M46.8,279.2c-0.8-0.1-1.5-0.4-2.2-0.8c-0.6-0.4-1.3-0.8-1.6-1.5c-0.2-0.6,0.2-1.4,0.9-1.3s1.1,0.9,1.4,1.5
	c0.6,1.4,1.2,2.9,2.2,4.1c0.8,0.9,2.3,1.5,3.4,0.7c1.5-1.2-1-2.7-2-3.2c-0.4-0.2-0.8,0.4-0.4,0.6c0.7,0.3,1.3,0.8,1.9,1.3
	c0.2,0.2,0.3,0.3,0.2,0.6c-0.1,0.1-0.3,0.3-0.5,0.3c-0.3,0.1-0.7,0.1-1,0c-0.7-0.2-1.2-0.9-1.6-1.5c-0.5-0.7-0.8-1.5-1.2-2.3
	c-0.5-1.2-1-2.9-2.6-2.9c-1.4,0-1.8,1.5-1.3,2.6c0.3,0.7,1,1.2,1.7,1.5c0.8,0.4,1.6,0.7,2.5,0.9C47.1,280,47.3,279.3,46.8,279.2
	L46.8,279.2L46.8,279.2z"/>
<path class="st7" d="M78.7,97.1L78.7,97.1c-3.2,0-5.8-2.6-5.8-5.8v-10h11.6v10C84.5,94.5,81.9,97.1,78.7,97.1z"/>
<path class="st13" d="M73.7,87.4c3.4,1,7.2,1,10.5-0.3c0.4-0.2,0.7-0.6,0.6-1.1c-0.1-0.4-0.6-0.8-1.1-0.6c-3,1.2-6.4,1.2-9.6,0.3
	C73.1,85.4,72.6,87.1,73.7,87.4L73.7,87.4L73.7,87.4z"/>
<path class="st5" d="M84.2,85.4v4.3c0,0.5,0,1.1,0,1.6c0,1.3-0.5,2.6-1.3,3.6c-1.8,2.1-4.9,2.5-7.2,0.9c-1.1-0.8-1.9-1.9-2.2-3.2
	c-0.2-0.7-0.1-1.4-0.1-2.1v-4.9c0-0.5-0.7-0.5-0.7,0v4.8c0,0.7,0,1.4,0.1,2.1c0.3,1.3,1,2.6,2,3.4c2.1,1.8,5.2,2,7.5,0.4
	c1.9-1.3,2.7-3.4,2.7-5.6v-5.3C84.9,85,84.1,85,84.2,85.4L84.2,85.4L84.2,85.4z"/>
<path class="st7" d="M99.2,73.9c-3.7,9.2-12.3,12.3-21.5,12.2c-12.6-0.2-22.6-12.3-22.4-27.2c0.1-5.8,1.7-11.2,4.4-15.5l5.1-6.9
	l1.9-1.5l29.6,4.2l1.7,24.3l4.2,2.4C102.3,65.9,99.2,73.9,99.2,73.9z"/>
<path class="st7" d="M95.2,54.9c1.7-2.2,3.6-4,6.2-4.9s5.8-0.7,7.8,1.3c1.4,1.4,2,3.4,1.9,5.3c-0.1,4-2.9,7.7-6.7,8.9
	s-8.2-0.3-10.6-3.5"/>
<path class="st16" d="M62.8,43.4c-3.8-3.5-5-9.5-2.7-14.2c0.4-0.9,1-1.8,1.8-2.3s1.9-0.8,2.8-0.4c0.7,0.3,1.3,1,2.1,1.1
	c0.3,0,0.7,0,0.8,0.2c0.1,0.1,0.1,0.3,0,0.4c-0.2,2-0.5,4-0.8,6"/>
<path class="st5" d="M59.3,36.6C59,34,59.7,31.3,61,29.1c0.2-0.4-0.4-0.8-0.6-0.4c-1.4,2.3-2.1,5.2-1.8,7.9
	C58.6,37,59.3,37.1,59.3,36.6L59.3,36.6L59.3,36.6z"/>
<path class="st5" d="M68.8,61.1c0,0.8,0.4,1.5,1.1,1.9s1.5,0.4,2.2,0.1c0.2-0.1,0.2-0.3,0.1-0.5c-0.1-0.2-0.3-0.2-0.5-0.1
	c-0.5,0.2-1.1,0.2-1.5-0.1c-0.4-0.3-0.7-0.8-0.7-1.2c0-0.2-0.2-0.4-0.4-0.4S68.8,60.9,68.8,61.1L68.8,61.1L68.8,61.1z"/>
<path class="st0" d="M71.9,64.9c2.2-0.4,4-1.9,5.9-2.9s4.4-1.7,6.3-0.5c1.8,1.1,2.3,3.5,1.7,5.5s-2.1,3.6-3.8,4.8
	c-2.3,1.7-5.1,3-8,3.5c-2,0.4-4.1,0.5-6.1-0.1s-3.8-1.9-4.6-3.8s-0.7-4.2,0.7-5.7c1.4-1.5,4-1.8,5.5-0.4"/>
<path class="st17" d="M66.8,67.8c0.1-0.1,0.7-0.5,0.7-0.6c0,0.1-0.8-0.7-0.5-0.2c0.1,0.2,0.3,0.4,0.5,0.6c0.7,0.5,1.6,0.6,2.4,0.6
	c1.8,0.1,3.6-0.6,5.1-1.5c1.4-0.8,2.8-1.8,4.2-2.5c1-0.5,2.7-1.1,3.6-0.2c1.4,1.3,3.5-0.8,2.1-2.1c-3.3-3-7.5-0.2-10.5,1.7
	c-0.8,0.5-1.6,0.9-2.4,1.2c-0.4,0.2-0.9,0.3-1.4,0.4S69.8,65,69.4,65c0.1,0,0.3,0.4-0.1-0.1c-0.2-0.2-0.3-0.4-0.5-0.5
	c-0.4-0.3-0.9-0.3-1.4-0.3c-1.1,0.1-2,0.7-2.7,1.5C63.4,67.1,65.5,69.2,66.8,67.8L66.8,67.8L66.8,67.8z"/>
<path class="st5" d="M72,65.3c3.4-0.8,6-3.9,9.6-4.1c2-0.1,3.6,1.1,4.1,3.1c0.4,1.8-0.2,3.5-1.3,4.9c-2.2,2.9-5.9,4.7-9.3,5.6
	c-3.7,0.9-8.4,0.8-10.8-2.7c-1.1-1.6-1.3-3.9-0.2-5.6c1.2-1.8,3.8-2.3,5.4-1c0.3,0.3,0.9-0.2,0.5-0.5c-2.9-2.3-6.9-0.2-7.3,3.2
	c-0.6,4.3,3.4,7.2,7.2,7.6c4.6,0.5,9.7-1.5,13.2-4.4c2.7-2.2,5.1-6.7,2.1-9.8c-4-4-9.4,1.9-13.3,2.8C71.4,64.7,71.5,65.4,72,65.3
	L72,65.3L72,65.3z"/>
<path class="st5" d="M68.1,71.3c-0.3-2-0.1-4.2,0.7-6.1c0.2-0.4-0.5-0.6-0.7-0.2c-0.8,2-1,4.3-0.7,6.5
	C67.5,71.9,68.2,71.7,68.1,71.3C68.1,71.3,68.1,71.3,68.1,71.3z"/>
<path class="st5" d="M69.4,75.1c-0.4-0.8-0.8-1.6-1-2.4c-0.1-0.4-0.8-0.2-0.7,0.2c0.2,0.9,0.6,1.8,1.1,2.6
	C69,75.9,69.6,75.5,69.4,75.1L69.4,75.1z"/>
<path class="st5" d="M73.1,64.6c1.4,3.3,2,6.8,2,10.4c0,0.5,0.7,0.5,0.7,0c0-3.6-0.6-7.2-2-10.6C73.7,64,73,64.2,73.1,64.6
	L73.1,64.6z"/>
<path class="st5" d="M78.2,62.2c1.7,3,2.7,6.4,2.9,9.9c0,0.5,0.7,0.5,0.7,0c-0.2-3.6-1.2-7.1-3-10.2C78.6,61.5,78,61.8,78.2,62.2
	L78.2,62.2L78.2,62.2z"/>
<path class="st16" d="M106.1,49.7c1.4-3.9,2-8,1.3-12.1c-0.7-4-2.9-7.9-6.4-10.1l-0.5,1.2c0.7-2-0.1-4.4-1.6-5.8s-3.8-2.1-5.9-2.1
	c-2.2,0-4.6,1-5.9,2.8v-0.2c0.5-1.9,0.7-4,0.1-5.9c-0.5-1.9-1.8-3.6-3.7-4.4c-2.3-1-5.1-0.2-7,1.4c-2.1,1.8-3.2,5-2,7.5l0,0.1
	c-3-2.7-7.8-3.1-11.2-1c-2.2,1.4-3.8,3.9-3.7,6.6c0.2,2.5,1.9,4.7,3.9,6c2.1,1.4,4.5,2,6.9,2.7l3.9-4.7c-1.9,1-3.6,2.6-3.8,4.9
	c-0.1,0.7,0,1.4,0.3,2c1.1,2.3,3.7,2.4,5.9,2.2c1-0.1,2.1-0.4,2.6-1.2l5-4.9c-1.4-0.2-2.9,0.3-3.8,1.4s-1.3,2.6-1,3.9
	c0.2,0.7,0.5,1.3,1,1.7c0.5,0.4,1.1,0.6,1.8,0.8c2.7,0.7,7.5-1.3,10.3-1.8c0,1.4,0,3.3-0.3,5.3c-0.5,3.2-1.2,6.2-1.1,8.5l0.1-0.4
	c0,1,0.9,2.5,1.9,2.5l1.4,0.5l0.6-1.9l0.8-1l2.8-3l4.8-1.9L106.1,49.7L106.1,49.7z"/>
<path class="st5" d="M95.8,23.7c0.5,0,0.5-0.7,0-0.7S95.4,23.7,95.8,23.7L95.8,23.7z"/>
<path class="st5" d="M78.2,13.6c2.5-1.3,5.5-0.9,7.3,1.3s1.9,5.5,1.2,8.2c-0.1,0.5,0.6,0.6,0.7,0.2c0.8-3.1,0.7-6.5-1.4-9
	s-5.3-2.7-8.1-1.3C77.4,13.2,77.8,13.8,78.2,13.6L78.2,13.6L78.2,13.6z"/>
<path class="st5" d="M74.8,21.6c-1.2-2.5,0-5.4,2-7.1c0.3-0.3-0.2-0.8-0.5-0.5c-2.2,1.9-3.4,5.2-2.1,8C74.4,22.4,75,22.1,74.8,21.6
	C74.8,21.6,74.8,21.6,74.8,21.6z"/>
<path class="st5" d="M89.3,24.2c1.2-1,2.8-1.4,4.4-1.1c0.4,0.1,0.6-0.6,0.2-0.7c-1.8-0.3-3.6,0.2-5.1,1.3c-0.2,0.1-0.1,0.4,0,0.5
	C89,24.4,89.2,24.4,89.3,24.2C89.3,24.2,89.3,24.2,89.3,24.2z"/>
<path class="st5" d="M62,27.9c-0.3-2.1,1-4.2,2.9-5c0.4-0.2,0.1-0.8-0.4-0.6c-2.2,1-3.5,3.5-3.2,5.8c0,0.2,0.3,0.3,0.4,0.2
	C62,28.3,62.1,28.1,62,27.9C62,27.9,62,27.9,62,27.9z"/>
<path class="st5" d="M66.4,22.8c0.5,0,0.5-0.7,0-0.7S65.9,22.8,66.4,22.8L66.4,22.8z"/>
<path class="st5" d="M73,37.2C73,37.2,73,37,73,37.2c0-0.1,0-0.2,0-0.2c0-0.1,0-0.2,0-0.3c0,0,0-0.1,0-0.2c0,0,0-0.1,0,0
	c0-0.1,0-0.2,0.1-0.3c0.1-0.2,0.1-0.3,0.2-0.5c0-0.1,0.1-0.2,0.1-0.3c0,0,0.1-0.1,0.1-0.1c0,0,0.1-0.1,0.1-0.1
	c0.1-0.2,0.2-0.4,0-0.5c-0.1-0.1-0.4-0.2-0.5,0c-0.6,0.8-0.8,1.7-0.7,2.7c0,0.2,0.3,0.3,0.4,0.2C73,37.5,73,37.3,73,37.2
	C73,37.2,73,37.2,73,37.2z"/>
<path class="st18" d="M82.4,35c-1.7,0.4-3,2.1-2.9,3.8c0.1,0.9,0.4,1.8,1.1,2.5c0.7,0.7,1.6,1.1,2.6,1.2c0.9,0.1,1.9,0,2.8,0
	c0.8,0,1.5-0.7,1.5-1.5s-0.7-1.5-1.5-1.5c-0.9,0-1.9,0.1-2.8,0l0.4,0c-0.2,0-0.4-0.1-0.7-0.2l0.4,0.2c-0.2-0.1-0.3-0.2-0.5-0.3
	l0.3,0.2c-0.2-0.1-0.3-0.3-0.4-0.4l0.2,0.3c-0.1-0.2-0.2-0.3-0.3-0.5l0.2,0.4c-0.1-0.2-0.1-0.4-0.2-0.6l0.1,0.4c0-0.2,0-0.4,0-0.5
	l-0.1,0.4c0-0.2,0.1-0.4,0.1-0.5l-0.2,0.4c0.1-0.2,0.2-0.4,0.3-0.5l-0.2,0.3c0.1-0.2,0.3-0.3,0.4-0.4l-0.3,0.2
	c0.2-0.1,0.3-0.2,0.5-0.3L82.9,38c0.1,0,0.2-0.1,0.3-0.1c0.8-0.2,1.3-1.1,1.1-1.8S83.2,34.8,82.4,35L82.4,35L82.4,35z"/>
<path class="st19" d="M72.9,32.4c-0.6,0.5-1.2,1.1-1.6,1.8c-0.3,0.4-0.5,0.8-0.6,1.2c-0.2,0.5-0.1,1.1,0,1.7
	c0.2,0.8,0.5,1.7,1.1,2.4c0.7,0.8,1.8,1.1,2.8,0.8c0.8-0.2,1.3-1,1.1-1.8c-0.2-0.8-1.1-1.3-1.8-1c-0.1,0-0.1,0-0.2,0l0.4,0
	c-0.1,0-0.2,0-0.2,0l0.4,0c-0.1,0-0.1,0-0.2,0c-0.2,0-0.1,0,0.1,0.1c-0.1,0-0.1,0-0.1-0.1c-0.1-0.1-0.1,0,0.1,0.1
	c0,0-0.1-0.1-0.1-0.1c-0.1-0.1-0.1-0.1,0.1,0.1c0-0.1-0.1-0.2-0.2-0.3c-0.1-0.1-0.1-0.1,0,0.1c0,0,0-0.1-0.1-0.2
	c0-0.1-0.1-0.2-0.1-0.3c-0.1-0.2-0.2-0.5-0.2-0.8l0.1,0.4c0-0.1,0-0.3,0-0.4l-0.1,0.4c0-0.1,0.1-0.2,0.1-0.3c0,0.1-0.1,0.3,0,0.1
	c0,0,0.1-0.1,0.1-0.2c0.1-0.1,0.1-0.2,0.2-0.3c0.1-0.2-0.2,0.2-0.1,0.1c0.1-0.1,0.1-0.1,0.2-0.2c0.3-0.4,0.7-0.8,1.1-1.1
	c0.3-0.2,0.4-0.7,0.4-1.1c0-0.4-0.2-0.8-0.4-1.1S74.4,31.9,74,32C73.6,32,73.3,32.1,72.9,32.4L72.9,32.4L72.9,32.4z"/>
<path class="st19" d="M107.2,42.1c0-2,0.6-7.3-1.8-8.2c-2.6-1-3.4,4.7-4.3,6.1c-0.9,1.4-2.3,2.3-3.2,3.7c-1.5,2.4-0.9,5.8,1,7.9
	c1.6-1,2.7-1.7,4.5-2.1c0.7-0.2,1.7,0,2.4-0.3c0.4-0.2,0.6-0.7,0.8-1.1C107.3,46.4,107.1,43.9,107.2,42.1L107.2,42.1z"/>
<g class="st20">
	<path class="st19" d="M106.7,40.7c0-0.6,0.1-1.3,0.1-1.9c0.1-1.7,0.1-3.6-0.4-5.3c-0.2-0.7-0.5-1.5-1-2c-0.2-0.2-0.6-0.4-0.8-0.6
		c-0.4-0.5-0.7-1-1.2-1.4c0,0-0.1-0.1-0.1-0.1c-0.1,0-0.1,0.1-0.1,0.1c-0.7,1.6-1.5,3.1-2.2,4.7c-0.6,1.3-0.7,2.8-1.5,4
		c-1,1.6-2.7,2.7-3.7,4.3c-1.9,3-0.9,7.3,1.4,9.8c0,0,0.1,0.1,0.2,0.1c0.1,0,0.1,0,0.2-0.1c0.5-0.4,0.9-0.9,1.3-1.3
		c0.2-0.2,0.5-0.4,0.8-0.5c0.4-0.3,0.9-0.7,1.4-0.8c0.4-0.1,0.8-0.2,1.2-0.2c0.8-0.2,2,0,2.8-0.3c0.5-0.2,0.7-0.8,0.9-1.3
		C106.8,45.8,106.6,42.9,106.7,40.7L106.7,40.7z"/>
</g>
<path class="st19" d="M94.9,24.1c0.3,0.2,0.6,0.3,0.9,0.5c0.1,0.1,0.3,0.3,0,0c0.1,0.1,0.1,0.1,0.2,0.2c0.1,0.1,0.3,0.2,0.4,0.4
	s0.2,0.2,0.4,0.4c0.1,0.1,0.1,0.1,0.2,0.2c0.2,0.2-0.2-0.3,0,0c0.2,0.3,0.4,0.6,0.6,1l-0.2-0.4c0.1,0.3,0.2,0.5,0.2,0.8l-0.1-0.4
	c0,0.2,0,0.4,0,0.6l0.1-0.4c0,0.1-0.1,0.3-0.1,0.4c-0.3,0.7,0.3,1.7,1.1,1.9c0.8,0.2,1.6-0.2,1.8-1c0.5-1.4-0.1-3-0.9-4.1
	c-0.8-1.1-1.8-2-3-2.6c-0.7-0.4-1.7-0.2-2.1,0.5C94,22.7,94.2,23.7,94.9,24.1L94.9,24.1L94.9,24.1z"/>
<path class="st0" d="M78.4,20.6c-0.1-0.2-0.2-0.5-0.2-0.7c0-0.1-0.1-0.2-0.1-0.4c0-0.1,0,0.1,0,0c0-0.1,0-0.1,0-0.2
	c0-0.1,0-0.2,0-0.4c0-0.1,0-0.1,0-0.2c0,0.1,0,0.1,0,0c0-0.1,0.1-0.3,0.1-0.4c0,0,0-0.1,0.1-0.2c0.1-0.2-0.1,0.1,0,0
	c0.1-0.2,0.2-0.4,0.3-0.5c0.1-0.1-0.1,0.1,0,0c0,0,0.1-0.1,0.1-0.1c0.1-0.1,0.2-0.1,0.2-0.2c0,0,0.2-0.1,0,0c-0.1,0.1,0.1,0,0.1,0
	c0.1-0.1,0.2-0.1,0.3-0.1c0,0,0.2-0.1,0.1,0c-0.1,0,0.1,0,0.1,0c0.1,0,0.2-0.1,0.3-0.1c0.5-0.1,0.8-0.7,0.7-1.2
	c-0.2-0.5-0.6-0.8-1.2-0.7c-1.1,0.2-2.2,1.1-2.7,2.1c-0.6,1.2-0.5,2.7,0,3.9c0.2,0.5,0.6,0.8,1.2,0.7C78.2,21.6,78.6,21.1,78.4,20.6
	C78.4,20.6,78.4,20.6,78.4,20.6z"/>
<path class="st0" d="M82.7,16.7c1.2,0,1.2-1.9,0-1.9S81.5,16.7,82.7,16.7L82.7,16.7z"/>
<path class="st5" d="M94.2,21.1c1.8,0.3,3.7,1,4.9,2.5c1.1,1.4,1.6,3.2,1,4.9c-0.2,0.4,0.6,0.6,0.7,0.2c0.7-1.9,0.1-3.9-1.1-5.4
	c-1.3-1.7-3.3-2.5-5.4-2.8C93.9,20.4,93.7,21.1,94.2,21.1C94.2,21.1,94.2,21.1,94.2,21.1z"/>
<path class="st5" d="M87.3,23.6c1.1-1.4,2.9-2.3,4.7-2.5c0.2,0,0.4-0.1,0.4-0.4c0-0.2-0.2-0.4-0.4-0.4c-2.1,0.3-4.1,1.2-5.3,2.9
	c-0.1,0.2,0,0.4,0.1,0.5C87,23.9,87.2,23.8,87.3,23.6L87.3,23.6L87.3,23.6z"/>
<path class="st5" d="M106.4,49.6c2.7-7.8,2.3-17.6-5.2-22.5c-0.4-0.2-0.8,0.4-0.4,0.6c7.3,4.7,7.5,14.3,4.9,21.7
	C105.6,49.9,106.2,50.1,106.4,49.6L106.4,49.6L106.4,49.6z"/>
<path class="st5" d="M67.6,20c2.4-0.1,4.8,0.6,6.6,2.2c0.3,0.3,0.8-0.2,0.5-0.5c-1.9-1.7-4.5-2.5-7.1-2.4C67.2,19.3,67.2,20,67.6,20
	L67.6,20L67.6,20z"/>
<path class="st5" d="M70.5,35.9c-3.9-1-8.5-2.4-10.2-6.5s1.7-8.1,5.6-9.1c0.4-0.1,0.3-0.8-0.2-0.7c-4.1,1.1-7.6,5.1-6.2,9.5
	c1.5,4.7,6.6,6.4,10.8,7.5C70.8,36.7,70.9,36,70.5,35.9L70.5,35.9L70.5,35.9z"/>
<path class="st5" d="M78.9,39.2c-0.7,1.2-2.7,1.2-3.9,1.1c-1.4,0-2.9-0.4-3.7-1.6s-0.7-2.7-0.1-4c0.7-1.3,1.9-2.3,3.2-3
	c0.4-0.2,0.1-0.8-0.4-0.6c-2.3,1.2-4.3,3.4-4,6.2c0.2,1.2,0.8,2.3,1.9,3s2.5,0.8,3.8,0.7s2.9-0.2,3.7-1.5
	C79.8,39.2,79.2,38.8,78.9,39.2L78.9,39.2L78.9,39.2z"/>
<path class="st5" d="M87.9,22.9c0.4-1.4,1.1-2.7,2.2-3.8c0.3-0.3-0.2-0.8-0.5-0.5c-1.1,1.1-1.9,2.5-2.3,4.1
	C87.1,23.2,87.8,23.4,87.9,22.9L87.9,22.9L87.9,22.9z"/>
<path class="st5" d="M101.4,27.8c1-0.7,2.4-0.8,3.4-0.1c0.4,0.2,0.8-0.4,0.4-0.6c-1.2-0.8-2.9-0.7-4.2,0.1c-0.2,0.1-0.2,0.3-0.1,0.5
	C101,27.8,101.2,27.9,101.4,27.8L101.4,27.8L101.4,27.8z"/>
<path class="st5" d="M101.3,27.6c0.4-1,1.2-2,2.1-2.6c0.2-0.1,0.2-0.3,0.1-0.5c-0.1-0.1-0.3-0.2-0.5-0.1c-1,0.8-1.8,1.8-2.3,2.9
	c-0.1,0.2-0.1,0.4,0.1,0.5C101,27.8,101.2,27.8,101.3,27.6C101.3,27.6,101.3,27.6,101.3,27.6z"/>
<circle class="st5" cx="55.7" cy="38.1" r="0.3"/>
<circle class="st5" cx="59.6" cy="39.4" r="0.3"/>
<path class="st5" d="M62.6,39.6c1.2-1.5,2.6-2.8,4.2-4c0.2-0.1,0.2-0.3,0.1-0.5c-0.1-0.2-0.3-0.2-0.5-0.1c-1.6,1.2-3.1,2.6-4.3,4.1
	c-0.1,0.2-0.1,0.4,0,0.5C62.2,39.7,62.4,39.7,62.6,39.6L62.6,39.6L62.6,39.6z"/>
<path class="st21" d="M77.1,24.9c-0.2-0.8-0.8-1.4-1.5-1.8c-0.8-0.4-1.6-0.4-2.4-0.3c-0.4,0.1-0.8,0.2-1.1,0.4
	c-0.2,0.1-0.4,0.2-0.6,0.4c-0.1,0.1-0.2,0.1-0.3,0.2c-0.3-0.3-0.7-0.5-1.2-0.7c-1-0.3-2.1,0-2.8,0.7c-0.8,0.8-1,2-0.8,3.1
	c0.1,0.5,0.4,1,0.8,1.4c0.4,0.4,0.9,0.6,1.5,0.8c0.5,0.1,1.1,0.2,1.6,0.1c0.1,0,0.2,0,0.3,0c0,0,0.1,0.1,0.1,0.1
	c0.2,0.2,0.5,0.4,0.8,0.5c0.5,0.2,0.8,0.3,1.4,0.4c0.5,0,1,0,1.5-0.2c0,0,0.1,0,0.1,0c0.2-0.1,0.3-0.1,0.5-0.2
	c0.6-0.3,1.1-0.8,1.5-1.4c0.3-0.4,0.6-1,0.7-1.5c0.1-0.3,0.1-0.7,0.1-1C77.3,25.5,77.2,25.2,77.1,24.9z"/>
<path class="st5" d="M80.2,35.7c-1.1,1.3-1.6,3.2-0.9,4.9c0.6,1.6,2.2,2.2,3.8,2.3c3.3,0.2,6.5-1.2,9.6-1.8l-0.4-0.3
	c0,1.5-0.2,3-0.3,4.4c-0.1,0.5,0.7,0.5,0.7,0c0.2-1.5,0.4-3,0.3-4.4c0-0.2-0.2-0.4-0.4-0.3c-2.7,0.5-5.3,1.5-8.1,1.8
	c-1.3,0.1-3.1,0-4-1.1c-1.2-1.4-0.8-3.6,0.3-4.9C81,35.8,80.5,35.3,80.2,35.7L80.2,35.7L80.2,35.7z"/>
<path class="st0" d="M104,52.6c0,0,0.1,0,0.1,0l-0.2,0.1c0.2-0.1,0.5-0.2,0.8-0.2l-0.2,0c0.3,0,0.6,0,0.8,0l-0.2,0
	c0.2,0,0.4,0.1,0.5,0.1c0.5,0.2,1.1-0.2,1.2-0.7c0.1-0.5-0.2-1-0.7-1.2c-0.4-0.2-0.9-0.2-1.4-0.2c-0.6,0-1.1,0.2-1.6,0.4
	c-0.2,0.1-0.4,0.4-0.4,0.6c-0.1,0.2,0,0.5,0.1,0.7s0.3,0.4,0.6,0.4l0.2,0C103.7,52.7,103.8,52.7,104,52.6L104,52.6L104,52.6z"/>
<path class="st0" d="M107.9,54.3c1.2,0,1.2-1.9,0-1.9S106.7,54.3,107.9,54.3L107.9,54.3z"/>
<path class="st5" d="M91.6,46.9c-0.2,1.5-0.4,2.9-0.6,4.3c-0.2,1.2-0.5,2.4-0.1,3.5c0.3,1,1.1,1.8,2.1,2.2c0.4,0.2,1,0.4,1.4,0.3
	s0.5-0.6,0.6-0.9c0.2-0.4-0.5-0.6-0.7-0.2c0,0.1-0.1,0.4-0.1,0.4c0,0-0.4-0.1-0.4-0.1c-0.5-0.1-0.9-0.3-1.3-0.6
	c-0.7-0.6-1-1.5-1-2.3c0.1-1,0.2-2,0.4-3c0.2-1.1,0.3-2.2,0.5-3.3C92.4,46.6,91.7,46.4,91.6,46.9L91.6,46.9L91.6,46.9z"/>
<path class="st5" d="M103.3,46.1l1.2-1.9c0.1-0.2,0-0.4-0.1-0.5s-0.4,0-0.5,0.1l-1.2,1.9c-0.1,0.2,0,0.4,0.1,0.5
	S103.2,46.3,103.3,46.1L103.3,46.1z"/>
<path class="st5" d="M102.6,44.5l1-1.8c0.1-0.2,0-0.4-0.1-0.5s-0.4,0-0.5,0.1l-1,1.8c-0.1,0.2,0,0.4,0.1,0.5S102.5,44.7,102.6,44.5
	L102.6,44.5z"/>
<path class="st5" d="M84.5,47.6c0.8,3.1,0.7,6.3-0.4,9.3c-0.2,0.4,0.5,0.6,0.7,0.2c1.1-3.1,1.2-6.5,0.4-9.7
	C85,47,84.3,47.2,84.5,47.6C84.5,47.6,84.5,47.6,84.5,47.6z"/>
<path class="st5" d="M58.4,49.3c-0.4,1.4-0.5,2.8-0.3,4.2s0.7,2.8,1.2,4.2c0.2,0.4,0.8,0.2,0.7-0.2c-0.5-1.3-0.9-2.6-1.2-4
	s-0.1-2.7,0.3-4.1C59.2,49,58.5,48.8,58.4,49.3C58.4,49.3,58.4,49.3,58.4,49.3z"/>
<g>
	<path class="st22" d="M56,37.1c1.9-0.7,3.9-1,6-1c1,0,2.1,0.1,3.1,0.3c0.9,0.2,2.1,0.4,2.9,0.9c1,0.6,0.7,1.8,0.2,2.6
		c-0.4,0.8-1,1.4-1.8,1.9c0,0,0,0,0,0l0,0c-0.1,0-0.1,0.1-0.2,0.2c0,0-0.1,0-0.1,0c-0.3,0.2-0.7,0.4-1,0.5c0,0,0,0,0,0
		c-0.4,0.3-0.9,0.5-1.4,0.7c-1.4,0.5-2.9,0.8-4.4,0.8c-0.7,0-1.4-0.1-1.9-0.5c-0.6-0.4-0.7-1.1-0.4-1.7c-1.5,0.2-3,0-3.5-1.3
		C53,38.9,54.4,37.7,56,37.1z"/>
	<g class="st23">
		<path class="st24" d="M54.9,38.9c-0.1,0.2-0.3,0.3-0.3,0.5s0,0.4,0.2,0.5c0.1,0,0.2,0,0.3,0c0.5,0,1-0.1,1.5-0.1s1,0.2,1.3,0.6
			c0.2,0.3,0.2,0.8,0.3,1.2s0.2,0.8,0.6,1c0.2,0.1,0.4,0.1,0.6,0c1.9-0.1,3.8-0.4,5.5-1.4c0.5-0.3,0.9-0.7,1.4-1
			c0.3-0.3,0.7-0.6,0.7-1c0-0.4-0.3-0.8-0.8-0.9s-0.9,0-1.3,0.2s-0.7,0.5-1.1,0.7c-0.7,0.5-1.5,0.8-2.3,0.8c-0.3,0-0.7,0-1-0.2
			c-0.3-0.3-0.4-0.7-0.7-1.1c-0.2-0.4-0.7-0.6-1.2-0.5c-0.2,0-0.5,0.1-0.8,0.1c-0.3,0-0.5-0.3-0.8-0.4s-0.6-0.2-0.8,0"/>
	</g>
	<path class="st24" d="M54.8,38.6c-0.6,0.3-0.8,1.1-0.5,1.7c0.4,0.7,1.1,0.8,1.8,0.7c0.3,0,0.8-0.2,1.1,0c0.3,0.1,0.3,0.3,0.3,0.6
		c0,0.8,0.3,1.4,1.1,1.6c0.7,0.2,1.5,0.1,2.2,0c0.8-0.1,1.5-0.2,2.3-0.5c1.5-0.5,2.8-1.2,4-2.2c0.8-0.6-0.3-1.7-1.1-1.1
		c-1.7,1.4-3.9,2.2-6.1,2.3c-0.2,0-0.5,0.1-0.8,0c-0.2,0,0,0.1-0.1,0c0-0.1,0-0.3,0-0.4c0-0.5-0.2-1-0.6-1.3s-0.9-0.5-1.4-0.6
		c-0.3,0-0.5,0-0.8,0c-0.1,0-0.3,0-0.5,0.1c0,0-0.1,0-0.2,0c-0.2,0-0.2,0.1-0.1,0.4C56.4,39.5,55.7,38.2,54.8,38.6L54.8,38.6
		L54.8,38.6z"/>
	<path class="st25" d="M61.2,38.3c0.1,0,0.2,0,0.3,0L61.2,38.3c0.7-0.1,1.3-0.1,1.9-0.1c0.3,0,0.6-0.1,0.8-0.3s0.3-0.5,0.3-0.8
		s-0.1-0.6-0.3-0.8l-0.2-0.2c-0.2-0.1-0.4-0.2-0.6-0.2c-0.8-0.1-1.7,0-2.5,0.1c-0.3,0-0.5,0.3-0.7,0.5c-0.1,0.2-0.2,0.6-0.1,0.9
		s0.3,0.5,0.5,0.7l0.3,0.1C60.9,38.4,61.1,38.4,61.2,38.3L61.2,38.3L61.2,38.3z"/>
	<path class="st5" d="M56.1,37.4c2.9-1,6-1.3,9.1-0.7c1.1,0.2,3.3,0.5,3,2c-0.1,0.6-0.4,1.2-0.8,1.6c-0.4,0.5-0.9,0.8-1.3,1.2h0.5
		c-0.1-0.1-0.3-0.2-0.4-0.1c-1.3,0.9-2.8,1.6-4.4,1.9c-0.9,0.2-1.8,0.3-2.6,0.2s-2.4-0.4-1.9-1.7c0.1-0.2,0-0.6-0.3-0.5
		c-1.1,0.1-2.7,0.2-3.1-1.1C53.4,38.9,55,37.9,56.1,37.4c0.4-0.2,0.2-0.9-0.2-0.7c-1.4,0.5-3.2,1.7-2.8,3.5s2.3,2.1,3.9,1.9
		l-0.3-0.5c-0.3,0.8-0.2,1.6,0.5,2.1c0.8,0.7,2,0.6,3,0.6c2.3-0.1,4.5-0.9,6.5-2.2l-0.4-0.1l0,0c0.1,0.2,0.4,0.1,0.5,0
		c0.5-0.5,1.1-0.9,1.5-1.5c0.4-0.5,0.6-1.1,0.7-1.7c0.2-1.5-0.9-2.1-2.1-2.4c-3.5-1-7.4-0.9-10.9,0.3C55.5,36.9,55.7,37.6,56.1,37.4
		L56.1,37.4z"/>
</g>
<g>
	<path class="st22" d="M87.8,36.3c-1.9-0.7-3.9-1-6-1c-1,0-2.1,0.1-3.1,0.3c-0.9,0.2-2.1,0.4-2.9,0.9c-1,0.6-0.7,1.8-0.2,2.6
		c0.4,0.8,1,1.4,1.8,1.9c0,0,0,0,0,0l0,0c0.1,0,0.1,0.1,0.2,0.2c0,0,0.1,0,0.1,0c0.3,0.2,0.7,0.4,1,0.5c0,0,0,0,0,0
		c0.4,0.3,0.9,0.5,1.4,0.7c1.4,0.5,2.9,0.8,4.4,0.8c0.7,0,1.4-0.1,1.9-0.5c0.6-0.4,0.7-1.1,0.4-1.7c1.4,0.2,2.9,0,3.5-1.3
		C90.9,38.2,89.5,36.9,87.8,36.3z"/>
	<g class="st23">
		<path class="st24" d="M89,38.2c0.1,0.2,0.3,0.3,0.3,0.5s0,0.4-0.2,0.5c-0.1,0-0.2,0-0.3,0c-0.5,0-1-0.1-1.5-0.1s-1.1,0.2-1.3,0.6
			c-0.2,0.3-0.2,0.8-0.3,1.2s-0.2,0.8-0.6,1c-0.2,0.1-0.4,0.1-0.6,0c-1.9-0.1-3.8-0.4-5.5-1.4c-0.5-0.3-0.9-0.7-1.4-1
			c-0.3-0.3-0.7-0.6-0.7-1c0-0.4,0.3-0.8,0.8-0.9s0.9,0,1.3,0.2s0.7,0.5,1.1,0.7c0.7,0.5,1.5,0.8,2.3,0.8c0.3,0,0.7,0,0.9-0.2
			c0.3-0.3,0.4-0.7,0.7-1.1c0.2-0.4,0.7-0.6,1.2-0.5c0.2,0,0.5,0.1,0.8,0.1c0.3,0,0.5-0.3,0.8-0.4s0.6-0.2,0.8,0"/>
	</g>
	<path class="st24" d="M88.3,39.2l-0.1-0.4h-0.1c-0.1,0-0.3,0-0.4,0c-0.3,0-0.5-0.1-0.8-0.1c-0.5,0-1,0.2-1.4,0.5s-0.6,0.8-0.6,1.3
		c0,0.1,0,0.3,0,0.4V41c0,0,0,0,0,0c-0.1,0.1-0.7,0-0.8,0c-2.2-0.1-4.4-0.9-6.1-2.3c-0.7-0.6-1.8,0.5-1.1,1.1c1.2,1,2.6,1.7,4,2.2
		c0.7,0.2,1.4,0.4,2.2,0.5s1.5,0.2,2.2,0s1.1-0.8,1.1-1.5c0-0.3-0.1-0.6,0.3-0.7s0.8,0,1.1,0c0.7,0.1,1.4-0.1,1.8-0.7
		c0.3-0.6,0.1-1.3-0.5-1.7C88.2,37.4,87.5,38.7,88.3,39.2L88.3,39.2L88.3,39.2z"/>
	<path class="st25" d="M83.2,35.4c-0.8-0.2-1.7-0.2-2.5-0.1c-0.3,0-0.6,0.1-0.8,0.3c-0.2,0.2-0.3,0.5-0.3,0.8s0.1,0.6,0.3,0.8
		c0.2,0.2,0.5,0.3,0.8,0.3c0.6,0,1.2,0,1.9,0l-0.3,0c0.1,0,0.2,0,0.3,0c0.3,0,0.6,0,0.9-0.1c0.2-0.1,0.5-0.4,0.5-0.7
		c0.1-0.3,0.1-0.6-0.1-0.9C83.8,35.7,83.5,35.5,83.2,35.4L83.2,35.4L83.2,35.4z"/>
	<path class="st5" d="M87.9,36c-3.5-1.2-7.3-1.4-10.9-0.3c-1.2,0.3-2.3,0.9-2.2,2.3c0.1,0.7,0.4,1.3,0.8,1.8c0.4,0.6,1,1,1.5,1.5
		c0.1,0.1,0.4,0.1,0.5,0l0,0c-0.1,0-0.3,0-0.4,0c1.9,1.3,4.1,2.1,6.5,2.2c1,0.1,2.2,0.1,3-0.6c0.7-0.5,0.8-1.3,0.5-2.1l-0.3,0.5
		c1.6,0.2,3.5-0.1,3.9-1.9S89.4,36.5,87.9,36c-0.4-0.2-0.6,0.5-0.2,0.7c1.1,0.4,2.8,1.4,2.2,2.9c-0.5,1.3-2,1.2-3.1,1.1
		c-0.3,0-0.4,0.3-0.3,0.5c0.9,2.2-3.6,1.6-4.6,1.4c-1.6-0.3-3.1-1-4.4-1.9c-0.1-0.1-0.3,0-0.4,0.1l0,0c0.2,0,0.3,0,0.5,0
		c-0.4-0.4-0.9-0.6-1.2-1.1c-0.4-0.5-0.7-1-0.8-1.7c-0.3-1.6,1.9-1.8,3-2.1c3.1-0.6,6.2-0.4,9.1,0.7C88.2,36.8,88.4,36.1,87.9,36
		L87.9,36z"/>
</g>
<path class="st26" d="M70.2,42.4c1.2,0.9,2.5,1.2,4,1.2c1.3,0,2.2,0.4,3.4,1c2.7,1.2,5.4,1.3,8.3,1.3c1.9,0,1.9-3,0-3
	c-2.5,0-4.9,0-7.3-1.1c-1.2-0.5-2.3-1-3.6-1.1c-0.6,0-1.2,0.1-1.8,0s-1.1-0.4-1.5-0.7c-0.6-0.5-1.7-0.1-2.1,0.5
	C69.2,41.1,69.6,41.9,70.2,42.4L70.2,42.4L70.2,42.4z"/>
<path class="st0" d="M58.2,39.4c0.1-0.1,0.2-0.1,0.4-0.2l-0.2,0.1c0.2-0.1,0.5-0.2,0.8-0.2l-0.2,0c0.1,0,0.2,0,0.4,0
	c0.2,0,0.5-0.1,0.7-0.3c0.2-0.2,0.3-0.4,0.3-0.7s-0.1-0.5-0.3-0.7s-0.4-0.3-0.7-0.3c-0.7,0-1.4,0.2-2,0.5c-0.2,0.1-0.4,0.3-0.4,0.6
	s0,0.5,0.1,0.7s0.3,0.4,0.6,0.4S58,39.6,58.2,39.4C58.2,39.4,58.2,39.4,58.2,39.4z"/>
<path class="st0" d="M62,38.9c1.2,0,1.2-1.9,0-1.9S60.8,38.9,62,38.9L62,38.9z"/>
<path class="st8" d="M66.4,82.7c5.8,3.9,13.9,4.7,20.4,2.3c7.4-2.8,12.6-10.3,15.2-17.5c0.3-0.9-0.5-1.9-1.4-1.9
	c-2.2,0.1-4.4-0.9-6.1-2.3c-1.4-1.3-3.6,0.8-2.1,2.1c2.2,2,5.2,3.3,8.2,3.2l-1.4-1.9c-1.3,3.6-3.3,6.9-5.8,9.8
	c-2.1,2.5-4.6,4.7-7.7,5.8c-5.8,2-12.7,1.4-17.8-2.1C66.3,79,64.8,81.6,66.4,82.7L66.4,82.7L66.4,82.7z"/>
<path class="st5" d="M59.1,43.9c-6.9,11.3-5.1,27.9,4.8,37c4.1,3.8,9.4,5.9,15,5.7c4.6-0.1,9.3-1.3,13.2-3.9
	c5.7-3.8,8.9-9.9,10.4-16.4c0.1-0.4-0.6-0.6-0.7-0.2c-1.3,5.7-4,11.2-8.6,14.9c-3.6,2.8-8,4.3-12.5,4.7C75.3,86.2,70.2,85,66,81.7
	c-4.8-3.6-7.9-9-9.3-14.8c-1.9-7.5-1-16.1,3.1-22.8C59.9,43.8,59.3,43.5,59.1,43.9L59.1,43.9L59.1,43.9z"/>
<g>
	<path class="st5" d="M100.5,54.4c2.7-0.2,5.4,1.5,6.4,4c0.2,0.4,0.9,0.2,0.7-0.2c-1.1-2.8-4-4.8-7.1-4.6
		C100.1,53.7,100.1,54.4,100.5,54.4C100.5,54.4,100.5,54.4,100.5,54.4z"/>
	<path class="st5" d="M104.1,54.8c-1.8,1.2-2.8,3.2-2.7,5.4c0,0.5,0.7,0.5,0.7,0c-0.1-1.9,0.8-3.7,2.4-4.8
		C104.8,55.2,104.4,54.6,104.1,54.8L104.1,54.8z"/>
</g>
<path class="st5" d="M141,51c-0.8,7.5-2.4,14.8-4.9,22c-1.2,3.5-2.5,7.1-4.2,10.4c-0.7,1.5-1.6,2.9-2.9,4c-1.5,1.2-3.5,1.9-5.3,2.6
	c-0.4,0.2-0.2,0.8,0.2,0.7c1.7-0.7,3.5-1.3,5-2.3c1.3-0.9,2.3-2.1,3.1-3.5c1.8-3.2,3.1-6.9,4.3-10.3c2.7-7.6,4.4-15.5,5.3-23.5
	C141.7,50.5,141,50.5,141,51L141,51L141,51z"/>
<path class="st5" d="M132.9,102.9c2.9-2.1,6-4.3,8.2-7.2s3.1-6.1,4-9.4c2-7.9,3.8-15.9,5.7-23.8c0.5-2.1,1.1-4.1,1.6-6.1
	c0.1-0.4-0.5-0.6-0.7-0.2c-2,7.2-3.6,14.6-5.3,21.9c-1.1,4.6-1.9,9.6-3.9,14s-6,7.5-9.9,10.3C132.2,102.6,132.5,103.2,132.9,102.9
	L132.9,102.9L132.9,102.9z"/>
<path class="st5" d="M87.6,90.6c5.9-2,12.4-1.7,18.5-1.3c2.8,0.2,5.5,0.4,8.3,0.5c1.8,0.1,3.8,0.2,5.6-0.4c0.4-0.1,0.2-0.8-0.2-0.7
	c-1.8,0.6-3.9,0.4-5.8,0.4c-2.9-0.1-5.7-0.4-8.6-0.6c-5.9-0.4-12.2-0.6-18,1.3C87,90,87.2,90.7,87.6,90.6
	C87.6,90.5,87.6,90.5,87.6,90.6z"/>
<g>
	<ellipse class="st27" cx="65.2" cy="51.1" rx="5.3" ry="7.6"/>
	<path class="st5" d="M70.1,51.1c0,2.5-0.9,5.4-3.2,6.7s-4.5-0.2-5.6-2.2c-1.4-2.4-1.5-5.5-0.5-8.1c0.8-2.1,2.8-4.2,5.2-3.6
		C69,44.8,70.1,48.4,70.1,51.1c0,0.4,0.7,0.4,0.7,0c0-2.8-1.1-6.2-3.8-7.5c-2.4-1.1-4.9,0.3-6.2,2.4c-1.6,2.7-1.8,6.3-0.5,9.2
		c1,2.3,3.3,4.4,6,3.7c3.2-0.9,4.5-4.8,4.6-7.8C70.9,50.7,70.2,50.7,70.1,51.1L70.1,51.1z"/>
	<path class="st5" d="M67.4,57.7c-1.2,0-2-1.1-2.5-2c-0.7-1.4-1-3-1-4.5s0.2-3.1,0.9-4.5c0.5-1,1.3-2.1,2.5-2.1c0.4,0,0.4-0.6,0-0.6
		c-1.3,0-2.2,1-2.8,2c-0.9,1.5-1.2,3.4-1.2,5.1s0.3,3.6,1.2,5.1c0.6,1,1.5,2,2.8,2C67.8,58.3,67.8,57.7,67.4,57.7
		C67.4,57.7,67.4,57.7,67.4,57.7z"/>
	<ellipse class="st5" cx="66.9" cy="51.2" rx="3.3" ry="6.8"/>
</g>
<g>
	<ellipse class="st27" cx="78.2" cy="51.1" rx="5.3" ry="7.6"/>
	<path class="st5" d="M83.2,51.1c0,2.5-0.9,5.4-3.2,6.7s-4.5-0.2-5.6-2.2c-1.4-2.4-1.5-5.5-0.5-8.1c0.8-2.1,2.8-4.2,5.2-3.6
		C82.1,44.8,83.2,48.4,83.2,51.1c0,0.4,0.7,0.4,0.7,0c0-2.8-1.1-6.2-3.8-7.5c-2.4-1.1-4.9,0.3-6.2,2.4c-1.6,2.7-1.8,6.3-0.5,9.2
		c1,2.3,3.3,4.4,6,3.7c3.2-0.9,4.5-4.8,4.6-7.8C83.9,50.7,83.2,50.7,83.2,51.1L83.2,51.1z"/>
	<path class="st5" d="M80.4,57.7c-1.2,0-2-1.1-2.5-2c-0.7-1.4-1-3-1-4.5s0.2-3.1,0.9-4.5c0.5-1,1.3-2.1,2.5-2.1c0.4,0,0.4-0.6,0-0.6
		c-1.3,0-2.2,1-2.8,2c-0.9,1.5-1.2,3.4-1.2,5.1s0.3,3.6,1.2,5.1c0.6,1,1.5,2,2.8,2C80.8,58.3,80.8,57.7,80.4,57.7
		C80.4,57.7,80.4,57.7,80.4,57.7z"/>
	<ellipse class="st5" cx="80" cy="51.2" rx="3.3" ry="6.8"/>
</g>
<polygon class="st28" points="83.9,74.4 86.2,71.5 89.4,71.6 93.4,68.5 95,71.3 88.8,80.4 83.2,81.1 "/>
<circle class="st29" cx="87.6" cy="75.5" r="1.8"/>
<path class="st30" d="M86.6,80.6c0.2-1.1,0.4-2.2,0.5-3.2c0-0.2-0.2-0.4-0.4-0.4c-0.2,0-0.3,0.2-0.4,0.4c-0.1,1-0.3,2-0.5,3.1
	c0,0.2,0.1,0.4,0.3,0.5C86.3,80.9,86.6,80.8,86.6,80.6L86.6,80.6L86.6,80.6z"/>
<path class="st30" d="M89.5,74.5C89.5,74.5,89.5,74.5,89.5,74.5C89.5,74.5,89.5,74.5,89.5,74.5c0.1-0.1,0.1-0.1,0.2-0.1
	s0.1,0,0.1-0.1c0,0,0,0,0,0c0,0-0.1,0,0,0c0,0,0.1,0,0.1,0c0.1,0,0.1,0,0,0c0,0,0.1,0,0.1,0c0.1,0,0.1,0,0,0c0,0,0.1,0,0.1,0
	c0.1,0-0.1,0,0,0c0,0,0.1,0,0.1,0.1c0,0,0,0,0.1,0c0.1,0,0,0,0,0s0.1,0.1,0.1,0.1c0.4,0.4,0.7,0.8,1.3,0.9c0.4,0,0.8-0.1,1.1-0.3
	c0.2-0.1,0.2-0.3,0.1-0.5c-0.1-0.2-0.3-0.2-0.5-0.1c-0.1,0.1-0.2,0.1-0.2,0.2c0,0-0.1,0-0.1,0.1c0.1,0,0,0-0.1,0c0,0-0.1,0-0.1,0
	c-0.1,0,0.1,0,0,0c0,0-0.1,0-0.1,0c-0.1,0-0.1,0,0,0c-0.1,0-0.1,0-0.2,0s0.1,0,0,0c0,0,0,0,0,0c0,0-0.1,0-0.1-0.1c0,0,0,0-0.1,0
	c0,0,0,0,0,0c0,0,0.1,0.1,0,0c-0.1,0-0.1-0.1-0.1-0.1c-0.4-0.4-0.7-0.8-1.3-0.8c-0.4,0-0.8,0.2-1.1,0.4c-0.2,0.1-0.1,0.4,0,0.5
	C89.1,74.7,89.3,74.7,89.5,74.5L89.5,74.5L89.5,74.5z"/>
<path class="st30" d="M83.7,79.1c1,0,2.1-0.2,3.1-0.3s2.1-0.2,3.1-0.3c0.5-0.1,0.5-0.8,0-0.8c-1,0.1-2.1,0.2-3.1,0.3
	s-2.1,0.2-3.1,0.3C83.3,78.4,83.3,79.1,83.7,79.1L83.7,79.1z"/>
<path class="st30" d="M83.5,76.5c0.4,0.3,1,0,1.3-0.2c0.1,0,0.1-0.1,0.2-0.1c0,0,0,0,0.1,0c0.1,0-0.1,0,0,0s0.2-0.1,0.3-0.1
	c0.1,0,0.2-0.1,0.3-0.1c0.1,0-0.1,0,0,0c0,0,0,0,0,0c0.1,0-0.1,0,0,0c0,0,0.1,0,0,0c0.2,0.1,0.4,0.1,0.5-0.1
	c0.1-0.2,0.1-0.4-0.1-0.5c-0.5-0.2-0.9,0.1-1.4,0.2c-0.1,0-0.1,0-0.2,0.1c0.1-0.1,0,0,0,0s-0.1,0-0.1,0c-0.1,0-0.2,0.1-0.3,0.1
	c-0.1,0-0.1,0-0.1,0c0,0,0,0-0.1,0c-0.1,0,0.1,0,0,0c0,0,0,0-0.1,0c-0.1,0,0,0,0,0c0,0,0,0-0.1,0c0.1,0,0.1,0.1,0,0
	c-0.2-0.1-0.4,0-0.5,0.1C83.2,76.2,83.3,76.4,83.5,76.5L83.5,76.5L83.5,76.5z"/>
<path class="st5" d="M89.1,75.4c0,0.6-0.4,1.1-0.9,1.3s-1.2,0-1.6-0.4s-0.4-1.1-0.1-1.6s0.9-0.8,1.5-0.7
	C88.6,74.1,89.1,74.7,89.1,75.4c0,0.4,0.7,0.4,0.7,0c0-0.9-0.6-1.7-1.4-2S86.6,73.3,86,74s-0.7,1.7-0.2,2.5s1.4,1.2,2.2,1
	c1-0.2,1.7-1.1,1.7-2.1C89.8,74.9,89.1,74.9,89.1,75.4L89.1,75.4z"/>
<path class="st31" d="M86.5,73c0.7,0.1,1.4,0.1,2.1,0.1c0.3,0,0.7,0,1.1-0.1s0.6-0.3,0.9-0.5c1-0.8,2.1-1.7,3.2-2.4
	c0.3-0.2,0.5-0.7,0.3-1c-0.2-0.3-0.7-0.5-1-0.3c-1.1,0.7-2.1,1.5-3.1,2.3c-0.2,0.1-0.4,0.4-0.6,0.4c-0.2,0.1-0.5,0-0.8,0
	c-0.7,0-1.3,0-1.9-0.1c-0.4,0-0.8,0.4-0.8,0.8C85.8,72.7,86.1,73,86.5,73L86.5,73L86.5,73z"/>
<path class="st5" d="M92.1,69.8l1.4-1.1l-0.4-0.1c0.5,0.9,1,1.9,1.6,2.8v-0.3c-1.8,2.7-3.6,5.3-5.4,7.9c-0.3,0.4-0.5,0.8-0.8,1.1
	l0.2-0.1c-1.9,0.2-3.8,0.5-5.7,0.7l0.3,0.3c0.1-1,0.2-2,0.3-3l0.2-2.2c0-0.4,0.2-0.9,0.1-1.3c0-0.2-0.2,0.2,0,0s0.3-0.4,0.5-0.6
	l1.4-1.7c0.1-0.1,0.4-0.3,0.4-0.5c0-0.1-0.1,0.1-0.2,0.1c0,0,0.2,0,0.2,0l2.1,0.1c0.5,0,0.8,0.1,1.2-0.2c0.5-0.4,1-0.8,1.5-1.2
	c0.3-0.2-0.1-0.6-0.4-0.4l-1.4,1.1c-0.1,0.1-0.2,0.1-0.3,0.2c0,0.1,0.2,0,0.1-0.1c-0.1-0.1-0.6,0-0.8,0l-2.1-0.1
	c-0.4,0-0.5,0.1-0.7,0.4l-1.3,1.7c-0.2,0.3-0.7,0.7-0.8,1.1c-0.1,0.3-0.1,0.7-0.1,0.9l-0.2,2.1c-0.1,1.2-0.2,2.5-0.4,3.7
	c0,0.1,0.1,0.3,0.3,0.3c1.2-0.1,2.4-0.3,3.6-0.4c0.6-0.1,1.2-0.2,1.8-0.2c0.2,0,0.4-0.1,0.5-0.2c0.7-0.8,1.2-1.8,1.8-2.6l2.7-3.9
	c0.6-0.8,1.1-1.7,1.7-2.5c0.1-0.1,0.1-0.2,0-0.3c-0.5-0.9-1-1.9-1.6-2.8c-0.1-0.2-0.3-0.2-0.4-0.1l-1.4,1.1
	C91.4,69.6,91.9,70,92.1,69.8L92.1,69.8L92.1,69.8z"/>
<g>
	<polygon class="st28" points="95.3,29.6 98.5,31.6 98.8,34.8 102.5,38.3 99.8,40.3 90.1,35.3 88.7,29.8 	"/>
	<circle class="st29" cx="94.8" cy="33.4" r="1.8"/>
	<path class="st30" d="M89.7,33.1c1.1,0.1,2.1,0.1,3.2,0.1c0.5,0,0.5-0.8,0-0.8c-1.1,0-2.1,0-3.2-0.1c-0.2,0-0.4,0.2-0.4,0.4
		C89.3,33,89.4,33.1,89.7,33.1L89.7,33.1L89.7,33.1z"/>
	<path class="st30" d="M95.9,35.2c0.1,0.1,0.1,0.1,0.2,0.2c0,0,0,0,0,0c0,0,0,0.1,0.1,0.1c0,0,0,0.1,0,0c0,0,0,0,0,0.1
		c0,0,0,0.1,0,0s0,0,0,0c0,0,0,0,0,0.1c0-0.1,0,0,0,0c0,0,0,0,0,0.1c0,0.1,0,0,0,0c-0.1,0.1-0.1,0.2-0.2,0.3c0,0-0.1,0.1-0.1,0.1
		c0,0,0,0,0,0c0,0-0.1,0.1-0.1,0.1c-0.1,0.1-0.2,0.2-0.2,0.3c-0.1,0.2-0.2,0.5-0.2,0.8c0,0.4,0.2,0.8,0.5,1.1
		c0.3,0.3,0.9-0.2,0.5-0.5c0,0-0.1-0.1-0.1-0.1c0,0,0,0,0,0c0,0,0,0,0,0c0-0.1-0.1-0.1-0.1-0.2c0,0,0,0,0,0c0,0,0,0,0,0
		c0,0,0,0,0-0.1c0,0,0,0,0,0c0,0,0,0.1,0,0c0,0,0-0.1,0-0.1c0-0.1,0-0.1,0,0c0,0,0,0,0-0.1s0,0,0-0.1c0,0,0,0.1,0,0
		c0.1-0.1,0.1-0.2,0.2-0.3c0,0,0.1-0.1,0.1-0.1c0,0.1,0,0,0,0c0,0,0.1-0.1,0.1-0.1c0.1-0.1,0.1-0.2,0.2-0.3c0.1-0.2,0.2-0.5,0.2-0.8
		c0-0.4-0.3-0.8-0.5-1C96.1,34.3,95.6,34.8,95.9,35.2L95.9,35.2L95.9,35.2z"/>
	<path class="st30" d="M90.7,30.1c0.2,1,0.4,2,0.7,3s0.5,2,0.7,3c0.1,0.5,0.8,0.3,0.7-0.2c-0.2-1-0.5-2-0.7-3s-0.5-2-0.7-3
		C91.3,29.4,90.6,29.7,90.7,30.1C90.7,30.1,90.7,30.1,90.7,30.1z"/>
	<path class="st30" d="M93.3,29.4c-0.2,0.5,0.1,0.9,0.3,1.3c0.1,0.2,0.2,0.4,0.3,0.6c0,0,0,0,0,0.1c0,0.1,0-0.1,0,0c0,0,0,0.1,0,0.1
		c0,0,0,0,0,0.1c0,0.1,0-0.1,0,0c0,0,0,0,0,0c0,0,0-0.1,0,0C94,31.7,94.1,32,94.3,32s0.4-0.1,0.5-0.3c0.1-0.2,0-0.5-0.1-0.7
		c-0.1-0.2-0.2-0.4-0.3-0.6s-0.2-0.4-0.3-0.6c0-0.1,0,0,0,0c0,0,0,0,0-0.1c0,0,0-0.1,0-0.1s0-0.1,0,0c0,0,0,0,0,0c0-0.1,0,0.1,0,0
		c0,0,0-0.1,0,0c0.1-0.2,0.1-0.4-0.1-0.5C93.6,29.2,93.4,29.3,93.3,29.4L93.3,29.4L93.3,29.4z"/>
	<path class="st5" d="M95.1,34.9c-0.6,0.1-1.2-0.2-1.5-0.8c-0.3-0.5-0.2-1.2,0.2-1.6s1.1-0.6,1.6-0.3s0.9,0.8,0.8,1.4
		C96.2,34.3,95.7,34.8,95.1,34.9c-0.3,0-0.4,0.3-0.3,0.5c0.1,0.2,0.2,0.3,0.4,0.2c0.8-0.1,1.6-0.8,1.8-1.6s-0.2-1.8-0.9-2.3
		s-1.8-0.4-2.4,0.1s-1,1.5-0.7,2.3c0.3,0.9,1.3,1.6,2.2,1.5c0.2,0,0.4-0.2,0.4-0.4C95.4,35.1,95.3,34.9,95.1,34.9L95.1,34.9z"/>
	<path class="st31" d="M97.1,32c0,0.7,0.1,1.4,0.2,2.1c0.1,0.4,0.1,0.8,0.2,1.1c0.1,0.3,0.3,0.5,0.6,0.8c1,1,2,1.9,2.9,2.9
		c0.3,0.3,0.8,0.3,1.1,0c0.3-0.3,0.3-0.8,0-1.1c-0.8-0.9-1.7-1.8-2.6-2.7c-0.2-0.2-0.4-0.3-0.5-0.5c-0.1-0.2-0.1-0.5-0.1-0.7
		c-0.1-0.7-0.1-1.3-0.2-2c0-0.4-0.3-0.8-0.8-0.8C97.5,31.2,97.1,31.6,97.1,32L97.1,32L97.1,32z"/>
	<path class="st5" d="M100.9,37.2l1.3,1.3l0.1-0.4c-0.9,0.6-1.7,1.3-2.6,1.9h0.3c-2.1-1-4.2-2.1-6.2-3.2l-3.2-1.6
		c-0.1,0-0.2-0.1-0.3-0.2s0,0.2,0.1,0c0-0.5-0.3-1.1-0.4-1.6c-0.3-1.3-0.7-2.6-1-3.9L88.6,30l5.8-0.1c0.3,0,0.6,0,0.8,0
		c-0.2,0-0.1,0,0,0.1c0.2,0.1,0.4,0.2,0.6,0.3l2.5,1.5l-0.1-0.2c0.1,1,0.2,2.1,0.3,3.1c0.1,0.3,0.2,0.5,0.5,0.7l1.1,1.1
		c0.3,0.3,0.7-0.1,0.4-0.4l-1.2-1.2c-0.1-0.1-0.2-0.2-0.2-0.2c-0.1,0,0,0.3,0.1,0.1c0-0.2-0.1-0.5-0.1-0.8l-0.2-2.1
		c0-0.4-0.1-0.5-0.4-0.7L96.7,30c-0.4-0.2-0.8-0.6-1.3-0.8c-0.3-0.1-0.6,0-0.9,0l-2.1,0l-3.8,0.1c-0.2,0-0.3,0.2-0.3,0.4
		c0.3,1.1,0.6,2.3,0.9,3.4l0.5,1.8c0.1,0.2,0.1,0.3,0.3,0.5c0.3,0.2,0.7,0.3,1,0.5l1.8,0.9l4.3,2.2c0.9,0.5,1.8,0.9,2.7,1.3
		c0.1,0,0.2,0.1,0.3,0c0.9-0.6,1.7-1.3,2.6-1.9c0.1-0.1,0.2-0.3,0.1-0.4l-1.3-1.3C101.1,36.5,100.7,36.9,100.9,37.2L100.9,37.2
		L100.9,37.2z"/>
</g>
<path class="st21" d="M69,27.9c0,0-0.1,0-0.1,0.1l0.4-0.1c-0.2,0.1-0.3,0.1-0.5,0.1l0.4,0c-0.2,0-0.3,0-0.5,0L69,27.9
	c-0.2,0-0.3,0-0.5-0.1l0.4,0.1c-0.2-0.1-0.3-0.2-0.5-0.3l0.3,0.2c-0.1-0.1-0.3-0.2-0.4-0.4l0.2,0.3c-0.1-0.1-0.2-0.3-0.3-0.5
	l0.2,0.4c-0.1-0.2-0.1-0.4-0.2-0.6l0.1,0.4c0-0.2,0-0.5,0-0.7l-0.1,0.4c0-0.3,0.1-0.5,0.2-0.8l-0.2,0.4c0.1-0.2,0.2-0.4,0.4-0.6
	l-0.2,0.3c0.2-0.2,0.3-0.4,0.5-0.5l-0.3,0.2c0.2-0.1,0.4-0.3,0.6-0.4l-0.4,0.1c0.2-0.1,0.5-0.2,0.7-0.2l-0.4,0c0.2,0,0.4,0,0.6,0
	l-0.4,0c0.2,0,0.4,0.1,0.6,0.1l-0.4-0.1c0.1,0.1,0.2,0.1,0.3,0.2l-0.3-0.2c0.1,0.1,0.2,0.1,0.2,0.2l-0.2-0.3
	c0.1,0.1,0.1,0.1,0.1,0.2l-0.2-0.4c0,0.1,0,0.1,0.1,0.2l-0.1-0.4v0.1c0.1,0.4,0.2,0.8,0.4,1.1c0.3,0.3,0.7,0.5,1.1,0.4
	s0.8-0.1,1.1-0.4c0.2-0.3,0.5-0.7,0.4-1.1c-0.1-0.4-0.1-0.8-0.4-1.2s-0.5-0.6-0.9-0.9c-0.5-0.3-1.1-0.5-1.7-0.5
	c-1.1-0.1-2.2,0.4-3,1.1c-0.9,0.8-1.4,2-1.4,3.1c-0.1,1.3,0.6,2.5,1.6,3.2s2.5,0.9,3.7,0.3c0.7-0.4,1-1.4,0.5-2
	C70.6,27.7,69.7,27.5,69,27.9L69,27.9L69,27.9z"/>
<path class="st5" d="M81.1,102.1c3.3-0.8,6.6-3.2,7.5-6.7c0.7-2.8-0.8-6.4-3.7-7.3c-0.4-0.1-0.6,0.6-0.2,0.7
	c2.7,0.8,3.9,4.2,3.1,6.8c-1,3.1-3.9,5.1-6.9,5.8C80.5,101.5,80.7,102.2,81.1,102.1L81.1,102.1L81.1,102.1z"/>
<path class="st5" d="M73.2,101.3c1.6,0.7,3.2,1.1,5,1.1c0.5,0,0.5-0.7,0-0.7c-1.6,0-3.2-0.4-4.6-1C73.2,100.5,72.8,101.1,73.2,101.3
	L73.2,101.3L73.2,101.3z"/>
<path class="st5" d="M72.9,88.7c-2.2,0.2-3.8,2.6-4.3,4.5c-0.7,2.6,0.6,5.1,2.6,6.8c0.3,0.3,0.8-0.2,0.5-0.5c-1.7-1.4-3-3.6-2.5-5.9
	c0.4-1.7,1.7-4,3.6-4.1C73.3,89.4,73.3,88.7,72.9,88.7L72.9,88.7z"/>
<path class="st5" d="M122.8,86.6c1.2,0.5,2.2,1.5,3.1,2.5c0.3,0.3,0.8-0.2,0.5-0.5c-0.9-1-1.9-2.1-3.2-2.6c-0.2-0.1-0.4-0.1-0.5,0.1
	C122.6,86.3,122.7,86.5,122.8,86.6L122.8,86.6L122.8,86.6z"/>
<g>
	<g>
		<path d="M152.7,37.2c-0.1,0-0.2,0-0.2-0.1s-0.1-0.1-0.1-0.2l-2-6.8c0,0,0,0,0-0.1c0,0,0-0.1,0.1-0.1s0.1-0.1,0.1-0.1s0.1,0,0.2,0
			c0.1,0,0.1,0,0.2,0s0.1,0.1,0.1,0.1l1.7,6.1l1-3.7c0-0.1,0.1-0.2,0.1-0.2c0.1,0,0.1,0,0.2,0s0.1,0,0.2,0c0.1,0,0.1,0.1,0.1,0.2
			l1,3.7l1.7-6.1c0-0.1,0.1-0.1,0.1-0.1s0.1,0,0.2,0c0.1,0,0.1,0,0.2,0s0.1,0,0.1,0.1s0.1,0.1,0.1,0.1c0,0,0,0,0,0.1l-2,6.8
			c0,0.1-0.1,0.1-0.1,0.2s-0.2,0.1-0.2,0.1s-0.2,0-0.2-0.1S155,37,155,36.9l-0.9-3.5l-0.9,3.5c0,0.1-0.1,0.1-0.1,0.2
			C152.8,37.2,152.8,37.2,152.7,37.2L152.7,37.2z"/>
		<path d="M161.7,37.2c-0.4,0-0.7-0.1-1.1-0.2s-0.6-0.4-0.8-0.7c-0.2-0.3-0.3-0.7-0.3-1.2v-3.1c0-0.5,0.1-0.9,0.3-1.2
			c0.2-0.3,0.4-0.5,0.7-0.7c0.3-0.1,0.7-0.2,1.1-0.2s0.8,0.1,1.1,0.2s0.6,0.4,0.8,0.7s0.3,0.7,0.3,1.2V35c0,0.5-0.1,0.9-0.3,1.2
			s-0.4,0.5-0.8,0.7S162.1,37.2,161.7,37.2L161.7,37.2z M161.7,36.6c0.4,0,0.8-0.1,1.1-0.4s0.4-0.6,0.4-1.2v-3.1
			c0-0.5-0.1-0.9-0.4-1.1s-0.6-0.4-1.1-0.4s-0.8,0.1-1,0.4s-0.4,0.6-0.4,1.1V35c0,0.5,0.1,0.9,0.4,1.2S161.2,36.6,161.7,36.6z"/>
		<path d="M170,37.1c-0.1,0-0.1,0-0.2-0.1s-0.1-0.2-0.1-0.2l-1.6-3h-1.3v3.1c0,0.1,0,0.2-0.1,0.2s-0.1,0.1-0.2,0.1
			c-0.1,0-0.2,0-0.2-0.1s-0.1-0.1-0.1-0.2v-6.8c0-0.1,0-0.1,0.1-0.2s0.1-0.1,0.2-0.1h1.8c0.4,0,0.8,0.1,1.1,0.2s0.6,0.3,0.8,0.6
			s0.3,0.7,0.3,1.2c0,0.4-0.1,0.7-0.2,1s-0.3,0.5-0.6,0.6c-0.2,0.1-0.5,0.2-0.8,0.3l1.5,3c0,0,0,0,0,0.1c0,0,0,0,0,0.1
			c0,0,0,0.1-0.1,0.2s-0.1,0.1-0.1,0.1S170.1,37.1,170,37.1L170,37.1z M166.9,33.2h1.4c0.4,0,0.8-0.1,1.1-0.3
			c0.3-0.2,0.4-0.6,0.4-1.1s-0.1-0.9-0.4-1.1s-0.6-0.3-1.1-0.3h-1.4V33.2L166.9,33.2z"/>
		<path d="M172.8,37.1c-0.1,0-0.2,0-0.2-0.1s-0.1-0.1-0.1-0.2v-6.8c0-0.1,0-0.1,0.1-0.2s0.1-0.1,0.2-0.1c0.1,0,0.1,0,0.2,0.1
			s0.1,0.1,0.1,0.2v3.5l2.9-3.7c0.1-0.1,0.1-0.1,0.2-0.1c0.1,0,0.1,0,0.2,0c0.1,0,0.1,0.1,0.1,0.1c0,0,0.1,0.1,0.1,0.2
			c0,0,0,0,0,0.1c0,0,0,0.1,0,0.1l-2.1,2.7l2.5,3.7c0,0,0,0.1,0,0.1c0,0.1,0,0.1-0.1,0.2c0,0-0.1,0.1-0.1,0.1s-0.1,0-0.2,0
			c-0.1,0-0.1,0-0.1,0c0,0-0.1-0.1-0.1-0.1l-2.3-3.5l-0.8,1v2.3c0,0.1,0,0.2-0.1,0.2S172.9,37.1,172.8,37.1L172.8,37.1z"/>
		<path d="M179.1,37.1c-0.1,0-0.2,0-0.2-0.1s-0.1-0.1-0.1-0.2v-6.8c0-0.1,0-0.1,0.1-0.2s0.1-0.1,0.2-0.1c0.1,0,0.1,0,0.2,0.1
			s0.1,0.1,0.1,0.2v6.8c0,0.1,0,0.2-0.1,0.2S179.1,37.1,179.1,37.1z"/>
		<path d="M182.2,37.1c-0.1,0-0.2,0-0.2-0.1s-0.1-0.1-0.1-0.2v-6.8c0-0.1,0-0.2,0.1-0.2s0.1-0.1,0.2-0.1c0.1,0,0.1,0,0.2,0.1
			c0.1,0,0.1,0.1,0.2,0.2s0.1,0.1,0.1,0.2l2.7,5.3v-5.5c0-0.1,0-0.1,0.1-0.2s0.1-0.1,0.2-0.1c0.1,0,0.2,0,0.2,0.1
			c0.1,0,0.1,0.1,0.1,0.2v6.8c0,0.1,0,0.2-0.1,0.2c-0.1,0-0.1,0.1-0.2,0.1c-0.1,0-0.2,0-0.2-0.1s-0.1-0.2-0.2-0.3l-2.8-5.4v5.5
			c0,0.1,0,0.2-0.1,0.2S182.3,37.1,182.2,37.1z"/>
		<path d="M190.6,37.2c-0.4,0-0.7-0.1-1.1-0.2s-0.6-0.4-0.8-0.7c-0.2-0.3-0.3-0.7-0.3-1.2v-3.1c0-0.5,0.1-0.9,0.3-1.2
			c0.2-0.3,0.4-0.5,0.7-0.7c0.3-0.1,0.7-0.2,1-0.2c0.4,0,0.8,0.1,1.1,0.2s0.6,0.4,0.7,0.6c0.2,0.3,0.3,0.6,0.3,0.9
			c0,0.1,0,0.2-0.1,0.3c-0.1,0-0.1,0.1-0.2,0.1c-0.1,0-0.2,0-0.2-0.1c-0.1,0-0.1-0.1-0.1-0.2c0-0.3-0.1-0.5-0.2-0.7
			s-0.3-0.3-0.5-0.4s-0.4-0.1-0.7-0.1c-0.4,0-0.8,0.1-1,0.4s-0.4,0.6-0.4,1.1v3.1c0,0.5,0.1,0.9,0.4,1.2s0.6,0.4,1,0.4
			s0.8-0.1,1.1-0.4c0.2-0.2,0.4-0.6,0.4-1.2v-1.2h-1.3c-0.1,0-0.1,0-0.2-0.1s-0.1-0.1-0.1-0.2s0-0.1,0.1-0.2c0-0.1,0.1-0.1,0.2-0.1
			h1.8c0.1,0,0.1,0,0.2,0.1c0,0,0.1,0.1,0.1,0.2v1.5c0,0.5-0.1,0.9-0.3,1.2s-0.4,0.5-0.8,0.7S191,37.2,190.6,37.2L190.6,37.2z"/>
	</g>
	<g>
		<path d="M162,24.5c-0.1,0-0.2,0-0.4-0.1c-0.1,0-0.2-0.1-0.3-0.2c-0.1-0.1-0.1-0.2-0.1-0.3c0-0.1,0-0.1,0-0.2l4.6-15.1
			c0.1-0.2,0.2-0.3,0.3-0.4s0.3-0.1,0.5-0.1c0.2,0,0.4,0,0.6,0.1c0.2,0.1,0.3,0.2,0.3,0.4l4.6,15.1c0,0,0,0.1,0,0.1
			c0,0.1,0,0.2-0.1,0.3c-0.1,0.1-0.2,0.2-0.3,0.2s-0.3,0.1-0.4,0.1c-0.1,0-0.2,0-0.3-0.1s-0.2-0.2-0.2-0.3l-1-3.4h-6.1l-1,3.4
			c0,0.1-0.1,0.2-0.2,0.3C162.3,24.5,162.2,24.5,162,24.5L162,24.5z M164,19.5h5.4l-2.7-9L164,19.5L164,19.5z"/>
		<path d="M174.6,24.6c-0.3,0-0.5-0.1-0.7-0.3s-0.3-0.4-0.3-0.7c0-0.3,0.1-0.5,0.3-0.7s0.4-0.3,0.7-0.3c0.3,0,0.5,0.1,0.7,0.3
			s0.3,0.5,0.3,0.7c0,0.3-0.1,0.5-0.3,0.7S174.9,24.6,174.6,24.6z"/>
		<path d="M178.9,24.5c-0.2,0-0.4,0-0.5-0.1c-0.1-0.1-0.2-0.2-0.2-0.4V8.8c0-0.2,0.1-0.3,0.2-0.4c0.1-0.1,0.3-0.1,0.5-0.1
			c0.2,0,0.3,0,0.5,0.1s0.2,0.2,0.2,0.4v15.1c0,0.2-0.1,0.3-0.2,0.4C179.2,24.5,179.1,24.5,178.9,24.5L178.9,24.5z"/>
	</g>
</g>
<path class="st5" d="M195.3,51h-40.7c-1.8,0-3.5,0.1-5.3,0c-2.6-0.1-4.5-2-4.6-4.6c0-0.7,0-1.3,0-2V9.8c0-1.8-0.4-4.2,0.2-5.9
	c1.1-3.3,4.3-3.1,7-3.1h42.8c1.6,0,3.2,0.5,4.2,1.9c0.8,1,0.9,2.2,0.9,3.4v21.1c0,6.4,0.1,12.8,0,19.2
	C199.8,48.9,197.9,50.9,195.3,51c-0.4,0-0.5,0.8,0,0.7c2.8-0.1,5.1-2.2,5.2-5.1c0-0.5,0-1.1,0-1.6c0-3.2,0-6.5,0-9.8V9.5
	c0-2,0.4-4.5-0.4-6.4c-1.3-3-4.1-3.1-6.9-3.1h-23.7c-6.6,0-13.3,0-19.9,0c-3.3,0-5.6,2.4-5.6,5.6c0,2.6,0,5.2,0,7.8
	c0,8.8,0,17.6,0,26.4c0,2.2-0.1,4.4,0,6.5s1.2,4,3.2,4.9c0.9,0.4,1.9,0.4,2.9,0.4h45.2C195.7,51.7,195.7,51,195.3,51L195.3,51z"/>
<path class="st5" d="M152.7,55.5c1.8-0.8,3.5-2.1,4.6-3.8c0.3-0.4-0.4-0.8-0.6-0.4c-1,1.5-2.7,2.7-4.3,3.5
	C151.9,55.1,152.3,55.7,152.7,55.5L152.7,55.5L152.7,55.5z"/>
<path class="st5" d="M141.4,49.8c-1.8-4.8-0.6-10.2,3.1-13.8c0.3-0.3-0.2-0.8-0.5-0.5c-3.9,3.8-5.2,9.5-3.3,14.6
	C140.8,50.5,141.5,50.3,141.4,49.8L141.4,49.8L141.4,49.8z"/>
<path class="st7" d="M142.9,41.3c0.7-0.8,1.7-1.3,2.7-1.4s2.1,0.2,2.9,0.9s1.1,1.8,0.8,2.8c-0.3,1-1.1,1.7-2,2.2
	c-1,0.5-2.1,0.7-3.2,0.7H142"/>
<path class="st5" d="M144.2,47.1c2.1,0.1,4.9-0.9,5.5-3.2c0.3-1,0-2.2-0.7-3s-1.8-1.3-2.9-1.2c-1.3,0-2.5,0.6-3.4,1.6
	c-0.3,0.3,0.2,0.8,0.5,0.5c1.3-1.3,3.5-1.9,5-0.6c0.6,0.6,1,1.5,0.9,2.4s-0.8,1.6-1.6,2c-1,0.6-2.1,0.9-3.3,0.8
	C143.7,46.4,143.7,47.1,144.2,47.1L144.2,47.1L144.2,47.1z"/>
<path class="st8" d="M100.3,65.2c1.8,0.7,3.9,0.4,5.6-0.5c1.5-0.8,2.8-2.2,3.6-3.7c0.4-0.7,0.2-1.7-0.5-2s-1.6-0.2-2.1,0.5
	c-0.2,0.3-0.3,0.6-0.5,0.9c-0.1,0.1-0.1,0.2-0.2,0.2c0.1-0.1,0.1-0.1,0,0s-0.2,0.2-0.3,0.4c-0.2,0.2-0.5,0.5-0.7,0.7
	c-0.1,0.1-0.2,0.1,0,0c-0.1,0-0.1,0.1-0.2,0.1c-0.2,0.1-0.3,0.2-0.4,0.3c-0.1,0.1-0.3,0.2-0.4,0.2c-0.2,0.1,0.2-0.1,0,0
	c-0.1,0-0.2,0.1-0.3,0.1c-0.2,0-0.3,0.1-0.5,0.1c-0.1,0-0.2,0-0.2,0c-0.4,0.1,0.2,0,0,0c-0.2,0-0.3,0-0.5,0c-0.1,0-0.5,0-0.6,0
	c0.1,0,0.2,0,0,0c-0.1,0-0.2,0-0.2,0c-0.2,0-0.4-0.1-0.6-0.2c-0.7-0.3-1.7,0.3-1.8,1C99,64.2,99.5,65,100.3,65.2L100.3,65.2
	L100.3,65.2z"/>
<path class="st5" d="M95.5,55.1c1.8-2.3,4-4.4,6.8-5.1s6.2,0.1,7.6,2.9c2.8,5.4-1.8,12.1-7.5,12.6c-3.2,0.3-6.4-1.1-8.4-3.7
	c-0.3-0.3-0.9,0-0.6,0.3c1.8,2.4,4.7,3.9,7.7,4s6.1-1.3,8-3.7s2.8-5.7,1.8-8.6s-3.8-4.9-6.9-4.8c-3.8,0.1-6.9,2.7-9.1,5.6
	C94.7,55,95.2,55.5,95.5,55.1L95.5,55.1L95.5,55.1z"/>
<path class="st8" d="M123.7,91.5c0.8,4.4,3.2,8.6,6.7,11.4c0.6,0.5,1.5,0.6,2.1,0c0.5-0.5,0.6-1.6,0-2.1c-3.2-2.6-5.3-6-6-10.1
	c-0.1-0.8-1.1-1.2-1.8-1.1C123.9,89.9,123.6,90.7,123.7,91.5L123.7,91.5L123.7,91.5z"/>
<path class="st17" d="M107.2,124.4c-0.2-2.6,1.3-4.6,3.2-6.2s4.2-3.1,6.3-4.5c4.5-2.9,9.2-5.4,14-7.7c1.1-0.5,0.8-2,0-2.6
	c-3.9-2.7-6.4-6.9-7-11.5c-0.3-1.9-3.2-1.1-2.9,0.8c0.8,5.4,3.9,10.2,8.4,13.3v-2.6c-5.4,2.5-10.6,5.4-15.6,8.7
	c-4.3,2.8-9.9,6.4-9.5,12.3C104.3,126.3,107.3,126.3,107.2,124.4L107.2,124.4L107.2,124.4z"/>
<path class="st17" d="M104.6,132.1c0,17.7,1.7,35.4,1.8,53.1c0,1.9,3,1.9,3,0c0-17.7-1.7-35.4-1.8-53.1
	C107.6,130.2,104.6,130.2,104.6,132.1L104.6,132.1z"/>
<path class="st17" d="M76.9,189.6c8.7-2.2,17.8-4.4,26.8-2.8c1.9,0.3,2.7-2.6,0.8-2.9c-9.6-1.7-19.1,0.5-28.4,2.8
	C74.2,187.2,75,190.1,76.9,189.6L76.9,189.6L76.9,189.6z"/>
<g class="st32">
	<path class="st33" d="M100.2,178.9c-6.7,1.9-13.7,2.5-20.6,3.1c-2,0.2-4.3,0.1-5.4-1.5c-0.8-1.3-0.3-3.2,0.8-4.3s2.7-1.6,4.2-1.9
		s3.1-0.6,4.5-1.3c1.3-0.6,2.3-1.6,3.3-2.7c2.6-2.8,4.7-6.1,5.6-9.8c1.4-5.6-0.1-11.4-0.9-17s-0.7-12.1,3.2-16.3
		c0.6-0.6,1.3-1.2,2.1-1c0.4,0.1,0.8,0.4,1,0.8c1.4,1.7,1.7,3.9,1.9,6.1c0.3,3.8,0.3,7.6,0,11.4c-0.5,5.4-1.8,10.9-0.3,16.1
		c0.7,2.7,2.1,5.1,2.9,7.8c0.5,1.7,0.7,3.5,0.7,5.3c0,1.1-0.2,2.3-0.8,3.3c-0.6,1-1.6,1.7-2.7,2.2c-3.3,1.6-7.1,1.6-10.8,1.5"/>
</g>
<path class="st5" d="M132.5,104.4c-6.1-3.6-9-11.4-9.2-18.2c0-0.3-0.4-0.5-0.6-0.2c-0.6,0.7-1.2,1.4-1.9,2.2
	c-0.3,0.3,0.2,0.8,0.5,0.5c0.6-0.7,1.2-1.4,1.9-2.2l-0.6-0.2c0.2,7,3.2,15,9.5,18.7C132.5,105.2,132.8,104.6,132.5,104.4
	L132.5,104.4L132.5,104.4z"/>
<path class="st5" d="M43.1,188.2c0,1.2,0.1,2.5,0.1,3.7c0,0.2,0,0.4,0,0.5c0,0.5,0.7,0.5,0.7,0c0-1.2-0.1-2.5-0.1-3.7
	c0-0.2,0-0.4,0-0.5C43.8,187.7,43.1,187.7,43.1,188.2L43.1,188.2z"/>
<path class="st5" d="M86.6,202.3c4.5-0.8,8.7-2.8,12.3-5.6c0.4-0.3-0.2-0.8-0.5-0.5c-3.5,2.8-7.6,4.6-11.9,5.4
	C86,201.7,86.2,202.4,86.6,202.3L86.6,202.3L86.6,202.3z"/>
<path class="st5" d="M56,185c6.9,5.4,16,5.8,24.3,4.3c4.9-0.9,9.6-2.2,14.5-2.3c4.7-0.1,9.4,0.3,14,1.3c0.4,0.1,0.6-0.6,0.2-0.7
	c-4.2-0.9-8.6-1.4-12.9-1.3c-4.5,0-8.8,0.9-13.3,1.8c-8.8,1.9-18.9,2.3-26.4-3.5C56.2,184.2,55.7,184.7,56,185L56,185L56,185z"/>
<path class="st5" d="M98.9,213.1c0.2,3.9,0.4,7.9,0.6,11.8c0,0.6,0.1,1.1,0.1,1.7c0,0.5,0.7,0.5,0.7,0c-0.2-3.9-0.4-7.9-0.6-11.8
	c0-0.6-0.1-1.1-0.1-1.7C99.6,212.6,98.9,212.6,98.9,213.1L98.9,213.1z"/>
<path class="st7" d="M50.3,186.7c0.9,0.9,1.8,1.8,2.2,2.9s0.3,2.4-0.5,3.3s-2.5,1.1-3.1,0l-1.5-1.9"/>
<path class="st5" d="M50,186.9c0.8,0.8,1.6,1.6,2.1,2.7c0.4,0.9,0.5,2,0,2.8c-0.4,0.7-1.2,1.1-2,0.9c-0.6-0.1-0.8-0.6-1.1-1l-1-1.4
	c-0.3-0.4-0.9,0-0.6,0.4l1,1.4c0.1,0.2,0.3,0.4,0.4,0.6c0.3,0.4,0.7,0.6,1.2,0.7c0.9,0.2,2-0.1,2.6-0.9c0.7-0.9,0.8-2.2,0.5-3.2
	c-0.4-1.4-1.5-2.5-2.5-3.5C50.2,186.1,49.7,186.6,50,186.9L50,186.9L50,186.9z"/>
<path class="st5" d="M55.8,193.1c0.2-0.8,0-1.6-0.2-2.4c-0.2-0.7-0.4-1.4-0.2-2.2c0.2-0.5-0.7-0.8-0.8-0.2c-0.2,0.8-0.1,1.6,0.1,2.3
	s0.5,1.5,0.3,2.3C54.8,193.4,55.7,193.6,55.8,193.1L55.8,193.1L55.8,193.1z"/>
<g>
	<path class="st5" d="M31.8,118.5c-5.2,0.8-10.4,1.7-15.5,2.7c-0.2,0-0.3,0.2-0.2,0.4c1.7,8.4,2.9,16.9,3.7,25.5
		c0,0.2,0.1,0.4,0.3,0.3c4.7-0.5,9.3-0.9,14-1.4c0.4,0,0.4-0.7,0-0.7c-4.7,0.5-9.3,0.9-14,1.4l0.3,0.3c-0.8-8.6-2-17.2-3.7-25.6
		l-0.2,0.4c5.1-1,10.3-1.9,15.5-2.7C32.4,119.1,32.2,118.4,31.8,118.5L31.8,118.5L31.8,118.5z"/>
	<g>
		<path class="st5" d="M24.2,141.7c3.1-0.4,6.3-0.8,9.4-1.2c0.4-0.1,0.4-0.7,0-0.7c-3.1,0.4-6.3,0.8-9.4,1.2
			C23.8,141.1,23.8,141.7,24.2,141.7L24.2,141.7z"/>
		<path class="st5" d="M23.9,139.2l9.4-1.2c0.4-0.1,0.4-0.7,0-0.7l-9.4,1.2C23.4,138.6,23.4,139.2,23.9,139.2L23.9,139.2z"/>
		<path class="st5" d="M23.7,136.5l5.5-0.7c0.2,0,0.3-0.1,0.3-0.3c0-0.2-0.2-0.4-0.3-0.3l-5.5,0.7c-0.2,0-0.3,0.1-0.3,0.3
			C23.4,136.4,23.5,136.6,23.7,136.5L23.7,136.5z"/>
	</g>
	<g>
		<path class="st5" d="M22.6,130.7c3.1-0.4,6.3-0.8,9.4-1.2c0.4-0.1,0.4-0.7,0-0.7l-9.4,1.2C22.2,130.1,22.2,130.8,22.6,130.7
			L22.6,130.7z"/>
		<path class="st5" d="M22.2,128.2l9.4-1.2c0.4-0.1,0.4-0.7,0-0.7c-3.1,0.4-6.3,0.8-9.4,1.2C21.8,127.5,21.8,128.2,22.2,128.2
			L22.2,128.2z"/>
		<path class="st5" d="M22.1,125.5l5.5-0.7c0.2,0,0.3-0.1,0.3-0.3c0-0.2-0.2-0.4-0.3-0.3c-1.9,0.2-3.7,0.5-5.5,0.7
			c-0.2,0-0.3,0.1-0.3,0.3C21.8,125.4,21.9,125.6,22.1,125.5L22.1,125.5z"/>
	</g>
</g>
<g>
	<path class="st5" d="M115.4,148.8c5.2,0.8,10.4,1.6,15.5,2.7l-0.2-0.4c-1.7,8.5-2.9,17-3.7,25.6l0.3-0.3c-4.7-0.5-9.3-0.9-14-1.4
		c-0.4,0-0.4,0.6,0,0.7c4.7,0.5,9.3,0.9,14,1.4c0.2,0,0.3-0.2,0.3-0.3c0.8-8.5,2-17,3.7-25.4c0-0.2-0.1-0.4-0.2-0.4
		c-5.2-1-10.3-1.9-15.5-2.7C115.1,148.1,115,148.8,115.4,148.8L115.4,148.8L115.4,148.8z"/>
	<g>
		<path class="st5" d="M123.1,170.7l-9.4-1.2c-0.4-0.1-0.4,0.6,0,0.7l9.4,1.2C123.5,171.5,123.5,170.8,123.1,170.7L123.1,170.7z"/>
		<path class="st5" d="M123.5,168.2c-3.1-0.4-6.3-0.8-9.4-1.2c-0.4-0.1-0.4,0.6,0,0.7c3.1,0.4,6.3,0.8,9.4,1.2
			C123.9,168.9,123.9,168.2,123.5,168.2L123.5,168.2z"/>
		<path class="st5" d="M123.7,165.6c-1.8-0.2-3.7-0.5-5.6-0.7c-0.2,0-0.3,0.2-0.3,0.3c0,0.2,0.2,0.3,0.3,0.3
			c1.8,0.2,3.7,0.5,5.6,0.7c0.2,0,0.3-0.2,0.3-0.3C124,165.7,123.8,165.6,123.7,165.6L123.7,165.6z"/>
	</g>
	<g>
		<path class="st5" d="M124.7,159.7c-3.1-0.4-6.3-0.8-9.4-1.2c-0.4-0.1-0.4,0.6,0,0.7l9.4,1.2C125.2,160.5,125.2,159.8,124.7,159.7
			L124.7,159.7z"/>
		<path class="st5" d="M125.1,157.2l-9.4-1.2c-0.4-0.1-0.4,0.6,0,0.7c3.1,0.4,6.3,0.8,9.4,1.2C125.6,157.9,125.6,157.3,125.1,157.2
			L125.1,157.2z"/>
		<path class="st5" d="M125.3,154.6c-1.8-0.2-3.7-0.5-5.6-0.7c-0.2,0-0.3,0.2-0.3,0.3c0,0.2,0.2,0.3,0.3,0.3l5.6,0.7
			c0.2,0,0.3-0.2,0.3-0.3C125.6,154.7,125.4,154.6,125.3,154.6L125.3,154.6z"/>
	</g>
</g>
<path class="st5" d="M94.9,33.7c4.1-3.1,10.9-3.1,14.2,1.2c3.5,4.7,1.8,10.7-0.9,15.3c-0.2,0.4,0.4,0.7,0.6,0.3
	c2.9-4.9,4.6-11.3,0.7-16.2c-3.5-4.4-10.7-4.5-14.9-1.2C94.3,33.3,94.6,33.9,94.9,33.7C94.9,33.7,94.9,33.7,94.9,33.7z"/>
<g>
	<circle class="st29" cx="79.8" cy="51.5" r="1.8"/>
	<path class="st5" d="M80.1,52.9c-0.6,0.1-1.2-0.2-1.5-0.8c-0.3-0.5-0.2-1.2,0.2-1.6s1.1-0.6,1.6-0.3s0.9,0.8,0.8,1.4
		C81.3,52.3,80.7,52.8,80.1,52.9c-0.3,0-0.4,0.3-0.3,0.5c0.1,0.2,0.2,0.3,0.4,0.2c0.8-0.1,1.6-0.8,1.8-1.6s-0.2-1.8-0.9-2.3
		s-1.8-0.4-2.4,0.1s-1,1.5-0.7,2.3c0.3,0.9,1.3,1.6,2.2,1.5c0.2,0,0.4-0.2,0.4-0.4C80.5,53.1,80.3,52.9,80.1,52.9L80.1,52.9z"/>
</g>
<g>
	<circle class="st29" cx="66.6" cy="51.5" r="1.8"/>
	<path class="st5" d="M66.9,52.9c-0.6,0.1-1.2-0.2-1.5-0.8c-0.3-0.5-0.2-1.2,0.2-1.6s1.1-0.6,1.6-0.3s0.9,0.8,0.8,1.4
		C68.1,52.3,67.5,52.8,66.9,52.9c-0.3,0-0.4,0.3-0.3,0.5c0.1,0.2,0.2,0.3,0.4,0.2c0.8-0.1,1.6-0.8,1.8-1.6s-0.2-1.8-0.9-2.3
		s-1.8-0.4-2.4,0.1s-1,1.5-0.7,2.3c0.3,0.9,1.3,1.6,2.2,1.5c0.2,0,0.4-0.2,0.4-0.4C67.3,53.1,67.1,52.9,66.9,52.9L66.9,52.9z"/>
</g>
<path class="st5" d="M87.4,75.7c3.3,3.1,8,4.3,12.4,3.2c0.4-0.1,0.2-0.8-0.2-0.7c-4.1,1.1-8.6-0.1-11.7-3
	C87.6,74.9,87.1,75.4,87.4,75.7C87.4,75.7,87.4,75.7,87.4,75.7z"/>
<path class="st5" d="M100.9,78.5c2.4-1,4.3-2.9,5.4-5.2c1.3-2.8,1.4-6,0.7-8.9c-0.1-0.4-0.8-0.2-0.7,0.2c1.2,5.1-0.4,11.2-5.6,13.3
	C100.3,78,100.5,78.7,100.9,78.5L100.9,78.5L100.9,78.5z"/>
<path class="st5" d="M109.7,187.6c0.3-7.1-0.1-14.3-0.4-21.4c-0.3-9.8-0.7-19.5-1.2-29.3c-0.2-3.2-0.3-6.4-0.7-9.5
	c-0.1-0.4-0.8-0.5-0.7,0c0.8,7.1,0.9,14.3,1.2,21.4c0.4,9.8,0.8,19.5,1,29.3c0.1,3.2,0.2,6.4,0,9.6
	C109,188.1,109.7,188.1,109.7,187.6C109.7,187.6,109.7,187.6,109.7,187.6z"/>
<path class="st5" d="M107.4,125.3c0.1-5.2,5.6-8.7,9.4-11.2c5.1-3.2,10.6-5.8,15.6-9.2c0.4-0.2,0-0.8-0.3-0.6
	c-5.4,3.6-11.3,6.3-16.7,9.9c-3.8,2.5-8.6,6-8.6,11C106.8,125.7,107.4,125.7,107.4,125.3L107.4,125.3L107.4,125.3z"/>
</svg>
