<svg xmlns="http://www.w3.org/2000/svg" viewBox="0 0 253.05 269.49"><defs><style>.cls-1,.cls-13,.cls-14,.cls-15,.cls-17,.cls-19,.cls-23,.cls-28,.cls-3,.cls-31,.cls-32,.cls-34,.cls-4,.cls-9{fill:none;}.cls-1,.cls-13,.cls-14,.cls-31,.cls-34,.cls-4,.cls-9{stroke:#181828;}.cls-1,.cls-13,.cls-14,.cls-15,.cls-28,.cls-3,.cls-9{stroke-linecap:round;stroke-linejoin:round;}.cls-1,.cls-19,.cls-4{stroke-width:2px;}.cls-2{fill:#86ff33;}.cls-3{stroke:#eeffe1;}.cls-17,.cls-23,.cls-3,.cls-34,.cls-9{stroke-width:3px;}.cls-17,.cls-19,.cls-23,.cls-31,.cls-32,.cls-34,.cls-4{stroke-miterlimit:10;}.cls-5{fill:#54ca01;}.cls-6{fill:#fbb63a;}.cls-7{fill:#ed7d00;}.cls-8{fill:#ffdb9c;}.cls-10{fill:#889faa;}.cls-11{fill:#c5d5dc;}.cls-12,.cls-18,.cls-35{fill:#fff;}.cls-13{stroke-width:1.5px;}.cls-15{stroke:#fff;}.cls-16{fill:#c8eefd;}.cls-17,.cls-32{stroke:#4fcdff;}.cls-18,.cls-25{opacity:0.8;}.cls-19{stroke:#202020;}.cls-20{fill:#fbdb9e;}.cls-21{fill:#181828;}.cls-22{fill:#f68e2a;}.cls-23{stroke:#de761b;}.cls-24{fill:#ae5601;}.cls-25{fill:#ffc38c;}.cls-26{fill:#d6e6ff;}.cls-27{fill:#d15f39;}.cls-28{stroke:#f7a387;}.cls-29{fill:#f7a387;}.cls-30{fill:#a72e08;}.cls-31,.cls-32{stroke-width:4px;}.cls-33{fill:#fa4040;}.cls-35{opacity:0.7;}</style></defs><title>Asset 2</title><g id="Layer_2" data-name="Layer 2"><g id="Layer_1-2" data-name="Layer 1"><line class="cls-1" x1="246.19" y1="211.3" x2="246.19" y2="260.19"/><line class="cls-1" x1="237.74" y1="211.3" x2="237.74" y2="260.19"/><circle class="cls-2" cx="229.07" cy="243.55" r="22.98"/><path class="cls-3" d="M241.13,225.73s11,7.65,9.32,18.84"/><circle class="cls-4" cx="229.07" cy="243.55" r="22.98"/><path class="cls-5" d="M225.86,226.12h0a6.82,6.82,0,0,1,6.82,6.82v28.72a0,0,0,0,1,0,0h-6.82a0,0,0,0,1,0,0V226.12A0,0,0,0,1,225.86,226.12Z"/><path class="cls-1" d="M191.07,160s-47-19.37-42.55-64.27"/><path class="cls-1" d="M209.4,156s-63-43.89-56.86-97.18"/><path class="cls-1" d="M232.86,145.67H158.8"/><polyline class="cls-6" points="226.87 181.31 226.87 160.18 155.98 160.18 155.98 265.35 226.87 265.35 226.87 190.03"/><rect class="cls-7" x="155.98" y="160.18" width="70.89" height="6.97" transform="translate(382.85 327.34) rotate(-180)"/><rect class="cls-7" x="190.11" y="236.33" width="36.76" height="6.97" transform="translate(416.97 479.63) rotate(-180)"/><rect class="cls-7" x="220.54" y="164.73" width="6.33" height="99.25" transform="translate(447.41 428.71) rotate(-180)"/><path class="cls-8" d="M157.54,178.4h7.23a0,0,0,0,1,0,0v78.36a7.23,7.23,0,0,1-7.23,7.23h0a0,0,0,0,1,0,0V178.4A0,0,0,0,1,157.54,178.4Z" transform="translate(322.3 442.38) rotate(-180)"/><polyline class="cls-9" points="226.87 181.31 226.87 160.18 155.98 160.18 155.98 265.35 226.87 265.35 226.87 190.03"/><rect class="cls-10" x="138.55" y="152.86" width="96" height="8" transform="translate(373.1 313.72) rotate(-180)"/><path class="cls-11" d="M145,153.3h84.41a5,5,0,0,1,5,5v0a0,0,0,0,1,0,0H145a0,0,0,0,1,0,0v-5A0,0,0,0,1,145,153.3Z" transform="translate(379.48 311.57) rotate(-180)"/><path class="cls-12" d="M220.82,153.37h6.84a2.24,2.24,0,0,1,2.24,2.24v0a0,0,0,0,1,0,0H218.58a0,0,0,0,1,0,0v0A2.24,2.24,0,0,1,220.82,153.37Z" transform="translate(448.49 308.97) rotate(-180)"/><path class="cls-12" d="M208.48,153.37h6.84a2.24,2.24,0,0,1,2.24,2.24v0a0,0,0,0,1,0,0H206.24a0,0,0,0,1,0,0v0A2.24,2.24,0,0,1,208.48,153.37Z" transform="translate(423.8 308.97) rotate(180)"/><polyline class="cls-4" points="162.48 152.86 138.13 152.86 138.13 160.86 234.13 160.86 234.13 152.86 161.52 152.86"/><line class="cls-13" x1="224.97" y1="145.82" x2="224.97" y2="152.54"/><line class="cls-13" x1="212.03" y1="145.82" x2="212.03" y2="152.54"/><line class="cls-13" x1="199.08" y1="145.82" x2="199.08" y2="152.54"/><circle class="cls-10" cx="187.13" cy="157.3" r="1.64"/><circle class="cls-10" cx="192.2" cy="157.84" r="1.24"/><circle class="cls-10" cx="184.42" cy="156.07" r="0.68"/><line class="cls-14" x1="233.88" y1="156.84" x2="220.95" y2="156.84"/><rect class="cls-10" x="186.41" y="200.23" width="48" height="8" transform="translate(420.82 408.46) rotate(-180)"/><path class="cls-11" d="M185.46,200.57h36.41a5,5,0,0,1,5,5v0a0,0,0,0,1,0,0H185.46a0,0,0,0,1,0,0v-5a0,0,0,0,1,0,0Z" transform="translate(412.3 406.11) rotate(-180)"/><path class="cls-12" d="M187.59,200.74h6.84a2.24,2.24,0,0,1,2.24,2.24v0a0,0,0,0,1,0,0H185.35a0,0,0,0,1,0,0v0A2.24,2.24,0,0,1,187.59,200.74Z" transform="translate(382.02 403.71) rotate(-180)"/><polyline class="cls-4" points="228.34 200.23 186 200.23 186 208.23 234 208.23 234 200.23 201.38 200.23"/><line class="cls-15" x1="167.19" y1="163.27" x2="167.19" y2="168.27"/><line class="cls-15" x1="163.49" y1="169.53" x2="163.49" y2="173.53"/><line class="cls-15" x1="170.55" y1="174.17" x2="170.55" y2="178.17"/><line class="cls-15" x1="178.94" y1="174.04" x2="178.94" y2="179.04"/><line class="cls-15" x1="173.8" y1="169.53" x2="173.8" y2="173.53"/><path class="cls-12" d="M158.19,169.37h32.55a.75.75,0,0,0,0-1.5H158.19a.75.75,0,0,0,0,1.5Z"/><path class="cls-12" d="M158.19,174.7h42.55a.75.75,0,0,0,0-1.5H158.19a.75.75,0,0,0,0,1.5Z"/><path class="cls-12" d="M161.19,180h29.55a.75.75,0,0,0,0-1.5H161.19a.75.75,0,0,0,0,1.5Z"/><rect class="cls-16" x="190.51" y="208.61" width="36.22" height="27.75"/><rect class="cls-17" x="191.77" y="209.58" width="33.7" height="25.82"/><polygon class="cls-18" points="227 217.35 201.67 236.59 189.83 236.6 226.74 207.74 227 217.35"/><polygon class="cls-18" points="220.09 208.91 190.37 232.06 189.83 225.46 211.48 208.83 220.09 208.91"/><rect class="cls-19" x="190.51" y="208.61" width="36.22" height="27.75"/><line class="cls-19" x1="199.79" y1="208.18" x2="199.79" y2="236.66"/><rect class="cls-12" x="210.65" y="221.57" width="1.66" height="10.64" rx="0.83" transform="translate(258.91 -79.63) rotate(51.78)"/><rect class="cls-12" x="215.26" y="213.98" width="1.66" height="10.64" rx="0.83" transform="translate(254.7 -86.14) rotate(51.78)"/><rect class="cls-12" x="204.67" y="209.23" width="1.66" height="10.64" rx="0.83" transform="translate(246.93 -79.63) rotate(51.78)"/><rect class="cls-20" x="161.89" y="235.29" width="7.01" height="24.34" rx="3.51"/><rect class="cls-20" x="161.89" y="197.51" width="7.01" height="24.34" rx="3.51"/><line class="cls-1" x1="156.75" y1="252.14" x2="163.75" y2="252.14"/><circle class="cls-21" cx="167.86" cy="252.21" r="1.39"/><line class="cls-1" x1="156.75" y1="190.79" x2="163.75" y2="190.79"/><circle class="cls-21" cx="167.86" cy="190.87" r="1.39"/><line class="cls-14" x1="226.2" y1="179.87" x2="219.2" y2="179.87"/><circle class="cls-21" cx="216.66" cy="179.8" r="0.81"/><line class="cls-1" x1="226.5" y1="255.5" x2="219.5" y2="255.5"/><circle class="cls-21" cx="215.4" cy="255.42" r="1.39"/><line class="cls-1" x1="251.25" y1="249.66" x2="244.25" y2="249.66"/><circle class="cls-21" cx="240.15" cy="249.59" r="1.39"/><path class="cls-1" d="M30.43,174.51s23-6.28,23-26.34"/><path class="cls-1" d="M8.87,174.57H82.92"/><polyline class="cls-12" points="14.85 210.21 14.85 189.07 85.74 189.07 85.74 264.25 14.85 264.25 14.85 218.92"/><rect class="cls-11" x="14.85" y="189.08" width="70.89" height="6.97"/><polyline class="cls-9" points="14.85 210.21 14.85 189.07 85.74 189.07 85.74 264.25 14.85 264.25 14.85 218.92"/><rect class="cls-10" x="7.17" y="181.75" width="96" height="8"/><path class="cls-11" d="M7.29,182.19H96.67a0,0,0,0,1,0,0v0a5,5,0,0,1-5,5H7.29a0,0,0,0,1,0,0v-5A0,0,0,0,1,7.29,182.19Z"/><path class="cls-12" d="M11.82,182.26H23.14a0,0,0,0,1,0,0v0a2.24,2.24,0,0,1-2.24,2.24H14.06a2.24,2.24,0,0,1-2.24-2.24v0A0,0,0,0,1,11.82,182.26Z"/><path class="cls-12" d="M24.16,182.26H35.48a0,0,0,0,1,0,0v0a2.24,2.24,0,0,1-2.24,2.24H26.4a2.24,2.24,0,0,1-2.24-2.24v0a0,0,0,0,1,0,0Z"/><polyline class="cls-4" points="79.24 181.75 103.59 181.75 103.59 189.75 7.59 189.75 7.59 181.75 80.2 181.75"/><line class="cls-13" x1="16.75" y1="174.71" x2="16.75" y2="181.43"/><line class="cls-13" x1="29.7" y1="174.71" x2="29.7" y2="181.43"/><rect class="cls-22" x="22.16" y="201.37" width="67.48" height="54.04"/><rect class="cls-23" x="24.1" y="202.92" width="63.6" height="50.93"/><line class="cls-13" x1="42.64" y1="174.71" x2="42.64" y2="181.43"/><circle class="cls-10" cx="54.59" cy="186.19" r="1.64"/><circle class="cls-10" cx="49.52" cy="186.74" r="1.24"/><circle class="cls-10" cx="57.31" cy="184.96" r="0.68"/><path class="cls-24" d="M23.18,233.48h26.1a1,1,0,0,1,1,1v0a1,1,0,0,1-1,1H23.18a0,0,0,0,1,0,0v-1.95a0,0,0,0,1,0,0Z"/><path class="cls-24" d="M22.37,243H41.75a.84.84,0,0,1,.84.84v.26a.84.84,0,0,1-.84.84H22.37a0,0,0,0,1,0,0V243a0,0,0,0,1,0,0Z" transform="translate(-211.54 276.5) rotate(-90)"/><path class="cls-24" d="M32.06,243H51.44a.84.84,0,0,1,.84.84v.26a.84.84,0,0,1-.84.84H32.06a0,0,0,0,1,0,0V243A0,0,0,0,1,32.06,243Z" transform="translate(-201.85 286.19) rotate(-90)"/><polygon class="cls-25" points="34.32 255.34 25.27 255.34 40.27 200.86 49.32 200.86 34.32 255.34"/><polygon class="cls-25" points="47.96 255.34 38.9 255.34 53.9 200.86 62.96 200.86 47.96 255.34"/><rect class="cls-1" x="22.16" y="201.15" width="67.48" height="54.04"/><polyline class="cls-12" points="51.17 137.6 51.17 122.5 73.17 122.5 73.17 192.5 51.17 192.5 51.17 171.03"/><polygon class="cls-26" points="72.97 121.72 72.97 191.72 50.97 191.72 50.97 187.83 69.46 187.83 69.46 121.72 72.97 121.72"/><rect class="cls-27" x="80.67" y="63" width="78" height="198"/><line class="cls-28" x1="152.94" y1="72.21" x2="152.94" y2="76.21"/><line class="cls-28" x1="151.14" y1="76.88" x2="151.14" y2="80.88"/><path class="cls-29" d="M148.49,81.76H158a.75.75,0,0,0,0-1.5h-9.55a.75.75,0,0,0,0,1.5Z"/><path class="cls-29" d="M138.17,72.32h19.55a.75.75,0,0,0,0-1.5H138.17a.75.75,0,0,0,0,1.5Z"/><path class="cls-29" d="M144.17,77.14h13.55a.75.75,0,0,0,0-1.5H144.17a.75.75,0,0,0,0,1.5Z"/><rect class="cls-30" x="80.81" y="62.66" width="78" height="7.52"/><rect class="cls-30" x="80.67" y="93" width="78" height="8.5"/><rect class="cls-30" x="152.61" y="101.78" width="5.96" height="160.5"/><path class="cls-29" d="M80.66,106.5h0a7,7,0,0,1,7,7v148a0,0,0,0,1,0,0h-7a0,0,0,0,1,0,0v-155A0,0,0,0,1,80.66,106.5Z"/><polyline class="cls-9" points="81.08 71.45 81.08 63.5 158.08 63.5 158.08 113.46"/><line class="cls-9" x1="81.08" y1="122.03" x2="81.08" y2="78.94"/><line class="cls-31" x1="74.17" y1="139.5" x2="80.17" y2="139.5"/><polyline class="cls-1" points="51.17 137.6 51.17 122.5 73.17 122.5 73.17 192.5 51.17 192.5 51.17 170.03"/><line class="cls-1" x1="51.17" y1="164.76" x2="51.17" y2="151.29"/><line class="cls-1" x1="51.17" y1="146.05" x2="51.17" y2="143.58"/><path class="cls-16" d="M119.58,105.5h0a24,24,0,0,1,24,24v54a0,0,0,0,1,0,0h-48a0,0,0,0,1,0,0v-54A24,24,0,0,1,119.58,105.5Z"/><path class="cls-32" d="M119.58,108.18h0a22.35,22.35,0,0,1,22.35,22.35v50.28a0,0,0,0,1,0,0H97.24a0,0,0,0,1,0,0V130.53A22.35,22.35,0,0,1,119.58,108.18Z"/><path class="cls-16" d="M119.9,199.67h0a24.5,24.5,0,0,1,24.5,24.5v37.5a0,0,0,0,1,0,0h-49a0,0,0,0,1,0,0v-37.5a24.5,24.5,0,0,1,24.5-24.5Z"/><path class="cls-17" d="M119.58,201.39h0a22.35,22.35,0,0,1,22.35,22.35v35a0,0,0,0,1,0,0H97.24a0,0,0,0,1,0,0v-35a22.35,22.35,0,0,1,22.35-22.35Z"/><line class="cls-1" x1="82.17" y1="109.5" x2="89.17" y2="109.5"/><circle class="cls-21" cx="93.27" cy="109.57" r="1.39"/><line class="cls-28" x1="95.67" y1="64" x2="95.67" y2="70"/><line class="cls-28" x1="91.97" y1="71.26" x2="91.97" y2="75.26"/><line class="cls-28" x1="99.03" y1="75.91" x2="99.03" y2="79.91"/><line class="cls-28" x1="107.42" y1="75.77" x2="107.42" y2="80.77"/><line class="cls-28" x1="102.27" y1="71.26" x2="102.27" y2="75.26"/><line class="cls-19" x1="88.17" y1="222.5" x2="81.17" y2="222.5"/><line class="cls-19" x1="158.17" y1="222.5" x2="151.17" y2="222.5"/><line class="cls-19" x1="158.17" y1="173.5" x2="151.17" y2="173.5"/><line class="cls-19" x1="158.17" y1="101.5" x2="151.17" y2="101.5"/><circle class="cls-33" cx="62.17" cy="137.5" r="5"/><circle class="cls-33" cx="62.17" cy="175.5" r="5"/><rect class="cls-10" x="71.17" y="85.5" width="96" height="8"/><path class="cls-11" d="M71.17,85.5h89.38a0,0,0,0,1,0,0v0a5,5,0,0,1-5,5H71.17a0,0,0,0,1,0,0v-5A0,0,0,0,1,71.17,85.5Z"/><path class="cls-26" d="M165.17,5V46a2.52,2.52,0,0,1-2.52,2.52h-86A2.52,2.52,0,0,1,74.17,46v-4.8a46.81,46.81,0,0,1,34.2-10.44c10.56,1.08,20.47,5.75,31,7,4.1.5,8.69.33,11.76-2.45,2.29-2.07,3.28-5.24,3.61-8.31.35-3.27,0-6.75-1.79-9.5-.74-1.12-1.7-2.08-2.45-3.2a14.53,14.53,0,0,1-2.16-7.17,9.94,9.94,0,0,1,.54-4.54l.05-.11h13.71A2.52,2.52,0,0,1,165.17,5Z"/><rect class="cls-11" x="71.58" y="56.5" width="96" height="8"/><path class="cls-12" d="M72.17,56.35h52.58a0,0,0,0,1,0,0v0a4,4,0,0,1-4,4H72.17a0,0,0,0,1,0,0v-4A0,0,0,0,1,72.17,56.35Z"/><polyline class="cls-4" points="111.56 56.5 167.58 56.5 167.58 64.5 71.58 64.5 71.58 56.5 92.67 56.5"/><line class="cls-4" x1="96.76" y1="56.5" x2="108.07" y2="56.5"/><path class="cls-34" d="M121.63,1.5h40.93A2.52,2.52,0,0,1,165.08,4V45a2.52,2.52,0,0,1-2.52,2.52H76.61A2.52,2.52,0,0,1,74.08,45V4A2.52,2.52,0,0,1,76.61,1.5H94.75"/><line class="cls-34" x1="101.13" y1="1.5" x2="115.47" y2="1.5"/><rect class="cls-21" x="81.13" y="47.5" width="4.07" height="8"/><rect class="cls-21" x="154.31" y="47.5" width="4.07" height="8"/><rect class="cls-21" x="117.72" y="47.5" width="4.07" height="8"/><circle class="cls-33" cx="84.17" cy="10.5" r="3"/><circle class="cls-33" cx="84.17" cy="37.5" r="3"/><circle class="cls-33" cx="155.17" cy="10.5" r="3"/><circle class="cls-33" cx="155.17" cy="37.5" r="3"/><rect class="cls-30" x="143.75" y="112.54" width="12.49" height="3.21" rx="1.61"/><rect class="cls-30" x="133.22" y="192.04" width="21.49" height="3.21" rx="1.61"/><circle class="cls-30" cx="129.38" cy="193.54" r="1.75"/><polygon class="cls-18" points="142.89 214.08 95.38 254.08 95.38 242.09 137.89 207.09 142.89 214.08"/><polygon class="cls-18" points="142.89 235.89 111.38 261.89 95.38 261.9 143.89 222.9 142.89 235.89"/><polygon class="cls-35" points="142.89 136.08 95.38 176.08 95.38 164.09 143 124.66 142.89 136.08"/><polygon class="cls-35" points="142.89 157.9 111.38 183.9 95.38 183.91 143.89 144.91 142.89 157.9"/><polyline class="cls-9" points="158.08 127.29 158.08 261.5 81.08 261.5 81.08 242.98"/><path class="cls-4" d="M119.58,199.5h0a24.5,24.5,0,0,1,24.5,24.5v37.5a0,0,0,0,1,0,0h-49a0,0,0,0,1,0,0V224A24.5,24.5,0,0,1,119.58,199.5Z"/><line class="cls-19" x1="119.17" y1="199.5" x2="119.17" y2="260.5"/><line class="cls-19" x1="144.17" y1="219.5" x2="95.17" y2="219.5"/><line class="cls-19" x1="108.17" y1="214.73" x2="108.17" y2="219.5"/><line class="cls-19" x1="108.17" y1="201.5" x2="108.17" y2="210.83"/><line class="cls-19" x1="130.17" y1="201.5" x2="130.17" y2="219.5"/><path class="cls-12" d="M81.65,136.83h0A4.38,4.38,0,0,1,86,141.21v9.54a4.38,4.38,0,0,1-4.38,4.38h0a0,0,0,0,1,0,0V136.83a0,0,0,0,1,0,0Z"/><rect class="cls-12" x="107.76" y="145.38" width="2.86" height="18.31" rx="1.43" transform="translate(157.97 -28.29) rotate(50.18)"/><rect class="cls-12" x="127.82" y="132.33" width="2.86" height="18.31" rx="1.43" transform="translate(155.16 -48.39) rotate(50.18)"/><rect class="cls-12" x="131.52" y="152.97" width="2.86" height="18.31" rx="1.43" transform="translate(172.35 -43.81) rotate(50.18)"/><rect class="cls-12" x="111.67" y="162.34" width="2.86" height="18.31" rx="1.43" transform="translate(172.41 -25.19) rotate(50.18)"/><path class="cls-12" d="M81.65,199h0A4.38,4.38,0,0,1,86,203.34v9.54a4.38,4.38,0,0,1-4.38,4.38h0a0,0,0,0,1,0,0V199A0,0,0,0,1,81.65,199Z"/><line class="cls-9" x1="81.08" y1="234.93" x2="81.08" y2="128.53"/><path class="cls-4" d="M119.58,105.5h0a24,24,0,0,1,24,24v54a0,0,0,0,1,0,0h-48a0,0,0,0,1,0,0v-54A24,24,0,0,1,119.58,105.5Z"/><line class="cls-19" x1="119.17" y1="128.5" x2="119.17" y2="184.5"/><line class="cls-19" x1="144.17" y1="128.5" x2="95.17" y2="128.5"/><rect class="cls-12" x="100.35" y="131.87" width="3.41" height="16.85" rx="1.7"/><rect class="cls-12" x="27.63" y="214.57" width="3.41" height="16.85" rx="1.7"/><path class="cls-29" d="M86.67,71.1h32.55a.75.75,0,0,0,0-1.5H86.67a.75.75,0,0,0,0,1.5Z"/><path class="cls-29" d="M86.67,76.43h42.55a.75.75,0,0,0,0-1.5H86.67a.75.75,0,0,0,0,1.5Z"/><path class="cls-29" d="M89.67,81.76h29.55a.75.75,0,0,0,0-1.5H89.67a.75.75,0,0,0,0,1.5Z"/><circle class="cls-10" cx="118.59" cy="89.94" r="1.64"/><circle class="cls-10" cx="113.52" cy="90.49" r="1.24"/><circle class="cls-10" cx="121.3" cy="88.71" r="0.68"/><path class="cls-12" d="M71.82,85.81H83.14a0,0,0,0,1,0,0v0a2.26,2.26,0,0,1-2.26,2.26H71.82a0,0,0,0,1,0,0V85.81A0,0,0,0,1,71.82,85.81Z"/><path class="cls-12" d="M84.16,85.81H95.48a0,0,0,0,1,0,0v0a2.26,2.26,0,0,1-2.26,2.26H86.42a2.26,2.26,0,0,1-2.26-2.26v0a0,0,0,0,1,0,0Z"/><polyline class="cls-4" points="143.24 85.5 167.58 85.5 167.58 93.5 71.58 93.5 71.58 85.5 138.2 85.5"/><line class="cls-1" x1="63.64" y1="197.3" x2="63.64" y2="260.19"/><circle class="cls-12" cx="29.34" cy="209.9" r="1.9"/><path class="cls-1" d="M59.06,122.61s21.64-3.5,21.64-23.56"/><line class="cls-14" x1="7.84" y1="185.73" x2="20.77" y2="185.73"/><line class="cls-1" x1="82.17" y1="190.97" x2="89.17" y2="190.97"/><circle class="cls-21" cx="93.27" cy="191.04" r="1.39"/><rect class="cls-10" x="0.58" y="260.49" width="246" height="8"/><rect class="cls-11" x="0.58" y="260.49" width="230" height="4"/><polyline class="cls-4" points="222.66 260.49 247 260.49 247 268.49 1 268.49 1 260.49 223.62 260.49"/><rect class="cls-12" x="204.53" y="161.3" width="21.91" height="14.07"/><rect class="cls-11" x="204.53" y="161.08" width="21.91" height="3.18"/><rect class="cls-1" x="204.53" y="161.08" width="21.91" height="14.07"/><circle class="cls-13" cx="215.61" cy="168.67" r="2.35"/></g></g></svg>