<?xml version="1.0" encoding="UTF-8"?>
<svg id="Layer_2" data-name="Layer 2" xmlns="http://www.w3.org/2000/svg" viewBox="0 0 965.84 1013.71">
  <defs>
    <style>
      .cls-1 {
        fill: #516f72;
      }

      .cls-1, .cls-2, .cls-3, .cls-4, .cls-5, .cls-6, .cls-7, .cls-8, .cls-9, .cls-10, .cls-11, .cls-12, .cls-13, .cls-14, .cls-15, .cls-16, .cls-17, .cls-18, .cls-19, .cls-20, .cls-21, .cls-22, .cls-23 {
        stroke-width: 0px;
      }

      .cls-2 {
        fill: #5c7680;
      }

      .cls-3 {
        fill: #353535;
      }

      .cls-4 {
        fill: #294d56;
      }

      .cls-5 {
        fill: #474747;
      }

      .cls-6 {
        fill: #2e2e33;
      }

      .cls-7 {
        fill: #111;
      }

      .cls-8 {
        fill: #424248;
      }

      .cls-9 {
        fill: #212121;
      }

      .cls-10 {
        fill: #13e25d;
      }

      .cls-11 {
        fill: #161616;
      }

      .cls-12 {
        fill: #d3370d;
      }

      .cls-13 {
        fill: #d0d8dd;
      }

      .cls-14 {
        fill: #a8ef86;
      }

      .cls-15 {
        fill: #b8bec3;
      }

      .cls-16 {
        fill: #90a7af;
      }

      .cls-17 {
        fill: #7dffaf;
      }

      .cls-18 {
        fill: #fc9775;
      }

      .cls-19 {
        fill: #80d160;
      }

      .cls-20 {
        fill: #f3743f;
      }

      .cls-21 {
        fill: #fff;
      }

      .cls-22 {
        fill: #ff3617;
      }

      .cls-23 {
        fill: #02b73e;
      }
    </style>
  </defs>
  <g id="Layer_1-2" data-name="Layer 1">
    <g>
      <path class="cls-13" d="M105.57,839.06c-5.54,25.63,13.24,48.03,31.63,63.24,30.62,25.31,68.8,41.49,105.91,54.63,51.56,18.26,105.26,30.44,159.2,39.15,62.66,10.11,126.17,15.41,189.63,16.06,56.52.58,113.33-2.45,169.16-11.58,41.16-6.73,83.36-16.32,120.78-35.33,21.72-11.03,47.33-28.05,51.9-53.99v-34.78"/>
      <path class="cls-15" d="M105.57,817.9c-5.54,25.63,13.24,48.03,31.63,63.24,30.62,25.31,68.8,41.49,105.91,54.63,51.56,18.26,105.26,30.44,159.2,39.15,62.66,10.11,126.17,15.41,189.63,16.06,56.52.58,113.33-2.45,169.16-11.58,41.16-6.73,83.36-16.32,120.78-35.33,21.72-11.03,47.33-28.05,51.9-53.99v-34.78"/>
      <path class="cls-8" d="M740.92,743.21c50.66,13.68,102.97,31.17,146.66,61,23.01,15.71,51.72,41.01,46.2,72.26-4.58,25.94-30.19,42.96-51.9,53.99-37.42,19-79.63,28.59-120.78,35.33-55.83,9.13-112.64,12.16-169.16,11.58-63.46-.65-126.97-5.96-189.63-16.06-53.94-8.7-107.64-20.88-159.2-39.15-37.11-13.15-75.29-29.32-105.91-54.63-18.39-15.21-37.17-37.61-31.63-63.24,3.54-16.4,15.98-29.22,29.11-38.79,19.27-14.04,41.97-23.22,64.52-30.5,13.92-4.49,28.09-8.22,42.36-11.4"/>
      <path class="cls-6" d="M683.79,770.9c37.59,10.15,76.39,23.12,108.81,45.26,17.07,11.65,38.37,30.42,34.28,53.61-3.4,19.25-22.4,31.87-38.51,40.05-27.76,14.1-59.08,21.21-89.61,26.21-41.42,6.78-83.57,9.03-125.5,8.59-47.08-.49-94.2-4.42-140.69-11.92-40.02-6.46-79.86-15.49-118.12-29.04-27.53-9.75-55.86-21.75-78.58-40.53-13.65-11.28-27.58-27.9-23.47-46.92,2.63-12.16,11.85-21.68,21.6-28.78,14.29-10.42,31.14-17.23,47.87-22.63,10.33-3.33,20.84-6.1,31.43-8.46"/>
      <path class="cls-7" d="M740.53,744.65c41.38,11.2,82.64,24.45,120.41,45.05,16.87,9.2,33.51,19.72,47.56,32.93,12.91,12.14,24.76,28.09,24.48,46.63-.29,18.83-12.83,34.06-27.21,44.89-15.32,11.54-33.21,19.84-51.04,26.64-42.09,16.04-87.46,23.68-132.04,28.82-94.35,10.88-190.9,7.79-284.94-4.62-46.1-6.09-92.01-14.53-136.95-26.58-42.59-11.41-85.71-25.46-124.54-46.64-18.09-9.86-35.88-21.57-50.14-36.58s-24.39-33.91-18.13-54.24c6.01-19.5,24.02-33.09,40.9-42.93,18.84-10.97,39.6-18.44,60.44-24.6,10.77-3.19,21.67-5.93,32.63-8.39,1.88-.42,1.09-3.32-.8-2.89-22.8,5.12-45.45,11.48-67.1,20.34-19.11,7.82-38.32,17.86-53.04,32.61-13.25,13.28-21.24,31.14-16.45,49.97s19.21,33.61,33.8,45.33c34.32,27.56,76.39,44.07,117.78,57.81,45.96,15.26,93.35,25.89,141.1,33.78,97.55,16.11,197.86,21.62,296.47,13.49,46.94-3.87,94.57-10.5,139.72-24.24,20.43-6.22,40.58-14.13,59.11-24.82,14.8-8.54,29.61-19.59,37.68-35.06,18.29-35.03-11.31-66.75-38.25-85.9-35.69-25.37-77.13-41.72-118.75-54.52-10.58-3.25-21.22-6.27-31.9-9.16-1.87-.51-2.66,2.39-.8,2.89h0Z"/>
      <path class="cls-23" d="M238.24,647.96c-15.45-20.87-40.71-34.14-66.66-35.02,16.77,19.51,36.59,36.39,58.52,49.85-16.34,11.78-26.92,31.21-27.95,51.34,13.04-11.06,26.07-22.13,39.11-33.19"/>
      <path class="cls-7" d="M239.54,647.2c-12.34-16.59-30.53-28.51-50.63-33.38-5.68-1.37-11.49-2.17-17.33-2.38-1.39-.05-1.86,1.63-1.06,2.56,13.18,15.3,28.2,28.98,44.65,40.7,4.62,3.29,9.35,6.42,14.18,9.39v-2.59c-13.04,9.47-22.54,23.46-26.6,39.06-1.15,4.44-1.85,8.99-2.1,13.57-.08,1.4,1.64,1.84,2.56,1.06,13.04-11.06,26.07-22.13,39.11-33.19,1.47-1.25-.66-3.36-2.12-2.12-13.04,11.06-26.07,22.13-39.11,33.19l2.56,1.06c.83-15.29,7.21-30.14,17.56-41.41,2.92-3.19,6.15-6.09,9.65-8.63.9-.65,1.03-1.96,0-2.59-16.99-10.45-32.69-22.92-46.69-37.11-3.98-4.04-7.82-8.21-11.52-12.5l-1.06,2.56c19.86.72,39.28,8.72,54.08,21.96,4.16,3.72,7.96,7.84,11.29,12.32,1.14,1.53,3.74.04,2.59-1.51h0Z"/>
      <path class="cls-19" d="M488.91,489.58c40.43.72,80.85,5.51,121.27,4.15,19.8-.67,39.77,4.41,55.39-7.77,26.66-20.78,21.53-75.06,18.77-108.75,2.17-59.52.47-111.48,6.79-166.44,3.03-26.35,7.13-54.08-3.03-78.58-9.9-23.87-34.1-41.57-59.94-42.17-25.83-.6-51.49,16.92-58.9,41.67-4.55,15.22-2.49,31.51-1.05,47.34,5.55,61.12,1.07,123.14-13.21,182.83l29.52-8.32c-28.43-1.56-61.69-5.14-94.08-3.65"/>
      <path class="cls-23" d="M504.39,468.03c28.69.26,57.39.52,86.08.78,13.4.12,26.92.61,40.21-1.54,6.38-1.03,12.66-2.75,18.54-5.46,5.41-2.49,10.38-6.18,13.5-11.33,3.53-5.83,4.44-12.79,4.87-19.47.51-7.83.76-15.69,1.13-23.53.08-1.62-1.43-3-3-3-1.69,0-2.92,1.38-3,3-.32,6.89-.63,13.78-.97,20.66-.27,5.54-.62,11.25-2.75,16.44-4.39,10.73-17.31,14.56-27.69,16.51-12.6,2.37-25.6,1.85-38.36,1.74-13.93-.13-27.86-.25-41.8-.38-15.59-.14-31.18-.28-46.77-.42-3.86-.03-3.87,5.97,0,6h0Z"/>
      <path class="cls-23" d="M608.5,411.28c5.96-.35,12.31-.88,17.52-4.08s8.03-8.38,9.35-14.07c1.4-6.04,1.4-12.38,1.59-18.54.23-7.25.33-14.51.31-21.76-.02-8.24-.21-16.49-.55-24.73-.07-1.62-1.33-3-3-3-1.57,0-3.07,1.37-3,3,.57,13.84.7,27.7.37,41.54-.14,6.06-.14,12.21-.86,18.24-.55,4.58-1.91,9.53-5.39,12.74-4.29,3.97-10.81,4.33-16.35,4.65-1.62.09-3,1.31-3,3,0,1.55,1.37,3.1,3,3h0Z"/>
      <path class="cls-23" d="M507.88,412.61c14.02-.24,28.04-.2,42.07-.16,3.86.01,3.87-5.99,0-6-14.02-.04-28.05-.08-42.07.16-3.86.07-3.87,6.07,0,6h0Z"/>
      <path class="cls-23" d="M613.57,285.01c17.65-.17,35.3-.06,52.95.33,5.05.11,10.11.25,15.16.4l-3-3c.21,2.11.17,4.21.51,6.32l2.89-3.8c-18.44-.09-36.88-.62-55.32-1.08-3.86-.1-3.86,5.91,0,6,18.44.45,36.87.98,55.32,1.08,2.12.01,3.2-1.92,2.89-3.8-.25-1.55-.14-3.16-.29-4.72-.17-1.65-1.24-2.95-3-3-17.64-.55-35.29-.82-52.95-.81-5.06,0-10.11.03-15.16.08-3.86.04-3.87,6.04,0,6h0Z"/>
      <path class="cls-19" d="M483.32,613.93c5.39-69.05,8.18-138.31,8.36-207.57.11-42.4-.86-85.46-13.27-126l-75.28-139.36-33.7-28.38c-9.15-8.75-22.39-10.36-34.41-8.2-22.05,3.97-42.05,15.72-57.24,32.85-17.94,20.22-30.9,45.93-38.84,68.87l-5.76,21.57c-7.25,39.61-9.88,80.59-11.19,119.65-2.65,78.95-.19,158.03,6.31,236.75,3.24,39.31,7.49,78.54,12.6,117.65,2.56,19.58,5.33,39.12,8.29,58.64,1.48,9.77,3.02,19.53,4.6,29.28.82,5.07,1.66,10.14,2.51,15.21.31,1.87.77,12.01,2.18,12.87,47.91,29.09,111.23,35.93,166.07,22.45l58.77-226.27Z"/>
      <path class="cls-23" d="M426.9,838.3c-51.32,12.92-106.98,7.84-155.11-14.16-4.95-2.26-10.54-5.78-10.57-11.22-.03-6.02,6.55-9.46,11.81-12.4,23.16-12.94,34.99-39.59,41.3-65.36,6.31-25.77,8.83-52.85,20.46-76.69,13.34-27.34,37.53-48.02,52.14-74.7,8.66-15.83,13.76-33.44,22.67-49.13,6.94-12.22,16.09-23.1,22.74-35.48,15.21-28.36,17.13-64.16,39.45-87.34,3.28-3.4,8.22-6.63,12.4-4.45,3,1.57,4.13,5.27,4.54,8.63,1.42,11.76,1.78,31.75,1.13,43.58-.75,13.52-1.52,18.65-1.07,32.18.68,20.29-1.16,46.91-2.85,67.14-1.57,18.83-3.56,31.04-3.79,49.93-.67,55.45-22.16,109.59-18.84,164.94"/>
      <path class="cls-20" d="M422.85,780.25c-2.25,27.05-2.65,54.38-1.98,80.68.19,7.28.59,14.8,3.77,21.35,4.96,10.2,15.39,16.82,25.99,20.86,68.9,26.27,141.64,31.95,212.51,17.93,14.48-2.87,29.46-4.13,38.71-15.64,8.98-11.19,10.43-29.56,10.4-43.91-.05-21.81,1.46-43.87-1.47-65.48-55.4,12.24-107.19,13.93-161.04,8.7-37.41-3.64-78.08-9.85-114.14-20.44"/>
      <path class="cls-9" d="M491.45,881.06c-3.36-15.42-6.15-25.71-9.02-41.23-.81-4.36,3.79-11.17,8.2-11.68,2.25-.26,4.24,1.32,6.13,2.56,4.97,3.25,11.18,4.55,17.04,3.59,8.93-1.47,17.73-9.96,25.93-6.13,4.22,1.97,7.24,8.36,11.41,10.44,4.7,2.35,10.29,1.44,15.45.48,21.18-3.93,42.35-7.86,63.53-11.8,8.22-1.53,17.59-2.8,24.19,2.34,6.58,5.12,7.65,14.48,8.2,22.81.55,8.34,1.1,16.68,1.66,25.02.27,4.01.5,8.21-1.11,11.89-.57,1.3-.05,3.72-.94,4.72-4.53,5.15-14.02,5.5-21.22,6.3-49.05,5.48-104.5,7.1-150.43-10.96"/>
      <path class="cls-7" d="M517.58,885.5c-5.25-1.58-10.98-3.51-13.8-8.22-1.39-2.31-1.89-5.04-2.36-7.69-1.3-7.28-2.6-14.57-3.9-21.85-.19-1.09-.38-2.23-.01-3.27.65-1.83,2.83-2.68,4.77-2.57s3.74.96,5.59,1.51c4.26,1.28,8.95,1.03,13.06-.68,2.72-1.13,5.21-2.89,8.1-3.49,5.15-1.06,10.19,1.77,14.99,3.92,9.32,4.19,19.66,6.11,29.87,5.54,17.48-.97,33.97-9.03,51.45-10.12,6.83-.42,14.56.66,18.76,6.07,1.54,1.98,2.45,4.37,3.19,6.77,1.98,6.4,2.9,13.14,2.71,19.84-.08,2.93-.4,5.92-1.66,8.56-1.28,2.67-3.47,4.82-5.92,6.48-9.51,6.45-21.91,5.71-33.38,6.39-8.15.48-16.4,1.79-24.39.15-3.84-.79-7.52-2.25-11.36-3.09-9.37-2.04-19.08-.28-28.61.68-9.54.96-19.78.94-27.93-4.11"/>
      <path class="cls-14" d="M382.73,124.24c-1.15,6.28-3.8,12.36-7.59,17.5-7.98,10.81-20.38,17.77-33.37,21.22-14.87,3.96-31.43,4-43.92,13-9.69,6.98-15.22,18.25-19.93,29.23-4.71,10.97-9.18,22.47-17.61,30.94-8.06,8.09-20.97,12.61-31.19,7.87.85-5.66,1.78-11.31,2.81-16.93l5.76-21.57c7.94-22.94,20.9-48.64,38.84-68.87,15.19-17.12,35.19-28.88,57.24-32.85,12.01-2.16,25.26-.55,34.41,8.2l14.55,12.26Z"/>
      <path class="cls-19" d="M227.09,568.79c-40.43.72-80.81.03-121.23-1.34-19.8-.67-41-2.08-56.62-14.25-26.66-20.78-24.43-60.85-21.66-94.54,4.52-55.14,3.61-110.72-2.71-165.68-3.03-26.35-7.13-54.08,3.03-78.58,9.9-23.87,34.1-41.57,59.94-42.17,25.83-.6,51.49,16.92,58.9,41.67,4.55,15.22,2.49,31.51,1.05,47.34-5.55,61.12-1.07,123.14,13.21,182.83l-28.72.8c28.43-1.56,61.18-.98,89.53,1.57"/>
      <path class="cls-14" d="M121.52,180.78c-2.74,3.59-6.41,6.47-10.64,8.08-6.82,2.59-14.48,2.06-21.44,4.3-11.15,3.58-19.08,13.97-22.63,25.13-3.54,11.17-3.36,23.14-2.84,34.84,1.6,36.02,5.89,73.28-6.33,107.2-1.6,4.44-3.56,8.92-6.97,12.19-4.94,4.73-12.27,6.21-19.11,5.41-.38-28.48-2.2-56.93-5.46-85.22-3.03-26.35-7.13-54.08,3.03-78.58,9.89-23.87,34.1-41.57,59.94-42.16,11.37-.26,22.7,2.98,32.45,8.81Z"/>
      <path class="cls-12" d="M695.92,724.52c12.88-2.22,25.42-6.42,37.04-12.42.46-.24.95-.52,1.12-1,.29-.84-.56-1.61-1.3-2.1-1.84-1.22-3.87-2.48-6.07-2.3-.91.07-1.78.4-2.64.72-9.04,3.41-18.1,7.46-25.03,14.2"/>
      <path class="cls-23" d="M223.95,558.6c-2.15-28.01-3.82-56.07-4.38-84.16-.16-8.01-.23-16.03-.22-24.05,0-3.86-5.99-3.87-6,0-.05,28.1,1.05,56.18,2.88,84.22.52,8,1.1,16,1.71,23.99.12,1.62,1.29,3,3,3,1.53,0,3.12-1.38,3-3h0Z"/>
      <path class="cls-21" d="M277.31,329.75c1.77-13.68,7.14-27.71,19.25-35.39,7.68-4.87,17.32-6.72,26.17-4.62,12.94,3.07,21.98,17.56,25.26,29.48,3.55,12.89,3.77,26.96-1.16,39.39-4.92,12.43-15.38,22.95-28.32,26.28-12.95,3.33-28.04-1.44-35.42-12.59l-2.41-2.91"/>
      <path class="cls-21" d="M457.22,363.37c-7.49,11.32-22.82,16.17-35.96,12.78-13.14-3.39-23.76-14.06-28.75-26.68-10.9-27.54.35-74.01,38.2-66.62,16.63,3.25,30.3,21.18,32.38,37.31"/>
      <path class="cls-5" d="M423.17,77.33c-1.44-4.79-2.88-9.57-4.32-14.36-.35-1.16-.68-2.46-.1-3.52.63-1.14,2.05-1.53,3.33-1.78,9.62-1.88,19.54-2.19,29.25-.91,1.58.21,3.35.57,4.24,1.89.81,1.21.62,2.81.39,4.25-.61,3.84-1.23,7.68-1.84,11.52"/>
      <path class="cls-1" d="M726.42,254.6c2.01,8.19-4.84,16.27-12.37,20.09-9.43,4.78-31.08,4.43-31.08,4.43l-196.76-2.73-44.91-.84c-8.66,0-15.52-.34-20.95-.87-11.66-1.14-21-10.15-22.72-21.74-3.85-29.56-7.7-59.13-11.55-88.69-2.12-16.31-4.13-33.54,2.33-48.67,4.16-9.74,11.5-17.64,19.52-24.38,4.03-3.4,8.41-6.32,12.52-9.6,6.24-4.99,13.58-8.55,21.4-11.05,3.17-1.01,7.42,2.45,10.71,1.76,3.33-.7,9.37-1.8,12.73-2.22,4.96-.61,8.03-2.92,12.83-3.06,2.49-.07,5.04.04,6.88-1.64,1.22-1.12.2-4.72.7-6.3,1.46-4.64.64-9.89,1.22-14.72.54-4.56,2.53-8.73,3.93-13.1,2.4-7.51,8.35-13.51,15.22-17.39,6.87-3.88,14.64-5.84,22.39-7.32,25.83-4.93,52.6-4.89,78.42.13,10.46,2.03,21.05,5.01,29.53,11.47,8.48,6.46,14.48,17.05,12.9,27.59-1.12,7.5-7.16,11.67-9.05,18.12,2.72,1.25,5.76-.09,9.85-.09,7.04,0,15.78.57,21.04.56,7.25-.02,17.74,2.48,24.79,4.13,7.05,1.66,12.76,2.44,17.09,8.25,6.32,8.48,4.17,20.18,3.95,30.75-.75,36.07.87,72.14,2.48,108.18.56,12.51.59,25.1,6.03,36.4.41.85.71,1.69.92,2.54Z"/>
      <path class="cls-1" d="M804.98,259.1l-183.05-14.47c-51.76-4.09-81.17-62.34-52.47-105.61.59-.89,1.2-1.78,1.84-2.68,11.59-16.28,30.08-26.27,49.99-27.84l183.69-14.52"/>
      <ellipse class="cls-1" cx="804.98" cy="176.54" rx="53.7" ry="82.56"/>
      <path class="cls-5" d="M521.04,275.43c-1.36,10.42-1.53,21.06,1.72,31.05,3.61,11.08,12.55,12.09,18.72,17.42,2.6,2.24,2.4,5.41,5.37,7.12,10.08,5.81,22.57,4.6,34.09,2.99,1.92-.27,4.01-.63,5.27-2.1,1.33-1.54,1.33-3.81,2.21-5.64,2.61-5.39,10.99-4.56,15.15-8.86,1.26-1.31,2.04-3,2.73-4.68,3.93-9.51,6.13-19.74,6.45-30.03.03-.96,0-2.03-.67-2.72-.65-.67-1.69-.75-2.63-.78-5.41-.18-10.83-.35-16.24-.53-22.97-.75-45.95-1.49-68.92-2.24"/>
      <path class="cls-5" d="M538.48,582.18c.88-84.91,2.13-173.36,3.01-258.27,15.21,2.38,32.52,3.12,47.85,1.64.67,88.1-1.76,175.94-3.67,264.02"/>
      <path class="cls-5" d="M527.5,663.3c-8.92,1.74-12.04,9.92-15.16,18.23-3.12,8.32-1.48,18.16,4.18,25.09,6.27,7.67,18.39,13.23,28.26,15.22,13.06,2.64,25.12,3.01,36.73-3.38,2.16-1.19,8.42-3.3,9.71-5.36,1.02-1.64-.19-6.1.24-7.97,2.05-8.99,1.84-16.85,3.88-25.85.4-1.78,2.78-5.13,2.42-6.91-.83-4.11-7.2-4.9-9.81-8.24-3.56-4.55-3.57-10.76-3.44-16.48.59-24.59,1.18-49.18,1.77-73.77-14.21,8.07-31.84,10.22-47.65,5.8-.75,15.9-1.5,31.81-2.24,47.71-.57,12.17-.81,22.33-1.38,34.5"/>
      <path class="cls-17" d="M534.81,632.28c-.07-.05-.14-.1-.21-.15-2.11-1.56-3.81-3.45-6.02-4.84-2.34-1.47-4.77-2.78-7.27-3.95-5.03-2.35-10.33-4.1-15.74-5.36-11-2.57-22.41-3.16-33.67-2.64-.45.02-.9.07-1.34.07-7.48.4-14.93,1.23-22.28,2.68-31.18,6.14-59.95,23.82-79.53,48.86-11.1,14.2-19.2,30.71-23.83,48.12-2.32,8.71-3.77,17.64-4.31,26.64-.53,8.85,2.31,12.07,4.47,19.75-.59-2.09,4.24-11.94,5.48-14.41,3.04-6.06,8.11-11.81,12.44-16.98,8.97-10.7,19.46-20.2,31.53-27.27,19.33-11.32,43.14-16.03,64.63-9.7,8.73,2.57,16.88,6.86,25.58,9.54,8.66,2.67,17.82,3.71,26.86,3.06.52-.04,2.74.08,2.95-.47.18-.47-1.08-1.89-1.33-2.32-.96-1.69-1.65-3.52-2.11-5.39-.97-3.93-.97-8.08-.29-12.05.76-4.49,2.35-8.9,5.04-12.57,2.69-3.68,4.49-7.72,8.91-8.84,2.27-.57,8.49,1.51,10.28,0,2.17-1.84.85-6.11,1.03-8.95.35-5.65.7-11.29,1.06-16.94.09-1.43.15-2.96-.6-4.18-.43-.69-1.07-1.21-1.73-1.7Z"/>
      <path class="cls-10" d="M508.53,694.06c-.66.35-1.93-.37-3.45-.9-2.35-.83-4.66-1.78-6.94-2.79-9.13-4.04-17.84-9.1-27.39-12.15-17.54-5.59-36.76-3.87-54.37,1.5-17.61,5.37-33.92,14.22-50.1,23.01,14.34-27.34,39.43-48.87,68.63-58.88,15.31-5.25,31.93-7.41,47.79-4.22,10.07,2.03,19.76,6.32,27.83,12.71,4.05,3.21,7.66,6.95,10.68,11.14.65.9,1.45,1.57.86,2.65-.46.83-2.46,1.64-3.24,2.26-2.1,1.65-3.94,3.62-5.45,5.83-.79,1.14-1.48,2.35-2.07,3.61-2.14,4.54-2.7,9.34-2.32,14.29.09,1.18-.09,1.75-.48,1.95Z"/>
      <path class="cls-17" d="M781.36,632.91l14.81,13.59c23.04,25.39,34.96,63.58,24.73,96.68-21.21-30.11-65.59-47.43-101.52-34.58-6.26,2.24-14.08,6.09-18.56,11.01-4.68,5.13-11.88,7.99-19.19,6.79-.59-.1.59-2.18.18-2.62-.42-.45-.52-1.1-.58-1.71-.53-5.5.59-11.01,1.71-16.42,1.4-6.78,2.81-13.59,5.26-20.06,2.14-5.66,5.04-10.99,7.99-16.27,9.98-17.85,20.81-35.56,35.22-50.22,2.73-2.78,5.55-6.69,9.79-6.28,4.12.39,9.04,3,12.85,4.55,9.74,3.94,18.96,9.19,27.31,15.57Z"/>
      <path class="cls-10" d="M681.64,723.57c.22-18.09,7.75-37.75,16.43-53.62,8.68-15.88,19.52-31.33,31.08-45.25,2.48-2.99,6.42-8.08,10.15-9.18,2.43-.72,5.23,1.99,7.73,2.42,9.28,1.59,20.32,5.9,27.31,12.21-21.79,4.8-42.81,19.69-57.31,36.66-14.5,16.97-24.59,37.28-32.53,58.14l-1.48,1.56h-2.47"/>
      <path class="cls-17" d="M719.06,635.64c20.37-26.03,46.88-47.34,76.94-61.14,10.89-5,22.53-8.41,33.97-11.91-29.33-22.18-69.09-28.67-104-17.28l-18.34,7.58c-46.55,25.57-85.9,63.21-106.44,111.12-4.65,10.86-8.64,21.35-9.5,33.29-.43,5.93-.17,11.91.87,17.77.51,2.88,1.23,5.7,2.06,8.5.6,2.04.23,6.04,2.04,7.29,1.16.8,2.65.91,4.06.99,13.24.72,26.53.38,39.75-.54,6.62-.46,13.24-1.07,19.84-1.77,4.68-.5,13.05.39,17.36-1.79,7.5-3.79,4.04-16.09,5.69-23.09,2.72-11.51,7.12-22.58,12.49-33.09,6.49-12.71,14.41-24.67,23.2-35.91Z"/>
      <path class="cls-9" d="M424.55,692.09c52.14,26.75,114.65,42.66,173.21,40.53-2.21-5.64-3.03-14.57-5.04-20.29-9.81,7.35-25.25,10.68-37.44,9.4-12.19-1.28-25.64-3.95-35.75-10.89-1.75-1.2-2.93-5.03-4.98-5.62-2.22-.63-3.31-.24-5.61-.16-26.45.91-51.64-21.15-77.07-13.84"/>
      <path class="cls-12" d="M430.63,789.52c17.76,4.8,35.69,8.94,53.76,12.36,18.26,3.45,36.65,6.18,55.13,8.13,18.29,1.93,36.66,3.08,55.05,3.39s36.97-.22,55.4-1.67c17.87-1.4,35.59-3.62,53.14-7.28,2.06-.43,4.12-.87,6.18-1.3l-3.8-2.89c-.34,19.94-.67,39.87-1,59.81-.03,1.74-.06,3.48-.09,5.22-.06,3.86,5.94,3.86,6,0,.26-15.71.52-31.41.78-47.12.1-5.97.2-11.94.3-17.91.04-2.05-1.94-3.29-3.8-2.89-8.03,1.7-16.08,3.47-24.2,4.69-9.1,1.37-18.27,2.34-27.44,3.16-18.23,1.63-36.55,2.37-54.85,2.26-18.3-.11-36.6-1.05-54.82-2.78-18.05-1.71-36.03-4.2-53.87-7.4-18.02-3.23-35.91-7.18-53.62-11.79-2.22-.58-4.44-1.17-6.66-1.77-3.73-1.01-5.32,4.78-1.6,5.79h0Z"/>
      <path class="cls-20" d="M402.11,698.81c-2.28,16.44-2.52,39-1.59,55.57.41,7.27,3.1,12.58,8.15,17.82,3.35,3.48,9.3,5.46,13.85,7.09,81.94,29.38,170.25,30.9,256.76,21.16,17.31-1.95,34.65-4.48,51.21-9.87,1.97-.64,4.03-1.39,5.32-3,1.34-1.67,1.61-3.94,1.79-6.08,2.03-23.08,4.36-45.87,1.67-68.88-1.93.69-5.16-.67-7.19,0-12.31,4.08-24.86,9.76-37.05,12.37-18.03,3.86-36.57,4.63-55,5.39-34.36,1.41-68.84,2.81-103.07-.46-34.23-3.27-68.08-18.23-99.19-30.4-5.26-2.06-9.13-4.89-14.62-6.23-5.49-1.34-11.87.82-16.07,4.6"/>
      <path class="cls-7" d="M464.1,85c1.93,0,1.93-3,0-3s-1.93,3,0,3h0Z"/>
      <path class="cls-7" d="M424.45,76.98c-1.37-4.55-2.74-9.09-4.1-13.64-.26-.87-.8-2.07-.52-2.99.27-.87,1.28-1.1,2.07-1.29,2.24-.52,4.56-.84,6.84-1.11,4.47-.53,8.97-.73,13.47-.6,2.33.07,4.65.23,6.97.47,1.52.16,4.01.12,5.13,1.37.74.83.54,2.15.4,3.15-.18,1.27-.4,2.53-.61,3.8-.42,2.64-.84,5.28-1.27,7.92-.27,1.67,2.28,2.38,2.55.7.43-2.72.87-5.44,1.3-8.16.36-2.26,1.2-4.96.61-7.25-.53-2.05-2.27-3.19-4.24-3.65-2.42-.56-5.01-.68-7.48-.85-5.45-.36-10.93-.23-16.36.38-2.57.29-5.14.65-7.67,1.18-1.99.42-3.98,1.38-4.36,3.58-.23,1.29.16,2.56.53,3.79.45,1.52.91,3.03,1.37,4.55l2.81,9.33c.49,1.63,3.04.93,2.55-.7h0Z"/>
      <path class="cls-7" d="M534.41,679.34c10.86,10.34,27.75,13.04,41.33,6.72,1.75-.81.23-3.4-1.51-2.59-12.32,5.73-27.87,3.1-37.69-6.25-1.4-1.33-3.52.79-2.12,2.12h0Z"/>
      <path class="cls-7" d="M597.31,668.39c-1.73-1.98-3.78-3.71-6.04-5.07-1.37-.82-2.85-1.45-4.29-2.15-.73-.36-1.62-.2-2.05.54-.39.66-.19,1.69.54,2.05,1.38.68,2.81,1.29,4.14,2.07,2.15,1.26,3.89,2.76,5.57,4.68.53.61,1.58.55,2.12,0,.61-.61.54-1.51,0-2.12h0Z"/>
      <path class="cls-7" d="M524.01,662.76c-15.74,8.35-20.22,31.17-9.36,45.1,5.15,6.6,12.88,10.69,20.72,13.21s16.61,3.7,25.03,3.54c11.83-.22,23.49-3.89,32.4-11.87,1.44-1.29-.69-3.41-2.12-2.12-13.64,12.21-33.75,13-50.73,8.64-7.48-1.92-14.99-5.1-20.56-10.59s-8.26-13.22-7.66-21.11c.69-9.08,5.64-17.88,13.8-22.21,1.71-.91.19-3.5-1.51-2.59h0Z"/>
      <path class="cls-7" d="M536.11,630.9c-14.31-11.76-32.8-16.32-51-17.1-19.52-.84-39.51,1.84-57.83,8.69-16.99,6.35-32.69,16.06-45.93,28.47-14.06,13.18-25.04,29.36-32.33,47.18-3.93,9.63-6.77,19.7-8.41,29.97-.85,5.32-1.66,10.85-1.57,16.25.07,4.01,1.15,7.71,2.54,11.44.74,2,1.46,4,2.04,6.05.53,1.86,3.32,1.08,2.89-.8.03.14,0-.26,0-.28.07-.39.16-.77.26-1.16.27-.99.63-1.96,1.01-2.92.83-2.12,1.78-4.19,2.76-6.24,2.49-5.21,5.65-9.86,9.31-14.32,8.73-10.63,18.13-20.59,29.58-28.35s23.84-12.9,37.2-15.04c6.51-1.04,13.17-1.27,19.73-.62s13.42,2.52,19.81,5c7.66,2.96,15.12,6.46,23.15,8.32,8.25,1.91,16.79,2.42,25.21,1.49,1.9-.21,1.92-3.21,0-3-7.68.84-15.47.52-23.03-1.08s-14.46-4.57-21.52-7.43-13.52-4.97-20.73-5.95c-6.67-.91-13.43-.92-20.1-.09-13.78,1.71-27.02,6.7-38.72,14.15s-21.72,17.38-30.73,28.1c-4.49,5.34-8.62,10.77-11.65,17.08-1.13,2.36-2.22,4.75-3.17,7.19-.69,1.76-1.72,4.02-1.28,5.96l2.89-.8c-1.08-3.77-2.77-7.36-3.74-11.16-1.17-4.58-.68-9.32-.2-13.97,1.06-10.23,3.35-20.34,6.72-30.05,6.2-17.89,16.22-34.42,29.37-48.06,12.28-12.74,27.1-22.94,43.32-29.98,17.54-7.61,36.56-10.97,55.62-11.15,17.62-.17,36.05,2.67,51.07,12.45,1.84,1.2,3.61,2.5,5.31,3.89,1.48,1.22,3.61-.89,2.12-2.12h0Z"/>
      <g>
        <path class="cls-7" d="M785.23,711.79c-11.04-5.92-23.4-9.3-35.92-9.8s-25.04,1.95-36.12,7.68c-6.31,3.26-12.03,7.6-16.89,12.78-1.32,1.41.8,3.53,2.12,2.12,8.3-8.84,19.07-14.84,30.83-17.67s23.88-2.55,35.46.25c6.62,1.6,13,4.02,19,7.24,1.7.91,3.22-1.68,1.51-2.59h0Z"/>
        <path class="cls-7" d="M795.79,648.21c9.01,9.69,16.1,21.17,20.76,33.55s6.99,25.71,6.49,38.98c-.28,7.47-1.49,14.87-3.59,22.05l2.74-.36c-6.69-9.17-15.03-16.95-24.45-23.26-1.61-1.08-3.11,1.52-1.51,2.59,8.97,6.01,17,13.45,23.37,22.19.74,1.01,2.36.96,2.74-.36,3.85-13.18,4.65-27.07,2.74-40.66s-6.53-26.56-13.39-38.29c-3.89-6.67-8.53-12.9-13.78-18.55-1.32-1.42-3.43.71-2.12,2.12h0Z"/>
        <path class="cls-7" d="M739.78,615.32c14.86,3.81,28.86,10.47,41.18,19.61,1.55,1.15,3.05-1.45,1.51-2.59-12.52-9.27-26.82-16.03-41.9-19.91-1.87-.48-2.67,2.41-.8,2.89h0Z"/>
      </g>
      <g>
        <path class="cls-7" d="M491.81,795.7c3.06-8.42,6.12-16.85,9.19-25.27.6-1.66,1.53-3.47,1.17-5.28-.33-1.69-1.57-2.97-2.73-4.17-2.84-2.94-5.54-5.99-8.1-9.17-2.92-3.64-5.63-7.44-8.15-11.37-.78-1.21-2.73-.09-1.94,1.14,4.17,6.5,8.89,12.66,14.12,18.36,1.21,1.32,2.59,2.56,3.71,3.96.62.78,1.04,1.6.87,2.61s-.61,1.93-.95,2.86c-1.45,3.98-2.89,7.95-4.34,11.93-1.67,4.6-3.35,9.2-5.02,13.8-.5,1.36,1.68,1.95,2.17.6h0Z"/>
        <path class="cls-7" d="M500.63,762.2c6.48-4.02,12.96-8.03,19.44-12.05,1.23-.76.1-2.71-1.14-1.94-6.48,4.02-12.96,8.03-19.44,12.05-1.23.76-.1,2.71,1.14,1.94h0Z"/>
      </g>
      <path class="cls-21" d="M507.85,894.7c4.05-9.06,8.83-21.49,13.68-30.15,8.92,11.05,15.07,24.03,21.56,36.66"/>
      <path class="cls-21" d="M577.48,839.89c5.69,10.29,11.38,20.59,17.06,30.88,5.3-11.5,10.94-26.62,14.32-38.82"/>
      <path class="cls-7" d="M240.39,206.54c3.68-10.59,8.11-20.92,13.28-30.87,5.43-10.44,11.67-20.51,18.92-29.8s15.31-17.72,24.63-24.73c9.01-6.78,19.1-12.15,30-15.15,11.88-3.27,25.48-3.96,36.16,3.18,1.35.9,2.6,1.93,3.78,3.04,1.4,1.33,3.53-.79,2.12-2.12-9.92-9.37-24.15-10.89-37.05-8.36-11.5,2.25-22.4,7.11-32.09,13.65-9.94,6.7-18.69,15.05-26.36,24.24-7.8,9.35-14.55,19.54-20.4,30.21-5.64,10.28-10.47,21.01-14.51,32.01-.48,1.3-.94,2.6-1.39,3.9-.63,1.83,2.26,2.61,2.89.8h0Z"/>
      <path class="cls-7" d="M417.8,838.99c-44.27,10.77-91.6,7.34-133.58-10.56-5.15-2.2-10.22-4.6-15.17-7.21-2.49-1.31-4.95-2.67-7.38-4.08-1.96-1.14-3.45-1.53-3.92-3.78-.68-3.18-.7-6.47-1.11-9.69-.73-5.7-1.87-11.37-2.79-17.04-4.09-25.27-7.86-50.59-11.27-75.97-6.98-51.83-12.46-103.87-16.11-156.05-3.64-51.99-5.48-104.11-5.19-156.22.28-51.27,2.51-102.42,10.47-153.13.98-6.26,2.05-12.5,3.18-18.74.34-1.89-2.55-2.7-2.89-.8-9.29,51.02-12.78,102.55-13.57,154.35-.81,53.54.65,107.1,4.06,160.53,3.39,53.18,8.71,106.23,15.6,159.07,3.36,25.79,7.09,51.53,11.15,77.22,1.7,10.75,3.76,21.47,4.89,32.29.25,2.38.18,6.1,1.89,8,1.38,1.54,4.14,2.57,5.93,3.59,2.6,1.47,5.23,2.88,7.89,4.24,40.51,20.66,87.26,27.6,132.08,20.27,5.59-.91,11.14-2.06,16.64-3.4,1.88-.46,1.08-3.35-.8-2.89h0Z"/>
      <path class="cls-7" d="M295.71,622.54c.46,22.64.39,45.29-.22,67.93-.6,22.64-1.74,45.26-3.4,67.85-.94,12.69-2.04,25.37-3.31,38.04-.19,1.92,2.81,1.91,3,0,2.26-22.53,3.99-45.12,5.19-67.73,1.2-22.61,1.87-45.26,2.01-67.9.08-12.73-.01-25.46-.27-38.18-.04-1.93-3.04-1.93-3,0h0Z"/>
      <path class="cls-7" d="M221.47,321.54c-12.11-6.77-25.53-10.9-39.35-12.15-1.92-.17-1.91,2.83,0,3,13.27,1.2,26.21,5.24,37.84,11.74,1.69.94,3.2-1.65,1.51-2.59h0Z"/>
      <path class="cls-7" d="M289.51,124.99c-5.2-17.47-10.4-34.94-15.6-52.4-.55-1.85-3.45-1.06-2.89.8,5.2,17.47,10.4,34.94,15.6,52.4.55,1.85,3.45,1.06,2.89-.8h0Z"/>
      <path class="cls-7" d="M589.78,155.69c-3.63,12.55-4.24,25.78-1.4,38.55,2.71,12.21,8.41,23.62,15.81,33.65,4.39,5.94,9.34,11.44,14.7,16.51,1.4,1.33,3.53-.79,2.12-2.12-17.85-16.9-31.47-39.32-31.45-64.53,0-7.21,1.12-14.34,3.12-21.25.54-1.86-2.36-2.65-2.89-.8h0Z"/>
      <path class="cls-7" d="M620.23,107.44c-10.05,9.09-18.13,20.29-24.18,32.39-.86,1.72,1.72,3.24,2.59,1.51,5.95-11.89,13.83-22.84,23.71-31.78,1.43-1.3-.69-3.41-2.12-2.12h0Z"/>
      <path class="cls-7" d="M630.63,209.04c6.18,14.85,16.05,27.75,27.52,38.92,1.4,1.37,3.56-.78,2.15-2.15-11.07-10.77-20.77-23.23-26.74-37.58-.32-.76-1.01-1.29-1.87-1.06-.72.19-1.38,1.11-1.06,1.87h0Z"/>
      <path class="cls-7" d="M658.15,105.75c-18.2,17.86-31.86,42.2-33.56,67.98-.49,7.43.12,14.9,1.84,22.15.45,1.9,3.39,1.1,2.93-.81-5.95-25.06,2.9-51.06,17.5-71.49,4.01-5.61,8.52-10.85,13.44-15.68,1.4-1.37-.75-3.53-2.15-2.15h0Z"/>
      <path class="cls-7" d="M671.71,145.51c-5.16,13.96-7.04,29.07-5.13,43.85,1.94,14.96,7.6,29.08,16,41.58,4.9,7.29,10.59,14.03,16.73,20.3,1.4,1.43,3.61-.77,2.2-2.2-10.46-10.67-19.72-22.84-25.55-36.69-5.57-13.23-7.91-27.71-6.7-42.02.69-8.21,2.59-16.28,5.45-24,.7-1.88-2.31-2.69-3-.83h0Z"/>
      <path class="cls-7" d="M699.32,102.46c-9.29,9.05-16.71,19.91-22.55,31.46-.9,1.78,1.78,3.36,2.69,1.57,5.72-11.33,12.95-21.95,22.06-30.83,1.44-1.4-.76-3.6-2.2-2.2h0Z"/>
      <path class="cls-7" d="M722.3,231.67c5.1,8.14,11.12,15.68,17.71,22.67,1.41,1.49,3.65-.76,2.25-2.25-6.41-6.8-12.24-14.11-17.21-22.03-1.08-1.73-3.83-.14-2.74,1.6h0Z"/>
      <path class="cls-7" d="M740.01,99.36c-11.46,11.89-20.43,26.11-26.22,41.57s-8.3,32.09-6.55,48.44c1,9.39,3.39,18.51,7.11,27.19.34.79,1.49.96,2.17.57.82-.47.91-1.39.57-2.17-6.34-14.77-8.36-31.07-6.6-47s7.25-31.24,15.39-44.91c4.62-7.75,10.11-14.95,16.37-21.44,1.42-1.47-.82-3.72-2.25-2.25h0Z"/>
      <path class="cls-7" d="M857.18,176.54c-.03,16.04-2.92,32.33-9.67,46.96-5.37,11.63-13.37,22.8-24.71,29.23-9.81,5.56-21.59,6.45-31.96,1.85-11.64-5.16-20.21-15.44-26.09-26.46-7.42-13.89-11.06-29.71-11.82-45.37-.79-16.31,1.45-32.91,7.39-48.16,4.77-12.24,12.26-24.27,23.17-31.93,9.36-6.56,20.91-9.04,31.95-5.56,11.74,3.7,20.86,13.09,27.19,23.33,8.08,13.08,12.44,28.36,13.94,43.58.41,4.16.61,8.33.61,12.51,0,1.93,3,1.93,3,0-.03-16.66-3.12-33.47-10.15-48.63-5.61-12.1-14.12-23.67-25.96-30.28-10.59-5.91-23.08-6.73-34.25-1.94-12.14,5.21-21.25,15.9-27.42,27.3-7.77,14.35-11.61,30.7-12.45,46.93-.87,16.91,1.46,34.26,7.74,50.04,5.1,12.82,12.92,25.14,24.4,33.13,9.88,6.88,22.27,9.44,33.89,5.86,12.41-3.82,22.11-13.47,28.89-24.23,8.49-13.49,13-29.29,14.64-45.06.45-4.36.67-8.73.67-13.11,0-1.93-3-1.93-3,0Z"/>
      <ellipse class="cls-16" cx="803.69" cy="176.54" rx="40.65" ry="68.04"/>
      <path class="cls-2" d="M844.34,175.09c0,37.57-16.91,69.49-39.35,69.49-16.78,0-19.07-4.44-31.88-25.22l71.26-59.18c.5,4.21-.03,10.46-.03,14.91Z"/>
      <path class="cls-7" d="M932.34,910.85c-4.56,24.05-26.05,39.61-46.3,50.52-26.05,14.04-54.56,23.07-83.32,29.65-61.29,14.03-124.59,19.14-187.36,19.65-64.65.53-129.37-3.79-193.35-13.08-61.49-8.93-122.61-22.1-181.19-43.06-27.06-9.68-53.84-20.75-78.31-35.97-21.94-13.65-47.83-32.57-54.88-58.9-1.78-6.65-1.96-13.45-.61-20.2.38-1.89-2.51-2.69-2.89-.8-5.23,26.13,12.66,48.56,31.54,64.3,22.24,18.54,48.18,32.02,74.79,43.1,58.72,24.45,121.07,39.68,183.67,50.18,65.35,10.96,131.55,16.71,197.81,17.4s130.61-3.49,194.63-16.13c29.65-5.85,59.07-13.81,86.62-26.43,21.29-9.75,44.82-22.7,56.5-43.96,2.66-4.85,4.52-10.05,5.55-15.48.36-1.89-2.53-2.7-2.89-.8h0Z"/>
      <path class="cls-7" d="M561.99,308.95c1.93,0,1.93-3,0-3s-1.93,3,0,3h0Z"/>
      <path class="cls-7" d="M709.92,798.17c.04,17.61.08,35.22.12,52.83.02,8.87.22,17.77-.28,26.64-.41,7.28-1.3,14.85-4.59,21.46-3.47,6.97-9.49,11.16-16.47,14.22-7.55,3.32-15.58,5.5-23.65,7.12-15.97,3.21-32.38,4.75-48.63,5.64-32.43,1.78-65.12-.03-97.11-5.71-15.98-2.84-31.79-6.64-47.28-11.5-7.66-2.4-15.24-5.06-22.72-7.99-6.33-2.48-12.86-5.21-18.09-9.67-2.44-2.08-4.55-4.51-6.02-7.37-1.88-3.63-2.46-7.74-2.65-11.78-.41-8.55-.15-17.18,0-25.74.33-17.67,1.13-35.32,1.56-52.99.1-4.36.18-8.72.23-13.09.02-1.93-2.98-1.93-3,0-.2,18.08-1,36.14-1.51,54.21-.26,9.09-.44,18.18-.43,27.27,0,8-.54,16.74,3.4,24.01,3.23,5.96,8.91,10.15,14.8,13.24,6.67,3.5,13.89,6.04,20.97,8.56,15.57,5.53,31.52,9.95,47.69,13.35,32.58,6.85,66.03,9.64,99.3,8.65,16.45-.49,32.88-1.89,49.16-4.3,8.49-1.26,16.95-2.88,25.15-5.46,7.48-2.35,15.43-5.32,21.39-10.59,11.88-10.5,11.74-28.86,11.8-43.39.07-17.98-.07-35.96-.12-53.94-.01-4.56-.02-9.13-.03-13.69,0-1.93-3-1.93-3,0h0Z"/>
      <path class="cls-7" d="M786.61,684.76c-10.46-10.73-24.48-17.24-39.39-18.56-15.05-1.33-30.26,2.53-43.3,10.03-3.5,2.02-6.84,4.3-10.03,6.8-2.18,1.71-4.22,3.57-6.42,5.25-1.14.87-.02,2.82,1.14,1.94,4.43-3.38,8.53-7.09,13.25-10.11,5.88-3.75,12.23-6.75,18.9-8.79,14.52-4.45,30.57-4.33,44.66,1.62,7.36,3.11,14.02,7.71,19.6,13.42,1.01,1.04,2.6-.55,1.59-1.59h0Z"/>
      <path class="cls-7" d="M475.77,279.29c6.17,20.23,9.55,41.17,11.31,62.22,1.75,20.97,1.97,42.03,1.91,63.07-.05,22.23-.38,44.47-.97,66.69-.59,22.12-1.45,44.23-2.57,66.33-1.13,22.21-2.52,44.41-4.19,66.58-.21,2.76-.42,5.52-.63,8.27-.15,1.93,2.85,1.92,3,0,1.73-22.17,3.19-44.36,4.39-66.57,1.2-22.32,2.13-44.65,2.79-66.99.65-22.23,1.04-44.47,1.16-66.71.11-21.26.08-42.55-1.36-63.77-1.43-21.01-4.26-42.01-9.76-62.37-.68-2.53-1.41-5.05-2.18-7.55-.56-1.84-3.46-1.06-2.89.8h0Z"/>
      <path class="cls-7" d="M728.75,707.39c2.24,1.57,4.48,3.15,6.73,4.72l.95.67c.64.45,1.7.14,2.05-.54.41-.77.15-1.57-.54-2.05-2.24-1.57-4.48-3.15-6.73-4.72-.32-.22-.63-.45-.95-.67-.64-.45-1.7-.14-2.05.54-.41.77-.15,1.57.54,2.05h0Z"/>
      <path class="cls-7" d="M192.14,442.93c0-6.28,0-12.56,0-18.85,0-1.93-3-1.93-3,0,0,6.28,0,12.56,0,18.85,0,1.93,3,1.93,3,0h0Z"/>
      <path class="cls-7" d="M265.18,274.07c6.7-13.73,17.11-25.56,29.91-33.92,3.64-2.38,7.46-4.47,11.43-6.27,1.76-.8.23-3.38-1.51-2.59-14.32,6.5-26.73,16.96-35.72,29.85-2.53,3.62-4.76,7.44-6.69,11.41-.84,1.73,1.74,3.25,2.59,1.51h0Z"/>
      <path class="cls-7" d="M455.93,362.61c-4.58,6.83-12.11,11.09-20.1,12.56s-16.75-.27-23.93-4.6c-12.91-7.79-20.08-21.96-21.52-36.64-1.18-11.96.65-24.88,6.92-35.29,2.84-4.72,6.7-8.85,11.54-11.55,5.27-2.94,11.31-3.88,17.28-3.38,8.08.69,15.29,4.24,21.17,9.77s10.74,13.1,13.09,21.11c.54,1.82.96,3.69,1.22,5.58.11.81.61,1.49,1.5,1.5.73,0,1.61-.7,1.5-1.5-1.17-8.77-5.08-16.97-10.6-23.84s-12.75-12.36-21.2-14.54c-6.76-1.74-14.27-1.76-20.88.62-5.74,2.07-10.65,5.83-14.39,10.63-7.98,10.24-10.88,23.98-10.43,36.75.55,15.49,6.55,30.72,19.04,40.44,7.02,5.47,15.66,8.73,24.62,8.48s17.45-3.55,23.73-9.68c1.52-1.48,2.86-3.13,4.04-4.89,1.08-1.61-1.52-3.11-2.59-1.51h0Z"/>
      <ellipse class="cls-7" cx="333.01" cy="336.06" rx="15.36" ry="20.77"/>
      <ellipse class="cls-7" cx="447.51" cy="336.06" rx="15.36" ry="20.77"/>
      <circle class="cls-21" cx="318.24" cy="328.18" r="12.32"/>
      <circle class="cls-21" cx="432.74" cy="328.18" r="12.32"/>
      <path class="cls-7" d="M491.45,351.85h49.75c1.93,0,1.93-3,0-3h-49.75c-1.93,0-1.93,3,0,3h0Z"/>
      <path class="cls-7" d="M492.12,491.69c14.99,1.46,30.02,2.44,45.07,2.94,1.93.06,1.93-2.94,0-3-15.05-.5-30.08-1.48-45.07-2.94-1.92-.19-1.91,2.81,0,3h0Z"/>
      <path class="cls-7" d="M594.66,495.54c17.48.12,35.17.95,52.56-1.31,8.24-1.07,16.57-3.22,22.43-9.51,5.79-6.23,8.94-14.8,11.4-22.8,5.36-17.46,6.31-35.92,6.44-54.06.14-19.79-.13-39.58-.22-59.37-.09-20.12-.19-40.24-.28-60.36-.01-2.49-.02-4.99-.03-7.48,0-1.93-3.01-1.93-3,0,.09,19.79.18,39.57.28,59.36.09,19.66.21,39.33.27,58.99.06,17.86-.11,35.95-4.05,53.46-1.89,8.4-4.5,17.02-8.84,24.5-2.06,3.55-4.67,6.83-8.12,9.11s-7.23,3.49-11.16,4.32c-7.87,1.65-16.07,2-24.08,2.22-8.76.24-17.52.11-26.27.02-2.44-.02-4.88-.05-7.32-.07-1.93-.01-1.93,2.99,0,3h0Z"/>
      <path class="cls-7" d="M499.18,462.06c12.56.14,25.12.28,37.68.42,1.93.02,1.93-2.98,0-3-12.56-.14-25.12-.28-37.68-.42-1.93-.02-1.93,2.98,0,3h0Z"/>
      <path class="cls-7" d="M590.02,462.58c16.01,1.63,32.31.84,48.06-2.49,6.56-1.38,13.27-3.64,17.67-9,3.98-4.85,5.62-10.98,6.4-17.1.9-7.06.78-14.25.97-21.35.21-7.7.41-15.39.6-23.09.34-14.32.59-28.65.57-42.98-.02-15.08-.36-30.15-1-45.22-.09-2.05-.18-4.1-.28-6.15-.09-1.92-3.09-1.93-3,0,1.39,29.03,1.5,58.07.88,87.13-.32,14.82-.52,29.67-1.16,44.49-.26,5.98-.82,12.28-3.41,17.77-1.23,2.61-2.9,4.95-5.09,6.83-2.65,2.27-5.95,3.64-9.26,4.61-8.18,2.4-16.93,3.43-25.41,4s-17.72.43-26.54-.47c-1.92-.2-1.91,2.81,0,3h0Z"/>
      <path class="cls-7" d="M499.18,406.86c10.63,0,21.26,0,31.89,0,1.93,0,1.93-3,0-3-10.63,0-21.26,0-31.89,0-1.93,0-1.93,3,0,3h0Z"/>
      <path class="cls-7" d="M606.49,405.71c6.84.21,14.76.03,20.27-4.61,3.1-2.61,4.5-6.41,4.97-10.34.56-4.69.31-9.51.37-14.23.2-17.2.44-34.41.66-51.61.14-10.49.26-20.98.38-31.48.02-1.93-2.98-1.93-3,0-.19,17.12-.41,34.23-.64,51.35-.11,8.36-.22,16.72-.32,25.08-.06,4.63-.11,9.26-.16,13.88-.05,4.19.19,8.85-2.07,12.56-4.05,6.66-13.64,6.59-20.46,6.38-1.93-.06-1.93,2.94,0,3h0Z"/>
      <path class="cls-7" d="M639.32,494.14c-.78,7.07-.94,14.19-.47,21.3.13,1.92,3.13,1.93,3,0-.46-7.1-.31-14.22.47-21.3.09-.81-.75-1.49-1.5-1.5-.88,0-1.41.7-1.5,1.5h0Z"/>
      <path class="cls-7" d="M686.12,319.14c6.23.94,12.51,1.19,18.79.67,1.91-.16,1.93-3.16,0-3-5.99.5-12.04.34-17.99-.56-.8-.12-1.61.2-1.85,1.05-.19.71.24,1.72,1.05,1.85h0Z"/>
      <path class="cls-7" d="M509.38,350.35v-15.46c0-1.93-3-1.93-3,0v15.46c0,1.93,3,1.93,3,0h0Z"/>
      <path class="cls-7" d="M517.67,494.22c-.52,5.49-1.04,10.97-1.56,16.46-.08.81.74,1.5,1.5,1.5.87,0,1.42-.69,1.5-1.5.52-5.49,1.04-10.97,1.56-16.46.08-.81-.74-1.5-1.5-1.5-.87,0-1.42.69-1.5,1.5h0Z"/>
      <path class="cls-7" d="M357.29,717.35c12.06-20.09,29.77-36.55,50.48-47.45s45.31-16.7,68.82-13.21c13.22,1.96,26.05,6.95,36.32,15.65,1.1.93,2.7-.65,1.59-1.59-18.98-16.09-45.35-19.72-69.29-15.86-23.62,3.81-45.99,14.81-63.98,30.49-10.16,8.85-18.94,19.27-25.88,30.83-.75,1.24,1.2,2.38,1.94,1.14h0Z"/>
      <path class="cls-7" d="M484.91,656.91c1.7-5.82,3.4-11.64,5.1-17.45.41-1.39-1.76-1.99-2.17-.6-1.7,5.82-3.4,11.64-5.1,17.45-.41,1.39,1.76,1.99,2.17.6h0Z"/>
      <path class="cls-7" d="M430.38,661.14c3.83,4.22,7.66,8.44,11.48,12.66.97,1.07,2.56-.52,1.59-1.59-3.83-4.22-7.66-8.44-11.48-12.66-.97-1.07-2.56.52-1.59,1.59h0Z"/>
      <path class="cls-7" d="M400.36,673.48c-.32-5.23-.09-10.49.73-15.66.1-.6-.16-1.2-.79-1.38-.53-.15-1.29.19-1.38.79-.85,5.38-1.14,10.82-.81,16.26.09,1.44,2.34,1.45,2.25,0h0Z"/>
      <path class="cls-7" d="M575.86,840c5.69,10.29,11.38,20.59,17.06,30.88.51.92,2.11,1.04,2.59,0,5.8-12.63,10.74-25.78,14.47-39.18.52-1.86-2.37-2.66-2.89-.8-3.66,13.14-8.48,26.06-14.17,38.46h2.59c-5.69-10.29-11.38-20.59-17.06-30.88-.93-1.69-3.53-.18-2.59,1.51h0Z"/>
      <path class="cls-11" d="M609.21,831.65c-4.21,10.6-6.92,21.7-10.73,32.45-.46,1.31-.94,2.62-1.44,3.91-.34.88-.68,2.33-1.47,2.94s-1.52-.55-1.91-1.15c-.77-1.17-1.46-2.41-2.17-3.61-2.88-4.84-5.7-9.72-8.44-14.63-2.35-4.21-4.59-8.47-6.95-12.67-.95-1.68-3.54-.17-2.59,1.51,5.35,9.54,10.51,19.16,16.14,28.55,1.17,1.95,2.4,4.75,4.92,5.17s3.95-1.77,4.77-3.78c2.36-5.74,4.18-11.71,6-17.64,2.09-6.81,4.15-13.63,6.78-20.25.71-1.79-2.19-2.57-2.89-.8h0Z"/>
      <path class="cls-11" d="M508.19,892.47c1.84-4.92,3.65-9.85,5.52-14.76,1.65-4.34,3.46-8.73,6.29-12.45.34-.44.69-.88,1.07-1.29s.4-.6.87-.34c.89.5,1.55,1.95,2.1,2.76,1.39,2.01,2.74,4.04,4.06,6.1,2.73,4.26,5.31,8.62,7.73,13.07,2.73,5.02,5.25,10.14,7.58,15.36.79,1.76,3.37.24,2.59-1.51-4.55-10.19-9.86-20.03-15.93-29.39-1.53-2.36-3.09-4.73-4.75-7.01-1.27-1.73-3.17-3.41-5.37-2.03-.94.59-1.65,1.61-2.31,2.47-.81,1.06-1.55,2.16-2.22,3.31-1.3,2.21-2.35,4.56-3.33,6.93-2.44,5.92-4.55,12-6.79,18-.68,1.81,2.22,2.59,2.89.8h0Z"/>
      <path class="cls-7" d="M509.14,893.62c4.27-9.56,8.57-19.15,13.68-28.31l-2.36.3c8.83,10.96,16.51,22.82,22.96,35.34.88,1.72,3.47.2,2.59-1.51-6.57-12.75-14.43-24.78-23.43-35.94-.61-.76-1.92-.47-2.36.3-5.11,9.16-9.4,18.74-13.68,28.31-.78,1.75,1.8,3.28,2.59,1.51h0Z"/>
      <path class="cls-12" d="M470.32,826.62c-4.32,14.19-1.34,29.61,3.12,43.75,2.18,6.9,5.65,14.61,12.5,16.37.43.11.9.19,1.28-.02.54-.29,2.86,1.83,2.95,1.2,1.51-10.7-1.86-24.63-5.63-34.73-.98-2.64-2.15-5.22-2.76-7.97-1.21-5.4.9-9.67,3.61-14.46.36-.64,1.88-2.96,2.01-3.69.54-2.87-7.28-4.53-10.02-5.28"/>
      <path class="cls-7" d="M488.51,826.38c-6.8,3.25-8.47,11.52-7.44,18.32.67,4.42,2.29,8.62,3.56,12.89,1.3,4.4,2.36,8.87,3.15,13.39.91,5.17,1.46,10.39,1.69,15.63.08,1.92,3.08,1.93,3,0-.38-8.67-1.63-17.3-3.81-25.7-1.07-4.15-2.52-8.18-3.66-12.31-1.02-3.67-1.75-7.59-.92-11.38.76-3.49,2.65-6.67,5.95-8.25,1.74-.83.22-3.42-1.51-2.59h0Z"/>
      <path class="cls-7" d="M477.62,877.06c-3.16-8.23-5.95-16.67-7.23-25.42-.63-4.3-.85-8.68-.61-13.02.21-3.75.49-8,2.18-11.43.64-1.3,1.5-2.59,2.81-3.29,1.87-1,3.99-.27,5.83.45,3.52,1.38,6.83,3.27,10.13,5.09,6.21,3.43,12.9,7.24,20.22,7.14,3.95-.05,7.56-1.41,11.02-3.2s7.11-4.12,11.2-4.7c3.81-.55,6.79.87,9.21,3.75,2.02,2.41,3.59,5.22,6.08,7.2,3.15,2.5,7,2.66,10.85,2.43,4.33-.26,8.64-.77,12.93-1.45,8.63-1.36,17.13-3.43,25.61-5.56,8.41-2.11,16.81-4.29,25.34-5.91,4.3-.82,8.63-1.49,12.99-1.92,4.09-.41,8.52-.93,12.49.44,6.4,2.22,9.07,9.34,10.46,15.37,1.95,8.45,2.73,17.29,3.34,25.93.33,4.63.53,9.28.59,13.92.05,3.63.62,8.31-2.67,10.78-2.86,2.14-6.91,2.58-10.31,3.26-4.3.86-8.61,1.64-12.94,2.32-17.25,2.71-34.74,3.94-52.21,3.74-17.54-.2-35.07-1.85-52.34-4.95-8.55-1.54-17.03-3.42-25.42-5.66-4.31-1.15-8.59-2.39-12.84-3.72-3.67-1.15-7.52-2.1-10.71-4.32-2.71-1.89-4.82-4.58-6.14-7.6-.77-1.76-3.36-.24-2.59,1.51,1.41,3.22,3.69,6.01,6.48,8.13,3.22,2.45,7.04,3.54,10.85,4.75,8.72,2.77,17.55,5.16,26.48,7.15,17.68,3.96,35.71,6.4,53.8,7.32s36.47.28,54.55-1.94c8.98-1.1,17.92-2.57,26.77-4.45,3.41-.72,7.22-1.63,9.67-4.32,2.87-3.15,2.64-7.54,2.59-11.51-.12-9.62-.8-19.23-2.04-28.76-.97-7.42-1.78-15.45-5.59-22.07-1.63-2.84-3.94-5.38-6.88-6.88-3.84-1.97-8.19-2.01-12.4-1.7-8.99.66-17.88,2.36-26.65,4.39-17.59,4.08-35.04,9.63-53.18,10.71-2.13.13-4.35.26-6.42-.38-1.64-.51-2.94-1.58-4.08-2.84-2.19-2.42-3.75-5.39-6.26-7.52-3.07-2.59-6.94-3.18-10.81-2.42-4.16.81-7.77,3.09-11.48,5s-7.26,2.98-11.34,2.62c-3.68-.33-7.23-1.76-10.52-3.38-3.54-1.73-6.92-3.75-10.4-5.59-1.75-.92-3.53-1.8-5.35-2.57-2.01-.85-4.16-1.72-6.38-1.55-8.15.62-9.11,11.85-9.47,17.97-.53,8.99,1,17.98,3.51,26.58,1.27,4.36,2.8,8.65,4.43,12.89.69,1.78,3.59,1.01,2.89-.8Z"/>
      <path class="cls-18" d="M420.23,708.53c4.83,3.52,10.58,5.76,16.51,6.45-3.7.08-7.49,1.04-10.37,3.36-4.72,3.8-6.11,10.38-6.35,16.44s.3,12.31-1.77,18.01c-.25.68-.54,1.35-1.01,1.9-6.29,7.3-9.4-7.91-9.18-11.24.64-9.55,1.29-19.06.51-28.63-.22-2.7-.53-5.48.25-8.08s3.01-4.98,5.72-4.98c5.02,0,6.77,7.05,11.22,9.36,3.95,2.06,10.05.43,12.18,4.35,1.21,2.23.16,5.08-1.54,6.97s-3.96,3.17-5.79,4.94c-3.22,3.11-4.92,7.74-4.48,12.19.27,2.75,1.3,5.39,1.51,8.14.33,4.37-1.78,9.08-5.74,10.95-4.84,2.29-11-.4-13.8-4.97-5.66-9.24.73-17.13,2.48-26.14"/>
      <path class="cls-12" d="M555.85,804.51c17.57.8,35.15,1.32,52.74,1.18,16.97-.13,33.97-.83,50.86-2.59,15.86-1.66,31.61-4.22,47.25-7.33,4.1-.82,8.19-1.67,12.28-2.55,2.06-.44,4.12-.89,6.18-1.35s4.29-.78,6.24-1.71c2.72-1.29,4.4-3.55,5.05-6.42.59-2.6.89-5.27,1.16-7.92.68-6.6.65-13.3.76-19.92.14-7.71.21-15.43.45-23.14.07-2.09.15-4.18.23-6.27.07-1.62-1.43-3-3-3-1.68,0-2.93,1.37-3,3-.66,15.37-.33,30.77-1.18,46.13-.05.85-.12,1.7-.21,2.55-.06.59-.12,1.17-.19,1.76-.03.29-.07.58-.1.87-.02.15-.04.29-.06.44-.06.5.06-.42-.01.09-.17,1.2-.35,2.4-.61,3.59-.09.44-.2.88-.33,1.31-.06.2-.17.4-.2.6-.01.06.27-.66.15-.38-.04.09-.2.26,0,.06.29-.29-.13.15-.16.18-.13.14-.26.27-.4.4-.2.19-.38.32-.59.46-.73.47-1.39.61-2.26.8-2.08.47-4.16.93-6.24,1.39-3.97.87-7.94,1.71-11.92,2.53-15.16,3.1-30.43,5.74-45.81,7.48-16.31,1.84-32.73,2.66-49.14,2.91s-34.35-.12-51.5-.83c-2.15-.09-4.31-.18-6.46-.28-1.62-.07-3,1.43-3,3,0,1.69,1.37,2.93,3,3h0Z"/>
      <g>
        <path class="cls-7" d="M739.12,740.96c-8.25,3.29-16.49,6.59-24.74,9.88-1.63.65-3.63,1.15-4.86,2.47-1.08,1.16-1.37,2.74-1.51,4.27-.4,4.19-.75,8.36-1.44,12.52-.79,4.79-1.85,9.54-3.15,14.22-.39,1.4,1.78,1.99,2.17.6,2.12-7.62,3.57-15.41,4.33-23.28.17-1.76.11-3.65.55-5.37.53-2.1,2.72-2.54,4.51-3.26,3.85-1.54,7.71-3.08,11.56-4.62,4.39-1.75,8.79-3.51,13.18-5.26,1.33-.53.75-2.71-.6-2.17h0Z"/>
        <path class="cls-7" d="M708,756.74c-7.31-2.16-14.62-4.32-21.93-6.48-1.39-.41-1.99,1.76-.6,2.17,7.31,2.16,14.62,4.32,21.93,6.48,1.39.41,1.99-1.76.6-2.17h0Z"/>
      </g>
      <path class="cls-10" d="M628.67,730.53c13.2-.42,26.37-1.59,39.44-3.51-7.99-33.88-.34-70.59,18.14-100.08,9.18-14.65,20.93-27.6,34.3-38.53,6.71-5.48,13.83-10.46,21.25-14.93,7.06-4.24,15.9-7.09,22.38-11.81-4.75-1.43-13.56,2.52-18.35,3.97-6.59,1.99-13.07,4.32-19.43,6.95-12.72,5.28-24.91,11.8-36.37,19.44-22.91,15.26-42.9,34.96-58.16,57.9-4.61,6.93-8.81,14.15-12.07,21.8-7.83,18.41-9.94,39.2-5.97,58.81"/>
      <path class="cls-7" d="M400.86,700.87c-.36,8.93-.71,17.85-1.07,26.78-.32,8.12-.96,16.3-.84,24.44.09,6.74,1.18,13.82,5.7,19.11,4.44,5.2,11.08,7.2,17.33,9.28s12.92,4.15,19.46,5.98c17.23,4.81,34.72,8.72,52.32,11.91,25.27,4.58,50.82,7.66,76.46,9.12,30.89,1.76,61.94,1.15,92.7-2.25,16.66-1.84,33.24-4.49,49.63-8.02,4.29-.92,8.56-1.91,12.82-2.96,3.44-.85,7.04-1.79,9.87-4.04s3.77-5.4,4.15-8.78c.47-4.23.51-8.53.73-12.78.46-8.81.88-17.63,1.13-26.45s.65-17.56.09-26.26c-.14-2.24-.8-4.76-3.12-5.63-2.15-.81-4.59.08-6.59.9-6.93,2.85-13.45,6.37-20.71,8.43-16.59,4.7-34,7.12-51.15,8.56-14.5,1.22-29.06,1.92-43.61,2.27-29.6.7-59.36-.4-88.67-4.85-28.82-4.38-57.39-12.01-83.69-24.75-6.32-3.06-12.5-6.42-18.5-10.06-1.66-1-3.16,1.59-1.51,2.59,24.31,14.74,51.33,24.52,79.02,30.67,28.24,6.27,57.21,8.93,86.1,9.48,14.39.27,28.79.02,43.16-.63,15.04-.68,30.1-1.6,45.03-3.61,16.15-2.17,32.69-4.97,47.65-11.67,3.05-1.37,6.04-3.05,9.21-4.12,1.89-.63,3.74-1.05,4.24,1.32.38,1.79.21,3.78.24,5.61.03,2.23.05,4.46.04,6.68,0,4.24-.07,8.48-.17,12.73-.22,8.71-.61,17.42-1.06,26.13-.22,4.32-.44,8.64-.68,12.96-.21,3.8-.75,7.55-4.29,9.68-3.29,1.98-7.24,2.64-10.93,3.51-4.15.99-8.31,1.92-12.48,2.79-8.11,1.7-16.26,3.18-24.44,4.45-30.95,4.81-62.35,6.61-93.65,5.92-26.69-.59-53.34-2.99-79.72-7.05-19.49-3.01-38.86-6.9-57.97-11.78-9.62-2.46-19.21-5.12-28.62-8.29-5.98-2.01-12.49-3.6-17-8.3-4.85-5.05-5.56-12.45-5.53-19.11.03-8.14.58-16.3.9-24.44.34-8.48.68-16.96,1.02-25.44.08-1.93-2.92-1.93-3,0h0Z"/>
      <g>
        <path class="cls-7" d="M706.87,551.59c-12.71,6.99-24.93,14.89-36.44,23.73s-22.07,18.35-31.79,28.9c-9.62,10.44-18.31,21.78-25.72,33.89-3.71,6.06-7.1,12.32-10.14,18.74-3.29,6.97-6.64,13.98-8.93,21.35-4.81,15.47-5.33,32.29-.03,47.71.67,1.95,1.44,3.85,2.26,5.74.77,1.77,3.36.24,2.59-1.51-6.46-14.82-7.14-31.37-3.12-46.94,1.94-7.52,5.11-14.43,8.28-21.48,2.86-6.37,6.07-12.58,9.6-18.61,7.01-11.99,15.26-23.22,24.47-33.6,9.34-10.52,19.64-20.17,30.64-28.93s22.89-16.74,35.18-23.78c1.55-.89,3.11-1.76,4.68-2.62,1.69-.93.18-3.52-1.51-2.59h0Z"/>
        <path class="cls-7" d="M682.03,724.95c.59-15.24,4.85-30.16,11.01-44.04s14.26-27.06,23.35-39.31c8.69-11.71,18.5-22.55,29.37-32.28s22.57-18.17,35.13-25.36c6.48-3.71,13.17-7.14,20.06-10,7.67-3.18,15.6-5.69,23.53-8.13,1.96-.6,3.92-1.2,5.88-1.8,1.33-.41,1.36-1.98.36-2.74-11.51-8.67-24.69-15.04-38.58-18.83s-28.42-5.03-42.7-3.59c-8.11.82-16.11,2.47-23.87,4.98-1.83.59-1.05,3.49.8,2.89,13.41-4.34,27.54-6.09,41.61-5.25,14.06.84,28.01,4.28,40.81,10.17,7.22,3.33,14.08,7.42,20.43,12.21l.36-2.74c-8.08,2.48-16.2,4.88-24.12,7.84-7.34,2.74-14.45,6.06-21.35,9.77-12.97,6.97-25.17,15.36-36.39,24.9-11.24,9.55-21.45,20.27-30.48,31.92-9.51,12.27-18.03,25.38-24.74,39.4-6.66,13.92-11.58,28.81-13.07,44.22-.18,1.91-.31,3.83-.39,5.75s2.92,1.93,3,0h0Z"/>
      </g>
      <path class="cls-7" d="M638.15,730.99c-4.02-15.37-3.35-31.44.82-46.7s11.71-29.88,20.68-43.1,19.48-25.28,30.92-36.36c11.56-11.19,24.23-21.09,38.51-28.6s29.81-12.57,45.86-13.9c1.99-.16,3.98-.27,5.98-.32,1.44-.04,1.45-2.29,0-2.25-16.38.45-32.42,4.73-47.22,11.67s-28.43,16.63-40.49,27.81c-11.81,10.96-22.71,22.97-32.14,36.03-9.58,13.27-17.71,27.78-22.76,43.4s-6.59,31.23-3.67,46.9c.38,2.03.83,4.03,1.36,6.03.37,1.4,2.54.81,2.17-.6h0Z"/>
      <path class="cls-7" d="M633.53,652.03c11.4-1.09,23,4.42,29.22,14.07.78,1.21,2.73.09,1.94-1.14-6.63-10.27-18.97-16.35-31.17-15.18-1.43.14-1.44,2.39,0,2.25h0Z"/>
      <path class="cls-7" d="M665.66,611.33c10.11,2.44,19.12,8.3,25.5,16.52.89,1.14,2.47-.46,1.59-1.59-6.59-8.49-16.04-14.58-26.49-17.1-1.41-.34-2.01,1.83-.6,2.17h0Z"/>
      <path class="cls-21" d="M795.87,666.21c6.15,7.8,10.5,16.91,12.83,26.55.45,1.88,3.35,1.08,2.89-.8-2.46-10.18-7.13-19.66-13.6-27.88-1.19-1.52-3.3.62-2.12,2.12h0Z"/>
      <path class="cls-21" d="M812.24,705.42c1.93,0,1.93-3,0-3s-1.93,3,0,3h0Z"/>
      <path class="cls-21" d="M740.15,555.54c7.75-2.16,15.73-3.26,23.78-3.27,1.93,0,1.93-3,0-3-8.3.02-16.58,1.15-24.57,3.38-1.86.52-1.07,3.41.8,2.89h0Z"/>
      <path class="cls-21" d="M775.52,553.72c1.93,0,1.93-3,0-3s-1.93,3,0,3h0Z"/>
      <path class="cls-21" d="M478.88,626.55c9.89-1.19,19.88.11,29.14,3.8,1.79.71,2.57-2.19.8-2.89-9.47-3.77-19.82-5.13-29.94-3.91-1.89.23-1.92,3.23,0,3h0Z"/>
      <path class="cls-21" d="M517.06,634.4c1.93,0,1.93-3,0-3s-1.93,3,0,3h0Z"/>
      <path class="cls-18" d="M455.33,723.39c10.68,4.47,21.71,8.05,32.98,10.68,1.58.37,3.25-.49,3.69-2.1.42-1.52-.51-3.32-2.1-3.69-11.27-2.64-22.3-6.21-32.98-10.68-1.5-.63-3.3.68-3.69,2.1-.48,1.73.59,3.06,2.1,3.69h0Z"/>
      <path class="cls-18" d="M497.73,735.91c3.86,0,3.87-6,0-6s-3.87,6,0,6h0Z"/>
      <path class="cls-3" d="M544.35,328.04c5.93,1.24,11.93,1.37,17.91.48,1.2-.18,1.87-1.7,1.57-2.77-.35-1.29-1.56-1.75-2.77-1.57-5.14.77-10.44.58-15.52-.48-1.19-.25-2.43.35-2.77,1.57-.31,1.12.38,2.52,1.57,2.77h0Z"/>
      <path class="cls-3" d="M583.08,329.13h.97c.31.01.6-.05.87-.19.28-.09.52-.25.72-.47.22-.2.37-.45.47-.72.14-.27.21-.56.19-.87l-.08-.6c-.11-.38-.3-.71-.58-.99l-.46-.35c-.35-.2-.73-.31-1.14-.31h-.97c-.31-.01-.6.05-.87.19-.28.09-.52.25-.72.47-.22.2-.37.45-.47.72-.14.27-.21.56-.19.87l.08.6c.11.38.3.71.58.99l.46.35c.35.2.73.31,1.14.31h0Z"/>
      <path class="cls-3" d="M523.02,282.12c2.85.03,5.7.07,8.56.1,6.85.08,13.7.17,20.55.25,8.29.1,16.59.2,24.88.3l21.63.26c3.47.04,6.99.24,10.46.13.05,0,.1,0,.15,0,2.9.04,2.9-4.46,0-4.5s-5.7-.07-8.56-.1c-6.85-.08-13.7-.17-20.55-.25-8.29-.1-16.59-.2-24.88-.3l-21.63-.26c-3.47-.04-6.99-.24-10.46-.13-.05,0-.1,0-.15,0-2.9-.04-2.9,4.46,0,4.5h0Z"/>
      <path class="cls-3" d="M521.88,306.35c8.79,4.98,19.37,6.74,29.34,7.25,2.89.15,2.89-4.35,0-4.5-9.17-.47-18.98-2.05-27.07-6.64-2.52-1.43-4.79,2.46-2.27,3.89h0Z"/>
      <path class="cls-7" d="M581.12,325.99c7.65.03,15.53-1.1,21.54-6.22,7.04-6,9.77-15.55,10.35-24.46.36-5.45,0-10.91-.38-16.35-.13-1.84-3.01-1.86-2.89,0,.62,8.98,1.29,18.34-1.59,27.02-2.41,7.27-7.39,13.37-14.86,15.67-3.94,1.21-8.08,1.47-12.18,1.46-1.86,0-1.86,2.88,0,2.89h0Z"/>
      <path class="cls-7" d="M518.3,278.18c-.25,11.2-.98,23.42,4.81,33.51,2.53,4.4,6.18,7.86,10.8,9.99s9.44,3.01,14.37,3.49c5.47.53,10.97.43,16.45.48,1.86.02,1.86-2.87,0-2.89-9.19-.09-18.83.39-27.61-2.85-4.41-1.63-8.15-4.4-10.72-8.36-2.95-4.54-4.37-9.87-4.96-15.21-.66-6.03-.4-12.11-.27-18.16.04-1.86-2.84-1.86-2.89,0h0Z"/>
      <path class="cls-7" d="M521.43,302.08c9.26,5.87,20.47,6.74,31.13,7.45,1.93.13,1.92-2.87,0-3-10.14-.67-20.8-1.46-29.61-7.04-1.64-1.04-3.14,1.56-1.51,2.59h0Z"/>
      <path class="cls-3" d="M581.53,348.57c0,15-.08,30.01-.19,45.01-.12,16.74-.28,33.47-.46,50.21-.17,15.65-.36,31.31-.56,46.96-.15,11.92-.31,23.83-.48,35.75-.08,5.34-.35,10.72-.23,16.06,0,.07,0,.14,0,.21-.06,3.86,5.94,3.86,6,0,.07-4.37.13-8.74.19-13.11.16-11.27.32-22.54.46-33.8.2-15.34.39-30.68.56-46.03.19-16.76.35-33.52.48-50.28.12-15.36.21-30.72.23-46.09,0-1.63,0-3.27,0-4.9,0-3.86-6-3.87-6,0h0Z"/>
      <path class="cls-7" d="M540.52,324.3c-.28,28.58-.71,57.16-1.21,85.74s-1.07,56.95-1.64,85.43c-.32,16.02-.64,32.04-.94,48.06-.04,1.93,2.96,1.93,3,0,.54-28.6,1.13-57.2,1.69-85.79s1.09-56.94,1.51-85.41c.24-16.01.44-32.01.6-48.02.02-1.93-2.98-1.93-3,0h0Z"/>
      <path class="cls-22" d="M536.97,619.59c13.98,3.8,29.62,4.94,43.97,2.98,1.24-.17,2.61-.44,3.32-1.47.41-.59.52-1.33.62-2.04,1.37-9.82.57-18.68.66-28.6-6.53,4.64-16.06,4.89-24.06,4.52s-15.11-2.37-22.83-4.52c.53,4.77.77,10.76-.25,15.44-.99,4.53-2.7,9.22-1.43,13.68"/>
      <path class="cls-7" d="M537.11,552.88c-.3,14.74-.73,29.48-1.15,44.22-.42,15.01-.83,30.02-1.1,45.04-.14,7.89-.24,15.77-.25,23.66,0,1.93,3,1.93,3,0,.03-14.38.32-28.76.67-43.14.37-15.11.82-30.23,1.23-45.34.22-8.14.43-16.29.6-24.43.04-1.93-2.96-1.93-3,0h0Z"/>
      <path class="cls-7" d="M537.6,589.46c3.04,2.72,6.85,4.1,10.81,4.88s8.22,1.25,12.35,1.44c8.37.37,16.93-.75,24.33-4.91,1.68-.95.17-3.54-1.51-2.59-6.81,3.83-14.67,4.81-22.38,4.52-3.81-.15-7.63-.54-11.38-1.23s-7.29-1.72-10.08-4.22c-1.44-1.28-3.56.83-2.12,2.12h0Z"/>
      <path class="cls-7" d="M537.48,620.5c15.06,5.26,31.56,5.93,47.01,1.96,1.87-.48,1.08-3.37-.8-2.89-14.96,3.85-30.84,3.14-45.42-1.96-1.83-.64-2.61,2.26-.8,2.89h0Z"/>
      <path class="cls-7" d="M587.83,325.55c-.04,3.05-.08,6.1-.12,9.15-.11,8.22-.21,16.44-.32,24.67-.16,12.24-.32,24.48-.48,36.71-.19,14.83-.39,29.66-.58,44.49-.21,16.35-.43,32.7-.64,49.06l-.64,49.18c-.2,15.39-.4,30.78-.6,46.17-.17,12.92-.34,25.84-.51,38.76-.12,9.35-.24,18.71-.37,28.06-.06,4.4-.21,8.81-.17,13.21,0,.19,0,.39,0,.58-.03,1.93,2.97,1.93,3,0,.04-3.05.08-6.1.12-9.15.11-8.22.21-16.44.32-24.67l.48-36.71c.19-14.83.39-29.66.58-44.49.21-16.35.43-32.7.64-49.06.21-16.39.43-32.79.64-49.18.2-15.39.4-30.78.6-46.17.17-12.92.34-25.84.51-38.76.12-9.35.24-18.71.37-28.06.06-4.4.21-8.81.17-13.21,0-.19,0-.39,0-.58.03-1.93-2.97-1.93-3,0h0Z"/>
      <path class="cls-4" d="M596.87,110.13c-5.12,2.17-10.26,4.45-14.87,7.57-4.04,2.73-7.53,6.09-10.58,9.88-8.12,10.11-14.01,21.63-16.44,34.43-4.81,25.29,3.23,52.4,22.47,69.82,10.02,9.07,22.57,15.05,35.94,17.05,1.2.18,2.42-.3,2.77-1.57.29-1.06-.36-2.59-1.57-2.77-11.17-1.67-21.88-6.1-30.73-13.16-8.92-7.11-15.92-16.48-20.33-26.99-4.89-11.63-6.45-24.57-4.86-37.06.79-6.23,2.44-12.4,4.83-18.2s5.61-10.96,9.26-15.94c3.02-4.1,6.51-8.04,10.6-10.97,4.84-3.46,10.34-5.9,15.79-8.21,1.12-.47,1.36-2.13.81-3.08-.68-1.16-1.95-1.28-3.08-.81h0Z"/>
      <path class="cls-7" d="M766.6,98.52c12.92-1.09,25.95-1.05,38.78-3.09,1.9-.3,1.09-3.19-.8-2.89-12.56,2-25.33,1.91-37.98,2.98-1.91.16-1.93,3.16,0,3h0Z"/>
      <polyline class="cls-21" points="843.42 161.01 774.11 218.26 768.45 203.2 838.83 145.07"/>
      <polyline class="cls-21" points="836.37 136.99 767.07 194.24 764.83 186.77 833.44 130.17"/>
      <path class="cls-7" d="M804.98,107.01c-12.47.08-22.43,8.85-28.87,18.82-1.01,1.57-1.83,3.18-2.67,4.84s-1.79,3.22-2.53,4.92c-1.36,3.1-2.54,6.28-3.54,9.52-2.12,6.9-3.43,14.05-4.07,21.24-1.24,13.82-.05,28.06,3.98,41.36,3.2,10.54,8.29,21.02,16.27,28.78,6.41,6.23,15,10.44,24.11,9.45s17.24-6.86,22.93-14.09c7.3-9.27,11.71-20.63,14.15-32.1,2.87-13.49,3.14-27.56.97-41.17-1.89-11.85-5.75-23.76-12.5-33.77-5.23-7.75-12.6-14.77-21.92-17.05-2.06-.5-4.19-.76-6.3-.77-1.93,0-1.93,2.99,0,3,8.67.04,16.16,4.93,21.74,11.26,7.19,8.17,11.59,18.64,14.24,29.1,3.23,12.72,3.93,26.11,2.43,39.13-1.35,11.7-4.61,23.46-10.55,33.69-4.47,7.7-10.87,15.17-19.44,18.34-7.8,2.89-16.06,1.44-22.88-3.16-8.17-5.52-13.75-14.45-17.49-23.4-4.83-11.57-7.01-24.21-7.2-36.71-.2-13.79,1.96-27.88,7.41-40.62.62-1.45,1.36-2.8,2.1-4.19.94-1.75,1.73-3.54,2.77-5.23,1.7-2.72,3.6-5.32,5.77-7.68,3.73-4.07,8.28-7.56,13.57-9.3,2.44-.8,4.94-1.22,7.5-1.23,1.93-.01,1.93-3.01,0-3Z"/>
      <path class="cls-7" d="M482.33,229.82c1.09,15.52,2.17,31.04,3.21,46.56.13,1.92,3.13,1.93,3,0-1.04-15.52-2.12-31.04-3.21-46.56-.13-1.92-3.14-1.93-3,0h0Z"/>
      <path class="cls-7" d="M804.98,257.6c-18.8-1.49-37.6-2.97-56.39-4.46-18.86-1.49-37.71-2.98-56.57-4.47s-37.65-2.98-56.48-4.47c-8.5-.67-17.01-1.28-25.32-3.32-7.79-1.91-15.1-5.12-21.67-9.74-11.57-8.14-20.45-20.08-25.09-33.43s-4.97-27.68-.73-41.09,12.08-24.3,22.63-32.65c5.3-4.2,11.33-7.61,17.68-9.94,8.43-3.09,17.38-4,26.26-4.68,18.69-1.43,37.38-2.94,56.07-4.41s37.51-2.97,56.26-4.45c4.53-.36,9.06-.72,13.59-1.07,1.91-.15,1.93-3.15,0-3-19.07,1.51-38.14,3.02-57.21,4.52s-38.43,3.04-57.64,4.56c-9.08.72-18.27,1.09-27.24,2.74-7.79,1.43-15.26,4.17-22.08,8.21-11.86,7.03-21.56,17.66-27.52,30.09-6.13,12.78-8.2,27.12-5.77,41.1s9.52,27.69,19.69,37.98c5.26,5.32,11.41,9.9,18.15,13.19,7.55,3.7,15.74,5.72,24.04,6.86,9.07,1.24,18.26,1.71,27.38,2.44,9.63.76,19.26,1.52,28.89,2.28,19.18,1.52,38.37,3.03,57.55,4.55,19.12,1.51,38.23,3.02,57.35,4.53,4.73.37,9.46.75,14.18,1.12,1.92.15,1.91-2.85,0-3h0Z"/>
      <path class="cls-7" d="M526.88,60.96c1.93,0,1.93-3,0-3s-1.93,3,0,3h0Z"/>
      <path class="cls-4" d="M580.58,61.87c10.46.34,20.93.02,31.39-.14,5.24-.08,10.49-.11,15.73.02,1.07.03,2.17-.02,3.22.15.96.15,1.91.46,2.85.71,1.93.51,4.02.99,6,.46,3.86-1.04,4.48-5.22,5.85-8.36.64-1.47,1.53-3.17,2.02-4.84.54-1.84.83-3.78.92-5.69.37-7.87-2.93-15.6-7.85-21.61-11.33-13.82-31.05-16.57-47.68-18.63-18.12-2.24-36.6-3.02-54.73-.37-8.65,1.26-17.22,3.37-25.27,6.82-7.21,3.09-14.33,7.63-18.49,14.47-1.03,1.7-1.84,3.54-2.43,5.43-.87,2.77,3.47,3.95,4.34,1.2,2.21-7.01,8.19-11.81,14.48-15.13,7.01-3.7,14.82-5.9,22.56-7.42,16.95-3.32,34.54-3.02,51.67-1.36,8.25.8,16.56,1.8,24.66,3.59s15.99,4.48,22.54,9.53c5.68,4.38,9.85,10.81,11.28,17.85.66,3.23.63,6.62-.24,9.8-.45,1.65-1.23,3.09-1.9,4.65-.59,1.39-.97,2.87-1.63,4.23-.15.31-.31.63-.5.91-.05.07-.35.43-.24.35-.54.4-1.27.36-1.91.3-1.73-.18-3.38-.9-5.09-1.21-2.26-.41-4.61-.32-6.9-.36-2.46-.04-4.92-.04-7.38-.03-9.94.05-19.89.42-29.83.35-2.48-.02-4.95-.07-7.43-.15-2.9-.1-2.89,4.4,0,4.5h0Z"/>
      <path class="cls-7" d="M456.56,73.7c9.14-2.18,18.28-4.36,27.42-6.53.45-.11.93-.17,1.36-.33,1.19-.42,1.36-1.78,1.63-2.87.56-2.21.48-4.38.52-6.63.04-2.53.15-5.06.35-7.58.78-9.88,3.11-20.26,9.57-28.07s15.83-11.83,25.37-14.2c11.02-2.74,22.56-3.8,33.88-4.28,12.49-.54,25.02-.03,37.43,1.5,10.36,1.28,20.96,3.15,30.52,7.53,8.61,3.94,16.29,10.01,20.25,18.78,3.41,7.54,4.17,17.01.07,24.44-1.01,1.82-2.27,3.44-3.78,4.88-1.4,1.34.73,3.46,2.12,2.12,10.47-10.02,8.88-27.17,1.15-38.32-9.26-13.35-26.24-18.61-41.49-21.17-19.41-3.25-39.32-3.82-58.89-1.88-15.96,1.58-34.25,4.03-46.27,15.76-5.73,5.6-9.24,12.99-11.09,20.72-.96,3.99-1.51,8.08-1.84,12.17-.16,1.99-.26,3.99-.31,5.99s.14,3.96-.11,5.87c-.15,1.13-.5,2.27-.85,3.35l1.05-1.05-25.3,6.03-3.55.85c-1.88.45-1.08,3.34.8,2.89h0Z"/>
      <path class="cls-7" d="M526.1,15.81c8.03-2.6,16.34-4.2,24.77-4.73,1.92-.12,1.93-3.12,0-3-8.69.55-17.28,2.16-25.57,4.84-1.83.59-1.05,3.49.8,2.89h0Z"/>
      <path class="cls-7" d="M559.09,11.68c1.93,0,1.93-3,0-3s-1.93,3,0,3h0Z"/>
      <path class="cls-4" d="M587.29,7.57c5.56,4.86,8.73,12.33,8.37,19.7-.02.41-.04.85.18,1.19.26.39.76.54,1.21.66,10.71,2.8,21.04,9.75,24.63,20.22.67,1.95,1.05,4.09,2.35,5.7,7.83,9.66,20.67,7.93,20.07-2.18-.35-5.86,2.79-8.6.35-13.33-1.4-2.7-.57-6.39-1.86-9.3-1.65-3.72-5.47-6.62-7.93-9.63-4.4-5.37-10.76-8.84-17.33-10.84-7.21-2.2-14.8-2.77-22.32-3.34"/>
      <path class="cls-7" d="M537.36,63.08c14.31.92,28.66,1.08,42.99,1.2,16.28.14,32.56.14,48.83.42,14.99.26,30.02.68,44.96,2.06,5.96.55,11.92,1.26,17.81,2.39,4.38.84,9.19,1.98,13.09,3.65,1.58.67,3.1,1.47,4.49,2.47,1.22.86,2.27,2.15,3.12,3.64,3.37,5.99,2.73,12.92,2.73,19.52v2.03c0,1.93,3,1.93,3,0,0-4.93.4-10.08-.36-14.97-.87-5.63-3.44-10.82-8.4-13.76-3.65-2.16-7.84-3.42-11.93-4.42-5.57-1.36-11.26-2.2-16.94-2.87-14.58-1.73-29.3-2.25-43.97-2.6-16.56-.39-33.13-.42-49.69-.53-15.02-.1-30.06-.2-45.06-.98-1.55-.08-3.1-.17-4.66-.27-1.93-.12-1.92,2.88,0,3h0Z"/>
      <path class="cls-7" d="M517.53,131.6c9.97,1,19.57,5.09,27.21,11.58.71.6,1.86.6,2.36-.3,10.57-19.46,26.6-36.9,48.32-43.54,6.08-1.86,12.39-2.78,18.75-2.61,1.93.05,1.93-2.95,0-3-23.78-.64-45.03,13.17-59.17,31.45-3.94,5.1-7.41,10.53-10.49,16.18l2.36-.3c-8.29-7.04-18.51-11.37-29.33-12.45-1.92-.19-1.91,2.81,0,3h0Z"/>
      <path class="cls-7" d="M278.79,329.75c1.92-14.62,8.33-29.63,22.38-36.23,7.23-3.4,16.17-4.36,23.76-1.57,6.43,2.37,11.5,7.68,15.16,13.31,3.96,6.1,6.42,12.88,7.79,20,1.68,8.69,1.75,17.79-.38,26.4-3.6,14.5-14.23,27.73-29.02,31.71-6.75,1.81-14.02,1.31-20.53-1.2-3.19-1.23-6.24-3.02-8.82-5.26-2.21-1.93-3.8-4.23-5.65-6.47l-1.74-2.1c-1.21-1.47-3.29.63-2.09,2.09,1.5,1.81,2.81,3.67,4.32,5.45,2.38,2.82,5.33,5.17,8.54,6.97,6.56,3.68,14.37,5.21,21.83,4.3,15.84-1.93,28.64-14.25,34.17-28.78,3.35-8.79,4.19-18.45,3.16-27.76-.89-8.07-2.99-15.99-6.84-23.16-3.5-6.52-8.43-12.67-14.91-16.41-7.17-4.13-16.09-4.51-23.96-2.4s-15.13,7.1-20.14,13.82c-4.66,6.25-7.46,13.79-9.01,21.39-.4,1.95-.7,3.92-.96,5.89-.1.8.75,1.47,1.48,1.48.88,0,1.37-.69,1.48-1.48h0Z"/>
      <path class="cls-23" d="M347.17,383.72c1.24,23.96,2.17,47.94,2.78,71.93.61,23.99.91,47.98.89,71.98-.01,13.45-.12,26.9-.33,40.35-.06,3.86,5.94,3.86,6,0,.37-23.99.43-47.99.17-71.98-.26-23.99-.83-47.98-1.72-71.96-.5-13.44-1.1-26.88-1.79-40.31-.08-1.62-1.32-3-3-3-1.56,0-3.08,1.37-3,3h0Z"/>
      <path class="cls-23" d="M414.55,383.91c2.82,27.71,4.09,55.57,4.29,83.42.21,28.08-.67,56.16-2.34,84.18-.92,15.52-2.09,31.02-3.47,46.5-.14,1.62,1.48,3,3,3,1.74,0,2.86-1.38,3-3,2.48-27.77,4.28-55.61,5.19-83.48.91-28.04.93-56.13-.32-84.17-.69-15.51-1.78-31.01-3.35-46.46-.16-1.61-1.26-3-3-3-1.5,0-3.16,1.38-3,3h0Z"/>
      <path class="cls-7" d="M418.33,377.42c2.75,30.42,4.42,60.94,4.95,91.48.52,30.38-.09,60.78-1.91,91.11-1.02,17-2.43,33.98-4.22,50.92-.2,1.92,2.8,1.9,3,0,3.22-30.32,5.17-60.77,5.94-91.26.76-30.39.35-60.81-1.16-91.17-.85-17.05-2.05-34.08-3.59-51.08-.17-1.91-3.17-1.93-3,0h0Z"/>
      <path class="cls-21" d="M257.22,202.73c3.49-13.16,9.56-25.66,17.94-36.42.99-1.28,1.25-3,0-4.24-1.04-1.04-3.24-1.29-4.24,0-9.03,11.6-15.71,24.84-19.48,39.07-.99,3.74,4.8,5.33,5.79,1.6h0Z"/>
      <path class="cls-21" d="M33.84,268.06c-1.74-15.63-.46-31.43,3.85-46.55,1.06-3.72-4.73-5.31-5.79-1.6-4.45,15.59-5.86,32.03-4.07,48.14.18,1.61,1.25,3,3,3,1.48,0,3.18-1.38,3-3h0Z"/>
      <path class="cls-21" d="M39.75,215.05c3.86,0,3.87-6,0-6s-3.87,6,0,6h0Z"/>
      <path class="cls-21" d="M281.71,159.09c3.86,0,3.87-6,0-6s-3.87,6,0,6h0Z"/>
      <path class="cls-7" d="M785.1,638.56c1.76,1.44,3.52,2.88,5.28,4.32.32.26.64.44,1.06.44.37,0,.81-.16,1.06-.44.5-.55.65-1.59,0-2.12-1.76-1.44-3.52-2.88-5.28-4.32-.32-.26-.64-.44-1.06-.44-.37,0-.81.16-1.06.44-.5.55-.65,1.59,0,2.12h0Z"/>
      <path class="cls-7" d="M790.14,717.84c1.93,0,1.93-3,0-3s-1.93,3,0,3h0Z"/>
      <path class="cls-4" d="M419.84,83.75c-11.56,30.65-7.84,64.66-3.96,97.18,1.06,8.89,2.12,17.77,3.18,26.66.63,5.26,1.25,10.51,2.12,15.73,1.93,11.71,4.56,25.33,6.02,37.11.7,5.64,1.51,9.29,3.48,14.62-5.49-.83-11.53.18-16.69-1.84s-9.5-7.19-12.3-11.98c-2.46-4.21-3.17-9.18-3.83-14.01-3.9-28.46-7.81-56.91-11.71-85.37-2.08-15.17-4.07-31.16,1.63-45.37,2.76-6.89,7.21-12.97,12.06-18.59,5.02-5.82,11.19-11.56,18.85-12.2"/>
      <path class="cls-7" d="M427.8,252.55c-1.95-10.73-3.94-21.45-5.63-32.23-1.57-10.01-2.81-20.07-3.97-30.13-3.08-26.67-6.96-53.84-3.98-80.7,1.08-9.7,3.25-19.74,9.39-27.6,2.6-3.33,5.98-6.2,9.97-7.71,4.44-1.68,9.24-1.69,13.82-.58,19.56,4.75,24.72,28.25,27.13,45.33,3.89,27.64,4.35,55.6,5.95,83.42.19,3.35.4,6.71.63,10.06.13,1.92,3.13,1.93,3,0-1.97-28.59-2.23-57.3-5.59-85.78-1.27-10.73-2.65-21.63-6.57-31.78-3.37-8.72-8.71-17.26-17.24-21.7-8.56-4.46-19.46-4.69-27.46,1.09-7.67,5.54-11.99,14.69-14.16,23.67-1.46,6.03-2.07,12.31-2.48,18.49-.46,6.86-.5,13.74-.28,20.61.45,13.93,1.98,27.8,3.55,41.65,1.33,11.69,2.63,23.39,4.29,35.03,1.42,9.98,3.16,19.9,4.95,29.81.59,3.28,1.19,6.55,1.79,9.83.35,1.9,3.24,1.09,2.89-.8h0Z"/>
      <path class="cls-7" d="M425.76,260.83c.85,4.26,1.7,8.52,2.55,12.78.16.79,1.1,1.25,1.85,1.05.83-.23,1.21-1.05,1.05-1.85-.85-4.26-1.7-8.52-2.55-12.78-.16-.79-1.1-1.25-1.85-1.05-.83.23-1.21,1.05-1.05,1.85h0Z"/>
      <path class="cls-7" d="M422.37,78.37c-11.71,8.37-23.85,17.14-31.62,29.52-8.67,13.82-9.03,30.22-7.41,45.98,1.82,17.71,4.5,35.36,6.8,53.02,1.18,9.03,2.35,18.05,3.53,27.08.59,4.51,1.18,9.03,1.76,13.54.46,3.5.72,7.06,1.88,10.42,1.98,5.76,5.84,10.74,10.95,14.06,5.43,3.53,11.46,4.24,17.77,4.62,7.81.48,15.65.43,23.48.58,12.3.23,24.61.5,36.91.69,7.06.11,14.13.2,21.19.29,15.02.21,30.04.42,45.06.63,18.04.25,36.09.5,54.13.75,15.98.22,31.97.44,47.95.67,8.88.12,17.76.25,26.64.37,2.77.04,5.55.02,8.32-.09,10.81-.43,23.06-1.18,31.36-8.95,4.76-4.46,8.09-10.64,8.14-17.25.01-1.93-2.99-1.93-3,0-.05,7.08-4.49,13.63-10.23,17.51-4.48,3.03-9.89,4.08-15.16,4.78-5.96.79-12.03,1.09-18.04,1.02-6.77-.08-13.54-.19-20.31-.28-14.56-.2-29.12-.4-43.68-.61-17.74-.25-35.48-.49-53.22-.74l-47.84-.66c-9.54-.13-19.08-.26-28.62-.4-8.11-.11-16.22-.29-24.33-.44l-21.66-.4c-3.87-.07-7.73-.06-11.6-.2-6.14-.22-12.85-.1-18.54-2.7s-9.98-7.12-12.29-12.73c-1.36-3.29-1.72-6.76-2.17-10.26-.59-4.51-1.18-9.03-1.76-13.54-2.29-17.6-4.59-35.21-6.88-52.81-1.13-8.7-2.37-17.4-3.34-26.13-.88-7.9-1.42-15.9-.63-23.83s3.05-15.33,7.15-22.02c3.76-6.12,8.76-11.37,14.14-16.09s10.98-8.74,16.68-12.82c1.56-1.11.06-3.72-1.51-2.59h0Z"/>
      <path class="cls-23" d="M318.32,187.08c5.92,26.07,11.04,52.31,15.34,78.69,1.21,7.44,2.36,14.9,3.44,22.37.23,1.6,2.27,2.49,3.69,2.1,1.72-.47,2.33-2.08,2.1-3.69-3.84-26.45-8.49-52.78-13.96-78.95-1.54-7.38-3.15-14.75-4.82-22.11-.36-1.58-2.18-2.51-3.69-2.1-1.62.45-2.46,2.11-2.1,3.69h0Z"/>
      <path class="cls-7" d="M321.61,177.25c6,25.86,11.26,51.88,15.76,78.04,4.5,26.16,8.25,52.44,11.23,78.81,2.98,26.37,5.21,52.84,6.67,79.34,1.46,26.37,2.16,52.79,2.11,79.2-.05,26.54-.87,53.08-2.46,79.58-.2,3.26-.4,6.53-.62,9.79-.13,1.93,2.87,1.92,3,0,1.77-26.48,2.78-53.02,3.02-79.56.24-26.67-.29-53.35-1.58-79.99-1.29-26.51-3.34-52.99-6.15-79.38-2.8-26.27-6.34-52.46-10.63-78.52-4.33-26.32-9.42-52.51-15.27-78.54-.72-3.19-1.45-6.38-2.18-9.56-.44-1.88-3.33-1.08-2.89.8h0Z"/>
      <path class="cls-23" d="M268.71,317.33c2.71,25.48,4.72,51.04,7.4,76.52.8,7.61,1.66,15.22,2.6,22.82.2,1.61,1.24,3,3,3,1.47,0,3.2-1.38,3-3-3.14-25.57-5.31-51.24-7.75-76.88-.71-7.49-1.46-14.98-2.25-22.47-.17-1.61-1.26-3-3-3-1.49,0-3.17,1.38-3,3h0Z"/>
      <path class="cls-23" d="M282.11,470.89c1.39,16.57,2.78,33.15,4.17,49.72.14,1.61,1.28,3,3,3,1.52,0,3.14-1.38,3-3-1.39-16.57-2.78-33.15-4.17-49.72-.14-1.61-1.28-3-3-3-1.52,0-3.14,1.38-3,3h0Z"/>
      <path class="cls-7" d="M273.52,309.38c2.99,33.3,5.98,66.61,8.97,99.91,2.97,33.14,5.95,66.27,8.92,99.41,1.67,18.6,3.34,37.19,5.01,55.79.17,1.91,3.17,1.93,3,0-2.99-33.3-5.98-66.61-8.97-99.91-2.97-33.14-5.95-66.27-8.92-99.41-1.67-18.6-3.34-37.19-5.01-55.79-.17-1.91-3.17-1.93-3,0h0Z"/>
      <path class="cls-7" d="M373.43,118.15c3.68,2.78,7.1,6.16,10,9.82.5.64,1.59.53,2.12,0,.63-.63.51-1.48,0-2.12-3.08-3.88-6.65-7.31-10.61-10.29-.65-.49-1.68-.1-2.05.54-.45.77-.11,1.56.54,2.05h0Z"/>
      <path class="cls-23" d="M106.94,345.44c-.41-17.22-.81-34.43-1.22-51.65-.39-16.46-1.31-33.05.04-49.48.73-8.88,2.28-17.68,5.11-26.15.51-1.54-.59-3.28-2.1-3.69-1.64-.45-3.18.55-3.69,2.1-5.17,15.5-6.06,32.01-5.96,48.23.11,17.07.72,34.14,1.13,51.2.23,9.81.46,19.63.69,29.44.09,3.85,6.09,3.87,6,0h0Z"/>
      <path class="cls-23" d="M61.34,400.74c.28,18.7.37,37.41.72,56.11.17,9.19.88,18.39,1.47,27.56.54,8.33,1.45,16.78,4.37,24.66,2.98,8.05,7.77,15.35,15,20.17,1.35.9,3.32.26,4.1-1.08.86-1.47.28-3.2-1.08-4.1-12.41-8.28-15.35-24.59-16.32-38.43-.62-8.92-1.29-17.88-1.51-26.82s-.2-18.11-.31-27.16c-.13-10.31-.29-20.61-.45-30.91-.06-3.86-6.06-3.87-6,0h0Z"/>
      <path class="cls-23" d="M101.02,383.91c.86,13.93,1.01,27.89,2.01,41.81.93,12.94,2.39,26.19,6.24,38.63,3.32,10.74,9.28,20.91,19.97,25.61,5.78,2.54,11.98,3.54,18.23,4.21,6.92.74,13.87,1.22,20.82,1.54,15.8.72,31.63.42,47.39-.86,1.61-.13,3-1.28,3-3,0-1.52-1.38-3.13-3-3-13.71,1.11-27.47,1.49-41.22,1.09-6.83-.2-13.66-.58-20.47-1.16-5.95-.5-11.98-.99-17.74-2.64-5.15-1.48-9.67-4.01-13.23-8-3.19-3.58-5.46-8.15-7.06-12.68-4.06-11.43-5.61-23.84-6.62-35.86-1.28-15.2-1.36-30.46-2.31-45.68-.1-1.62-1.31-3-3-3-1.55,0-3.1,1.37-3,3h0Z"/>
      <g>
        <path class="cls-7" d="M217.81,444.87c-22.09-1.98-44.3-2.73-66.47-2.23-6.29.14-12.58.39-18.86.73-1.92.1-1.93,3.1,0,3,22.15-1.2,44.36-1.18,66.51.11,6.28.36,12.55.83,18.82,1.39,1.92.17,1.91-2.83,0-3h0Z"/>
        <path class="cls-7" d="M32.07,397.41c.15-21.15-.92-42.28-2.48-63.36-1.55-20.94-3.65-41.84-5.32-62.77-1.23-15.42-1.17-31.24,2.7-46.3,3.89-15.14,12.06-28.95,24.79-38.28,12.24-8.97,27.51-13.32,42.64-12.15s29.93,8.27,39.94,19.92c5.53,6.43,9.28,14.19,11.42,22.36,2.25,8.6,2.59,17.39,2.3,26.24-.69,20.99-3.53,41.84-3.84,62.86-.31,20.81.61,41.64,2.69,62.36,2.06,20.59,5.25,41.08,9.52,61.33,1.05,4.97,2.16,9.92,3.34,14.86.45,1.88,3.34,1.08,2.89-.8-4.91-20.6-8.71-41.46-11.31-62.48-2.59-20.99-4.01-42.14-4.17-63.29-.08-10.62.15-21.24.87-31.84s1.77-21.28,2.46-31.93c.62-9.62,1.19-19.36-.09-28.95-1.12-8.46-3.58-16.77-7.84-24.2-8.02-14-22.13-23.98-37.72-27.78s-30.9-1.79-44.68,4.91-25.63,19.12-31.91,33.73-7.95,30.61-7.66,46.32c.16,9.07,1.07,18.11,1.87,27.14.94,10.69,1.9,21.39,2.8,32.09,1.79,21.37,3.28,42.79,3.7,64.24.1,5.26.14,10.52.1,15.78-.01,1.93,2.99,1.93,3,0h0Z"/>
        <path class="cls-7" d="M224.86,567.18c-22.46,1.42-45.05.82-67.54.65-22.46-.17-44.95-.63-67.35-2.46-5.03-.41-10.12-.72-15.07-1.71-4.24-.85-8.41-2.13-12.37-3.88-7.97-3.52-15.08-8.74-20.81-15.31-1.58-1.82-2.89-3.65-4.05-5.77-1.22-2.25-2.35-4.55-3.37-6.89-1.96-4.52-3.5-9.24-4.66-14.03-2.28-9.4-3.02-19.08-2.95-28.73.15-19.22,3.48-38.22,4.45-57.39.12-2.35.2-4.71.24-7.06.03-1.93-2.97-1.93-3,0-.32,19.59-3.78,38.96-4.55,58.53-.78,19.94,1.75,40.02,11.57,57.7,2.17,3.9,5.32,7.29,8.58,10.32s6.81,5.69,10.62,7.95c7.65,4.53,16.23,7.32,25.05,8.34,11.26,1.3,22.63,1.92,33.94,2.42,11.35.51,22.71.76,34.07.9s22.87.16,34.3.23,22.97.11,34.45-.35c2.81-.11,5.61-.26,8.42-.43,1.92-.12,1.93-3.12,0-3h0Z"/>
        <path class="cls-7" d="M81.53,172.54v-25.52c0-1.93-3-1.93-3,0v25.52c0,1.93,3,1.93,3,0h0Z"/>
        <path class="cls-7" d="M128.84,185.59c3.23-7.39,7.52-14.29,12.25-20.81,1.13-1.57-1.47-3.06-2.59-1.51-4.72,6.52-9.02,13.42-12.25,20.81-.33.75-.21,1.6.54,2.05.63.38,1.73.2,2.05-.54h0Z"/>
        <path class="cls-7" d="M2.2,341.1c7.49-4.98,16.43-7.25,25.39-6.49,1.92.16,1.91-2.84,0-3-9.43-.8-19.02,1.66-26.91,6.9-1.6,1.06-.1,3.66,1.51,2.59h0Z"/>
        <path class="cls-7" d="M63.35,275.05c.69-14.21-.46-28.43-.18-42.64.28-13.8,1.68-28.32,8.46-40.62,3.84-6.96,9.34-12.73,16.04-16.98,1.62-1.03.12-3.63-1.51-2.59-6.2,3.94-11.52,9.1-15.48,15.3-3.74,5.86-6.21,12.48-7.76,19.24-3.33,14.46-2.94,29.51-2.6,44.24.18,8.01.42,16.04.03,24.05-.09,1.93,2.91,1.92,3,0h0Z"/>
        <path class="cls-7" d="M223.55,541.29c-11.71.96-23.44,1.65-35.18,1.9-12.76.27-25.52,0-38.28-.22s-25.01-.4-37.3-2.44c-10.6-1.76-21.18-5.27-29.62-12.14s-13.92-15.57-15.92-25.77c-.57-2.9-.76-5.86-1.04-8.79-.31-3.31-.6-6.62-.87-9.93-.52-6.45-.95-12.91-1.31-19.37-1.44-25.97-1.71-51.99-1.63-78s.5-52.01.41-78.01c-.01-3.15-.03-6.3-.05-9.44-.02-1.93-3.02-1.93-3,0,.22,26.42-.18,52.84-.32,79.26-.14,26.42-.03,52.85,1.23,79.24.62,13.1,1.53,26.19,2.82,39.24.54,5.49,1.55,10.67,3.76,15.75,2.09,4.78,5.04,9.18,8.57,13.03,16.13,17.59,41.23,19.42,63.6,20.14,25.58.82,51.18.92,76.72-.89,2.47-.18,4.94-.34,7.4-.54,1.91-.16,1.93-3.16,0-3h0Z"/>
        <path class="cls-7" d="M102.02,356.06c.44-27.03-.18-54.06-.12-81.1.02-6.72.07-13.44.2-20.17.06-3.3.14-6.59.25-9.89s.06-6.48.39-9.67c.89-8.57,2.47-17.19,5.61-25.25,3.5-8.97,9.47-17.4,18.71-21.04,1.77-.7,1-3.6-.8-2.89-17.67,6.98-23.64,27.27-25.95,44.42-.76,5.59-.88,11.21-1.03,16.84-.19,6.94-.3,13.88-.35,20.83-.1,13.77.02,27.55.13,41.32.12,15.53.22,31.06-.04,46.59-.03,1.93,2.97,1.93,3,0h0Z"/>
        <path class="cls-7" d="M220.12,492.72c-14.21,1.9-28.59,2.16-42.91,1.78-7.29-.19-14.57-.56-21.85-1-6.55-.39-13.3-.33-19.63-2.27-10.88-3.34-19.61-11.26-23.7-21.89-5.05-13.12-7.16-27.07-8.04-41.03-1-15.79-.64-31.63-1.68-47.42-.13-1.92-3.13-1.93-3,0,1.89,28.6-.91,58.19,8.56,85.76,2,5.82,4.47,11.2,8.61,15.83,3.76,4.2,8.48,7.56,13.63,9.83,2.6,1.14,5.28,2.06,8.06,2.66,3.34.73,6.74.87,10.14,1.09,7.41.48,14.82.92,22.24,1.22,16.52.66,33.16.65,49.58-1.55.81-.11,1.49-.61,1.5-1.5,0-.73-.7-1.61-1.5-1.5h0Z"/>
        <path class="cls-7" d="M31.62,208.12c-8.24-4.35-16.89-7.92-25.81-10.63-1.85-.56-2.64,2.33-.8,2.89,8.68,2.64,17.07,6.09,25.09,10.33,1.71.9,3.22-1.69,1.51-2.59h0Z"/>
        <path class="cls-7" d="M148.5,302.03c7.31-2.13,14.88-3.01,22.48-2.63,1.93.1,1.92-2.9,0-3-7.85-.39-15.73.54-23.28,2.74-1.85.54-1.06,3.43.8,2.89h0Z"/>
        <path class="cls-7" d="M121.3,568.34c-3.98,8.27-4.39,18.03-.88,26.55.73,1.76,3.63.99,2.89-.8-3.2-7.76-3.08-16.65.57-24.24.83-1.73-1.75-3.26-2.59-1.51h0Z"/>
        <path class="cls-7" d="M5.32,496.55c5.66-3.65,12.25-5.49,18.98-5.29,1.93.06,1.93-2.94,0-3-7.22-.22-14.42,1.78-20.49,5.7-1.62,1.04-.11,3.64,1.51,2.59h0Z"/>
      </g>
      <path class="cls-14" d="M38.49,418.74c.04-.07.09-.13.14-.19,2.05-2.83,6.31-4.07,9.25-1.88,2.98,2.22,4,6.3,3.76,10.02-.24,3.71-1.49,7.28-2.15,10.94-.85,4.71-.7,9.59.45,14.24.83,3.4,2.19,6.65,2.91,10.08.71,3.39.8,6.89.67,10.35-.18,4.75-.83,9.72-3.62,13.57s-8.31,6.07-12.48,3.79c-3.57-1.95-4.99-6.36-5.43-10.4-.5-4.56-.16-9.21.98-13.65,1.07-4.17,2.85-8.12,3.99-12.27,1.46-5.31,1.88-10.9,1.22-16.36-.4-3.3-1.17-6.57-1.31-9.9-.13-2.86-.01-5.86,1.65-8.3Z"/>
      <path class="cls-7" d="M31.41,418.74c.23-4.7.38-9.41.45-14.12.03-1.93-2.97-1.93-3,0-.07,4.71-.22,9.41-.45,14.12-.1,1.93,2.91,1.92,3,0h0Z"/>
      <path class="cls-14" d="M965.1,627.04c-.47-.22-.93-.46-1.38-.71-.17-.11-.36-.17-.56-.18-.2-.04-.4-.04-.6.03-.2.05-.37.14-.51.27-.16.11-.29.25-.39.42l-.15.36c-.07.27-.07.53,0,.8l.15.36c.13.23.31.4.54.54.45.25.91.49,1.38.71.17.11.36.17.56.18.2.04.4.04.6-.03.2-.05.37-.14.51-.27.16-.11.29-.25.39-.42l.15-.36c.07-.27.07-.53,0-.8l-.15-.36c-.13-.23-.31-.4-.54-.54h0Z"/>
      <path class="cls-7" d="M357.47,625.61c-.39,16.14-1.26,32.27-2.42,48.36-.32,4.43-.67,8.85-1.04,13.27-.16,1.92,2.84,1.91,3,0,1.36-16.08,2.38-32.2,3.03-48.33.18-4.43.32-8.87.43-13.31.05-1.93-2.95-1.93-3,0h0Z"/>
      <path class="cls-7" d="M352.44,803.4c.25-9.64.51-19.28.76-28.92.26-9.77.49-19.55,1.36-29.29.17-1.92-2.83-1.91-3,0-.87,9.74-1.11,19.52-1.36,29.29s-.51,19.28-.76,28.92c-.05,1.93,2.95,1.93,3,0h0Z"/>
      <path class="cls-7" d="M132.19,779.34c6.43-6.47,13.9-11.76,22.12-15.7,1.74-.83.22-3.42-1.51-2.59-8.43,4.05-16.14,9.54-22.73,16.17-1.36,1.37.76,3.49,2.12,2.12h0Z"/>
      <path class="cls-7" d="M145.62,776.68c2.94-2.77,6.03-5.1,9.51-7.18.7-.41.95-1.35.54-2.05s-1.35-.95-2.05-.54c-3.64,2.17-7.03,4.74-10.12,7.65-.59.56-.56,1.56,0,2.12.59.59,1.53.56,2.12,0h0Z"/>
      <path class="cls-7" d="M883.04,921.67c9.99-4.42,19.11-10.66,26.88-18.34,1.38-1.36-.75-3.48-2.12-2.12-7.6,7.51-16.5,13.55-26.28,17.87-1.76.78-.24,3.36,1.51,2.59h0Z"/>
      <path class="cls-7" d="M884.3,912.54c5.03-2.78,9.75-6.08,14.11-9.82.62-.53.54-1.58,0-2.12-.61-.61-1.5-.53-2.12,0-4.17,3.58-8.7,6.7-13.5,9.35-1.69.93-.18,3.53,1.51,2.59h0Z"/>
      <path class="cls-7" d="M935.66,902.03c-.05-8.26-.06-16.53-.1-24.79-.01-1.93-3.01-1.93-3,0,.05,8.26.06,16.53.1,24.79.01,1.93,3.01,1.93,3,0h0Z"/>
      <path class="cls-6" d="M206.98,825.57c-.67-13.16,5.37-26.03,15.62-34.45,2.77-2.27,6.13-4.24,9.52-5.7,1.49-.64,1.82-2.83,1.08-4.1-.9-1.54-2.61-1.72-4.1-1.08-13.51,5.81-23.68,18.65-26.97,32.9-.94,4.06-1.35,8.26-1.14,12.43.08,1.62,1.32,3,3,3,1.56,0,3.08-1.37,3-3h0Z"/>
      <path class="cls-6" d="M199.95,808.45c1.61-8.51,6.11-15.89,12.94-21.27,1.27-1,1.05-3.19,0-4.24-1.26-1.26-2.97-1.01-4.24,0-7.47,5.88-12.72,14.59-14.49,23.92-.3,1.59.44,3.24,2.1,3.69,1.46.4,3.39-.5,3.69-2.1h0Z"/>
      <path class="cls-7" d="M591.69,733.24c2.22,6.5,6.36,12.16,11.84,16.3,2.71,2.05,5.7,3.6,8.88,4.78,2.93,1.09,6.57,2.08,8.27,4.95,1.21,2.04,1.24,4.65,1.49,6.94.29,2.65.58,5.29.87,7.94.16,1.42,2.41,1.44,2.25,0-.25-2.31-.5-4.63-.76-6.94-.23-2.08-.34-4.22-.81-6.26-.8-3.47-3.25-5.7-6.41-7.12s-6.4-2.31-9.39-4.05-5.75-4.05-8.06-6.71c-2.65-3.05-4.69-6.61-6-10.43-.47-1.36-2.64-.78-2.17.6h0Z"/>
      <path class="cls-7" d="M613.32,753.18c3.9-3.38,8.67-5.61,13.74-6.53,1.42-.26.82-2.43-.6-2.17-5.46.99-10.54,3.48-14.73,7.11-1.1.95.5,2.54,1.59,1.59h0Z"/>
      <path class="cls-7" d="M602.9,747.93c-3.89,2.37-8.76.98-12.81-.23-1.39-.41-1.99,1.76-.6,2.17,4.66,1.38,10.09,2.71,14.55,0,1.23-.75.11-2.7-1.14-1.94h0Z"/>
      <path class="cls-7" d="M399.77,753.56c15.35,11.48,33.81,17.59,52.2,22.24,5.23,1.32,10.49,2.54,15.76,3.74,1.88.43,2.68-2.46.8-2.89-18.29-4.2-36.93-8.47-53.68-17.2-4.74-2.47-9.28-5.28-13.55-8.48-1.55-1.16-3.04,1.45-1.51,2.59h0Z"/>
      <path class="cls-7" d="M474.65,781.28c1.93,0,1.93-3,0-3s-1.93,3,0,3h0Z"/>
      <path class="cls-14" d="M245.59,632.3c-10.12-69.99-15.62-141.19-16.43-212.49-.17-15.33-.02-31.32,5.11-44.99.65-1.74,1.53-3.59,2.93-4.06,2.61-.88,4.45,3.31,5.33,6.74,2.38,9.25,4.76,18.5,7.13,27.75,5.13,19.94,10.29,40.12,11.68,61.15.95,14.32.12,28.76.83,43.1.91,18.39,4.32,36.46,4.87,54.88.89,30.06-5.87,59.46-12.56,88.15-.99,4.27-2.54,9.23-5.8,10.05-5.03,1.25-7.49-7.94-7.87-14.84-1.54-27.34-2.74-54.72-3.59-82.11"/>
      <g>
        <path class="cls-21" d="M230.94,442.49c-.32,10.92.35,21.82,1.87,32.64.23,1.61,2.27,2.48,3.69,2.1,1.73-.47,2.32-2.08,2.1-3.69-1.45-10.27-1.96-20.68-1.65-31.05.11-3.86-5.89-3.86-6,0h0Z"/>
        <path class="cls-21" d="M234.78,433.62c3.86,0,3.87-6,0-6s-3.87,6,0,6h0Z"/>
      </g>
    </g>
  </g>
</svg>