<svg xmlns="http://www.w3.org/2000/svg" viewBox="0 0 785.75 466.87"><defs><style>.cls-1,.cls-10,.cls-16,.cls-27{fill:#fff;}.cls-2{fill:#dbcec8;}.cls-3{fill:#fdd2bf;}.cls-4{fill:#e8af94;}.cls-25,.cls-5{fill:#3e3127;}.cls-6{fill:#3c3127;}.cls-7{fill:#d59254;}.cls-13,.cls-18,.cls-19,.cls-8{fill:#b55c4e;}.cls-9{fill:#dda38c;}.cls-10,.cls-18{opacity:0.8;}.cls-11{fill:#dda18a;}.cls-12,.cls-14{fill:#f9b47a;}.cls-13,.cls-14{opacity:0.65;}.cls-15{fill:#fac69a;}.cls-16,.cls-19,.cls-28,.cls-29{opacity:0.5;}.cls-17{fill:#c2d9dd;}.cls-20{fill:#59717a;}.cls-21,.cls-28{fill:#34454c;}.cls-22{fill:#637582;}.cls-23{fill:#8898a8;}.cls-24{fill:#455760;}.cls-25{opacity:0.4;}.cls-26{fill:#eec2ae;}.cls-27{opacity:0.45;}.cls-29{fill:#657177;}.cls-30{fill:#963b3b;}.cls-31{fill:#872d2d;}.cls-32{fill:#c5d8e2;}.cls-33{fill:#24bacc;}.cls-34{fill:#19a5af;}.cls-35{fill:#eba42c;}.cls-36{fill:#d38a20;}.cls-37{fill:#f65143;}.cls-38{fill:#d32d24;}.cls-39{fill:#ff9797;}</style></defs><title>Asset 53</title><g id="Layer_2" data-name="Layer 2"><g id="Layer_1-2" data-name="Layer 1"><path class="cls-1" d="M368.38,340.69h21.41a22.49,22.49,0,0,1,22.49,22.49V457a0,0,0,0,1,0,0h-66.4a0,0,0,0,1,0,0V363.18A22.49,22.49,0,0,1,368.38,340.69Z"/><path class="cls-2" d="M412.76,357.58V459s-13.53,1.57-12.85,0c7.79-18,6-116.22,6-116.22A19.3,19.3,0,0,1,412.76,357.58Z"/><line class="cls-1" x1="435" y1="446.08" x2="418.27" y2="446.08"/><path class="cls-1" d="M412.48,353.26h0c11.42,0,17.4,9.25,17.4,20.67V438H411.66Z"/><rect class="cls-2" x="412.54" y="353.6" width="5.17" height="85.74"/><path class="cls-3" d="M412.29,438.83V456.1h.4c9,0,16.33-7.73,16.33-17.27Z"/><path class="cls-4" d="M417.17,439.73v16.82a15.91,15.91,0,0,1-3.68.44h-.4V439.73Z"/><rect class="cls-5" x="427.51" y="385.06" width="3" height="3.5"/><rect class="cls-5" x="427.51" y="393.94" width="3" height="7.54"/><rect class="cls-5" x="427.51" y="406.87" width="3" height="3.5"/><path class="cls-5" d="M410.15,461h-8.93v-4h8.93a.39.39,0,0,0,.39-.39v-99.8a11.87,11.87,0,0,0-11.86-11.86h-4.87v-4h4.87a15.87,15.87,0,0,1,15.86,15.86v99.8A4.4,4.4,0,0,1,410.15,461Z"/><path class="cls-5" d="M412.94,458.4h-.4v-4h.4c7.9,0,14.33-6.84,14.33-15.26V412h4v27.13C431.27,449.76,423.05,458.4,412.94,458.4Z"/><path class="cls-5" d="M431.27,383.05h-4V370.86c0-8.41-6.43-15.26-14.33-15.26h-.4v-4h.4c10.11,0,18.33,8.64,18.33,19.26Z"/><rect class="cls-5" x="412.54" y="437.14" width="16.72" height="4"/><line class="cls-1" x1="322.5" y1="446.08" x2="339.23" y2="446.08"/><path class="cls-1" d="M348.3,438h0a20.66,20.66,0,0,1-20.67-20.67V353.26H348.3Z"/><rect class="cls-2" x="339.79" y="353.6" width="5.17" height="85.74" transform="translate(684.75 792.93) rotate(-180)"/><path class="cls-3" d="M345.22,438.83V456.1h-.4c-9,0-16.33-7.73-16.33-17.27Z"/><path class="cls-4" d="M340.34,439.73v16.82A15.89,15.89,0,0,0,344,457h.4V439.73Z"/><rect class="cls-5" x="326.99" y="385.06" width="3" height="3.5"/><rect class="cls-5" x="326.99" y="393.94" width="3" height="7.54"/><rect class="cls-5" x="326.99" y="406.87" width="3" height="3.5"/><path class="cls-5" d="M401.22,461H347.35a4.4,4.4,0,0,1-4.39-4.39v-99.8a15.88,15.88,0,0,1,15.86-15.86h35v4h-35A11.87,11.87,0,0,0,347,356.77v99.8a.4.4,0,0,0,.39.39h53.87Z"/><path class="cls-5" d="M345,458.4h-.4c-10.1,0-18.32-8.64-18.32-19.26V412h4v27.13c0,8.42,6.42,15.26,14.32,15.26h.4Z"/><path class="cls-5" d="M330.24,383.05h-4V370.86c0-10.62,8.22-19.26,18.32-19.26h.4v4h-.4c-7.9,0-14.32,6.85-14.32,15.26Z"/><rect class="cls-5" x="328.24" y="437.14" width="16.72" height="4"/><path class="cls-6" d="M328.78,434.29a1,1,0,0,1-.7-.28,1,1,0,0,1,0-1.42l10.07-10.32a1,1,0,0,1,1.41,0,1,1,0,0,1,0,1.42L329.49,434A1,1,0,0,1,328.78,434.29Z"/><path class="cls-6" d="M332.88,424.81a1.05,1.05,0,0,1-.7-.28,1,1,0,0,1,0-1.42l6-6.22a1,1,0,1,1,1.44,1.38l-6,6.23A1,1,0,0,1,332.88,424.81Z"/><path class="cls-2" d="M350.36,414.92a1.85,1.85,0,0,1,.22,1,4.87,4.87,0,0,0,0,.66,4.35,4.35,0,0,1,0,.51,12,12,0,0,0,.05,1.47c.08.9,0,5.55,0,6,0,.71,0,2.86,0,3.23s0,2.15,0,2.64a3.74,3.74,0,0,1,0,.58c0,.84.15,1.67.13,2.5,0,.52,0,1,0,1.55,0,.12,0,.24,0,.36-.06,1.33,0,2.65,0,4,0,.26,0,.54,0,.8s0,.35,0,.52a26,26,0,0,1,0,2.79c0,.12,0,.25,0,.36.08.69,0,1.37,0,2.06,0,.22,0,.44,0,.66s0,.34,0,.51c0,.76,0,1.52,0,2.28a.75.75,0,0,0,0,.15,13.06,13.06,0,0,1-.07,2.42,5.94,5.94,0,0,0,0,1.46,1,1,0,0,1,0,.29,14.45,14.45,0,0,0-.06,1.47.14.14,0,0,1,0,.06c0,.08-.31.17-.37.16a3.31,3.31,0,0,1-.87-.41,1.17,1.17,0,0,1-.06-.2,1,1,0,0,0-.19-.58.48.48,0,0,1-.08-.34c.09-1,0-2,.06-2.94,0-.42,0-.83,0-1.25v-6.25c0-.37,0-.74,0-1.1s0-.69,0-1c0-.59,0-1.18,0-1.76V437l0-4.19v-.15c-.13-.85-.08-3.44-.08-3.61,0-.77,0-1.52,0-2.28s0-1.52,0-2.28,0-1.32,0-2c0-.1,0-.19,0-.29.05-1.08.09-5.48.09-6a.63.63,0,0,1,.08-.34c.05-.09.08-.22.13-.32a2.2,2.2,0,0,0,.17-.25,3,3,0,0,0,.08-.35.17.17,0,0,1,.21-.14C350,414.85,350.27,414.89,350.36,414.92Z"/><circle class="cls-2" cx="402.32" cy="442.99" r="7.89"/><circle class="cls-2" cx="393.81" cy="429.57" r="3.05"/><rect class="cls-3" x="365.55" y="313.43" width="25.96" height="47.59" rx="12.98"/><path class="cls-4" d="M390.23,330.28v13.89c-12.3-3.19-20.52-7.69-26-12.54v-.48Z"/><path class="cls-5" d="M378.3,363a15,15,0,0,1-15-15V326.4a15,15,0,0,1,30,0V348A15,15,0,0,1,378.3,363Zm0-47.59a11,11,0,0,0-11,11V348a11,11,0,1,0,22,0V326.4A11,11,0,0,0,378.3,315.43Z"/><path class="cls-5" d="M382.27,347.72a4.37,4.37,0,0,1-7.82-.49c-.06-.12.27-.56.8-.7a2,2,0,0,1,1-.08,2.58,2.58,0,0,0,3,1.73,3,3,0,0,0,1.2-.45l.36-.42c.16-.19.35-.36.6-.23C382,347.32,382.33,347.61,382.27,347.72Z"/><path class="cls-5" d="M335.6,331.36l-.17-8c0-.1.44-.36,1-.37s1,.23,1,.33l-.29,5.37-.19,1.58c0,.1.21,1.26-.35,1.27S335.6,331.46,335.6,331.36Z"/><path class="cls-5" d="M338.82,322.78l-5.73,8.15c-.07.1-.62.1-1.08-.22s-.63-.84-.56-.94l4.17-5.21,1.31-1.48c.07-.1.75-1.38,1.2-1.06S338.89,322.68,338.82,322.78Z"/><path class="cls-5" d="M447.18,319.82l-6.66-11.06a1.1,1.1,0,0,1,.56-1,1.08,1.08,0,0,1,1.15,0l4.11,7.6,1.12,2.29c.08.14,1.2,1.64.73,1.93S447.26,320,447.18,319.82Z"/><path class="cls-5" d="M443.61,305.42l-1.27,16.25a1.05,1.05,0,0,1-2-.15l1.26-10.84.47-3.18c0-.2,0-2.56.58-2.52S443.63,305.22,443.61,305.42Z"/><path class="cls-5" d="M476.47,86.43l-.62,12.89c0,.16-.47.56-1,.53a1.12,1.12,0,0,1-1-.62l.82-8.6L475,88.1c0-.16-.08-2,.47-2S476.47,86.27,476.47,86.43Z"/><path class="cls-5" d="M471.42,100.37l10.11-12.79a1.09,1.09,0,0,1,1.23,0,1.12,1.12,0,0,1,.34,1.19L476,97.12l-2.16,2.38c-.12.16-1.44,2.12-1.87,1.78S471.3,100.53,471.42,100.37Z"/><path class="cls-5" d="M313.33,248.48h0Z"/><path class="cls-5" d="M313.16,248.48h0Z"/><path class="cls-5" d="M311,321.54l1-8c0-.1.49-.3,1-.23a1.29,1.29,0,0,1,.95.48l-1.1,5.27-.42,1.54c0,.09,0,1.27-.52,1.19S311,321.64,311,321.54Z"/><path class="cls-5" d="M315.48,313.53l-6.89,7.21a1.15,1.15,0,0,1-1-.38c-.4-.38-.51-.92-.42-1l4.9-4.53,1.51-1.27c.09-.08.95-1.25,1.35-.87S315.57,313.44,315.48,313.53Z"/><path class="cls-5" d="M470,284.09l-7.43-3c-.1,0-.17-.55,0-1.06s.61-.83.71-.79l4.81,2.39,1.38.8c.1,0,1.24.3,1,.81S470,284.13,470,284.09Z"/><path class="cls-5" d="M463.33,277.75l5.23,8.48c.06.1-.15.61-.62.9a1.18,1.18,0,0,1-1.09.15l-3.14-5.89-.84-1.78c-.07-.11-1-1.24-.5-1.53S463.27,277.64,463.33,277.75Z"/><path class="cls-5" d="M278.76,255.48l3.95-7c.05-.09.57-.09,1.05.18h0c.48.27.74.72.69.8l-3,4.47-1,1.26c-.05.09-.46,1.19-.94.91S278.71,255.56,278.76,255.48Z"/><path class="cls-5" d="M285.92,249.74l-9.1,4.08c-.11.05-.58-.23-.81-.73a1.16,1.16,0,0,1,0-1.1l6.25-2.35,1.88-.6c.11,0,1.35-.81,1.58-.3S286,249.69,285.92,249.74Z"/><path class="cls-7" d="M284.92,189.06s-19.44-38.3,11.82-83h16.84v83Z"/><path class="cls-8" d="M315.89,112.3v9.15c-3.1-.69-6.18-1.47-9.21-2.36A71.67,71.67,0,0,1,293,113.57q2.31-4.2,5.24-8.49A69.71,69.71,0,0,0,314,111.77Z"/><path class="cls-5" d="M316,191.56h-32.7l-.69-1.37c-.21-.41-5.11-10.21-6.08-25.71-.89-14.23,1.52-36.16,18.08-59.82l.75-1.07H316Zm-29.54-5H311v-78H298C272.15,146.45,283.56,179.54,286.49,186.56Z"/><rect class="cls-1" x="264.59" y="191.83" width="45.05" height="37.17" rx="18.58"/><rect class="cls-3" x="272.04" y="195.22" width="34.16" height="28.18" rx="14.09"/><path class="cls-5" d="M291.06,230.43h-7.88a21.09,21.09,0,1,1,0-42.17h7.88a21.09,21.09,0,0,1,0,42.17Zm-7.88-37.17a16.09,16.09,0,1,0,0,32.17h7.88a16.09,16.09,0,0,0,0-32.17Z"/><rect class="cls-9" x="442.92" y="191.83" width="45.05" height="37.17" rx="18.58"/><rect class="cls-3" x="451.04" y="197.43" width="28.81" height="23.77" rx="11.88"/><path class="cls-5" d="M469.38,230.43H461.5a21.09,21.09,0,0,1,0-42.17h7.88a21.09,21.09,0,1,1,0,42.17Zm-7.88-37.17a16.09,16.09,0,0,0,0,32.17h7.88a16.09,16.09,0,1,0,0-32.17Z"/><rect class="cls-3" x="287.22" y="88.94" width="180.2" height="237.99" rx="90.1"/><path class="cls-1" d="M379.54,328.34c-1.15.05-2.31.07-3.47.07a90.1,90.1,0,0,1-90.1-90.1V180.52a90.1,90.1,0,0,1,90.1-90.1c1.16,0-5.68,0-4.53.07-48.16,1.81-75.64,41.43-75.64,90v57.79C295.9,286.91,331.38,326.53,379.54,328.34Z"/><path class="cls-5" d="M279.75,202.25a9,9,0,0,0-.23,15.13A3.91,3.91,0,0,1,279,220c-.64,1.22-2,1.75-2.27,1.53a13.8,13.8,0,0,1-5-7.46,13.31,13.31,0,0,1,.64-8.62,12.6,12.6,0,0,1,3-3.95,7.13,7.13,0,0,1,1.47-1.44c.77-.54,1.67-.77,2-.17C279.52,201.08,279.93,202.14,279.75,202.25Z"/><path class="cls-5" d="M475.67,197.82a14,14,0,0,1,.36,23.49c-.29.22-1.63-.31-2.27-1.53a3.91,3.91,0,0,1-.54-2.61,9.23,9.23,0,0,0,4-4.54,9.85,9.85,0,0,0,.37-6.4,10.24,10.24,0,0,0-1.62-3.7l-1.31-1.15c-.58-.53-1.12-1.11-.79-1.72C474.58,198.46,475.37,197.63,475.67,197.82Z"/><path class="cls-4" d="M460.82,197a1.12,1.12,0,0,1,.21.75c0,.16,0,.33,0,.5s0,.26,0,.39a6,6,0,0,0,0,1.12c.08.69,0,4.24,0,4.6,0,.54,0,2.19,0,2.47s0,1.64.05,2a2.26,2.26,0,0,1,0,.45c0,.64.15,1.27.13,1.91,0,.39,0,.78,0,1.18a2.62,2.62,0,0,1,0,.28c-.06,1,0,2,0,3,0,.21,0,.42,0,.62a2.67,2.67,0,0,0,0,.4,13.77,13.77,0,0,1,0,2.13,1.31,1.31,0,0,0,0,.28,13.71,13.71,0,0,1,0,1.57,4.34,4.34,0,0,1,0,.51c0,.13,0,.26,0,.39,0,.58,0,1.16,0,1.74a.4.4,0,0,0,0,.11,7.63,7.63,0,0,1-.07,1.85,3.5,3.5,0,0,0,0,1.12.55.55,0,0,1,0,.22,10.52,10.52,0,0,0-.07,1.12s0,0,0,.06-.31.12-.38.12a4.08,4.08,0,0,1-.87-.31.43.43,0,0,1-.05-.16.67.67,0,0,0-.2-.44.35.35,0,0,1-.07-.26c.09-.75,0-1.5.06-2.25,0-.31,0-.63,0-.95v-4.78a7.87,7.87,0,0,1,0-.84,6.85,6.85,0,0,0,0-.79l0-1.34v-5.12a.4.4,0,0,0,0-.11,22.06,22.06,0,0,1-.09-2.76c0-.59,0-1.16,0-1.75s0-1.15,0-1.73,0-1,0-1.52a1.77,1.77,0,0,1,0-.23c0-.82.08-4.19.08-4.6a.41.41,0,0,1,.09-.26c0-.07.07-.16.12-.24s.14-.12.18-.19a2.58,2.58,0,0,0,.08-.26.17.17,0,0,1,.21-.11Z"/><path class="cls-1" d="M315.85,127.6a74.57,74.57,0,0,0-6,10.32c-.88,1.79-1.74,3.61-2.6,5.43a28.48,28.48,0,0,0-2.07,5.44c-.07.26-.65.9-1.19.82s-.84-1-.76-1.28a40.49,40.49,0,0,1,3.27-7.59c1.21-2.41,2.45-4.81,3.79-7.17.82-1.37,1.67-2.72,2.58-4,.12-.27,1.95-3.29,2.42-3S316,127.36,315.85,127.6Z"/><path class="cls-10" d="M300.8,157.31l1.14-5.64a1.64,1.64,0,0,1,1,0c.54.11.94.38.92.45l-1.16,3.69-.44,1.07c0,.06,0,.91-.54.8S300.79,157.38,300.8,157.31Z"/><path class="cls-5" d="M377.78,240.3a2.5,2.5,0,0,1-2.5-2.5V212.14a2.5,2.5,0,0,1,5,0V237.8A2.5,2.5,0,0,1,377.78,240.3Z"/><path class="cls-5" d="M376.69,332a92.7,92.7,0,0,1-92.6-92.6V181.65a92.6,92.6,0,0,1,185.2,0v57.79A92.7,92.7,0,0,1,376.69,332Zm0-238a87.7,87.7,0,0,0-87.6,87.6v57.79a87.6,87.6,0,0,0,175.2,0V181.65A87.7,87.7,0,0,0,376.69,94.05Z"/><path class="cls-7" d="M466.87,188.57c-16.54-20.56-25.94-51.35-27.78-77.68-25.49,5.4-51.26,10.83-77.3,10.13-16.72-.45-34-2.34-50.09-7-19.56-5.71-33.86-17.83-41-37.11l-5.08-14.54s37.24,15.14,93.78-18,112.32,15.75,112.32,60.44l14.6-7.71s10,60.38-16.72,90.7"/><path class="cls-11" d="M440.27,123c-25.93,2.58-53.79,6.4-79.6,2.84-16.56-2.28-29.53-4-45-10.48,0,0,1,0,.93,0,.45-.47-4.09-.93-3.62-1.38,15.66,4.4,32.4,6.18,48.61,6.63,25,.67,49.7-4.3,74.17-9.47q1.78,1.58,3.47,3.26"/><path class="cls-12" d="M437.33,108.72c-25.48,5.41-51.25,10.83-77.3,10.13-16.71-.45-34-2.34-50.09-7-19.56-5.71-33.85-17.83-41-37.1l-5.08-14.55a52.14,52.14,0,0,0,11.38,2.65l15.79.09c-.14,0,2.42,10.62,2.67,11.64.94,3.71,3.51,7.19,5.86,10.23,0,0,18.72,32.49,138.11,24.34"/><path class="cls-8" d="M468.65,187.5,467,189.3q-.88-1.1-1.74-2.25a107.35,107.35,0,0,0-99-148C420,14.43,470.78,60.88,470.78,103.51l14.6-7.71S495.42,157.18,468.65,187.5Z"/><path class="cls-5" d="M301.48,103.08l-3.28-2.2a2.15,2.15,0,0,1,.41-.93,2,2,0,0,1,.71-.73l2,1.81.52.62s.62.2.31.65A2.87,2.87,0,0,1,301.48,103.08Z"/><path class="cls-5" d="M321.89,108.83a50.49,50.49,0,0,1-16-3.55,1.08,1.08,0,0,1-.29-1.2,1.13,1.13,0,0,1,1-.66,48.48,48.48,0,0,0,10.09,3.24c1,.24,2,.46,3.08.63.2,0,2.51,0,2.48.56S322.09,108.84,321.89,108.83Z"/><path class="cls-5" d="M364.68,48.25a45.32,45.32,0,0,1-12.86,7,1.06,1.06,0,0,1-.93-.74,1.1,1.1,0,0,1,.27-1.15,43.22,43.22,0,0,0,8.69-3.67c.83-.42,1.65-.87,2.45-1.35.16-.09,1.69-1.47,2-1S364.83,48.14,364.68,48.25Z"/><path class="cls-5" d="M370.86,45l-4.11,2.18c-.05,0-.39-.3-.65-.79a1.8,1.8,0,0,1-.29-1l2.94-1.09.92-.24c.05,0,.56-.5.82,0A2.53,2.53,0,0,1,370.86,45Z"/><path class="cls-5" d="M294.81,120.85a19.64,19.64,0,0,0-1.29,6.52,1.43,1.43,0,0,1-1,.29,1.28,1.28,0,0,1-1-.34,21.1,21.1,0,0,1,1.08-4.76c.19-.44.39-.88.61-1.3,0-.08.21-1.12.73-.92S294.84,120.77,294.81,120.85Z"/><path class="cls-5" d="M298,120.2l-1.74,4.72a2.39,2.39,0,0,1-1.88-.69l1.55-3,.55-.85c0-.06.11-.8.62-.61S298.05,120.14,298,120.2Z"/><path class="cls-5" d="M475.4,135.61a148.94,148.94,0,0,1-7.12,52.14c-.2.62-1.16,2.09-1.68,1.91s-.42-1.92-.22-2.53A147,147,0,0,0,473.51,153c.33-3.42.57-6.85.65-10.29,0-.32,0-2.38-.06-4.35s0-3.87.26-3.88A1.07,1.07,0,0,1,475.4,135.61Z"/><path class="cls-5" d="M481.12,148.66a226.79,226.79,0,0,1-11.55,39.11c-.18.47-1.09,1.52-1.6,1.31s-.44-1.59-.26-2.05a225.36,225.36,0,0,0,8.83-25.59c.74-2.56,1.45-5.13,2.1-7.71.14-.48,1.15-6.26,1.68-6.15A1,1,0,0,1,481.12,148.66Z"/><path class="cls-7" d="M435.29,317.51c-12.22,7.78-26.74,14.29-42.3,14.29l-29.81,1c-15.56,0-30.08-7.51-42.3-15.29-25.75-16.38-39.23-46.59-35.27-76.85l1.66-12.74s25.36,32.47,54.3,35.38c9.51.95.52-20.13,36.34-20.05h.35c30.2,0,26.83,21,36.34,20.05,28.94-2.91,54.3-35.38,54.3-35.38l1.66,12.74C474.52,270.92,461,301.13,435.29,317.51Z"/><path class="cls-1" d="M380.41,331.58c-1.15.05-4.31,1.07-5.47,1.07-10.49,0-19.35-1-29.95-1.46a78.51,78.51,0,0,1-25.25-10.44c-25.75-16.38-39.23-46.59-35.27-76.85l1.66-12.74s2.08,2.37,8.73,8.74C279.22,293.49,332.62,329.78,380.41,331.58Z"/><path class="cls-8" d="M433.13,319.88a78.52,78.52,0,0,1-42.3,12.29H378.37a78.52,78.52,0,0,0,42.3-12.29c25.75-16.38,39.23-46.59,35.27-76.85l-.13-1a121.91,121.91,0,0,0,10.93-11.76L468.4,243C472.36,273.29,458.88,303.5,433.13,319.88Z"/><path class="cls-8" d="M434.76,72.35a59.86,59.86,0,0,0-29.34-21.19c-.43-.14-1.42-.93-1.27-1.46s1.44-.59,1.89-.44a61.55,61.55,0,0,1,21.58,12.92,60.34,60.34,0,0,1,5.07,5.42c.16.16,1.15,1.26,2,2.38s1.57,2.29,1.35,2.45A1,1,0,0,1,434.76,72.35Z"/><circle class="cls-8" cx="454.64" cy="90.04" r="7.73"/><circle class="cls-12" cx="298.35" cy="80.44" r="7.73"/><ellipse class="cls-13" cx="445.42" cy="101.43" rx="3.08" ry="2.25"/><ellipse class="cls-13" cx="442.7" cy="86.81" rx="1.54" ry="1.12"/><ellipse class="cls-14" cx="310.71" cy="84.96" rx="2.13" ry="1.56" transform="matrix(0.51, -0.86, 0.86, 0.51, 79.9, 309.64)"/><ellipse class="cls-14" cx="310.82" cy="76.81" rx="2.69" ry="1.97" transform="translate(86.97 305.73) rotate(-59.52)"/><path class="cls-4" d="M300.7,178.44c12.76-15,33.48-24.06,54.38-23.69,5.62.11,12.1,1.37,14.75,6a12,12,0,0,1,1.39,5.41c.15,2.67-.21,5.6-2.27,7.46-1.86,1.68-4.67,2.08-7.29,2.14-9.93.24-19.63-3.27-29.57-3.42-10.7-.15-20.89,3.6-30.75,7.28"/><path class="cls-7" d="M300.71,172.67c13.16-16.82,31.54-27,52.88-26.72,5.74.07,12.35,1.42,15,6.5a14.07,14.07,0,0,1,1.37,6c.14,3-.26,6.22-2.38,8.3-1.91,1.88-4.78,2.35-7.46,2.44-10.14.34-20-3.49-30.17-3.57-10.93-.08-16.68,4.3-26.78,8.47"/><path class="cls-8" d="M299.61,172.66l.64,1.27c10.11-4.17,20.54-8.42,31.47-8.32,10.15.07,20,3.89,30.17,3.56,2.68-.09,5.56-.56,7.46-2.45s2.46-4.93,2.39-7.74c-2.88,2.12-6.8,4.28-10.42,4.27a62.09,62.09,0,0,1-14.53-1.42,74.3,74.3,0,0,0-33.28-.32C306.1,165.89,304.92,165.87,299.61,172.66Z"/><path class="cls-5" d="M298.35,171.9a11.58,11.58,0,0,1,2.25-3.49c.64-.66,1.22-1.39,1.84-2.09a13.92,13.92,0,0,1,1.5-1.57c.79-.69,1.52-1.42,2.28-2.13s1.54-1.38,2.3-2.09a17.36,17.36,0,0,1,1.64-1.34c.73-.54,1.57-1.24,2.58-1.92s2.11-1.41,3.28-2.14,2.42-1.43,3.67-2.08,2.51-1.29,3.71-1.83l3.35-1.45c2.06-.75,3.56-1.31,4-1.46l3-.94c1.25-.38,2.69-.68,4.06-1.05,2.78-.61,5.41-1.07,6.18-1.2.4-.09,1.16-.21,2.12-.34s2.11-.19,3.28-.28,2.35-.1,3.37-.13,1.87-.07,2.41-.06a16.91,16.91,0,0,1,2.55.14,38.37,38.37,0,0,1,5.49.92,13.74,13.74,0,0,1,5.32,2.57,12.26,12.26,0,0,1,4.13,6.44,13.51,13.51,0,0,1,.36,1.72,28.24,28.24,0,0,1,.18,4.5,14.71,14.71,0,0,1-.91,4.72,9.17,9.17,0,0,1-3.21,4.19,11.39,11.39,0,0,1-4.66,1.81,21.09,21.09,0,0,1-3.66.26l-2.23,0A54.89,54.89,0,0,1,346.89,170a13.1,13.1,0,0,0-1.49-.3c-2.81-.31-5.52-1-8.26-1.33l-2.62-.31c-.68-.05-1.36-.17-2-.16a50.08,50.08,0,0,0-9,.64,5.86,5.86,0,0,0-.58.1c-3.13.77-6.28,1.39-9.43,2.24a30.46,30.46,0,0,0-5.6,2,6.18,6.18,0,0,1-1.09.47c-1.9.59-3.76,1.37-5.64,2.1a2.29,2.29,0,0,1-.28.08c-.31.09-.91-.47-1-.63a8.17,8.17,0,0,1,.73-2.65,7.43,7.43,0,0,1,.73-.44,6.3,6.3,0,0,0,2.06-1.35,3.12,3.12,0,0,1,1.25-.7c3.87-1.28,7.71-2.83,11.75-3.84,1.71-.41,3.43-.9,5.18-1.21a47.9,47.9,0,0,1,13.42-.7c4.45.4,8.74,1.28,12.94,2,1.48.27,2.94.54,4.39.84a33.36,33.36,0,0,0,4.08.57c1.17.1,2.33.14,3.49.13a24.28,24.28,0,0,0,3.36-.2,7.82,7.82,0,0,0,3.81-1.46A5.78,5.78,0,0,0,369,162.6a14.37,14.37,0,0,0,.27-3.81,15.2,15.2,0,0,0-.57-3.8,8.38,8.38,0,0,0-4.64-5.15,4.16,4.16,0,0,0-.48-.22,26.69,26.69,0,0,0-3.23-.84,30.57,30.57,0,0,0-4.43-.51c-3-.06-5.86,0-6.19.09-1.52.13-3,.24-4.54.5-.76.11-1.51.2-2.26.33l-2.24.44a81.55,81.55,0,0,0-8.79,2.39c-1.25.45-2.49.92-3.73,1.4l-3.62,1.66c-.35.18-.69.38-1,.55a64.62,64.62,0,0,0-11,6.68,63.44,63.44,0,0,0-8.4,7.51,4.2,4.2,0,0,1-1.09.84c-.37.18-.72.55-1.07.76s-.65.26-1,.5-.69.65-1.05,1-.68.35-.79.11S298.45,172.14,298.35,171.9Z"/><path class="cls-4" d="M449.2,178.38c-12.77-15-33.48-24.06-54.38-23.69-5.62.11-12.1,1.37-14.76,6a12,12,0,0,0-1.39,5.41c-.15,2.67.22,5.6,2.28,7.46,1.86,1.68,4.66,2.08,7.29,2.14,9.92.24,19.63-3.27,29.56-3.41,10.7-.16,20.89,3.59,30.75,7.27"/><path class="cls-7" d="M450.18,172.61c-13.15-16.82-31.53-27-52.88-26.72-5.74.07-12.35,1.42-15,6.5a14.23,14.23,0,0,0-1.38,6c-.13,3,.26,6.22,2.38,8.3,1.91,1.88,4.78,2.35,7.46,2.44,10.14.34,20-3.49,30.18-3.57,10.92-.08,16.68,4.3,26.78,8.47"/><path class="cls-8" d="M450.28,172.6l-.64,1.27c-10.11-4.17-20.54-8.42-31.46-8.32-10.15.07-20,3.89-30.18,3.56-2.68-.09-5.55-.56-7.46-2.45s-2.45-4.93-2.39-7.74c2.88,2.12,6.8,4.28,10.43,4.27a62.14,62.14,0,0,0,14.53-1.42,74.25,74.25,0,0,1,33.27-.32C443.8,165.83,445,165.81,450.28,172.6Z"/><path class="cls-5" d="M449.7,173.29a12.58,12.58,0,0,1-2.94-2.66c-.6-.65-1.26-1.24-1.88-1.86s-1-.93-1.5-1.41c-.71-.7-1.4-1.4-2.16-2s-1.55-1.21-2.33-1.79c-.35-.29-.91-.68-1.61-1.19s-1.5-1.14-2.45-1.78-2-1.35-3.09-2-2.27-1.39-3.44-2-2.35-1.27-3.47-1.81l-3.15-1.44c-1.93-.76-3.33-1.34-3.78-1.49l-2.87-.95c-1.17-.39-2.54-.7-3.84-1.06a42.22,42.22,0,0,0-5.88-1.06c-.39,0-1.11-.11-2-.23s-2-.16-3.1-.26-2.22-.11-3.18-.13-1.79,0-2.26,0l-2.28.15a15.89,15.89,0,0,0-8.4,3.12,7.28,7.28,0,0,0-2.66,4.09c-.11.41-.16.83-.25,1.26a13.47,13.47,0,0,0,.37,7,4.78,4.78,0,0,0,1.71,2.21,7.83,7.83,0,0,0,2.93,1.11,16.51,16.51,0,0,0,3,.31,19.25,19.25,0,0,0,2,0c3.66-.26,7.36-.72,11.13-1.29a14.47,14.47,0,0,0,1.49-.25,79.41,79.41,0,0,1,8.46-1.45c.92-.14,1.86-.2,2.8-.28l2.21-.1a43.83,43.83,0,0,1,9.78.58l.62.1a42,42,0,0,1,9.87,2.72,58.38,58.38,0,0,0,5.78,2,8.67,8.67,0,0,1,1.15.4c1.83.87,3.73,1.62,5.58,2.43a2,2,0,0,1,.25.14c.29.15.32,1,.25,1.13a8.25,8.25,0,0,1-2.38,1.37,6.12,6.12,0,0,1-.82-.2,6,6,0,0,0-2.4-.45,3.16,3.16,0,0,1-1.37-.35,85.34,85.34,0,0,0-11.19-4,48.22,48.22,0,0,0-4.87-1.1,43.76,43.76,0,0,0-12.29-.65c-4.14.37-8.3,1.21-12.57,2-1.5.27-3,.5-4.57.65s-2.88.28-4.34.39c-1.25.1-2.51.17-3.78.18a24.75,24.75,0,0,1-3.9-.2,11.44,11.44,0,0,1-5.68-2.28,9.56,9.56,0,0,1-3.13-5.46,17.9,17.9,0,0,1-.33-4.8,18.57,18.57,0,0,1,.76-4.72,11.51,11.51,0,0,1,2.55-4.42,13.33,13.33,0,0,1,4-2.9l.62-.29a16.43,16.43,0,0,1,3.84-1.37,29.06,29.06,0,0,1,5.07-.67,60.2,60.2,0,0,1,6.65.15c1.61.11,3.22.21,4.82.46.8.11,1.6.2,2.4.34l2.37.47a68.19,68.19,0,0,1,9.31,2.55l3.92,1.52,3.85,1.69c.37.19.76.36,1.12.56a79,79,0,0,1,11.45,7.36,72.53,72.53,0,0,1,8.76,8,4.34,4.34,0,0,1,.82,1.18c.19.37.47.83.63,1.22s.16.71.34,1.09.53.82.78,1.24.22.72-.05.78S450,173.25,449.7,173.29Z"/><path class="cls-15" d="M313.83,296.8A76.45,76.45,0,0,1,297.91,272c-.14-.34-.07-1.39.45-1.58s1.28.52,1.41.85a74,74,0,0,0,9,17.07c1.08,1.58,2.2,3.12,3.4,4.61.11.14.9,1,1.63,1.79s1.39,1.64,1.19,1.83C314.61,297,314.08,297.06,313.83,296.8Z"/><path class="cls-15" d="M329,304.28a51.91,51.91,0,0,1-17.41-16.13,1,1,0,1,1,1.66-1.11,50,50,0,0,0,10.17,11.56c1.15,1,2.33,2,3.58,2.86.12.08.91.53,1.65,1s1.43,1,1.3,1.2C329.72,304.15,329.3,304.43,329,304.28Z"/><path class="cls-5" d="M425.74,272.64l-4.26-6.79c-.06-.08.19-.54.65-.83s1-.32,1-.23l2.5,4.76.66,1.45c.05.09.82,1,.35,1.26S425.79,272.73,425.74,272.64Z"/><path class="cls-5" d="M424.09,263.63l-.73,9.93c0,.13-.48.41-1,.37s-1-.39-1-.51l.9-6.62.37-1.94c0-.12-.07-1.57.48-1.53S424.1,263.5,424.09,263.63Z"/><path class="cls-5" d="M409,318.63l-4.27-6.79c-.05-.08.19-.54.66-.83s1-.32,1-.23l2.5,4.76.65,1.45c.06.08.82,1,.36,1.26S409.07,318.72,409,318.63Z"/><path class="cls-5" d="M407.37,309.61l-.74,9.94c0,.12-.48.41-1,.37s-1-.4-1-.52l.9-6.61.36-1.94c0-.12-.06-1.57.49-1.53S407.38,309.49,407.37,309.61Z"/><path class="cls-5" d="M302,257.06l.93-8c0-.1.49-.31,1-.24s1,.37,1,.47l-1,5.28-.4,1.54c0,.1,0,1.27-.52,1.21S301.94,257.16,302,257.06Z"/><path class="cls-5" d="M306.31,249l-6.79,7.29c-.08.09-.63,0-1-.36s-.52-.92-.43-1l4.84-4.6,1.5-1.28c.08-.09.93-1.27,1.33-.89S306.4,248.91,306.31,249Z"/><ellipse class="cls-1" cx="337.13" cy="306.98" rx="1.57" ry="2.24"/><circle class="cls-1" cx="349.04" cy="317.27" r="1.71"/><path class="cls-1" d="M332.43,320a6.58,6.58,0,1,1,12.35,4.56"/><path class="cls-1" d="M306.59,240.69a1.46,1.46,0,0,1,.82.37c.15.12.33.22.49.33a3.19,3.19,0,0,1,.38.26,8,8,0,0,0,1.06.77c.68.45,3.94,3,4.27,3.27.51.38,2,1.54,2.35,1.67s1.57,1.1,2,1.29a3.29,3.29,0,0,1,.44.28c.6.44,1.33.67,1.94,1.08.38.25.78.48,1.17.7.1.06.2.1.29.16,1,.65,2.06,1.12,3.09,1.67l.63.32c.13.07.27.15.41.21.76.31,1.5.65,2.23,1a1.6,1.6,0,0,0,.3.13,17.21,17.21,0,0,1,1.7.61l.55.19c.14,0,.28.11.43.15.65.15,1.27.4,1.93.53l.12,0a18.31,18.31,0,0,1,2.06.53,4.17,4.17,0,0,0,1.26.22,1.06,1.06,0,0,1,.25,0,3.53,3.53,0,0,0,1.14.11h.05c.06,0,.16.3.18.36a2.26,2.26,0,0,1-.29.91.73.73,0,0,1-.2.05,1.36,1.36,0,0,0-.6.17.42.42,0,0,1-.35,0c-.91-.21-1.77-.34-2.66-.54l-1.11-.27a39.75,39.75,0,0,1-5.44-1.78c-.31-.13-.61-.27-.91-.43s-.56-.28-.84-.41l-1.46-.67c-.69-.32-1.34-.7-2-1.05-1.11-.62-2.21-1.25-3.28-1.93l-.11-.07a23,23,0,0,1-2.79-1.72c-.57-.38-1.14-.76-1.7-1.16s-1.13-.78-1.67-1.19-1-.71-1.44-1.07c-.07-.05-.15-.09-.22-.15l-4.23-3.37a.55.55,0,0,1-.19-.26c0-.09-.11-.18-.15-.27a1.43,1.43,0,0,0-.07-.28,2.07,2.07,0,0,0-.19-.25.17.17,0,0,1,0-.25C306.29,241,306.52,240.74,306.59,240.69Z"/><path class="cls-16" d="M315.63,242.79a.64.64,0,0,1,.53.07,1.46,1.46,0,0,0,.31.14,1,1,0,0,1,.23.12,2.72,2.72,0,0,0,.66.33c.44.17,2.4,1.48,2.59,1.61s1.22.78,1.4.84.93.55,1.17.64a1.28,1.28,0,0,1,.25.15c.35.24.8.29,1.15.52s.45.26.67.39l.16.09c.55.38,1.17.63,1.74,1l.35.21a2.53,2.53,0,0,0,.23.12,7.24,7.24,0,0,1,1.22.67.51.51,0,0,0,.16.09,7.84,7.84,0,0,1,.93.43,2.64,2.64,0,0,1,.29.15,2.53,2.53,0,0,0,.23.12c.36.12.7.31,1.05.45l.07,0a3.74,3.74,0,0,1,1.08.53,1.38,1.38,0,0,0,.68.26.33.33,0,0,1,.14,0,4.39,4.39,0,0,0,.66.31l0,0a1.1,1.1,0,0,1-.05.38,7.49,7.49,0,0,1-.49.75.25.25,0,0,1-.12,0,.43.43,0,0,0-.35.08.17.17,0,0,1-.19,0c-.44-.27-.93-.4-1.38-.62-.19-.1-.4-.16-.6-.25-1-.42-1.95-.88-2.91-1.35a3.48,3.48,0,0,1-.48-.3,3.35,3.35,0,0,0-.45-.27l-.8-.41-1.12-.61-1.85-1.06s0,0-.06,0a9.59,9.59,0,0,1-1.63-.87c-.33-.19-.67-.37-1-.57s-.67-.38-1-.59-.57-.35-.86-.52l-.13-.07c-.45-.32-2.33-1.5-2.57-1.64a.21.21,0,0,1-.1-.16,1.46,1.46,0,0,1-.07-.19c0-.07,0-.15,0-.22s-.08-.1-.11-.15a.19.19,0,0,1,0-.22Z"/><path class="cls-15" d="M296.57,129.94a39.45,39.45,0,0,0-7.43,15.8,1.17,1.17,0,0,1-1.15.57,1.12,1.12,0,0,1-.81-1A41.36,41.36,0,0,1,292,134c.66-1,1.35-2,2.09-2.93.1-.2,1.55-2.42,2-2.06S296.7,129.77,296.57,129.94Z"/><ellipse class="cls-4" cx="416.53" cy="214.22" rx="30.26" ry="28.95"/><circle class="cls-1" cx="416.6" cy="206.77" r="30.26"/><rect class="cls-5" x="411.13" y="190.06" width="12.6" height="31.49" rx="6.3"/><circle class="cls-1" cx="423.25" cy="200.28" r="5.91"/><path class="cls-17" d="M446.86,207.43a30.27,30.27,0,1,1-60.53,0,24.89,24.89,0,0,1,.14-2.74,30.26,30.26,0,0,0,60.26,0C446.82,205.59,446.86,206.51,446.86,207.43Z"/><path class="cls-5" d="M388.76,209.39a28.22,28.22,0,0,0,56.16,1.84,7,7,0,0,1,.29-1,7.14,7.14,0,0,1,.49-1.21c.4-.79.94-1.49,1.49-1.5s1,.73,1.33,1.64a9.42,9.42,0,0,1,.36,1.41,4,4,0,0,1,0,1.16,32,32,0,0,1-18,24.38c-.6.26-1.18.56-1.78.8l-1.85.65-.93.33-.95.23-1.9.46c-.63.13-1.28.19-1.93.29a17.81,17.81,0,0,1-1.93.22,31.72,31.72,0,0,1-3.9,0,30.94,30.94,0,0,1-14.69-4.47,31.22,31.22,0,0,1-11.87-13.32,27.14,27.14,0,0,1-2.57-7.11c-.7-3.39-.48-6.71,0-6.69A2.08,2.08,0,0,1,388.76,209.39Z"/><ellipse class="cls-4" cx="339.2" cy="212.75" rx="30.61" ry="29.34"/><circle class="cls-1" cx="339.13" cy="205.15" r="30.61"/><path class="cls-17" d="M308.52,205.83a30.61,30.61,0,1,0,61.22,0c0-.94,0-1.87-.13-2.78a30.6,30.6,0,0,1-60.95,0C308.57,204,308.52,204.89,308.52,205.83Z"/><path class="cls-5" d="M370.3,208.06a32.6,32.6,0,0,1-61.14,13.48,32.12,32.12,0,0,1-3.67-11.35,3.79,3.79,0,0,1,0-1.17,9.36,9.36,0,0,1,.36-1.43c.31-.92.78-1.66,1.33-1.66s1.09.72,1.49,1.52a8.18,8.18,0,0,1,.49,1.22,7.12,7.12,0,0,1,.29,1A28.8,28.8,0,0,0,325,232c.54.26,1.06.55,1.61.79l1.67.64.83.32.87.23,1.72.47c.59.14,1.18.21,1.77.31a13.23,13.23,0,0,0,1.77.25,26.93,26.93,0,0,0,3.59.12,29.92,29.92,0,0,0,25.64-15.87,33.3,33.3,0,0,0,2.4-6.87c.75-3.22.91-6.42,1.49-6.43A1.94,1.94,0,0,1,370.3,208.06Z"/><path class="cls-5" d="M373.19,277.75h-5.52a2,2,0,0,1,0-4h5.52A37.87,37.87,0,0,0,394.81,267a2,2,0,1,1,2.28,3.29A41.84,41.84,0,0,1,373.19,277.75Z"/><path class="cls-18" d="M313,252.85a3.64,3.64,0,0,1,1.67.92c.31.28.66.51,1,.76a7.38,7.38,0,0,1,.77.58,14.78,14.78,0,0,0,2.24,1.64c.72.44,2.81,2,4.94,3.29a47.08,47.08,0,0,0,4.67,2.53c.6.28,1.82.82,3,1.23a17.45,17.45,0,0,0,2.65.78,48.5,48.5,0,0,0,4.81.9c.35,0,.7.06,1,.09a6.5,6.5,0,0,0,3.7-.82,4.42,4.42,0,0,0,1.59-1.47l.3-.49c1.23-1.79,1.65-4.46,3.13-7,.31-.49.61-1,1-1.42l.65-.87a15.74,15.74,0,0,1,4.18-4c.21-.15.45-.27.63-.43A14.72,14.72,0,0,1,358.6,247a8.59,8.59,0,0,1,1.31-.49c.34-.12.71-.18,1-.3,1.43-.48,2.8-.78,4.23-1.21l.28-.07a19.09,19.09,0,0,1,4.65-1,16.1,16.1,0,0,0,2.89-.52,2.27,2.27,0,0,1,.58-.1c1,0,2-.08,3,0,.05,0,.09,0,.14,0s.32.63.31.76a9.86,9.86,0,0,1-.8,1.74c-.12,0-.24.09-.37.11a1.55,1.55,0,0,0-1,.44.87.87,0,0,1-.6.19,27.07,27.07,0,0,0-5.35.85c-.77.16-1.53.41-2.3.62l-2.91.8-1.47.39c-.46.14-.88.23-1.31.4a17.24,17.24,0,0,0-4.8,2.65l-1.55,1.2a8.41,8.41,0,0,0-1.33,1.27,16.54,16.54,0,0,0-1.81,2.54,27.49,27.49,0,0,0-1.86,4.18,16.94,16.94,0,0,1-2,3.94,7.73,7.73,0,0,1-4,2.83l-.33.1a7.33,7.33,0,0,1-2,.41,13.8,13.8,0,0,1-2.49-.06,29.36,29.36,0,0,1-3.1-.53,34.35,34.35,0,0,1-4.44-1.12,35.1,35.1,0,0,1-4.25-1.62c-1.19-.58-2.4-1.12-3.56-1.75l-.52-.28c-.91-.56-3.23-2-5.28-3.57s-3.91-3.14-4.3-3.49a1.27,1.27,0,0,1-.39-.56c-.07-.19-.23-.39-.3-.59a5.61,5.61,0,0,0-.13-.59,5.23,5.23,0,0,0-.39-.57.33.33,0,0,1,.08-.5C312.32,253.37,312.81,253,313,252.85Z"/><path class="cls-19" d="M306.23,259l12.67,6.41a1.08,1.08,0,0,1,.12,1.18,1.06,1.06,0,0,1-1,.61l-8.3-4.65L307.32,261c-.16-.08-2.07-.85-1.82-1.34S306.08,258.87,306.23,259Z"/><path class="cls-19" d="M386.22,253.79a89.92,89.92,0,0,0-17.89.51,1.14,1.14,0,0,1-.92-.89,1.11,1.11,0,0,1,.67-1.1,92.28,92.28,0,0,1,12.21-.34c1.2.08,2.39.18,3.58.31.22,0,2.86,0,2.82.54S386.43,253.81,386.22,253.79Z"/><path class="cls-5" d="M300.59,68A139.86,139.86,0,0,0,347,55.12c.54-.25,2.14-.52,2.38,0s-1,1.58-1.52,1.84a141.83,141.83,0,0,1-31.11,10.12c-3.15.6-6.33,1.12-9.51,1.49-.3,0-2.19.35-4,.55s-3.6.25-3.62,0A1.06,1.06,0,0,1,300.59,68Z"/><path class="cls-5" d="M428,105.36a228.62,228.62,0,0,1-73,8c-.91-.05-3.25-.62-3.21-1.18s2.42-.86,3.31-.81a226.43,226.43,0,0,0,48.79-2.33c4.75-.72,9.49-1.55,14.19-2.58.45-.08,3.23-.8,5.91-1.46s5.25-1.31,5.33-1C429.45,104.5,428.86,105.13,428,105.36Z"/><path class="cls-5" d="M417.62,103.06a167.06,167.06,0,0,1-53.31,5.78c-.66,0-2.37-.47-2.34-.87s1.77-.63,2.42-.59A165.28,165.28,0,0,0,400,105.73c3.47-.52,6.93-1.12,10.37-1.87.32-.06,2.35-.59,4.31-1.06s3.83-1,3.89-.76C418.69,102.43,418.26,102.89,417.62,103.06Z"/><rect class="cls-5" x="332.1" y="190.06" width="12.6" height="31.49" rx="6.3" transform="translate(676.8 411.62) rotate(180)"/><circle class="cls-1" cx="332.57" cy="200.28" r="5.91"/><ellipse class="cls-8" cx="446.64" cy="283.72" rx="1.57" ry="2.24"/><ellipse class="cls-8" cx="434.26" cy="286.13" rx="1.27" ry="1.9"/><ellipse class="cls-8" cx="436.23" cy="295.74" rx="5.95" ry="4.4" transform="translate(-68.99 445.76) rotate(-50.67)"/><path class="cls-5" d="M466.27,189.57a2.49,2.49,0,0,1-1.95-.93c-14.91-18.53-25.56-47.51-28.11-76.21-24.4,5.16-49.59,10.27-75.1,9.59-19.49-.53-36.08-2.86-50.72-7.13-21.06-6.15-35.42-19.14-42.67-38.63l-5.1-14.6a2.5,2.5,0,0,1,3.3-3.14c.36.15,36.91,14.19,91.57-17.84,25-14.63,52-15.08,76.14-1.26C456.2,52.36,471.78,76,473.44,99.21l11.08-5.85a2.5,2.5,0,0,1,3.63,1.8,182.71,182.71,0,0,1,1.7,34.5c-1.13,25.65-7.53,45.25-19,58.26a2.49,2.49,0,0,1-2.63.73,2.59,2.59,0,0,1-.37.37A2.48,2.48,0,0,1,466.27,189.57Zm-27.79-82.68a2.52,2.52,0,0,1,2.49,2.33c2,28.07,12,56.69,26.34,75.14,21.81-25.07,18-71.84,16.38-84.91l-11.44,6a2.5,2.5,0,0,1-3.67-2.21c0-22.77-15-46.69-37.44-59.52-13-7.47-39.6-17.24-71.12,1.24-45.8,26.84-79,22.66-91,19.67l3.45,9.89c6.65,17.88,19.91,29.85,39.37,35.53,14.23,4.15,30.4,6.41,49.45,6.93,25.92.71,51.73-4.78,76.72-10.07A2.24,2.24,0,0,1,438.48,106.89Z"/><path class="cls-5" d="M361.93,334.86c-16.87,0-32.13-8.35-43.55-15.62-26.12-16.62-40.36-47.61-36.25-79l2.42-18.6,3.68,4.7a125.92,125.92,0,0,0,15.95,16.23c8.76,7.45,22.18,16.62,36.4,18.05,1.27.13,1.65-.15,3.3-3.66,2.87-6.11,7.66-16.31,32.44-16.31h.08a2.81,2.81,0,0,1,.58,0c20.27,0,26.5,9.27,30.62,15.39,2.38,3.54,3.38,4.77,5.21,4.58,27.43-2.75,52.1-34,52.35-34.28l3.67-4.71,2.43,18.61c4.1,31.35-10.13,62.34-36.26,79h0c-15.45,9.84-29.67,14.63-43.47,14.63l-29.6,1ZM288,233.85l-.93,7.08c-3.85,29.43,9.49,58.51,34,74.1,10.85,6.9,25.29,14.83,40.78,14.83l29.6-1c12.9,0,26.24-4.53,40.86-13.84h0c24.5-15.59,37.84-44.67,34-74.1l-.92-7.08c-8.19,9.14-28.78,29.45-52.08,31.79-4.94.5-7.45-3.2-9.85-6.77-4-5.87-8.88-13.18-26.58-13.18h-.56c-21.59,0-25.24,7.76-27.91,13.43-1.54,3.29-3.27,7-8.32,6.52C316.78,263.3,296.19,243,288,233.85Z"/><path class="cls-3" d="M98.92,264.16h33.79a0,0,0,0,1,0,0v61.4a16.89,16.89,0,0,1-16.89,16.89h0a16.89,16.89,0,0,1-16.89-16.89v-61.4A0,0,0,0,1,98.92,264.16Z"/><path class="cls-4" d="M134.4,305.26V315.4a90.48,90.48,0,0,1-33.79.68V305.94a90.48,90.48,0,0,0,33.79-.68Z"/><path class="cls-5" d="M115.23,343.65a10,10,0,0,1-5.44-.46,20.86,20.86,0,0,1-3.44-1.48,16.24,16.24,0,0,1-2.45-1.62,22.29,22.29,0,0,1-5.19-6.56,17.09,17.09,0,0,1-1.79-7c-.06-.86,0-1.61,0-2.41s0-1.62,0-2.46c0-1.68,0-3.42,0-5.14.07-6.89.13-13.51.14-14.71,0-3.67.14-14.79,0-16.68s0-11.12-.08-13.65c0-1,0-2,0-3v-2.22c0-1.33,0-2.67,0-4l4.08-.09,2.22-.09c1.44-.05,2.88-.09,4.32-.06,2.66,0,5.33,0,8,0,.63,0,1.27,0,1.9,0,2.54.07,5.08.08,7.63.07l9.8,0q0,3.72,0,7.44l-.05,4.18c0,.88,0,1.78,0,2.65.15,4.82,0,9.62-.1,14.41,0,.64-.06,1.29,0,1.9.21,3.53,0,7.07.05,10.61,0,1.13,0,2.27,0,3.41,0,.89-.05,1.78,0,2.66.1,3.93,0,7.85.05,11.78,0,.25,0,.51,0,.76.05,1.05.07,2.09.08,3.14,0,.49,0,1.08-.06,1.67l-.06.87-.14.87a17.8,17.8,0,0,1-2.45,6.45,25.2,25.2,0,0,1-5.58,6.16,8.58,8.58,0,0,1-1.39.92,19.77,19.77,0,0,1-8,2.26l-.4,0c-.45,0-.92-.74-.91-.9a10.16,10.16,0,0,1,.89-1.17,7.19,7.19,0,0,1,1-1.14,8.91,8.91,0,0,1,.92-.27,5,5,0,0,0,2.45-1.2,5.5,5.5,0,0,1,1.33-.79,13,13,0,0,0,5.13-4.1,15.87,15.87,0,0,0,2.78-6l.22-1.39c0-.48.05-.95.07-1.42V290.24c0-1.9,0-3.79.11-5.68s.1-3.54.1-5.31l0-9.11v-4h-5.09L104.06,266c-.25,0-.51,0-.75,0-.52,0-1.17.07-1.92.09H101l-.14,0,0,.26c0,.75,0,1.52,0,2.29,0,1.56,0,3.1,0,4.49,0,2.78,0,4.94,0,5.29l0,11.78c0,3.91.06,7.82,0,11.74,0,3.41,0,6.84,0,10.25,0,.51,0,1,0,1.52,0,1.4,0,3.86-.09,6.82,0,1.48,0,3.08,0,4.74a15.85,15.85,0,0,0,.57,4.45,15,15,0,0,0,4.27,6.93,15.24,15.24,0,0,0,3.88,2.59,8.92,8.92,0,0,1,1.38.77,13.23,13.23,0,0,0,1.35.71,6.1,6.1,0,0,0,1.11.65,5.56,5.56,0,0,0,.81.23l.87.13c.56.1.85.34.7.57S115.41,343.42,115.23,343.65Z"/><circle class="cls-4" cx="123.68" cy="317.39" r="4.46"/><circle class="cls-4" cx="116.56" cy="322.53" r="1.99"/><rect class="cls-20" x="155.43" y="82.94" width="61.58" height="122.98" rx="30.47"/><path class="cls-21" d="M214.36,99.77H159.22a30.47,30.47,0,0,1,8.91-10.69h37.33A30.53,30.53,0,0,1,214.36,99.77Z"/><path class="cls-22" d="M37.48,203.1h-.64C20,203.1,25,191.52,25,174.69L9.89,116.45a29.82,29.82,0,0,1,3-22.89,27.33,27.33,0,0,1,23.9-13.44h.64A30.48,30.48,0,0,1,68,110.6v62A30.47,30.47,0,0,1,37.48,203.1Z"/><path class="cls-21" d="M67.06,102.24a47.15,47.15,0,0,1-49.62-13,29.09,29.09,0,0,1,6-4.13,47.19,47.19,0,0,0,41,11.46A29.37,29.37,0,0,1,67.06,102.24Z"/><path class="cls-5" d="M189.09,208.42h-.63a33,33,0,0,1-33-33v-62a33,33,0,0,1,33-33h.63a33,33,0,0,1,33,33h-5a28,28,0,0,0-28-28h-.63a28,28,0,0,0-28,28v62a28,28,0,0,0,28,28h.63a28,28,0,0,0,28-28h5A33,33,0,0,1,189.09,208.42Z"/><path class="cls-5" d="M39.22,204.51a14.44,14.44,0,0,1-8-.65,11.58,11.58,0,0,1-7.25-7.51,29.14,29.14,0,0,1-1.09-6c-.18-2-.25-3.87-.31-5.76-.06-1.73,0-5.35,0-9.52L19.2,161.33l-5.14-21.12c-.64-2.63-1.94-7.94-3.16-12.93s-2.46-9.55-2.74-11.15c-.09-.38-.22-.94-.34-1.64S7.69,113,7.61,112a17.91,17.91,0,0,1,0-3l.06-1.64.24-1.67a34.5,34.5,0,0,1,3.35-10.57L11.76,94c.19-.35.42-.69.63-1,.44-.67.88-1.35,1.33-2a42.14,42.14,0,0,1,7.13-7.37A29.47,29.47,0,0,1,30,78.86a33.11,33.11,0,0,1,6.31-1.18l1.6-.16,1.59,0c1,0,2.11.08,3.16.13l.76,0,.76.11c.5.07,1,.14,1.51.23a34.28,34.28,0,0,1,14.83,6.71,32.76,32.76,0,0,1,9.91,12.91c.4,1,.76,2.11,1.13,3.16l.8,3.25.3,2.11.15,1,.07,1c.06.94.16,2,.17,2.85l0,2.66,0,5.33-.18,10.63c0,.94-.07,1.9,0,2.8.25,5.23,0,10.46,0,15.68,0,1.68,0,3.37,0,5.05,0,1.31-.06,2.63,0,3.93.07,2.9.07,5.8.07,8.7v6.53c0,.74-.07,1.55-.1,2.32,0,.4,0,.81,0,1.21a30,30,0,0,1-2.43,9.66,33.12,33.12,0,0,1-5.46,8.23,43.15,43.15,0,0,1-9.22,7.54c-.67.38-1.42.78-2.12,1.09a35.84,35.84,0,0,1-11.62,2.64c-.19,0-.38,0-.57,0A1.71,1.71,0,0,1,40,204a10.19,10.19,0,0,1,1.32-1.42A6.37,6.37,0,0,1,43,201.25a13.48,13.48,0,0,1,1.42-.38,10.05,10.05,0,0,0,3.91-1.45,7.83,7.83,0,0,1,2.17-1A25.18,25.18,0,0,0,59.12,193a29.33,29.33,0,0,0,6.1-8.23,25,25,0,0,0,2.5-8.36A19,19,0,0,0,68,173.7c.07-.88.06-1.89.06-2.88V129c0-2.81,0-5.6.13-8.4.09-2.6.12-5.23.13-7.85,0-1.11,0-2.27-.07-3.27l-.08-1.56c0-.52-.15-1-.22-1.54l-.25-1.54-.4-1.51a22.12,22.12,0,0,0-1-2.95,28.93,28.93,0,0,0-4.4-7.61,30.09,30.09,0,0,0-6.56-5.88l-1.58-1c-.52-.33-1.1-.56-1.65-.84a30,30,0,0,0-3.43-1.39,28,28,0,0,0-7.27-1.3A27.49,27.49,0,0,0,27,85.32a6.58,6.58,0,0,0-.92.46c-.61.45-1.38,1-2.27,1.58-.43.33-.85.71-1.31,1.09a15.61,15.61,0,0,0-1.4,1.23,26.88,26.88,0,0,0-2.69,3,29.07,29.07,0,0,0-2.36,3.4,28.65,28.65,0,0,0-3.59,10.26,26.71,26.71,0,0,0-.28,4,14.75,14.75,0,0,0,.11,2,19.07,19.07,0,0,0,.2,2c.29,1.33.45,2.56.85,4l1.06,4.23c1.38,5.61,2.88,11.19,4.22,16.83,1.17,4.9,2.46,9.79,3.7,14.69.19.72.39,1.45.56,2.17l2.35,9.8,1.66,6.8.22.9.09.35a2.07,2.07,0,0,1,.08.42v.7c0,.63,0,1.26,0,1.89,0,1.25-.06,2.5-.08,3.75-.12,5-.21,9.75.61,13.06A7.86,7.86,0,0,0,31,199.05c.61.42,1.16.77,1.73,1.17a12.12,12.12,0,0,0,1.95.93,10.23,10.23,0,0,0,1.7.79,16,16,0,0,0,2.54.38c.85.11,1.3.37,1.07.65S39.47,204.24,39.22,204.51Z"/><rect class="cls-4" x="2.5" y="171.24" width="45.05" height="37.17" rx="18.58"/><rect class="cls-3" x="10.62" y="176.84" width="28.81" height="23.77" rx="11.88"/><path class="cls-5" d="M29,209.84H21.08a21.09,21.09,0,0,1,0-42.17H29a21.09,21.09,0,0,1,0,42.17Zm-7.89-37.17a16.09,16.09,0,0,0,0,32.17H29a16.09,16.09,0,0,0,0-32.17Z"/><rect class="cls-4" x="180.82" y="171.24" width="45.05" height="37.17" rx="18.58"/><rect class="cls-3" x="188.95" y="176.84" width="28.81" height="23.77" rx="11.88"/><path class="cls-5" d="M207.29,209.84h-7.88a21.09,21.09,0,1,1,0-42.17h7.88a21.09,21.09,0,0,1,0,42.17Zm-7.88-37.17a16.09,16.09,0,1,0,0,32.17h7.88a16.09,16.09,0,0,0,0-32.17Z"/><rect class="cls-3" x="23.9" y="68.19" width="180.2" height="237.99" rx="90.1"/><path class="cls-1" d="M117.45,307.75c-1.15.05-2.31.07-3.47.07a90.1,90.1,0,0,1-90.1-90.1V159.93A90.1,90.1,0,0,1,114,69.83c1.16,0-5.68,0-4.53.07-48.16,1.81-75.64,41.43-75.64,90v57.79C33.81,266.32,69.29,305.94,117.45,307.75Z"/><path class="cls-4" d="M204.78,222.77A90.1,90.1,0,0,1,56,284.73a102.64,102.64,0,0,0,148.77-62Z"/><path class="cls-4" d="M183.89,100.12H81.25A46.9,46.9,0,0,1,56.68,107c-5.66,0-7.08-1-12.1-2.82A89.61,89.61,0,0,1,55.37,90.68c1.74.2-.49.3,1.31.3a46.9,46.9,0,0,0,24.57-6.91h87.57q3.15,2.61,6,5.51A89,89,0,0,1,183.89,100.12Z"/><path class="cls-5" d="M114,309.25a92.7,92.7,0,0,1-92.6-92.6V158.86a92.6,92.6,0,0,1,185.2,0v57.79A92.7,92.7,0,0,1,114,309.25Zm0-238a87.7,87.7,0,0,0-87.6,87.6v57.79a87.6,87.6,0,0,0,175.2,0V158.86A87.7,87.7,0,0,0,114,71.26Z"/><path class="cls-22" d="M206,89.08A80.53,80.53,0,0,0,125.47,8.55H79.1a47.17,47.17,0,1,0,0,80.53Z"/><path class="cls-23" d="M206,89.06h-.13c-2.35-42.36-37.45-72.16-80.4-72.16H79.1A47,47,0,0,0,54.52,10C29.24,10,8.59,26.07,7.41,51.07c0-.75,0-1.51,0-2.27A47.18,47.18,0,0,1,79.1,8.53h46.37A80.54,80.54,0,0,1,206,89.06Z"/><path class="cls-24" d="M205.05,75H79.1A47.18,47.18,0,0,1,7.77,40.89a48.63,48.63,0,0,0-.41,6.19A47.18,47.18,0,0,0,79.1,87.35H206A81.66,81.66,0,0,0,205.05,75Z"/><path class="cls-25" d="M25.75,63.51A26.58,26.58,0,0,1,46.48,20.3v5A21.6,21.6,0,0,0,24.9,46.88a21.29,21.29,0,0,0,4.75,13.5Z"/><path class="cls-5" d="M51.77,52.37v-5a10.93,10.93,0,0,0,0-21.85v-5a15.93,15.93,0,0,1,0,31.85Z"/><circle class="cls-24" cx="180.45" cy="70.33" r="9.01"/><circle class="cls-24" cx="168.97" cy="56.79" r="4.02"/><circle class="cls-23" cx="105" cy="20.42" r="6.49"/><circle class="cls-23" cx="113.27" cy="30.17" r="2.89"/><path class="cls-5" d="M17.39,181.24a9.53,9.53,0,0,0-.24,16,2.74,2.74,0,0,1-.26,2.2c-.51,1-1.71,1.33-2,1.12a13.34,13.34,0,0,1-4.9-7.17,13,13,0,0,1,.53-8.4A12.49,12.49,0,0,1,13.42,181a7.64,7.64,0,0,1,1.45-1.4c.75-.54,1.62-.81,1.88-.33C17.29,180.25,17.58,181.12,17.39,181.24Z"/><path class="cls-5" d="M213.58,177.23a14,14,0,0,1,.36,23.49c-.3.22-1.63-.32-2.27-1.53a3.92,3.92,0,0,1-.54-2.61,9.26,9.26,0,0,0,4-4.54,9.85,9.85,0,0,0,.38-6.4,10.41,10.41,0,0,0-1.62-3.7l-1.31-1.15c-.58-.53-1.13-1.11-.79-1.72C212.49,177.87,213.28,177,213.58,177.23Z"/><path class="cls-5" d="M84.46,114l3.65.45c1.2.15,2.39.28,3.59.39q3.6.33,7.21.45c2.39.08,4.81,0,7.29.06h7.37c4.89,0,9.88,0,14.68,0a127.9,127.9,0,0,0,14.43-1.16c.72-.09,2.74.79,2.91,2.16s-1.57,2.71-2.29,2.8a133.2,133.2,0,0,1-20,.72l-19.71-.52c-3.9-.16-7.82-.49-11.68-1-.36,0-2.7-.13-4.9-.47s-4.28-.83-4.2-1.51C83,115,83.74,113.93,84.46,114Z"/><path class="cls-5" d="M92.44,105.34l2.69.33c.87.11,1.74.2,2.61.28q2.63.24,5.25.33c1.75.06,3.51,0,5.34,0h5.41c3.59,0,7.27,0,10.77,0a93.92,93.92,0,0,0,10.53-.84,2.58,2.58,0,0,1,.62,5,98.11,98.11,0,0,1-14.74.39l-14.48-.51c-2.87-.17-5.76-.46-8.6-.9-.55,0-6.85-.33-6.66-1.7S91.92,105.27,92.44,105.34Z"/><rect class="cls-4" x="124.72" y="136.85" width="59.42" height="14.41" rx="7.2" transform="translate(41.78 -34.58) rotate(14.76)"/><rect class="cls-22" x="127.27" y="132.44" width="59.42" height="14.41" rx="7.2" transform="translate(40.74 -35.38) rotate(14.76)"/><path class="cls-5" d="M179.43,150.53a5.21,5.21,0,0,0,.68-10.18l-3.8-1-7.64-2-30.57-8.05-1-.26-.45-.11-.35-.08a5.2,5.2,0,0,0-1.42-.05,5.06,5.06,0,0,0-2.63,1,5.19,5.19,0,0,0,1.58,9.11l7.55,2L172,149c1.5.4,5.2,2.3,4.92,3.37s-4.44.9-5.94.5l-20.39-5.58-10.19-2.79-5.1-1.4-1.27-.34c-.43-.13-.81-.21-1.36-.4a8.94,8.94,0,0,1-2.81-1.57,8.73,8.73,0,0,1-1.69-11.57,8.57,8.57,0,0,1,8.21-3.78,5.08,5.08,0,0,1,.78.13c.26,0,.52.11.72.17l1.27.35,20.38,5.58,12,3.38,6,1.69,3,.85a8.45,8.45,0,0,1,3,1.47,8.14,8.14,0,0,1,2.55,3.22,7.82,7.82,0,0,1-.47,7.18,7.55,7.55,0,0,1-5.77,3.65c-1.91.12-3-.52-2.94-.74a2.26,2.26,0,0,1,1-1.24A3.44,3.44,0,0,1,179.43,150.53Z"/><rect class="cls-4" x="50.91" y="136.83" width="59.42" height="14.41" rx="7.2" transform="translate(1.96 -1.08) rotate(0.78)"/><rect class="cls-22" x="50.98" y="131.92" width="59.42" height="14.41" rx="7.2" transform="translate(1.9 -1.08) rotate(0.78)"/><path class="cls-5" d="M105.64,144a5.2,5.2,0,0,0-1.8-10l-3.93-.06L92,133.8l-31.6-.43h-1c-.15,0-.35,0-.47,0h-.36a5.06,5.06,0,0,0-1.39.29,5.13,5.13,0,0,0-2.3,1.62,5.19,5.19,0,0,0,3.73,8.46l7.81.12,31.61.43c1.55,0,5.6,1,5.59,2.08s-4.1,1.94-5.65,1.92l-21.13-.49-10.56-.25L61,147.43l-1.32,0c-.45,0-.84,0-1.42-.06a8.62,8.62,0,0,1-3.1-.84,8.72,8.72,0,0,1-4.44-10.82,8.61,8.61,0,0,1,4.06-4.7,8.36,8.36,0,0,1,3-.95,4.1,4.1,0,0,1,.78-.06c.27,0,.53,0,.74,0l1.32,0,21.13.49,12.44.39,6.22.19,3.11.1a8.64,8.64,0,0,1,3.32.7,8,8,0,0,1,3.24,2.5,7.84,7.84,0,0,1,1.29,7.08,7.58,7.58,0,0,1-4.72,4.94c-1.82.58-3.06.23-3,0a2.22,2.22,0,0,1,.68-1.45A3.54,3.54,0,0,1,105.64,144Z"/><circle class="cls-4" cx="155.06" cy="100.93" r="5.54"/><circle class="cls-4" cx="163.08" cy="107.7" r="2.77"/><path class="cls-4" d="M175.93,268a69.83,69.83,0,0,1-12.68,10c-4.55,2.86-9.27,5.35-14,7.8-.35.18-1.47.26-1.72-.23s.45-1.36.8-1.54a147.76,147.76,0,0,0,18.49-10.35c1.72-1.16,3.41-2.37,5-3.69l1.93-1.78c.87-.81,1.74-1.56,1.94-1.37C176.12,267.13,176.22,267.67,175.93,268Z"/><path class="cls-4" d="M180.65,262.23a12.67,12.67,0,0,1-3.21,3.63c-.05,0-.44-.23-.77-.67a2,2,0,0,1-.45-.92,10.42,10.42,0,0,0,2.27-1.68,8.64,8.64,0,0,0,.67-.56s.2-.67.68-.39S180.68,262.17,180.65,262.23Z"/><path class="cls-4" d="M185.47,256.85l-3.53,3.86a1.61,1.61,0,0,1-.89-.5c-.41-.38-.63-.8-.58-.85l2.66-2.3.86-.62s.42-.72.82-.35S185.52,256.8,185.47,256.85Z"/><path class="cls-26" d="M197.26,220.67V178.22c0-.52.45-1.89,1-1.89s1,1.37,1,1.89l-.41,28.38-.22,8.36c0,.52.18,6.65-.37,6.65A1,1,0,0,1,197.26,220.67Z"/><path class="cls-1" d="M46,259.62a70.13,70.13,0,0,1-6.62-16.32c-.06-.22,0-.82.29-.89s.62.42.68.63a67.54,67.54,0,0,0,3.73,11c.44,1.06.9,2.11,1.4,3.15.08.2,1.38,2.37,1.14,2.5A.44.44,0,0,1,46,259.62Z"/><path class="cls-27" d="M52.35,270.82A33.1,33.1,0,0,1,47,262.61a.57.57,0,0,1,.28-.59.59.59,0,0,1,.63.18,32,32,0,0,0,3,5.62c.34.53.69,1.05,1.06,1.56.07.1,1,1.09.84,1.27S52.43,270.91,52.35,270.82Z"/><path class="cls-23" d="M172.87,35.4A60.06,60.06,0,0,0,142.7,22.07c-.41-.05-1.45-.41-1.42-.69s1.14-.35,1.55-.3a60.93,60.93,0,0,1,21.31,7.37,58.62,58.62,0,0,1,5.57,3.65c.18.11,1.25.88,2.25,1.67s1.89,1.63,1.8,1.73S173.18,35.67,172.87,35.4Z"/><path class="cls-23" d="M180.41,45.13a38.6,38.6,0,0,0-8-6.81c-3-1.94-6.1-3.61-9.26-5.26-.23-.12-.74-.64-.61-.88s.84-.13,1.07,0a83.6,83.6,0,0,1,12.2,7.59,38.32,38.32,0,0,1,3.15,2.83c.1.08.72.66,1.27,1.26s1,1.22.9,1.31A.5.5,0,0,1,180.41,45.13Z"/><path class="cls-24" d="M122.5,72.26l-40.16.4c-.49,0-1.79-.65-1.8-1.48s1.27-1.51,1.77-1.52l26.86.34,7.91.25c.49,0,6.29-.33,6.3.5S123,72.25,122.5,72.26Z"/><path class="cls-24" d="M140,66.48a96.1,96.1,0,0,1-15.27,0,95.68,95.68,0,0,0-14.85-.12,1.77,1.77,0,0,1-1.44-1.4,1.74,1.74,0,0,1,1.23-1.59,87.11,87.11,0,0,1,10.22.14c3.4.24,6.72.66,10,.87,2,.18,3.91.27,5.88.32.19,0,1.35-.13,2.48-.16s2.22,0,2.26.42C140.57,65.76,140.32,66.45,140,66.48Z"/><path class="cls-28" d="M210.57,105.13a108.53,108.53,0,0,0-17.48,0c-.21,0-.85-.83-1-1.93s.41-2,.63-2.06a113.43,113.43,0,0,1,12.1.5c1.17.18,2.35.37,3.51.59.22,0,2.84-.17,2.75.94S210.78,105.15,210.57,105.13Z"/><path class="cls-29" d="M211.21,108h-6.94c-.09,0-.31-.45-.31-1s.22-1,.31-1l4.64.41,1.36.22c.09,0,1.09-.18,1.09.37S211.29,108,211.21,108Z"/><path class="cls-5" d="M114.69,214.71a2.5,2.5,0,0,1-2.5-2.5V191.55a2.5,2.5,0,0,1,5,0v20.66A2.5,2.5,0,0,1,114.69,214.71Z"/><circle class="cls-4" cx="81.95" cy="183.59" r="22.81"/><circle class="cls-4" cx="147.2" cy="183.59" r="22.81"/><circle class="cls-1" cx="82.18" cy="176.99" r="22.81"/><rect class="cls-5" x="75.2" y="162.97" width="11.31" height="28.26" rx="5.65"/><circle class="cls-1" cx="86.08" cy="172.15" r="5.31"/><circle class="cls-1" cx="147.25" cy="176.99" r="22.81"/><rect class="cls-5" x="141.83" y="162.97" width="11.31" height="28.26" rx="5.65"/><circle class="cls-1" cx="152.71" cy="172.15" r="5.31"/><path class="cls-17" d="M170.06,177.48a22.81,22.81,0,1,1-45.61,0,20.21,20.21,0,0,1,.1-2.07,22.8,22.8,0,0,0,45.41,0A20.21,20.21,0,0,1,170.06,177.48Z"/><path class="cls-17" d="M105,179.48c0,12.6-10.21,20.81-22.81,20.81a22.8,22.8,0,0,1-22.8-22.81,18.09,18.09,0,0,0,.1,1.93c1.05,11.62,10.81,16.72,22.7,16.72s21.66-5.1,22.71-16.72C105,180.09,105,178.78,105,179.48Z"/><path class="cls-5" d="M127,179.9a20.36,20.36,0,0,0,12.32,17.37,20.08,20.08,0,0,0,7.26,1.57,20.3,20.3,0,0,0,13.79-4.8,20,20,0,0,0,7-12.82,4.4,4.4,0,0,1,.87-1.56,2.64,2.64,0,0,1,1.83-1.09,2.13,2.13,0,0,1,1.7,1.27,3.41,3.41,0,0,1,.56,2,25,25,0,0,1-14.18,19A24.55,24.55,0,0,1,135,199.51a23.31,23.31,0,0,1-5.27-4.57,23,23,0,0,1-3.71-5.81,19.75,19.75,0,0,1-2-5.44c-.51-2.6-.25-5.15.41-5.12C125.82,178.58,127,179.18,127,179.9Z"/><path class="cls-5" d="M61.32,179.53a20.3,20.3,0,0,0,33.37,14.15,20.07,20.07,0,0,0,7-12.83,4.4,4.4,0,0,1,.87-1.56,2.64,2.64,0,0,1,1.83-1.09,2.16,2.16,0,0,1,1.7,1.27,3.46,3.46,0,0,1,.56,2,25,25,0,0,1-14.18,18.95,24.5,24.5,0,0,1-23.14-1.31A23.27,23.27,0,0,1,64,194.58a22.83,22.83,0,0,1-3.71-5.82,19.75,19.75,0,0,1-2-5.44c-.51-2.6-.25-5.14.41-5.12C60.13,178.22,61.29,178.81,61.32,179.53Z"/><rect class="cls-5" x="216.01" y="115.73" width="6" height="2.5"/><path class="cls-5" d="M222,170.31h-6v-4.65h6Zm0-7.44h-6v-4.65h6Zm0-7.44h-6v-4.65h6Zm0-7.44h-6v-4.65h6Zm0-7.44h-6V135.9h6Zm0-7.44h-6v-4.65h6Zm0-7.44h-6V121h6Z"/><rect class="cls-5" x="216.01" y="173.1" width="6" height="2.5"/><path class="cls-30" d="M75.95,220.88h76.57a4.2,4.2,0,0,1,4.2,4.2v25.6a37.62,37.62,0,0,1-37.62,37.62h0a47.35,47.35,0,0,1-47.35-47.35V225.08a4.2,4.2,0,0,1,4.2-4.2Z"/><ellipse class="cls-31" cx="114.9" cy="257.95" rx="23.69" ry="15.75"/><circle class="cls-31" cx="111.28" cy="273.25" r="5.67"/><circle class="cls-31" cx="120.33" cy="279.78" r="2.53"/><path class="cls-31" d="M98.45,281a1,1,0,0,1-.47-.12C86.53,274.79,80.73,267.86,78,257a1,1,0,1,1,1.94-.5c2.64,10.39,8,16.74,19,22.64a1,1,0,0,1-.47,1.89Z"/><path class="cls-1" d="M146.6,220.88v13.27c0,1.87-2,3.39-4.51,3.39H85.28c-2.49,0-4.5-1.52-4.5-3.39v-9.87c0-1.88,2-3.4,4.5-3.4Z"/><rect class="cls-32" x="80.62" y="221.82" width="67.26" height="5.48"/><path class="cls-5" d="M143.39,239.54h-58c-3.7,0-6.6-2.37-6.6-5.39V220.88h4v13.27c0,.57,1,1.39,2.6,1.39h58c1.56,0,2.6-.84,2.6-1.39V220.88h4v13.27C150,237.17,147.09,239.54,143.39,239.54Z"/><path class="cls-24" d="M36.57,106.81a46,46,0,0,0-9.64,17.85,1.67,1.67,0,0,1-1.7.5c-.8-.2-1.27-1-1.19-1.31a48.36,48.36,0,0,1,6.46-12.91c.86-1.13,1.75-2.22,2.7-3.26.12-.23,1.92-2.77,2.55-2.21S36.74,106.63,36.57,106.81Z"/><path class="cls-24" d="M31.33,105.38a16.56,16.56,0,0,0-4.66,6.55,2.55,2.55,0,0,1-1.54-.17c-.78-.28-1.3-.8-1.26-.92a19.2,19.2,0,0,1,3.74-5.09c.48-.39,1-.77,1.48-1.11.06-.08.88-1.18,1.41-.53S31.4,105.32,31.33,105.38Z"/><rect class="cls-33" x="78.74" y="325.61" width="72.31" height="119.25" transform="translate(-2.12 0.64) rotate(-0.32)"/><circle class="cls-34" cx="130.13" cy="357.4" r="7.58"/><circle class="cls-34" cx="120.41" cy="346.07" r="3.38"/><rect class="cls-35" x="87.46" y="450.84" width="55.88" height="7.98" transform="matrix(1, -0.01, 0.01, 1, -2.5, 0.64)"/><rect class="cls-35" x="87.5" y="450.1" width="55.88" height="7.98"/><rect class="cls-35" x="86.67" y="451.38" width="55.88" height="6.57"/><rect class="cls-36" x="86.67" y="446.73" width="55.88" height="4.64"/><rect class="cls-5" x="86.98" y="444.23" width="56.61" height="4"/><rect class="cls-5" x="86.67" y="456.96" width="57.24" height="4"/><rect class="cls-5" x="104.67" y="447.55" width="4" height="12.84"/><rect class="cls-5" x="120.12" y="446.55" width="4" height="13.84"/><circle class="cls-5" cx="116.09" cy="453.09" r="1.33"/><path class="cls-1" d="M79.53,438.22H54.31V353.66a18.86,18.86,0,0,1,18.86-18.85h6.36Z"/><path class="cls-3" d="M73.87,438.4v21.06h-.49c-11,0-19.92-9.43-19.92-21.06Z"/><path class="cls-1" d="M88,462.93H77.09A2.92,2.92,0,0,1,74.17,460V338.26a16.91,16.91,0,0,1,16.91-16.91h0L94,456.84A6,6,0,0,1,88,462.93Z"/><path class="cls-34" d="M147,435h0c-7.31,0-13.23-13.31-13.23-29.74l-1.07-75.72,14.3-5.36Z"/><path class="cls-5" d="M87.68,465.34H76.78a4.92,4.92,0,0,1-4.92-4.91V338.67a18.94,18.94,0,0,1,18.91-18.91h2l2.91,137.45a8,8,0,0,1-8,8.13Zm1.14-141.45a14.93,14.93,0,0,0-13,14.78V460.43a.92.92,0,0,0,.92.91h10.9a4,4,0,0,0,4-4Z"/><path class="cls-5" d="M73.86,462.22h-.48c-12.09,0-21.92-10.34-21.92-23.06V417.07h.06c-.2-1.9-.19-6.81-.15-21.12,0-10.49.09-20.95.09-20.95V355.87c0-12.72,9.83-23.06,21.92-23.06h.48v4h-.48c-9.88,0-17.92,8.55-17.92,19.06V375c-.08,14.89-.16,37-.05,41.18l.05.05v22.92c0,10.51,8,19.06,17.92,19.06h.48Z"/><rect class="cls-5" x="53.46" y="437.16" width="20.4" height="4"/><path class="cls-33" d="M140.39,321.34c0,6.59-10.83,11.92-24.19,11.92S92,327.93,92,321.34c0-3,2.24-5.71,5.94-7.8,4.44,2.51,11,4.09,18.24,4.09s13.81-1.58,18.24-4.09C138.15,315.63,140.39,318.36,140.39,321.34Z"/><path class="cls-34" d="M140.76,320.43c0,6.58-10.83,11.9-24.19,11.9-.88,0-1.74,0-2.59-.07a3.5,3.5,0,0,1,.11-.79,5.74,5.74,0,0,1,3.07-3.6,19.25,19.25,0,0,1,4.65-1.48,26.5,26.5,0,0,0,7.44-2.68,10.79,10.79,0,0,0,5-5.92,9.06,9.06,0,0,0,.05-4.9c.17-.09.34-.17.5-.27C138.52,314.71,140.76,317.44,140.76,320.43Z"/><path class="cls-5" d="M116.53,334.79c-14.68,0-26.18-6.11-26.18-13.91,0-3.63,2.47-7,7-9.55l1-.55,1,.56c4.31,2.43,10.59,3.83,17.26,3.83s13-1.4,17.25-3.83l1-.56,1,.55c4.5,2.53,7,5.92,7,9.55C142.72,328.68,131.21,334.79,116.53,334.79ZM98.35,315.38c-2.59,1.66-4,3.59-4,5.5,0,5.84,11.69,9.91,22.18,9.91s22.19-4.07,22.19-9.91c0-1.91-1.42-3.84-4-5.51-4.8,2.42-11.34,3.8-18.18,3.8S103.16,317.79,98.35,315.38Z"/><path class="cls-1" d="M145.4,460.87h10.9a2.91,2.91,0,0,0,2.91-2.92V336.2a16.91,16.91,0,0,0-16.91-16.91h0l-2.87,135.49A6,6,0,0,0,145.4,460.87Z"/><line class="cls-1" x1="185.75" y1="445.16" x2="165.35" y2="445.16"/><path class="cls-1" d="M154.28,331.92h0a25.22,25.22,0,0,1,25.22,25.22v78.19H154.28Z"/><rect class="cls-2" x="158.36" y="332.34" width="6.31" height="104.59"/><path class="cls-3" d="M158,436.32v21.06h.49c11,0,19.92-9.43,19.92-21.06Z"/><path class="cls-4" d="M164,437.41v20.52a19,19,0,0,1-4.48.54H159V437.41Z"/><path class="cls-2" d="M157.43,442.42v14.23a2.91,2.91,0,0,1-2.91,2.92H143.61a5.9,5.9,0,0,1-4.73-2.35A21.22,21.22,0,0,0,157.43,442.42Z"/><circle class="cls-2" cx="150.43" cy="450.04" r="2.98"/><circle class="cls-2" cx="146.61" cy="445.59" r="1.33"/><rect class="cls-5" x="176.95" y="370.72" width="3" height="3.5"/><path class="cls-5" d="M180,394h-3v-5.77h3Zm0-9.88h-3v-5.77h3Z"/><rect class="cls-5" x="176.95" y="398.09" width="3" height="3.5"/><path class="cls-5" d="M155.44,462.87h-10.9a8,8,0,0,1-8-8.13l2.91-137.45h2a18.93,18.93,0,0,1,18.91,18.91V458A4.93,4.93,0,0,1,155.44,462.87Zm-12-141.45-2.82,133.4a4,4,0,0,0,4,4.05h10.9a.92.92,0,0,0,.92-.92V336.2A14.93,14.93,0,0,0,143.4,321.42Z"/><path class="cls-5" d="M158.84,459.75h-.48v-4h.48c9.88,0,17.92-8.55,17.92-19.06V403.6h4v33.09C180.76,449.41,170.92,459.75,158.84,459.75Z"/><path class="cls-5" d="M180.76,368.27h-4V353.4c0-10.51-8-19.06-17.92-19.06h-.48v-4h.48c12.08,0,21.92,10.34,21.92,23.06Z"/><rect class="cls-5" x="158.36" y="434.69" width="20.4" height="4"/><path class="cls-6" d="M53.85,415.68a1,1,0,0,1-.7-.28,1,1,0,0,1,0-1.42l12.28-12.59a1,1,0,1,1,1.43,1.4L54.56,415.38A1,1,0,0,1,53.85,415.68Z"/><path class="cls-6" d="M58.85,404.11a1,1,0,0,1-.7-.28,1,1,0,0,1,0-1.41l7.28-7.6a1,1,0,1,1,1.45,1.39l-7.28,7.59A1,1,0,0,1,58.85,404.11Z"/><path class="cls-5" d="M114.24,290.29a44.53,44.53,0,0,1-44.49-44.48V225.34a6.47,6.47,0,0,1,6.46-6.46h76.06a6.47,6.47,0,0,1,6.45,6.46v20.47A44.53,44.53,0,0,1,114.24,290.29Zm-38-67.41a2.46,2.46,0,0,0-2.46,2.46v20.47a40.49,40.49,0,0,0,81,0V225.34a2.46,2.46,0,0,0-2.45-2.46Z"/><path class="cls-1" d="M50.53,114.17a75.23,75.23,0,0,0-5,10.82c-.72,1.87-1.41,3.76-2.09,5.65a28.72,28.72,0,0,0-1.57,5.61c0,.27-.56.95-1.11.92s-.92-.89-.87-1.2a40.19,40.19,0,0,1,2.56-7.86c1-2.51,2-5,3.12-7.49q1-2.16,2.19-4.25c.1-.28,1.65-3.46,2.14-3.16S50.67,113.92,50.53,114.17Z"/><path class="cls-10" d="M38.27,145.14l.63-5.72a1.53,1.53,0,0,1,1-.14,1.58,1.58,0,0,1,1,.36l-.83,3.78-.34,1.1c0,.07.08.91-.47.85A2.19,2.19,0,0,1,38.27,145.14Z"/><path class="cls-5" d="M54.52,99.33A49.67,49.67,0,1,1,79.79,6.9h45.68a83.13,83.13,0,0,1,83,83,2.5,2.5,0,0,1-2.5,2.5H79.79A49.54,49.54,0,0,1,54.52,99.33ZM54.52,5A44.67,44.67,0,1,0,77.79,87.8a2.54,2.54,0,0,1,1.31-.37H203.46a78.14,78.14,0,0,0-78-75.53H79.1a2.53,2.53,0,0,1-1.31-.36A44.52,44.52,0,0,0,54.52,5Z"/><line class="cls-1" x1="717.24" y1="429.65" x2="699.07" y2="429.65"/><path class="cls-1" d="M689.21,328.77h2.62a19.85,19.85,0,0,1,19.85,19.85v72.27H689.21Z"/><rect class="cls-2" x="692.84" y="329.14" width="5.62" height="93.17"/><path class="cls-3" d="M692.56,421.77v18.76H693c9.79,0,17.74-8.4,17.74-18.76Z"/><path class="cls-4" d="M697.86,422.74V441a17,17,0,0,1-4,.48h-.43V422.74Z"/><rect class="cls-5" x="709.24" y="363.33" width="3" height="3.5"/><rect class="cls-5" x="709.24" y="372.86" width="3" height="8.44"/><rect class="cls-5" x="709.24" y="387.34" width="3" height="3.5"/><path class="cls-5" d="M693.27,442.87h-.43v-4h.43c8.68,0,15.74-7.52,15.74-16.77V392.62h4V422.1C713,433.55,704.16,442.87,693.27,442.87Z"/><path class="cls-5" d="M713,361.15h-4V347.91c0-9.25-7.06-16.77-15.74-16.77h-.43v-4h.43c10.89,0,19.74,9.32,19.74,20.77Z"/><rect class="cls-5" x="692.84" y="420.1" width="18.17" height="4"/><path class="cls-1" d="M600.85,418.55h-21V351.17a18.51,18.51,0,0,1,18.51-18.51h2.44Z"/><path class="cls-3" d="M596.14,418.7v17.5h-.4c-9.14,0-16.55-7.84-16.55-17.5Z"/><path class="cls-5" d="M596.14,438.83h-.4c-10.23,0-18.54-8.74-18.54-19.49V401h.07c-.26-2.45-.22-9.83-.07-34.94V350.16c0-10.75,8.31-19.5,18.54-19.5h.4v4h-.4c-8,0-14.54,6.95-14.54,15.5v15.9c-.07,12.19-.14,30.32-.05,34.05l.05.05v19.18c0,8.54,6.52,15.49,14.54,15.49h.4Z"/><rect class="cls-5" x="579.2" y="417.34" width="16.95" height="4"/><rect class="cls-33" x="602.76" y="320.3" width="81.84" height="123.65" transform="translate(-2.1 3.55) rotate(-0.32)"/><circle class="cls-34" cx="647.6" cy="392.18" r="8.58"/><circle class="cls-34" cx="636.6" cy="379.36" r="3.82"/><ellipse class="cls-34" cx="640.43" cy="406.87" rx="3.36" ry="4.35"/><rect class="cls-35" x="612.63" y="450.72" width="63.25" height="9.04" transform="translate(-2.5 3.56) rotate(-0.32)"/><rect class="cls-35" x="612.68" y="449.88" width="63.25" height="9.04"/><rect class="cls-35" x="611.74" y="451.33" width="63.25" height="7.44"/><rect class="cls-36" x="611.74" y="446.07" width="63.25" height="5.25"/><rect class="cls-5" x="612.09" y="443.5" width="64.07" height="4"/><rect class="cls-5" x="611.74" y="457.91" width="64.78" height="4"/><rect class="cls-5" x="632.37" y="447" width="4" height="14.53"/><rect class="cls-5" x="649.87" y="445.87" width="4" height="15.66"/><circle class="cls-5" cx="645.04" cy="453.27" r="1.51"/><path class="cls-1" d="M613.23,464.4H600.9a3.29,3.29,0,0,1-3.3-3.3V334.62a19.13,19.13,0,0,1,19.13-19.14H620v142A6.75,6.75,0,0,1,613.23,464.4Z"/><path class="cls-34" d="M680,444.08h0a33.66,33.66,0,0,1-33.67-33.66l-3.14-82.49,36.14-8.26Z"/><path class="cls-3" d="M626.63,233.11h38.24a0,0,0,0,1,0,0v71.72A16.89,16.89,0,0,1,648,321.72h-4.45a16.89,16.89,0,0,1-16.89-16.89V233.11A0,0,0,0,1,626.63,233.11Z"/><path class="cls-4" d="M666.79,279.62v11.47a101.94,101.94,0,0,1-21.18,2.21,100.06,100.06,0,0,1-17.07-1.44V280.39a102.28,102.28,0,0,0,38.25-.77Z"/><path class="cls-5" d="M648,324.27h-4.45a19.42,19.42,0,0,1-19.4-19.39V230.66h43.24v74.22A19.41,19.41,0,0,1,648,324.27Zm-18.85-88.61v69.22a14.41,14.41,0,0,0,14.4,14.39H648a14.41,14.41,0,0,0,14.39-14.39V235.66Z"/><path class="cls-5" d="M612.88,466.87H600.54a5.31,5.31,0,0,1-5.3-5.3V335.09A21.17,21.17,0,0,1,616.38,314h5.25v3.21c0,12.73,0,23,.09,32.37.08,17.6.14,31.5-.09,51.71V458a8.76,8.76,0,0,1-8.75,8.89ZM616.38,318a17.16,17.16,0,0,0-17.14,17.14V461.57a1.3,1.3,0,0,0,1.3,1.3h12.34a4.74,4.74,0,0,0,3.4-1.43,4.69,4.69,0,0,0,1.35-3.42v-56.8c.23-20.2.17-34.09.09-51.67,0-9.15-.08-19.23-.09-31.6Z"/><path class="cls-33" d="M672.54,315.48c0,7.45-12.26,13.48-27.38,13.48s-27.36-6-27.36-13.48c0-3.38,2.53-6.47,6.72-8.83,5,2.84,12.41,4.63,20.64,4.63s15.64-1.79,20.64-4.63C670,309,672.54,312.1,672.54,315.48Z"/><path class="cls-34" d="M673,314.44c0,7.45-12.26,13.48-27.38,13.48-1,0-2,0-2.93-.09a4,4,0,0,1,.12-.9,6.59,6.59,0,0,1,3.48-4.07,22.73,22.73,0,0,1,5.26-1.68,29.85,29.85,0,0,0,8.42-3,12.27,12.27,0,0,0,5.67-6.7,10.26,10.26,0,0,0,.06-5.55c.19-.1.38-.2.56-.31C670.42,308,673,311.05,673,314.44Z"/><path class="cls-5" d="M645.53,330.43c-16.46,0-29.36-6.8-29.36-15.48,0-4,2.75-7.76,7.74-10.57l1-.56,1,.56c4.91,2.77,12.08,4.37,19.66,4.37s14.77-1.59,19.66-4.37l1-.56,1,.56c5,2.8,7.76,6.56,7.76,10.57C674.91,323.63,662,330.43,645.53,330.43Zm-20.59-22c-3.09,1.95-4.77,4.25-4.77,6.53,0,5.54,10.19,11.48,25.36,11.48s25.38-5.94,25.38-11.48c0-2.28-1.69-4.58-4.79-6.53-5.4,2.76-12.83,4.33-20.59,4.33S630.36,311.18,624.94,308.42Z"/><path class="cls-1" d="M678.21,462.07h12.33a3.29,3.29,0,0,0,3.3-3.3V332.29a19.13,19.13,0,0,0-19.13-19.14h0l-.9,62.25-2.35,79.78A6.75,6.75,0,0,0,678.21,462.07Z"/><path class="cls-2" d="M691.82,441.19v16.1a3.3,3.3,0,0,1-3.29,3.31H676.18a6.67,6.67,0,0,1-5.35-2.66A24,24,0,0,0,691.82,441.19Z"/><circle class="cls-2" cx="683.9" cy="449.82" r="3.37"/><circle class="cls-2" cx="679.58" cy="444.78" r="1.5"/><path class="cls-5" d="M689.57,464.07H677.23a8.74,8.74,0,0,1-8.74-8.93h0l2.75-113.57.53-30.41h2a21.16,21.16,0,0,1,21.13,21.14V458.77A5.3,5.3,0,0,1,689.57,464.07Zm-17.08-8.85a4.73,4.73,0,0,0,4.74,4.85h12.34a1.3,1.3,0,0,0,1.3-1.3V332.29a17.15,17.15,0,0,0-15.17-17l-.46,26.37Z"/><circle class="cls-37" cx="572.65" cy="208.02" r="64.47"/><path class="cls-1" d="M579.26,271c-1.52.11-3.06.17-4.63.17a64.48,64.48,0,0,1,0-129c1.57,0,3.11.06,4.63.17a64.47,64.47,0,0,0,0,128.61Z"/><path class="cls-5" d="M574,273.48a67,67,0,1,1,67-67A67,67,0,0,1,574,273.48Zm0-128.94a62,62,0,1,0,62,62A62,62,0,0,0,574,144.54Z"/><circle class="cls-38" cx="717.46" cy="208.02" r="64.47"/><path class="cls-5" d="M718.78,273.48a67,67,0,1,1,67-67A67,67,0,0,1,718.78,273.48Zm0-128.94a62,62,0,1,0,62,62A62,62,0,0,0,718.78,144.54Z"/><rect class="cls-3" x="559.46" y="57.16" width="173.57" height="225.7" rx="80.39"/><path class="cls-1" d="M651.87,282.63c-2.07.14-4.17.22-6.28.22a86.79,86.79,0,0,1-86.79-86.78V144a86.79,86.79,0,0,1,86.79-86.79c2.11,0,4.21.08,6.28.23A86.79,86.79,0,0,0,571.36,144v52.12A86.8,86.8,0,0,0,651.87,282.63Z"/><path class="cls-4" d="M733,143.29V195.4a86.79,86.79,0,0,1-86.79,86.79h-.17V56.5h.17A86.79,86.79,0,0,1,733,143.29Z"/><path class="cls-5" d="M645.78,225.4a2.49,2.49,0,0,1-2.5-2.5V199.51a2.5,2.5,0,0,1,5,0V222.9A2.5,2.5,0,0,1,645.78,225.4Z"/><circle class="cls-1" cx="573.38" cy="177.09" r="10.2"/><circle class="cls-1" cx="588.54" cy="164.93" r="4.67"/><path class="cls-5" d="M633.52,191.73a2,2,0,0,1-2-2,14.66,14.66,0,0,0-29.32,0,2,2,0,1,1-4,0,18.66,18.66,0,1,1,37.32,0A2,2,0,0,1,633.52,191.73Z"/><path class="cls-5" d="M691.27,191.73a2,2,0,0,1-2-2,14.67,14.67,0,0,0-29.33,0,2,2,0,1,1-4,0,18.67,18.67,0,0,1,37.33,0A2,2,0,0,1,691.27,191.73Z"/><path class="cls-5" d="M650.75,285.35H639.1a83.55,83.55,0,0,1-83.46-83.45V138.12A83.55,83.55,0,0,1,639.1,54.66h11.65a83.55,83.55,0,0,1,83.46,83.46V201.9A83.55,83.55,0,0,1,650.75,285.35ZM639.1,59.66a78.54,78.54,0,0,0-78.46,78.46V201.9a78.54,78.54,0,0,0,78.46,78.45h11.65a78.54,78.54,0,0,0,78.46-78.45V138.12a78.55,78.55,0,0,0-78.46-78.46Z"/><path class="cls-37" d="M740,147.11c0-55.69-43.37-102.18-96.87-102.18s-96.87,46.49-96.87,102.18h40.33L600.46,113l7.27,34.08h13.89V126.26l12.56,20.85h19.18l10.57-38.05L673,147.11Z"/><path class="cls-38" d="M742,147.77H675l-9.06-38.05-10.58,38.05H636.16l-3.93-6.51c29.72-24.13,31.38-66.11,28.4-94.34C706.74,54.87,742,97.58,742,147.77Z"/><path class="cls-39" d="M652,43.73c-51.19,2.79-91.89,48.12-91.89,102.06h-9.91c0-55.69,43.37-102.19,96.87-102.19C648.73,43.6,650.38,43.64,652,43.73Z"/><path class="cls-5" d="M743.8,150.94H672.34l-7.27-30.54-8.49,30.54H634.09l-8.65-14.37v14.37H607l-6-28.12-11.46,28.12H545.06v-2.5a106.94,106.94,0,0,1,29.05-73.7c18.85-20,43.83-31,70.32-31s51.46,11,70.32,31a106.94,106.94,0,0,1,29,73.7Zm-67.51-5h62.48a101.86,101.86,0,0,0-27.66-67.77c-17.9-19-41.58-29.42-66.68-29.42S595.65,59.2,577.75,78.17a101.86,101.86,0,0,0-27.66,67.77h36.12l16.32-40,8.55,40.05h9.36V118.58l16.48,27.36h15.86l12.67-45.56Z"/><circle class="cls-38" cx="656.56" cy="87.1" r="10.2"/><circle class="cls-38" cx="643.58" cy="71.78" r="4.55"/><path class="cls-5" d="M646,257.45a23.14,23.14,0,0,1-23.11-23.11,2,2,0,0,1,4,0,19.12,19.12,0,0,0,38.23,0,2,2,0,0,1,4,0A23.14,23.14,0,0,1,646,257.45Z"/><ellipse class="cls-39" cx="568.8" cy="132.06" rx="1.57" ry="2.24" transform="translate(-8.89 217.18) rotate(-21.45)"/><ellipse class="cls-39" cx="579.44" cy="125.29" rx="1.27" ry="1.9" transform="translate(-5.68 220.6) rotate(-21.45)"/><ellipse class="cls-39" cx="574.09" cy="117.07" rx="5.95" ry="4.4" transform="translate(286.48 627.52) rotate(-72.13)"/><ellipse class="cls-1" cx="526.87" cy="197.02" rx="1.57" ry="2.24" transform="translate(-35.55 206.35) rotate(-21.45)"/><ellipse class="cls-1" cx="537.51" cy="190.24" rx="1.27" ry="1.9" transform="translate(-32.34 209.77) rotate(-21.45)"/><ellipse class="cls-1" cx="532.16" cy="182.02" rx="5.95" ry="4.4" transform="translate(195.6 632.63) rotate(-72.13)"/><path class="cls-1" d="M596,73.48a131.17,131.17,0,0,0-10.21,11.33,45.41,45.41,0,0,0-7.37,13c-.12.35-.85,1.13-1.38,1s-.64-1.25-.52-1.62c2.43-6.66,6.71-12.32,11.34-17.39q2.1-2.2,4.28-4.32c.25-.28,3.23-3.59,3.62-3.2S596.23,73.21,596,73.48Z"/><path class="cls-1" d="M604.26,67l-5.21,3.82c-.07,0-.5-.19-.83-.63a1.49,1.49,0,0,1-.36-1L601.59,67l1.16-.58c.06-.05.71-.74,1-.3S604.32,67,604.26,67Z"/></g></g></svg>