<?xml version="1.0" encoding="UTF-8"?>
<svg width="455px" height="399px" viewBox="0 0 455 399" version="1.1" xmlns="http://www.w3.org/2000/svg" xmlns:xlink="http://www.w3.org/1999/xlink">
    <!-- Generator: Sketch 57.1 (83088) - https://sketch.com -->
    <title>Group 2</title>
    <desc>Created with Sketch.</desc>
    <defs>
        <linearGradient x1="0.0255427842%" y1="50%" x2="100%" y2="50%" id="linearGradient-1">
            <stop stop-color="#F27B40" offset="4%"></stop>
            <stop stop-color="#EC697D" offset="100%"></stop>
        </linearGradient>
        <linearGradient x1="52.316197%" y1="53.6689202%" x2="45.3368438%" y2="46.8996395%" id="linearGradient-2">
            <stop stop-color="#F27B40" offset="4%"></stop>
            <stop stop-color="#EC697D" offset="100%"></stop>
        </linearGradient>
        <linearGradient x1="0%" y1="50.0338983%" x2="100%" y2="50.0338983%" id="linearGradient-3">
            <stop stop-color="#F27B40" offset="4%"></stop>
            <stop stop-color="#EC697D" offset="100%"></stop>
        </linearGradient>
        <linearGradient x1="0%" y1="50.0087796%" x2="100%" y2="50.0087796%" id="linearGradient-4">
            <stop stop-color="#F27B40" offset="4%"></stop>
            <stop stop-color="#EC697D" offset="100%"></stop>
        </linearGradient>
        <linearGradient x1="0%" y1="50%" x2="100%" y2="50%" id="linearGradient-5">
            <stop stop-color="#F27B40" offset="4%"></stop>
            <stop stop-color="#EC697D" offset="100%"></stop>
        </linearGradient>
        <linearGradient x1="0%" y1="50%" x2="100%" y2="50%" id="linearGradient-6">
            <stop stop-color="#F27B40" offset="4%"></stop>
            <stop stop-color="#EC697D" offset="100%"></stop>
        </linearGradient>
        <linearGradient x1="2.61228947e-14%" y1="50%" x2="100%" y2="50%" id="linearGradient-7">
            <stop stop-color="#F27B40" offset="4%"></stop>
            <stop stop-color="#EC697D" offset="100%"></stop>
        </linearGradient>
        <linearGradient x1="0%" y1="50%" x2="99.9488137%" y2="50%" id="linearGradient-8">
            <stop stop-color="#F27B40" offset="4%"></stop>
            <stop stop-color="#EC697D" offset="100%"></stop>
        </linearGradient>
        <linearGradient x1="0%" y1="49.9745547%" x2="100%" y2="49.9745547%" id="linearGradient-9">
            <stop stop-color="#F27B40" offset="4%"></stop>
            <stop stop-color="#EC697D" offset="100%"></stop>
        </linearGradient>
        <linearGradient x1="0%" y1="49.9807322%" x2="100.0342%" y2="49.9807322%" id="linearGradient-10">
            <stop stop-color="#F27B40" offset="4%"></stop>
            <stop stop-color="#EC697D" offset="100%"></stop>
        </linearGradient>
        <linearGradient x1="0%" y1="50%" x2="100.064683%" y2="50%" id="linearGradient-11">
            <stop stop-color="#F27B40" offset="4%"></stop>
            <stop stop-color="#EC697D" offset="100%"></stop>
        </linearGradient>
        <linearGradient x1="50%" y1="100%" x2="50%" y2="7.31011045e-14%" id="linearGradient-12">
            <stop stop-color="#F27B40" offset="4%"></stop>
            <stop stop-color="#EC697D" offset="100%"></stop>
        </linearGradient>
        <linearGradient x1="50%" y1="-7.31011045e-14%" x2="50%" y2="99.8971193%" id="linearGradient-13">
            <stop stop-color="#F27B40" offset="4%"></stop>
            <stop stop-color="#EC697D" offset="100%"></stop>
        </linearGradient>
    </defs>
    <g id="Page-1" stroke="none" stroke-width="1" fill="none" fill-rule="evenodd">
        <g id="Group-2">
            <rect id="Rectangle" fill="#FFFFFF" x="0" y="0" width="455" height="399"></rect>
            <g id="Group" transform="translate(52.000000, 37.640000)">
                <polygon id="Path" fill="#FFFFFF" fill-rule="nonzero" points="335.47 0.02 329.55 10.08 322.77 10.07 328.7 2.13162821e-14"></polygon>
                <polygon id="Path" fill="#FFFFFF" fill-rule="nonzero" points="351.32 0.04 345.4 10.11 338.61 10.09 344.54 0.03"></polygon>
                <g id="Asset-18" transform="translate(33.000000, 15.360000)">
                    <path d="M14.77,14.89 C13.9955603,15.0731147 13.1800963,14.9410263 12.5030612,14.5228023 C11.826026,14.1045784 11.3428996,13.4344905 11.16,12.66 L9.06,3.66 C8.76881116,2.08192234 9.77103337,0.554128508 11.334521,0.192705844 C12.8980087,-0.16871682 14.4690657,0.764226508 14.9,2.31 L17,11.31 C17.3625192,12.9126676 16.3683143,14.5087455 14.77,14.89 Z" id="Path" fill="#732E54" fill-rule="nonzero"></path>
                    <path d="M39.77,14.8 L5.3,14.8 L6.68,10.92 C6.78404324,10.6118767 7.07481041,10.4059167 7.4,10.41 L37.68,10.41 C38.0042147,10.4090213 38.2933514,10.6138265 38.4,10.92 L39.77,14.8 Z" id="Path" fill="#FFFFFF" fill-rule="nonzero"></path>
                    <path d="M54.75,28 L34.68,41 C33.8870607,41.577513 32.8399607,41.669752 31.9582701,41.2397569 C31.0765795,40.8097619 30.5045504,39.9278836 30.4713933,38.9474885 C30.4382362,37.9670933 30.9493758,37.0485822 31.8,36.56 L51.87,23.56 C52.6631296,23.0455376 53.670474,22.9932843 54.5125764,23.4229234 C55.3546788,23.8525626 55.9036037,24.6988218 55.9525764,25.6429234 C56.0015491,26.587025 55.5431296,27.4855376 54.75,28 Z" id="Path" fill="#389BF3" fill-rule="nonzero" opacity="0.8"></path>
                    <path d="M27.93,45.42 L14.51,54.14 C13.2866893,54.93529 11.65029,54.5883107 10.855,53.365 C10.05971,52.1416893 10.4066893,50.50529 11.63,49.71 L25.05,41 C26.270862,40.2987603 27.8269485,40.6746188 28.5931264,41.8558099 C29.3593044,43.0370009 29.0680695,44.611122 27.93,45.44 L27.93,45.42 Z" id="Path" fill="#FF9D23" fill-rule="nonzero" opacity="0.8"></path>
                    <path d="M45.32,24.91 L25.26,38 C24.039138,38.7012397 22.4830515,38.3253812 21.7168736,37.1441901 C20.9506956,35.9629991 21.2419305,34.388878 22.38,33.56 L42.44,20.56 C43.2313433,20.0455375 44.2370371,19.9923312 45.0782463,20.4204234 C45.9194555,20.8485155 46.4683804,21.6928688 46.5182463,22.6354234 C46.5681122,23.577978 46.1113433,24.4755376 45.32,24.99 L45.32,24.91 Z" id="Path" fill="#AA7DFF" fill-rule="nonzero"></path>
                    <path d="M18.5,42.35 L5.08,51.07 C3.85668928,51.86529 2.22029004,51.5183107 1.425,50.295 C0.62970996,49.0716893 0.976689279,47.43529 2.2,46.64 L15.62,37.92 C16.4113433,37.4055375 17.4170371,37.3523312 18.2582463,37.7804233 C19.0994556,38.2085155 19.6483805,39.0528688 19.6982464,39.9954234 C19.7481123,40.937978 19.2913433,41.8355376 18.5,42.35 L18.5,42.35 Z" id="Path" fill="#389BF3" fill-rule="nonzero"></path>
                    <path d="M51.38,21 L51.25,21.08 C50.029138,21.7812397 48.4730515,21.4053812 47.7068736,20.2241901 C46.9406956,19.0429991 47.2319305,17.468878 48.37,16.64 L48.5,16.56 C49.720862,15.8587603 51.2769485,16.2346188 52.0431264,17.4158099 C52.8093044,18.5970009 52.5180695,20.171122 51.38,21 Z" id="Path" fill="#FF9D23" fill-rule="nonzero"></path>
                    <path d="M53.73,37.84 L33.66,50.84 C32.4366893,51.63529 30.80029,51.2883107 30.005,50.065 C29.20971,48.8416893 29.5566893,47.20529 30.78,46.41 L50.85,33.41 C52.0733107,32.61471 53.70971,32.9616893 54.505,34.185 C55.30029,35.4083107 54.9533107,37.04471 53.73,37.84 L53.73,37.84 Z" id="Path" fill="#389BF3" fill-rule="nonzero" opacity="0.5"></path>
                    <path d="M26.91,55.27 L13.49,64 C12.2666893,64.79529 10.63029,64.4483107 9.835,63.225 C9.03970996,62.0016893 9.38668928,60.36529 10.61,59.57 L24,50.84 C25.2233107,50.04471 26.85971,50.3916893 27.655,51.615 C28.45029,52.8383107 28.1033107,54.47471 26.88,55.27 L26.91,55.27 Z" id="Path" fill="#AA7DFF" fill-rule="nonzero" opacity="0.5"></path>
                    <path d="M59.78,33.9 L59.66,33.98 C58.8686567,34.4944625 57.8629629,34.5476688 57.0217537,34.1195766 C56.1805445,33.6914845 55.6316196,32.8471312 55.5817537,31.9045766 C55.5318878,30.962022 55.9886567,30.0644624 56.78,29.55 L56.9,29.47 C57.6913433,28.9555376 58.6970371,28.9023313 59.5382463,29.3304234 C60.3794555,29.7585156 60.9283804,30.6028688 60.9782463,31.5454234 C61.0281122,32.487978 60.5713433,33.3855376 59.78,33.9 Z" id="Path" fill="#FF9D23" fill-rule="nonzero" opacity="0.5"></path>
                    <path d="M41.41,19.76 L38.51,66.33 C38.4519636,67.2991629 37.6508926,68.0564595 36.68,68.06 L11,68.06 C10.0272136,68.05679 9.22309471,67.3007434 9.16,66.33 L6.3,19.76" id="Path" fill="#FFFFFF" fill-rule="nonzero"></path>
                    <path d="M41,19.57 L38.13,66.14 C38.0669053,67.1107434 37.2627864,67.86679 36.29,67.870003 L10.65,67.870003 C9.67524846,67.8717433 8.86827172,67.1130098 8.81,66.14 L8.08,54.49 C11.3624799,56.610859 15.3719341,57.2905501 19.17,56.37 C23.74,55.24 27.51,51.85 29.95,47.82 C32.39,43.79 33.62,39.17 34.52,34.55 C35.4705429,29.598324 36.0720236,24.585984 36.32,19.55 L41,19.57 Z" id="Path" fill="#CEC1BC" fill-rule="nonzero"></path>
                    <path d="M41,20.57 L38.13,66.14 C38.0669053,67.1107434 37.2627864,67.86679 36.29,67.87 L10.64,67.87 C9.66721355,67.86679 8.86309471,67.1107434 8.8,66.14 L5.91,20.57" id="Path" stroke="#732E54" stroke-width="2" stroke-linecap="round"></path>
                    <path d="M3.76,15.45 L42.64,15.45 C42.8362602,15.45 43.0244821,15.5279641 43.163259,15.666741 C43.3020359,15.8055179 43.38,15.9937398 43.38,16.19 L43.38,19.7 C43.38,19.8962602 43.3020359,20.0844821 43.163259,20.223259 C43.0244821,20.3620359 42.8362602,20.44 42.64,20.44 L3.76,20.44 C3.52395732,20.44 3.29758234,20.3462324 3.13067496,20.179325 C2.96376759,20.0124177 2.86994374,19.7860427 2.86994374,19.55 L2.86994374,16.35 C2.86732825,16.1122295 2.95991504,15.883277 3.12711288,15.7142005 C3.29431071,15.545124 3.52221445,15.45 3.76,15.45 L3.76,15.45 Z" id="Path" stroke="#732E54" stroke-width="2" stroke-linecap="round"></path>
                    <path d="M5.69,15.2 L7.07,11.31 C7.18155157,11.0075489 7.46767009,10.8048816 7.79,10.8 L20.29,10.8" id="Path" stroke="#732E54" stroke-width="2" stroke-linecap="round"></path>
                    <path d="M40.17,15.2 L38.79,11.31 C38.6784484,11.0075489 38.3923299,10.8048816 38.07,10.8 L25.57,10.8" id="Path" stroke="#732E54" stroke-width="2" stroke-linecap="round"></path>
                    <polygon id="Path" fill="url(#linearGradient-1)" fill-rule="nonzero" points="42.28 47.04 5.13 47.04 4.13 26.98 43.28 26.98"></polygon>
                    <path d="M41.23,47.14 L6,47.14 C5.44771525,47.14 5,46.6922847 5,46.14 L4.1,28.08 C4.08629421,27.8062314 4.18556885,27.5388386 4.37461125,27.340344 C4.56365364,27.1418495 4.82588874,27.0296571 5.1,27.0299992 L42.1,27.0299992 C42.3741113,27.0296571 42.6363464,27.1418495 42.8253888,27.340344 C43.0144311,27.5388386 43.1137058,27.8062314 43.1,28.08 L42.2,46.14 C42.2002434,46.680778 41.7705347,47.1237767 41.23,47.14 Z" id="Path" stroke="#732E54" stroke-width="2" stroke-linecap="round"></path>
                    <path d="M12.16,43.98 L13.26,43.98" id="Path" stroke="#FFFFFF" opacity="0.3" stroke-linecap="round"></path>
                    <path d="M7.93,38.07 L8.19,42.5 C8.23244214,43.3373682 8.9215676,43.9957683 9.76,44 L9.76,44" id="Path" stroke="#FFFFFF" stroke-linecap="round"></path>
                    <path d="M7.8,34.36 L7.86,35.69" id="Path" stroke="#FFFFFF" opacity="0.6" stroke-linecap="round"></path>
                    <path d="M7.6,30.53 L7.69,32.42" id="Path" stroke="#FFFFFF" stroke-linecap="round"></path>
                </g>
                <g id="Asset-19" transform="translate(146.000000, 16.360000)">
                    <path d="M66.71,23.28 L46.64,36.28 C45.4166893,37.07529 43.78029,36.7283107 42.985,35.505 C42.18971,34.2816893 42.5366893,32.64529 43.76,31.85 L63.83,18.85 C65.0533107,18.05471 66.68971,18.4016893 67.485,19.625 C68.28029,20.8483107 67.9333107,22.48471 66.71,23.28 L66.71,23.28 Z" id="Path" fill="#389BF3" fill-rule="nonzero" opacity="0.8"></path>
                    <path d="M39.89,40.72 L26.47,49.44 C25.2439279,50.23529 23.6052901,49.8860721 22.81,48.66 C22.01471,47.4339278 22.3639279,45.7952901 23.59,45 L37,36.29 C37.7913433,35.7755375 38.7970371,35.7223312 39.6382463,36.1504234 C40.4794555,36.5785155 41.0283804,37.4228688 41.0782463,38.3654234 C41.1281122,39.307978 40.6713433,40.2055376 39.88,40.72 L39.89,40.72 Z" id="Path" fill="#FF9D23" fill-rule="nonzero" opacity="0.8"></path>
                    <path d="M57.29,20.22 L37.22,33.22 C36.4286567,33.7344625 35.4229629,33.7876688 34.5817537,33.3595766 C33.7405445,32.9314845 33.1916196,32.0871312 33.1417537,31.1445766 C33.0918878,30.202022 33.5486567,29.3044624 34.34,28.79 L54.41,15.79 C55.630862,15.0887603 57.1869485,15.4646188 57.9531264,16.6458099 C58.7193044,17.8270009 58.4280695,19.401122 57.29,20.23 L57.29,20.22 Z" id="Path" fill="#AA7DFF" fill-rule="nonzero"></path>
                    <path d="M30.47,37.65 L17.05,46.38 C16.2570607,46.957513 15.2099607,47.049752 14.3282701,46.6197569 C13.4465795,46.1897619 12.8745504,45.3078836 12.8413933,44.3274885 C12.8082362,43.3470933 13.3193758,42.4285822 14.17,41.94 L27.59,33.22 C28.8133107,32.42471 30.4497099,32.7716894 31.2449999,33.995 C32.0402899,35.2183107 31.6933107,36.8547099 30.47,37.65 L30.47,37.65 Z" id="Path" fill="#389BF3" fill-rule="nonzero"></path>
                    <path d="M63.34,16.28 L63.22,16.36 C62.4286567,16.8744624 61.4229629,16.9276687 60.5817537,16.4995766 C59.7405445,16.0714844 59.1916196,15.2271312 59.1417537,14.2845766 C59.0918878,13.342022 59.5486567,12.4444624 60.34,11.93 L60.46,11.85 C61.6833107,11.05471 63.31971,11.4016893 64.115,12.625 C64.91029,13.8483107 64.5633107,15.48471 63.34,16.28 L63.34,16.28 Z" id="Path" fill="#FF9D23" fill-rule="nonzero"></path>
                    <path d="M65.69,33.14 L45.62,46.14 C44.3966893,46.93529 42.7602901,46.5883106 41.9650001,45.365 C41.1697101,44.1416893 41.5166893,42.5052901 42.74,41.71 L62.81,28.71 C63.6013433,28.1955375 64.6070371,28.1423312 65.4482463,28.5704234 C66.2894555,28.9985155 66.8383804,29.8428688 66.8882463,30.7854234 C66.9381122,31.727978 66.4813433,32.6255376 65.69,33.14 Z" id="Path" fill="#389BF3" fill-rule="nonzero" opacity="0.5"></path>
                    <path d="M38.87,50.58 L25.45,59.3 C24.2266893,60.09529 22.59029,59.7483107 21.795,58.525 C20.99971,57.3016893 21.3466893,55.66529 22.57,54.87 L36,46.15 C36.7913433,45.6355376 37.7970371,45.5823313 38.6382463,46.0104234 C39.4794555,46.4385156 40.0283804,47.2828688 40.0782463,48.2254234 C40.1281122,49.167978 39.6713433,50.0655376 38.88,50.58 L38.87,50.58 Z" id="Path" fill="#AA7DFF" fill-rule="nonzero" opacity="0.5"></path>
                    <path d="M71.74,29.21 L71.62,29.29 C70.3966893,30.08529 68.76029,29.7383107 67.965,28.515 C67.16971,27.2916893 67.5166893,25.65529 68.74,24.86 L68.86,24.78 C69.6513433,24.2655375 70.6570371,24.2123312 71.4982463,24.6404233 C72.3394555,25.0685155 72.8883805,25.9128688 72.9382464,26.8554234 C72.9881123,27.797978 72.5313433,28.6955376 71.74,29.21 Z" id="Path" fill="#FF9D23" fill-rule="nonzero" opacity="0.5"></path>
                    <rect id="Rectangle" fill="#FFFFFF" fill-rule="nonzero" x="0.49" y="0.84" width="46.44" height="65.39"></rect>
                    <path d="M41.19,61.24 L41.19,47.98" id="Path" stroke="#732E54"></path>
                    <path d="M41.19,46.08 L41.19,41.76" id="Path" stroke="#732E54" opacity="0.5"></path>
                    <path d="M41.19,39.9 L41.19,36.58" id="Path" stroke="#732E54" opacity="0.2"></path>
                    <rect id="Rectangle" stroke="#732E54" stroke-width="2" x="0" y="1" width="46.44" height="65.39" rx="3"></rect>
                    <path d="M12.85,11.08 L35.17,11.08" id="Path" stroke="#732E54" stroke-width="2" stroke-linecap="round"></path>
                    <path d="M12.85,16.66 L20.17,16.66" id="Path" stroke="#732E54" stroke-width="2" stroke-linecap="round"></path>
                    <path d="M12.85,27.83 L20.17,27.83" id="Path" stroke="#732E54" stroke-width="2" stroke-linecap="round"></path>
                    <path d="M12.85,22.24 L33.17,22.24" id="Path" stroke="#732E54" stroke-width="2" stroke-linecap="round"></path>
                    <path d="M12.58,58.82 L33.61,58.82" id="Path" stroke="#732E54" stroke-width="2" stroke-linecap="round"></path>
                    <path d="M50.42,8.6 L50.42,8.6 C51.1541606,9.03298714 51.6852488,9.74097088 51.8955014,10.5669633 C52.105754,11.3929557 51.9777957,12.2686967 51.54,13 L28.13,52.25 L22.08,56.79 L22.61,49 L46,9.71 C46.4365995,8.97409558 47.1489437,8.44296335 47.978846,8.23454896 C48.8087484,8.02613457 49.6875139,8.15768948 50.42,8.6 L50.42,8.6 Z" id="Path" fill="url(#linearGradient-2)" fill-rule="nonzero"></path>
                    <polygon id="Path" fill="#FFFFFF" fill-rule="nonzero" points="28.47 51.16 22.48 55.65 23.01 47.82"></polygon>
                    <path d="M50.3,8.52 L50.3,8.52 C51.822201,9.43283359 52.3186754,11.4053132 51.41,12.93 L28.52,51.31 L21.85,56.65 L23,48 L45.89,9.63 C46.8028336,8.10779904 48.7753132,7.61132458 50.3,8.52 Z" id="Path" stroke="#732E54" stroke-width="2"></path>
                </g>
                <g id="Asset-20" transform="translate(246.000000, 28.360000)">
                    <path d="M62.33,25.62 L72.47,15.48" id="Path" stroke="#732E54" stroke-width="6" stroke-linecap="round"></path>
                    <polygon id="Path" fill="#732E54" fill-rule="nonzero" points="79.02 8.93 77.07 16.2 75.12 23.47 69.8 18.15 64.47 12.82 71.75 10.88"></polygon>
                    <path d="M54.75,11.86 L34.68,24.91 C33.8886567,25.4244624 32.8829629,25.4776687 32.0417537,25.0495766 C31.2005445,24.6214844 30.6516196,23.7771312 30.6017537,22.8345766 C30.5518878,21.892022 31.0086567,20.9944624 31.8,20.48 L51.87,7.48 C53.0933107,6.68470996 54.72971,7.03168928 55.525,8.255 C56.32029,9.47831072 55.9733107,11.11471 54.75,11.91 L54.75,11.86 Z" id="Path" fill="#389BF3" fill-rule="nonzero" opacity="0.8"></path>
                    <path d="M27.93,29.3 L14.51,38 C13.7186567,38.5144625 12.7129629,38.5676688 11.8717537,38.1395766 C11.0305445,37.7114845 10.4816196,36.8671312 10.4317537,35.9245766 C10.3818878,34.982022 10.8386567,34.0844624 11.63,33.57 L25.05,24.85 C26.2733107,24.05471 27.90971,24.4016893 28.705,25.625 C29.50029,26.8483107 29.1533107,28.48471 27.93,29.28 L27.93,29.3 Z" id="Path" fill="#FF9D23" fill-rule="nonzero" opacity="0.8"></path>
                    <path d="M45.32,8.79 L25.26,21.84 C24.4686567,22.3544624 23.4629629,22.4076687 22.6217537,21.9795766 C21.7805445,21.5514844 21.2316196,20.7071312 21.1817537,19.7645766 C21.1318878,18.822022 21.5886567,17.9244624 22.38,17.41 L42.44,4.41 C43.2313433,3.89553755 44.2370371,3.84233126 45.0782463,4.27042342 C45.9194555,4.69851558 46.4683804,5.54286881 46.5182463,6.48542342 C46.5681122,7.42797803 46.1113433,8.32553755 45.32,8.84 L45.32,8.79 Z" id="Path" fill="#AA7DFF" fill-rule="nonzero"></path>
                    <path d="M18.5,26.23 L5.08,35 C3.84288216,35.79529 2.19529006,35.4371178 1.40000003,34.2 C0.604710002,32.9628822 0.962882185,31.31529 2.2,30.52 L15.62,21.8 C16.4113433,21.2855375 17.4170371,21.2323312 18.2582463,21.6604234 C19.0994555,22.0885155 19.6483804,22.9328688 19.6982463,23.8754234 C19.7481122,24.817978 19.2913433,25.7155376 18.5,26.23 L18.5,26.23 Z" id="Path" fill="#389BF3" fill-rule="nonzero"></path>
                    <path d="M51.38,4.86 L51.25,4.94 C50.0266893,5.73528999 48.3902901,5.38831065 47.5950001,4.16499996 C46.79971,2.94168926 47.1466893,1.30529006 48.37,0.51 L48.5,0.43 C49.7233107,-0.365289987 51.3597099,-0.0183106522 52.1549999,1.20500004 C52.95029,2.42831074 52.6033107,4.06470994 51.38,4.86 L51.38,4.86 Z" id="Path" fill="#FF9D23" fill-rule="nonzero"></path>
                    <path d="M53.73,21.72 L33.66,34.77 C32.439138,35.4712397 30.8830515,35.0953812 30.1168736,33.9141901 C29.3506956,32.7329991 29.6419305,31.158878 30.78,30.33 L50.85,17.33 C52.0733107,16.53471 53.7097099,16.8816894 54.5049999,18.105 C55.3002899,19.3283107 54.9533107,20.9647099 53.73,21.76 L53.73,21.72 Z" id="Path" fill="#389BF3" fill-rule="nonzero" opacity="0.5"></path>
                    <path d="M26.91,39.16 L13.49,47.88 C12.6986567,48.3944625 11.6929629,48.4476688 10.8517537,48.0195767 C10.0105444,47.5914845 9.46161952,46.7471312 9.41175362,45.8045766 C9.36188773,44.862022 9.81865667,43.9644624 10.61,43.45 L24,34.72 C25.220862,34.0187603 26.7769485,34.3946188 27.5431264,35.5758099 C28.3093044,36.7570009 28.0180695,38.331122 26.88,39.16 L26.91,39.16 Z" id="Path" fill="#AA7DFF" fill-rule="nonzero" opacity="0.5"></path>
                    <path d="M59.78,17.79 L59.66,17.87 C58.439138,18.5712397 56.8830515,18.1953812 56.1168736,17.0141901 C55.3506956,15.8329991 55.6419305,14.258878 56.78,13.43 L56.9,13.35 C57.6929393,12.772487 58.7400393,12.680248 59.6217299,13.1102431 C60.5034205,13.5402381 61.0754496,14.4221164 61.1086067,15.4025115 C61.1417638,16.3829067 60.6306242,17.3014178 59.78,17.79 L59.78,17.79 Z" id="Path" fill="#FF9D23" fill-rule="nonzero" opacity="0.5"></path>
                    <path d="M74.6400141,36.73 C74.6400141,32.2054067 72.8426123,27.8661289 69.6432417,24.6667583 C66.4438711,21.4673877 62.1045933,19.67 57.58,19.67 C55.7877194,19.6726076 54.006639,19.952588 52.3,20.5 C49.5804613,14.5290505 43.0790422,11.2477046 36.6601532,12.6063774 C30.2412641,13.9650503 25.6269768,19.5992346 25.56,26.16 C25.5627856,26.8297491 25.6162717,27.4983263 25.72,28.16 C18.8885976,28.8221299 13.783443,34.7358839 14.1256523,41.5907631 C14.4678615,48.4456422 20.1366181,53.8215411 27,53.8000645 L57.83,53.8000645 C67.1603897,53.6686577 74.6518702,46.0613066 74.6400141,36.73 L74.6400141,36.73 Z" id="Path" fill="#FFFFFF" fill-rule="nonzero"></path>
                    <path d="M74.4900184,37.46 C74.4910826,46.7813684 67.0102859,54.3779393 57.69,54.5200061 L26.85,54.5200061 C22.5842139,54.524162 18.5957781,52.4062425 16.21,48.87 C18.3351936,50.3186457 20.8480325,51.0923631 23.42,51.09 L54.25,51.09 C60.6614276,50.9974889 66.4795287,47.3177225 69.3107603,41.5645417 C72.1419919,35.811361 71.5081521,28.956492 67.67,23.82 C71.9695173,27.0347658 74.4978977,32.0915266 74.4900184,37.46 Z" id="Path" fill="#CEC1BC" fill-rule="nonzero"></path>
                    <path d="M74.6400141,36.73 C74.6400141,32.2054067 72.8426123,27.8661289 69.6432417,24.6667583 C66.4438711,21.4673877 62.1045933,19.67 57.58,19.67 C55.7877194,19.6726076 54.006639,19.952588 52.3,20.5 C49.5804613,14.5290505 43.0790422,11.2477046 36.6601532,12.6063774 C30.2412641,13.9650503 25.6269768,19.5992346 25.56,26.16 C25.5627856,26.8297491 25.6162717,27.4983263 25.72,28.16 C18.8885976,28.8221299 13.783443,34.7358839 14.1256523,41.5907631 C14.4678615,48.4456422 20.1366181,53.8215411 27,53.8000645 L57.83,53.8000645 C67.1603897,53.6686577 74.6518702,46.0613066 74.6400141,36.73 L74.6400141,36.73 Z" id="Path" stroke="#732E54" stroke-width="2"></path>
                    <path d="M26.41,28.1199999 C30.4915391,28.1194955 34.3065983,30.1469484 36.59,33.53" id="Path" stroke="#732E54" stroke-width="2" stroke-linecap="round"></path>
                    <path d="M56.84,19.7 C52.9449959,19.7029105 49.2839072,21.5594464 46.98,24.7" id="Path" stroke="#732E54" stroke-width="2" stroke-linecap="round"></path>
                </g>
                <g id="Asset-21" transform="translate(146.000000, 126.360000)">
                    <path d="M53.75,24.94 L33.68,38 C32.8886567,38.5144625 31.8829629,38.5676688 31.0417537,38.1395766 C30.2005445,37.7114844 29.6516196,36.8671312 29.6017537,35.9245766 C29.5518878,34.982022 30.0086567,34.0844624 30.8,33.57 L50.87,20.57 C52.0933107,19.77471 53.72971,20.1216893 54.525,21.345 C55.32029,22.5683107 54.9733107,24.20471 53.75,25 L53.75,24.94 Z" id="Path" fill="#389BF3" fill-rule="nonzero" opacity="0.8"></path>
                    <path d="M26.93,42.38 L13.51,51.1 C12.7186567,51.6144625 11.7129629,51.6676688 10.8717537,51.2395767 C10.0305444,50.8114845 9.48161951,49.9671313 9.43175362,49.0245766 C9.38188772,48.082022 9.83865667,47.1844624 10.63,46.67 L24.05,37.94 C25.270862,37.2387603 26.8269485,37.6146188 27.5931264,38.7958099 C28.3593044,39.9770009 28.0680695,41.551122 26.93,42.38 L26.93,42.38 Z" id="Path" fill="#FF9D23" fill-rule="nonzero" opacity="0.8"></path>
                    <path d="M44.32,21.87 L24.26,34.92 C23.039138,35.6212397 21.4830515,35.2453812 20.7168736,34.0641901 C19.9506956,32.8829991 20.2419305,31.308878 21.38,30.48 L41.44,17.48 C42.2313433,16.9655375 43.2370371,16.9123312 44.0782463,17.3404234 C44.9194555,17.7685156 45.4683804,18.6128688 45.5182463,19.5554234 C45.5681122,20.497978 45.1113433,21.3955376 44.32,21.91 L44.32,21.87 Z" id="Path" fill="#AA7DFF" fill-rule="nonzero"></path>
                    <path d="M17.5,39.31 L4.08,48 C2.87431776,48.6427961 1.37739064,48.2594304 0.629107713,47.1162204 C-0.119175215,45.9730104 0.128466286,44.4477452 1.2,43.6 L14.62,34.87 C15.840862,34.1687603 17.3969485,34.5446188 18.1631264,35.7258099 C18.9293044,36.9070009 18.6380695,38.481122 17.5,39.31 Z" id="Path" fill="#389BF3" fill-rule="nonzero"></path>
                    <path d="M50.38,17.94 L50.25,18.02 C49.029138,18.7212397 47.4730515,18.3453812 46.7068736,17.1641901 C45.9406956,15.9829991 46.2319305,14.408878 47.37,13.58 L47.5,13.5 C48.720862,12.7987603 50.2769485,13.1746188 51.0431264,14.3558099 C51.8093044,15.5370009 51.5180695,17.111122 50.38,17.94 L50.38,17.94 Z" id="Path" fill="#FF9D23" fill-rule="nonzero"></path>
                    <path d="M52.73,34.8 L32.66,47.8 C31.4366893,48.59529 29.80029,48.2483107 29.005,47.025 C28.20971,45.8016893 28.5566893,44.16529 29.78,43.37 L49.85,30.37 C51.0733107,29.57471 52.7097099,29.9216894 53.5049999,31.145 C54.3002899,32.3683107 53.9533107,34.0047099 52.73,34.8 L52.73,34.8 Z" id="Path" fill="#389BF3" fill-rule="nonzero" opacity="0.5"></path>
                    <path d="M25.91,52.23 L12.49,61 C11.6970607,61.577513 10.6499607,61.669752 9.76827008,61.2397569 C8.88657948,60.8097619 8.31455037,59.9278836 8.28139326,58.9474885 C8.24823615,57.9670933 8.75937583,57.0485822 9.61,56.56 L23,47.8 C24.2233107,47.00471 25.85971,47.3516893 26.655,48.575 C27.45029,49.7983107 27.1033107,51.43471 25.88,52.23 L25.91,52.23 Z" id="Path" fill="#AA7DFF" fill-rule="nonzero" opacity="0.5"></path>
                    <path d="M58.78,30.86 L58.66,30.94 C57.8686567,31.4544625 56.8629629,31.5076688 56.0217537,31.0795766 C55.1805445,30.6514845 54.6316196,29.8071312 54.5817537,28.8645766 C54.5318878,27.922022 54.9886567,27.0244624 55.78,26.51 L55.9,26.43 C56.6913433,25.9155376 57.6970371,25.8623313 58.5382463,26.2904234 C59.3794555,26.7185156 59.9283804,27.5628688 59.9782463,28.5054234 C60.0281122,29.447978 59.5713433,30.3455376 58.78,30.86 Z" id="Path" fill="#FF9D23" fill-rule="nonzero" opacity="0.5"></path>
                    <rect id="Rectangle" fill="#FFFFFF" fill-rule="nonzero" x="2.77" y="0.39" width="49.06" height="23.54" rx="4.51"></rect>
                    <path d="M51.57,14.94 L51.57,19 C51.57,21.8276979 49.2776979,24.12 46.45,24.12 L7.63,24.12 C4.80230208,24.12 2.51,21.8276979 2.51,19 L2.51,14.94 C2.51,16.2979084 3.04942702,17.6002005 4.00961328,18.5603867 C4.96979954,19.520573 6.27209157,20.06 7.63,20.06 L46.45,20.06 C49.2776979,20.06 51.57,17.7676979 51.57,14.94 Z" id="Path" fill="#CEC1BC" fill-rule="nonzero"></path>
                    <rect id="Rectangle" fill="url(#linearGradient-3)" fill-rule="nonzero" x="20.63" y="41.66" width="13.26" height="29.5" rx="1.73"></rect>
                    <path d="M14.16,24.96 L14.28,33.52" id="Path" stroke="#732E54" stroke-width="2" stroke-linecap="round"></path>
                    <path d="M17.93,24.96 L18.05,30.28" id="Path" stroke="#732E54" stroke-width="2" stroke-linecap="round"></path>
                    <circle id="Oval" fill="#732E54" fill-rule="nonzero" cx="14.31" cy="36.84" r="1"></circle>
                    <path d="M38.96,24.96 L39.08,28.79" id="Path" stroke="#732E54" stroke-width="2" stroke-linecap="round"></path>
                    <path d="M42.74,24.96 L42.86,34.82" id="Path" stroke="#732E54" stroke-width="2" stroke-linecap="round"></path>
                    <circle id="Oval" fill="#732E54" fill-rule="nonzero" cx="39.02" cy="32.27" r="1"></circle>
                    <path d="M28.42,67.52 L29.52,67.52" id="Path" stroke="#FFFFFF" opacity="0.3" stroke-linecap="round"></path>
                    <polyline id="Path" stroke="#FFFFFF" stroke-linecap="round" points="23.54 60.67 23.54 67.52 26.03 67.52"></polyline>
                    <path d="M23.54,55.66 L23.54,56.99" id="Path" stroke="#FFFFFF" opacity="0.6" stroke-linecap="round"></path>
                    <path d="M23.54,48.47 L23.54,52.11" id="Path" stroke="#FFFFFF" stroke-linecap="round"></path>
                    <rect id="Rectangle" stroke="#732E54" stroke-width="2" x="2.7" y="1" width="49.06" height="23.54" rx="4.51"></rect>
                    <path d="M27.23,24.43 L27.23,42.17" id="Path" stroke="#732E54" stroke-width="2"></path>
                    <rect id="Rectangle" stroke="#732E54" stroke-width="2" x="20.6" y="41.44" width="13.26" height="29.5" rx="1.73"></rect>
                    <path d="M7.65,5.09 L20.91,5.09" id="Path" stroke="#732E54"></path>
                    <path d="M22.81,5.09 L27.13,5.09" id="Path" stroke="#732E54" opacity="0.5"></path>
                    <path d="M28.99,5.09 L32.3,5.09" id="Path" stroke="#732E54" opacity="0.2"></path>
                </g>
                <g id="Asset-22" transform="translate(253.000000, 134.360000)">
                    <path d="M54.75,11.86 L34.68,24.91 C33.8886567,25.4244624 32.8829629,25.4776687 32.0417537,25.0495766 C31.2005445,24.6214844 30.6516196,23.7771312 30.6017537,22.8345766 C30.5518878,21.892022 31.0086567,20.9944624 31.8,20.48 L51.87,7.48 C53.0933107,6.68470996 54.72971,7.03168928 55.525,8.255 C56.32029,9.47831072 55.9733107,11.11471 54.75,11.91 L54.75,11.86 Z" id="Path" fill="#389BF3" fill-rule="nonzero" opacity="0.8"></path>
                    <path d="M27.93,29.3 L14.51,38 C13.7186567,38.5144625 12.7129629,38.5676688 11.8717537,38.1395766 C11.0305445,37.7114845 10.4816196,36.8671312 10.4317537,35.9245766 C10.3818878,34.982022 10.8386567,34.0844624 11.63,33.57 L25.05,24.85 C26.2733107,24.05471 27.90971,24.4016893 28.705,25.625 C29.50029,26.8483107 29.1533107,28.48471 27.93,29.28 L27.93,29.3 Z" id="Path" fill="#FF9D23" fill-rule="nonzero" opacity="0.8"></path>
                    <path d="M45.32,8.79 L25.26,21.84 C24.4686567,22.3544624 23.4629629,22.4076687 22.6217537,21.9795766 C21.7805445,21.5514844 21.2316196,20.7071312 21.1817537,19.7645766 C21.1318878,18.822022 21.5886567,17.9244624 22.38,17.41 L42.44,4.41 C43.2313433,3.89553755 44.2370371,3.84233126 45.0782463,4.27042342 C45.9194555,4.69851558 46.4683804,5.54286881 46.5182463,6.48542342 C46.5681122,7.42797803 46.1113433,8.32553755 45.32,8.84 L45.32,8.79 Z" id="Path" fill="#AA7DFF" fill-rule="nonzero"></path>
                    <path d="M18.5,26.23 L5.08,35 C3.84288216,35.79529 2.19529006,35.4371178 1.40000003,34.2 C0.604710002,32.9628822 0.962882185,31.31529 2.2,30.52 L15.62,21.8 C16.4113433,21.2855375 17.4170371,21.2323312 18.2582463,21.6604234 C19.0994555,22.0885155 19.6483804,22.9328688 19.6982463,23.8754234 C19.7481122,24.817978 19.2913433,25.7155376 18.5,26.23 L18.5,26.23 Z" id="Path" fill="#389BF3" fill-rule="nonzero"></path>
                    <path d="M51.38,4.86 L51.25,4.94 C50.0266893,5.73528999 48.3902901,5.38831065 47.5950001,4.16499996 C46.79971,2.94168926 47.1466893,1.30529006 48.37,0.51 L48.5,0.43 C49.7233107,-0.365289987 51.3597099,-0.0183106522 52.1549999,1.20500004 C52.95029,2.42831074 52.6033107,4.06470994 51.38,4.86 L51.38,4.86 Z" id="Path" fill="#FF9D23" fill-rule="nonzero"></path>
                    <path d="M53.73,21.72 L33.66,34.77 C32.439138,35.4712397 30.8830515,35.0953812 30.1168736,33.9141901 C29.3506956,32.7329991 29.6419305,31.158878 30.78,30.33 L50.85,17.33 C52.0733107,16.53471 53.7097099,16.8816894 54.5049999,18.105 C55.3002899,19.3283107 54.9533107,20.9647099 53.73,21.76 L53.73,21.72 Z" id="Path" fill="#389BF3" fill-rule="nonzero" opacity="0.5"></path>
                    <path d="M26.91,39.16 L13.49,47.88 C12.6986567,48.3944625 11.6929629,48.4476688 10.8517537,48.0195767 C10.0105444,47.5914845 9.46161952,46.7471312 9.41175362,45.8045766 C9.36188773,44.862022 9.81865667,43.9644624 10.61,43.45 L24,34.72 C25.220862,34.0187603 26.7769485,34.3946188 27.5431264,35.5758099 C28.3093044,36.7570009 28.0180695,38.331122 26.88,39.16 L26.91,39.16 Z" id="Path" fill="#AA7DFF" fill-rule="nonzero" opacity="0.5"></path>
                    <path d="M59.78,17.79 L59.66,17.87 C58.439138,18.5712397 56.8830515,18.1953812 56.1168736,17.0141901 C55.3506956,15.8329991 55.6419305,14.258878 56.78,13.43 L56.9,13.35 C57.6929393,12.772487 58.7400393,12.680248 59.6217299,13.1102431 C60.5034205,13.5402381 61.0754496,14.4221164 61.1086067,15.4025115 C61.1417638,16.3829067 60.6306242,17.3014178 59.78,17.79 L59.78,17.79 Z" id="Path" fill="#FF9D23" fill-rule="nonzero" opacity="0.5"></path>
                    <path d="M17.97,59.71 L56.53,41.89" id="Path" stroke="#732E54" stroke-width="2" stroke-linecap="round"></path>
                    <rect id="Rectangle" fill="#FFFFFF" fill-rule="nonzero" x="34.86" y="21.16" width="11.57" height="38.38"></rect>
                    <rect id="Rectangle" fill="url(#linearGradient-4)" fill-rule="nonzero" x="52.72" y="6.25" width="11.59" height="56.95"></rect>
                    <rect id="Rectangle" stroke="#732E54" stroke-width="2" x="52.01" y="6.97" width="12.89" height="56.95"></rect>
                    <rect id="Rectangle" fill="url(#linearGradient-5)" fill-rule="nonzero" x="34.89" y="22.97" width="11.57" height="40"></rect>
                    <rect id="Rectangle" stroke="#732E54" stroke-width="2" x="34.15" y="22.06" width="12.89" height="41.86"></rect>
                    <rect id="Rectangle" fill="url(#linearGradient-6)" fill-rule="nonzero" x="16.72" y="37.4" width="11.64" height="26.3"></rect>
                    <rect id="Rectangle" stroke="#732E54" stroke-width="2" x="16.3" y="37.61" width="12.89" height="26.3"></rect>
                    <circle id="Oval" fill="#FFFFFF" fill-rule="nonzero" cx="64.4" cy="7.85" r="6.3"></circle>
                    <path d="M70.89,8.06 C70.9820409,10.3688327 69.8027575,12.542785 67.8171817,13.7245925 C65.831606,14.9064001 63.358394,14.9064001 61.3728183,13.7245925 C59.3872425,12.542785 58.2079591,10.3688327 58.3,8.06 C58.296612,7.51232993 58.3706784,6.96693173 58.52,6.44 C59.2584387,9.19364418 61.7540619,11.1081988 64.605,11.1081988 C67.4559381,11.1081988 69.9515613,9.19364418 70.69,6.44 C70.8228391,6.96975673 70.8900101,7.51384213 70.89,8.06 Z" id="Path" fill="#CEC1BC"></path>
                    <circle id="Oval" stroke="#732E54" stroke-width="2" cx="64.97" cy="8.43" r="6.3"></circle>
                    <circle id="Oval" fill="#FFFFFF" fill-rule="nonzero" cx="17.1" cy="37.23" r="6.3"></circle>
                    <path d="M23.6000566,37.44 C23.6000566,40.9193939 20.7793939,43.74 17.3,43.74 C13.8206061,43.74 11,40.9193939 11,37.44 C10.9942449,36.8914723 11.071795,36.3452494 11.23,35.82 C11.9610825,38.5778808 14.4568635,40.4982618 17.31,40.4982618 C20.1631365,40.4982618 22.6589175,38.5778808 23.39,35.82 C23.5317247,36.3482596 23.6023475,36.8930644 23.6000566,37.44 Z" id="Path" fill="#CEC1BC"></path>
                    <circle id="Oval" stroke="#732E54" stroke-width="2" cx="17.68" cy="37.8" r="6.3"></circle>
                    <path d="M59.74,60.4 L60.71,60.4" id="Path" stroke="#FFFFFF" opacity="0.3" stroke-linecap="round"></path>
                    <polyline id="Path" stroke="#FFFFFF" stroke-linecap="round" points="55.44 54.35 55.44 60.4 57.63 60.4"></polyline>
                    <path d="M55.44,49.95 L55.44,51.11" id="Path" stroke="#FFFFFF" opacity="0.6" stroke-linecap="round"></path>
                    <path d="M55.44,43.6 L55.44,46.81" id="Path" stroke="#FFFFFF" stroke-linecap="round"></path>
                </g>
                <g id="Asset-23" transform="translate(29.000000, 127.360000)">
                    <path d="M23.96,3.45 L23.96,0" id="Path" stroke="#732E54" stroke-width="2" stroke-linecap="round"></path>
                    <path d="M10.06,3.71 L12.07,6.2" id="Path" stroke="#732E54" stroke-width="2" stroke-linecap="round"></path>
                    <path d="M37.95,3.71 L35.95,6.2" id="Path" stroke="#732E54" stroke-width="2" stroke-linecap="round"></path>
                    <path d="M53.92,30.79 L33.85,43.84 C32.6341479,44.5090886 31.107832,44.1225738 30.3569717,42.9554471 C29.6061114,41.7883204 29.8870895,40.2390995 31,39.41 L51,26.36 C51.7913433,25.8455375 52.7970371,25.7923312 53.6382463,26.2204234 C54.4794555,26.6485155 55.0283804,27.4928688 55.0782463,28.4354234 C55.1281122,29.377978 54.6713433,30.2755376 53.88,30.79 L53.92,30.79 Z" id="Path" fill="#389BF3" fill-rule="nonzero" opacity="0.8"></path>
                    <path d="M27.1,48.23 L13.68,57 C12.4566893,57.79529 10.82029,57.4483107 10.025,56.225 C9.22970996,55.0016893 9.57668928,53.36529 10.8,52.57 L24.22,43.8 C25.4433107,43.00471 27.07971,43.3516893 27.875,44.575 C28.67029,45.7983107 28.3233107,47.43471 27.1,48.23 L27.1,48.23 Z" id="Path" fill="#FF9D23" fill-rule="nonzero" opacity="0.8"></path>
                    <path d="M44.5,27.73 L24.43,40.73 C23.6386567,41.2444625 22.6329629,41.2976688 21.7917537,40.8695766 C20.9505445,40.4414845 20.4016196,39.5971312 20.3517537,38.6545766 C20.3018878,37.712022 20.7586567,36.8144624 21.55,36.3 L41.61,23.29 C42.8336418,22.5438272 44.4287976,22.9057278 45.2106376,24.1068936 C45.9924775,25.3080594 45.6776505,26.9131694 44.5,27.73 L44.5,27.73 Z" id="Path" fill="#AA7DFF" fill-rule="nonzero"></path>
                    <path d="M17.67,45.16 L4.26,53.89 C3.03635822,54.6361728 1.44120236,54.2742722 0.65936245,53.0731064 C-0.122477465,51.8719406 0.192349461,50.2668306 1.37,49.45 L14.79,40.73 C15.5813433,40.2155375 16.5870371,40.1623312 17.4282463,40.5904234 C18.2694555,41.0185155 18.8183804,41.8628688 18.8682463,42.8054234 C18.9181122,43.747978 18.4613433,44.6455376 17.67,45.16 L17.67,45.16 Z" id="Path" fill="#389BF3" fill-rule="nonzero"></path>
                    <path d="M50.55,23.79 L50.43,23.87 C49.6386567,24.3862488 48.6320099,24.4411057 47.7892537,24.0139067 C46.9464975,23.5867077 46.3956666,22.7423545 46.3442537,21.7989067 C46.2928408,20.8554589 46.7486567,19.9562488 47.54,19.44 L47.67,19.36 C48.8933107,18.56471 50.5297099,18.9116893 51.325,20.135 C52.12029,21.3583107 51.7733107,22.99471 50.55,23.79 Z" id="Path" fill="#FF9D23" fill-rule="nonzero"></path>
                    <path d="M52.9,40.65 L32.83,53.7 C31.6183738,54.322606 30.1319709,53.9211027 29.3986109,52.7731222 C28.6652508,51.6251416 28.9257595,50.1076656 30,49.27 L50,36.22 C51.2233107,35.42471 52.8597099,35.7716894 53.6549999,36.995 C54.4502899,38.2183107 54.1033107,39.8547099 52.88,40.65 L52.9,40.65 Z" id="Path" fill="#389BF3" fill-rule="nonzero" opacity="0.5"></path>
                    <path d="M26.08,58.09 L12.66,66.81 C11.4366893,67.60529 9.80029004,67.2583107 9.005,66.035 C8.20970996,64.8116893 8.55668928,63.17529 9.78,62.38 L23.2,53.66 C24.4233107,52.86471 26.0597099,53.2116894 26.8549999,54.4350001 C27.6502899,55.6583107 27.3033106,57.2947099 26.08,58.09 L26.08,58.09 Z" id="Path" fill="#AA7DFF" fill-rule="nonzero" opacity="0.5"></path>
                    <path d="M59,36.72 L58.88,36.8 C58.0886567,37.3144625 57.0829629,37.3676688 56.2417537,36.9395766 C55.4005445,36.5114845 54.8516196,35.6671312 54.8017537,34.7245766 C54.7518878,33.782022 55.2086567,32.8844624 56,32.37 L56.12,32.29 C56.9113433,31.7755375 57.9170371,31.7223312 58.7582463,32.1504234 C59.5994555,32.5785155 60.1483804,33.4228688 60.1982463,34.3654234 C60.2481122,35.307978 59.7913433,36.2055376 59,36.72 L59,36.72 Z" id="Path" fill="#FF9D23" fill-rule="nonzero" opacity="0.5"></path>
                    <path d="M6.59,36.71 C7.85,39.71 9.79,42.37 11.41,45.2 C13.03,48.03 14.41,51.2 14.22,54.43 L33.22,54.43 C33.07,51.17 34.4,48.03 36.02,45.2 C37.64,42.37 39.58,39.7 40.85,36.71 C46.1,24.27 38,8.49 23.73,8.71 C9.44,8.49 1.36,24.27 6.59,36.71 Z" id="Path" fill="#FFFFFF" fill-rule="nonzero"></path>
                    <path d="M23.94,8.56 L23.94,54.28 L33.45,54.28 C33.3,51.02 34.63,47.88 36.25,45.05 C37.87,42.22 39.82,39.55 41.08,36.56 C46.31,24.12 38.23,8.34 23.94,8.56 Z" id="Path" fill="#CEC1BC" fill-rule="nonzero"></path>
                    <path d="M6.73,37 C8,40 9.94,42.66 11.56,45.49 C12.9940325,47.8023717 13.933757,50.3866139 14.32,53.08 C14.4324117,54.0243393 15.2390667,54.73178 16.19,54.720145 L31.56,54.720145 C32.5109333,54.73178 33.3175883,54.0243393 33.43,53.08 C33.8070693,50.3843228 34.7474648,47.798235 36.19,45.49 C37.81,42.66 39.75,40 41,37 C46.23,24.56 38.15,8.78 23.86,9 C9.59,8.78 1.5,24.56 6.73,37 Z" id="Path" stroke="#732E54" stroke-width="2"></path>
                    <path d="M16.8,62.78 L30.4,62.78 L30.4,63.08 C30.4,64.8834721 29.6835735,66.6130787 28.4083261,67.8883261 C27.1330787,69.1635735 25.4034721,69.88 23.6,69.88 L23.6,69.88 C19.8444637,69.88 16.8,66.8355363 16.8,63.08 L16.8,62.78 L16.8,62.78 Z" id="Path" fill="url(#linearGradient-7)" fill-rule="nonzero"></path>
                    <path d="M17,63 L30.63,63 L30.63,63.3 C30.63,65.1034721 29.9135735,66.8330787 28.6383261,68.1083261 C27.3630787,69.3835735 25.6334721,70.1000663 23.83,70.1000663 L23.83,70.1000663 C22.0213356,70.1079795 20.2840119,69.3950771 19.0022688,68.1189639 C17.7205256,66.8428506 17,65.108682 17,63.3 L17,63 Z" id="Path" stroke="#732E54" stroke-width="2"></path>
                    <path d="M9.98,62.97 L37.34,62.97" id="Path" stroke="#732E54" stroke-width="2" stroke-linecap="round"></path>
                    <path d="M14.84,59.07 L31.2,59.07" id="Path" stroke="#732E54" stroke-width="2" stroke-linecap="round"></path>
                    <path d="M43.26,13.86 L46.96,11.62" id="Path" stroke="#732E54" stroke-width="2" stroke-linecap="round"></path>
                    <path d="M4.7,13.86 L1,11.62" id="Path" stroke="#732E54" stroke-width="2" stroke-linecap="round"></path>
                    <path d="M23.94,54.28 L23.94,46.14" id="Path" stroke="#732E54" stroke-width="2" stroke-linecap="round"></path>
                    <polyline id="Path" stroke="#732E54" stroke-width="2" stroke-linecap="round" points="27.49 41.03 25.73 43.48 23.97 45.93 22.22 43.48 20.46 41.03"></polyline>
                    <path d="M35.58,35.61 C35.3089492,36.3572309 34.9743931,37.0798721 34.58,37.77" id="Path" stroke="#FFFFFF" stroke-linecap="round"></path>
                    <path d="M37,28.93 C36.9693153,29.7746106 36.8622113,30.6147076 36.68,31.44" id="Path" stroke="#FFFFFF" opacity="0.3" stroke-linecap="round"></path>
                    <path d="M29.85,14.76 C33.5397012,16.7680004 36.1772523,20.277439 37.08,24.38" id="Path" stroke="#FFFFFF" stroke-linecap="round"></path>
                    <path d="M14.1,15.94 C15.7678491,14.6640445 17.6972587,13.7727597 19.75,13.33 C21.5932609,12.9202495 23.4985952,12.8727011 25.36,13.19" id="Path" stroke="#FFFFFF" opacity="0.7" stroke-linecap="round"></path>
                    <path d="M11.09,20.5 C12.1554517,18.5672019 13.6463518,16.9019075 15.45,15.63" id="Path" stroke="#FFFFFF" stroke-width="2" stroke-linecap="round"></path>
                    <path d="M14.51,38.67 C9.91373462,34.8407405 8.12527526,28.5910466 10,22.91" id="Path" stroke="#FFFFFF" stroke-width="2" stroke-linecap="round"></path>
                </g>
                <g id="Asset-24" transform="translate(0.000000, 236.360000)">
                    <path d="M46.9,26.91 L89.45,26.91 C91.2670168,26.91 92.74,28.3829832 92.74,30.2 L92.74,64.52 C92.74,66.3370168 91.2670168,67.81 89.45,67.81 L46.9,67.81 C45.0388004,67.81 43.53,66.3011996 43.53,64.44 L43.53,30.28 C43.53,28.4188004 45.0388004,26.91 46.9,26.91 Z" id="Path" fill="#FFFFFF" fill-rule="nonzero"></path>
                    <path d="M92.43,29.47 L92.43,64.28 C92.43,65.97 93.26,67.2800568 91.58,67.2800568 L46.35,67.2800568 C44.8758882,67.2888508 43.5980731,66.2615876 43.29,64.82 C43.5164996,64.9146714 43.7557542,64.9753275 44,65 L87,65 C87.8043888,65.0001117 88.5751268,64.6771869 89.1391956,64.103717 C89.7032643,63.530247 90.0134065,62.7542771 90,61.95 L90,27.09 C90.0207037,26.8938782 90.0207037,26.6961218 90,26.5 C91.420054,26.7747657 92.441874,28.0236568 92.43,29.47 Z" id="Path" fill="#CEC1BC" fill-rule="nonzero"></path>
                    <path d="M58.49,12.91 L36.65,27.1 C35.7889899,27.6591207 34.6950965,27.7164261 33.7803787,27.2503298 C32.865661,26.7842335 32.2690864,25.8655467 32.2153787,24.8403298 C32.1616711,23.8151128 32.6589899,22.8391206 33.52,22.28 L55.35,8.09 C56.6759513,7.31918302 58.37337,7.72273409 59.2105427,9.00782075 C60.0477153,10.2929074 59.7309043,12.008633 58.49,12.91 Z" id="Path" fill="#389BF3" fill-rule="nonzero" opacity="0.8"></path>
                    <path d="M29.3,31.88 L14.7,41.37 C13.3740487,42.140817 11.67663,41.7372659 10.8394573,40.4521793 C10.0022847,39.1670926 10.3190957,37.451367 11.56,36.55 L26.17,27.06 C27.5010062,26.1956744 29.2806743,26.5739938 30.1449999,27.905 C31.0093256,29.2360063 30.6310062,31.0156743 29.3,31.88 L29.3,31.88 Z" id="Path" fill="#FF9D23" fill-rule="nonzero" opacity="0.8"></path>
                    <path d="M48.23,9.57 L26.4,23.77 C25.5372036,24.330907 24.4407065,24.38891 23.5235486,23.9221599 C22.6063908,23.4554098 22.0079101,22.534817 21.9535486,21.5071599 C21.8991872,20.4795028 22.3972036,19.500907 23.26,18.94 L45.1,4.75 C45.9610101,4.19087933 47.0549035,4.13357394 47.9696212,4.59967021 C48.884339,5.06576648 49.4809136,5.9844533 49.5346213,7.00967023 C49.5883289,8.03488716 49.0910101,9.01087936 48.23,9.57 L48.23,9.57 Z" id="Path" fill="#AA7DFF" fill-rule="nonzero"></path>
                    <path d="M19.05,28.54 L4.44,38 C3.11012922,38.7889931 1.39453596,38.3869932 0.553611527,37.0893366 C-0.287312907,35.7916801 0.0465844827,34.0615423 1.31,33.17 L15.91,23.68 C17.2359513,22.909183 18.93337,23.3127341 19.7705427,24.5978207 C20.6077153,25.8829074 20.2909043,27.598633 19.05,28.5 L19.05,28.54 Z" id="Path" fill="#389BF3" fill-rule="nonzero"></path>
                    <path d="M54.82,5.29 L54.69,5.37 C53.8292504,5.99523053 52.6939293,6.09502461 51.7373065,5.6295401 C50.7806837,5.16405559 50.1585867,4.20911681 50.1193837,3.14597704 C50.0801807,2.08283727 50.6302578,1.08467492 51.55,0.55 L51.68,0.47 C53.0059513,-0.300816975 54.70337,0.102734089 55.5405427,1.38782075 C56.3777153,2.67290741 56.0609043,4.38863304 54.82,5.29 L54.82,5.29 Z" id="Path" fill="#FF9D23" fill-rule="nonzero"></path>
                    <path d="M57.38,23.64 L35.54,37.83 C34.6772036,38.390907 33.5807065,38.44891 32.6635486,37.9821599 C31.7463907,37.5154098 31.1479101,36.594817 31.0935486,35.5671599 C31.0391871,34.5395028 31.5372036,33.560907 32.4,33 L54.24,18.8 C55.5737677,17.932913 57.3579129,18.3112324 58.2249999,19.6450001 C59.0920869,20.9787677 58.7137676,22.7629129 57.38,23.63 L57.38,23.64 Z" id="Path" fill="#389BF3" fill-rule="nonzero" opacity="0.5"></path>
                    <path d="M28.19,42.61 L13.59,52.1 C12.7292504,52.7252305 11.5939293,52.8250246 10.6373065,52.3595401 C9.68068373,51.8940556 9.05858668,50.9391168 9.01938371,49.875977 C8.98018075,48.8128373 9.53025777,47.8146749 10.45,47.28 L25.06,37.79 C26.3910062,36.9256744 28.1706744,37.3039938 29.035,38.635 C29.8993256,39.9660062 29.5210062,41.7456744 28.19,42.61 L28.19,42.61 Z" id="Path" fill="#AA7DFF" fill-rule="nonzero" opacity="0.5"></path>
                    <path d="M64,19.35 L63.87,19.44 C63.0092504,20.0652305 61.8739293,20.1650246 60.9173065,19.6995401 C59.9606837,19.2340556 59.3385867,18.2791168 59.2993837,17.215977 C59.2601807,16.1528373 59.8102578,15.1546749 60.73,14.62 L60.87,14.53 C61.7310101,13.9708793 62.8249035,13.9135739 63.7396212,14.3796702 C64.654339,14.8457665 65.2509136,15.7644533 65.3046213,16.7896702 C65.3583289,17.8148872 64.8610101,18.7908794 64,19.35 L64,19.35 Z" id="Path" fill="#FF9D23" fill-rule="nonzero" opacity="0.5"></path>
                    <path d="M45.09,26.9999999 L89.9,26.9999999 C91.6783569,26.9999999 93.12,28.4416431 93.12,30.22 L93.12,64.71 C93.12,66.4883569 91.6783569,67.93 89.9,67.93 L45.09,67.93 C44.438304,67.93 43.9096181,67.401696 43.9096181,66.75 L43.9096181,28.21 C43.9019096,27.8918795 44.0226498,27.5839767 44.2448257,27.3561523 C44.4670015,27.1283279 44.7717767,26.9999999 45.09,26.9999999 Z" id="Path" stroke="#732E54" stroke-width="2"></path>
                    <path d="M80.08,34.79 L93.11,34.79" id="Path" stroke="#732E54" stroke-width="2" stroke-linecap="round"></path>
                    <path d="M43.91,34.79 L59.87,34.79" id="Path" stroke="#732E54" stroke-width="2" stroke-linecap="round"></path>
                    <path d="M71.55,36.41 L69.33,36.41 C67.4780235,36.36654 65.9994901,34.8524863 66,33 C66.0000954,32.0773494 66.3971981,31.1993518 67.09,30.59 L68.52,29.19 C69.2016266,28.5206121 69.5856063,27.6053507 69.5856063,26.65 C69.5856063,25.6946493 69.2016266,24.7793879 68.52,24.11 L65.27,20.89 C63.8414929,19.5312684 61.5985071,19.5312684 60.17,20.89 L58.8,22.26 C58.1721124,22.9715875 57.2689991,23.3794452 56.32,23.38 C54.4673223,23.3916621 52.9442951,21.9219187 52.89,20.07 L52.89,17.84 C52.9013077,15.8489312 51.3107333,14.2182583 49.32,14.18 L44.9,14.18 C42.9108672,14.218294 41.3231893,15.8505696 41.34,17.84 L41.34,20.06 C41.2857076,21.9063954 39.7671567,23.3716639 37.92,23.36 C36.9962595,23.3614378 36.1158266,22.9685173 35.5,22.28 L34.09,20.89 C33.4024929,20.2312316 32.4820009,19.8716644 31.53,19.89 C30.5858627,19.882268 29.6754609,20.2406939 28.99,20.89 L25.71,24.09 C24.3115421,25.4946004 24.3115421,27.7653996 25.71,29.17 L27.08,30.53 C27.7905966,31.1553123 28.2015015,32.053485 28.21,33 C28.2159559,34.8508497 26.7403471,36.36646 24.89,36.41 L22.67,36.41 C21.7064616,36.3966579 20.7773685,36.7680367 20.088512,37.4418772 C19.3996556,38.1157177 19.0078935,39.0364015 19,40 L19,44.43 C19.0491341,46.4136294 20.6859599,47.988015 22.67,47.96 L24.89,47.96 C26.7396497,48.0141063 28.2107912,49.5295593 28.21,51.38 C28.2037739,52.3241576 27.7922072,53.2201346 27.08,53.84 L25.71,55.2 C24.3126958,56.6011747 24.3126958,58.8688253 25.71,60.27 L29,63.46 C29.6832289,64.1191245 30.6008495,64.4789757 31.55,64.46 C32.496627,64.4651476 33.4092219,64.1072672 34.1,63.46 L35.51,62.06 C36.1193247,61.3881881 36.9830294,61.0035128 37.89,61 C39.7426777,60.9883379 41.2657049,62.4580813 41.32,64.31 L41.32,66.52 C41.3032551,68.5132591 42.8969417,70.1471227 44.89,70.18 L49.32,70.18 C51.3091328,70.141706 52.8968107,68.5094304 52.88,66.52 L52.88,64.3 C52.9156981,62.9151241 53.7904467,61.6913116 55.0891982,61.2092327 C56.3879497,60.7271537 57.8493504,61.0838193 58.78,62.11 L60.15,63.48 C61.5785071,64.8387316 63.8214929,64.8387316 65.25,63.48 L68.5,60.24 C69.8984579,58.8353996 69.8984579,56.5646004 68.5,55.16 L67.07,53.75 C66.3840249,53.1416605 65.9940026,52.2668439 66,51.35 C65.9940441,49.4991503 67.4696529,47.98354 69.32,47.94 L71.54,47.94 C72.4656869,47.9409066 73.351482,47.5632305 73.9917239,46.8946593 C74.6319658,46.2260882 74.9709601,45.3247807 74.93,44.4 L74.93,40 C74.9971854,39.0654855 74.66995,38.1455401 74.0276951,37.4633818 C73.3854402,36.7812235 72.4868642,36.3991976 71.55,36.41 L71.55,36.41 Z M47.11,53.8300043 C42.3930623,53.8340454 38.1383351,50.9957439 36.3304374,46.6390223 C34.5225397,42.2823006 35.51765,37.2654874 38.8515986,33.928677 C42.1855473,30.5918666 47.2015048,29.5924523 51.559776,31.3966112 C55.9180473,33.2007702 58.76,37.4530606 58.76,42.17 C58.76,48.605737 53.5457346,53.8244805 47.11,53.8300043 L47.11,53.8300043 Z" id="Shape" fill="url(#linearGradient-8)" fill-rule="nonzero"></path>
                    <path d="M58.4800002,41.26 C58.4812357,47.6108785 53.399643,52.7947255 47.05,52.92 C42.3141589,53.0134352 37.9924211,50.2325734 36.1149834,45.8837634 C34.2375456,41.5349534 35.1775518,36.4825284 38.4934209,33.0999358 C41.8092901,29.7173432 46.8419875,28.6768788 51.2273333,30.4673154 C55.6126791,32.2577521 58.4790784,36.5232374 58.4800002,41.26 L58.4800002,41.26 Z" id="Path" fill="#FFFFFF" fill-rule="nonzero"></path>
                    <path d="M58.3000012,42.48 C58.3000012,42.9447963 58.2701582,43.4091132 58.21,43.87 C57.5670595,38.092445 52.6832189,33.7219429 46.87,33.7219429 C41.0567811,33.7219429 36.1729405,38.092445 35.53,43.87 C35.4698418,43.4091132 35.4399988,42.9447963 35.4399988,42.48 C35.4399988,36.1673853 40.5573853,31.05 46.87,31.05 C53.1826147,31.05 58.3000012,36.1673853 58.3000012,42.48 L58.3000012,42.48 Z" id="Path" fill="#FFFFFF" fill-rule="nonzero"></path>
                    <path d="M35.5199988,40.63 C35.5199988,40.1652037 35.5498418,39.7008868 35.61,39.24 C36.2529405,45.017555 41.1367811,49.3880571 46.95,49.3880571 C52.7632189,49.3880571 57.6470595,45.017555 58.29,39.24 C58.3501582,39.7008868 58.3800012,40.1652037 58.3800012,40.63 C58.3800012,46.9426147 53.2626147,52.06 46.95,52.06 C40.6373853,52.06 35.5199988,46.9426147 35.5199988,40.63 L35.5199988,40.63 Z" id="Path" fill="#CEC1BC" fill-rule="nonzero"></path>
                    <path d="M71.55,35.57 L69.33,35.57 C67.4757287,35.531825 65.9941522,34.014655 66,32.16 C65.9977306,31.2397057 66.3955145,30.3638514 67.09,29.76 L68.52,28.36 C69.1972327,27.686224 69.5779899,26.7703105 69.5779899,25.815 C69.5779899,24.8596895 69.1972327,23.943776 68.52,23.27 L65.27,20.05 C63.8414929,18.6912684 61.5985071,18.6912684 60.17,20.05 L58.8,21.42 C58.173696,22.1337292 57.2695588,22.5420493 56.32,22.54 C54.4673223,22.5516621 52.9442951,21.0819187 52.89,19.23 L52.89,17 C52.9012322,15.0106269 51.3091336,13.382851 49.32,13.35 L44.9,13.35 C42.9140494,13.382887 41.3277197,15.0139021 41.35,17 L41.35,19.22 C41.2957049,21.0719187 39.7726777,22.5416621 37.92,22.53 C36.9976022,22.5251629 36.1196004,22.1333274 35.5,21.45 L34.09,20.05 C33.4067711,19.3908755 32.4891505,19.0310243 31.54,19.05 C30.5926077,19.0407189 29.6785295,19.399181 28.99,20.05 L25.71,23.26 C24.3126958,24.6611747 24.3126958,26.9288253 25.71,28.33 L27.08,29.7 C27.7880196,30.3229914 28.1986741,31.2169826 28.21,32.16 C28.2213268,34.0130178 26.7426581,35.531771 24.89,35.57 L22.67,35.57 C20.6783317,35.5421194 19.0383216,37.1285052 19,39.12 L19,43.55 C19.0491077,45.5352076 20.6843124,47.1124895 22.67,47.09 L24.89,47.09 C26.7403471,47.13354 28.2159559,48.6491503 28.21,50.5 C28.2126805,51.4575538 27.8005502,52.3693465 27.08,53 L25.71,54.36 C24.3126958,55.7611747 24.3126958,58.0288253 25.71,59.43 L29,62.63 C29.6850342,63.2863062 30.6014412,63.6456815 31.55,63.63 C32.496627,63.6351476 33.4092219,63.2772672 34.1,62.63 L35.51,61.23 C36.1242735,60.5393575 37.0057149,60.1459869 37.93,60.15 C39.7826777,60.1383379 41.3057049,61.6080813 41.36,63.46 L41.36,65.67 C41.3432551,67.6632591 42.9369417,69.2971227 44.93,69.33 L49.36,69.33 C51.3475457,69.2916851 52.9323352,67.6577895 52.91,65.67 L52.91,63.46 C52.941395,62.070401 53.8178665,60.8407629 55.121214,60.3577966 C56.4245614,59.8748302 57.8906704,60.2364055 58.82,61.27 L60.19,62.64 C61.6185071,63.9987316 63.8614929,63.9987316 65.29,62.64 L68.5,59.4 C69.8984579,57.9953996 69.8984579,55.7246004 68.5,54.32 L67.07,52.92 C66.3856808,52.3062257 65.9963127,51.4292378 66,50.51 C65.9937814,48.6667209 67.4575076,47.1542039 69.3,47.1 L71.52,47.1 C72.4456869,47.1009066 73.331482,46.7232305 73.9717239,46.0546593 C74.6119658,45.3860882 74.9509601,44.4847807 74.91,43.56 L74.91,39.12 C74.9652932,38.1956683 74.6355247,37.2896774 73.9989995,36.6171582 C73.3624744,35.944639 72.4759735,35.5655835 71.55,35.57 L71.55,35.57 Z" id="Path" stroke="#732E54" stroke-width="2"></path>
                    <path d="M58.4800002,41.36 C58.3045756,47.5664804 53.1705783,52.4778524 46.9624198,52.3781437 C40.7542614,52.278435 35.7806335,47.2047255 35.8045252,40.9958127 C35.8285896,34.7868999 40.8412566,29.7517561 47.05,29.7 C53.399643,29.8252745 58.4812357,35.0091215 58.4800002,41.36 Z" id="Path" stroke="#732E54" stroke-width="2" stroke-linecap="round"></path>
                    <path d="M61,47.65 C60.7225277,48.391348 60.3881998,49.1101532 60,49.8" id="Path" stroke="#FFFFFF" stroke-linecap="round"></path>
                    <path d="M62.43,41 C62.3893466,41.843766 62.2823496,42.6830239 62.11,43.51" id="Path" stroke="#FFFFFF" opacity="0.3" stroke-linecap="round"></path>
                    <path d="M55.28,26.79 C58.9726337,28.7968341 61.6137376,32.3061463 62.52,36.41" id="Path" stroke="#FFFFFF" stroke-linecap="round"></path>
                    <path d="M39.54,28 C42.7489944,25.5594269 46.8238645,24.5533755 50.8,25.22" id="Path" stroke="#FFFFFF" opacity="0.7" stroke-linecap="round"></path>
                </g>
                <g id="Asset-25" transform="translate(149.000000, 235.360000)">
                    <path d="M54.75,19.53 L34.68,32.53 C33.8886567,33.0444624 32.8829629,33.0976687 32.0417537,32.6695766 C31.2005445,32.2414844 30.6516196,31.3971312 30.6017537,30.4545766 C30.5518878,29.512022 31.0086567,28.6144624 31.8,28.1 L51.87,15.1 C53.0933107,14.30471 54.72971,14.6516893 55.525,15.875 C56.32029,17.0983107 55.9733107,18.73471 54.75,19.53 L54.75,19.53 Z" id="Path" fill="#389BF3" fill-rule="nonzero" opacity="0.8"></path>
                    <path d="M27.93,37 L14.51,45.69 C13.2866893,46.48529 11.65029,46.1383107 10.855,44.915 C10.05971,43.6916893 10.4066893,42.05529 11.63,41.26 L25.05,32.54 C26.281595,31.74471 27.92471,32.098405 28.72,33.33 C29.51529,34.561595 29.161595,36.20471 27.93,37 Z" id="Path" fill="#FF9D23" fill-rule="nonzero" opacity="0.8"></path>
                    <path d="M45.32,16.46 L25.26,29.51 C24.4686567,30.0244625 23.4629629,30.0776688 22.6217537,29.6495766 C21.7805445,29.2214844 21.2316196,28.3771312 21.1817537,27.4345766 C21.1318878,26.492022 21.5886567,25.5944624 22.38,25.08 L42.44,12 C43.2313433,11.4855375 44.2370371,11.4323312 45.0782463,11.8604234 C45.9194555,12.2885156 46.4683804,13.1328688 46.5182463,14.0754234 C46.5681122,15.017978 46.1113433,15.9155376 45.32,16.43 L45.32,16.46 Z" id="Path" fill="#AA7DFF" fill-rule="nonzero"></path>
                    <path d="M18.5,33.9 L5.08,42.62 C3.85668928,43.41529 2.22029004,43.0683107 1.425,41.845 C0.62970996,40.6216893 0.976689279,38.98529 2.2,38.19 L15.62,29.47 C16.4113433,28.9555375 17.4170371,28.9023312 18.2582463,29.3304234 C19.0994555,29.7585155 19.6483804,30.6028688 19.6982463,31.5454234 C19.7481122,32.487978 19.2913433,33.3855376 18.5,33.9 Z" id="Path" fill="#389BF3" fill-rule="nonzero"></path>
                    <path d="M51.38,12.53 L51.25,12.61 C50.4586567,13.1244624 49.4529629,13.1776687 48.6117537,12.7495766 C47.7705445,12.3214844 47.2216196,11.4771312 47.1717537,10.5345766 C47.1218878,9.59202197 47.5786567,8.69446245 48.37,8.18 L48.5,8.1 C49.7233107,7.30471002 51.3597099,7.65168936 52.1549999,8.87500005 C52.9502899,10.0983107 52.6033107,11.7347099 51.38,12.53 L51.38,12.53 Z" id="Path" fill="#FF9D23" fill-rule="nonzero"></path>
                    <path d="M53.73,29.39 L33.66,42.39 C32.8811645,43.0697234 31.7781649,43.2345123 30.8346704,42.8121063 C29.891176,42.3897003 29.2794308,41.4572137 29.2675152,40.4235451 C29.2559437,39.3898766 29.8463458,38.4437323 30.78,38 L50.85,25 C52.0733107,24.20471 53.7097099,24.5516894 54.5049999,25.775 C55.3002899,26.9983107 54.9533107,28.6347099 53.73,29.43 L53.73,29.39 Z" id="Path" fill="#389BF3" fill-rule="nonzero" opacity="0.5"></path>
                    <path d="M26.91,46.83 L13.49,55.55 C12.6986567,56.0644625 11.6929629,56.1176688 10.8517537,55.6895767 C10.0105444,55.2614845 9.46161952,54.4171312 9.41175362,53.4745766 C9.36188773,52.532022 9.81865667,51.6344624 10.61,51.12 L24,42.39 C25.220862,41.6887603 26.7769485,42.0646188 27.5431264,43.2458099 C28.3093044,44.4270009 28.0180695,46.001122 26.88,46.83 L26.91,46.83 Z" id="Path" fill="#AA7DFF" fill-rule="nonzero" opacity="0.5"></path>
                    <path d="M59.78,25.46 L59.66,25.54 C58.439138,26.2412397 56.8830515,25.8653812 56.1168736,24.6841901 C55.3506956,23.5029991 55.6419305,21.928878 56.78,21.1 L56.9,21 C57.6929393,20.422487 58.7400393,20.330248 59.6217299,20.7602431 C60.5034205,21.1902381 61.0754496,22.0721164 61.1086067,23.0525115 C61.1417638,24.0329067 60.6306242,24.9514178 59.78,25.44 L59.78,25.46 Z" id="Path" fill="#FF9D23" fill-rule="nonzero" opacity="0.5"></path>
                    <rect id="Rectangle" fill="#FFFFFF" fill-rule="nonzero" x="3.05" y="1.36" width="37.52" height="69.81" rx="5.9"></rect>
                    <path d="M40.6300012,5.5 L40.6300012,67.5 C40.6300012,68.7702549 39.6002549,69.8 38.33,69.8 L7.71,70.89 C5.33,70.89 4.23,68.26 3.45,66.14 C4.06137915,66.3660244 4.70817936,66.4811616 5.36,66.48 L35,66.48 C36.2702549,66.48 37.3,65.4502549 37.3,64.18 L37.3,2.18 C37.3103166,1.54390552 37.2087724,0.91094652 37,0.31 C39.1808402,1.10473605 40.6315316,3.17886516 40.6300012,5.5 Z" id="Path" fill="#CEC1BC" fill-rule="nonzero"></path>
                    <circle id="Oval" fill="#FFFFFF" fill-rule="nonzero" cx="17.52" cy="22.51" r="7.67"></circle>
                    <path d="M25.43,22.76 C25.43,26.996024 21.996024,30.43 17.76,30.43 C13.523976,30.43 10.09,26.996024 10.09,22.76 C10.0798701,22.0836057 10.1708751,21.4094949 10.36,20.76 C11.2567058,24.1156823 14.2965744,26.449899 17.77,26.449899 C21.2434256,26.449899 24.2832942,24.1156823 25.18,20.76 C25.3523461,21.412497 25.4364285,22.0851562 25.43,22.76 L25.43,22.76 Z" id="Path" fill="#CEC1BC"></path>
                    <circle id="Oval" stroke="#732E54" stroke-width="2" cx="18.22" cy="23.21" r="7.67"></circle>
                    <rect id="Rectangle" stroke="#732E54" stroke-width="2" x="3.76" y="1" width="37.52" height="69.81" rx="4.03"></rect>
                    <path d="M13.83,6.82 L26.28,6.82" id="Path" stroke="#732E54" stroke-width="2" stroke-linecap="round"></path>
                    <circle id="Oval" fill="#732E54" fill-rule="nonzero" cx="30.02" cy="6.81" r="1.19"></circle>
                    <path d="M23.58,46.54 L23.71,59.38" id="Path" stroke="#732E54" stroke-width="2" stroke-linecap="round"></path>
                    <path d="M27.63,46.54 L27.76,55.9" id="Path" stroke="#732E54" stroke-width="2" stroke-linecap="round"></path>
                    <circle id="Oval" fill="#732E54" fill-rule="nonzero" cx="23.75" cy="62.94" r="1"></circle>
                    <path d="M50.2,46.54 L50.33,54.3" id="Path" stroke="#732E54" stroke-width="2" stroke-linecap="round"></path>
                    <path d="M54.25,46.54 L54.38,57.12" id="Path" stroke="#732E54" stroke-width="2" stroke-linecap="round"></path>
                    <circle id="Oval" fill="#732E54" fill-rule="nonzero" cx="50.26" cy="58.04" r="1"></circle>
                    <polygon id="Path" fill="url(#linearGradient-9)" points="30.36 31.79 36.04 41.61 41.71 51.44 30.36 51.44 19.02 51.44 24.69 41.61"></polygon>
                    <polygon id="Path" stroke="#732E54" stroke-width="2" points="30.84 31.67 36.52 41.49 42.19 51.32 30.84 51.32 19.5 51.32 25.17 41.49"></polygon>
                    <polygon id="Path" fill="url(#linearGradient-10)" points="48.48 25.66 55.78 38.63 63.09 51.61 48.48 51.61 33.85 51.61 41.16 38.63"></polygon>
                    <polygon id="Path" stroke="#732E54" stroke-width="2" points="48.72 25.4 56.03 38.38 63.34 51.35 48.72 51.35 34.1 51.35 41.41 38.38"></polygon>
                </g>
                <g id="Asset-26" transform="translate(253.000000, 242.360000)">
                    <path d="M63.35,12.86 L43.29,25.91 C42.4986567,26.4262488 41.4920099,26.4811057 40.6492537,26.0539067 C39.8064975,25.6267077 39.2556666,24.7823545 39.2042537,23.8389067 C39.1528408,22.8954589 39.6086567,21.9962488 40.4,21.48 L60.47,8.48 C61.2613433,7.96553751 62.2670371,7.9123312 63.1082463,8.34042336 C63.9494555,8.76851552 64.4983804,9.61286877 64.5482463,10.5554234 C64.5981122,11.497978 64.1413433,12.3955376 63.35,12.91 L63.35,12.86 Z" id="Path" fill="#389BF3" fill-rule="nonzero" opacity="0.8"></path>
                    <path d="M36.53,30.3 L23.11,39 C21.8866893,39.79529 20.2502901,39.4483106 19.4550001,38.225 C18.6597101,37.0016893 19.0066893,35.3652901 20.23,34.57 L33.65,25.85 C34.4413433,25.3355375 35.4470371,25.2823312 36.2882463,25.7104234 C37.1294555,26.1385155 37.6783804,26.9828688 37.7282463,27.9254234 C37.7781122,28.867978 37.3213433,29.7655376 36.53,30.28 L36.53,30.3 Z" id="Path" fill="#FF9D23" fill-rule="nonzero" opacity="0.8"></path>
                    <path d="M53.93,9.79 L33.86,22.84 C32.6417702,23.5403713 31.0884152,23.1637313 30.3262511,21.9831765 C29.564087,20.8026216 29.8602516,19.2319352 31,18.41 L51.07,5.41 C51.8613433,4.89553752 52.8670371,4.8423312 53.7082463,5.27042336 C54.5494555,5.69851552 55.0983804,6.54286877 55.1482463,7.4854234 C55.1981122,8.42797803 54.7413433,9.32553756 53.95,9.84 L53.93,9.79 Z" id="Path" fill="#AA7DFF" fill-rule="nonzero"></path>
                    <path d="M27.11,27.23 L13.69,36 C12.8986567,36.5144625 11.8929629,36.5676688 11.0517537,36.1395766 C10.2105445,35.7114845 9.66161956,34.8671312 9.61175366,33.9245766 C9.56188775,32.982022 10.0186567,32.0844624 10.81,31.57 L24.23,22.8 C25.4533107,22.00471 27.0897099,22.3516894 27.8849999,23.575 C28.6802899,24.7983107 28.3333107,26.4347099 27.11,27.23 L27.11,27.23 Z" id="Path" fill="#389BF3" fill-rule="nonzero"></path>
                    <path d="M60,5.86 L59.88,5.94 C59.0886567,6.45446248 58.0829629,6.5076688 57.2417537,6.07957664 C56.4005445,5.65148448 55.8516196,4.80713123 55.8017537,3.8645766 C55.7518878,2.92202197 56.2086567,2.02446244 57,1.51 L57.1,1.43 C57.8913433,0.911964857 58.8989431,0.855457271 59.7432463,1.2817631 C60.5875495,1.70806894 61.1402864,2.55242219 61.1932463,3.49676315 C61.2462063,4.4411041 60.7913433,5.34196491 60,5.86 L60,5.86 Z" id="Path" fill="#FF9D23" fill-rule="nonzero"></path>
                    <path d="M62.33,22.72 L42.27,35.77 C41.0463582,36.5161728 39.4512024,36.1542722 38.6693624,34.9531064 C37.8875225,33.7519406 38.2023495,32.1468306 39.38,31.33 L59.45,18.33 C60.2413433,17.8155375 61.2470371,17.7623312 62.0882463,18.1904234 C62.9294555,18.6185156 63.4783804,19.4628688 63.5282463,20.4054234 C63.5781122,21.347978 63.1213433,22.2455376 62.33,22.76 L62.33,22.72 Z" id="Path" fill="#389BF3" fill-rule="nonzero" opacity="0.5"></path>
                    <path d="M35.51,40.16 L22.09,48.88 C20.8666893,49.67529 19.23029,49.3283107 18.435,48.105 C17.63971,46.8816893 17.9866893,45.24529 19.21,44.45 L32.63,35.72 C33.4229393,35.142487 34.4700393,35.050248 35.3517299,35.4802431 C36.2334205,35.9102381 36.8054496,36.7921164 36.8386067,37.7725115 C36.8717638,38.7529067 36.3606242,39.6714178 35.51,40.16 L35.51,40.16 Z" id="Path" fill="#AA7DFF" fill-rule="nonzero" opacity="0.5"></path>
                    <path d="M68.39,18.79 L68.26,18.87 C67.039138,19.5712397 65.4830515,19.1953812 64.7168736,18.0141901 C63.9506956,16.8329991 64.2419305,15.258878 65.38,14.43 L65.5,14.35 C66.7236418,13.6038272 68.3187976,13.9657278 69.1006376,15.1668936 C69.8824775,16.3680594 69.5676505,17.9731694 68.39,18.79 L68.39,18.79 Z" id="Path" fill="#FF9D23" fill-rule="nonzero" opacity="0.5"></path>
                    <path d="M8.53,54.39 C8.83477686,37.3572264 22.7294999,23.7089052 39.765,23.7089052 C56.8005001,23.7089052 70.6952231,37.3572264 71,54.39" id="Path" stroke="#732E54" stroke-width="2"></path>
                    <rect id="Rectangle" fill="url(#linearGradient-11)" fill-rule="nonzero" transform="translate(39.890000, 23.920000) rotate(90.000000) translate(-39.890000, -23.920000) " x="32.16" y="16.19" width="15.46" height="15.46"></rect>
                    <rect id="Rectangle" stroke="#732E54" stroke-width="2" transform="translate(40.200000, 24.230000) rotate(90.000000) translate(-40.200000, -24.230000) " x="32.47" y="16.5" width="15.46" height="15.46"></rect>
                    <polyline id="Path" stroke="#732E54" stroke-width="2" points="32.19 24.07 16.37 24.07 9.59 24.07"></polyline>
                    <path d="M48.24,24.07 L70.85,24.07" id="Path" stroke="#732E54" stroke-width="2"></path>
                    <circle id="Oval" fill="url(#linearGradient-12)" fill-rule="nonzero" cx="71.42" cy="58.29" r="4.86"></circle>
                    <circle id="Oval" stroke="#732E54" stroke-width="2" cx="71.21" cy="58.5" r="4.86"></circle>
                    <circle id="Oval" fill="url(#linearGradient-13)" fill-rule="nonzero" cx="5.65" cy="24.18" r="4.86"></circle>
                    <circle id="Oval" stroke="#732E54" stroke-width="2" cx="5.86" cy="23.97" r="4.86"></circle>
                    <circle id="Oval" fill="url(#linearGradient-12)" fill-rule="nonzero" cx="8.95" cy="58.29" r="4.86"></circle>
                    <circle id="Oval" stroke="#732E54" stroke-width="2" cx="8.74" cy="58.5" r="4.86"></circle>
                    <circle id="Oval" fill="url(#linearGradient-13)" fill-rule="nonzero" cx="75.54" cy="24.18" r="4.86"></circle>
                    <circle id="Oval" stroke="#732E54" stroke-width="2" cx="75.75" cy="23.97" r="4.86"></circle>
                    <path d="M39.89,28.33 C39.9941893,28.1527704 40.1844137,28.0439388 40.39,28.0439388 C40.5955863,28.0439388 40.7858107,28.1527704 40.89,28.33 L50.56,46 L59.75,62.86 C59.925497,63.1602704 59.8924812,63.5385873 59.6676241,63.8039187 C59.442767,64.0692501 59.0749887,64.1638701 58.75,64.04 L41.35,58.34 C41.1716093,58.2797955 40.9783907,58.2797955 40.8,58.34 L23.66,64.84 C23.3494821,64.9341942 23.0125477,64.8387953 22.7975025,64.5957942 C22.5824573,64.3527932 22.528742,64.006758 22.66,63.71 L31.09,46.45 L39.89,28.33 Z" id="Path" fill="#FFFFFF" fill-rule="nonzero"></path>
                    <path d="M59,63.32 L41.6,57.61 C41.4216093,57.5497955 41.2283907,57.5497955 41.05,57.61 L23.9,64.11 C23.5881533,64.2140156 23.2443293,64.1217383 23.0264701,63.8755574 C22.8086109,63.6293766 22.7588319,63.2768825 22.9,62.98 L24.44,59.83 L41,54.19 C41.1835557,54.1200167 41.3864443,54.1200167 41.57,54.19 L58.72,59.8 L60,62.15 C60.1680782,62.4497704 60.1313903,62.8225487 59.9080975,63.0838013 C59.6848047,63.3450538 59.3222875,63.4393456 59,63.32 L59,63.32 Z" id="Path" fill="#CEC1BC" fill-rule="nonzero"></path>
                    <path d="M40.06,27.82 C40.1641893,27.6427704 40.3544137,27.5339388 40.56,27.5339388 C40.7655863,27.5339388 40.9558107,27.6427704 41.06,27.82 L50.7,45.52 L59.89,62.39 C60.065497,62.6902704 60.0324812,63.0685873 59.8076241,63.3339187 C59.582767,63.5992501 59.2149887,63.6938701 58.89,63.57 L41.52,57.84 C41.3424283,57.7749986 41.1475717,57.7749986 40.97,57.84 L23.83,64.34 C23.5169591,64.4372223 23.1760207,64.3411013 22.959863,64.0946816 C22.7437054,63.8482619 22.6928223,63.4977063 22.83,63.2 L31.26,45.94 L40.06,27.82 Z" id="Path" stroke="#732E54" stroke-width="2"></path>
                </g>
            </g>
        </g>
    </g>
</svg>