<svg xmlns="http://www.w3.org/2000/svg" viewBox="0 0 886.29 575.78"><defs><style>.cls-1,.cls-36{opacity:0.5;}.cls-2{fill:#9afc97;}.cls-11,.cls-3{fill:#403126;}.cls-13,.cls-14,.cls-16,.cls-18,.cls-19,.cls-20,.cls-25,.cls-35,.cls-4,.cls-7{fill:none;}.cls-13,.cls-14,.cls-16,.cls-18,.cls-19,.cls-25,.cls-35,.cls-4,.cls-7{stroke:#403126;}.cls-16,.cls-18,.cls-20,.cls-4,.cls-7{stroke-linecap:round;stroke-linejoin:round;}.cls-19,.cls-4{stroke-width:4px;}.cls-5{fill:#ebffe9;}.cls-6{fill:#26c11a;}.cls-25,.cls-7{stroke-width:3px;}.cls-8{fill:#e0ffde;}.cls-9{fill:#fff;}.cls-10{fill:#f0abf4;}.cls-11{font-size:24.28px;font-family:Jost-Semi, "Jost*";}.cls-12{letter-spacing:-0.03em;}.cls-13,.cls-14,.cls-19,.cls-25,.cls-35{stroke-miterlimit:10;}.cls-13,.cls-18{stroke-width:2px;}.cls-14{stroke-width:5px;}.cls-15{fill:#e8f3f9;}.cls-16{stroke-width:10px;}.cls-17{fill:#cb2ad3;}.cls-20{stroke:#fff;stroke-width:8px;}.cls-21{opacity:0.35;}.cls-22{fill:#fc4783;}.cls-23{fill:#e52460;}.cls-24{fill:#ce1155;}.cls-26{fill:#f777a6;}.cls-27{opacity:0.4;}.cls-28,.cls-36{fill:#ffc4a4;}.cls-29{fill:#ffdede;}.cls-30{fill:#af143b;}.cls-31{fill:#91052d;}.cls-32{fill:#ea3d90;}.cls-33{fill:#ff8fcf;}.cls-34{fill:#ff9976;}.cls-35{stroke-width:6px;}</style></defs><title>Asset 14</title><g id="Layer_2" data-name="Layer 2"><g id="Layer_1-2" data-name="Layer 1"><g class="cls-1"><circle class="cls-2" cx="440.02" cy="129.62" r="105.26"/></g><path class="cls-3" d="M395.61,38.25c3.13,5-3.79,10.53-7.47,5.64-2.29-3-7.51-.06-5.18,3,3.48,4.62,9.68,6.41,14.77,3.07a10.82,10.82,0,0,0,3.07-14.77c-2-3.27-7.23-.27-5.19,3Z"/><line class="cls-4" x1="396.21" y1="47.4" x2="402.33" y2="55.46"/><path class="cls-3" d="M442.38,230.88c.35-6,9-6,9.34.06.19,3.84,6.19,3.86,6,0-.29-5.8-4.62-10.66-10.64-10.7s-10.37,4.87-10.7,10.64c-.23,3.85,5.77,3.84,6,0Z"/><line class="cls-4" x1="447.08" y1="223.24" x2="446.63" y2="213.12"/><path class="cls-3" d="M549,116.53c-7.75.8-14,6.7-13.73,14.82s7.1,13.69,14.83,13.73c3.86,0,3.86-6,0-6-10.6-.05-11.82-15.45-1.1-16.55,3.8-.39,3.84-6.4,0-6Z"/><line class="cls-4" x1="538.23" y1="131.35" x2="523.33" y2="131.35"/><path class="cls-3" d="M425.74,24.9c.8,7.74,6.7,14,14.82,13.72s13.69-7.09,13.73-14.82c0-3.86-6-3.87-6,0-.05,10.6-15.45,11.82-16.55,1.1-.39-3.8-6.4-3.84-6,0Z"/><line class="cls-4" x1="440.56" y1="35.62" x2="440.56" y2="50.52"/><path class="cls-3" d="M371.87,84.38,355.21,73.71c-3.26-2.09-6.27,3.1-3,5.18l16.66,10.67c3.26,2.09,6.28-3.1,3-5.18Z"/><path class="cls-3" d="M349.19,62.51A8.31,8.31,0,1,1,339.08,75.7c-3.17-2.22-6.17,3-3,5.19a14.27,14.27,0,0,0,17.38-22.63c-2.94-2.46-7.21,1.76-4.24,4.25Z"/><path class="cls-3" d="M492.15,74.82l8.4-13.13c2.09-3.26-3.1-6.27-5.18-3L487,71.79c-2.09,3.26,3.1,6.27,5.18,3Z"/><path class="cls-3" d="M508.38,56.18A5.92,5.92,0,1,1,499,49c2.23-3.16-3-6.17-5.18-3a11.88,11.88,0,0,0,18.82,14.47c2.47-2.94-1.76-7.21-4.24-4.24Z"/><path class="cls-3" d="M502.05,177.11l12.36,9.48c1.3,1,3.35.19,4.11-1.07a3.08,3.08,0,0,0-1.08-4.11l-12.36-9.49c-1.29-1-3.35-.19-4.1,1.08a3.08,3.08,0,0,0,1.07,4.11Z"/><path class="cls-3" d="M518.86,194.53c-5.36-5.3,1.87-13.83,7.74-8.89,2.94,2.47,7.21-1.76,4.25-4.25-4.92-4.13-12.26-4.36-16.81.58a12.07,12.07,0,0,0,.58,16.81c2.75,2.71,7-1.53,4.24-4.25Z"/><path class="cls-3" d="M391.35,191.32l-9.49,12.36c-1,1.3-.19,3.35,1.08,4.11a3.07,3.07,0,0,0,4.1-1.08l9.49-12.36c1-1.3.19-3.35-1.08-4.11a3.07,3.07,0,0,0-4.1,1.08Z"/><path class="cls-3" d="M373.92,208.13c5.3-5.36,13.83,1.87,8.9,7.74-2.47,2.94,1.75,7.21,4.24,4.24,4.13-4.91,4.36-12.26-.58-16.8a12.06,12.06,0,0,0-16.8.58c-2.72,2.74,1.52,7,4.24,4.24Z"/><circle class="cls-5" cx="440.02" cy="130.81" r="83.31"/><circle class="cls-2" cx="440.02" cy="130.81" r="76.12"/><path class="cls-6" d="M516.25,130.81a76.12,76.12,0,0,1-138.4,43.77,76.12,76.12,0,0,0,106-106.06A76,76,0,0,1,516.25,130.81Z"/><path class="cls-3" d="M371.35,172.48A84.35,84.35,0,0,1,362.82,153c-1.09-3.69-6.89-2.12-5.79,1.6a91.2,91.2,0,0,0,9.14,20.89c2,3.31,7.16.3,5.18-3Z"/><path class="cls-3" d="M386.25,71.15a80.33,80.33,0,0,1,126.6,25.73c20.82,44.22-4.35,98.27-51.26,111.31-29.32,8.15-60.68-1.33-81.2-23.58-2.63-2.84-6.86,1.41-4.24,4.25a86.32,86.32,0,0,0,145.22-86.94A87.22,87.22,0,0,0,472,50.65c-30.5-12.29-65.59-5.44-90,16.26-2.9,2.57,1.36,6.8,4.24,4.24Z"/><path class="cls-3" d="M360.12,139.12a81.79,81.79,0,0,1,17.75-59.2c2.41-3-1.81-7.24-4.25-4.24a87.79,87.79,0,0,0-19.5,63.44c.34,3.81,6.34,3.85,6,0Z"/><circle class="cls-4" cx="384.45" cy="116.6" r="6.25"/><path class="cls-4" d="M337.56,139.44a6.25,6.25,0,0,1,0-12.49"/><path class="cls-4" d="M541.16,88.53a6.24,6.24,0,0,1-12.43,1.21"/><circle class="cls-4" cx="447.05" cy="70.51" r="6.25"/><circle class="cls-7" cx="409.78" cy="133.19" r="4.1"/><circle class="cls-3" cx="343.71" cy="153.82" r="2.93"/><circle class="cls-3" cx="533.72" cy="163.91" r="2.93"/><circle class="cls-7" cx="482.06" cy="99.88" r="4.1"/><circle class="cls-7" cx="456.22" cy="188.92" r="4.1"/><circle class="cls-4" cx="488.31" cy="152.45" r="6.25"/><circle class="cls-4" cx="413.87" cy="170.27" r="6.25"/><circle class="cls-4" cx="459.54" cy="122.85" r="6.25"/><ellipse class="cls-8" cx="413.03" cy="98.19" rx="21.11" ry="16.2" transform="translate(26.44 273.64) rotate(-37.78)"/><ellipse class="cls-9" cx="387.62" cy="88.53" rx="6.51" ry="5" transform="translate(27.03 256.04) rotate(-37.78)"/><g class="cls-1"><circle class="cls-10" cx="105.26" cy="470.52" r="105.26"/></g><g class="cls-1"><path class="cls-10" d="M160.33,545.62a21.49,21.49,0,0,1-8.38,17.2H139.14a21.48,21.48,0,0,0,8.38-17.2L146.87,449a58.32,58.32,0,0,0-.79-9.22h12.81a58.32,58.32,0,0,1,.79,9.22Z"/></g><text class="cls-11" transform="translate(160.54 466.43) rotate(90)">S<tspan class="cls-12" x="14.62" y="0">O</tspan><tspan x="33.58" y="0">AP</tspan></text><rect class="cls-13" x="126.51" y="448.94" width="64.37" height="104.75" rx="3.43"/><rect class="cls-14" x="126.51" y="439.81" width="75.59" height="123.01" rx="11.98"/><ellipse class="cls-15" cx="45.99" cy="366.76" rx="3.18" ry="4.37"/><ellipse class="cls-15" cx="17.65" cy="366.76" rx="7.46" ry="7.81"/><ellipse class="cls-15" cx="34.3" cy="392.96" rx="6.51" ry="7.81"/><circle class="cls-7" cx="43.83" cy="366.79" r="4.6"/><circle class="cls-4" cx="14.53" cy="364.95" r="8.22"/><circle class="cls-4" cx="31.18" cy="392.54" r="8.22"/><polyline class="cls-16" points="51.36 344.53 71.59 336.02 118.29 335.7"/><line class="cls-16" x1="91.2" y1="340.07" x2="91.44" y2="375.73"/><rect class="cls-9" x="73.25" y="368.9" width="36.52" height="33.56" rx="9.7" transform="translate(-2.6 0.63) rotate(-0.39)"/><path class="cls-4" d="M73.2,378.22l0-2.89a6.09,6.09,0,0,1,6-6.13l24.33-.17a6.1,6.1,0,0,1,6.14,6.06l.18,27.45-36.52.25-.11-16"/><path class="cls-10" d="M91.54,390.83h0a58.6,58.6,0,0,1,59,58.2l.65,96.59a21.55,21.55,0,0,1-21.4,21.7l-74.08.5A21.55,21.55,0,0,1,34,546.41l-.65-96.59A58.59,58.59,0,0,1,91.54,390.83Z"/><g class="cls-1"><path class="cls-17" d="M149.1,449.87l.63,94.45a21.32,21.32,0,0,1-21.41,21.22l-17.67.12a21.32,21.32,0,0,0,21.41-21.22L131.43,450c-.2-28.69-22-52.31-50.14-56.29a60.79,60.79,0,0,1,8.82-.71C122.47,392.77,148.88,418.24,149.1,449.87Z"/></g><rect class="cls-9" x="50.36" y="429.64" width="83.28" height="58.96" rx="7.31" transform="translate(-3.1 0.63) rotate(-0.39)"/><line class="cls-18" x1="102.09" y1="442.65" x2="61.71" y2="442.92"/><line class="cls-18" x1="83.04" y1="451.18" x2="61.77" y2="451.32"/><path class="cls-19" d="M50.3,449.61l-.08-12.39a7.3,7.3,0,0,1,7.25-7.35l68.67-.47a7.31,7.31,0,0,1,7.35,7.26l.3,44.35a7.31,7.31,0,0,1-7.26,7.36l-68.66.46a7.3,7.3,0,0,1-7.35-7.26l-.14-19.7"/><line class="cls-20" x1="38.22" y1="541.99" x2="38.22" y2="508.98"/><line class="cls-20" x1="38.22" y1="472.99" x2="38.22" y2="459.98"/><path class="cls-3" d="M36.59,485.86c-.08-12-.27-24-.24-35.95.06-24.54,16.06-46.81,39.78-53.8a56.14,56.14,0,0,1,63.27,24.35c7.78,12.76,8.11,26.3,8.21,40.6.19,28,1,56.08.57,84.08-.17,10.54-7.74,18.74-18.41,19.18-3.72.15-7.47,0-11.2.07l-49,.33c-4.51,0-9,.18-13.53.09-10.55-.18-18.66-7.89-19-18.51-.51-13.71-.19-27.5-.28-41.22l0-4.59c0-3.86-6-3.86-6,0L31,543.28C31,552,33.3,560,40.51,565.64c5.68,4.42,12.17,5.2,19.05,5.15l50-.34c13.93-.09,30.79,2.51,40.09-10.46,7.12-9.94,4.49-25.84,4.41-37.37l-.37-54.79c-.1-13.76.8-27.78-4.36-40.84a61.58,61.58,0,0,0-114.76.12c-6.42,16.31-4.11,35.38-4,52.55l0,6.2c0,3.86,6,3.87,6,0Z"/><line class="cls-13" x1="52.22" y1="500.95" x2="52.22" y2="550.85"/><line class="cls-13" x1="131.79" y1="500.95" x2="131.79" y2="550.85"/><g class="cls-21"><circle class="cls-22" cx="445.16" cy="470.52" r="105.26"/></g><circle class="cls-7" cx="502.13" cy="434.01" r="4.1"/><circle class="cls-4" cx="485.5" cy="479.66" r="6.25"/><circle class="cls-7" cx="397.55" cy="481.92" r="4.1"/><circle class="cls-4" cx="380.92" cy="527.56" r="6.25"/><path class="cls-9" d="M482.24,527.6a39.39,39.39,0,1,1-61.68-32.47v-106a22.3,22.3,0,1,1,44.59,0v106A39.35,39.35,0,0,1,482.24,527.6Z"/><circle class="cls-23" cx="442.85" cy="526.28" r="28.67"/><path class="cls-24" d="M471.33,526.28a28.67,28.67,0,1,1-57.33,0,28.09,28.09,0,0,1,.57-5.69,28.66,28.66,0,0,0,56.19,0A28.09,28.09,0,0,1,471.33,526.28Z"/><path class="cls-23" d="M442.66,383.71h0a5.16,5.16,0,0,1,5.16,5.16V504.64a0,0,0,0,1,0,0H437.5a0,0,0,0,1,0,0V388.87A5.16,5.16,0,0,1,442.66,383.71Z"/><path class="cls-3" d="M479.24,525.62c-.41,24-23.57,41.83-46.9,34.84-24.09-7.21-33.79-37.57-18.09-57.37,3.35-4.21,9.24-6.29,9.31-11.93.06-4.13,0-8.27,0-12.4V395.15c0-2.64-.08-5.29,0-7.93.32-10.53,8.44-19.42,19.29-19.41,11.08,0,19,9,19.3,19.74.09,3.11,0,6.23,0,9.35v87.64c0,2.7-.51,5.94,0,8.6.36,1.84,1.2,2.31,2.66,3.44a36.4,36.4,0,0,1,14.43,29c.08,3.86,6.08,3.87,6,0a43.44,43.44,0,0,0-18.57-35.06l1.48,2.59c0-34.91.23-69.82,0-104.73-.08-12.86-8.29-24.27-21.48-26.3-15.4-2.36-28.69,9.78-29.11,25-.45,16.32,0,32.71,0,49v57l1.49-2.59c-19.88,14.21-24.74,42.33-9.17,61.67,14.5,18,41.61,20.83,59.59,6.36a43,43,0,0,0,15.77-33C485.31,521.76,479.31,521.76,479.24,525.62Z"/><line class="cls-7" x1="467.35" y1="401.16" x2="483.06" y2="401.16"/><line class="cls-7" x1="467.35" y1="413.63" x2="483.06" y2="413.63"/><line class="cls-7" x1="467.35" y1="426.1" x2="483.06" y2="426.1"/><line class="cls-7" x1="467.35" y1="407.4" x2="475.06" y2="407.4"/><line class="cls-7" x1="467.35" y1="419.87" x2="475.06" y2="419.87"/><line class="cls-7" x1="467.35" y1="432.34" x2="475.06" y2="432.34"/><line class="cls-7" x1="467.35" y1="438.57" x2="483.06" y2="438.57"/><line class="cls-7" x1="467.35" y1="444.81" x2="475.06" y2="444.81"/><path class="cls-25" d="M447.53,493V388.69a4.81,4.81,0,0,0-4.22-4.85,4.67,4.67,0,0,0-5.13,4.65V493a6.49,6.49,0,0,1-4.46,6.14,28.68,28.68,0,1,0,18.25,0A6.48,6.48,0,0,1,447.53,493Z"/><ellipse class="cls-26" cx="431.65" cy="515.89" rx="9.77" ry="6.83" transform="translate(-237.02 589.08) rotate(-56.33)"/><path class="cls-3" d="M445.85,351V332c0-3.86-6-3.86-6,0v19c0,3.86,6,3.86,6,0Z"/><path class="cls-3" d="M467.06,357.88l8.74-8.74c2.73-2.73-1.51-7-4.25-4.24l-8.73,8.74c-2.74,2.73,1.5,7,4.24,4.24Z"/><path class="cls-3" d="M422.43,353.64l-8-8c-2.73-2.73-7,1.51-4.24,4.24l8,8c2.73,2.74,7-1.51,4.24-4.24Z"/><g class="cls-27"><circle class="cls-28" cx="776.42" cy="470.52" r="105.26"/></g><path class="cls-29" d="M844.22,455.12V464H730.12V446.63H835.73A8.49,8.49,0,0,1,844.22,455.12Z"/><path class="cls-30" d="M862.63,463.63a84.78,84.78,0,0,1-169.56,0c0-46.82,38-44.18,84.78-44.18S862.63,416.81,862.63,463.63Z"/><path class="cls-31" d="M791.17,547.61a84.81,84.81,0,0,1-96.43-84c0-46.82,38-44.17,84.77-44.17h1.92C745,419.84,718,424.19,718,463.62A84.8,84.8,0,0,0,791.17,547.61Z"/><path class="cls-9" d="M861.13,464.94c0,.45,0,.92,0,1.37H736V421.58c12-1.07,25.73-.81,40.33-.81C823.17,420.77,861.13,418.12,861.13,464.94Z"/><path class="cls-29" d="M852.92,429.23v8.92H738.82V420.74h75.5C819,420.74,852.92,424.54,852.92,429.23Z"/><path class="cls-3" d="M734.52,420.26V465a3,3,0,0,0,3,3h122.1c3.86,0,3.87-6,0-6H737.52l3,3V420.26c0-3.86-6-3.87-6,0Z"/><path class="cls-32" d="M854.55,494.58a84.85,84.85,0,0,1-78.22,52c-1.28,0-2.54,0-3.8-.09A87.54,87.54,0,0,1,772.3,534a51.64,51.64,0,0,1,55.09-48C834.16,486.47,846.13,490.65,854.55,494.58Z"/><path class="cls-3" d="M859.63,463.63c-.27,34-21.66,65.32-53.89,76.91a82.66,82.66,0,0,1-91-24.85,81.54,81.54,0,0,1-18.46-45.8c-1-13.16.48-28.56,11.59-37.36,10.13-8,24.57-9.17,37-9.76,16.21-.78,32.53-.38,48.76-.35,15.27,0,32.28-.51,46.6,5.67,14.71,6.36,19.3,20.46,19.42,35.54,0,3.86,6,3.87,6,0-.12-14.39-3.84-28.91-16.33-37.4-11.71-8-27.19-9.05-40.9-9.57-18.21-.68-36.58-.48-54.8-.16-14.66.25-30.9.7-44.11,7.86-29.37,15.93-21.08,60.83-7,84.32a88.67,88.67,0,0,0,92.57,41c40.79-8,70.23-44.8,70.56-86.08C865.66,459.77,859.66,459.76,859.63,463.63Z"/><path class="cls-33" d="M788.23,519.31c-.13.34-.06.1.23-.51s.7-1.43,1.08-2.13a43.34,43.34,0,0,1,5-7.41,36.56,36.56,0,0,1,23.75-13c3.79-.44,3.83-6.45,0-6a44.35,44.35,0,0,0-35.88,27.49c-1.41,3.6,4.39,5.16,5.79,1.6Z"/><path class="cls-3" d="M777.07,545.62c-1.89-18,5.47-35.78,20.5-46.21,16.15-11.2,37.29-11.28,53.94-1.06,3.3,2,6.32-3.16,3-5.18-18.37-11.28-42.12-11.27-60,1.06a55.31,55.31,0,0,0-23.47,51.39c.4,3.8,6.4,3.84,6,0Z"/><circle class="cls-33" cx="814.84" cy="502.72" r="5.39"/><circle class="cls-33" cx="812.7" cy="508.11" r="2.24"/><circle class="cls-33" cx="823.13" cy="496.6" r="2.24"/><circle class="cls-33" cx="822.87" cy="503.09" r="1.12"/><circle class="cls-33" cx="820.89" cy="508.81" r="1.12"/><path class="cls-3" d="M859.13,467.06l-124.07,31.3-17.62,4.44c-3.75.95-2.16,6.73,1.59,5.79L843.1,477.3l17.63-4.45c3.74-.94,2.16-6.73-1.6-5.79Z"/><ellipse class="cls-9" cx="694.47" cy="515.18" rx="23.21" ry="17.5" transform="translate(-104.9 185.48) rotate(-14.16)"/><path class="cls-3" d="M714.08,510.3c3.94,19.05-34.62,28.68-39.22,9.76s33.62-28.4,39.22-9.76c1.11,3.69,6.9,2.12,5.78-1.59-4-13.33-20-16.63-31.94-13-10.71,3.27-22.07,13.6-18.85,25.92,6.9,26.39,56.32,13.73,50.79-12.94C719.08,504.93,713.3,506.53,714.08,510.3Z"/><circle class="cls-15" cx="778.29" cy="129.62" r="105.26"/><rect class="cls-15" x="684.58" y="131.21" width="54.52" height="119.8" rx="18.47"/><rect class="cls-15" x="831.77" y="131.21" width="54.52" height="119.8" rx="18.47"/><circle class="cls-7" cx="804.32" cy="85.32" r="4.1"/><circle class="cls-7" cx="743.95" cy="54.55" r="4.1"/><circle class="cls-7" cx="736.16" cy="100.9" r="4.1"/><circle class="cls-7" cx="666.64" cy="106.74" r="4.1"/><rect class="cls-9" x="822.76" y="120.77" width="54.52" height="119.8" rx="13.36"/><rect class="cls-9" x="673.06" y="120.77" width="54.52" height="119.8" rx="13.36"/><path class="cls-15" d="M726.89,134.13v93.09a13.36,13.36,0,0,1-13.37,13.35H698.8a13.35,13.35,0,0,0,13.35-13.35V134.13a13.36,13.36,0,0,0-13.35-13.36h14.72A13.36,13.36,0,0,1,726.89,134.13Z"/><path class="cls-15" d="M876.12,134.13v93.09a13.36,13.36,0,0,1-13.37,13.35H848a13.35,13.35,0,0,0,13.35-13.35V134.13A13.36,13.36,0,0,0,848,120.77h14.72A13.36,13.36,0,0,1,876.12,134.13Z"/><rect class="cls-28" x="670.79" y="29.44" width="59.39" height="77.83" rx="29.7"/><path class="cls-34" d="M730.16,59.14V77.58a29.7,29.7,0,0,1-29.7,29.7,28.81,28.81,0,0,1-4.94-.42,29.71,29.71,0,0,0,24.75-29.28V59.14a29.72,29.72,0,0,0-24.75-29.29,29.71,29.71,0,0,1,34.64,29.29Z"/><ellipse class="cls-9" cx="686.42" cy="49.86" rx="5.28" ry="4.05" transform="translate(113.37 431) rotate(-37.78)"/><path class="cls-3" d="M727.18,59.14c0,6.59.32,13.26,0,19.84a26.7,26.7,0,0,1-53.33,0c-.36-6.58,0-13.25,0-19.84,0-3.86-6-3.87-6,0,0,6.12-.12,12.25,0,18.37a33.35,33.35,0,0,0,14.71,27.38c19.77,13.19,47.45.29,50.39-23.17.93-7.4.29-15.14.29-22.58,0-3.86-6-3.87-6,0Z"/><path class="cls-3" d="M716.77,38a28.93,28.93,0,0,1,6.42,7.14c2,3.27,7.25.26,5.18-3A33.58,33.58,0,0,0,721,33.71a3.1,3.1,0,0,0-4.24,0c-1,1-1.27,3.22,0,4.24Z"/><path class="cls-3" d="M677.33,45.84c6.67-11,19.09-15.61,31.36-12.11,3.72,1.06,5.31-4.73,1.6-5.79a33.34,33.34,0,0,0-38.14,14.88c-2,3.3,3.17,6.32,5.18,3Z"/><path class="cls-3" d="M676.22,163.91V136.26c0-6.65,3-12.32,10.38-12.77,3.94-.23,8,0,11.9,0,9.25,0,25.74-2.94,26.24,10.64.25,6.59,0,13.24,0,19.83v66.27c0,8-.37,16.73-11.06,17.07-8.92.28-18.19.54-27.1,0-13.9-.86-10.36-19.85-10.36-29.32V178.24c0-3.86-6-3.87-6,0V208c0,9.05-2.41,22.8,4.36,30.05,4.41,4.72,10,5.27,16,5.27h19.11c5.54,0,10.83-.07,15.34-3.93,4.08-3.51,5.67-8.31,5.73-13.53.28-22.52,0-45.05,0-67.56,0-8,.27-16.08,0-24.08-.21-6.57-3.5-12.46-9.64-15.25-4.55-2.06-10-1.46-14.82-1.46-12.66,0-33.5-3.42-35.88,14.2-.71,5.28-.18,10.9-.18,16.21v16c0,3.87,6,3.87,6,0Z"/><line class="cls-35" x1="744.79" y1="159.58" x2="807.51" y2="159.58"/><line class="cls-35" x1="742.42" y1="149.81" x2="742.42" y2="169.35"/><line class="cls-35" x1="809.42" y1="149.81" x2="809.42" y2="169.35"/><rect class="cls-28" x="820" y="29.44" width="59.39" height="77.83" rx="29.7"/><path class="cls-34" d="M879.39,59.14V77.58a29.7,29.7,0,0,1-29.7,29.7,28.81,28.81,0,0,1-4.94-.42A29.71,29.71,0,0,0,869.5,77.58V59.14a29.72,29.72,0,0,0-24.75-29.29,29.71,29.71,0,0,1,34.64,29.29Z"/><ellipse class="cls-9" cx="834.65" cy="49.86" rx="5.28" ry="4.05" transform="translate(144.45 521.81) rotate(-37.78)"/><path class="cls-3" d="M876.72,59.42c0,6.59.32,13.25,0,19.83a26.7,26.7,0,0,1-53.33,0c-.37-6.58,0-13.24,0-19.83,0-3.86-6-3.87-6,0,0,6.12-.11,12.25,0,18.37A33.33,33.33,0,0,0,832,105.16c19.76,13.2,47.44.3,50.39-23.16.93-7.4.29-15.14.29-22.58,0-3.86-6-3.87-6,0Z"/><path class="cls-3" d="M866.11,38.08a29.1,29.1,0,0,1,6.62,7.29c2,3.26,7.24.25,5.18-3a33.67,33.67,0,0,0-7.55-8.5,3.1,3.1,0,0,0-4.25,0c-1,1-1.27,3.23,0,4.24Z"/><path class="cls-3" d="M826.87,46.12c6.67-11,19.09-15.61,31.36-12.12,3.72,1.06,5.31-4.72,1.6-5.78a33.35,33.35,0,0,0-38.14,14.87c-2,3.31,3.17,6.33,5.18,3Z"/><path class="cls-3" d="M863.93,237.57c-9.19,0-18.46.39-27.63,0-11.49-.48-10.54-11.25-10.54-19.4V147.93c0-6.14-1.73-16.33,3-21.13,4-4,10.29-3,15.43-3h17.35c6.66,0,12.27,3,12.71,10.41.12,2,0,4.09,0,6.12V213c0,8.86,2.54,23.88-10.35,24.53-3.85.2-3.87,6.2,0,6,9.16-.46,16-7.12,16.35-16.35.09-2.05,0-4.13,0-6.18V144.78c0-9.26,1.17-19.67-8.47-25-4.85-2.67-10.66-2-16-2-6.2,0-12.41-.08-18.61,0-7.1.09-13.59,3.47-16.29,10.36-1.25,3.19-1.16,6.44-1.16,9.78v74.76c0,9.68-2,22,7.38,28.21,5.54,3.64,12.66,2.69,19,2.69h17.83C867.79,243.57,867.79,237.57,863.93,237.57Z"/><path class="cls-3" d="M846.69,144.19v57.72c0,3.86,6,3.87,6,0V144.19c0-3.86-6-3.86-6,0Z"/><path class="cls-3" d="M696.55,144.19v57.72c0,3.86,6,3.87,6,0V144.19c0-3.86-6-3.86-6,0Z"/><circle class="cls-28" cx="850.39" cy="211.38" r="12.42"/><circle class="cls-4" cx="850.39" cy="211.38" r="12.42"/><circle class="cls-28" cx="699.66" cy="211.38" r="12.42"/><circle class="cls-4" cx="699.66" cy="211.38" r="12.42"/><rect class="cls-36" x="13.05" y="33.09" width="171.78" height="225.11" rx="85.89"/><rect class="cls-28" x="13.05" y="2.82" width="171.78" height="225.11" rx="85.89"/><path class="cls-9" d="M104.22,226.08c-1.71.11-3.43.16-5.17.16a85.9,85.9,0,0,1-85.89-85.9V87A85.89,85.89,0,0,1,99.05,1.13c1.74,0,3.46.05,5.17.15A85.89,85.89,0,0,0,23.5,87v53.32A85.9,85.9,0,0,0,104.22,226.08Z"/><path class="cls-34" d="M92.57,227.78c1.7.1,3.43.15,5.16.15a85.9,85.9,0,0,0,85.9-85.9V85.43c0-47.44-38.46-82.61-85.9-82.61-1.73,0-3.46.05-5.16.15a85.9,85.9,0,0,1,80.71,85.74V142A85.9,85.9,0,0,1,92.57,227.78Z"/><path class="cls-3" d="M175.75,57.44c9.05,23.13,6.08,49.92,6.08,74.31,0,10.56,0,20.91-2.67,31.24a83.57,83.57,0,0,1-26.9,42.52c-26.54,22.47-65.67,25.58-95.54,7.88-26.67-15.81-40.67-44.11-40.67-74.59V102c0-15,.31-29.31,5.74-43.66,1.37-3.62-4.43-5.18-5.79-1.6-5.18,13.69-5.95,27.51-5.95,41.9v36.56c0,12.23.77,24.17,4.83,35.84A89,89,0,0,0,143.61,218.9c28.12-16.38,44.18-46.52,44.22-78.74q0-19.09,0-38.21c0-15.85-.4-31-6.3-46.11-1.39-3.56-7.19-2-5.78,1.6Z"/><path class="cls-3" d="M136.05,14.57a85.42,85.42,0,0,1,33.46,30.65c2.06,3.26,7.25.25,5.18-3a91.46,91.46,0,0,0-35.61-32.8c-3.43-1.77-6.46,3.4-3,5.18Z"/><path class="cls-3" d="M27.07,47.39A83.94,83.94,0,0,1,124.19,9.74c3.7,1.13,5.28-4.66,1.6-5.79A90,90,0,0,0,21.89,44.36c-2,3.33,3.22,6.36,5.18,3Z"/><path class="cls-19" d="M155.84,163.48s23-9.83,28.48-52.53"/><path class="cls-19" d="M39.41,162.15s-21.21-9.06-26.25-48.42"/><line class="cls-4" x1="98.94" y1="144.47" x2="98.94" y2="120.53"/><rect class="cls-9" x="29.24" y="94.71" width="3.32" height="37.06" rx="1.66"/><circle class="cls-9" cx="30.9" cy="86.77" r="2.44"/><path class="cls-9" d="M164.54,174.16a65.54,65.54,0,1,1-131.07,0C33.47,138,62.81,140,99,140S164.54,138,164.54,174.16Z"/><path class="cls-3" d="M161.54,174.16c-.27,26-16.53,50-41.23,58.82A63.18,63.18,0,0,1,50.82,214a62.43,62.43,0,0,1-14.17-35c-.73-10,.29-21.81,8.8-28.47,7.77-6.09,18.88-6.9,28.35-7.34,12.28-.57,24.62-.26,36.91-.25,11.73,0,24.66-.41,35.72,4.12,11.46,4.69,15,15.43,15.11,27,0,3.86,6,3.87,6,0-.12-11.11-2.91-22.35-12.41-29.1-9.13-6.49-21.32-7.44-32.15-7.87-14.25-.56-28.64-.4-42.9-.14-11.37.21-23.88.6-34.13,6.1-23.12,12.39-16.92,47.45-5.9,66a69.28,69.28,0,0,0,72.13,32.29c32-6.12,55-35,55.36-67.26C167.58,170.3,161.58,170.3,161.54,174.16Z"/><line class="cls-7" x1="33.47" y1="173.73" x2="164.54" y2="173.73"/><line class="cls-7" x1="38.47" y1="156.63" x2="159.54" y2="156.63"/><line class="cls-7" x1="36.38" y1="190.97" x2="159.65" y2="190.7"/><line class="cls-7" x1="43.97" y1="208.06" x2="153.52" y2="207.79"/><line class="cls-7" x1="56.97" y1="225.16" x2="139.52" y2="224.89"/></g></g></svg>