<?xml version="1.0" encoding="UTF-8"?>
<svg id="Layer_2" data-name="Layer 2" xmlns="http://www.w3.org/2000/svg" viewBox="0 0 95.64 104.87">
  <defs>
    <style>
      .cls-1 {
        fill: #f4f4f4;
      }

      .cls-2, .cls-3 {
        fill: #f47e14;
      }

      .cls-4 {
        fill: #fff;
      }

      .cls-5 {
        fill: #f4301c;
      }

      .cls-6 {
        fill: #ffcb09;
      }

      .cls-7 {
        fill: #b7b5b3;
      }

      .cls-8 {
        fill: #b27f43;
      }

      .cls-9 {
        fill: #bbedf9;
      }

      .cls-10 {
        fill: #dbd7d7;
      }

      .cls-11, .cls-12 {
        fill: #afafaf;
      }

      .cls-13 {
        fill: #e0e0e0;
      }

      .cls-14 {
        fill: #c6c6c6;
      }

      .cls-15 {
        fill: #191818;
      }

      .cls-16 {
        fill: #964f09;
      }

      .cls-17, .cls-18, .cls-19 {
        fill: #55d0e5;
      }

      .cls-20 {
        fill: #773a03;
      }

      .cls-21 {
        fill: #52f72b;
      }

      .cls-18 {
        opacity: .24;
      }

      .cls-19 {
        opacity: .45;
      }

      .cls-12, .cls-3 {
        opacity: .47;
      }
    </style>
  </defs>
  <g id="Layer_1-2" data-name="Layer 1">
    <g>
      <polygon class="cls-6" points="78.84 86.1 16.58 85.92 4.07 34.43 91.13 35.63 78.84 86.1"/>
      <path class="cls-2" d="M22.57,82.27h49.92c0,1.21-.98,2.2-2.2,2.2H24.77c-1.21,0-2.2-.98-2.2-2.2h0Z"/>
      <rect class="cls-13" x="6.71" y="85.83" width="82.32" height="3.32" rx="1.66" ry="1.66"/>
      <g>
        <path class="cls-13" d="M26.68,104.55h-8.56c-.71,0-1.29-.58-1.29-1.29v-3.69h11.14v3.69c0,.71-.58,1.29-1.29,1.29Z"/>
        <path class="cls-13" d="M77.61,104.55h-8.56c-.71,0-1.29-.58-1.29-1.29v-3.69h11.14v3.69c0,.71-.58,1.29-1.29,1.29Z"/>
      </g>
      <g>
        <rect class="cls-7" x="16.83" y="96.31" width="11.14" height="4.98"/>
        <rect class="cls-7" x="67.76" y="96.31" width="11.14" height="4.98"/>
      </g>
      <path class="cls-10" d="M40.31,56.3c2.43-7.32,14.71-7.06,16.89,.29-5.79-2.1-11.05-2.22-16.89-.29h0Z"/>
      <path class="cls-4" d="M48.76,82.27h0c-5.69,0-10.3-4.61-10.3-10.3v-4c0-1.17,.95-2.13,2.13-2.13h16.35c1.17,0,2.13,.95,2.13,2.13v4c0,5.69-4.61,10.3-10.3,10.3Z"/>
      <path class="cls-1" d="M59.29,68.36v3.4c0,5.69-4.61,10.3-10.3,10.3s-10.3-4.61-10.3-10.3v-3.4c0,5.69,4.61,10.3,10.3,10.3s10.3-4.61,10.3-10.3Z"/>
      <path class="cls-4" d="M58.77,75.24c1.88,.19,3.55-1.19,3.74-3.07s-1.19-3.55-3.07-3.74l-.09,1.41c1.1,.11,1.91,1.09,1.8,2.2s-1.09,1.91-2.2,1.8"/>
      <rect class="cls-13" x="11.13" y="8.36" width="73.38" height="27.54"/>
      <rect class="cls-11" x="11.13" y="33.22" width="73.38" height="2.68"/>
      <rect class="cls-2" x="11.13" y="36.07" width="28.58" height="1.85"/>
      <rect class="cls-2" x="57.95" y="36.07" width="28.58" height="1.85"/>
      <path class="cls-13" d="M11.01,89.16H84.39v9.38c0,.57-.46,1.04-1.04,1.04H12.18c-.65,0-1.17-.53-1.17-1.17v-9.25h0Z"/>
      <rect class="cls-6" x=".43" y=".39" width="10.7" height="40.26" rx="1.7" ry="1.7"/>
      <path class="cls-2" d="M11.13,34.31v5c0,.94-.77,1.7-1.71,1.7H2.13c-.94,0-1.7-.76-1.7-1.7v-5c0,.94,.76,1.7,1.7,1.7h7.29c.94,0,1.71-.76,1.71-1.7Z"/>
      <rect class="cls-6" x="84.4" y=".5" width="10.7" height="40.26" rx="1.7" ry="1.7"/>
      <rect class="cls-13" x="11.13" y="5.18" width="73.38" height="3.18"/>
      <path class="cls-15" d="M84.32,14.93v20.98l.28-.28h-12.84c-.36,0-.36,.56,0,.56h12.84c.15,0,.28-.13,.28-.28V14.93c0-.36-.56-.36-.56,0h0Z"/>
      <rect class="cls-6" x="63.34" y="92.84" width="18.3" height="3.06" rx="1.53" ry="1.53"/>
      <path class="cls-15" d="M69.65,8.64h14.95c.36,0,.36-.56,0-.56h-14.95c-.36,0-.36,.56,0,.56h0Z"/>
      <path class="cls-15" d="M11.13,8.64h56.51c.36,0,.36-.56,0-.56H11.13c-.36,0-.36,.56,0,.56h0Z"/>
      <g>
        <path class="cls-15" d="M.5,30.78H3.53c.36,0,.36-.56,0-.56H.5c-.36,0-.36,.56,0,.56H.5Z"/>
        <path class="cls-15" d="M.43,29.25H6.33c.36,0,.36-.56,0-.56H.43c-.36,0-.36,.56,0,.56H.43Z"/>
      </g>
      <g>
        <path class="cls-15" d="M85.06,20.98h3.04c.36,0,.36-.56,0-.56h-3.04c-.36,0-.36,.56,0,.56h0Z"/>
        <path class="cls-15" d="M84.98,19.45h5.9c.36,0,.36-.56,0-.56h-5.9c-.36,0-.36,.56,0,.56h0Z"/>
      </g>
      <path class="cls-15" d="M7.51,47.55h13.76c.37,0,.37-.57,0-.57H7.51c-.37,0-.37,.57,0,.57h0Z"/>
      <path class="cls-15" d="M73.08,47.55h15.15c.37,0,.37-.57,0-.57h-15.15c-.37,0-.37,.57,0,.57h0Z"/>
      <path class="cls-15" d="M56.26,47.55h14.35c.37,0,.37-.57,0-.57h-14.35c-.37,0-.37,.57,0,.57h0Z"/>
      <path class="cls-15" d="M15.89,82.55H79.91c.37,0,.37-.57,0-.57H15.89c-.37,0-.37,.57,0,.57h0Z"/>
      <path class="cls-15" d="M.6,5.14V2.69c0-.4-.05-.84,.15-1.21,.26-.48,.74-.68,1.26-.7,1.75-.05,3.5,0,5.25,0,.69,0,1.38-.02,2.07,0,.93,.03,1.4,.7,1.4,1.56V12.34c0,.36,.56,.36,.56,0,0-3.36,.03-6.72,0-10.08-.01-1.01-.61-1.9-1.67-2.02-.6-.07-1.24-.01-1.84-.01C5.87,.22,3.95,.2,2.03,.22,.85,.24,.06,1.07,.04,2.23,.03,3.2,.04,4.17,.04,5.14c0,.36,.56,.36,.56,0H.6Z"/>
      <path class="cls-15" d="M.6,10.78v-3.43c0-.36-.56-.36-.56,0v3.43c0,.36,.56,.36,.56,0H.6Z"/>
      <path class="cls-15" d="M10.74,14.32v19.79c0,1.57,.19,3.29,0,4.85-.04,.36,.05,.09-.19,.67-.35,.84-.99,.85-1.73,.85h-3.76c-1,0-2.06,.11-3.05,0-1.19-.14-1.37-.9-1.41-1.8-.19-4.53,0-9.11,0-13.64V11.91c0-.36-.56-.36-.56,0C.04,20.84-.05,29.78,.04,38.71c0,.61,.03,1.16,.45,1.66,.65,.77,1.6,.67,2.51,.67H7.33c.84,0,1.98,.19,2.79-.14,1.53-.61,1.18-2.56,1.18-3.86V14.32c0-.36-.56-.36-.56,0h0Z"/>
      <g>
        <circle class="cls-4" cx="19.44" cy="78.05" r="2.02"/>
        <circle class="cls-4" cx="75.96" cy="78.05" r="2.02"/>
      </g>
      <g>
        <circle class="cls-4" cx="14.77" cy="40.69" r="2.02"/>
        <circle class="cls-4" cx="80.29" cy="40.69" r="2.02"/>
      </g>
      <g>
        <circle class="cls-4" cx="19.74" cy="78.05" r="2.02"/>
        <circle class="cls-4" cx="76.27" cy="78.05" r="2.02"/>
      </g>
      <g>
        <path class="cls-15" d="M5.51,41.05c1.24,5.09,2.48,10.19,3.72,15.28l5.9,24.23c.46,1.87,.91,3.74,1.37,5.61,.03,.11,.14,.2,.26,.2h21.04c11.17,0,22.34,0,33.51,0h7.66c.35,0,.35-.54,0-.54H17.49c-.19,0-.47-.05-.65,0-.11,.03,.1,.31,.14,.06,.1-.65-.44-1.82-.59-2.44l-1.21-4.98c-1.15-4.72-2.3-9.44-3.45-14.16-1.87-7.66-3.65-15.35-5.6-22.98-.04-.14-.07-.29-.1-.43-.08-.34-.6-.19-.52,.14h0Z"/>
        <path class="cls-15" d="M89.79,40.58c-1.24,5.11-2.49,10.22-3.73,15.33-1.99,8.15-3.97,16.31-5.96,24.46-.46,1.89-.92,3.77-1.38,5.66-.08,.34,.44,.48,.52,.14,1.24-5.11,2.49-10.22,3.73-15.33,1.99-8.15,3.97-16.31,5.96-24.46,.46-1.89,.92-3.77,1.38-5.66,.08-.34-.44-.48-.52-.14h0Z"/>
      </g>
      <g>
        <path class="cls-15" d="M18.12,104.28c-1.27-.07-1.01-1.54-1.01-2.42v-2.28l-.28,.28h11.14l-.28-.28v2.17c0,.75,.24,2.04-.59,2.43-.49,.23-1.3,.09-1.81,.09h-4.94c-.36,0-.36,.56,0,.56h5.04c.58,0,1.31,.1,1.87-.11,1.02-.4,.99-1.39,.99-2.3v-2.84c0-.15-.13-.28-.28-.28h-11.14c-.15,0-.28,.13-.28,.28v2.89c0,.33-.03,.69,.02,1.02,.12,.79,.78,1.3,1.55,1.35,.36,.02,.36-.54,0-.56h0Z"/>
        <path class="cls-15" d="M77.61,104.28h-8.22c-.29,0-.57,.02-.83-.13-.55-.3-.52-.85-.52-1.38v-3.19l-.28,.28h11.14l-.28-.28v2.28c0,.88,.25,2.35-1.01,2.42-.36,.02-.36,.58,0,.56,.75-.04,1.39-.51,1.54-1.27,.07-.35,.03-.74,.03-1.09v-2.89c0-.15-.13-.28-.28-.28h-11.14c-.15,0-.28,.13-.28,.28v3.02c0,.4-.04,.82,.1,1.2,.23,.63,.82,1,1.48,1.03,2.03,.08,4.07,0,6.1,0h2.45c.36,0,.36-.56,0-.56Z"/>
      </g>
      <path class="cls-13" d="M58.03,35.86v7.7c0,1.03-.84,1.87-1.87,1.87h-14.51c-1.03,0-1.87-.84-1.87-1.87v-7.7"/>
      <path class="cls-13" d="M41.65,45.58h14.37v1.61c0,.76-.62,1.37-1.37,1.37h-11.62c-.57,0-1.06-.35-1.27-.85"/>
      <path class="cls-11" d="M41.73,45.43h14.37l-.07,.27c0,.76-.62,1.37-1.37,1.37h-11.62c-.57,0-1.06-.35-1.27-.85"/>
      <polygon class="cls-4" points="51.15 48.56 51.15 50.78 46.93 50.95 47.05 48.46 51.15 48.56"/>
      <polygon class="cls-1" points="50.95 48.51 50.95 49.62 46.72 49.62 46.84 48.46 50.95 48.51"/>
      <g>
        <path class="cls-15" d="M59.35,70.08c.94,.11,1.62,.98,1.52,1.91s-.98,1.6-1.91,1.52c-.37-.03-.36,.54,0,.57,.93,.08,1.86-.44,2.26-1.29s.25-1.92-.43-2.61c-.39-.39-.89-.61-1.44-.67-.15-.02-.28,.14-.29,.29,0,.17,.13,.27,.29,.29h0Z"/>
        <path class="cls-15" d="M59.44,68.67c1.7,.19,2.96,1.75,2.78,3.45s-1.76,2.92-3.45,2.78c-.37-.03-.36,.54,0,.57,1.52,.13,3.02-.7,3.68-2.09s.38-3.09-.7-4.2c-.62-.63-1.43-.99-2.3-1.09-.36-.04-.36,.53,0,.57h0Z"/>
      </g>
      <path class="cls-15" d="M48.76,81.98c-5.7,0-10-4.74-10.02-10.31,0-.86,0-1.72,0-2.57s-.11-1.85,.63-2.51,2.29-.45,3.25-.45h10.95c1.08,0,2.18-.05,3.26,0,2.34,.1,1.94,2.59,1.94,4.24,0,2.53-.2,4.88-1.63,7.08-1.85,2.84-5.02,4.5-8.39,4.54-.37,0-.37,.58,0,.57,5.89-.08,10.54-4.83,10.59-10.7,0-.95,0-1.9,0-2.85,0-.83,.07-1.67-.42-2.39-.82-1.2-2.18-1.05-3.44-1.05h-12.35c-1.03,0-2.4-.22-3.4,.15-2.04,.76-1.57,3.33-1.57,5.04,0,2.85,.46,5.47,2.28,7.77,1.99,2.53,5.09,4.03,8.31,4.03,.37,0,.37-.57,0-.57Z"/>
      <g>
        <g>
          <g>
            <circle class="cls-9" cx="25.15" cy="62.44" r="7.18"/>
            <circle class="cls-9" cx="25.15" cy="62.44" r="9.58"/>
          </g>
          <g>
            <rect class="cls-4" x="18.01" y="61.96" width="14.37" height="1" transform="translate(-42.15 61.65) rotate(-67.35)"/>
            <rect class="cls-4" x="16.16" y="61.01" width="13.55" height="1" transform="translate(-42.66 58.98) rotate(-67.35)"/>
          </g>
          <path class="cls-15" d="M25.35,61.51v-2.56c0-.25-.39-.25-.39,0v2.56c0,.25,.39,.25,.39,0h0Z"/>
          <circle class="cls-5" cx="25.15" cy="62.93" r="1.43"/>
          <path class="cls-15" d="M26.38,62.93c0,.51-.32,.98-.81,1.15s-1.05,.02-1.38-.38-.36-.97-.1-1.4,.78-.67,1.28-.58c.58,.11,1,.62,1.01,1.21,0,.25,.4,.25,.39,0,0-.68-.42-1.28-1.06-1.52s-1.38-.04-1.81,.48-.5,1.28-.15,1.87,1.03,.88,1.7,.76c.76-.14,1.31-.83,1.32-1.59,0-.25-.39-.25-.39,0Z"/>
          <path class="cls-1" d="M25.09,71.86c-5.25,0-9.52-4.22-9.52-9.42s4.27-9.42,9.52-9.42,9.52,4.22,9.52,9.42-4.27,9.42-9.52,9.42Zm0-16.83c-4.13,0-7.23,3.34-7.23,7.43s3.09,7.4,7.23,7.4,7.5-3.33,7.5-7.42-3.36-7.42-7.5-7.42Z"/>
          <path class="cls-4" d="M19.39,57.48c.34-.42,.73-.79,1.15-1.12l-.15,.12c.1-.08,.21-.16,.31-.23,.16-.11,.29-.25,.34-.45,.05-.18,.03-.42-.08-.58s-.26-.3-.45-.34-.41-.04-.58,.08c-.6,.42-1.15,.9-1.62,1.47-.07,.07-.12,.15-.16,.24-.05,.09-.07,.19-.06,.29,0,.18,.08,.4,.22,.53s.33,.23,.53,.22c.19,0,.41-.07,.53-.22h0Z"/>
          <circle class="cls-4" cx="22.57" cy="54.45" r="1.15"/>
          <path class="cls-17" d="M31.44,62.46c-.04,2.59-1.61,5.01-4.08,5.91s-5.24,.1-6.88-1.93-1.84-4.96-.52-7.2,3.91-3.45,6.45-2.95c2.95,.57,4.99,3.21,5.03,6.17,0,.71,1.11,.71,1.1,0-.04-3.04-1.87-5.8-4.72-6.91s-6.24-.17-8.17,2.22-2.2,5.81-.64,8.47c1.55,2.63,4.61,4.02,7.6,3.48,3.46-.63,5.89-3.79,5.93-7.25,0-.71-1.09-.71-1.1,0Z"/>
          <path class="cls-15" d="M29.85,57.38c3.11,2.96,2.84,8.07-.62,10.64-.28,.21,0,.69,.28,.48,1.73-1.29,2.86-3.2,3.07-5.37,.22-2.3-.68-4.57-2.34-6.15-.26-.25-.65,.15-.39,.39h0Z"/>
          <path class="cls-15" d="M28.09,68.7c-3.63,1.65-8-.08-9.41-3.84-1.27-3.41,.41-7.32,3.74-8.76,2.17-.94,4.64-.65,6.61,.63,.3,.2,.58-.29,.28-.48-3.63-2.37-8.62-1.2-10.71,2.62-1.92,3.51-.64,8.03,2.81,10.03,2.14,1.24,4.72,1.29,6.95,.28,.33-.15,.04-.63-.28-.48h0Z"/>
          <circle class="cls-17" cx="28.46" cy="67.55" r=".71"/>
          <circle class="cls-17" cx="28.27" cy="66.02" r=".41"/>
          <circle class="cls-19" cx="27.15" cy="66.65" r=".41"/>
          <path class="cls-14" d="M26.24,71.92c2.41-.42,4.67-1.69,6.28-3.53,.27-.3,.3-.76,0-1.06-.27-.27-.79-.31-1.06,0-1.46,1.67-3.43,2.77-5.61,3.15-.4,.07-.62,.56-.52,.92,.12,.42,.52,.59,.92,.52h0Z"/>
          <path class="cls-15" d="M16.44,59.18c1.43-3.68,5.01-6.14,8.98-6.04,3.65,.1,7,2.43,8.36,5.82s.53,7.54-2.14,10.14-6.58,3.33-9.97,1.97c-4.17-1.68-6.46-6.15-5.63-10.52,.07-.35-.47-.5-.54-.15-.77,4.03,.89,8.16,4.38,10.37s7.91,1.98,11.14-.43,4.64-6.49,3.68-10.32-4.25-6.79-8.16-7.34c-4.6-.65-8.98,2.05-10.64,6.35-.13,.33,.41,.48,.54,.15h0Z"/>
        </g>
        <g>
          <g>
            <circle class="cls-9" cx="70.49" cy="62.44" r="7.18"/>
            <circle class="cls-9" cx="70.49" cy="62.44" r="9.58"/>
          </g>
          <g>
            <rect class="cls-4" x="63.34" y="61.96" width="14.37" height="1" transform="translate(-14.28 103.49) rotate(-67.35)"/>
            <rect class="cls-4" x="61.5" y="61.01" width="13.55" height="1" transform="translate(-14.79 100.82) rotate(-67.35)"/>
          </g>
          <path class="cls-15" d="M70.69,61.51v-2.56c0-.25-.39-.25-.39,0v2.56c0,.25,.39,.25,.39,0h0Z"/>
          <circle class="cls-5" cx="70.49" cy="62.93" r="1.43"/>
          <path class="cls-15" d="M71.72,62.93c0,.51-.32,.98-.81,1.15s-1.05,.02-1.38-.38-.36-.97-.1-1.4,.78-.67,1.28-.58c.58,.11,1,.62,1.01,1.21,0,.25,.4,.25,.39,0,0-.68-.42-1.28-1.06-1.52s-1.38-.04-1.81,.48-.5,1.28-.15,1.87,1.03,.88,1.7,.76c.76-.14,1.31-.83,1.32-1.59,0-.25-.39-.25-.39,0Z"/>
          <path class="cls-1" d="M70.43,71.86c-5.25,0-9.52-4.22-9.52-9.42s4.27-9.42,9.52-9.42,9.52,4.22,9.52,9.42-4.27,9.42-9.52,9.42Zm0-16.83c-4.13,0-7.23,3.34-7.23,7.43s3.09,7.4,7.23,7.4,7.5-3.33,7.5-7.42-3.36-7.42-7.5-7.42Z"/>
          <path class="cls-4" d="M64.72,57.48c.34-.42,.73-.79,1.15-1.12l-.15,.12c.1-.08,.21-.16,.31-.23,.16-.11,.29-.25,.34-.45,.05-.18,.03-.42-.08-.58s-.26-.3-.45-.34-.41-.04-.58,.08c-.6,.42-1.15,.9-1.62,1.47-.07,.07-.12,.15-.16,.24-.05,.09-.07,.19-.06,.29,0,.18,.08,.4,.22,.53s.33,.23,.53,.22c.19,0,.41-.07,.53-.22h0Z"/>
          <circle class="cls-4" cx="67.91" cy="54.45" r="1.15"/>
          <path class="cls-17" d="M76.78,62.46c-.04,2.59-1.61,5.01-4.08,5.91s-5.24,.1-6.88-1.93-1.84-4.96-.52-7.2,3.91-3.45,6.45-2.95c2.95,.57,4.99,3.21,5.03,6.17,0,.71,1.11,.71,1.1,0-.04-3.04-1.87-5.8-4.72-6.91s-6.24-.17-8.17,2.22-2.2,5.81-.64,8.47,4.61,4.02,7.6,3.48c3.46-.63,5.89-3.79,5.93-7.25,0-.71-1.09-.71-1.1,0Z"/>
          <path class="cls-15" d="M75.19,57.38c3.11,2.96,2.84,8.07-.62,10.64-.28,.21,0,.69,.28,.48,1.73-1.29,2.86-3.2,3.07-5.37,.22-2.3-.68-4.57-2.34-6.15-.26-.25-.65,.15-.39,.39h0Z"/>
          <path class="cls-15" d="M73.42,68.7c-3.63,1.65-8-.08-9.41-3.84-1.27-3.41,.41-7.32,3.74-8.76,2.17-.94,4.64-.65,6.61,.63,.3,.2,.58-.29,.28-.48-3.63-2.37-8.62-1.2-10.71,2.62-1.92,3.51-.64,8.03,2.81,10.03,2.14,1.24,4.72,1.29,6.95,.28,.33-.15,.04-.63-.28-.48h0Z"/>
          <circle class="cls-17" cx="73.79" cy="67.55" r=".71"/>
          <circle class="cls-17" cx="73.61" cy="66.02" r=".41"/>
          <circle class="cls-19" cx="72.49" cy="66.65" r=".41"/>
          <path class="cls-14" d="M71.58,71.92c2.41-.42,4.67-1.69,6.28-3.53,.27-.3,.3-.76,0-1.06-.27-.27-.79-.31-1.06,0-1.46,1.67-3.43,2.77-5.61,3.15-.4,.07-.62,.56-.52,.92,.12,.42,.52,.59,.92,.52h0Z"/>
          <path class="cls-15" d="M61.78,59.18c1.43-3.68,5.01-6.14,8.98-6.04,3.65,.1,7,2.43,8.36,5.82s.53,7.54-2.14,10.14-6.58,3.33-9.97,1.97c-4.17-1.68-6.46-6.15-5.63-10.52,.07-.35-.47-.5-.54-.15-.77,4.03,.89,8.16,4.38,10.37s7.91,1.98,11.14-.43,4.64-6.49,3.68-10.32-4.25-6.79-8.16-7.34c-4.6-.65-8.98,2.05-10.64,6.35-.13,.33,.41,.48,.54,.15h0Z"/>
        </g>
      </g>
      <g>
        <g>
          <g>
            <circle class="cls-9" cx="25.15" cy="22.13" r="7.18"/>
            <circle class="cls-9" cx="25.15" cy="22.13" r="9.58"/>
          </g>
          <g>
            <rect class="cls-4" x="18.01" y="21.65" width="14.37" height="1" transform="translate(-4.95 36.87) rotate(-67.35)"/>
            <rect class="cls-4" x="16.16" y="20.7" width="13.55" height="1" transform="translate(-5.46 34.2) rotate(-67.35)"/>
          </g>
          <path class="cls-15" d="M25.35,21.2v-2.56c0-.25-.39-.25-.39,0v2.56c0,.25,.39,.25,.39,0h0Z"/>
          <circle class="cls-5" cx="25.15" cy="22.63" r="1.43"/>
          <path class="cls-15" d="M26.38,22.63c0,.51-.32,.98-.81,1.15s-1.05,.02-1.38-.38-.36-.97-.1-1.4,.78-.67,1.28-.58c.58,.11,1,.62,1.01,1.21,0,.25,.4,.25,.39,0,0-.68-.42-1.28-1.06-1.52s-1.38-.04-1.81,.48-.5,1.28-.15,1.87,1.03,.88,1.7,.76c.76-.14,1.31-.83,1.32-1.59,0-.25-.39-.25-.39,0Z"/>
          <path class="cls-1" d="M25.09,31.55c-5.25,0-9.52-4.22-9.52-9.42s4.27-9.42,9.52-9.42,9.52,4.22,9.52,9.42-4.27,9.42-9.52,9.42Zm0-16.83c-4.13,0-7.23,3.34-7.23,7.43s3.09,7.4,7.23,7.4,7.5-3.33,7.5-7.42-3.36-7.42-7.5-7.42Z"/>
          <path class="cls-4" d="M19.39,17.17c.34-.42,.73-.79,1.15-1.12l-.15,.12c.1-.08,.21-.16,.31-.23,.16-.11,.29-.25,.34-.45,.05-.18,.03-.42-.08-.58s-.26-.3-.45-.34-.41-.04-.58,.08c-.6,.42-1.15,.9-1.62,1.47-.07,.07-.12,.15-.16,.24-.05,.09-.07,.19-.06,.29,0,.18,.08,.4,.22,.53s.33,.23,.53,.22c.19,0,.41-.07,.53-.22h0Z"/>
          <circle class="cls-4" cx="22.57" cy="14.14" r="1.15"/>
          <path class="cls-17" d="M31.44,22.15c-.04,2.59-1.61,5.01-4.08,5.91s-5.24,.1-6.88-1.93-1.84-4.96-.52-7.2c1.3-2.21,3.91-3.45,6.45-2.95,2.95,.57,4.99,3.21,5.03,6.17,0,.71,1.11,.71,1.1,0-.04-3.04-1.87-5.8-4.72-6.91s-6.24-.17-8.17,2.22-2.2,5.81-.64,8.47,4.61,4.02,7.6,3.48c3.46-.63,5.89-3.79,5.93-7.25,0-.71-1.09-.71-1.1,0Z"/>
          <path class="cls-15" d="M29.85,17.07c3.11,2.96,2.84,8.07-.62,10.64-.28,.21,0,.69,.28,.48,1.73-1.29,2.86-3.2,3.07-5.37,.22-2.3-.68-4.57-2.34-6.15-.26-.25-.65,.15-.39,.39h0Z"/>
          <path class="cls-15" d="M28.09,28.39c-3.63,1.65-8-.08-9.41-3.84-1.27-3.41,.41-7.32,3.74-8.76,2.17-.94,4.64-.65,6.61,.63,.3,.2,.58-.29,.28-.48-3.63-2.37-8.62-1.2-10.71,2.62-1.92,3.51-.64,8.03,2.81,10.03,2.14,1.24,4.72,1.29,6.95,.28,.33-.15,.04-.63-.28-.48h0Z"/>
          <circle class="cls-17" cx="28.46" cy="27.24" r=".71"/>
          <circle class="cls-17" cx="28.27" cy="25.71" r=".41"/>
          <circle class="cls-19" cx="27.15" cy="26.34" r=".41"/>
          <path class="cls-14" d="M26.24,31.61c2.41-.42,4.67-1.69,6.28-3.53,.27-.3,.3-.76,0-1.06-.27-.27-.79-.31-1.06,0-1.46,1.67-3.43,2.77-5.61,3.15-.4,.07-.62,.56-.52,.92,.12,.42,.52,.59,.92,.52h0Z"/>
          <path class="cls-15" d="M16.44,18.87c1.43-3.68,5.01-6.14,8.98-6.04,3.65,.1,7,2.43,8.36,5.82s.53,7.54-2.14,10.14-6.58,3.33-9.97,1.97c-4.17-1.68-6.46-6.15-5.63-10.52,.07-.35-.47-.5-.54-.15-.77,4.03,.89,8.16,4.38,10.37s7.91,1.98,11.14-.43,4.64-6.49,3.68-10.32-4.25-6.79-8.16-7.34c-4.6-.65-8.98,2.05-10.64,6.35-.13,.33,.41,.48,.54,.15h0Z"/>
        </g>
        <g>
          <g>
            <circle class="cls-9" cx="70.49" cy="22.13" r="7.18"/>
            <circle class="cls-9" cx="70.49" cy="22.13" r="9.58"/>
          </g>
          <g>
            <rect class="cls-4" x="63.34" y="21.65" width="14.37" height="1" transform="translate(22.92 78.71) rotate(-67.35)"/>
            <rect class="cls-4" x="61.5" y="20.7" width="13.55" height="1" transform="translate(22.41 76.04) rotate(-67.35)"/>
          </g>
          <path class="cls-15" d="M70.69,21.2v-2.56c0-.25-.39-.25-.39,0v2.56c0,.25,.39,.25,.39,0h0Z"/>
          <circle class="cls-5" cx="70.49" cy="22.63" r="1.43"/>
          <path class="cls-15" d="M71.72,22.63c0,.51-.32,.98-.81,1.15s-1.05,.02-1.38-.38-.36-.97-.1-1.4,.78-.67,1.28-.58c.58,.11,1,.62,1.01,1.21,0,.25,.4,.25,.39,0,0-.68-.42-1.28-1.06-1.52s-1.38-.04-1.81,.48-.5,1.28-.15,1.87,1.03,.88,1.7,.76c.76-.14,1.31-.83,1.32-1.59,0-.25-.39-.25-.39,0Z"/>
          <path class="cls-1" d="M70.43,31.55c-5.25,0-9.52-4.22-9.52-9.42s4.27-9.42,9.52-9.42,9.52,4.22,9.52,9.42-4.27,9.42-9.52,9.42Zm0-16.83c-4.13,0-7.23,3.34-7.23,7.43s3.09,7.4,7.23,7.4,7.5-3.33,7.5-7.42-3.36-7.42-7.5-7.42Z"/>
          <path class="cls-4" d="M64.72,17.17c.34-.42,.73-.79,1.15-1.12l-.15,.12c.1-.08,.21-.16,.31-.23,.16-.11,.29-.25,.34-.45,.05-.18,.03-.42-.08-.58s-.26-.3-.45-.34-.41-.04-.58,.08c-.6,.42-1.15,.9-1.62,1.47-.07,.07-.12,.15-.16,.24-.05,.09-.07,.19-.06,.29,0,.18,.08,.4,.22,.53s.33,.23,.53,.22c.19,0,.41-.07,.53-.22h0Z"/>
          <circle class="cls-4" cx="67.91" cy="14.14" r="1.15"/>
          <path class="cls-17" d="M76.78,22.15c-.04,2.59-1.61,5.01-4.08,5.91s-5.24,.1-6.88-1.93-1.84-4.96-.52-7.2,3.91-3.45,6.45-2.95c2.95,.57,4.99,3.21,5.03,6.17,0,.71,1.11,.71,1.1,0-.04-3.04-1.87-5.8-4.72-6.91s-6.24-.17-8.17,2.22-2.2,5.81-.64,8.47,4.61,4.02,7.6,3.48c3.46-.63,5.89-3.79,5.93-7.25,0-.71-1.09-.71-1.1,0Z"/>
          <path class="cls-15" d="M75.19,17.07c3.11,2.96,2.84,8.07-.62,10.64-.28,.21,0,.69,.28,.48,1.73-1.29,2.86-3.2,3.07-5.37,.22-2.3-.68-4.57-2.34-6.15-.26-.25-.65,.15-.39,.39h0Z"/>
          <path class="cls-15" d="M73.42,28.39c-3.63,1.65-8-.08-9.41-3.84-1.27-3.41,.41-7.32,3.74-8.76,2.17-.94,4.64-.65,6.61,.63,.3,.2,.58-.29,.28-.48-3.63-2.37-8.62-1.2-10.71,2.62-1.92,3.51-.64,8.03,2.81,10.03,2.14,1.24,4.72,1.29,6.95,.28,.33-.15,.04-.63-.28-.48h0Z"/>
          <circle class="cls-17" cx="73.79" cy="27.24" r=".71"/>
          <circle class="cls-17" cx="73.61" cy="25.71" r=".41"/>
          <circle class="cls-19" cx="72.49" cy="26.34" r=".41"/>
          <path class="cls-14" d="M71.58,31.61c2.41-.42,4.67-1.69,6.28-3.53,.27-.3,.3-.76,0-1.06-.27-.27-.79-.31-1.06,0-1.46,1.67-3.43,2.77-5.61,3.15-.4,.07-.62,.56-.52,.92,.12,.42,.52,.59,.92,.52h0Z"/>
          <path class="cls-15" d="M61.78,18.87c1.43-3.68,5.01-6.14,8.98-6.04,3.65,.1,7,2.43,8.36,5.82s.53,7.54-2.14,10.14-6.58,3.33-9.97,1.97c-4.17-1.68-6.46-6.15-5.63-10.52,.07-.35-.47-.5-.54-.15-.77,4.03,.89,8.16,4.38,10.37s7.91,1.98,11.14-.43,4.64-6.49,3.68-10.32-4.25-6.79-8.16-7.34c-4.6-.65-8.98,2.05-10.64,6.35-.13,.33,.41,.48,.54,.15h0Z"/>
        </g>
      </g>
      <path class="cls-15" d="M79.86,95.62h-14.15c-1.01,0-2.64,.04-2.28-1.53,.27-1.19,1.62-.97,2.54-.97h12.74c.34,0,.7-.03,1.04,0,1.6,.14,1.83,2.36,.1,2.5-.35,.03-.36,.58,0,.56,2.07-.17,2.5-3.17,.32-3.58-.76-.14-1.63-.03-2.4-.03h-10.32c-.93,0-1.87-.04-2.8,0-1.69,.07-2.57,2.23-1.09,3.28,.71,.5,1.81,.33,2.63,.33h13.66c.36,0,.36-.56,0-.56Z"/>
      <circle class="cls-13" cx="5.67" cy="5.14" r="2.21"/>
      <circle class="cls-13" cx="89.79" cy="5.08" r="1.96"/>
      <circle class="cls-13" cx="89.79" cy="34.79" r="1.96"/>
      <circle class="cls-13" cx="5.67" cy="34.79" r="2.21"/>
      <path class="cls-15" d="M7.52,5.14c0,.72-.45,1.39-1.14,1.63s-1.48,.03-1.95-.54-.51-1.37-.14-1.99,1.1-.95,1.8-.82c.82,.16,1.41,.88,1.43,1.71,0,.36,.56,.36,.56,0-.01-.96-.6-1.81-1.5-2.15s-1.96-.05-2.56,.68-.71,1.81-.21,2.64,1.46,1.25,2.41,1.08c1.08-.19,1.85-1.17,1.86-2.25,0-.36-.55-.36-.56,0Z"/>
      <g>
        <path class="cls-15" d="M84.88,11.92c0-3.13,0-6.26,0-9.39,0-.92,.31-1.68,1.38-1.86,.6-.1,1.31,0,1.92,0,1.73,0,3.55-.16,5.28,0,1.34,.13,1.56,1.02,1.56,2.08V37.86c0,1.09,.16,2.21-1.32,2.51-.42,.08-.94,0-1.36,0h-3c-1.35,0-4.22,.55-4.46-1.36-.1-.79,0-1.67,0-2.47V14.93c0-.36-.56-.36-.56,0v21.03c0,1-.07,2.03,0,3.02,.11,1.62,1.34,1.94,2.7,1.94h6.08c1.31,0,2.38-.47,2.48-1.95,.14-2.29,0-4.63,0-6.92,0-4.38,0-8.77,0-13.15V2.87c0-.85,.06-1.69-.67-2.3-1.07-.91-3.45-.45-4.72-.45h-3.09c-.55,0-1.16-.07-1.67,.16-1.47,.65-1.11,2.56-1.11,3.86v7.79c0,.36,.56,.36,.56,0h0Z"/>
        <g>
          <path class="cls-15" d="M91.69,5.14c0,.72-.45,1.39-1.14,1.63s-1.48,.03-1.95-.54-.51-1.37-.14-1.99,1.1-.95,1.8-.82c.82,.16,1.41,.88,1.43,1.71,0,.36,.56,.36,.56,0-.01-.96-.6-1.81-1.5-2.15s-1.96-.05-2.56,.68-.71,1.81-.21,2.64,1.46,1.25,2.41,1.08c1.08-.19,1.85-1.17,1.86-2.25,0-.36-.55-.36-.56,0Z"/>
          <path class="cls-15" d="M91.69,34.79c0,.72-.45,1.39-1.14,1.63s-1.48,.03-1.95-.54-.51-1.37-.14-1.99,1.1-.95,1.8-.82c.82,.16,1.41,.88,1.43,1.71,0,.36,.56,.36,.56,0-.01-.96-.6-1.81-1.5-2.15s-1.96-.05-2.56,.68-.71,1.81-.21,2.64,1.46,1.25,2.41,1.08c1.08-.19,1.85-1.17,1.86-2.25,0-.36-.55-.36-.56,0Z"/>
        </g>
      </g>
      <g>
        <circle class="cls-5" cx="45.26" cy="28.82" r="2.21"/>
        <circle class="cls-21" cx="51.92" cy="28.82" r="2.21"/>
        <path class="cls-15" d="M52.1,30.61c-.74-.01-1.43-.47-1.68-1.17s-.03-1.53,.55-2.01,1.41-.52,2.04-.14,.98,1.13,.84,1.86c-.16,.85-.9,1.45-1.76,1.47-.36,0-.36,.56,0,.56,.98-.01,1.85-.61,2.2-1.53s.06-2-.7-2.62-1.85-.72-2.7-.21-1.28,1.49-1.1,2.46c.2,1.1,1.2,1.89,2.3,1.9,.36,0,.36-.55,0-.56Z"/>
        <path class="cls-15" d="M45.26,30.61c-.74-.01-1.43-.47-1.68-1.17s-.03-1.53,.55-2.01,1.41-.52,2.04-.14,.98,1.13,.84,1.86c-.16,.85-.9,1.45-1.76,1.47-.36,0-.36,.56,0,.56,.98-.01,1.85-.61,2.2-1.53s.06-2-.7-2.62-1.85-.72-2.7-.21-1.28,1.49-1.1,2.46c.2,1.1,1.2,1.89,2.3,1.9,.36,0,.36-.55,0-.56Z"/>
      </g>
      <path class="cls-8" d="M48.96,43.02l-.92-3.1c-.09-.3-.36-.51-.68-.5-6.87,.22-19.86,3.68-19.86,3.68l.03,.04c-2.47,.57-4.23,2.01-4.23,3.7,0,2.19,2.93,3.96,6.54,3.96,.79,0,1.55-.09,2.25-.24h0s9.91-2.05,16.6-6.76c.24-.17,.35-.48,.26-.77Z"/>
      <path class="cls-16" d="M36.2,47.26c0,2.19-2.93,3.96-6.54,3.96s-6.54-1.77-6.54-3.96c0-1.86,1.13-3.24,4.52-3.93,.6-.12,1.28,.07,2.02-.03,3.58-.47,6.54,1.77,6.54,3.96Z"/>
      <g>
        <path class="cls-15" d="M47.06,50.95v-2.23c0-.36-.56-.36-.56,0v2.23c0,.36,.56,.36,.56,0h0Z"/>
        <path class="cls-15" d="M50.61,48.81v2.22c0,.36,.56,.36,.56,0v-2.22c0-.36-.56-.36-.56,0h0Z"/>
      </g>
      <path class="cls-15" d="M46.51,45.75h9.51l-.28-.28c0,1.02,.29,2.64-1.16,2.71-.74,.04-1.48,0-2.22,0h-7.65c-.89,0-2.2,.25-2.7-.67-.17-.31-.65-.03-.48,.28,.54,.99,1.47,.94,2.43,.94h3.95c2.23,0,4.49,.12,6.72,0,1.85-.1,1.66-1.92,1.66-3.27,0-.15-.13-.28-.28-.28h-9.51c-.36,0-.36,.56,0,.56h0Z"/>
      <path class="cls-4" d="M44.05,53.25c.95-.62,1.99-1,3.12-1.17,.24-.03,.37-.34,.31-.55-.07-.26-.31-.35-.55-.31-1.18,.17-2.33,.6-3.33,1.26-.2,.13-.29,.4-.16,.62,.12,.2,.41,.3,.62,.16h0Z"/>
      <circle class="cls-4" cx="48.47" cy="51.47" r=".57"/>
      <path class="cls-11" d="M51.44,55.24c.14,.01,.27,.03,.41,.05,.08,0,.15,.02,.23,.03-.12-.02,.04,0,.07,.01,.27,.04,.55,.09,.82,.14,.57,.11,1.13,.26,1.69,.42,.3,.09,.67-.11,.74-.42s-.1-.64-.42-.74c-1.16-.34-2.33-.56-3.53-.69-.31-.03-.61,.3-.6,.6,.02,.35,.26,.57,.6,.6h0Z"/>
      <path class="cls-15" d="M52.61,55.03c-2.63-.46-5.28-.48-7.91-.08-.35,.05-.2,.59,.15,.54,2.53-.39,5.09-.36,7.61,.08,.35,.06,.5-.47,.15-.54h0Z"/>
      <path class="cls-15" d="M43.19,55.24c-.97,.22-1.93,.49-2.87,.79l.34,.34c2.43-7.04,14.16-6.79,16.36,.29l.34-.34c-1.11-.4-2.23-.74-3.38-1.01-.35-.08-.5,.45-.15,.54,1.15,.28,2.27,.62,3.38,1.01,.2,.07,.4-.15,.34-.34-1.82-5.87-9.84-7.5-14.57-4.13-1.35,.96-2.32,2.28-2.86,3.84-.07,.2,.15,.41,.34,.34,.95-.31,1.9-.57,2.87-.79,.35-.08,.2-.61-.15-.54h0Z"/>
      <circle class="cls-12" cx="52.16" cy="53.65" r=".31"/>
      <circle class="cls-11" cx="53.13" cy="53.33" r=".47"/>
      <path class="cls-15" d="M33.56,44.21c1.48,.73,3.03,2.25,2.05,4-.81,1.46-2.67,2.13-4.22,2.4-1.9,.33-4.02,.15-5.76-.73-1.5-.75-2.81-2.21-1.92-3.94,.17-.33-.32-.61-.49-.29-1.68,3.26,2.45,5.24,5.04,5.58,1.81,.23,3.72,.04,5.39-.7,1.21-.54,2.47-1.48,2.77-2.85,.4-1.83-1.08-3.22-2.58-3.96-.33-.16-.62,.33-.29,.49h0Z"/>
      <path class="cls-4" d="M36.02,42.95l2.78-.64c.23-.05,.39-.33,.31-.55-.08-.24-.31-.37-.55-.31l-2.78,.64c-.23,.05-.39,.33-.31,.55,.08,.24,.31,.37,.55,.31h0Z"/>
      <path class="cls-4" d="M40.1,42c.58,0,.58-.9,0-.9s-.58,.9,0,.9h0Z"/>
      <path class="cls-8" d="M48.25,39.64c.88-.24,1.76,.51,2.03,1.49s-.06,2.05-.95,2.29l-.6,.56-1.13-4.34h.64Z"/>
      <path class="cls-15" d="M48.45,40.05c.78-.2,1.51,.36,1.73,1.09s-.08,1.69-.89,1.93c-.35,.1-.2,.65,.15,.55,1.11-.33,1.61-1.56,1.29-2.63s-1.35-1.77-2.43-1.49c-.35,.09-.2,.64,.15,.55h0Z"/>
      <path class="cls-15" d="M48.77,43.49c-3.32,2.42-7.16,4.08-11.04,5.38-1.93,.65-3.9,1.23-5.89,1.65-.36,.07-.21,.62,.15,.55,2.06-.43,4.1-1.04,6.1-1.72,3.86-1.3,7.67-2.96,10.97-5.37,.29-.21,0-.71-.29-.49h0Z"/>
      <path class="cls-15" d="M27.39,43.61c2.5-.67,5.02-1.26,7.55-1.8,4.17-.9,8.47-1.83,12.75-1.88,.37,0,.37-.57,0-.57-4.25,.05-8.52,.96-12.66,1.85-2.61,.56-5.22,1.17-7.8,1.85-.35,.09-.2,.64,.15,.55h0Z"/>
      <rect class="cls-4" x="53.32" y="35.86" width=".99" height="9.5"/>
      <rect class="cls-4" x="55.03" y="35.86" width=".49" height="9.5"/>
      <path class="cls-15" d="M39.99,39.41v-3.51c0-.36-.56-.36-.56,0v3.51c0,.36,.56,.36,.56,0h0Z"/>
      <path class="cls-15" d="M57.68,35.9v6.91c0,.3,.02,.62,0,.92-.08,.89-.83,1.45-1.69,1.46-1.16,.01-2.31,0-3.47,0h-3.48c-.36,0-.36,.56,0,.56,2.31,0,4.61,.01,6.92,0,1.39,0,2.28-1.02,2.28-2.37v-7.47c0-.36-.56-.36-.56,0h0Z"/>
      <path class="cls-15" d="M69.65,35.62H11.13c-.36,0-.36,.56,0,.56h58.52c.36,0,.36-.56,0-.56h0Z"/>
      <path class="cls-15" d="M38.78,68.65h3.11c.36,0,.36-.56,0-.56h-3.11c-.36,0-.36,.56,0,.56h0Z"/>
      <path class="cls-15" d="M43.01,68.65c.36,0,.36-.56,0-.56s-.36,.56,0,.56h0Z"/>
      <path class="cls-15" d="M10.81,50.95l1.62-1.13c.12-.08,.19-.25,.1-.38-.08-.12-.25-.19-.38-.1l-1.62,1.13c-.12,.08-.19,.25-.1,.38,.08,.12,.25,.19,.38,.1h0Z"/>
      <path class="cls-15" d="M11.81,51.32c.83-.49,1.65-.97,2.48-1.46,.31-.18,.03-.66-.28-.48-.83,.49-1.65,.97-2.48,1.46-.31,.18-.03,.66,.28,.48h0Z"/>
      <rect class="cls-4" x="54.88" y="89.16" width="2.19" height="10.42"/>
      <rect class="cls-4" x="58.19" y="89.16" width="1.09" height="10.42"/>
      <path class="cls-4" d="M1.93,8.89v6.03c0,.97,1.5,.97,1.5,0v-6.03c0-.97-1.5-.97-1.5,0h0Z"/>
      <circle class="cls-4" cx="2.68" cy="18.46" r="1.15"/>
      <path class="cls-15" d="M5.05,5.34c0-.05,0-.1,0-.15s0,.06,0,.02c0-.01,0-.02,0-.04,0-.02,.01-.05,.02-.07s.01-.05,.02-.07,.05-.09,0-.02c.02-.04,.04-.09,.07-.13,.01-.02,.03-.04,.04-.06,0,0,.01-.02,.02-.02,.03-.05-.04,.05,0,0,.03-.04,.06-.07,.1-.1,.02-.02,.04-.03,.06-.05,.03-.02-.05,.04-.01,.01,.01,0,.02-.01,.03-.02,.04-.03,.09-.06,.14-.08,.13-.06,.18-.26,.1-.38-.09-.13-.24-.17-.38-.1-.47,.22-.77,.75-.75,1.26,0,.15,.12,.28,.28,.28,.15,0,.28-.12,.28-.28h0Z"/>
      <path class="cls-15" d="M89.03,5.45c0-.05,0-.1,0-.15s0,.06,0,.02c0-.01,0-.02,0-.04,0-.02,.01-.05,.02-.07s.01-.05,.02-.07,.05-.09,0-.02c.02-.04,.04-.09,.07-.13,.01-.02,.03-.04,.04-.06,0,0,.01-.02,.02-.02,.03-.05-.04,.05,0,0,.03-.04,.06-.07,.1-.1,.02-.02,.04-.03,.06-.05,.03-.02-.05,.04-.01,.01,.01,0,.02-.01,.03-.02,.04-.03,.09-.06,.14-.08,.13-.06,.18-.26,.1-.38-.09-.13-.24-.17-.38-.1-.47,.22-.77,.75-.75,1.26,0,.15,.12,.28,.28,.28,.15,0,.28-.12,.28-.28h0Z"/>
      <path class="cls-15" d="M9.42,3.43v2.75c0,.36,.56,.36,.56,0V3.43c0-.36-.56-.36-.56,0h0Z"/>
      <path class="cls-15" d="M13.08,10.35h3.53c.36,0,.36-.56,0-.56h-3.53c-.36,0-.36,.56,0,.56h0Z"/>
      <circle class="cls-2" cx="9.38" cy="36" r="1.01"/>
      <circle class="cls-3" cx="8.81" cy="33.93" r=".57"/>
      <circle class="cls-4" cx="5.46" cy="34.33" r="1.12"/>
      <path class="cls-15" d="M7.52,34.79c0,.72-.45,1.39-1.14,1.63s-1.48,.03-1.95-.54-.51-1.37-.14-1.99,1.1-.95,1.8-.82c.82,.16,1.41,.88,1.43,1.71,0,.36,.56,.36,.56,0-.01-.96-.6-1.81-1.5-2.15s-1.96-.05-2.56,.68-.71,1.81-.21,2.64,1.46,1.25,2.41,1.08c1.08-.19,1.85-1.17,1.86-2.25,0-.36-.55-.36-.56,0Z"/>
      <path class="cls-4" d="M12.29,5.34H63.3c0,.79-.64,1.43-1.43,1.43H13.73c-.79,0-1.43-.64-1.43-1.43h0Z"/>
      <path class="cls-15" d="M79.32,5.42h5.28c.36,0,.36-.56,0-.56h-5.28c-.36,0-.36,.56,0,.56h0Z"/>
      <path class="cls-15" d="M73.08,5.42h4.82c.36,0,.36-.56,0-.56h-4.82c-.36,0-.36,.56,0,.56h0Z"/>
      <path class="cls-15" d="M11.13,5.42H31.31c10.72,0,21.45,0,32.17,0h7.41c.36,0,.36-.56,0-.56-6.72,0-13.45,0-20.17,0H11.13c-.36,0-.36,.56,0,.56h0Z"/>
      <g>
        <g>
          <circle class="cls-4" cx="48.65" cy="17.34" r="5.31"/>
          <circle class="cls-4" cx="48.65" cy="17.34" r="7.08"/>
        </g>
        <path class="cls-15" d="M48.8,16.65v-1.89c0-.19-.29-.19-.29,0v1.89c0,.19,.29,.19,.29,0h0Z"/>
        <circle class="cls-5" cx="48.65" cy="17.7" r="1.05"/>
        <circle class="cls-15" cx="48.65" cy="17.7" r="1.05"/>
        <path class="cls-1" d="M48.61,24.3c-3.88,0-7.04-3.12-7.04-6.96s3.16-6.96,7.04-6.96,7.04,3.12,7.04,6.96-3.16,6.96-7.04,6.96Zm0-12.44c-3.06,0-5.34,2.47-5.34,5.5s2.29,5.47,5.34,5.47,5.54-2.46,5.54-5.48-2.49-5.48-5.54-5.48Z"/>
        <path class="cls-4" d="M44.39,13.67c.25-.31,.54-.58,.85-.83l-.11,.09c.08-.06,.15-.12,.23-.17,.12-.08,.21-.19,.25-.33,.04-.13,.02-.31-.06-.43s-.19-.22-.33-.25-.31-.03-.43,.06c-.44,.31-.85,.67-1.2,1.08-.05,.05-.09,.11-.11,.18-.03,.07-.05,.14-.05,.21,0,.14,.06,.3,.16,.39s.24,.17,.39,.16c.14,0,.3-.05,.39-.16h0Z"/>
        <circle class="cls-4" cx="46.75" cy="11.43" r=".85"/>
        <path class="cls-18" d="M53.3,17.35c-.03,1.92-1.19,3.7-3.01,4.37s-3.87,.07-5.08-1.42-1.36-3.66-.39-5.32,2.89-2.55,4.76-2.18c2.18,.42,3.69,2.37,3.72,4.56,0,.52,.82,.53,.82,0-.03-2.25-1.38-4.29-3.49-5.11s-4.62-.13-6.04,1.64-1.63,4.3-.47,6.26,3.4,2.97,5.62,2.57c2.56-.47,4.35-2.8,4.39-5.36,0-.52-.81-.52-.82,0Z"/>
        <path class="cls-15" d="M52.07,13.65c2.26,2.16,2.08,5.88-.44,7.75-.28,.21,0,.69,.28,.48,1.3-.97,2.15-2.4,2.31-4.03,.17-1.72-.51-3.41-1.75-4.6-.26-.25-.65,.15-.39,.39h0Z"/>
        <path class="cls-15" d="M50.79,21.9c-2.64,1.2-5.83-.07-6.85-2.8-.93-2.48,.29-5.34,2.72-6.39,1.58-.68,3.39-.48,4.82,.46,.3,.2,.58-.29,.28-.48-2.71-1.77-6.45-.9-8.01,1.97-1.43,2.63-.48,6.02,2.1,7.52,1.6,.93,3.54,.96,5.21,.2,.33-.15,.04-.63-.28-.48h0Z"/>
        <path class="cls-14" d="M49.46,24.34c1.78-.31,3.45-1.25,4.64-2.61,.2-.23,.22-.56,0-.78-.2-.2-.59-.23-.78,0-1.08,1.24-2.53,2.05-4.15,2.33-.3,.05-.46,.41-.39,.68,.09,.31,.39,.44,.68,.39h0Z"/>
        <path class="cls-15" d="M42.28,14.95c1.04-2.69,3.67-4.49,6.57-4.41,2.67,.07,5.11,1.77,6.11,4.25s.39,5.52-1.56,7.43-4.82,2.43-7.3,1.43c-3.04-1.23-4.72-4.5-4.11-7.69,.07-.35-.47-.5-.54-.15-.57,3.01,.66,6.09,3.27,7.75s5.9,1.47,8.31-.31,3.47-4.84,2.75-7.71-3.17-5.06-6.08-5.48c-3.44-.49-6.71,1.53-7.96,4.74-.13,.33,.41,.48,.54,.15h0Z"/>
      </g>
      <g>
        <path class="cls-15" d="M21.48,78.05c0,.72-.45,1.39-1.14,1.63s-1.48,.03-1.95-.54-.51-1.37-.14-1.99,1.1-.95,1.8-.82c.82,.16,1.41,.88,1.43,1.71,0,.36,.56,.36,.56,0-.01-.96-.6-1.81-1.5-2.15s-1.96-.05-2.56,.68-.71,1.81-.21,2.64,1.46,1.25,2.41,1.08c1.08-.19,1.85-1.17,1.86-2.25,0-.36-.55-.36-.56,0Z"/>
        <path class="cls-15" d="M78,78.05c0,.72-.45,1.39-1.14,1.63s-1.48,.03-1.95-.54-.51-1.37-.14-1.99,1.1-.95,1.8-.82c.82,.16,1.41,.88,1.43,1.71,0,.36,.56,.36,.56,0-.01-.96-.6-1.81-1.5-2.15s-1.96-.05-2.56,.68-.71,1.81-.21,2.64,1.46,1.25,2.41,1.08c1.08-.19,1.85-1.17,1.86-2.25,0-.36-.55-.36-.56,0Z"/>
      </g>
      <g>
        <path class="cls-15" d="M16.52,40.98c0,.72-.45,1.39-1.14,1.63s-1.48,.03-1.95-.54-.51-1.37-.14-1.99,1.1-.95,1.8-.82c.82,.16,1.41,.88,1.43,1.71,0,.36,.56,.36,.56,0-.01-.96-.6-1.81-1.5-2.15s-1.96-.05-2.56,.68-.71,1.81-.21,2.64,1.46,1.25,2.41,1.08c1.08-.19,1.85-1.17,1.86-2.25,0-.36-.55-.36-.56,0Z"/>
        <path class="cls-15" d="M82.04,40.98c0,.72-.45,1.39-1.14,1.63s-1.48,.03-1.95-.54-.51-1.37-.14-1.99,1.1-.95,1.8-.82c.82,.16,1.41,.88,1.43,1.71,0,.36,.56,.36,.56,0-.01-.96-.6-1.81-1.5-2.15s-1.96-.05-2.56,.68-.71,1.81-.21,2.64,1.46,1.25,2.41,1.08c1.08-.19,1.85-1.17,1.86-2.25,0-.36-.55-.36-.56,0Z"/>
      </g>
      <path class="cls-15" d="M48.07,57.92c-.78,.67-1.01,1.85-.62,2.79,.09,.23,.22,.43,.38,.62,.21,.24,.5,.42,.57,.75,.14,.65-.2,1.41-.61,1.89-.23,.27,.16,.67,.39,.39,.42-.49,.69-1.06,.77-1.7,.04-.29,.04-.59-.05-.87-.1-.29-.31-.49-.52-.71-.77-.76-.73-2.07,.09-2.78,.27-.23-.12-.63-.39-.39h0Z"/>
      <path class="cls-15" d="M49.7,64.61c1.2-.94,1.28-2.92,.22-3.99-.25-.25-.65,.14-.39,.39,.87,.88,.74,2.45-.22,3.2-.12,.09-.1,.29,0,.39,.12,.12,.28,.09,.39,0h0Z"/>
      <path class="cls-7" d="M11.17,89.16H53.5c0,1.04-.84,1.88-1.88,1.88H11.17v-1.88h0Z"/>
      <path class="cls-15" d="M33.34,99.3H13.24c-.37,0-.96,.12-1.32,0-.86-.28-.51-1.98-.51-2.62v-7.52c0-.36-.56-.36-.56,0v7.04c0,1.32-.52,3.59,1.35,3.65,5.14,.16,10.31,0,15.45,0h5.69c.36,0,.36-.56,0-.56h0Z"/>
      <path class="cls-15" d="M84.32,89.16v6.06c0,.96,.54,3.78-.69,4.09-.83,.21-1.98,0-2.82,0H35.95c-.36,0-.36,.56,0,.56h38.94c2.9,0,5.87,.18,8.76,0,1.68-.11,1.22-2.18,1.22-3.37v-7.32c0-.36-.56-.36-.56,0h0Z"/>
      <path class="cls-15" d="M39.86,88.88h-9.79c-.36,0-.36,.56,0,.56h9.79c.36,0,.36-.56,0-.56h0Z"/>
      <path class="cls-15" d="M27.98,88.88H11.85c-1.04,0-2.1,.05-3.14,0-.15,0-.32,.02-.47,0-1.79-.27-1.46-2.22,.03-2.5,.72-.13,1.59,0,2.31,0H85.91c.97,0,2.84-.29,2.84,1.25,0,1.72-2.99,1.25-4.03,1.25H41.32c-.36,0-.36,.56,0,.56h42.16c1.31,0,2.67,.1,3.97,0,2.44-.18,2.34-3.52-.08-3.61-1-.04-2.01,0-3.01,0H11.27c-.97,0-1.95-.06-2.92,0-2.48,.16-2.47,3.52,.03,3.61,5.92,.22,11.89,0,17.82,0h1.77c.36,0,.36-.56,0-.56h0Z"/>
      <path class="cls-15" d="M18.81,102.76c.37-.43,.74-.85,1.12-1.28,.07-.08,.08-.21,0-.29-.08-.07-.21-.09-.29,0-.37,.43-.74,.85-1.12,1.28-.07,.08-.08,.21,0,.29,.08,.07,.21,.09,.29,0h0Z"/>
      <path class="cls-15" d="M19.93,102.76l1.12-1.28c.07-.08,.08-.21,0-.29-.08-.07-.21-.09-.29,0l-1.12,1.28c-.07,.08-.08,.21,0,.29,.08,.07,.21,.09,.29,0h0Z"/>
      <path class="cls-20" d="M26.09,46.34c.08-.08,.16-.15,.25-.22,.15-.13-.04,0-.06,.05,.01-.03,.12-.09,.15-.1,.18-.12,.36-.22,.55-.31,.03-.02,.1-.06,.14-.06-.05,0-.26,.1-.07,.03,.1-.04,.21-.08,.32-.11,.21-.06,.43-.11,.65-.14l-.3,.04c.38-.05,.76-.05,1.15,0l-.3-.04c.12,.02,.24,.04,.36,.06,.57,.12,1.24-.17,1.38-.79,.13-.57-.17-1.25-.79-1.38-1.79-.39-3.68,.12-5.01,1.39-.43,.41-.44,1.19,0,1.59s1.14,.43,1.59,0h0Z"/>
      <path class="cls-15" d="M24.18,45.3c2.04-2.09,5.69-2.27,8.33-1.5,.35,.1,.5-.45,.15-.55-2.84-.84-6.7-.6-8.89,1.64-.26,.26,.15,.67,.4,.4h0Z"/>
      <path class="cls-15" d="M72.24,54.59c.72,.12,1.41,.35,2.05,.68,.13,.07,.3,.03,.38-.1,.07-.13,.03-.31-.1-.38-.68-.36-1.42-.61-2.18-.74-.15-.02-.3,.04-.34,.19-.04,.13,.05,.32,.19,.34h0Z"/>
      <path class="cls-15" d="M75.27,55.81c.36,0,.36-.56,0-.56s-.36,.56,0,.56h0Z"/>
      <path class="cls-15" d="M38.92,70.14h5.79c.36,0,.36-.56,0-.56h-5.79c-.36,0-.36,.56,0,.56h0Z"/>
      <path class="cls-15" d="M17.12,65.63c.28,1.02,.85,1.95,1.64,2.64,.11,.1,.28,.11,.39,0,.1-.1,.11-.29,0-.39-.72-.64-1.25-1.47-1.5-2.4-.09-.34-.63-.2-.54,.15h0Z"/>
      <path class="cls-15" d="M19.65,68.94c.36,0,.36-.56,0-.56s-.36,.56,0,.56h0Z"/>
    </g>
  </g>
</svg>