<svg xmlns="http://www.w3.org/2000/svg" viewBox="0 0 301.45 255.65"><defs><style>.cls-1{fill:#e0f3fc;}.cls-2{fill:#86c0d1;}.cls-11,.cls-12,.cls-13,.cls-14,.cls-25,.cls-27,.cls-3,.cls-30,.cls-31,.cls-33,.cls-35,.cls-4,.cls-41,.cls-42,.cls-43,.cls-44,.cls-45,.cls-46,.cls-47,.cls-49,.cls-5,.cls-53,.cls-54,.cls-55,.cls-58,.cls-59,.cls-61{fill:none;stroke-linecap:round;stroke-linejoin:round;}.cls-11,.cls-14,.cls-27,.cls-3,.cls-31,.cls-33,.cls-47,.cls-5,.cls-53,.cls-55,.cls-58{stroke:#232144;}.cls-13,.cls-3{stroke-width:0.5px;}.cls-4,.cls-42,.cls-44,.cls-59{stroke:#fff;}.cls-5{stroke-width:1.21px;}.cls-6{fill:#8f46b7;}.cls-7{fill:#f0e0c9;}.cls-8{fill:#acd9ea;}.cls-38,.cls-39,.cls-9{fill:#fff;}.cls-10{fill:#dbba8f;}.cls-12{stroke:#79b9cc;}.cls-12,.cls-44{stroke-width:3px;}.cls-13,.cls-54{stroke:#4c4047;}.cls-14{stroke-width:1.19px;}.cls-15{fill:#ffb999;}.cls-16,.cls-29{fill:#52197f;}.cls-17{fill:#84ecff;}.cls-18{fill:#2e4c64;}.cls-19{fill:#1c3244;}.cls-20{fill:#f57a59;}.cls-21{fill:#398ae2;}.cls-22{fill:#0268c4;}.cls-23{fill:#066dc9;}.cls-24{fill:#702d9b;}.cls-25,.cls-43{stroke:#52197f;}.cls-25,.cls-31,.cls-42,.cls-45,.cls-49{stroke-width:2px;}.cls-26{fill:#fc7f1a;}.cls-27{stroke-width:0.8px;}.cls-28{fill:#dce9ff;}.cls-29{opacity:0.69;}.cls-30,.cls-61{stroke:#f57a59;}.cls-30{stroke-width:0.77px;}.cls-32{fill:#ffa350;}.cls-33,.cls-59{stroke-width:0.75px;}.cls-34{fill:#ff8724;}.cls-35{stroke:#000;}.cls-36{fill:#ffd4b0;}.cls-37{fill:#232144;}.cls-38{opacity:0.25;}.cls-38,.cls-39{isolation:isolate;}.cls-39{opacity:0.5;}.cls-40{fill:#ffbe88;}.cls-41{stroke:#722aa0;}.cls-45,.cls-46{stroke:#0268c4;}.cls-46{stroke-width:5px;}.cls-47{stroke-width:1.03px;}.cls-48{fill:#b3f4f6;}.cls-49{stroke:#30cad6;}.cls-50{fill:#c5f8ff;}.cls-51{fill:#effdfd;}.cls-52{fill:#30cad6;}.cls-53{stroke-width:1.07px;}.cls-55{stroke-width:0.94px;}.cls-56{fill:#4ac8ff;}.cls-57{fill:#80deff;}.cls-58{stroke-width:0.74px;}.cls-60{fill:#1ba9db;}</style></defs><g id="Layer_2" data-name="Layer 2"><g id="Layer_2-2" data-name="Layer 2"><polygon class="cls-1" points="5.14 221.62 21.89 138.47 27.17 139.31 12.42 221.46 5.14 221.62"/><polygon class="cls-2" points="20.44 144.1 22.17 136.49 27.45 137.33 26.08 144.1 20.44 144.1"/><line class="cls-3" x1="14.19" y1="191.67" x2="15.33" y2="186.92"/><line class="cls-3" x1="12.65" y1="193.08" x2="13.79" y2="188.33"/><line class="cls-4" x1="7.07" y1="215.3" x2="10.32" y2="199.07"/><polyline class="cls-5" points="17.83 158.37 21.89 138.47 27.17 139.31 12.42 221.46 5.14 221.62 16.82 163.33"/><path class="cls-6" d="M193.8,51l-5.36,2.12L161.75,74.92a3.37,3.37,0,0,1-4.8-.54l-10.3-13.23c-3.81-.14-10.17,3.18-10.17,3.18l4.31,2.47-4.73,1.41.85,1.63,7-.22.21,8.76L152.76,89a8.18,8.18,0,0,0,11.13,1.4L187.52,73"/><polyline class="cls-7" points="124.04 69.67 97.52 69.67 97.52 124.06 143.97 124.06 143.97 69.67 133.33 69.67"/><polyline class="cls-1" points="123.42 74.05 101.9 74.05 101.9 112.17 139.59 112.17 139.59 74.05 130.96 74.05"/><polygon class="cls-8" points="122.01 111.74 113.47 111.74 126.6 74.26 135.14 74.26 122.01 111.74"/><polygon class="cls-8" points="110.93 111.74 107.97 111.67 121.1 74.19 124.06 74.26 110.93 111.74"/><polygon class="cls-8" points="105.71 111.74 102.74 111.67 115.87 74.19 118.84 74.26 105.71 111.74"/><rect class="cls-9" x="100.86" y="70.06" width="20.66" height="3.7" rx="1.85"/><rect class="cls-10" x="126.85" y="103.66" width="3.7" height="20.66" rx="1.85" transform="translate(242.68 -14.71) rotate(90)"/><rect class="cls-10" x="108.92" y="111.56" width="3.7" height="20.66" rx="1.85" transform="translate(232.66 11.12) rotate(90)"/><polygon class="cls-9" points="119.9 84.62 114.37 94.38 108.83 104.13 120.13 104 131.42 103.87 125.66 94.25 119.9 84.62"/><polygon class="cls-11" points="120.16 84.35 114.51 94.05 108.86 103.74 120.16 103.74 131.45 103.74 125.8 94.05 120.16 84.35"/><circle class="cls-9" cx="127.21" cy="88.52" r="2.12"/><circle class="cls-11" cx="127.39" cy="88.12" r="2.12"/><polyline class="cls-11" points="143.97 99.41 143.97 69.67 139.33 69.67"/><line class="cls-11" x1="143.97" y1="110.65" x2="143.97" y2="102.67"/><path class="cls-11" d="M136.11,124.06h6.77A1.09,1.09,0,0,0,144,123v-8.6"/><path class="cls-11" d="M125,69.67H97.52V123a1.08,1.08,0,0,0,1.08,1.08h34.78"/><polyline class="cls-12" points="102.46 99.51 102.46 111.08 112.25 111.08"/><polyline class="cls-11" points="123.47 74.05 101.33 74.05 101.33 112.17 139.45 112.17 139.45 74.05"/><line class="cls-13" x1="103.86" y1="115.53" x2="100.98" y2="119.48"/><line class="cls-13" x1="105.82" y1="114.82" x2="102.94" y2="118.77"/><polygon class="cls-1" points="83.03 221.18 64.75 138.46 59.6 139.27 75.28 221.44 83.03 221.18"/><polygon class="cls-2" points="65.85 143.77 64.33 136.34 59.18 137.15 60.58 143.77 65.85 143.77"/><polygon class="cls-14" points="83.31 221.37 64.75 138.46 59.6 139.27 75.28 221.44 83.31 221.37"/><line class="cls-3" x1="66.66" y1="161.12" x2="65.64" y2="156.34"/><line class="cls-3" x1="65.87" y1="163.05" x2="64.85" y2="158.27"/><polygon class="cls-1" points="48.08 212.88 47.38 138.16 42.17 137.92 41.87 212.88 48.08 212.88"/><polygon class="cls-2" points="47.55 143.77 47.57 136.18 42.36 135.94 42.39 143.77 47.55 143.77"/><polygon class="cls-14" points="48.27 213.45 47.57 138.72 42.36 138.48 42.06 213.45 48.27 213.45"/><line class="cls-3" x1="45.55" y1="211.21" x2="45.52" y2="206.32"/><line class="cls-3" x1="44.39" y1="212.94" x2="44.36" y2="208.05"/><path class="cls-15" d="M137.47,64.87a8.9,8.9,0,0,0-10.73,3.58l-1.22,4.28c0,4.65,2.74,8.42,6.12,8.42s6.11-3.77,6.11-8.42l-2-4.66s8.75-1.27,10.73-6.92"/><polygon class="cls-16" points="261.43 69.41 256.41 64.19 259.02 62.99 266.3 64.75 261.43 69.41"/><polygon class="cls-16" points="143.05 65.39 146.24 61.75 143.4 61.33 136.56 64.68 140.79 66.73 143.05 65.39"/><path class="cls-6" d="M267.78,70.19c-8.33-1.55-10.45-6.92-10.45-6.92L246.74,79.79,218.08,57.06l-4,16.23,35.29,24.29,4.66-.71"/><polyline class="cls-7" points="274.44 72.31 300.95 72.31 300.95 126.69 254.51 126.69 254.51 72.31 265.14 72.31"/><polyline class="cls-17" points="275.34 76.61 296.86 76.61 296.86 114.73 259.17 114.73 259.17 76.61 267.8 76.61"/><path class="cls-18" d="M223.72,239.69v9.92s11,5.74,22.53,5.89a7.56,7.56,0,0,0,1.06-.08l4.5-.73a1.73,1.73,0,0,0,1.44-1.7h0a9.38,9.38,0,0,0-2.74-6.64c-2.83-2.84-9.6-7.83-15.08-9.19"/><path class="cls-19" d="M252.93,252.05a7.32,7.32,0,0,1,0,.81,1.72,1.72,0,0,1-1.44,1.69l-4.5.73a7.56,7.56,0,0,1-1.06.08c-11.54-.14-22.53-5.89-22.53-5.89l.54-3c6.56,4.17,23.41,8.28,29,5.55"/><path class="cls-11" d="M223.75,239.62l0,9.31a1.07,1.07,0,0,0,.61,1,61.9,61.9,0,0,0,9.9,3.71,42.1,42.1,0,0,0,17.55,1.07h0a1.72,1.72,0,0,0,1.47-1.7h0a9.38,9.38,0,0,0-2.74-6.64,42.65,42.65,0,0,0-15.08-9.19"/><path class="cls-18" d="M192.78,240.74v10.67l-2.46.84a35.34,35.34,0,0,1-11.39,1.89h0c-3.55,0-10.07-.53-13.46-1.58l-1-.33a1.48,1.48,0,0,1-.7-2.36c2.57-3.07,11.49-9.29,18.31-10.41"/><path class="cls-19" d="M190.51,247.39l2.27-.78.09,4.71-2.46.84A35.34,35.34,0,0,1,179,254.05c-3.55,0-10.07-.53-13.46-1.58l-1-.32a1.49,1.49,0,0,1-.72-2.35l.61-.71a1,1,0,0,0,.3.14l1,.32,2.08.13c6.37.4,15.75-.3,21.88-2.06Z"/><path class="cls-11" d="M192.5,240.74v10.67l-2.47.84a35.25,35.25,0,0,1-11.39,1.89h0c-3.54,0-10.07-.53-13.45-1.58l-1-.33a1.47,1.47,0,0,1-.69-2.36c2.57-3.07,11.49-9.29,18.31-10.41"/><path class="cls-18" d="M184,236.93c-2.59.47-4.44,1.68-4.44,3.1,0,1.81,3,3.29,6.78,3.29s6.77-1.48,6.77-3.29c0-1.14-1.18-2.14-3-2.73"/><path class="cls-11" d="M183.76,236.93c-2.59.47-4.44,1.68-4.44,3.1,0,1.81,3,3.29,6.78,3.29s6.77-1.48,6.77-3.29c0-1.14-1.18-2.14-3-2.73"/><path class="cls-18" d="M232.64,234.86c2.74.47,4.69,1.68,4.69,3.09,0,1.82-3.21,3.3-7.16,3.3S223,239.77,223,238c0-1.13,1.25-2.13,3.16-2.73"/><path class="cls-15" d="M227.1,234.05v4.2h0a7.72,7.72,0,0,0,5.4,0h0V233"/><path class="cls-20" d="M227.1,230.88v4.2h0a7.72,7.72,0,0,0,5.4,0h0v-5.29"/><path class="cls-15" d="M188.55,233.92v5.65h0a7.72,7.72,0,0,1-5.4,0h0v-5.65"/><path class="cls-20" d="M188.55,230.25v5.65h0a7.72,7.72,0,0,1-5.4,0h0v-5.65"/><path class="cls-21" d="M225,131.31l0,26.27,11.3,73.25-.15.1a16.74,16.74,0,0,1-13,2.56h0l-23.65-74.11L197.33,149l4.25,17-7.94,67.24-.9.18a28.68,28.68,0,0,1-12.13-.18h0l-5.49-88a119.85,119.85,0,0,1,0-14.31h0"/><path class="cls-22" d="M235.5,230.83l-.15.1a16.62,16.62,0,0,1-13,2.56l0-.05c4.88-16,5.18-42,4.79-58.33Z"/><path class="cls-23" d="M224.68,138.91a135,135,0,0,1-50-2.52c0-.66,0-1.32,0-2,0-1.92.07-3.83.18-5.74h.88a3.58,3.58,0,0,0,.48.24c3.95,1.61,13,4.08,31.63,4.08l-.88-4.08,17.59.13.06,5.36Z"/><path class="cls-9" d="M191.33,58.41l-17.07,68.82a3.39,3.39,0,0,0,2,4c3.95,1.61,13,4.08,31.63,4.08l6-19.12L208,91.68,211.4,54.6l-2.63-3.77-8.66-5.65-4.52,2.45-4.89,8.28Z"/><polygon class="cls-24" points="187.64 72.92 174.25 127.21 167.78 127.75 180.95 84.08 181.3 77.47 187.64 72.92"/><line class="cls-25" x1="177.93" y1="109.47" x2="174.39" y2="124.05"/><line class="cls-25" x1="182.51" y1="90.59" x2="178.72" y2="106.2"/><circle class="cls-26" cx="187.64" cy="11.32" r="4.8"/><circle class="cls-27" cx="187.64" cy="11.32" r="4.8"/><path class="cls-28" d="M208.52,133.8c1-9.11,3.5-18.37,1-27.42A92.35,92.35,0,0,1,206.63,95a22.62,22.62,0,0,1-.12-6.15,15.25,15.25,0,0,1,.64-2.83,9,9,0,0,0,.53-1.74c.08-.88,0-1.82,0-2.7v-6l0-15.3V50.55a1.5,1.5,0,0,0-3,0l0,23.19v6.54a30,30,0,0,1,0,3.67,13.33,13.33,0,0,1-.6,1.78,21.26,21.26,0,0,0-.71,6.15,47.38,47.38,0,0,0,2.28,12c.56,1.91,1.16,3.82,1.58,5.77a27.51,27.51,0,0,1,.45,6.6,83.3,83.3,0,0,1-1,8.62c-.41,3-.83,6-1.17,9-.21,1.92,2.79,1.9,3,0Z"/><path class="cls-15" d="M261.35,67.58c.36-.29,3.46-3.53,3.46-3.53h3.38A4.69,4.69,0,0,1,272,66h0a4.66,4.66,0,0,1,.86,2.7v7.13L270.51,80a3.6,3.6,0,0,1-3.12,1.8h0a3.6,3.6,0,0,1-1.89-.53l-.4-.25a3.58,3.58,0,0,1-1.7-3v-5.8h1.52a1.87,1.87,0,0,0,1.87-1.87h0"/><path class="cls-6" d="M222.37,78.8l.56,2.31a247.4,247.4,0,0,0,17.51,48.51h0s-2.26,4-14.12,9.42-21.08,2.07-21.08,2.07c3.55-4.42,5.11-16,5.77-23.57a31.41,31.41,0,0,0-1.56-12.8L207.82,100a27.72,27.72,0,0,1-.7-15.42h0V42.66l10.82,8.61,2.68,4.38"/><path class="cls-29" d="M240.25,129.81a11.45,11.45,0,0,1-2.61,2.66,54.13,54.13,0,0,1-11.51,6.75c-11.86,5.46-21.08,2.07-21.08,2.07h0c15.22-4.21,23.71-17.33,28.13-27.5Q236.43,121.91,240.25,129.81Z"/><path class="cls-16" d="M188.78,68.28l-1.26,4.41L163.88,90.06a8.17,8.17,0,0,1-11.13-1.4l-1.88-2.29a9.31,9.31,0,0,0,11.69.72Z"/><polyline class="cls-24" points="194.72 46.03 188.44 42.23 188.44 53.11 193.31 51.55 195.64 48.02"/><path class="cls-15" d="M203.22,42.76v4.3a3.26,3.26,0,0,1-1.92,3h0a5.09,5.09,0,0,1-4.15,0h0a3.26,3.26,0,0,1-1.92-3V42.31"/><path class="cls-20" d="M203.22,37.47v4.3a3.24,3.24,0,0,1-1.92,3h0a5,5,0,0,1-4.15,0h0a3.24,3.24,0,0,1-1.92-3V37"/><path class="cls-15" d="M210.45,14.14v17a11.68,11.68,0,0,1-11.67,11.67h0a11.67,11.67,0,0,1-11.67-11.67V16.84c0-.67.46-2.91.56-3.55"/><path class="cls-9" d="M199.1,42.35l-.64,0A11.68,11.68,0,0,1,186.79,30.7V16.43c0-.66.46-2.91.57-3.54l1.26,0c-.12.68-.56,2.84-.56,3.49V30.7a11.67,11.67,0,0,0,11,11.65Z"/><path class="cls-20" d="M210.38,13.93v17c0,6.45-3.74,10.64-10.1,11.63a7.74,7.74,0,0,1-1.9.21c5.66-.8,6.68-5.95,6.68-11.84v-17l-17.48-.73s0-.09,0-.12Z"/><path class="cls-27" d="M210.45,22.69v8.42a11.68,11.68,0,0,1-11.67,11.67h0a11.67,11.67,0,0,1-11.67-11.67V16.84a11.4,11.4,0,0,1,.16-1.95"/><polyline class="cls-30" points="192.15 31.67 192.15 33.08 194.22 33.08"/><path class="cls-30" d="M192.15,36.09h.18a10.11,10.11,0,0,0,4.95-1.3h0"/><line class="cls-31" x1="187.98" y1="20.19" x2="191.77" y2="20.19"/><line class="cls-31" x1="195.39" y1="20.19" x2="199.18" y2="20.19"/><path class="cls-27" d="M203.22,42.06v5a3.26,3.26,0,0,1-1.92,3h0a5.09,5.09,0,0,1-4.15,0h0a3.26,3.26,0,0,1-1.92-3V42.31"/><path class="cls-32" d="M203.8,22.8a3.22,3.22,0,0,1-.94-2.27h0a3.22,3.22,0,0,1,.94-2.27l.36-.35v-.63A1.28,1.28,0,0,0,202.88,16h0a4.76,4.76,0,0,1-3-1h0a4.82,4.82,0,0,0-4.45-.8l-3.07,1a4.6,4.6,0,0,1-2,.21c-4.87-.55-4.89-4.76-4.89-7,0-2.4,1-5.82,5.74-5.93,3.67-.09,5,1.69,5,1.69L194.53,3A8.81,8.81,0,0,1,201.14.4h0A8.81,8.81,0,0,1,207.78,3a7,7,0,0,1,1.27,1.7l-3.6-.07,3.17.44s6,1.11,6.57,9-6,9.88-6,9.88"/><path class="cls-26" d="M211.09,22.84A8.44,8.44,0,0,1,208.9,24l-3.13-.69V20.71a9.86,9.86,0,0,0,1.65-6.61l0-.3c-.6-6.77-5.2-8.73-6.25-9.09h.14A7.11,7.11,0,0,0,200,3a7.66,7.66,0,0,0-2.88-1.91,9.88,9.88,0,0,1,3.73-.7h0A8.78,8.78,0,0,1,207.49,3a8.42,8.42,0,0,1,1.11,1.69l.31.54c-.13,0-.12,0-.12,0l-3.63-.63,3.72.56c1.06.36,5.52,1.88,6,8.9C215.25,18.92,213,21.53,211.09,22.84Z"/><line class="cls-27" x1="203.54" y1="47.32" x2="206.93" y2="49.88"/><path class="cls-11" d="M257.33,63.27s4.09-.56,6.64,1"/><path class="cls-11" d="M214.65,125.67a33.44,33.44,0,0,0,8.85-19.39"/><path class="cls-27" d="M191.33,58.41l-17.07,68.82a3.39,3.39,0,0,0,2,4c3.95,1.61,13,4.08,31.63,4.08"/><line class="cls-11" x1="195.26" y1="48.12" x2="192.44" y2="53.58"/><polyline class="cls-33" points="174.04 127.22 167.78 128.12 180.95 84.45 181.38 77.56"/><polyline class="cls-32" points="194.66 51.27 190.21 55.87 192.84 62.44 194.45 62.78 199.3 57.62 196.83 51.72"/><polyline class="cls-32" points="195.06 62.42 199.15 107.6 190.84 121.58 184.63 107.6 193.38 60.31"/><polygon class="cls-34" points="199.16 107.74 190.89 121.07 194.19 62.33 194.93 62.33 199.16 107.74"/><polyline class="cls-27" points="188.44 53.11 188.44 42.23 194.72 46.03"/><path class="cls-33" d="M144.39,78.8,152.76,89a8.18,8.18,0,0,0,11.13,1.4l17.27-12.7,6.25-4.5"/><path class="cls-11" d="M179.26,136.4s.75,6.21-7.72,10.16"/><path class="cls-11" d="M188.55,233.92v5.65h0a7.72,7.72,0,0,1-5.4,0h0v-5.65"/><path class="cls-11" d="M227.1,234.05v4.2h0a7.72,7.72,0,0,0,5.4,0h0V233"/><path class="cls-35" d="M261.35,67.58c.36-.29,3.46-3.53,3.46-3.53h3.38A4.69,4.69,0,0,1,272,66h0a4.66,4.66,0,0,1,.86,2.7v7.13L270.51,80a3.6,3.6,0,0,1-3.12,1.8h0a3.6,3.6,0,0,1-1.89-.53l-.4-.25a3.58,3.58,0,0,1-1.7-3V74.71"/><rect x="189.07" y="24.35" width="1.7" height="3.5" rx="0.72"/><rect x="195.56" y="24.35" width="1.7" height="3.5" rx="0.72"/><ellipse class="cls-36" cx="189.71" cy="7.51" rx="1.81" ry="2.43" transform="translate(37.63 121.17) rotate(-39.04)"/><ellipse class="cls-36" cx="189.71" cy="11.03" rx="0.73" ry="0.98" transform="translate(126.01 190.07) rotate(-73.75)"/><polyline class="cls-37" points="212.56 22.28 212.58 24.44 211.28 22.77"/><polyline class="cls-37" points="212.75 21.58 213.74 23.5 211.83 22.6"/><polyline class="cls-37" points="194.39 2.29 194.37 0.12 195.67 1.79"/><polyline class="cls-37" points="194.21 2.98 193.21 1.06 195.13 1.96"/><circle class="cls-38" cx="189.1" cy="25.99" r="3.34"/><path class="cls-39" d="M189.47,22.8,187,28.44c-.29,0-.19-.21-.45-.29l2.51-5.6C189.26,22.69,189.27,22.61,189.47,22.8Z"/><path class="cls-39" d="M188.43,22.66l-2.23,4.89c-.28,0-.18-.21-.44-.29l2.08-4.6C188.08,22.79,188.23,22.46,188.43,22.66Z"/><circle class="cls-38" cx="196.49" cy="25.99" r="3.34"/><path class="cls-39" d="M196.86,22.8l-2.53,5.64c-.28,0-.18-.21-.44-.29l2.51-5.6C196.64,22.69,196.66,22.61,196.86,22.8Z"/><path class="cls-39" d="M195.82,22.66l-2.23,4.89c-.29,0-.19-.21-.45-.29l2.08-4.6C195.47,22.79,195.62,22.46,195.82,22.66Z"/><path class="cls-20" d="M190.1,16.84a12.41,12.41,0,0,0,3.86-.7,7.12,7.12,0,0,1,3.55-.52,10,10,0,0,1,2.59,1.43,6.6,6.6,0,0,0,3.41.79l-.83-.82v.72l.24-.58c-1.48,1.59-2.24,4.66-.38,6.29.79.7,2-.46,1.16-1.16a2.63,2.63,0,0,1-.26-3,6.94,6.94,0,0,1,.65-1,2,2,0,0,0,.24-1.31.85.85,0,0,0-.82-.83,5.06,5.06,0,0,1-3-.83,7.53,7.53,0,0,0-2.92-1.4c-2.59-.39-4.92,1.3-7.48,1.23a.83.83,0,0,0,0,1.65Z"/><circle class="cls-9" cx="189.31" cy="25.27" r="0.64"/><circle class="cls-9" cx="195.71" cy="25.27" r="0.64"/><circle class="cls-27" cx="189.07" cy="26.03" r="3.69"/><circle class="cls-27" cx="196.46" cy="26.03" r="3.69"/><path class="cls-27" d="M209,24s6.57-2,6-9.88a15.25,15.25,0,0,0-.23-1.74,9.63,9.63,0,0,0-9.51-7.71h0"/><path class="cls-27" d="M193.38,14.8l1.94-.63a4.79,4.79,0,0,1,4.44.8h0a4.81,4.81,0,0,0,3,1h0A1.28,1.28,0,0,1,204,17.28v.63l-.36.35a3.22,3.22,0,0,0-.94,2.27h0a3.22,3.22,0,0,0,.94,2.27"/><path class="cls-27" d="M186.63,13.66a5.26,5.26,0,0,0,3.63,1.71,4.27,4.27,0,0,0,1,0"/><path class="cls-27" d="M185.38,9a9.63,9.63,0,0,0,.55,3.52"/><path class="cls-27" d="M196.13,4.14s-1.34-1.69-5-1.69-5.45,1.69-5.71,5.12"/><path class="cls-27" d="M194.39,3A8.78,8.78,0,0,1,201,.4"/><path class="cls-27" d="M201,.4A8.82,8.82,0,0,1,207.64,3a7.3,7.3,0,0,1,1.27,1.7"/><path class="cls-15" d="M203.5,27.79a3.58,3.58,0,1,0,0-5.1"/><path class="cls-27" d="M203.5,27.79a3.58,3.58,0,1,0,0-5.1"/><circle class="cls-20" cx="206.23" cy="25.25" r="2.04"/><path class="cls-27" d="M207.52,25.73a1.83,1.83,0,0,0-1.83-1.83"/><path class="cls-27" d="M206.92,24.6a1.83,1.83,0,0,0-.72,1.13"/><line class="cls-27" x1="200.15" y1="26.03" x2="205.52" y2="21.51"/><line class="cls-4" x1="187.19" y1="96.87" x2="189.54" y2="83.98"/><line class="cls-33" x1="191.16" y1="72.19" x2="192.81" y2="63.27"/><line class="cls-33" x1="185.93" y1="100.31" x2="190.62" y2="75.09"/><line class="cls-4" x1="185.83" y1="108.52" x2="189.42" y2="116.56"/><polyline class="cls-33" points="197.97 94.25 199.15 107.32 190.84 121.29 184.63 107.32 185.54 102.39"/><line class="cls-33" x1="196.82" y1="81.54" x2="197.83" y2="92.73"/><line class="cls-33" x1="195.06" y1="62.14" x2="196.65" y2="79.69"/><polyline class="cls-4" points="207.85 72.17 207.85 44.14 215.05 49.79"/><polyline class="cls-27" points="207.12 76.59 207.12 42.66 217.94 51.27 220.63 55.65"/><path class="cls-27" d="M206.37,92.26a28,28,0,0,1,.75-7.72h0V78.66"/><ellipse class="cls-40" cx="189.18" cy="107.14" rx="1.52" ry="2.51"/><circle class="cls-40" cx="188.15" cy="102.8" r="0.99"/><path class="cls-41" d="M214.2,74.49l7.41,5s4.17,18.56,7.34,24.14"/><line class="cls-41" x1="215.26" y1="73.01" x2="248.44" y2="95.88"/><polyline class="cls-27" points="214.13 73.29 249.43 97.58 254.08 96.87"/><line class="cls-42" x1="224.81" y1="63.18" x2="243.54" y2="77.95"/><path class="cls-11" d="M230.9,67.22l15.84,12.57,10.59-16.52s2.12,5.37,10.45,6.92"/><line class="cls-11" x1="218.08" y1="57.06" x2="228.2" y2="65.08"/><polyline class="cls-4" points="193.2 61.4 190.94 55.68 194.22 52.37"/><polyline class="cls-27" points="196.97 51.58 199.44 57.48 194.59 62.64"/><polyline class="cls-27" points="190.9 55.15 190.35 55.72 192.99 62.3"/><line class="cls-27" x1="194.8" y1="51.13" x2="191.84" y2="54.18"/><line class="cls-4" x1="163.8" y1="74.42" x2="180.81" y2="60.59"/><line class="cls-4" x1="147.21" y1="63.34" x2="156.04" y2="74.78"/><path class="cls-33" d="M137.47,63.69s5.37-2.68,9.18-2.54L157,74.38a3.37,3.37,0,0,0,4.8.54l26.69-21.81L193.8,51"/><line class="cls-43" x1="229.94" y1="107.46" x2="233.52" y2="116.4"/><path class="cls-4" d="M211.52,109.65s1.27,8.4-.57,13.9"/><path class="cls-27" d="M209,141.92a19.53,19.53,0,0,1-3.75-.81c3.55-4.42,5.11-16,5.77-23.57a31.41,31.41,0,0,0-1.56-12.8L207.82,100a29.39,29.39,0,0,1-1.07-4.2"/><path class="cls-11" d="M222.46,79.36l.47,1.75a247.4,247.4,0,0,0,17.51,48.51h0s-2.26,4-14.12,9.42a32.62,32.62,0,0,1-14.4,3.1"/><ellipse class="cls-11" cx="219.64" cy="109.86" rx="1.04" ry="1.41"/><ellipse class="cls-33" cx="199.02" cy="144.82" rx="1.04" ry="1.41"/><ellipse class="cls-33" cx="199.17" cy="139.6" rx="1.04" ry="1.41"/><line class="cls-44" x1="176.25" y1="149.01" x2="177.85" y2="171.74"/><line class="cls-42" x1="179.54" y1="205.86" x2="181.1" y2="230.14"/><line class="cls-45" x1="196.34" y1="201.06" x2="193.52" y2="223.93"/><line class="cls-46" x1="199.26" y1="166.24" x2="197.28" y2="180.92"/><line class="cls-45" x1="231.92" y1="210.8" x2="233.61" y2="221.67"/><line class="cls-42" x1="204.67" y1="171.79" x2="217.28" y2="211.69"/><line class="cls-11" x1="199.01" y1="184.95" x2="201.28" y2="165.48"/><path class="cls-11" d="M178.25,195.11l2.14,38.14h0a28.33,28.33,0,0,0,12.09.18l.9-.18,5.07-43.52"/><line class="cls-11" x1="177.75" y1="188.76" x2="178" y2="192.64"/><path class="cls-11" d="M174.88,130.52a116.21,116.21,0,0,0,0,14.09l2.59,42"/><line class="cls-45" x1="196.34" y1="150.38" x2="197.47" y2="156.87"/><polyline class="cls-11" points="225.38 160.33 224.86 156.87 224.58 140.07"/><path class="cls-11" d="M197.05,148.4l2.13,10.45,23.56,74.68h0a16.53,16.53,0,0,0,13-2.58l.14-.1-9.74-67.06"/><path class="cls-45" d="M216.81,144.87s.94,3.67,6.12,3.77"/><path class="cls-11" d="M216.06,142.05s1.88,8.94,11.86,5.17"/><path class="cls-47" d="M232.52,234.86c2.77.47,4.74,1.68,4.74,3.09,0,1.82-3.24,3.3-7.24,3.3s-7.24-1.48-7.24-3.3c0-1.13,1.26-2.13,3.19-2.73"/><polygon class="cls-48" points="282.6 114.38 274.06 114.38 287.19 76.89 295.73 76.89 282.6 114.38"/><polygon class="cls-48" points="271.52 114.38 268.55 114.31 281.68 76.82 284.65 76.89 271.52 114.38"/><polygon class="cls-48" points="266.3 114.38 263.33 114.31 276.46 76.82 279.43 76.89 266.3 114.38"/><polygon class="cls-9" points="275.89 87.82 281.43 97.58 286.96 107.33 275.67 107.2 264.37 107.07 270.13 97.44 275.89 87.82"/><circle class="cls-9" cx="288.33" cy="94.41" r="2.12"/><rect class="cls-9" x="258.88" y="78.52" width="3.39" height="18.92" rx="1.69"/><rect class="cls-9" x="285.43" y="64.22" width="3.7" height="20.66" rx="1.85" transform="translate(361.83 -212.73) rotate(90)"/><rect class="cls-10" x="267.93" y="106.29" width="3.7" height="20.66" rx="1.85" transform="translate(386.4 -153.16) rotate(90)"/><rect class="cls-10" x="285.86" y="114.2" width="3.7" height="20.66" rx="1.85" transform="translate(412.23 -163.18) rotate(90)"/><polygon class="cls-11" points="275.64 87.55 281.28 97.25 286.93 106.94 275.64 106.94 264.34 106.94 269.99 97.25 275.64 87.55"/><circle class="cls-11" cx="288.15" cy="94" r="2.12"/><polyline class="cls-11" points="254.51 102.05 254.51 72.31 265.14 72.31"/><line class="cls-11" x1="254.51" y1="114.28" x2="254.51" y2="104.31"/><path class="cls-11" d="M262.37,126.69h-6.78a1.08,1.08,0,0,1-1.08-1.08V117"/><path class="cls-11" d="M274.44,72.31H301v53.3a1.08,1.08,0,0,1-1.08,1.08H265.1"/><polyline class="cls-49" points="296.08 102.28 296.08 113.86 286.3 113.86"/><polyline class="cls-11" points="273 76.68 297.14 76.68 297.14 114.8 259.02 114.8 259.02 76.68 262.41 76.68"/><line class="cls-3" x1="261.82" y1="119.87" x2="258.95" y2="123.82"/><line class="cls-3" x1="263.78" y1="119.16" x2="260.91" y2="123.11"/><line class="cls-3" x1="212.09" y1="98.67" x2="213.07" y2="103.46"/><line class="cls-3" x1="210.61" y1="97.21" x2="211.58" y2="102"/><line class="cls-13" x1="204.03" y1="162.74" x2="205.45" y2="167.42"/><line class="cls-13" x1="202.41" y1="161.43" x2="203.83" y2="166.11"/><line class="cls-3" x1="149.31" y1="80.01" x2="152.4" y2="83.79"/><line class="cls-3" x1="147.32" y1="79.41" x2="150.41" y2="83.2"/><line class="cls-3" x1="191.78" y1="226.76" x2="191.27" y2="231.62"/><line class="cls-3" x1="190.79" y1="224.92" x2="190.29" y2="229.78"/><line class="cls-3" x1="220.69" y1="216.04" x2="222.35" y2="220.64"/><line class="cls-3" x1="219.01" y1="214.82" x2="220.67" y2="219.41"/><path class="cls-33" d="M174.82,126.46s13.08,4.33,24.47,4.33"/><circle class="cls-37" cx="204.04" cy="4.68" r="0.45"/><circle class="cls-37" cx="197.05" cy="4.97" r="0.45"/><path class="cls-17" d="M79.63,136.38H7.14a1.72,1.72,0,0,1-1.73-1.73l-2-98.17a1.72,1.72,0,0,1,1.73-1.73H79.63a1.73,1.73,0,0,1,1.73,1.73v98.17A1.73,1.73,0,0,1,79.63,136.38Z"/><path class="cls-50" d="M5.32,34.63H79.73a1.49,1.49,0,0,1,1.49,1.49v.27a0,0,0,0,1,0,0H3.83a0,0,0,0,1,0,0v-.27A1.49,1.49,0,0,1,5.32,34.63Z"/><path class="cls-1" d="M76.58,133.77H10a1.51,1.51,0,0,1-1.51-1.51l-2-92.78A1.52,1.52,0,0,1,8,38H76.58a1.51,1.51,0,0,1,1.51,1.51v92.78A1.5,1.5,0,0,1,76.58,133.77Z"/><path class="cls-51" d="M23.23,37.85l-17,10.2.84,13.86L43.81,38S25.55,37.29,23.23,37.85Z"/><path class="cls-51" d="M57.08,37.85,6.88,66.55l.57,19.53,70.8-39.72.1-8.41S57.77,37.56,57.08,37.85Z"/><path class="cls-51" d="M52.46,133.47l26.36-20.71-.38-13.92L37.31,133.56S52.46,133.14,52.46,133.47Z"/><path class="cls-52" d="M3.83,71.91l3.05-2.68,1.35,57.65L5.41,129.7S3.83,72.29,3.83,71.91Z"/><path class="cls-52" d="M78.25,71l3-3v58.86l-2.82,2.82S78.25,71.41,78.25,71Z"/><path class="cls-53" d="M81.36,136.38H5.41l-2-99.9a1.72,1.72,0,0,1,1.73-1.73H79.63a1.73,1.73,0,0,1,1.73,1.73Z"/><polyline class="cls-7" points="45.57 52.33 19.09 53.85 22.2 105.15 68.57 102.5 65.46 51.2 54.84 51.8"/><polyline class="cls-17" points="45.2 56.74 23.71 57.97 25.89 93.02 63.52 90.87 61.34 55.82 52.73 56.31"/><polygon class="cls-48" points="45.95 91.45 37.42 91.94 48.39 56.77 56.92 56.28 45.95 91.45"/><polygon class="cls-48" points="34.88 92.08 31.92 92.18 42.89 57.01 45.85 56.91 34.88 92.08"/><polygon class="cls-48" points="29.67 92.38 26.7 92.48 37.67 57.31 40.64 57.21 29.67 92.38"/><path class="cls-9" d="M60.84,73.63h0a1.69,1.69,0,0,0,1.59-1.79l-.89-12.5a1.7,1.7,0,0,0-1.78-1.6h0a1.7,1.7,0,0,0-1.6,1.79L59.05,72A1.68,1.68,0,0,0,60.84,73.63Z"/><rect class="cls-9" x="31.02" y="44.98" width="3.7" height="20.66" rx="1.85" transform="translate(86.21 19.34) rotate(86.73)"/><rect class="cls-10" x="50.9" y="82.98" width="3.7" height="20.66" rx="1.85" transform="translate(142.89 35.33) rotate(86.73)"/><rect class="cls-10" x="33.45" y="91.9" width="3.7" height="20.66" rx="1.85" transform="translate(135.34 61.15) rotate(86.73)"/><polygon class="cls-9" points="42.29 64.49 37.32 74.55 32.35 84.61 43.62 83.83 54.89 83.06 48.59 73.78 42.29 64.49"/><polygon class="cls-11" points="42.53 64.21 37.44 74.22 32.36 84.22 43.63 83.57 54.91 82.93 48.72 73.57 42.53 64.21"/><circle class="cls-9" cx="49.81" cy="67.98" r="2.12"/><circle class="cls-11" cx="49.97" cy="67.56" r="2.12"/><polyline class="cls-11" points="67.16 77.89 65.46 51.2 51.85 51.98"/><line class="cls-54" x1="67.86" y1="90.1" x2="67.29" y2="80.14"/><path class="cls-11" d="M60.72,102.94l6.77-.38a1.1,1.1,0,0,0,1-1.15L68,92.83"/><path class="cls-11" d="M46.56,52.28,19.09,53.85l3,50.22a1.1,1.1,0,0,0,1.15,1l34.72-2"/><polyline class="cls-49" points="25.32 80.66 25.98 92.22 35.75 91.66"/><polyline class="cls-11" points="45.25 56.74 23.15 58 25.32 93.06 63.38 90.88 61.2 55.82"/><line class="cls-13" x1="28.04" y1="96.27" x2="25.39" y2="100.38"/><line class="cls-13" x1="29.96" y1="95.45" x2="27.31" y2="99.56"/><circle class="cls-51" cx="42.08" cy="60.43" r="1.51"/><circle class="cls-33" cx="42.11" cy="60.46" r="1.51"/><rect class="cls-9" x="23.54" y="109.84" width="42.54" height="17.13"/><line class="cls-11" x1="28.06" y1="114.7" x2="61.38" y2="114.7"/><line class="cls-11" x1="28.06" y1="118.36" x2="44.44" y2="118.36"/><line class="cls-11" x1="28.06" y1="122.02" x2="37.66" y2="122.02"/><polyline class="cls-55" points="29.38 126.97 23.54 126.97 23.54 109.84 66.08 109.84 66.08 126.97 33.52 126.97"/><rect class="cls-56" x="0.37" y="135.96" width="86.84" height="3.39"/><rect class="cls-57" x="0.37" y="135.96" width="86.84" height="1.37"/><line class="cls-58" x1="7.71" y1="139.35" x2="6.58" y2="139.35"/><line class="cls-58" x1="37.21" y1="139.35" x2="9.37" y2="139.35"/><line class="cls-59" x1="7.4" y1="137.44" x2="12.11" y2="137.44"/><line class="cls-59" x1="14.37" y1="137.44" x2="16.06" y2="137.44"/><rect class="cls-9" x="8.48" y="110.05" width="3.39" height="18.92" rx="1.69" transform="translate(20.36 239.01) rotate(-180)"/><rect class="cls-9" x="7.83" y="87.52" width="3.39" height="11.92" rx="1.69" transform="translate(22.08 186.59) rotate(178.13)"/><rect class="cls-8" x="74.93" y="74.55" width="3.39" height="11.92" rx="1.69" transform="translate(153.25 161.01) rotate(180)"/><rect class="cls-8" x="74.93" y="119.22" width="3.39" height="11.92" rx="1.69" transform="translate(153.25 250.37) rotate(-180)"/><rect class="cls-8" x="74.93" y="47.81" width="3.39" height="11.92" rx="1.69" transform="translate(153.25 107.53) rotate(180)"/><path class="cls-9" d="M7.18,37.49h0a2.69,2.69,0,0,1,2.69,2.69v5.53a1.69,1.69,0,0,1-1.69,1.69h0a1.69,1.69,0,0,1-1.69-1.69V38.19a.69.69,0,0,1,.69-.69Z" transform="translate(16.36 84.91) rotate(-180)"/><path class="cls-11" d="M77.3,133.61H9.47a1.29,1.29,0,0,1-1.29-1.29l-2-93.23a1.28,1.28,0,0,1,1.29-1.28H77.3a1.28,1.28,0,0,1,1.28,1.28v93.23A1.28,1.28,0,0,1,77.3,133.61Z"/><path class="cls-3" d="M.37,137.33c.3,0,3.22,0,3.22,0"/><rect class="cls-60" x="72.1" y="137.8" width="15.16" height="1.51" rx="0.75"/><path class="cls-58" d="M4.64,139.35h-4a.27.27,0,0,1-.28-.28v-2.84A.27.27,0,0,1,.65,136H86.93a.28.28,0,0,1,.28.27v2.84a.28.28,0,0,1-.28.28H40"/><path class="cls-61" d="M130.11,80.15s4.47,1.69,6.68-4.24"/><path class="cls-11" d="M125.71,72.73c0,4.65,2.74,8.42,6.12,8.42s6.11-3.77,6.11-8.42l-2-4.66s8.75-1.27,10.73-6.92"/><path class="cls-4" d="M128,68.07a7.12,7.12,0,0,1,3.85-2.72"/><path class="cls-11" d="M126.93,68.45a8.89,8.89,0,0,1,10.73-3.58"/><polyline class="cls-61" points="272.14 69.87 272.14 75.73 270.24 79.04"/><path class="cls-11" d="M261.35,67.58c.36-.29,3.46-3.53,3.46-3.53h3.38A4.69,4.69,0,0,1,272,66h0a4.66,4.66,0,0,1,.86,2.7v7.13L270.51,80a3.6,3.6,0,0,1-3.12,1.8h0a3.6,3.6,0,0,1-1.89-.53l-.4-.25a3.58,3.58,0,0,1-1.7-3V74.71"/></g></g></svg>