<svg xmlns="http://www.w3.org/2000/svg" viewBox="0 0 634 835.45"><defs><style>.cls-1,.cls-21{opacity:0.4;}.cls-2{fill:#dfeaf4;}.cls-3{fill:#d76852;}.cls-4{fill:#c6523e;}.cls-5{fill:#9b3c2c;}.cls-6{fill:#603131;}.cls-7{fill:#c0cf5a;}.cls-29,.cls-8{fill:none;stroke-linecap:round;}.cls-8{stroke:#96bc2e;stroke-linejoin:round;}.cls-9{fill:#fceeb7;}.cls-10{fill:#ffdd50;}.cls-11{fill:#ba4936;}.cls-12{fill:#fff;}.cls-13{opacity:0.25;}.cls-14{fill:#26ca40;}.cls-15{fill:#68bbea;}.cls-16{fill:#4fb0db;}.cls-17{fill:#ffcba6;}.cls-18,.cls-21{fill:#f9b78a;}.cls-19{fill:#e59a67;}.cls-20{fill:#35a6d8;}.cls-22{fill:#4296ba;}.cls-23{fill:#bdd4e5;}.cls-24{opacity:0.7;}.cls-25{fill:#7f4b4b;}.cls-26{fill:#82c9e8;}.cls-27{fill:#faca92;}.cls-28{fill:#3692ba;}.cls-29{stroke:#4296ba;stroke-miterlimit:10;stroke-width:2px;}.cls-30{fill:#ffe7d7;}</style></defs><title>Asset 1</title><g id="Layer_2" data-name="Layer 2"><g id="Layer_1-2" data-name="Layer 1"><g class="cls-1"><path class="cls-2" d="M215.17,697c5.75-19.12-8-39.37-25.23-49.44s-37.56-13.08-56.52-19.34C59,603.66,8,522.18,18.43,444.52c2.28-17,7.61-34.45,19.86-46.48,9.49-9.33,22.2-14.52,33.24-22C92,362.21,106.19,341,119.86,320.34s28-41.81,48.63-55.43,49.57-17.89,69.78-3.59c12.53,8.86,20.12,23.46,32.73,32.19,23.05,15.94,54.06,7.79,82.08,7.93,20,.1,39.81,4.81,58.64,11.61C472.33,334.94,525,380.2,551.83,438.79s26,130.08-5.8,186.1-95.29,93.78-159.67,91c-22.45-1-45.11-6.81-63.51-19.7"/></g><path class="cls-3" d="M398,724c6,68-38.84,110.5-96,110.5S198.5,782.16,198.5,725c0-6.28.56-46.36,1.63-52.21,8.69-47.33,51-45.29,101.87-45.29,52.56,0,66.35-46.43,73,3.5C375.58,635.37,397.6,719.42,398,724Z"/><path class="cls-4" d="M302,834.5c-57.16,0-103.5-52.34-103.5-109.5,0-1.44,0-4.65.09-8.82C200.77,771.69,246.24,821.5,302,821.5c51.78,0,93.44-34.87,96.37-92C401.53,794.3,357.59,834.5,302,834.5Z"/><path class="cls-5" d="M297,772.25V834a1.5,1.5,0,0,0,3,0V772.25a1.5,1.5,0,0,0-3,0Z"/><path class="cls-5" d="M281.07,759.5v27.22c0,3.76-.24,7.46,1.53,10.93,3.09,6.09,9.44,8.78,16,8.78a1.43,1.43,0,0,0,0-2.86c-7.55,0-14.32-4.35-14.68-12.4-.14-3.14,0-6.31,0-9.45V759.5a1.43,1.43,0,0,0-2.86,0Z"/><path class="cls-6" d="M286.85,666.67c-32.15,9.6-65,18.86-98.75,19.89-30.65.94-60.8-5.95-87.48-21.22a161.89,161.89,0,0,1-37.85-30c-2-2.12-5.16,1.07-3.18,3.19a166.82,166.82,0,0,0,73.21,45.59c31.47,9.55,64.6,8.26,96.58,2.1,19.86-3.83,39.31-9.4,58.67-15.18,2.76-.83,1.59-5.17-1.2-4.34Z"/><path class="cls-6" d="M58.92,684.55c10.65-9.93,26-15.82,40.51-14.95,1.92.12,1.92-2.88,0-3C84.14,665.69,68,672,56.8,682.43c-1.42,1.32.71,3.44,2.12,2.12Z"/><path class="cls-6" d="M91.73,697.73c10.65-9.94,26-15.82,40.51-15,1.92.11,1.92-2.89,0-3-15.29-.92-31.42,5.37-42.63,15.82-1.42,1.32.71,3.44,2.12,2.13Z"/><path class="cls-6" d="M154,706.51c10.4-10.19,25.6-16.47,40.12-16,1.93.07,1.92-2.93,0-3-15.31-.54-31.29,6.11-42.24,16.84-1.39,1.35.74,3.47,2.12,2.12Z"/><path class="cls-6" d="M155.39,641.5a63.45,63.45,0,0,0-8.75,44.4c.35,1.9,3.24,1.09,2.9-.8A60.38,60.38,0,0,1,158,643c1.05-1.63-1.55-3.14-2.59-1.51Z"/><ellipse class="cls-7" cx="48.21" cy="627.3" rx="21.5" ry="30.5" transform="translate(-518.27 353.57) rotate(-59.81)"/><path class="cls-8" d="M31.81,615.73h0a64.93,64.93,0,0,1,26.31,18.35l2.79,3.23"/><path class="cls-8" d="M34,630.61S32,621.56,39,619.1"/><path class="cls-8" d="M53.5,613.59s-9.18,1.26-9.12,8.63"/><path class="cls-8" d="M43.49,636.89s-1.94-9,5-11.51"/><ellipse class="cls-7" cx="161" cy="633.47" rx="30.5" ry="21.5" transform="translate(-454.47 413.47) rotate(-56.07)"/><path class="cls-8" d="M171.93,621.24h0a64.67,64.67,0,0,0-17.59,26.82l-1.38,4"/><path class="cls-8" d="M175.46,635.85s-1.57-9.13-8.93-8.82"/><path class="cls-8" d="M151,627.32s9-2.24,11.68,4.61"/><path class="cls-8" d="M169,645.22s-1.57-9.13-8.93-8.82"/><ellipse class="cls-7" cx="139.87" cy="722.51" rx="30.5" ry="21.5" transform="translate(-417.3 241.74) rotate(-38.25)"/><ellipse class="cls-7" cx="78.97" cy="708.73" rx="30.5" ry="21.5" transform="translate(-409.31 189) rotate(-36.85)"/><path class="cls-8" d="M69.58,721.85h0a64.82,64.82,0,0,1,20-25.07L93,694.2"/><path class="cls-8" d="M84.56,720.65S75.4,722,73.4,714.91"/><path class="cls-8" d="M68.83,700.07s.67,9.23,8,9.65"/><path class="cls-8" d="M91.44,711.56s-9.16,1.35-11.16-5.74"/><path class="cls-8" d="M129.72,736.55h0a64.78,64.78,0,0,1,20-25.08l3.41-2.57"/><path class="cls-8" d="M144.71,735.35s-9.16,1.35-11.17-5.74"/><path class="cls-8" d="M129,714.76s.67,9.24,8,9.66"/><path class="cls-8" d="M151.58,726.25s-9.16,1.35-11.16-5.73"/><polygon class="cls-9" points="106.46 156.22 105.09 163.81 60.73 155.51 62.09 147.93 106.46 156.22"/><polygon class="cls-9" points="194.6 78.48 186.94 79.34 182.18 34.46 189.83 33.59 194.6 78.48"/><circle class="cls-9" cx="197.63" cy="179.37" r="126.37"/><circle class="cls-10" cx="197.63" cy="179.37" r="95.55"/><rect class="cls-9" x="109.02" y="53.77" width="7.71" height="52.4" transform="translate(-25.33 73.97) rotate(-32.83)"/><rect class="cls-9" x="155.25" y="29.11" width="7.71" height="52.4" transform="translate(-9.23 61.36) rotate(-21.23)"/><rect class="cls-9" x="77.43" y="101.54" width="7.71" height="52.4" transform="translate(-66.71 159.73) rotate(-69.73)"/><polygon class="cls-9" points="123.57 119.34 119.21 125.69 82.15 99.93 86.51 93.58 123.57 119.34"/><polygon class="cls-9" points="151.98 95.38 145 98.64 126.17 57.62 133.15 54.36 151.98 95.38"/><circle class="cls-3" cx="527.5" cy="628.5" r="75.5"/><path class="cls-11" d="M594.51,621.45c2.59,27.76-11.83,54.8-36.93,67.36A67.39,67.39,0,1,1,533,561.33c32.11,2.56,57.94,28.33,61.55,60.12.16,1.42,2.41,1.44,2.25,0-3.25-28.55-23.51-52.94-51.51-60.29a69.63,69.63,0,1,0,2.54,134c31.65-9.61,52-40.92,49-73.66C596.63,620,594.38,620,594.51,621.45Z"/><circle class="cls-12" cx="527.5" cy="628.5" r="58.5"/><g class="cls-13"><path class="cls-3" d="M585.61,621.62a57.6,57.6,0,0,1,.31,6,58.51,58.51,0,0,0-115.81,11.71,57,57,0,0,1-.9-5.92,58.5,58.5,0,1,1,116.4-11.77Z"/></g><g class="cls-13"><circle class="cls-3" cx="529.59" cy="632.45" r="8.5"/></g><path class="cls-6" d="M492.92,607.3l36,27.44a1.51,1.51,0,0,0,2.26-1.3l-2.73-26.36c-.2-1.9-3.2-1.92-3,0l2.73,26.36,2.25-1.29-36-27.44c-1.54-1.17-3,1.43-1.52,2.59Z"/><rect class="cls-12" x="88.5" y="414.5" width="147" height="206" rx="13.61" transform="translate(-378.66 559.16) rotate(-77.02)"/><rect class="cls-2" x="122" y="451" width="5" height="77" transform="translate(-380.16 510.11) rotate(-78.07)"/><rect class="cls-2" x="120" y="462" width="5" height="77" transform="translate(-392.51 516.88) rotate(-78.07)"/><rect class="cls-2" x="118" y="473" width="5" height="77" transform="translate(-404.86 523.65) rotate(-78.07)"/><circle class="cls-3" cx="88.5" cy="439.5" r="3.5"/><circle class="cls-10" cx="98.5" cy="441.5" r="3.5"/><circle class="cls-14" cx="109.5" cy="444.5" r="3.5"/><path class="cls-2" d="M64.8,445.72l61.81,13.85,98.54,22.08,22.65,5.07c.94.21,1.34-1.23.4-1.44l-61.81-13.85L87.85,449.35,65.2,444.28c-.94-.21-1.34,1.23-.4,1.44Z"/><rect class="cls-12" x="354.5" y="383.5" width="206" height="147" rx="19.39" transform="translate(-139.19 207.76) rotate(-22.3)"/><rect class="cls-2" x="451.47" y="420.79" width="77" height="5" transform="translate(-120.12 206.41) rotate(-21.25)"/><rect class="cls-2" x="455.22" y="431.33" width="77" height="5" transform="translate(-123.68 208.49) rotate(-21.25)"/><rect class="cls-2" x="458.98" y="441.86" width="77" height="5" transform="translate(-127.24 210.56) rotate(-21.25)"/><path class="cls-2" d="M541.27,369,482.52,392.7l-93.66,37.75-21.53,8.67c-.88.36-.49,1.81.4,1.45l58.75-23.68,93.67-37.75,21.52-8.67c.89-.36.5-1.81-.4-1.45Z"/><path class="cls-15" d="M281.93,393.36C238.87,414.62,210.8,458.94,200,507s-11.08,97.17-5.54,146.22c4,35.34,10.9,74.37,38.35,95.89,18.7,14.66,42,21.1,65.33,23.92a157.41,157.41,0,0,0,50.66-2.65s26.31-2.6,41.93-32.75c7.15-12.22,9.65-26.69,11.63-40.84a793.64,793.64,0,0,0,3.47-190.63c-3-29.2-8.6-60.3-28.62-81.17-17.25-18-42.14-25.14-65.83-31.59"/><path class="cls-16" d="M402.36,696.79c-2,14.15-4.48,28.62-11.63,40.84-15.62,30.15-41.93,32.75-41.93,32.75A157.41,157.41,0,0,1,298.14,773c-23.3-2.82-46.63-9.26-65.33-23.92a74.4,74.4,0,0,1-17.13-19.29c17.28,11,37.63,16.25,58,18.71a157.41,157.41,0,0,0,50.66-2.65s26.31-2.6,41.93-32.75c7.15-12.22,9.65-26.69,11.63-40.84a793.64,793.64,0,0,0,3.47-190.63c-2.45-23.83-6.63-48.92-19-68.68a78.35,78.35,0,0,1,14.84,12c20,20.87,25.62,52,28.62,81.17A793.64,793.64,0,0,1,402.36,696.79Z"/><circle class="cls-17" cx="434.27" cy="764.69" r="36.04"/><path class="cls-15" d="M371.3,484.55c26.05,28.29,40.36,66,45.43,104.09s1.46,76.9-4.7,114.86c-1.86,11.5-3.62,24.47,3.42,33.74,6,7.94,16.6,10.55,26.35,12.58,8.15,1.69,17.24,3.18,24.3-1.24,8.31-5.19,10.27-16.25,11.23-26,5.07-52.05,3.78-105.21-9.66-155.75s-39.62-98.46-78.91-133C378.16,424.56,359,411,339,409"/><path class="cls-16" d="M383.56,485a6.12,6.12,0,0,1,4.58,2c24.89,28,38.64,64.84,43.59,102.05C436.8,627.22,433.19,666,427,704c-1.86,11.5-3.62,24.47,3.42,33.74,6,7.94,16.6,10.55,26.35,12.58,1.26.26,2.54.52,3.84.74-6.2,1.84-13.32.61-19.84-.74-9.75-2-20.34-4.64-26.35-12.58-7-9.27-5.28-22.24-3.42-33.74,6.16-38,9.77-76.73,4.7-114.86-4.5-33.83-16.28-67.32-37.08-94.2a6.16,6.16,0,0,1,4.91-9.89Z"/><path class="cls-17" d="M275.79,363,272,397.63c-.52,4.75-1,9.86,1.39,14,2.85,5,8.93,7.1,14.6,8.1a71.2,71.2,0,0,0,19.06.79,17.08,17.08,0,0,0,6.2-1.48c3.52-1.79,5.63-5.64,6.29-9.53s.08-7.88-.57-11.78a338.67,338.67,0,0,0-11.06-46.15"/><g class="cls-1"><path class="cls-18" d="M319.54,409.93c-.66,3.89-2.77,7.74-6.29,9.53a17.08,17.08,0,0,1-6.2,1.48,71.17,71.17,0,0,1-18.09-.63,50.76,50.76,0,0,0,3.87-4.33c14.18-17.67,19.58-41.85,15.07-64h0A338.67,338.67,0,0,1,319,398.15C319.62,402.05,320.2,406,319.54,409.93Z"/></g><ellipse class="cls-6" cx="212.5" cy="143" rx="27.5" ry="27"/><ellipse class="cls-6" cx="210.5" cy="118" rx="27.5" ry="27"/><path class="cls-6" d="M363.31,35.28a52.88,52.88,0,0,0-2-19.66c9.44,8.65,19,17.48,25.41,28.56s9.21,25,4.31,36.8"/><path class="cls-6" d="M342.69,31.05a52.83,52.83,0,0,0-8-18c11.67,5.25,23.54,10.63,33.08,19.15S384.32,53,383.37,65.74"/><path class="cls-6" d="M396.41,61.19a53,53,0,0,0,7.82-18.14c4,12.14,8.14,24.51,8.36,37.3s-4.07,26.31-14.09,34.26"/><path class="cls-6" d="M380.43,47.49a52.93,52.93,0,0,0,1.74-19.68c7.65,10.26,15.42,20.72,19.63,32.8s4.4,26.26-2.63,37"/><path class="cls-6" d="M244.54,41.29a71.47,71.47,0,0,0-23.91-11.84c16.66-4.6,33.63-9.25,50.9-8.63s35.2,7.35,45.21,21.43"/><path class="cls-6" d="M224.94,61.86C216.47,59,195.94,58.57,187,59c14.37-9.59,40.55-20.21,57.14-25s35.73-4.07,49.65,6.16"/><path class="cls-6" d="M297.92,22A71.45,71.45,0,0,0,282.75,0c16.8,4.05,33.89,8.23,48.69,17.15s27.22,23.5,29.14,40.67"/><path class="cls-6" d="M270.79,30.43a71.32,71.32,0,0,0-21.28-16.09c17.22-1.42,34.76-2.81,51.61,1s33.21,13.78,40.42,29.48"/><path class="cls-6" d="M424.62,113.91a47.42,47.42,0,0,0,9.09-15.12c2.13,11.22,4.27,22.66,2.93,34s-6.74,22.78-16.55,28.62"/><path class="cls-6" d="M409.85,87.15a47.47,47.47,0,0,0,5.83-16.65c4.37,10.56,8.79,21.32,9.78,32.69s-2,23.68-10.4,31.39"/><path class="cls-6" d="M434.48,150.11a47.23,47.23,0,0,0,15.27-8.81c-3.58,10.85-7.25,21.89-13.92,31.15s-16.95,16.66-28.37,17"/><path class="cls-6" d="M430.36,131.78a47.15,47.15,0,0,0,11.74-13.15c0,11.42,0,23.05-3.45,33.94s-10.87,21.13-21.61,25"/><path class="cls-17" d="M403.45,131.66c-6.94-20.87-20-40.25-38.81-51.68-18.11-11-40.41-13.89-61.36-10.24a123,123,0,0,0-44.63,12.12c-21.46,10.3-39.6,24.9-49.51,40.93-6.67,11.73-9,16.71-10.46,26.35-3.54,23.8,11.64,46.69,11.65,70.74,0,12.16-3.89,24-4.89,36.09-1.65,19.75,4.48,39.53,14,56.92s22.26,32.76,34.94,48c8,9.61,17.14,19.89,29.52,21.61,11.85,1.65,23.12-5.09,32.94-11.93,28.55-19.87,55.44-43.74,71.45-74.62,9.63-18.58,15-39.12,18.35-59.78a338,338,0,0,0,4-39.27C411.63,174.91,410.39,152.54,403.45,131.66Z"/><path class="cls-18" d="M410.66,196.88a336,336,0,0,1-4.05,39.28c-3.36,20.66-8.72,41.19-18.35,59.78-16,30.88-42.9,54.75-71.44,74.62-9.83,6.84-21.09,13.57-32.94,11.93a27,27,0,0,1-5.75-1.47c6.81-2.23,13.27-6.33,19.21-10.46,28.55-19.87,55.45-43.74,71.45-74.62,9.63-18.59,15-39.12,18.35-59.78a338.15,338.15,0,0,0,4-39.28c1-22-.27-44.35-7.21-65.22S364,91.41,345.16,80a82.07,82.07,0,0,0-34.52-11.24c18.72-1.86,38,1.5,54,11.24,18.79,11.44,31.87,30.81,38.81,51.69S411.63,174.91,410.66,196.88Z"/><path class="cls-12" d="M261.74,291.69s21.71,15.33,48,6C309.71,297.72,281.59,345.08,261.74,291.69Z"/><ellipse class="cls-6" cx="251.79" cy="223.44" rx="5.84" ry="9.78"/><ellipse class="cls-6" cx="322.16" cy="218.83" rx="5.84" ry="9.78"/><path class="cls-19" d="M288.2,221.7a46.7,46.7,0,0,1-5.52,21.08c-2.9,5.51-7.26,9.77-10.54,15-6.36,10.1,3.73,18.16,11.79,22.55,1.69.93,3.21-1.66,1.51-2.59-5.55-3-13.91-7.81-12.09-15.49,1.13-4.78,6.31-8.9,9-13a51.73,51.73,0,0,0,8.86-27.54,1.5,1.5,0,0,0-3,0Z"/><path class="cls-6" d="M304.24,199.81c7.74-1.31,15.76,0,23.14,2.66s14.17,6.75,20.7,11.12c.68.46,1.61.92,2.27.42s.39-1.72-.05-2.53a43.13,43.13,0,0,0-28.19-21.2c-5.67-1.25-12-1.21-16.79,2.08a8.08,8.08,0,0,0-3.18,3.76,4.38,4.38,0,0,0,.94,4.63,3,3,0,0,0,4.4-.33"/><path class="cls-6" d="M267.89,196.59c-7.73-1.37-15.76-.15-23.16,2.49s-14.22,6.64-20.78,11c-.69.45-1.62.91-2.28.41s-.37-1.73.07-2.54a43.13,43.13,0,0,1,28.36-21c5.67-1.2,12-1.11,16.76,2.21a8.08,8.08,0,0,1,3.15,3.79,4.35,4.35,0,0,1-1,4.62,3,3,0,0,1-4.4-.36"/><path class="cls-20" d="M45,255s11-32,72-35l9,55L83,303"/><circle class="cls-17" cx="69.27" cy="210.69" r="36.04"/><path class="cls-18" d="M105.3,210.69a36,36,0,0,1-67.18,18.15,36.05,36.05,0,0,0,49.29-49.29A36,36,0,0,1,105.3,210.69Z"/><path class="cls-15" d="M252,424c-57.8-51.77-111.74-129.54-134.67-203.68l.55.59c-12.58,26.16-44.55,41.31-72.77,34.49C73.94,342.29,143,429.63,227,466"/><path class="cls-18" d="M219.63,116c-6.12,8.14.22,27.58,9.89,30.77s20.16.42,30.21-1.25c17.35-2.89,36.27-9.39,53.44-5.53,13.44,3,28.17,10,31.47,23.33.74,3,.85,6.16,2.08,9,3.73,8.53,16.38,9.65,24.06,4.38s11.44-14.51,14.43-23.33L370.7,120.21l-51.78-18.8"/><path class="cls-6" d="M406.81,198.38a36.44,36.44,0,0,1-32.59,12.94c-3.82-.51-7.73-1.75-10.39-4.54-6-6.26-3.13-16.37-1.15-24.81,2.49-10.56,2.89-21.84-.53-32.13s-11-19.48-21.18-23.29c-16.31-6.1-34.72,2.35-51.82-.91-9.3-1.77-18.2-7-27.59-5.81-13.91,1.76-23.05,16.76-36.83,19.34-8.5,1.59-17-1.89-25-5.29,3.74-17-8.78-33.66-8.67-51.1.07-13.69,8.18-26.45,19.07-34.75S234.4,35.37,247.81,32.6A193.19,193.19,0,0,1,377.28,51.5c9.29,5,18.27,10.86,25.4,18.64,6.76,7.38,11.65,16.27,15.78,25.38,10.13,22.38,16,47.17,13.3,71.58-1.06,9.42-3.46,18.87-8.59,26.85s-13.24,14.35-22.61,15.84"/><ellipse class="cls-17" cx="404.49" cy="223.9" rx="39.74" ry="27.89" transform="translate(98.82 570.76) rotate(-77.58)"/><path class="cls-21" d="M431.73,229.9C427,251.34,411,266,395.94,262.71c-5.77-1.27-10.56-5-14-10.35a19.62,19.62,0,0,0,4,1.35C401,257,417,242.34,421.73,220.9c2.91-13.21.85-25.89-4.68-34.46C429.53,192.13,436,210.45,431.73,229.9Z"/><path class="cls-19" d="M389.83,236.83c3.17-12.47,11.14-30,27.23-25.83a1.5,1.5,0,0,0,.79-2.9c-17.77-4.57-27.3,13.73-30.91,27.94-.48,1.87,2.41,2.67,2.89.79Z"/><path class="cls-19" d="M397.4,217.45a25.6,25.6,0,0,1,8.51,13.39c.47,1.87,3.36,1.08,2.89-.8a28.24,28.24,0,0,0-9.28-14.71c-1.48-1.22-3.62.89-2.12,2.12Z"/><path class="cls-12" d="M211.48,153.61c.05-1.46.15-2.91.31-4.35a3,3,0,0,0-3-3,3.08,3.08,0,0,0-3,3c-.16,1.44-.26,2.89-.31,4.35a3,3,0,0,0,3,3,3.07,3.07,0,0,0,3-3Z"/><path class="cls-12" d="M215.15,174.13a55.72,55.72,0,0,1-2.86-9.79c-.75-3.79-6.53-2.18-5.79,1.59a56.33,56.33,0,0,0,2.86,9.79,3.08,3.08,0,0,0,3.69,2.1c1.43-.4,2.7-2.17,2.1-3.69Z"/><path class="cls-12" d="M218.66,506l2.7-10c1-3.74-4.78-5.33-5.78-1.6l-2.71,10c-1,3.73,4.78,5.33,5.79,1.6Z"/><path class="cls-12" d="M225.31,485.11l.29-.78a3,3,0,0,0-.3-2.31,3,3,0,0,0-5.48.72l-.29.77a3,3,0,0,0,.3,2.31,3,3,0,0,0,5.48-.71Z"/><path class="cls-22" d="M417.2,589.72l23.5-7.5c.92-.29.52-1.74-.4-1.44l-23.5,7.5c-.92.29-.52,1.74.4,1.44Z"/><path class="cls-22" d="M416.3,590.22l15,4a.75.75,0,0,0,.4-1.44l-15-4a.75.75,0,0,0-.4,1.44Z"/><circle class="cls-23" cx="576" cy="540" r="8"/><circle class="cls-23" cx="64" cy="414" r="8"/><circle class="cls-23" cx="22.5" cy="472.5" r="22.5"/><g class="cls-24"><circle class="cls-2" cx="430" cy="302" r="8"/><circle class="cls-2" cx="388.5" cy="360.5" r="22.5"/></g><circle class="cls-23" cx="611.5" cy="508.5" r="22.5"/><ellipse class="cls-25" cx="236.1" cy="69.6" rx="30" ry="17.89" transform="translate(19.94 187.34) rotate(-45)"/><circle class="cls-25" cx="278" cy="54" r="6"/><ellipse class="cls-25" cx="291" cy="30.5" rx="9" ry="8.5"/><ellipse class="cls-26" cx="229.67" cy="493.61" rx="30" ry="17.89" transform="translate(-310.15 564.28) rotate(-72.51)"/><circle class="cls-26" cx="235.18" cy="537.98" r="6"/><ellipse class="cls-26" cx="220.34" cy="560.36" rx="8.5" ry="9" transform="translate(-233.9 165.11) rotate(-27.51)"/><circle class="cls-27" cx="45.36" cy="340.85" r="14.5"/><circle class="cls-27" cx="16.85" cy="302.48" r="7.5"/><path class="cls-15" d="M576.9,220.58l-86.77-26.13a24.62,24.62,0,0,0-30.67,16.48l-12.69,42.13a24.61,24.61,0,0,0,16.47,30.67l8.84,2.66,3.17,23a6.53,6.53,0,0,0,11.27,3.54l16-17.37L550,309.86a24.61,24.61,0,0,0,30.67-16.47l12.69-42.14A24.62,24.62,0,0,0,576.9,220.58Z"/><path class="cls-5" d="M347.5,772.5c-.7,11.94,8,18.5,19.13,18.5H393a1.5,1.5,0,0,0,0-3H371.21c-2.47,0-5,.14-7.44,0-8.58-.48-13.77-7.07-13.27-15.5.11-1.93-2.89-1.92-3,0Z"/><path class="cls-5" d="M240.5,757.5c.5,8.42-4.66,15-13.27,15.5-2.46.14-5,0-7.44,0H198a1.5,1.5,0,0,0,0,3h26.37c11.14,0,19.83-6.55,19.13-18.5-.11-1.92-3.11-1.93-3,0Z"/><path class="cls-22" d="M214.6,458.5a201,201,0,0,1-43.17-26.64c-.74-.59-1.81.46-1.06,1.06a202.34,202.34,0,0,0,43.47,26.88c.87.39,1.64-.9.76-1.3Z"/><path class="cls-22" d="M397.75,526.5c3.74,49.66,3.5,100.57-2.54,150-2.3,18.84-5.62,37.68-11.43,55.79-.3.92,1.15,1.32,1.44.4,10.4-32.4,13.55-67.1,15.16-100.93,1.39-29.21,1.22-58.51-.13-87.72-.27-5.85-.56-11.71-1-17.55-.07-1-1.57-1-1.5,0Z"/><path class="cls-22" d="M59.78,265.7c5.08,15.77,12.66,31,20.54,45.49a366.85,366.85,0,0,0,70.76,92.36,321.71,321.71,0,0,0,67.69,48.78c.85.45,1.61-.84.76-1.3C151.33,414.34,97.77,352.14,67.39,281.2,65.16,276,63,270.71,61.22,265.3c-.29-.91-1.74-.52-1.44.4Z"/><path class="cls-22" d="M323.75,412.07c-1.1,11.69-19.2,13.73-28,13.41s-26.68-3.8-26.89-15.54a.52.52,0,0,0-1,0c.22,12.45,18.44,16.21,27.92,16.57s27.9-2,29.07-14.44c.06-.66-1-.66-1,0Z"/><path class="cls-22" d="M371,487c17.49,20.14,33.9,46.05,37.92,72.74.14,1,1.59.54,1.44-.4-2.7-18-11.26-34.68-21-49.81A203.19,203.19,0,0,0,372,486c-.63-.73-1.69.33-1.06,1.06Z"/><g class="cls-13"><rect class="cls-3" x="526" y="669" width="5" height="12"/></g><g class="cls-13"><rect class="cls-3" x="526" y="575" width="5" height="12"/></g><g class="cls-13"><rect class="cls-3" x="568" y="628" width="12" height="5"/></g><circle class="cls-28" cx="490.13" cy="241.21" r="10"/><circle class="cls-28" cx="516.5" cy="249" r="10"/><circle class="cls-28" cx="542.87" cy="256.79" r="10"/><path class="cls-12" d="M148,84.23c2.17-1.1,4.38-2.12,6.65-3a3.09,3.09,0,0,0,2.09-3.69c-.39-1.43-2.17-2.7-3.69-2.1-2.74,1.1-5.44,2.3-8.08,3.63-3.45,1.74-.41,6.92,3,5.18Z"/><path class="cls-12" d="M109.28,117.26c7-9.62,16.15-18.05,25.67-25,3.08-2.25.09-7.46-3-5.18-10.42,7.62-20.23,16.66-27.83,27.17-2.26,3.13,2.94,6.13,5.19,3Z"/><path class="cls-2" d="M449.67,340.5c-.31,6.62-5.31,12.17-12.17,12.17a12.17,12.17,0,0,1,0-24.34c6.85,0,11.86,5.56,12.17,12.17.12,2.34,3.77,2.35,3.66,0-.41-8.59-6.92-15.83-15.83-15.83a15.83,15.83,0,0,0,0,31.66c8.92,0,15.42-7.23,15.83-15.83C453.44,338.15,449.79,338.16,449.67,340.5Z"/><path class="cls-2" d="M36.67,527.5c-.31,6.62-5.31,12.17-12.17,12.17a12.17,12.17,0,0,1,0-24.34c6.85,0,11.86,5.56,12.17,12.17.12,2.34,3.77,2.35,3.66,0-.41-8.59-6.92-15.83-15.83-15.83a15.83,15.83,0,1,0,0,31.66c8.92,0,15.42-7.23,15.83-15.83C40.44,525.15,36.79,525.16,36.67,527.5Z"/><path class="cls-29" d="M222,728s72,65,152,14"/><ellipse class="cls-30" cx="54.5" cy="199" rx="16" ry="10.5" transform="translate(-134.46 116.15) rotate(-51.01)"/><circle class="cls-30" cx="79" cy="192" r="3"/></g></g></svg>