<?xml version="1.0" encoding="UTF-8"?>
<svg id="Layer_2" data-name="Layer 2" xmlns="http://www.w3.org/2000/svg" viewBox="0 0 126.83 169.56">
  <defs>
    <style>
      .cls-1 {
        fill: #f8d6a8;
      }

      .cls-2 {
        fill: #f2f2e7;
      }

      .cls-3 {
        fill: #fff;
      }

      .cls-4 {
        fill: #111;
      }

      .cls-5 {
        fill: #594753;
      }
    </style>
  </defs>
  <g id="Layer_2-2" data-name="Layer 2">
    <g>
      <path class="cls-2" d="M90.79,153.15c4.74,.93,9.71,.63,14.3-.86,1.05-.34,2.2-.84,2.62-1.87,.36-.87,.1-1.86-.17-2.76-2.21-7.32-4.76-14.55-7.63-21.65l6.11,13.01c4.08-1.76,8.16-3.52,12.23-5.28,1.46-.63,2.99-1.31,3.92-2.6,1.15-1.57,1.14-3.75,.55-5.6s-1.69-3.5-2.63-5.21c-1.46-2.64-3.55-7.48-4.25-10.42l-5.72,7.3c8.23-10.77,12-24.34,13.61-37.79,1.71-14.29,1.1-29.15-4.22-42.52-5.32-13.37-15.8-25.12-29.44-29.73-7.42-2.51-15.43-2.85-23.23-2.16-18.21,1.62-36.66,9.5-47.19,24.45-9.16,13.01-11.37,30.07-8.36,45.7,3,15.63,10.79,29.98,20.11,42.87l-4.09-6.03c-.99,4.38-1.69,8.83-2.08,13.3-.14,1.63-.23,3.36,.49,4.83,.97,1.99,3.16,3.03,5.23,3.8,4.13,1.52,8.46,2.49,12.84,2.89l3.49-14.14c-1.59,7.03-3.18,14.07-4.78,21.1-.22,.99-.43,2.1,.09,2.97,.35,.58,.96,.94,1.56,1.25,4.92,2.59,10.56,3.81,16.11,3.49l4.85-17.44c-2.26,9.85-4.53,19.69-6.79,29.54-.12,.51-.23,1.05-.04,1.54,.28,.7,1.07,1.01,1.79,1.23,9.37,2.86,19.62,2.76,28.93-.27,.47-.15,.97-.34,1.26-.74,.35-.48,.3-1.14,.24-1.74-1.08-9.62-2.95-19.15-5.6-28.45"/>
      <path class="cls-3" d="M19.65,44.99c4.88-13.22,16.03-24.12,29.33-28.74,1.53-.53,2.54-2.05,2.1-3.69-.41-1.49-2.15-2.63-3.69-2.1C31.93,15.83,19.53,28.05,13.87,43.39c-.56,1.52,.63,3.29,2.1,3.69,1.68,.46,3.13-.57,3.69-2.1h0Z"/>
      <path class="cls-1" d="M124.54,80.04c-1.6,13.46-5.38,27.03-13.61,37.8l5.72-7.3c.7,2.93,2.8,7.78,4.25,10.42,.94,1.7,2.04,3.35,2.63,5.21,.59,1.85,.59,4.02-.55,5.6-.94,1.28-2.47,1.97-3.93,2.6-4.07,1.76-8.15,3.52-12.23,5.28l-6.11-13.01c2.87,7.09,5.41,14.32,7.63,21.64,.27,.9,.53,1.89,.17,2.76-.43,1.03-1.57,1.53-2.62,1.87-4.59,1.49-9.57,1.78-14.3,.86l-5.86-18c2.65,9.31,4.52,18.84,5.6,28.46,.06,.59,.11,1.25-.24,1.73-.29,.4-.79,.59-1.26,.74-9.32,3.03-19.57,3.13-28.94,.27-.71-.22-1.51-.53-1.79-1.23-.19-.48-.08-1.03,.04-1.53,2.27-9.85,4.53-19.7,6.8-29.54l-4.86,17.44c-5.55,.33-11.19-.89-16.11-3.49-.6-.31-1.21-.67-1.56-1.25-.53-.87-.32-1.98-.1-2.97,1.6-7.03,3.19-14.07,4.78-21.1l-3.49,14.14c-4.38-.4-8.71-1.37-12.84-2.89-2.08-.76-4.26-1.81-5.23-3.79-.72-1.48-.64-3.2-.49-4.84,.39-4.44,1.08-8.87,2.06-13.22,1.33,2.02,2.71,4.01,4.12,5.96l-4.1-6.04s-.01,.05-.02,.08c-7.46-11.31-13.45-23.65-16-36.91-.27-1.38-1.51-5.01-.45-6.22,1.2-1.38,2.91,1.08,4.08,1.87,3.47,2.34,7.51,3.7,10.91,6.17,6.42,4.65,10.12,13.13,17.67,15.54,2.82,.9,5.86,.81,8.75,1.45,7.09,1.56,13.51,7.45,20.61,5.94,3.37-.71,6.22-3.04,9.59-3.79,2.57-.57,5.25-.18,7.88-.05,2.78,.15,5.64,0,8.23-1.02,5.03-1.97,8.24-6.78,11.72-10.91,2.03-2.4,4.41-4.68,7.27-6.06,1.36-.66,2.98-1.25,4.52-1.22,2.2,.04,1.91,.5,1.67,2.56Z"/>
      <g>
        <path class="cls-5" d="M88.23,100.62c-5.47-8.41-7.03-19.27-4.14-28.88,1.73-5.76,5.64-11.53,11.53-12.71,5.92-1.2,12,2.87,14.67,8.29,2.85,5.78,2.29,14.04,.32,20.05-1.55,4.72-4.97,9.09-9.73,10.51"/>
        <path class="cls-5" d="M64.53,100.62c5.47-8.41,7.03-19.27,4.14-28.88-1.73-5.76-5.64-11.53-11.53-12.71-5.92-1.2-12,2.87-14.67,8.29-5.09,10.34-1.8,30.4,11.88,32.36"/>
      </g>
      <g>
        <path class="cls-4" d="M2.25,11.01c3.76-2.76,7.81-5.11,12.07-7.01,.74-.33,.92-1.41,.54-2.05-.45-.76-1.31-.87-2.05-.54C8.54,3.31,4.5,5.66,.74,8.42c-.65,.48-.98,1.3-.54,2.05,.38,.64,1.4,1.02,2.05,.54h0Z"/>
        <path class="cls-4" d="M2.53,2.26c2.46,3.19,4.92,6.38,7.38,9.57,.48,.62,1.31,1.02,2.05,.54,.61-.39,1.05-1.39,.54-2.05C10.05,7.13,7.59,3.94,5.12,.75,4.65,.13,3.81-.27,3.07,.21c-.61,.39-1.05,1.39-.54,2.05h0Z"/>
      </g>
      <g>
        <path class="cls-4" d="M85.83,38.11c3.76-2.76,7.81-5.11,12.07-7.01,.74-.33,.92-1.41,.54-2.05-.45-.76-1.31-.87-2.05-.54-4.26,1.9-8.31,4.25-12.07,7.01-.65,.48-.98,1.3-.54,2.05,.38,.64,1.4,1.02,2.05,.54h0Z"/>
        <path class="cls-4" d="M86.11,29.37c2.46,3.19,4.92,6.38,7.38,9.57,.48,.62,1.31,1.02,2.05,.54,.61-.39,1.05-1.39,.54-2.05-2.46-3.19-4.92-6.38-7.38-9.57-.48-.62-1.31-1.02-2.05-.54-.61,.39-1.05,1.39-.54,2.05h0Z"/>
      </g>
      <g>
        <path class="cls-4" d="M68.61,114.18c4.83,3.63,9.67,7.25,14.5,10.88,.65,.49,1.68,.1,2.05-.54,.45-.77,.11-1.56-.54-2.05-4.83-3.63-9.67-7.25-14.5-10.88-.65-.49-1.68-.1-2.05,.54-.45,.77-.11,1.56,.54,2.05h0Z"/>
        <path class="cls-4" d="M74.18,125.77c2.53-6.08,5.63-11.91,9.22-17.43,1.05-1.62-1.54-3.13-2.59-1.51-3.73,5.75-6.89,11.82-9.52,18.15-.31,.75,.34,1.65,1.05,1.85,.86,.24,1.53-.3,1.85-1.05h0Z"/>
      </g>
      <path class="cls-4" d="M64.31,133.3c-1.6,6.94-3.19,13.88-4.79,20.82l-1.17,5.08c-.36,1.58-1.03,3.37-1.02,5,.01,3.13,4.17,3.64,6.48,4.16,6.31,1.41,12.84,1.56,19.21,.51,1.49-.24,2.96-.56,4.42-.94,1.38-.36,3.18-.65,4.27-1.62s1.01-2.42,.85-3.78c-.2-1.74-.43-3.47-.68-5.2-1.12-7.74-2.76-15.41-4.89-22.94-.52-1.85-3.42-1.07-2.89,.8,1.64,5.82,3,11.72,4.05,17.68,.52,2.97,.97,5.94,1.33,8.93,.05,.38,.42,1.8,.21,2.17-.22,.39-.9,.44-1.31,.57-1.44,.44-2.9,.81-4.38,1.11-5.48,1.11-11.22,1.23-16.73,.33-1.34-.22-2.67-.5-3.98-.83-.73-.18-1.47-.37-2.18-.61-.66-.22-.82-.22-.71-.92,.52-3.08,1.42-6.15,2.12-9.2,1.56-6.78,3.12-13.56,4.68-20.34,.43-1.88-2.46-2.68-2.89-.8h0Z"/>
      <path class="cls-4" d="M91.01,154.24c3.85,.72,7.74,.76,11.59,.03,3.04-.57,7.72-1.56,7.38-5.57-.16-1.91-1-3.86-1.58-5.67-.63-1.97-1.29-3.94-1.97-5.9-1.39-3.99-2.87-7.95-4.45-11.87-.71-1.77-3.62-1-2.89,.8,2.65,6.58,5.04,13.27,7.14,20.04,.36,1.16,1.44,3.11,.13,3.94-1.21,.77-2.95,1.02-4.33,1.29-3.36,.66-6.86,.64-10.22,.01-1.89-.35-2.7,2.54-.8,2.89h0Z"/>
      <path class="cls-4" d="M60.91,149.64c-3.25,.17-6.47-.15-9.6-1.02-1.57-.43-3.11-.98-4.58-1.68-.6-.28-1.54-.6-2.01-1.09s-.31-1.2-.18-1.83c1.49-7.12,3.21-14.19,4.82-21.29,.43-1.88-2.47-2.68-2.89-.8-.94,4.16-1.88,8.31-2.82,12.47-.47,2.08-.94,4.16-1.41,6.23-.38,1.67-1.07,3.56-.74,5.29,.31,1.63,1.54,2.52,2.93,3.23,1.68,.86,3.44,1.57,5.24,2.12,3.63,1.11,7.45,1.56,11.24,1.37,1.92-.1,1.93-3.1,0-3h0Z"/>
      <path class="cls-4" d="M44.42,134.97c-3.04-.29-6.05-.86-8.98-1.71-2.36-.68-5.54-1.4-7.22-3.35s-.83-5.67-.54-8.08c.4-3.29,.98-6.56,1.71-9.79,.42-1.88-2.47-2.68-2.89-.8-.82,3.65-1.44,7.35-1.87,11.06-.37,3.18-.96,6.77,1.24,9.44,1.91,2.32,5.14,3.29,7.9,4.13,3.47,1.07,7.04,1.73,10.65,2.07,1.92,.18,1.91-2.82,0-3h0Z"/>
      <path class="cls-4" d="M107.4,139.97c3.93-1.7,7.85-3.39,11.78-5.09,1.6-.69,3.25-1.39,4.43-2.72s1.66-2.97,1.63-4.65c-.06-3.63-2.4-6.56-3.94-9.67-1.38-2.76-2.63-5.67-3.38-8.68-.46-1.87-3.36-1.08-2.89,.8,.68,2.74,1.81,5.39,2.99,7.95,1.28,2.77,3.45,5.43,4.09,8.43,.31,1.46,.13,3.07-1.03,4.11s-2.88,1.6-4.32,2.22c-3.62,1.57-7.25,3.13-10.87,4.7-1.77,.76-.24,3.35,1.51,2.59h0Z"/>
      <path class="cls-4" d="M62.87,6.74c18.22-2.79,38.1,2.84,49.23,18.23,11.93,16.5,13.4,38.3,10.42,57.85-1.81,11.92-5.73,23.6-13.06,33.29-1.16,1.54,1.44,3.04,2.59,1.51,6.8-9,10.79-19.82,12.83-30.85,1.91-10.35,2.53-21.08,1.33-31.55s-4.22-20.62-9.93-29.44c-5.37-8.3-12.99-14.68-22.11-18.5-10.11-4.23-21.32-5.1-32.1-3.45-1.9,.29-1.09,3.18,.8,2.89h0Z"/>
      <path class="cls-4" d="M13.14,50.58c2.95-15.44,13.22-28.31,26.79-35.97,4.62-2.61,9.54-4.59,14.64-6.05,1.85-.53,1.06-3.43-.8-2.89-16.51,4.74-31.52,15.39-39.17,31.08-2.02,4.14-3.49,8.51-4.35,13.03-.36,1.89,2.53,2.69,2.89,.8h0Z"/>
      <path class="cls-4" d="M33.33,116.93c-9.77-13.54-17.93-28.77-20.44-45.46-.71-4.72-.88-9.51-.58-14.26,.12-1.93-2.88-1.92-3,0-1.11,17.34,4.75,34.18,13.41,48.99,2.47,4.22,5.17,8.29,8.02,12.25,1.12,1.55,3.72,.06,2.59-1.51h0Z"/>
      <g>
        <path class="cls-4" d="M89.52,99.86c-3.63-5.65-5.49-12.27-5.36-18.99,.12-6.04,1.76-12.8,6.15-17.21,2-2.01,4.6-3.37,7.48-3.35s5.72,1.38,7.85,3.32c4.75,4.33,5.59,10.92,4.91,17.01s-3.41,13.68-10.07,15.78c-1.83,.58-1.05,3.48,.8,2.89,6.82-2.15,10.45-8.72,11.77-15.36s1.08-14.81-3.49-20.53-12.02-8.03-18.29-4.3-8.88,10.98-9.77,17.64c-1.14,8.52,.8,17.36,5.45,24.6,1.04,1.62,3.64,.12,2.59-1.51h0Z"/>
        <path class="cls-4" d="M65.83,101.38c4.92-7.67,6.75-17.05,5.23-26.02-1.27-7.52-5.69-16.56-14.06-17.87-7.92-1.23-14.8,5-17.05,12.16-1.83,5.79-1.63,12.43,.23,18.19,2.09,6.46,6.76,12.21,13.79,13.28,1.89,.29,2.7-2.6,.8-2.89-11.07-1.69-14.37-15.44-12.63-24.88,1.11-6.05,5.14-12.22,11.76-12.97,7.65-.87,12.21,6.99,13.78,13.35,2.19,8.87,.5,18.46-4.43,26.13-1.05,1.63,1.55,3.14,2.59,1.51h0Z"/>
      </g>
      <path class="cls-4" d="M52.59,98.59c-4.3-4.31-5.55-10.83-5.45-16.91,.07-4.21,.71-8.47,2.41-12.33s4.55-7.29,8.3-9.22c-1.48-1.72-4.19-1.33-6.39-.79-1.74,.42-3.53,.87-5,1.89-1.69,1.18-2.8,3.02-3.63,4.9-2.14,4.82-2.74,10.22-2.47,15.48,.08,1.48,.22,2.98,.74,4.38,.37,1.01,.92,1.93,1.46,2.85,1.2,2.03,2.4,4.05,3.61,6.08"/>
      <path class="cls-4" d="M99.63,98.87c4.3-4.31,5.55-10.83,5.45-16.91-.07-4.21-.71-8.47-2.41-12.33-1.7-3.86-4.55-7.29-8.3-9.22,1.48-1.72,4.19-1.33,6.39-.79,1.74,.42,3.53,.87,5,1.89,1.69,1.18,2.8,3.02,3.63,4.9,2.14,4.82,2.74,10.22,2.47,15.48-.08,1.48-.22,2.98-.74,4.38-.37,1.01-.92,1.93-1.46,2.85-1.2,2.03-2.4,4.05-3.61,6.08"/>
      <path class="cls-3" d="M32.7,26.25c1.93,0,1.93-3,0-3s-1.93,3,0,3h0Z"/>
      <path class="cls-4" d="M28.53,38.67c2.03-4.96,5.81-9.12,10.48-11.71,1.27-.7,.13-2.65-1.14-1.94-5.22,2.89-9.26,7.54-11.52,13.05-.23,.56,.25,1.24,.79,1.38,.64,.18,1.15-.22,1.38-.79h0Z"/>
      <path class="cls-4" d="M35.34,36.75c.27-.5,.55-.99,.86-1.46,.16-.24,.33-.48,.5-.72,.08-.11,.16-.22,.25-.33s-.11,.14,.02-.03c.05-.06,.1-.12,.14-.18,.72-.89,1.53-1.72,2.41-2.46,.45-.38,.42-1.2,0-1.59-.48-.44-1.11-.41-1.59,0-1.85,1.56-3.4,3.5-4.54,5.64-.28,.52-.15,1.25,.4,1.54,.52,.28,1.24,.15,1.54-.4h0Z"/>
      <path class="cls-4" d="M43.33,28.23c1.45,0,1.45-2.25,0-2.25s-1.45,2.25,0,2.25h0Z"/>
    </g>
  </g>
</svg>