<svg xmlns="http://www.w3.org/2000/svg" viewBox="0 0 426.64 364.66"><defs><style>.cls-1{fill:#637582;}.cls-2{fill:#455760;}.cls-13,.cls-3{fill:#94a5af;}.cls-4{fill:#ecebeb;}.cls-12,.cls-5{fill:#3e3127;}.cls-21,.cls-6{fill:#fff;}.cls-7{fill:#ffc754;}.cls-8{fill:#a2fce2;}.cls-9{fill:#eba42c;}.cls-10{fill:#d38a20;}.cls-11{fill:#dbcec8;}.cls-12,.cls-21{opacity:0.5;}.cls-13{opacity:0.3;}.cls-14{fill:#81919b;}.cls-15{fill:#919fa8;}.cls-16{fill:#b7dbeb;}.cls-17{fill:#eff7f9;}.cls-18{fill:#d8d2d2;}.cls-19{fill:#e8aa46;}.cls-20{fill:#f4cda2;}.cls-22{fill:#fcdcbe;}</style></defs><title>Asset 26</title><g id="Layer_2" data-name="Layer 2"><g id="Layer_1-2" data-name="Layer 1"><path class="cls-1" d="M317.22,18.2h93.17a8.51,8.51,0,0,1,8.51,8.51V85.84a8.51,8.51,0,0,1-8.51,8.51H310.11a1.4,1.4,0,0,1-1.4-1.4V26.71a8.51,8.51,0,0,1,8.51-8.51Z" transform="translate(0.1 -0.62) rotate(0.1)"/><path class="cls-2" d="M417.8,28.27l-.1,60a8.07,8.07,0,0,1-8.09,8.06l-53.86-.09c17.66-20.72,26-57.94,29.14-76.11l24.85,0A8.07,8.07,0,0,1,417.8,28.27Z"/><rect class="cls-3" x="308.31" y="30.13" width="3.47" height="63.75" transform="translate(0.11 -0.52) rotate(0.1)"/><path class="cls-4" d="M417,24.07v6.59l-110.2-.19V23.89a3.67,3.67,0,0,1,3.81-3.48l102.61.18A3.63,3.63,0,0,1,417,24.07Z"/><circle class="cls-5" cx="315.64" cy="25.2" r="1.11"/><circle class="cls-5" cx="320.18" cy="25.21" r="1.11"/><circle class="cls-5" cx="324.72" cy="25.22" r="1.11"/><polygon class="cls-6" points="373.47 20.66 367.55 30.72 360.77 30.71 366.7 20.64 373.47 20.66"/><polygon class="cls-6" points="389.32 20.68 383.4 30.75 376.61 30.73 382.54 20.67 389.32 20.68"/><path class="cls-5" d="M413.23,97.29h0l-102.05-.17a5.79,5.79,0,0,1-5.76-5.78l.12-68a5.75,5.75,0,0,1,5.77-5.76h0l102.05.17a5.79,5.79,0,0,1,5.76,5.78l-.12,68a5.77,5.77,0,0,1-5.77,5.76ZM311.3,21a2.34,2.34,0,0,0-1.68.69,2.37,2.37,0,0,0-.7,1.68l-.12,68a2.39,2.39,0,0,0,2.38,2.38l102.05.18h0a2.39,2.39,0,0,0,2.38-2.38l.11-68a2.37,2.37,0,0,0-2.37-2.38L311.3,21Z"/><rect class="cls-5" x="361.58" y="-25.08" width="2.04" height="110.77" transform="translate(331.67 392.86) rotate(-89.9)"/><path class="cls-7" d="M368.23,40.54h0l-48.9-.08a1,1,0,1,1,0-2h0l48.91.08a1,1,0,0,1,0,2Z"/><path class="cls-8" d="M346.67,48.86h0l-27.36,0a1,1,0,1,1,0-2h0l27.37,0a1,1,0,0,1,0,2Z"/><path class="cls-6" d="M351.69,57.22h0l-32.39,0a1,1,0,0,1,0-2h0l32.39.06a1,1,0,0,1,0,2Z"/><path class="cls-6" d="M358.6,48.88h-3.67a1,1,0,1,1,0-2h3.68a1,1,0,0,1,0,2Z"/><path class="cls-7" d="M366.49,57.25h0l-7.27,0a1,1,0,1,1,0-2h7.27a1,1,0,0,1,0,2Z"/><rect class="cls-1" x="150.44" y="177.43" width="104.34" height="31.62" rx="15.81"/><path class="cls-3" d="M173.3,209.37H167a15.93,15.93,0,1,1,0-31.86h6.29a15.93,15.93,0,1,0,0,31.86Z"/><path class="cls-2" d="M254,193.07a14.72,14.72,0,0,1-14.7,14.71h-39c7.5-9.39,8.54-20.4,7.51-29.42h31.45A14.71,14.71,0,0,1,254,193.07Z"/><circle class="cls-2" cx="205.15" cy="198.93" r="6.12"/><circle class="cls-2" cx="194.26" cy="193.79" r="2.73"/><circle class="cls-9" cx="174.06" cy="193.04" r="10.86"/><path class="cls-10" d="M175.19,181.42c8.7,0,15,10.23,7.57,19.3-4.06,2.58-7.93,3-11.17,1.81a10.87,10.87,0,0,0,0-20.5A10.76,10.76,0,0,1,175.19,181.42Z"/><path class="cls-5" d="M174.44,205.26A12.22,12.22,0,1,1,186.65,193,12.23,12.23,0,0,1,174.44,205.26Zm0-21.72a9.51,9.51,0,1,0,9.5,9.5A9.51,9.51,0,0,0,174.44,183.54Z"/><path class="cls-5" d="M239.29,210.43H166.57a17.51,17.51,0,1,1,0-35h72.72a17.51,17.51,0,1,1,0,35Zm-72.72-31.62a14.12,14.12,0,1,0,0,28.23h72.72a14.12,14.12,0,0,0,0-28.23Z"/><path class="cls-6" d="M159.42,86.81l3.86,14.79a1.21,1.21,0,0,0,1.47.86L209.47,90.8a1.21,1.21,0,0,0,.86-1.48h0a1.2,1.2,0,0,0-1.2-.91c-13.23.48-32.61,7.73-47.84-2.89A1.21,1.21,0,0,0,159.42,86.81Z"/><rect class="cls-6" x="154.46" y="31.62" width="48.63" height="66.08" rx="1.3" transform="translate(368.08 82.11) rotate(165.38)"/><circle class="cls-6" cx="175.78" cy="84.43" r="1.12"/><circle class="cls-6" cx="170.21" cy="87.99" r="3.16"/><path class="cls-11" d="M159.42,86.81l3.86,14.79a1.21,1.21,0,0,0,1.47.86L209.47,90.8a1.21,1.21,0,0,0,.86-1.48h0a1.2,1.2,0,0,0-1.2-.91c-13.23.48-32.61,7.73-47.84-2.89A1.21,1.21,0,0,0,159.42,86.81Z"/><path class="cls-5" d="M164.22,104.27a2.58,2.58,0,0,1-2.5-1.93L145.49,40.11a2.59,2.59,0,0,1,.27-2A2.61,2.61,0,0,1,147.33,37l45.35-11.82a2.52,2.52,0,0,1,1.95.27A2.49,2.49,0,0,1,195.82,27l16.24,62.23a2.6,2.6,0,0,1-.27,2,2.53,2.53,0,0,1-1.58,1.19l-45.35,11.83A2.35,2.35,0,0,1,164.22,104.27ZM164,100.9ZM149,40l15.82,60.65,43.77-11.41L192.75,28.62Z"/><circle class="cls-11" cx="175.83" cy="84.35" r="1.06"/><circle class="cls-11" cx="170.58" cy="87.7" r="2.98"/><rect class="cls-5" x="161.75" y="43.09" width="27.38" height="2.04" transform="translate(-5.45 45.38) rotate(-14.52)"/><rect class="cls-12" x="178.04" y="46.44" width="12.52" height="2.04" transform="translate(-5.99 44.31) rotate(-13.49)"/><path class="cls-6" d="M211.3,60.13h-.1l-3.46-.31a1,1,0,0,1,.19-2l3.46.31a1,1,0,0,1-.09,2Z"/><polygon class="cls-6" points="249.09 85.64 249.09 21.02 186.22 21.02 186.22 100.31 234.76 100.31 249.09 85.64"/><polygon class="cls-5" points="259.8 101.31 243.94 101.31 243.94 98.59 257.08 98.59 257.08 21.9 255.3 21.9 255.3 19.19 259.8 19.19 259.8 101.31"/><polygon class="cls-11" points="248.3 19.83 248.3 84.45 233.96 99.12 225.06 99.12 243.04 81.14 243.04 19.83 248.3 19.83"/><circle class="cls-11" cx="242.52" cy="38.28" r="3.52"/><circle class="cls-11" cx="236.25" cy="35.34" r="1.57"/><path class="cls-5" d="M235.73,101.48H184.79V18.8h66.26v67Zm-47.55-3.39h46.13l13.35-13.67V22.19H188.18Z"/><path class="cls-5" d="M203.26,43.52a7.72,7.72,0,0,1-7.7-7.7V31.19h2.72v4.63a5,5,0,1,0,10,0V19a5.71,5.71,0,0,0-11.42,0v1.26h-2.72V19A8.43,8.43,0,0,1,211,19V35.82A7.71,7.71,0,0,1,203.26,43.52Z"/><rect class="cls-5" x="197.98" y="52.09" width="33.03" height="2.71"/><rect class="cls-5" x="197.98" y="58.89" width="16.07" height="2.71"/><rect class="cls-5" x="197.98" y="65.61" width="27.61" height="2.71"/><rect class="cls-1" x="2.09" y="13.25" width="74.82" height="7.5" rx="3.75"/><path class="cls-2" d="M76.52,17.82a3.76,3.76,0,0,1-3.75,3.75H60.11a3.76,3.76,0,0,0,3.75-3.75,3.75,3.75,0,0,0-3.75-3.75H72.77A3.75,3.75,0,0,1,76.52,17.82Z"/><path class="cls-6" d="M82.43,33.11a11.13,11.13,0,0,1-5.82,9.78l-63.9.65A11.12,11.12,0,0,1,18,22.64H67.56A11.12,11.12,0,0,1,82.43,33.11Z"/><path class="cls-6" d="M17.19,44.28l-4.31,0a11.12,11.12,0,0,1,5.3-20.9h4.39a11.12,11.12,0,0,0-5.38,20.86Z"/><path class="cls-11" d="M83.72,32.85a11.11,11.11,0,0,1-5.82,9.78l-25.32.26a11.12,11.12,0,0,1,6-20.5H76.37A11.11,11.11,0,0,1,83.72,32.85Z"/><path class="cls-1" d="M41.68,112h30.1a.5.5,0,0,0,.49-.44l6.65-67.08L80.83,44H6.88l4,.53,6.65,67.08A.48.48,0,0,0,18,112h30.1"/><path class="cls-3" d="M22,113.12H18a.49.49,0,0,1-.48-.44L10.86,45.6l-4-.53h4l4,.53,6.65,67.08A.48.48,0,0,0,22,113.12Z"/><path class="cls-2" d="M79.62,44.9l-1.9.54-6.66,67.08a.49.49,0,0,1-.48.44H50.21C63.47,93.54,67.36,58.29,68.39,44.9Z"/><ellipse class="cls-2" cx="68.33" cy="55.54" rx="2.77" ry="3.24" transform="translate(-16.91 33.45) rotate(-24.58)"/><ellipse class="cls-2" cx="63.1" cy="52.59" rx="1.24" ry="1.44" transform="translate(-16.16 31.01) rotate(-24.58)"/><circle class="cls-2" cx="63.37" cy="17.68" r="1.04"/><circle class="cls-2" cx="61.51" cy="16.8" r="0.47"/><circle class="cls-11" cx="46.4" cy="31.26" r="4.51"/><circle class="cls-11" cx="37.95" cy="33.99" r="2.01"/><path class="cls-2" d="M36.75,105a1.56,1.56,0,0,1-1.56-1.41l-4.86-49a1.57,1.57,0,1,1,3.13-.31l4.86,49A1.58,1.58,0,0,1,36.91,105Z"/><path class="cls-13" d="M31.87,104.87a1,1,0,0,1-1-.91L26,55a1,1,0,1,1,2-.2l4.86,49a1,1,0,0,1-.91,1.12Z"/><path class="cls-5" d="M55,104.77h-.14a1.35,1.35,0,0,1-1.21-1.48l4.86-49a1.36,1.36,0,1,1,2.7.27l-4.86,49A1.36,1.36,0,0,1,55,104.77Z"/><path class="cls-5" d="M47.89,113.81H20.79a5.48,5.48,0,0,1-5.47-5L9,44.76a1.7,1.7,0,0,1,3.38-.33l6.36,64.09a2.09,2.09,0,0,0,2.09,1.9h27.1a1.7,1.7,0,1,1,0,3.39Z"/><path class="cls-5" d="M68.56,113.81H41.46a1.7,1.7,0,0,1,0-3.39h27.1a2.11,2.11,0,0,0,2.1-1.9L77,44.43a1.69,1.69,0,0,1,3.37.33L74,108.85A5.48,5.48,0,0,1,68.56,113.81Z"/><path class="cls-5" d="M72.77,23H5.45a5.45,5.45,0,0,1,0-10.9H72.77a5.45,5.45,0,1,1,0,10.9ZM5.45,15.51a2.06,2.06,0,1,0,0,4.11H72.77a2.06,2.06,0,0,0,0-4.11Z"/><path class="cls-5" d="M27.62,13.83a1.36,1.36,0,0,1-1.36-1.36v-5A7.49,7.49,0,0,1,33.74,0h8.8A7.48,7.48,0,0,1,50,7.47v.29a1.36,1.36,0,1,1-2.71,0V7.47a4.76,4.76,0,0,0-4.76-4.76h-8.8A4.76,4.76,0,0,0,29,7.47v5A1.36,1.36,0,0,1,27.62,13.83Z"/><path class="cls-5" d="M44.68,103.56a1.36,1.36,0,0,1-1.36-1.36V53.77a1.36,1.36,0,0,1,2.71,0V102.2A1.35,1.35,0,0,1,44.68,103.56Z"/><path class="cls-5" d="M13.22,45.42a1.33,1.33,0,0,1-.64-.17A12.48,12.48,0,1,1,31,34.28a1.36,1.36,0,0,1-2.72,0,9.76,9.76,0,1,0-14.41,8.59,1.36,1.36,0,0,1,.55,1.84A1.38,1.38,0,0,1,13.22,45.42Z"/><path class="cls-5" d="M77.13,44.76a1.38,1.38,0,0,1-1.2-.71,1.36,1.36,0,0,1,.55-1.84,9.76,9.76,0,1,0-14.41-8.59,1.36,1.36,0,0,1-2.72,0,12.48,12.48,0,1,1,18.42,11A1.32,1.32,0,0,1,77.13,44.76Z"/><path class="cls-5" d="M34.42,104.77a1.36,1.36,0,0,1-1.35-1.22l-4.86-49a1.36,1.36,0,1,1,2.7-.27l4.86,49a1.36,1.36,0,0,1-1.22,1.48Z"/><path class="cls-5" d="M17.11,39.26a1,1,0,0,1-.47-.12,5.94,5.94,0,0,1-2.93-5.33A5.87,5.87,0,0,1,17,28.32a1,1,0,1,1,.79,1.88,3.87,3.87,0,0,0-2,3.61,4,4,0,0,0,1.84,3.53,1,1,0,0,1-.47,1.92Z"/><path class="cls-2" d="M22.78,45.82H70.44a0,0,0,0,1,0,0V49a0,0,0,0,1,0,0H26a3.21,3.21,0,0,1-3.21-3.21v0a0,0,0,0,1,0,0Z"/><path class="cls-5" d="M80.61,45.76H6.66a1.7,1.7,0,0,1,0-3.4h74a1.7,1.7,0,0,1,0,3.4Z"/><path class="cls-6" d="M106,174.22v39.83a5.46,5.46,0,0,1-5.46,5.45H90.43l-5.19,8.15a.71.71,0,0,1-1.21,0l-4.85-8.14H35.27a5.45,5.45,0,0,1-5.45-5.45V174.23a5.46,5.46,0,0,1,5.46-5.46h65.23A5.46,5.46,0,0,1,106,174.22Z"/><path class="cls-11" d="M81.73,199.69v-30.3l-4.47-.5-2.28,39-2.88,1.49-2.38.4-5-.15,1.27.27-8.63-1.8-21.56.7a2.54,2.54,0,0,1-2.54-2.54V163.48a5.38,5.38,0,0,1,.28-1.71A5.46,5.46,0,0,0,29.64,167v39.82a5.47,5.47,0,0,0,5.46,5.46H45.76l15.87-.06,5.55.06h6.57c2.57,0,6.7,0,8-2.26S81.73,203.44,81.73,199.69Z"/><circle class="cls-11" cx="36.96" cy="207.97" r="3.52"/><circle class="cls-11" cx="43.23" cy="205.03" r="1.57"/><circle class="cls-11" cx="75.47" cy="207.38" r="1.21"/><path class="cls-5" d="M99.2,184.18H41.46a1,1,0,0,1,0-2H99.2a1,1,0,0,1,0,2Z"/><path class="cls-5" d="M99.2,193.42H77.43a1,1,0,0,1,0-2H99.2a1,1,0,0,1,0,2Z"/><path class="cls-5" d="M99.2,202.65H66.57a1,1,0,0,1,0-2H99.2a1,1,0,0,1,0,2Z"/><path class="cls-5" d="M85,231.45l-6.35-10.64h-45a5.1,5.1,0,0,1-5.09-5.09V173.83a7.16,7.16,0,0,1,7.16-7.15H103a5.09,5.09,0,0,1,5.09,5.09v43.95a5.1,5.1,0,0,1-5.09,5.09H91.75ZM35.68,170.07a3.77,3.77,0,0,0-3.77,3.76v41.89a1.7,1.7,0,0,0,1.7,1.69H80.54L85.06,225l4.83-7.58H103a1.7,1.7,0,0,0,1.7-1.69V171.77a1.7,1.7,0,0,0-1.7-1.7Z"/><path class="cls-6" d="M2.09,164.11v39.83a5.46,5.46,0,0,0,5.46,5.45H17.63l5.19,8.15a.7.7,0,0,0,1.2,0l4.86-8.13h43.9a5.46,5.46,0,0,0,5.46-5.45V164.12a5.46,5.46,0,0,0-5.46-5.46H7.55A5.45,5.45,0,0,0,2.09,164.11Z"/><path class="cls-11" d="M36.93,204.69h34a2.54,2.54,0,0,0,2.54-2.54V159.41h0a.93.93,0,0,1,1.49-.78,5.44,5.44,0,0,1,2.11,4.3v44.35a.94.94,0,0,1-.94.93H60.91l-15.87,0-5.55,0H29.41"/><circle class="cls-11" cx="71.1" cy="201.94" r="3.52"/><circle class="cls-11" cx="64.83" cy="198.99" r="1.57"/><circle class="cls-11" cx="37.44" cy="203.61" r="2.72"/><circle class="cls-11" cx="32.59" cy="201.34" r="1.21"/><path class="cls-5" d="M66.59,174.07H8.86a1,1,0,1,1,0-2H66.59a1,1,0,1,1,0,2Z"/><path class="cls-5" d="M30.63,183.31H8.86a1,1,0,1,1,0-2H30.63a1,1,0,0,1,0,2Z"/><path class="cls-5" d="M41.49,192.54H8.86a1,1,0,1,1,0-2H41.49a1,1,0,1,1,0,2Z"/><path class="cls-5" d="M23.09,221.34l-6.78-10.65H2.63A2.63,2.63,0,0,1,0,208.06V159.2a2.63,2.63,0,0,1,2.63-2.63H76.91a2.63,2.63,0,0,1,2.63,2.63v48.86a2.63,2.63,0,0,1-2.63,2.63H29.44Zm-19.7-14H16.72a2.61,2.61,0,0,1,2.22,1.22l4,6.36,3.76-6.3A2.64,2.64,0,0,1,29,207.3H76.14V160H3.39Z"/><path class="cls-6" d="M221.56,356.25H186.49a2.54,2.54,0,0,1-2.53-2.39L180,284.27h48l-3.94,69.59A2.54,2.54,0,0,1,221.56,356.25Z"/><path class="cls-11" d="M227,282.24l-3.94,69.58a2.53,2.53,0,0,1-2.53,2.39H201.72c16.11-26.37,15.77-66.73,1.53-72Z"/><circle class="cls-11" cx="213.1" cy="304.69" r="4.51"/><circle class="cls-11" cx="205.05" cy="300.92" r="2.01"/><polygon class="cls-1" points="224.53 331.66 183.07 331.66 182.01 313.01 225.59 313.01 224.53 331.66"/><polygon class="cls-14" points="187.78 332.17 183.81 332.17 182.35 313.52 186.32 313.52 187.78 332.17"/><path class="cls-2" d="M225.1,313.35,224,332H210.83a92.35,92.35,0,0,0,2.79-18.65Z"/><rect class="cls-5" x="181.89" y="312.33" width="45.1" height="2.04"/><rect class="cls-5" x="181.89" y="330.98" width="43.36" height="2.04"/><path class="cls-5" d="M221.39,356.08H186.32a4.23,4.23,0,0,1-4.22-4l-4-71.38h51.59l-4,71.38A4.22,4.22,0,0,1,221.39,356.08Zm-39.74-72,3.84,67.8a.83.83,0,0,0,.83.79h35.07a.85.85,0,0,0,.84-.79l3.83-67.8Z"/><path class="cls-2" d="M184.94,275.32l1.22-6.31a3.88,3.88,0,0,1,4.05-3.15l29.06,1.78a3.88,3.88,0,0,1,3.65,3.88V276"/><path class="cls-5" d="M224.79,276h-3.4v-4.48a2.19,2.19,0,0,0-2.06-2.19l-29.05-1.77a2.19,2.19,0,0,0-2.29,1.77l-1.22,6.31-3.33-.64,1.22-6.31a5.59,5.59,0,0,1,5.83-4.52l29,1.77a5.6,5.6,0,0,1,5.25,5.58Z"/><path class="cls-1" d="M230.89,283.63H176a.68.68,0,0,1-.68-.68v-1.06a8.65,8.65,0,0,1,8.65-8.65h38.91a8.65,8.65,0,0,1,8.65,8.65V283A.69.69,0,0,1,230.89,283.63Z"/><path class="cls-14" d="M229.83,278.6a8.56,8.56,0,0,0-4.64-1.36H186.27a8.66,8.66,0,0,0-8.6,7.77h-2a.69.69,0,0,1-.68-.68v-1.06a8.66,8.66,0,0,1,8.66-8.65h38.91A8.62,8.62,0,0,1,229.83,278.6Z"/><path class="cls-5" d="M231.28,285.72H176.43a2.38,2.38,0,0,1-2.37-2.38v-1.06a10.36,10.36,0,0,1,10.34-10.35h38.91a10.36,10.36,0,0,1,10.35,10.35v1.06A2.39,2.39,0,0,1,231.28,285.72Zm-53.83-3.4h52.81v0a7,7,0,0,0-6.95-6.95H184.4a7,7,0,0,0-7,6.95Z"/><circle class="cls-14" cx="184.3" cy="278.54" r="1.74"/><circle class="cls-14" cx="187.93" cy="279.87" r="1.04"/><path class="cls-15" d="M207.72,326.52c-1.54,1.09-4,1-6.18-.33-2.66-1.67-3.78-4.65-2.52-6.67,0,0,.07-.11.11-.15a4.4,4.4,0,0,0,.53,1,5.12,5.12,0,0,0,2.15,1.81,5.17,5.17,0,0,0,1.63.44,7.55,7.55,0,0,1,1.48.23,3.92,3.92,0,0,1,1.9,1.89C207.15,325.36,207.43,326,207.72,326.52Z"/><path class="cls-15" d="M209,325.14l-.2.27c-.18-.47-.37-1-.65-1.58a5.91,5.91,0,0,0-.9-1.4,3.81,3.81,0,0,0-1.58-1.1,7.25,7.25,0,0,0-1.75-.28,4.19,4.19,0,0,1-1.33-.28,5.09,5.09,0,0,1-1.91-1.31,5.63,5.63,0,0,1-.74-1c1.49-1.38,4.21-1.42,6.54,0C209.11,320.14,210.24,323.12,209,325.14Z"/><rect class="cls-16" x="173.75" y="352.59" width="57.65" height="9.36" rx="4.68"/><path class="cls-17" d="M230.89,358.12a4.42,4.42,0,0,0-1.71-.33h-48.3a4.66,4.66,0,0,0-4.67,4.67,4.52,4.52,0,0,0,.33,1.73,4.68,4.68,0,0,1,1.71-9h48.3A4.65,4.65,0,0,1,230.89,358.12Z"/><path class="cls-5" d="M227.06,364.66H178.77a6.38,6.38,0,1,1,0-12.75h48.29a6.38,6.38,0,0,1,0,12.75Zm-48.29-9.35a3,3,0,1,0,0,6h48.29a3,3,0,1,0,0-6Z"/><rect class="cls-4" x="11.42" y="313.77" width="82.04" height="17.72"/><rect class="cls-18" x="12.06" y="320.14" width="80.44" height="3.42"/><path class="cls-4" d="M15.67,268.53h0a3.72,3.72,0,0,1,3.72,3.72v13.18a0,0,0,0,1,0,0H12a0,0,0,0,1,0,0V272.25A3.72,3.72,0,0,1,15.67,268.53Z"/><rect class="cls-1" x="2.35" y="285.43" width="101.49" height="34.69" rx="5"/><path class="cls-3" d="M9.16,320.13H4.91a3.29,3.29,0,0,1-3-3.49V288.91a3.28,3.28,0,0,1,3-3.48H9.16a3.28,3.28,0,0,0-3,3.48v27.73A3.29,3.29,0,0,0,9.16,320.13Z"/><path class="cls-2" d="M102.67,287.5v28.71a3,3,0,0,1-3,3H49.9c21.66-6.47,30.33-25.12,33.44-34.69H99.68A3,3,0,0,1,102.67,287.5Z"/><circle class="cls-7" cx="15.91" cy="300.82" r="3.92"/><circle class="cls-8" cx="39.65" cy="300.82" r="3.92"/><circle class="cls-7" cx="27.78" cy="300.82" r="3.92"/><path class="cls-5" d="M27.78,305.76a4.94,4.94,0,1,1,4.94-4.94A4.94,4.94,0,0,1,27.78,305.76Zm0-7.84a2.91,2.91,0,1,0,2.9,2.9A2.9,2.9,0,0,0,27.78,297.92Z"/><path class="cls-5" d="M99.8,321.82H5.09A5.09,5.09,0,0,1,0,316.73V288.82a5.09,5.09,0,0,1,5.09-5.08H99.8a5.1,5.1,0,0,1,5.09,5.08v27.91A5.1,5.1,0,0,1,99.8,321.82ZM5.09,287.13a1.7,1.7,0,0,0-1.7,1.69v27.91a1.7,1.7,0,0,0,1.7,1.7H99.8a1.7,1.7,0,0,0,1.69-1.7V288.82a1.69,1.69,0,0,0-1.69-1.69Z"/><path class="cls-5" d="M94.82,338.31H10.07V318.79H94.82Zm-82-2.72H92.1V321.5H12.78Z"/><path class="cls-5" d="M15.88,305.76a4.94,4.94,0,1,1,4.94-4.94A4.94,4.94,0,0,1,15.88,305.76Zm0-7.84a2.91,2.91,0,1,0,2.9,2.9A2.91,2.91,0,0,0,15.88,297.92Z"/><rect class="cls-1" x="2.35" y="326.81" width="101.49" height="34.69" rx="5"/><path class="cls-2" d="M103.19,329.81v28.7a3,3,0,0,1-3,3H50.42c21.65-6.47,30.33-25.12,33.44-34.7H100.2A3,3,0,0,1,103.19,329.81Z"/><path class="cls-5" d="M24.55,338.58H14.27a1,1,0,1,1,0-2H24.55a1,1,0,1,1,0,2Z"/><path class="cls-5" d="M24.55,345.18H14.27a1,1,0,0,1,0-2H24.55a1,1,0,1,1,0,2Z"/><path class="cls-5" d="M24.55,351.78H14.27a1,1,0,0,1,0-2H24.55a1,1,0,1,1,0,2Z"/><path class="cls-5" d="M46.58,338.58H36.29a1,1,0,1,1,0-2H46.58a1,1,0,0,1,0,2Z"/><path class="cls-5" d="M46.58,345.18H36.29a1,1,0,0,1,0-2H46.58a1,1,0,0,1,0,2Z"/><path class="cls-5" d="M46.58,351.78H36.29a1,1,0,0,1,0-2H46.58a1,1,0,0,1,0,2Z"/><path class="cls-5" d="M68.6,338.58H58.31a1,1,0,1,1,0-2H68.6a1,1,0,1,1,0,2Z"/><path class="cls-5" d="M68.6,345.18H58.31a1,1,0,0,1,0-2H68.6a1,1,0,0,1,0,2Z"/><path class="cls-5" d="M68.6,351.78H58.31a1,1,0,0,1,0-2H68.6a1,1,0,1,1,0,2Z"/><path class="cls-5" d="M90.62,338.58H80.33a1,1,0,1,1,0-2H90.62a1,1,0,1,1,0,2Z"/><path class="cls-5" d="M90.62,345.18H80.33a1,1,0,0,1,0-2H90.62a1,1,0,1,1,0,2Z"/><path class="cls-5" d="M90.62,351.78H80.33a1,1,0,0,1,0-2H90.62a1,1,0,1,1,0,2Z"/><polygon class="cls-6" points="18.9 273.58 11.99 279.56 11.99 277.3 18.9 271.32 18.9 273.58"/><polygon class="cls-6" points="18.9 277.51 11.99 283.5 11.99 281.24 18.9 275.25 18.9 277.51"/><path class="cls-5" d="M20.75,286.79H10.6V272.25a5.08,5.08,0,0,1,10.15,0Zm-7.44-2.72H18V272.25a2.36,2.36,0,0,0-4.72,0Z"/><path class="cls-5" d="M39.65,305.76a4.94,4.94,0,1,1,4.94-4.94A4.94,4.94,0,0,1,39.65,305.76Zm0-7.84a2.91,2.91,0,1,0,2.9,2.9A2.91,2.91,0,0,0,39.65,297.92Z"/><circle class="cls-2" cx="71.09" cy="303.85" r="4.45"/><circle class="cls-2" cx="64.58" cy="297.24" r="2.02"/><path class="cls-3" d="M9.16,361.51H4.91a3.28,3.28,0,0,1-3-3.48V330.29a3.28,3.28,0,0,1,3-3.48H9.16a3.28,3.28,0,0,0-3,3.48V358A3.28,3.28,0,0,0,9.16,361.51Z"/><path class="cls-5" d="M99.8,363.2H5.09A5.09,5.09,0,0,1,0,358.12V330.21a5.09,5.09,0,0,1,5.09-5.09H99.8a5.1,5.1,0,0,1,5.09,5.09v27.91A5.1,5.1,0,0,1,99.8,363.2ZM5.09,328.51a1.7,1.7,0,0,0-1.7,1.7v27.91a1.7,1.7,0,0,0,1.7,1.69H99.8a1.69,1.69,0,0,0,1.69-1.69V330.21a1.7,1.7,0,0,0-1.69-1.7Z"/><rect class="cls-6" x="293.44" y="300.73" width="132.06" height="48.01" rx="24.01"/><path class="cls-11" d="M424.54,324.25a24,24,0,0,1-24,24h-84a24,24,0,0,1-24-24,24.71,24.71,0,0,1,.22-3.24,24,24,0,0,0,23.79,20.77h84A24,24,0,0,0,424.32,321,24.71,24.71,0,0,1,424.54,324.25Z"/><path class="cls-5" d="M400.93,350.44H316.88a25.71,25.71,0,0,1,0-51.41h84.05a25.71,25.71,0,1,1,0,51.41Zm-84.05-48a22.31,22.31,0,0,0,0,44.62h84.05a22.31,22.31,0,1,0,0-44.62Z"/><path class="cls-7" d="M338.56,309.12l1.8,3.65a.63.63,0,0,0,.48.35l4,.58a.63.63,0,0,1,.35,1.08l-2.92,2.85a.63.63,0,0,0-.18.56l.69,4a.63.63,0,0,1-.91.66l-3.62-1.9a.66.66,0,0,0-.58,0l-3.61,1.9a.63.63,0,0,1-.92-.66l.69-4a.61.61,0,0,0-.18-.56l-2.92-2.85a.63.63,0,0,1,.35-1.08l4-.58a.63.63,0,0,0,.47-.35l1.81-3.65A.63.63,0,0,1,338.56,309.12Z"/><path class="cls-7" d="M317.49,309.12l1.81,3.65a.63.63,0,0,0,.47.35l4,.58a.63.63,0,0,1,.35,1.08l-2.92,2.85a.61.61,0,0,0-.18.56l.69,4a.63.63,0,0,1-.92.66l-3.61-1.9a.66.66,0,0,0-.58,0l-3.61,1.9a.63.63,0,0,1-.92-.66l.69-4a.63.63,0,0,0-.18-.56l-2.92-2.85a.63.63,0,0,1,.35-1.08l4-.58a.63.63,0,0,0,.48-.35l1.8-3.65A.63.63,0,0,1,317.49,309.12Z"/><path class="cls-7" d="M359.62,309.12l1.8,3.65a.64.64,0,0,0,.48.35l4,.58a.64.64,0,0,1,.35,1.08l-2.93,2.85a.66.66,0,0,0-.18.56l.69,4a.63.63,0,0,1-.91.66l-3.61-1.9a.68.68,0,0,0-.59,0l-3.61,1.9a.64.64,0,0,1-.92-.66l.69-4a.61.61,0,0,0-.18-.56l-2.92-2.85a.64.64,0,0,1,.35-1.08l4-.58a.63.63,0,0,0,.47-.35l1.81-3.65A.63.63,0,0,1,359.62,309.12Z"/><path class="cls-7" d="M380.68,309.12l1.81,3.65a.63.63,0,0,0,.47.35l4,.58a.64.64,0,0,1,.35,1.08l-2.92,2.85a.61.61,0,0,0-.18.56l.69,4a.64.64,0,0,1-.92.66l-3.61-1.9a.68.68,0,0,0-.59,0l-3.61,1.9a.63.63,0,0,1-.91-.66l.69-4a.64.64,0,0,0-.19-.56l-2.92-2.85a.64.64,0,0,1,.35-1.08l4-.58a.61.61,0,0,0,.47-.35l1.81-3.65A.63.63,0,0,1,380.68,309.12Z"/><path class="cls-7" d="M401.74,309.12l1.81,3.65a.63.63,0,0,0,.47.35l4,.58a.64.64,0,0,1,.35,1.08l-2.92,2.85a.61.61,0,0,0-.18.56l.69,4a.63.63,0,0,1-.92.66l-3.61-1.9a.68.68,0,0,0-.59,0l-3.61,1.9a.63.63,0,0,1-.91-.66l.69-4a.63.63,0,0,0-.18-.56L394,314.78a.63.63,0,0,1,.35-1.08l4-.58a.63.63,0,0,0,.48-.35l1.8-3.65A.63.63,0,0,1,401.74,309.12Z"/><path class="cls-19" d="M321,317.63a.61.61,0,0,0-.18.56l.68,4a.62.62,0,0,1-.91.66l-3.61-1.9a.73.73,0,0,0-.29-.07V308.76a.65.65,0,0,1,.57.35l1.8,3.66a.63.63,0,0,0,.47.35l4,.59a.62.62,0,0,1,.35,1.07Z"/><path class="cls-19" d="M342,317.63a.61.61,0,0,0-.18.56l.69,4a.63.63,0,0,1-.92.66L338,321a.73.73,0,0,0-.29-.07V308.76a.65.65,0,0,1,.57.35l1.8,3.66a.63.63,0,0,0,.47.35l4,.59a.62.62,0,0,1,.35,1.07Z"/><path class="cls-19" d="M363.07,317.63a.63.63,0,0,0-.18.56l.69,4a.62.62,0,0,1-.91.66l-3.62-1.9a.69.69,0,0,0-.29-.07V308.76a.64.64,0,0,1,.57.35l1.8,3.66a.63.63,0,0,0,.48.35l4,.59a.62.62,0,0,1,.35,1.07Z"/><path class="cls-19" d="M384.14,317.63a.64.64,0,0,0-.19.56l.69,4a.62.62,0,0,1-.91.66l-3.61-1.9a.73.73,0,0,0-.3-.07V308.76a.64.64,0,0,1,.57.35l1.8,3.66a.63.63,0,0,0,.48.35l4,.59a.62.62,0,0,1,.35,1.07Z"/><path class="cls-19" d="M405.49,317.63a.61.61,0,0,0-.18.56l.68,4a.62.62,0,0,1-.91.66l-3.61-1.9a.73.73,0,0,0-.29-.07V308.76a.65.65,0,0,1,.57.35l1.8,3.66a.63.63,0,0,0,.47.35l4,.59a.62.62,0,0,1,.35,1.07Z"/><path class="cls-5" d="M392.76,332.32H325.4a1,1,0,0,1,0-2h67.36a1,1,0,0,1,0,2Z"/><path class="cls-5" d="M336.43,338.76H314.36a1,1,0,1,1,0-2h22.07a1,1,0,1,1,0,2Z"/><path class="cls-5" d="M351.44,338.76h-8.88a1,1,0,1,1,0-2h8.88a1,1,0,1,1,0,2Z"/><circle class="cls-11" cx="407.68" cy="330.74" r="2.67"/><circle class="cls-11" cx="404.31" cy="338.94" r="6.99"/><path class="cls-5" d="M312.44,323.62a1.31,1.31,0,0,1-1.29-1.53l.69-4-2.91-2.8a1.31,1.31,0,0,1,.73-2.24l4-.58,1.77-3.64a1.31,1.31,0,0,1,1.18-.72,1.29,1.29,0,0,1,1.17.72l1.81,3.66,4,.56a1.32,1.32,0,0,1,1.05.89,1.3,1.3,0,0,1-.33,1.35l-2.92,2.84.71,4a1.3,1.3,0,0,1-.53,1.28,1.26,1.26,0,0,1-1.37.1l-3.61-1.9-3.57,1.9A1.31,1.31,0,0,1,312.44,323.62ZM310,314.36l2.85,2.78a1.32,1.32,0,0,1,.38,1.16l-.68,3.93,3.53-1.86a1.32,1.32,0,0,1,1.22,0l3.52,1.86-.67-3.93a1.32,1.32,0,0,1,.38-1.16l2.85-2.78-3.94-.57a1.3,1.3,0,0,1-1-.72l-1.78-3.6-1.74,3.6a1.32,1.32,0,0,1-1,.72Z"/><path class="cls-5" d="M333.5,323.62a1.29,1.29,0,0,1-.77-.25,1.31,1.31,0,0,1-.52-1.28l.69-4-2.91-2.8a1.31,1.31,0,0,1,.73-2.24l4-.58,1.77-3.64a1.31,1.31,0,0,1,2.34,0l1.81,3.66,4,.56a1.31,1.31,0,0,1,.73,2.24l-2.93,2.84.71,4a1.31,1.31,0,0,1-.52,1.28,1.28,1.28,0,0,1-1.38.1l-3.61-1.9-3.57,1.9A1.31,1.31,0,0,1,333.5,323.62Zm4.2-3.4a1.31,1.31,0,0,1,.61.15l3.52,1.86-.67-3.93a1.32,1.32,0,0,1,.38-1.16l2.85-2.78-3.94-.57a1.3,1.3,0,0,1-1-.72l-1.77-3.6-1.75,3.6a1.3,1.3,0,0,1-1,.72l-3.94.57,2.85,2.78a1.32,1.32,0,0,1,.38,1.16l-.67,3.93,3.52-1.86A1.31,1.31,0,0,1,337.7,320.22Z"/><path class="cls-5" d="M354.56,323.62a1.24,1.24,0,0,1-.76-.25,1.3,1.3,0,0,1-.53-1.28l.69-4-2.9-2.8a1.3,1.3,0,0,1-.33-1.35,1.32,1.32,0,0,1,1-.89l4-.58,1.77-3.64a1.29,1.29,0,0,1,1.17-.72,1.31,1.31,0,0,1,1.18.72l1.8,3.66,4,.56a1.31,1.31,0,0,1,.73,2.24l-2.92,2.84.7,4a1.31,1.31,0,0,1-1.9,1.38l-3.61-1.9-3.57,1.9A1.31,1.31,0,0,1,354.56,323.62Zm-2.49-9.26,2.85,2.78a1.32,1.32,0,0,1,.38,1.16l-.67,3.93,3.52-1.86a1.32,1.32,0,0,1,1.22,0l3.53,1.86-.68-3.93a1.32,1.32,0,0,1,.38-1.16l2.85-2.78-3.94-.57a1.32,1.32,0,0,1-1-.72l-1.77-3.6-1.75,3.6a1.3,1.3,0,0,1-1,.72Z"/><path class="cls-5" d="M375.63,323.62a1.31,1.31,0,0,1-1.29-1.53l.69-4-2.91-2.8a1.3,1.3,0,0,1-.33-1.35,1.32,1.32,0,0,1,1-.89l4-.58,1.77-3.64a1.32,1.32,0,0,1,2.35,0l1.8,3.66,4,.56a1.32,1.32,0,0,1,1.06.89,1.3,1.3,0,0,1-.33,1.35l-2.92,2.84.7,4a1.31,1.31,0,0,1-1.9,1.38l-3.61-1.9-3.56,1.9A1.37,1.37,0,0,1,375.63,323.62Zm4.19-3.4a1.31,1.31,0,0,1,.61.15l3.53,1.86-.67-3.93a1.29,1.29,0,0,1,.37-1.16l2.85-2.78-3.94-.57a1.3,1.3,0,0,1-1-.72l-1.78-3.6-1.75,3.6a1.3,1.3,0,0,1-1,.72l-3.94.57,2.85,2.78a1.29,1.29,0,0,1,.37,1.16l-.67,3.93,3.53-1.86A1.3,1.3,0,0,1,379.82,320.22Z"/><path class="cls-5" d="M396.69,323.62a1.31,1.31,0,0,1-1.29-1.53l.69-4-2.91-2.8a1.3,1.3,0,0,1-.33-1.35,1.33,1.33,0,0,1,1.06-.89l4-.58,1.77-3.64a1.32,1.32,0,0,1,2.35,0l1.81,3.66,4,.56a1.32,1.32,0,0,1,1.05.89,1.3,1.3,0,0,1-.33,1.35l-2.92,2.84.7,4a1.31,1.31,0,0,1-1.89,1.38l-3.62-1.9-3.56,1.9A1.34,1.34,0,0,1,396.69,323.62Zm-2.49-9.26,2.85,2.78a1.32,1.32,0,0,1,.38,1.16l-.68,3.93,3.53-1.86a1.3,1.3,0,0,1,1.21,0l3.53,1.86-.67-3.93a1.29,1.29,0,0,1,.38-1.16l2.85-2.78-3.94-.57a1.3,1.3,0,0,1-1-.72l-1.78-3.6-1.75,3.6a1.28,1.28,0,0,1-1,.72Z"/><path class="cls-5" d="M377.32,170.22a15,15,0,1,1,15-15A15,15,0,0,1,377.32,170.22Zm0-26.58a11.6,11.6,0,1,0,11.6,11.59A11.6,11.6,0,0,0,377.32,143.64Z"/><circle class="cls-6" cx="348.98" cy="155.23" r="13.29"/><path class="cls-5" d="M349,170.22a15,15,0,1,1,15-15A15,15,0,0,1,349,170.22Zm0-26.58a11.6,11.6,0,1,0,11.59,11.59A11.61,11.61,0,0,0,349,143.64Z"/><rect class="cls-1" x="316.44" y="157.77" width="94.19" height="20.23" rx="3.66"/><path class="cls-3" d="M409.85,162.63v3.86c0-2.26.89-4.1-1.39-4.1H316.38c-2.26,0-.71,1.84-.71,4.1v-3.86c0-2.25-1.55-4.1.71-4.1h92.08C410.74,158.53,409.85,160.38,409.85,162.63Z"/><path class="cls-1" d="M326.84,177.77H398.2a6.31,6.31,0,0,1,6.31,6.31v51.63A8.31,8.31,0,0,1,396.2,244H328.84a8.31,8.31,0,0,1-8.31-8.31V184.08A6.31,6.31,0,0,1,326.84,177.77Z"/><rect class="cls-2" x="321.4" y="178.57" width="83.6" height="5.78"/><rect class="cls-2" x="321.4" y="237.9" width="83.6" height="5.78"/><path class="cls-9" d="M374.71,244.54V158.25c-.51-.51-21.58,0-21.58,0v86.29Z"/><rect class="cls-20" x="352.92" y="158.45" width="21.57" height="3.86"/><rect class="cls-10" x="352.36" y="178.58" width="21.57" height="5.77"/><rect class="cls-10" x="352.36" y="237.9" width="21.57" height="5.77"/><path class="cls-5" d="M401.75,245.76h-77.2a5.09,5.09,0,0,1-5.09-5.09V176.11h87.38v64.56A5.1,5.1,0,0,1,401.75,245.76Zm-78.9-66.26v61.17a1.7,1.7,0,0,0,1.7,1.7h77.2a1.7,1.7,0,0,0,1.69-1.7V179.5Z"/><circle class="cls-2" cx="388.43" cy="189.36" r="6.93"/><circle class="cls-10" cx="359.25" cy="236.02" r="4.89"/><circle class="cls-10" cx="363.71" cy="230.59" r="1.54"/><circle class="cls-2" cx="396.14" cy="197.84" r="2.64"/><path class="cls-6" d="M328.34,228.72a1,1,0,0,1-1-1V203.17a1,1,0,0,1,2,0V227.7A1,1,0,0,1,328.34,228.72Z"/><path class="cls-21" d="M328.34,198.43a1,1,0,0,1-1-1V192a1,1,0,0,1,2,0v5.37A1,1,0,0,1,328.34,198.43Z"/><polygon class="cls-20" points="373.6 208.62 353.38 200.41 353.38 188.09 373.6 196.29 373.6 208.62"/><polygon class="cls-22" points="373.6 216.59 353.38 208.38 353.38 204.27 373.6 212.48 373.6 216.59"/><polygon class="cls-22" points="373.6 219.69 353.38 211.48 353.38 210.07 373.6 218.28 373.6 219.69"/><rect class="cls-5" x="351" y="156.71" width="2.71" height="86.29"/><rect class="cls-5" x="372.58" y="156.71" width="2.71" height="86.29"/><path class="cls-5" d="M406.85,178.92H319.44a5.09,5.09,0,0,1-5.08-5.09V160.39a5.09,5.09,0,0,1,5.08-5.09h87.41a5.09,5.09,0,0,1,5.09,5.09v13.44A5.09,5.09,0,0,1,406.85,178.92Zm-87.41-20.23a1.7,1.7,0,0,0-1.69,1.7v13.44a1.7,1.7,0,0,0,1.69,1.7h87.41a1.7,1.7,0,0,0,1.7-1.7V160.39a1.7,1.7,0,0,0-1.7-1.7Z"/></g></g></svg>