<?xml version="1.0" encoding="UTF-8"?>
<svg id="Layer_2" data-name="Layer 2" xmlns="http://www.w3.org/2000/svg" viewBox="0 0 137.69 296.44">
  <defs>
    <style>
      .cls-1 {
        fill: #f9b732;
      }

      .cls-2 {
        fill: #fdc6a2;
      }

      .cls-3 {
        fill: #e9f8ff;
      }

      .cls-4 {
        fill: #fff1ca;
      }

      .cls-5 {
        fill: #fff;
      }

      .cls-6 {
        fill: #ffe183;
      }

      .cls-7 {
        fill: #ffecc5;
      }

      .cls-8 {
        fill: #ffd985;
      }

      .cls-9 {
        fill: #e8e8e8;
      }

      .cls-10, .cls-11 {
        fill: #ffc627;
      }

      .cls-12 {
        fill: #fca7df;
      }

      .cls-13 {
        fill: #c1b2db;
      }

      .cls-14 {
        fill: #a9dcfc;
      }

      .cls-15 {
        fill: #d0d0d1;
      }

      .cls-16 {
        fill: #a8a8ba;
      }

      .cls-17 {
        fill: #191818;
      }

      .cls-18 {
        fill: #70cbf9;
      }

      .cls-19 {
        fill: #795881;
      }

      .cls-20 {
        fill: #8f90fd;
        opacity: .22;
      }

      .cls-21, .cls-11 {
        opacity: .4;
      }

      .cls-22 {
        opacity: .38;
      }

      .cls-23 {
        opacity: .45;
      }

      .cls-23, .cls-24 {
        fill: #ef7756;
      }

      .cls-24 {
        opacity: .66;
      }
    </style>
  </defs>
  <g id="Layer_1-2" data-name="Layer 1">
    <g>
      <path class="cls-13" d="M39.34,71.63l-10.74,6.7c-.93,.54-2.12,.29-2.76-.58L8.47,54.15c-.7-.95-.44-2.29,.56-2.9l10.8-6.67c.91-.56,2.09-.31,2.7,.56l12.77,18.24"/>
      <path class="cls-19" d="M26.16,78.02c-.71-.07-1.33-.76-1.86-1.5-.54-1.04-.91-2.35-1.42-3.03-1.2-1.6-2.68-2.78-3.63-4.58-.43-.81-.85-1.61-1.47-2.29-.66-.74-1.49-1.3-2.21-1.97-.21-.2-.19-.36-.39-.57,.09-.25-.15-.62-.35-.86-.57-.67-1.15-1.34-1.72-2.01-.1-.11-.2-.17-.31-.21-.3-.53-.57-1.1-.82-1.66,0-.01-.02-.02-.02-.03,0-.1-.04-.2-.1-.29-.85-1.29-1.68-2.59-2.5-3.91-.2-.31-.62-.46-.96-.29-.16-.47-.26-.95-.26-1.45,.02-.97-1.48-.97-1.5,0-.04,2.58,1.86,4.58,3.33,6.51,.62,.82,1.25,1.65,1.87,2.47,.6,.99,1.28,1.93,2.09,2.77,0,0,.02,.01,.02,.02,.55,.72,1.1,1.45,1.65,2.17,1.83,2.41,3.66,4.83,5.48,7.24,.66,.87,1.31,1.74,1.97,2.6,.62,1.28,1.5,2.38,3.11,2.34,.98-.03,.95-1.41,0-1.5Z"/>
      <path class="cls-6" d="M95.66,292.12c-6.2,1.23-12.69,1.72-18.69-.19-.59-.19-1.2-.42-1.57-.92-.75-1.01,.81-3.11,1.37-3.95,3.04-4.61,6.42-9.24,10.98-12.37l.22-.17c.45,.85,1.34,1.38,2.23,1.75,4.14,1.73,9.23,.9,12.6-2.07l.24-.25c.59,2.36,.94,3.79,1.51,6.16"/>
      <path class="cls-11" d="M80.32,292.73c2.64,.3,5.29,.4,7.94,.27,1.29-.07,2.57-.19,3.85-.35,1.12-.15,2.5-.16,3.49-.76s1.48-1.71,2.02-2.63c.61-1.05,1.23-2.08,1.94-3.06,1.34-1.85,2.83-3.41,4.47-4.96,1.4-1.33-.72-3.45-2.12-2.12s-2.74,2.7-3.96,4.28c-.7,.91-1.39,1.83-2,2.8-.54,.88-1.01,2.21-1.75,2.92-.58,.55-1.93,.51-2.73,.61-1.21,.15-2.43,.24-3.64,.29-2.51,.1-5.02,0-7.51-.29-1.91-.22-1.9,2.78,0,3h0Z"/>
      <path class="cls-6" d="M123.88,287.81c0-.49-.01-.98-.04-1.48-.1-1.9-.36-3.79-.68-5.67-.14-.83-.19-1.8-.51-2.58-.22-.56-.87-1.11-1.37-1.41-.47-.28-1-.45-1.53-.58-1.43-.34-2.91-.41-4.38-.44-1.29-.03-2.58-.03-3.84,.22-1.62,.32-2.88,1.14-4.17,2.12s-2.47,2.09-3.58,3.27c-2.39,2.55-4.41,5.42-6.33,8.33-.56,.84-2.11,2.94-1.37,3.95,.37,.5,.98,.73,1.57,.92,6.51,2.07,13.58,1.32,20.26-.14,2.03-.45,4.27-1.11,5.29-2.92,.61-1.07,.67-2.37,.68-3.6Z"/>
      <path class="cls-11" d="M103.81,296.18c2.94,.04,5.87-.26,8.76-.76,2.53-.44,5.24-.88,7.6-1.96s3.64-2.94,3.82-5.41c.2-2.75-1.25-5.31-.97-8.05,.08-.81-.75-1.5-1.5-1.5-.88,0-1.42,.69-1.5,1.5-.25,2.44,.84,4.64,.98,7.03,.12,2.05-.82,3.31-2.73,3.99-2.13,.75-4.44,1.16-6.66,1.54-2.57,.44-5.18,.66-7.79,.62-1.93-.02-1.93,2.98,0,3h0Z"/>
      <path class="cls-2" d="M90.87,263.11c-.09,3.82-.19,7.65-.28,11.47-.01,.41-.02,.83,.15,1.2,.38,.82,1.42,1.04,2.32,1.12,1.69,.14,3.35,.15,4.97-.39,.78-.26,1.55-.57,2.29-.92,.06-.03,.11-.06,.15-.11,.04-.05,.04-.12,.05-.18,.09-.87,.19-1.76,.05-2.62-.07-.46,0-.97,.02-1.44,.01-.51,.03-1.02,.04-1.53,.06-2.03,.12-4.07,.18-6.1,0-.31,.02-.61,.03-.92"/>
      <path class="cls-2" d="M110.54,266.14l-.13,5.34c-.02,.83-.15,1.73,.01,2.55,.17,.86,0,1.75-.01,2.61-.01,.58,.03,1.15,.07,1.73,0,.12,.02,.25,.09,.35,.08,.1,.2,.14,.32,.18,.66,.2,1.35,.26,2.03,.32,1.03,.09,2.07,.18,3.1,.14,1.22-.06,2.42-.3,3.61-.55,.12-.02,.25-.05,.34-.13,.17-.14,.19-.38,.2-.6,.03-1-.05-1.98-.07-2.97,0-.32,.12-.58,.15-.89,.06-.48,.03-.98,.05-1.47,.06-2.03,.12-4.07,.18-6.1,0-.31,.02-.61,.03-.92"/>
      <path class="cls-23" d="M91.33,268.69c2.87,.29,5.82,.55,8.62-.34,1.06-.34,.61-2.02-.46-1.68-2.64,.84-5.44,.55-8.15,.28-.47-.05-.87,.43-.87,.87,0,.51,.4,.82,.87,.87h0Z"/>
      <path class="cls-23" d="M110.8,273.58c2.86,.55,5.77,.55,8.63,0,.46-.09,.73-.64,.61-1.07-.13-.48-.61-.7-1.07-.61-2.54,.48-5.17,.48-7.71,0-.46-.09-.94,.13-1.07,.61-.12,.43,.14,.98,.61,1.07h0Z"/>
      <path class="cls-15" d="M78.89,153.15c-.53,1.91-.53,3.48-.54,5.46,0,1.72-.04,3.82-.16,5.52-.12,1.8-.22,3.6-.29,5.41-.31,8.03-.1,16.08,.42,24.09s1.35,15.97,2.31,23.92c.94,8,2.05,15.98,3.25,23.95,.09,.57,.24,1.17,.21,1.74-.03,.49,.04,.88,.15,1.37,.3,1.26,.5,2.54,.59,3.83,.03,.4,.05,.8,.09,1.19,.18,1.69,.72,3.35,.84,5.04,.14,1.87,.19,3.74,.21,5.61,.02,1.93,.04,4.43,1.61,5.55,.75,.53,1.8,.44,2.71,.58,2.41,.38,4.84,.77,7.28,.7s4.92-.61,6.96-1.96c.01,0,.54,1.36,.58,1.5,.11,.38,.1,.76,.14,1.14s.11,.81,.16,1.22c.03,.27,.07,.54,.17,.8,.15,.38,.43,.69,.76,.92s.71,.39,1.09,.52c2.69,.92,5.68,.69,8.47,.58,.86-.03,1.72-.08,2.58-.13,1.64-.08,3.15,.04,4.77,.15,.52,.04,1.06,.07,1.55-.11,.04-.01,.07-.03,.1-.06,.02-.03,.03-.07,.03-.11,.07-.62-.14-1.15-.16-1.76-.02-.47,.06-.96,.05-1.44-.03-1.42-.34-2.81-.5-4.22-.22-1.99-.4-3.99-.54-5.99-.26-3.91-.47-7.88-.34-11.79,.09-2.78,.39-5.55,.69-8.31,.17-1.52,.33-3.05,.5-4.57,.26-2.4,.62-4.76,.85-7.17,.33-3.36,1.17-6.77,1.33-10.12,.08-1.73,.44-3.57,.8-5.26s.78-3.53,1.2-5.29c.66-2.82,1.38-5.63,2.14-8.43,1.03-3.77,2.09-7.5,3.28-11.22,.37-1.15,.74-2.31,1.04-3.48,.37-1.43,.64-2.89,.91-4.34,.43-2.32,.86-4.65,1.04-7.01,.21-2.79-.11-5.5-.2-8.28s-.91-5.01-1.94-7.47c-.79,.95-2.13,1.21-3.35,1.4-1.73,.28-3.46,.55-5.2,.83-1.24,.2-2.48,.39-3.73,.53-4.84,.54-9.77,.22-14.5-.95"/>
      <path class="cls-16" d="M105.78,270.17c2.38,1.72,5.55,1.84,8.37,1.7,3.18-.16,6.34-.27,9.53-.21,1.93,.04,1.93-2.96,0-3-2.96-.06-5.92,0-8.88,.17-2.53,.14-5.35,.3-7.5-1.25-.66-.47-1.67-.11-2.05,.54-.44,.76-.12,1.58,.54,2.05h0Z"/>
      <path class="cls-16" d="M86.92,265.44c2.56,1.41,5.46,1.52,8.32,1.41,3.02-.12,6.03-.23,8.84-1.45,.74-.32,.91-1.41,.54-2.05-.45-.77-1.31-.86-2.05-.54-2.27,.98-4.9,.95-7.32,1.04s-4.73,.14-6.8-1c-1.69-.93-3.21,1.66-1.51,2.59h0Z"/>
      <path class="cls-9" d="M80.49,217.51c1.46,9.7,2.5,19.46,3.96,29.17,.21,1.43,2.38,.82,2.17-.6-1.46-9.7-2.5-19.46-3.96-29.17-.21-1.43-2.38-.82-2.17,.6h0Z"/>
      <path class="cls-9" d="M81.13,202.09c-1.12-12.29-1.38-24.64-.76-36.96,.07-1.45-2.18-1.44-2.25,0-.61,12.32-.36,24.67,.76,36.96,.13,1.43,2.38,1.44,2.25,0h0Z"/>
      <path class="cls-16" d="M79.72,156.48c8.37,4.06,17.65,5.15,26.84,5.56,4.62,.21,9.28,.4,13.9,.08,2.28-.16,4.57-.44,6.81-.91,1.09-.23,2.16-.51,3.22-.85,.41-.13,2.84-1.3,3.09-1.12s.3,1.23,.36,1.54c.13,.71,.24,1.43,.32,2.15,.15,1.32,.23,2.65,.23,3.98,.01,2.85-.32,5.66-.97,8.43-.44,1.88,2.45,2.68,2.89,.8,1.17-5.01,1.38-10.15,.58-15.23-.32-2.03-.78-4.77-3.43-4.67-1.12,.04-2.2,.67-3.23,1.03-1.12,.38-2.26,.7-3.42,.96-4.91,1.11-9.99,1.14-14.99,1.01s-9.82-.32-14.69-.93c-5.5-.68-10.98-1.99-15.99-4.42-1.73-.84-3.25,1.75-1.51,2.59h0Z"/>
      <path class="cls-2" d="M38.36,69.64c.16,.27,.27,.58,.41,.86,.08,.16,.14,.35,.24,.5,.07,.11,.14,.26,.14,.39,0,.12-.03,.17-.12,.26-.11,.11-.23,.21-.36,.31-.25,.2-.49,.4-.77,.56s-.57,.31-.85,.48c-.12,.08-1.03,.52-1.03,.63-.38,.23-.77,.47-1.14,.72-.65,.45-1.26,.96-1.91,1.42-.78,.55-1.61,1.03-2.48,1.42-.32,.14-.69,.35-.69,.69,0,.1,.04,.2,.07,.29,.21,.56,.36,1.19,.68,1.7,.3,.49,.66,.93,1.06,1.34,.84,.84,1.86,1.49,2.91,2.05,.1,.05-.2,1.25-.18,1.41,.02,.25,.12,.51,.31,.67,.3,.24,.73,.21,1.1,.16,1.36-.21,2.7-.61,3.95-1.19,.41-.19,.81-.4,1.16-.68,.21-.17,.4-.36,.58-.55,.41-.41,.82-.83,1.15-1.31,.29-.41,.42-.84,.6-1.3,.18-.43,.24-.55,0-1.01-.46-.89-.82-1.81-.98-2.81-.31-1.89,.01-3.84-.3-5.73-.13-.77-.36-1.52-.65-2.25-.34-.86-.76-1.69-1.25-2.47-.29-.46-.71-.81-1.1-1.18-.44-.42-.92-.79-1.47-1.06-.83-.41-1.83-.54-2.68-.18-.5,.21-.91,.58-1.27,.98-.37,.42-.68,.89-.85,1.42s-.21,1.11-.03,1.63c.25,.73,.88,1.26,1.48,1.73,.17,.14,.35,.27,.56,.35,.32,.13,.69,.1,1.03,.04,.45-.08,.88-.22,1.3-.39,.14-.06,.29-.17,.44-.2,.21-.05,.45-.02,.66-.02,.1,.1,.18,.21,.25,.32Z"/>
      <path class="cls-23" d="M36.5,85.15c1.36-.05,2.71-.22,3.91-.9,1.03-.58,1.9-1.45,2.47-2.49,.22-.4,.11-.97-.31-1.19s-.95-.11-1.19,.31c-.12,.21-.25,.41-.39,.61-.09,.12,.13-.15-.05,.06-.04,.04-.07,.09-.11,.13-.07,.09-.15,.17-.23,.25-.39,.39-.59,.54-1.07,.82-.1,.06-.2,.11-.3,.16-.05,.02-.1,.05-.15,.07-.08,.04,.08-.03-.07,.03-.25,.09-.51,.17-.77,.23-.56,.13-1.13,.16-1.75,.18-.45,.02-.89,.39-.87,.87s.38,.89,.87,.87h0Z"/>
      <path class="cls-23" d="M31.35,79.02c1.25-.85,2.51-1.69,3.76-2.54s2.45-1.65,3.77-2.32c.42-.21,.54-.8,.31-1.19-.25-.43-.77-.53-1.19-.31-1.32,.67-2.54,1.5-3.77,2.32s-2.51,1.69-3.76,2.54c-.39,.26-.56,.77-.31,1.19,.23,.39,.8,.58,1.19,.31h0Z"/>
      <path class="cls-6" d="M134.79,89.47c-.53,11.16,.14,22.5-.74,33.64-.15,1.85-.59,3.66-1.34,5.36-.47,1.05-.99,2.21-1.49,3.24-1.84,3.83-.3,8.55,1.37,12.46s3.29,7.34,3.66,11.58c-2.37,.96-4.74,1.92-7.2,2.6-4.43,1.23-9.06,1.54-13.66,1.53-8.61-.01-17.26-.48-25.6-2.63-4.46-1.15-8.8-3.25-13.07-5-.7-.29-1.01-1.12-.68-1.8,.68-1.39,1.95-2.26,2.63-3.52,2.06-3.79,3.44-7.63,4.59-12.15,1.65-6.46,1.62-15.03-.72-21.28-1.04-2.78-2.59-5.37-3.49-8.2-1.8-5.66-.8-12.14,2.63-16.98,1.52-2.15,3.49-4.01,4.55-6.41,.9-2.02,1.11-4.34,2.32-6.19,.79-1.2,1.94-2.11,3.08-3,.43-.34,.87-.67,1.32-.99,.42-.31,.74-.62,1.1-.99,.54-.54,1.16-1,1.83-1.38,.27-.15,.52-.2,.81-.29,.35-.11,.65-.36,.96-.56,1.43-.96,2.85-1.93,4.2-2.99,.15,2.29,1.44,3.57,3.71,3.81s4.5-.79,5.12-3c.65,.46,1.31,.92,1.96,1.38"/>
      <g class="cls-21">
        <path class="cls-10" d="M136,155.12c-2.37,.96-4.74,1.92-7.2,2.6-2.77,.77-5.61,1.18-8.48,1.37-.55-2.39-1.6-4.72-2.82-6.85-2.33-4.11-5.32-7.89-6.94-12.33-1.21-3.34-1.6-6.97-1.11-10.49,.6-4.32,2.47-8.37,3.29-12.65,.97-5.01,.48-10.19-.2-15.26-.55-4.15-1.24-8.32-1.06-12.51,.26-6.06,2.43-12,6.02-16.89l17.04,16.74c-.54,11.15,.14,22.5-.74,33.63-.07,.82-.19,1.62-.4,2.41-.11,.41-.13,.85-.22,1.27-.08,.39-.17,.78-.26,1.17-.14,.61-.28,1.23-.48,1.83-.14,.41-.3,.8-.46,1.2-.29,.71-.57,1.41-.86,2.12-.12,.29-.16,.5-.18,.8s0,.65-.1,.96c-.31,.94-.26,1.96-.11,2.93s.41,1.93,.52,2.91c.04,.33,.01,.71,.12,1.02,.1,.28,.28,.49,.37,.76,.1,.31,.12,.64,.16,.96,.22,1.6,1.1,3.03,1.8,4.49,.19,.41,.38,.82,.56,1.23,.17,.38,.34,.77,.51,1.15,.23,.52,.46,1.04,.69,1.56,.42,.96,.67,1.88,.84,2.91,.09,.52-.35,.41-.3,.95Z"/>
      </g>
      <path class="cls-10" d="M76.91,152.28c5.49,2.44,11.19,4.37,17.04,5.72,1.41,.32,2.01-1.85,.6-2.17-5.66-1.3-11.2-3.13-16.51-5.49-1.31-.58-2.46,1.35-1.14,1.94h0Z"/>
      <path class="cls-10" d="M120.1,152.92c3.35-4.55,6.63-9.16,9.83-13.82,.82-1.2-1.13-2.32-1.94-1.14-3.2,4.66-6.48,9.26-9.83,13.82-.36,.49-.08,1.26,.4,1.54,.57,.33,1.18,.09,1.54-.4h0Z"/>
      <path class="cls-10" d="M118.62,159.81c5.81-.42,11.64-1.5,17.06-3.66,1.33-.53,.75-2.71-.6-2.17-5.24,2.09-10.85,3.17-16.47,3.58-1.44,.1-1.45,2.35,0,2.25h0Z"/>
      <path class="cls-10" d="M101.98,70.01c.74,1.11,1.97,1.45,3.22,1.6s2.48-.01,3.64-.4c.56-.19,.98-.78,.79-1.38-.18-.55-.79-.99-1.38-.79-.24,.08-.49,.15-.74,.21-.12,.03-.23,.05-.35,.07-.07,.01-.13,.02-.2,.03,.13-.02,.13-.02,0,0-.48,.05-.96,.06-1.44,.03-.07,0-.14-.01-.2-.02-.12-.01-.14-.02-.05,0,.08,.01,.06,0-.05,0-.07-.01-.14-.02-.2-.03-.19-.04-.38-.08-.56-.14-.05-.02-.11-.04-.16-.06,.14,.06,.15,.07,.04,.02-.07-.04-.15-.07-.22-.12-.05-.03-.09-.06-.13-.09,.12,.1,.13,.1,.04,.02-.04-.04-.08-.08-.11-.12,.09,.12,.1,.13,.03,.03-.32-.49-1.01-.75-1.54-.4-.49,.31-.75,1.01-.4,1.54h0Z"/>
      <path class="cls-6" d="M79.33,105.64c-5.21,3.5-11.74,7.12-17.96,8.89-1.26,.36-2.6,.24-3.77-.34h0c-.6-.3-1.15-.71-1.6-1.21-7.73-8.58-14.85-17.71-21.29-27.29l5.66-1.3,3.14-4.12c.83,.7,1.59,1.4,2.38,2.1,1.09,.97,2.86,2.59,3.9,3.62l6.66,6.57,5.72,5.65-.77-.95,.25-.19c1.13-.84,2.32-1.62,3.46-2.46s2.36-1.75,3.52-2.65c7.11-5.48,13.2-12.1,20.56-17.26,1.68-1.18,3.41-2.31,4.9-3.73l-14.76,34.65Z"/>
      <path class="cls-10" d="M60.77,114.67c5.95-2.25,11.64-5.11,16.97-8.56,1.21-.78,.08-2.73-1.14-1.94-5.17,3.35-10.67,6.15-16.44,8.34-1.34,.51-.76,2.68,.6,2.17h0Z"/>
      <path class="cls-4" d="M43.08,82.71c5.72,5.35,11.12,11.04,16.77,16.46,1.05,1,2.64-.59,1.59-1.59-5.65-5.42-11.05-11.11-16.77-16.46-1.06-.99-2.65,.6-1.59,1.59h0Z"/>
      <path class="cls-4" d="M66.37,96.05c4.87-3.13,9.37-6.81,13.4-10.97,1.01-1.04-.58-2.63-1.59-1.59-3.9,4.02-8.23,7.58-12.94,10.61-1.21,.78-.09,2.73,1.14,1.94h0Z"/>
      <path class="cls-2" d="M101.16,158.01c-.47,1.09-1.1,2.1-1.88,2.99-2.05,2.33-4.46,3.96-4.97,7.25-.41,2.68,.82,5.55,3.07,7.06s5.42,1.52,7.66,0c1.8-1.23,2.96-3.49,2.87-5.68-.04-.87-.23-1.75-.42-2.59-.21-.95,.16-1.75,.64-2.57,.61-1.06,1.23-2.12,1.84-3.18,.04-.08,.09-.16,.09-.24,0-.12-.09-.22-.18-.3-.7-.67-1.54-1.19-2.45-1.52-.73-.27-1.5-.41-2.18-.78-.78-.43-1.47-1.16-2.36-1.19"/>
      <path class="cls-8" d="M89.86,73.87c-4.05-9.17-8.12-18.42-10.18-28.23-2.06-9.81-1.97-20.35,2.12-29.49,2.89-6.47,8.86-12.53,15.92-11.97,.02,0,.06,.43,.07,.45l.29,2.02,.5,3.4,.66,4.52,.78,5.38,.87,5.97,.92,6.3,.93,6.37,.9,6.18,.83,5.73,.73,5.01,.59,4.03,.41,2.79c.04,.29,.11,.59,.13,.88,.03,.63-.89,.75-1.35,.96-.7,.32-1.48,.61-1.95,1.25-.08,.11-.15,.23-.27,.31-.1,.07-.22,.1-.34,.13-.48,.11-.98,.18-1.46,.31-1.39,.39-2.57,1.28-3.72,2.15-1.1,.84-2.21,1.68-3.19,2.66-.41,.41-.79,.84-1.28,1.15s-.98,.56-1.46,.86c-.08,.05-1.44,.85-1.43,.88Z"/>
      <path class="cls-1" d="M88.52,56.96c3.37,3.41,7.77,5.75,12.49,6.58,.6,.11,1.21-.16,1.38-.79,.15-.54-.18-1.28-.79-1.38-4.36-.77-8.38-2.85-11.49-6-1.02-1.03-2.61,.56-1.59,1.59h0Z"/>
      <path class="cls-7" d="M81.9,52.44c1.74,5.52,3.69,10.97,5.85,16.33,.36,.88,1.81,.5,1.45-.4-2.16-5.37-4.11-10.81-5.85-16.33-.29-.92-1.74-.53-1.45,.4h0Z"/>
      <rect class="cls-8" x="110.18" y="58" width="1.55" height="8.47"/>
      <g>
        <path class="cls-8" d="M129.79,42.03l-9.6-7.65,10.38-4.96c1.84-4.55,1.63-9.86,.07-14.51s-4.63-8.89-8.87-11.49l.07,.21c-1.14-1.06-2.45-1.92-3.91-2.46-1.6-.59-3.32-.8-5.03-.85-2.51-.07-5.02,.24-7.44,.87l-1.38,.4c-5.21,1.65-9.93,4.84-13.31,9.14l-.94,1.74c-1.13,2.42-.28,5.44,1.51,7.4,1.79,1.96,4.35,3.02,6.91,3.65,3.6,.88,7.36,1.03,11.01,.43l1-2.09c-1.8,4.23-2.66,9.27-.46,13.3,.79,1.44,1.93,2.68,2.59,4.19,1.01,2.3-.38,4.96-.67,7.45-.6,5-.24,10.01,.05,15.04,.4,4.8,.78,9.61,.52,14.41-.17,3.01-.73,5.98-1.59,8.86-.8,2.68-1.74,5.66-3.2,8.06-.06,.1,6.43,2.1,7.05,2.23,2.53,.52,5.11,.77,7.7,.73,4.98-.08,10.11-1.15,14.59-3.36l.34-.39c-.96-16.66-3.49-34.12-7.39-50.34Z"/>
        <path class="cls-8" d="M111.76,61.92s0-.06,0-.09c0-.06,0-.11-.01-.17l.02,.26Z"/>
      </g>
      <path class="cls-2" d="M110.47,59.05v6.92c0,2.29-1.85,3.27-4.14,3.27h0c-2.29,0-4.14-.97-4.14-3.27v-4.08"/>
      <path class="cls-17" d="M100.53,158.6c-7.03-.44-13.96-2.15-20.37-5.08-.7-.32-3.8-1.33-3.69-2.31,.06-.61,.83-1.3,1.17-1.8,.53-.78,.97-1.63,1.41-2.46,1.56-2.97,2.82-6.12,3.77-9.34,1.81-6.15,2.86-12.87,1.88-19.26-.49-3.17-1.62-6.05-3.03-8.91-1.51-3.05-2.89-6.05-3.04-9.51s.8-7.2,2.76-10.23c1.05-1.62,2.34-3.07,3.36-4.72s1.78-3.5,2.56-5.3c.18-.42-.44-.78-.62-.36-.72,1.66-1.4,3.35-2.32,4.91s-2.07,2.91-3.09,4.37c-1.78,2.54-2.91,5.41-3.26,8.5s.19,6.4,1.46,9.38c1.41,3.31,3.27,6.35,4.11,9.88,1.68,7.03,.48,14.69-1.6,21.51-1.11,3.64-2.59,7.22-4.55,10.5-.53,.89-1.93,2.13-1.73,3.28,.16,.9,1.35,1.16,2.04,1.51,7.13,3.54,14.83,5.66,22.78,6.16,.46,.03,.46-.69,0-.72h0Z"/>
      <path class="cls-17" d="M112.56,160.31c7.47-.04,14.75-.68,21.81-3.29,.81-.3,1.91-.67,2.29-1.52,.35-.79,.04-1.82-.21-2.59-.79-2.4-2.14-4.6-3.05-6.96-1.58-4.06-2.78-8.39-2.25-12.78,.06-.46-.66-.45-.72,0-.51,4.22,.57,8.41,2.04,12.34,.55,1.47,1.15,2.9,1.84,4.31,.65,1.3,1.36,2.64,1.67,4.06,.19,.88,.16,1.45-.67,1.95-.72,.44-1.58,.65-2.38,.92-2.05,.69-4.07,1.3-6.19,1.72-4.67,.92-9.43,1.1-14.18,1.12-.46,0-.46,.72,0,.72h0Z"/>
      <path class="cls-17" d="M82.31,80.4c2.04-1.58,4.01-3.23,6.01-4.84s4.07-2.76,5.87-4.46c.33-.32-.17-.82-.51-.51-1.8,1.7-3.95,2.92-5.87,4.46s-3.98,3.26-6.01,4.84c-.36,.28,.15,.78,.51,.51h0Z"/>
      <path class="cls-17" d="M73.28,88.35c1.28-1.11,2.55-2.24,3.81-3.37s2.53-2.13,3.8-3.19c.35-.29-.15-.8-.51-.51-1.27,1.06-2.57,2.08-3.8,3.19s-2.53,2.26-3.81,3.37c-.35,.3,.16,.81,.51,.51h0Z"/>
      <path class="cls-17" d="M61.42,97.44c1.75-1.31,3.57-2.53,5.32-3.84s3.48-2.67,5.17-4.08c.35-.3-.16-.8-.51-.51-1.69,1.42-3.42,2.77-5.18,4.09s-3.47,2.45-5.16,3.72c-.36,.27,0,.89,.36,.62h0Z"/>
      <path class="cls-17" d="M34.7,83.27s0,0-.07-.03c-.03-.02-.07-.03-.1-.05-.09-.04-.17-.09-.25-.13-.2-.11-.4-.24-.59-.37-.49-.34-.95-.72-1.38-1.13-1.1-1.06-2.01-2.34-2.52-3.79-.14-.4-.79-.23-.65,.18,.56,1.56,1.5,2.94,2.69,4.08,.78,.75,1.68,1.47,2.69,1.88,.4,.16,.57-.49,.18-.65h0Z"/>
      <path class="cls-17" d="M43.61,79.85c-1.17-2.04-1.6-4.46-1.18-6.78,.08-.45-.61-.64-.69-.19-.46,2.51-.03,5.11,1.25,7.33,.23,.4,.85,.04,.62-.36h0Z"/>
      <path class="cls-17" d="M126.3,217.13c-.98,6.49-1.68,13.01-2.37,19.53-.04,.4,.59,.4,.63,0,.68-6.47,1.37-12.93,2.34-19.36,.06-.4-.55-.57-.61-.17h0Z"/>
      <path class="cls-17" d="M130.67,197.22c-1.72,5.79-3.02,11.67-4.01,17.63-.07,.4,.54,.57,.61,.17,.99-5.96,2.29-11.84,4.01-17.63,.12-.39-.49-.56-.61-.17h0Z"/>
      <path class="cls-17" d="M135.14,156.42c4.59,12.96-.03,26.28-3.86,38.77-.12,.39,.49,.56,.61,.17,3.86-12.6,8.49-26.04,3.86-39.11-.13-.38-.74-.22-.61,.17h0Z"/>
      <path class="cls-17" d="M123.87,237.94c-1.13,11.22-.28,22.56,.72,33.75,.04,.4,.67,.4,.63,0-1-11.19-1.85-22.54-.72-33.75,.04-.4-.59-.4-.63,0h0Z"/>
      <path class="cls-17" d="M34.16,83.71c-.08,.48-.16,1.13-.06,1.62,.12,.59,.66,.6,1.16,.58,1.36-.05,2.71-.36,3.96-.89,1.99-.85,4.07-2.35,4.49-4.61,.08-.45-.6-.64-.69-.19-.34,1.83-1.9,3.07-3.48,3.87-.97,.49-2.02,.82-3.1,.99-.29,.05-.58,.08-.87,.1-.14,0-.6,.1-.72,.03-.17-.1-.04-1.09,0-1.3,.08-.45-.61-.64-.69-.19h0Z"/>
      <path class="cls-17" d="M38.96,71.47c-2.41,1.51-4.83,3.01-7.24,4.52-1.09,.68-2.17,1.47-3.31,2.06s-2.09,.17-2.77-.76c-3.67-4.98-7.33-9.97-11-14.95l-5.17-7.04c-.29-.39-.63-.78-.88-1.2-1.06-1.79,.7-2.58,1.93-3.34l8.49-5.24c1.07-.66,2.15-1.12,3.14,.07,.56,.68,1.03,1.47,1.53,2.19,3.71,5.3,7.42,10.6,11.13,15.91,.26,.37,.88,.02,.62-.36-3.57-5.1-7.15-10.21-10.72-15.31-1.2-1.71-2.66-4.96-5.25-3.61s-5.18,3.2-7.74,4.78c-1.84,1.14-5.49,2.61-3.69,5.36,1.26,1.92,2.74,3.72,4.1,5.57l12.52,17.03c.55,.75,1.05,1.59,2,1.87,1.41,.41,2.65-.68,3.77-1.38,2.97-1.85,5.94-3.7,8.9-5.55,.39-.24,.03-.86-.36-.62h0Z"/>
      <path class="cls-14" d="M28.63,76.4c-.71,.41-1.61,.22-2.09-.44l-15.72-21.91c-.53-.72-.33-1.73,.43-2.2l8.17-5.04c.69-.42,1.58-.24,2.05,.42,.46,.66,.91,1.33,1.37,1.99l3.16,4.58,3.52,5.11,2.46,3.58c.45,.65,.89,1.31,1.3,2,.05,.09,.1,.18,.1,.28,0,.4-.47,.81-.61,1.19-.17,.47-.22,.99-.15,1.49,.13,.84,.59,1.61,1.23,2.17,.27,.24,.57,.44,.92,.53,.31,.08,.63,.06,.95,0,.35-.06,.51-.21,.67,.18,.11,.28,.43,.75,.25,1.05-.09,.14-.31,.23-.45,.32l-1.01,.63-2.77,1.73c-1.26,.78-2.52,1.57-3.77,2.35Z"/>
      <path class="cls-17" d="M27.84,78.34c-1.22,.75-2.51,1.67-3.7,.26-.37-.44-.68-.93-1.01-1.4l-4.64-6.38-10.33-14.2c-.33-.45-.72-.9-1-1.38-1.16-1.94,1.03-2.99,2.36-3.92,.37-.26,.02-.88-.36-.62-1.04,.74-2.65,1.48-3,2.82-.26,.96,.14,1.74,.68,2.49l4.21,5.78,11.62,15.98c.31,.43,.61,.89,.95,1.3,1.42,1.73,3.05,.84,4.6-.11,.39-.24,.03-.86-.36-.62h0Z"/>
      <path class="cls-17" d="M110.48,66.62c.35,.19,.7,.38,1.06,.58l.15,.08c.16,.09,.4,.05,.49-.13s.05-.39-.13-.49c-.35-.19-.7-.38-1.06-.58l-.15-.08c-.16-.09-.4-.05-.49,.13s-.05,.39,.13,.49h0Z"/>
      <path class="cls-17" d="M90.4,267c0,3,0,6,0,8.99,0,.46,.72,.46,.72,0,0-3,0-6,0-8.99,0-.46-.72-.46-.72,0h0Z"/>
      <path class="cls-17" d="M100.27,266.79c0,2.84,0,5.68,0,8.52,0,.46,.72,.46,.72,0,0-2.84,0-5.68,0-8.52,0-.46-.72-.46-.72,0h0Z"/>
      <path class="cls-17" d="M59.28,115.24c7.24-1.62,13.97-5.34,20.08-9.44,.38-.25,.02-.87-.36-.62-6.07,4.07-12.73,7.75-19.91,9.36-.45,.1-.26,.79,.19,.69h0Z"/>
      <path class="cls-17" d="M101.88,65.2c-2.25,1.17-4.35,2.59-6.29,4.22-.35,.3,.16,.8,.51,.51,1.89-1.59,3.96-2.96,6.15-4.1,.41-.21,.05-.83-.36-.62h0Z"/>
      <path class="cls-6" d="M110.88,162.06c-3.65-.48-8.2-2.68-10.37-5.65-.67-.92-.49-1.05,.21-1.85,.45-.52,.89-1.03,1.33-1.56,.85-1.01,1.69-2.03,2.49-3.08,2.86-3.74-.59,.95,1.71-3.16,2.61-4.67,8.34,10.78,10.95,6.11l-1.7,2.48-4.62,6.71Z"/>
      <path class="cls-17" d="M101.43,69.85c2.28,2.64,6.28,2.91,8.93,.65,.2-.17-.09-.47-.29-.29-2.49,2.12-6.22,1.8-8.34-.65-.18-.2-.47,.09-.29,.29h0Z"/>
      <path class="cls-17" d="M102.83,273.96c.51,2.05,1.02,4.1,1.51,6.16,.11,.45,.8,.26,.69-.19-.49-2.06-.99-4.11-1.51-6.16-.11-.45-.8-.26-.69,.19h0Z"/>
      <path class="cls-17" d="M87.81,274.6c.7,1.21,2,1.81,3.28,2.23,1.37,.45,2.84,.64,4.28,.59,2.88-.11,5.64-1.18,7.82-3.06,.35-.3-.16-.8-.51-.51-1.97,1.7-4.5,2.69-7.09,2.84-1.24,.07-2.48-.04-3.68-.36-1.3-.34-2.79-.87-3.5-2.09-.23-.4-.85-.04-.62,.36h0Z"/>
      <path class="cls-17" d="M108.18,277.82c1.06,1.13,2.53,1.58,4.02,1.79,1.66,.23,3.38,.32,5.06,.17,1.57-.14,3.35-.48,4.67-1.4,1.52-1.07-.4-2.15-1.36-2.61-.41-.2-.78,.42-.36,.62,.29,.14,.58,.29,.85,.46,.38,.24,.89,.5,.47,.93s-1.26,.64-1.8,.81c-1.28,.4-2.63,.53-3.97,.54-2.31,0-5.37,0-7.07-1.82-.32-.34-.82,.17-.51,.51h0Z"/>
      <path class="cls-17" d="M108.59,277.69c.06-.05,.11-.11,.17-.15,.03-.03,.06-.05,.09-.07,0,0,.07-.05,.03-.02-.04,.03,.01,0,.02-.01,.14-.11,.29-.21,.44-.3s.3-.18,.45-.26c.07-.04,.14-.07,.21-.11,.04-.02,.08-.03,.11-.05-.02,0-.06,.03-.02,0,.02,0,.04-.02,.07-.03,.17-.07,.31-.24,.25-.44-.05-.17-.25-.32-.44-.25-.68,.27-1.36,.66-1.88,1.18-.13,.13-.14,.38,0,.51s.36,.14,.51,0h0Z"/>
      <path class="cls-17" d="M88.37,274.68c.74-.4,1.51-.69,2.34-.9,.19-.05,.3-.26,.25-.44s-.25-.3-.44-.25c-.87,.22-1.72,.55-2.51,.97-.17,.09-.22,.33-.13,.49,.1,.17,.32,.22,.49,.13h0Z"/>
      <path class="cls-17" d="M100.73,272.69c.23,.05,.45,.12,.67,.2,.03,.01,.06,.02,.08,.03,.02,0,.05,.02,.01,0,.05,.02,.1,.04,.15,.07,.1,.05,.2,.1,.3,.16,.41,.24,.69,.47,1.04,.8,.14,.13,.37,.14,.51,0s.14-.37,0-.51c-.36-.34-.75-.66-1.18-.91s-.9-.42-1.39-.53c-.19-.04-.39,.06-.44,.25-.05,.18,.06,.4,.25,.44h0Z"/>
      <path class="cls-17" d="M80.08,150.39c6.23,2.8,12.85,4.74,19.67,5.32,.27,.02,.26-.39,0-.41-6.75-.58-13.3-2.5-19.46-5.27-.24-.11-.45,.25-.21,.36h0Z"/>
      <path class="cls-17" d="M120.81,170.1c.86,4.58,5,8.2,9.63,8.51,.41,.03,.4-.6,0-.63-4.37-.29-8.22-3.75-9.02-8.05-.08-.4-.68-.23-.61,.17h0Z"/>
      <path class="cls-17" d="M76.09,172.24c3.85,.06,7.63-1.69,10.07-4.67,.25-.31-.19-.76-.45-.45-2.34,2.87-5.92,4.55-9.63,4.49-.41,0-.41,.62,0,.63h0Z"/>
      <path class="cls-2" d="M90.17,16.78c.89,1.01,1.8,2.05,2.98,2.7,.62,.34,1.28,.79,1.95,1,2.42,.77,4.86,1.53,7.39,1.73,1.02,.08,2.05,.07,3.07,.05,1.52-.02,3.03-.04,4.55-.06-1.1,2.35-1.26,5.02-1.63,7.57l.49,3.24,2.49,4.62,1.51,2.96-.69,10.52c-.12,1.86-.04,3.84-.37,5.67-.16,.88-.86,1.22-1.56,1.68-1.06,.7-2.19,1.25-3.34,1.77-1.12,.51-2.27,1-3.49,1.22-.88,.16-1.78,.16-2.65-.06-1.31-.33-2.55-.56-3.8-1.12-1.18-.53-2.31-1.18-3.37-1.93-2.2-1.56-4.08-3.55-5.6-5.77-3.37-4.94-4.96-10.98-4.88-16.93,.08-5.6,1.6-10.77,4.14-14.98"/>
      <path class="cls-17" d="M89.82,40.49c.03,.75,.41,1.46,1.05,1.86s1.51,.44,2.21,.12c.18-.08,.22-.33,.13-.49-.11-.18-.31-.21-.49-.13-.47,.21-1.05,.17-1.49-.12-.41-.27-.68-.77-.69-1.25,0-.19-.16-.36-.36-.36s-.36,.16-.36,.36h0Z"/>
      <path class="cls-23" d="M93.95,39.02c2.29,.69,4.87,.2,6.82-1.15,.5-.35,.78-1.04,.42-1.6-.32-.5-1.06-.79-1.6-.42-.21,.15-.43,.28-.65,.41-.11,.06-.23,.12-.34,.18-.05,.02-.43,.18-.16,.08-.45,.18-.91,.32-1.38,.41-.06,.01-.47,.1-.16,.03-.12,.03-.26,.03-.38,.04-.22,.01-.44,.02-.67,0-.13,0-.25-.02-.38-.03-.14-.02-.13-.01,.03,0-.06,0-.13-.02-.19-.03-.25-.04-.5-.11-.74-.18-.59-.18-1.3,.21-1.44,.82s.19,1.25,.82,1.44h0Z"/>
      <g>
        <g>
          <path class="cls-23" d="M87.3,38.93c2.32-.51,4.32-2.23,5.35-4.34,.27-.55,.17-1.29-.42-1.6-.53-.28-1.32-.17-1.6,.42-.11,.23-.23,.46-.37,.68-.06,.1-.13,.2-.19,.29-.04,.06-.08,.12-.12,.17-.03,.03-.15,.21-.04,.05s-.01,.01-.04,.05c-.04,.05-.09,.11-.14,.16-.08,.09-.16,.17-.24,.26-.18,.19-.37,.36-.56,.53-.04,.04-.09,.07-.14,.11-.11,.09,.21-.16,.04-.03-.1,.08-.21,.15-.31,.22-.2,.13-.41,.26-.63,.37-.11,.06-.23,.11-.35,.16-.13,.06,.25-.1,.05-.02-.07,.02-.13,.05-.2,.07-.24,.09-.49,.15-.74,.21-.6,.13-1.01,.86-.82,1.44,.2,.63,.8,.96,1.44,.82h0Z"/>
          <g>
            <g>
              <ellipse class="cls-5" cx="85.06" cy="31.22" rx="5.91" ry="5.57" transform="translate(-4.37 45.78) rotate(-29.4)"/>
              <path class="cls-20" d="M84.13,36.69c1.9,.47,3.78-.44,5.1-1.77,.66-.66,1.22-1.46,1.47-2.37,.29-1.06,.1-2.15-.14-3.2-.13-.59-.85-1-1.43-.81-.62,.2-.95,.79-.81,1.43,.05,.2,.09,.4,.13,.61,.02,.09,.03,.19,.05,.28-.04-.23,.01,.12,.01,.14,.02,.19,.02,.37,.01,.56,0,.03-.04,.32-.01,.18s-.03,.13-.04,.16c-.02,.09-.06,.18-.09,.28-.07,.21,.05-.08-.01,.03-.09,.15-.16,.31-.26,.46-.04,.07-.09,.13-.14,.2-.08,.11,.11-.13-.03,.03-.12,.13-.24,.27-.36,.39-.11,.11-.23,.22-.35,.33-.06,.05-.12,.1-.19,.16,.2-.17-.05,.03-.08,.05-.28,.2-.57,.36-.88,.51-.12,.06,.18-.06-.03,0-.09,.03-.18,.06-.27,.09-.06,.02-.12,.03-.18,.05-.04,0-.36,.08-.06,.02-.15,.03-.31,.03-.46,.02-.05,0-.35,.01-.06,0-.09,0-.19-.04-.28-.06-.59-.15-1.28,.19-1.43,.81s.18,1.27,.81,1.43h0Z"/>
            </g>
            <path class="cls-17" d="M89.91,28.5c1.08,1.98,.7,4.43-.8,6.09s-3.96,2.39-6.13,1.66-3.5-2.74-3.41-4.96,1.76-4.33,3.92-5.06c2.4-.81,5.12,.04,6.42,2.27,.23,.39,.83,.04,.6-.35-1.29-2.22-3.87-3.28-6.37-2.81s-4.64,2.48-5.14,5,.67,5.03,2.92,6.2,5.12,.77,7.08-.87c2.19-1.83,2.9-5,1.52-7.52-.22-.39-.82-.04-.6,.35Z"/>
          </g>
        </g>
        <path class="cls-17" d="M87.62,36.22c-1.1-.58-2.01-1.53-2.53-2.67-.84,.21-1.66,.45-2.48,.71l1.44-2.28s.04-.06,.04-.09c0-.04-.03-.07-.05-.1-1.18-1.44-1.75-3.35-1.56-5.2-.69,.41-1.39,.82-1.95,1.4-.2,.21-.37,.43-.53,.67-.51,.79-.75,1.74-.75,2.67s.26,1.87,.67,2.71c.19,.38,.41,.74,.67,1.06,.86,1.07,2.2,1.73,3.57,1.77l3.44-.66Z"/>
      </g>
      <path class="cls-17" d="M89.56,46.73c2.43,1.57,5.53,1.05,7.66-.77,.35-.3-.16-.8-.51-.51-1.9,1.62-4.65,2.05-6.79,.66-.39-.25-.75,.37-.36,.62h0Z"/>
      <path class="cls-17" d="M105.27,1.58c1.18-.31,2.38-.54,3.6-.69,.19-.02,.36-.15,.36-.36,0-.18-.16-.38-.36-.36-1.28,.15-2.54,.39-3.79,.71-.44,.12-.26,.81,.19,.69h0Z"/>
      <path class="cls-17" d="M90.73,11.03c3.37-4.26,7.99-7.38,13.15-9.04,.44-.14,.25-.83-.19-.69-5.27,1.7-10.02,4.87-13.47,9.23-.28,.36,.22,.87,.51,.51h0Z"/>
      <path class="cls-23" d="M100.79,24.02c2.61,.81,5.43,.85,8.06,.13,.59-.16,1.01-.84,.82-1.44s-.81-.99-1.44-.82c-2.25,.62-4.55,.57-6.81-.13-.58-.18-1.3,.22-1.44,.82-.14,.64,.19,1.24,.82,1.44h0Z"/>
      <g>
        <path class="cls-17" d="M114.78,2.41c3.02,.56,6.24,2.05,7.25,5.2,.08,.25,.48,.14,.4-.11-1.06-3.29-4.37-4.89-7.54-5.49-.26-.05-.37,.35-.11,.4h0Z"/>
        <path class="cls-17" d="M117.13,4.73c1.04,.27,1.98,.92,2.59,1.81,.15,.22,.51,.01,.36-.21-.67-.98-1.69-1.7-2.84-2-.26-.07-.37,.33-.11,.4h0Z"/>
      </g>
      <path class="cls-17" d="M82.76,35.72c-.07,8.9,3.64,17.94,11.15,23.05,.36,.25,.7-.34,.34-.58-7.31-4.97-10.88-13.82-10.82-22.47,0-.44-.67-.44-.68,0h0Z"/>
      <path class="cls-17" d="M89.7,16.62c-.6,.55-1.07,1.23-1.54,1.89-.52,.73-1.02,1.49-1.5,2.26-.93,1.52-1.76,3.1-2.48,4.73-.18,.42,.43,.78,.62,.36,.7-1.58,1.5-3.12,2.39-4.59,.44-.73,.91-1.44,1.39-2.13s.98-1.42,1.61-2c.34-.31-.17-.82-.51-.51h0Z"/>
      <g>
        <g>
          <ellipse class="cls-5" cx="95.81" cy="31.21" rx="5.91" ry="5.57" transform="translate(-1.53 57.27) rotate(-33.03)"/>
          <path class="cls-20" d="M95.16,36.71c1.93,.35,3.75-.59,5-2.03,.61-.7,1.16-1.51,1.35-2.43,.23-1.09,0-2.15-.3-3.2-.17-.58-.82-1-1.43-.81s-.99,.8-.81,1.43c.11,.38,.22,.76,.29,1.15,.07,.35,0-.2,.02,.16,0,.08,.01,.16,.01,.23,0,.12,0,.23,0,.35,0-.11,.01-.06,0,.02-.03,.16-.08,.32-.13,.48-.1,.3,.11-.19-.04,.09-.03,.06-.06,.12-.09,.18-.08,.15-.17,.29-.27,.43-.18,.27,.14-.16-.06,.09-.05,.06-.11,.13-.16,.19-.22,.25-.46,.49-.72,.71-.04,.03-.23,.16-.05,.04-.07,.05-.14,.1-.21,.15-.14,.09-.28,.18-.43,.26-.07,.04-.15,.07-.22,.11,.15-.07,.05-.02-.04,.01-.15,.06-.31,.1-.47,.14-.12,.03-.19,.03-.03,.01-.08,0-.16,.01-.24,.02s-.16,0-.24,0c-.25,0,.19,.04-.08,0-.59-.11-1.28,.16-1.43,.81-.13,.57,.17,1.31,.81,1.43h0Z"/>
        </g>
        <path class="cls-17" d="M100.47,28.16c1.19,1.88,1.01,4.27-.31,6.03s-3.83,2.76-6.06,2.16-3.72-2.52-3.75-4.76,1.43-4.33,3.49-5.23c2.34-1.02,5.19-.36,6.64,1.8,.25,.37,.85,.02,.6-.35-1.42-2.13-4.05-3.05-6.52-2.43s-4.47,2.74-4.84,5.28,.95,4.98,3.25,6.02,5.21,.49,7.07-1.31c2.04-1.96,2.57-5.15,1.04-7.57-.24-.38-.84-.03-.6,.35Z"/>
        <path class="cls-17" d="M98.8,35.87c-1.14-.51-2.1-1.4-2.69-2.5-.82,.26-1.63,.55-2.43,.87l1.3-2.37s.03-.06,.03-.09c0-.04-.03-.07-.06-.1-1.27-1.36-1.96-3.24-1.88-5.09-.66,.45-1.34,.91-1.85,1.52-.18,.22-.35,.45-.48,.7-.46,.82-.64,1.78-.57,2.72s.37,1.85,.84,2.66c.21,.36,.45,.71,.74,1.02,.93,1.01,2.31,1.59,3.68,1.54l3.4-.88Z"/>
      </g>
      <path class="cls-17" d="M92.63,27.74c-1.53-.76-2.12-2.47-2.01-4.09,.03-.46-.68-.46-.72,0-.12,1.86,.62,3.84,2.36,4.71,.41,.21,.77-.41,.36-.62h0Z"/>
      <path class="cls-17" d="M92.7,28.21c-.49-1.21-.46-2.6,.12-3.78,.2-.41-.41-.77-.62-.36-.66,1.34-.75,2.93-.2,4.33,.07,.18,.24,.3,.44,.25,.17-.05,.32-.26,.25-.44h0Z"/>
      <path class="cls-17" d="M81.06,28.65c-1.08-1.46-2.59-2.88-4.54-2.76-.46,.03-.46,.75,0,.72,1.69-.11,2.99,1.14,3.93,2.4,.11,.15,.31,.23,.49,.13,.15-.09,.24-.33,.13-.49h0Z"/>
      <path class="cls-17" d="M81.21,28.54c.08-2.27-.82-4.52-2.43-6.12-.33-.33-.83,.18-.51,.51,1.48,1.48,2.29,3.53,2.22,5.62-.02,.46,.7,.46,.72,0h0Z"/>
      <path class="cls-17" d="M81.39,27.99c.77-1.38,1.3-3.02,.73-4.57-.16-.43-.85-.24-.69,.19,.5,1.38,.02,2.8-.66,4.02-.23,.4,.39,.76,.62,.36h0Z"/>
      <path class="cls-17" d="M92.31,28.12c-.93-.04-1.82-.44-2.46-1.11s-1-1.63-.99-2.57c0-.46-.71-.46-.72,0-.02,1.13,.41,2.26,1.2,3.08s1.85,1.27,2.96,1.32c.46,.02,.46-.69,0-.72h0Z"/>
      <g>
        <path class="cls-17" d="M115.66,60.65c-.27-2.26-.22-4.54,.15-6.79,.04-.26-.36-.37-.4-.11-.38,2.28-.44,4.6-.16,6.9,.03,.26,.45,.27,.41,0h0Z"/>
        <path class="cls-17" d="M113.77,54.06c-.4,3.54-.14,7.09,.14,10.62,.02,.26,.44,.27,.41,0-.27-3.53-.54-7.09-.14-10.62,.03-.26-.39-.26-.41,0h0Z"/>
      </g>
      <path class="cls-17" d="M87.05,57.02c.42,3.65,1.98,6.99,4.23,9.87,.16,.21,.46-.09,.29-.29-2.18-2.78-3.71-6.05-4.11-9.57-.03-.26-.45-.27-.41,0h0Z"/>
      <ellipse class="cls-12" cx="104.4" cy="42.96" rx="3.25" ry="3.71"/>
      <path class="cls-17" d="M137.25,92.42c-.99-16.98-3.44-33.89-7.4-50.43-.11-.45-.8-.26-.69,.19,3.95,16.48,6.39,33.33,7.38,50.24,.03,.46,.74,.46,.72,0h0Z"/>
      <path class="cls-17" d="M130.48,13.57c-1.76-4.3-4.86-7.96-8.81-10.41-.39-.24-.75,.37-.36,.62,3.78,2.34,6.8,5.85,8.49,9.98,.17,.42,.86,.24,.69-.19h0Z"/>
      <path class="cls-17" d="M130.63,29.57c1.77-4.47,1.84-9.53,.51-14.12-.13-.44-.82-.25-.69,.19,1.3,4.49,1.23,9.38-.51,13.75-.17,.43,.52,.61,.69,.19h0Z"/>
      <g>
        <path class="cls-17" d="M128.87,47.01c.8,3.36,1.38,6.77,1.74,10.2,.03,.26,.44,.27,.41,0-.37-3.47-.95-6.92-1.76-10.31-.06-.26-.46-.15-.4,.11h0Z"/>
        <path class="cls-17" d="M128.53,51.79c.58,2.39,.94,4.82,1.07,7.28,.01,.27,.43,.27,.41,0-.13-2.49-.49-4.97-1.08-7.39-.06-.26-.46-.15-.4,.11h0Z"/>
      </g>
      <path class="cls-17" d="M90.04,62.4c.22,1.11,.82,2.14,1.68,2.88,.2,.17,.5-.12,.29-.29-.81-.7-1.36-1.65-1.57-2.7-.05-.26-.45-.15-.4,.11h0Z"/>
      <path class="cls-17" d="M105.06,267c2.59,1.53,5.57,2.35,8.58,2.39,3.63,.04,7.21-.79,10.86-.64,.41,.02,.41-.61,0-.63-3.43-.14-6.8,.54-10.22,.64-3.11,.09-6.22-.72-8.9-2.3-.35-.21-.67,.34-.32,.54h0Z"/>
      <path class="cls-17" d="M86.29,262.42c2.9,1.16,5.93,1.9,9.07,1.88s6.06-.69,9.02-1.4c.39-.09,.23-.7-.17-.61-2.9,.7-5.85,1.36-8.85,1.38s-6.05-.72-8.91-1.86c-.38-.15-.54,.46-.17,.61h0Z"/>
      <path class="cls-17" d="M114.51,156.99c6.46,.36,12.93-.7,18.93-3.13,.24-.1,.14-.5-.11-.4-5.97,2.41-12.39,3.48-18.82,3.11-.27-.02-.27,.4,0,.41h0Z"/>
      <path class="cls-7" d="M107.93,10.27c.54-2.58-1.67-4.66-4.1-4.9-1.31-.13-2.61,.29-3.76,.89-1.1,.57-2.17,1.33-2.9,2.34-1.46,2-1.29,5.21,.57,6.93,1.03,.96,2.59,1.4,3.94,.87,1.24-.48,1.99-1.6,2.06-2.85,1.93-.09,3.77-1.23,4.2-3.28Z"/>
      <path class="cls-7" d="M109.26,93.4c3.48-8.22,5.05-17.1,4.51-26.01-.06-.96-1.56-.97-1.5,0,.52,8.63-.93,17.29-4.31,25.26-.37,.88,.92,1.64,1.3,.76h0Z"/>
      <path class="cls-7" d="M133.12,93.58c-1.29-8.4-2.26-16.84-2.92-25.31-.08-.96-1.58-.96-1.5,0,.68,8.6,1.67,17.18,2.98,25.71,.15,.95,1.59,.55,1.45-.4h0Z"/>
      <path class="cls-7" d="M89.37,13.93c.6,2.58,2.54,4.71,5.01,5.63,.38,.14,.82-.16,.92-.52,.12-.42-.14-.78-.52-.92-.07-.03-.14-.05-.21-.08,.12,.05-.1-.04-.1-.04-.13-.06-.25-.12-.37-.18-.24-.13-.48-.28-.71-.43-.21-.15-.34-.25-.58-.47-.2-.19-.4-.38-.58-.59-.67-.76-1.17-1.73-1.42-2.78-.09-.39-.54-.63-.92-.52-.4,.11-.62,.53-.52,.92h0Z"/>
      <path class="cls-17" d="M112.39,20.72c-2.25,.91-4.66,1.01-7.06,.96s-4.58-.25-6.83-.67c-4.15-.76-9.01-2.96-9.32-7.79-.03-.45-.74-.46-.71,0,.3,4.62,4.51,7.25,8.63,8.22,2.47,.58,5.04,.83,7.57,.92,2.67,.1,5.4,.04,7.91-.97,.42-.17,.24-.85-.19-.68h0Z"/>
      <path class="cls-7" d="M84.13,19.11c.23-.94,.55-1.53,1.01-2.41,.42-.81,.86-1.62,1.33-2.4,.23-.38,.46-.76,.71-1.12,.12-.17,.24-.34,.36-.51,.06-.08,.12-.17,.19-.25-.12,.16,.08-.1,.1-.12,.28-.34,.57-.67,.88-.98,.15-.15,.29-.29,.45-.43,.1-.09,.19-.17,.29-.25,.03-.02,.28-.22,.12-.1,.62-.47,1.01-1.31,.54-2.05-.4-.62-1.38-1.05-2.05-.54-1.69,1.28-3,2.9-4.09,4.71-.5,.83-.96,1.68-1.41,2.54-.52,1-1.04,2.03-1.32,3.13-.19,.76,.25,1.66,1.05,1.85s1.64-.23,1.85-1.05h0Z"/>
      <path class="cls-17" d="M79.56,43.09c-1.41-8.46-1.21-17.36,1.99-25.41,2.63-6.61,8.35-13.63,16.18-13.14,.46,.03,.46-.69,0-.72-7.76-.49-13.69,6.19-16.49,12.76-3.58,8.4-3.85,17.79-2.36,26.69,.08,.45,.76,.26,.69-.19h0Z"/>
      <path class="cls-17" d="M80.97,49.39c-.4-1.48-.77-2.98-1.08-4.48-.09-.45-.78-.26-.69,.19,.32,1.5,.68,3,1.08,4.48,.12,.44,.81,.26,.69-.19h0Z"/>
      <path class="cls-17" d="M90.17,73.69c-3.3-7.48-6.49-15.01-8.75-22.88-.13-.44-.82-.25-.69,.19,2.27,7.93,5.5,15.52,8.82,23.05,.19,.42,.8,.06,.62-.36h0Z"/>
      <path class="cls-7" d="M109.49,24.49c-1.16,3.3-1.49,6.56,.07,9.78,1.26,2.62,3.47,5.07,3.38,8.13-.03,.97,1.47,.96,1.5,0,.09-2.92-1.64-5.33-3-7.77-.72-1.3-1.36-2.66-1.48-4.16-.15-1.92,.34-3.78,.97-5.58,.32-.91-1.13-1.31-1.45-.4h0Z"/>
      <path class="cls-17" d="M112.08,48.05c-.58,4.62-1.22,9.25-.96,13.92,.03,.46,.74,.46,.72,0-.26-4.67,.38-9.3,.96-13.92,.06-.46-.66-.45-.72,0h0Z"/>
      <path class="cls-17" d="M109.63,21.81c-1.49,3.58-2.42,7.7-1.28,11.52,.59,1.95,1.84,3.44,2.87,5.15,1.34,2.24,1.37,4.72,1.13,7.25-.04,.46,.67,.45,.72,0,.19-2.02,.26-4.11-.46-6.04s-2.2-3.37-3.06-5.19c-1.87-3.98-.85-8.62,.76-12.5,.18-.42-.51-.61-.69-.19h0Z"/>
      <path class="cls-17" d="M136.76,92.08c-1.74,1.3-4.12,2.02-6.2,2.57-2.42,.64-4.91,1.01-7.42,1.13-3.64,.17-7.27-.19-10.76-1.25-1.23-.37-2.45-.75-3.67-1.15-.31-.1-.92-.18-1.17-.4-.02-.02-.09-.02-.11-.04,.2,.38,.29-.02,.39-.1,.4-.31,.66-1.29,.86-1.74,1.73-3.9,2.92-8.21,3.44-12.44,.69-5.61,.14-11.34-.32-16.95-.04-.46-.75-.46-.72,0,.44,5.38,.95,10.85,.4,16.24-.28,2.7-.9,5.33-1.69,7.92s-1.6,4.92-2.91,7.16c-.06,.11-.07,.26,0,.36,.19,.3,.77,.39,1.07,.49,.88,.3,1.77,.58,2.66,.85,1.97,.61,3.87,1.17,5.92,1.46,3.56,.49,7.18,.44,10.73-.13,1.81-.29,3.6-.7,5.34-1.28,1.5-.5,3.24-1.14,4.51-2.09,.36-.27,0-.89-.36-.62h0Z"/>
      <path class="cls-5" d="M97.22,11.04c-.07-.23-.06-.38-.02-.57,.02-.06,.03-.13,.05-.19,0,0,.08-.21,.04-.12,.05-.12,.12-.24,.18-.36,.06-.11,.13-.22,.2-.32,.04-.06,.08-.12,.13-.18,0-.01,.12-.16,.07-.1,.09-.12,.32-.37,.48-.53,.17-.17,.36-.34,.55-.49s-.11,.08,.08-.06c.05-.04,.1-.07,.15-.11,.1-.07,.2-.14,.31-.2,.22-.13,.45-.26,.68-.36,0,0,.22-.09,.09-.04,.05-.02,.09-.04,.14-.05,.14-.05,.28-.1,.42-.14,.37-.12,.65-.53,.52-.92s-.52-.65-.92-.52c-1.2,.37-2.31,1.04-3.18,1.95s-1.84,2.36-1.42,3.73c.12,.37,.53,.65,.92,.52s.65-.52,.52-.92h0Z"/>
      <path class="cls-5" d="M103.22,6.43c.97,0,.97-1.5,0-1.5s-.97,1.5,0,1.5h0Z"/>
      <path class="cls-7" d="M104.05,17.1c.97,0,.97-1.5,0-1.5s-.97,1.5,0,1.5h0Z"/>
      <path class="cls-1" d="M115.45,21.3c.3,.27,.58,.55,.84,.86,.04,.04,.07,.09,.11,.13-.05-.06-.02-.03,0,.01,.06,.08,.12,.17,.18,.25,.12,.17,.23,.35,.33,.52,.1,.17,.19,.34,.27,.52,.02,.05,.05,.1,.07,.16,0,.01,.06,.14,.03,.07s.02,.06,.03,.07c.02,.05,.04,.11,.06,.16,.14,.39,.25,.79,.33,1.19s.56,.64,.92,.52c.41-.13,.6-.51,.52-.92-.34-1.77-1.29-3.42-2.64-4.61-.29-.26-.77-.31-1.06,0-.26,.28-.31,.78,0,1.06h0Z"/>
      <path class="cls-1" d="M119.52,23.45c1.11,2.02,1.56,4.4,1.22,6.69-.06,.4,.1,.81,.52,.92,.35,.1,.86-.12,.92-.52,.4-2.7-.06-5.44-1.37-7.84-.46-.85-1.76-.09-1.3,.76h0Z"/>
      <path class="cls-17" d="M118.73,22.86c2.53,3.67,1.54,8.18,.64,12.21-.8,3.59-1.46,7.31,.04,10.81,.18,.42,.8,.06,.62-.36-3.19-7.47,4.25-15.88-.67-23.02-.26-.38-.88-.02-.62,.36h0Z"/>
      <path class="cls-17" d="M118.04,25.75c-.24-1.96-1.25-3.74-2.82-4.94-.21-.16-.42,.2-.21,.36,1.43,1.1,2.39,2.79,2.61,4.58,.03,.26,.45,.26,.41,0h0Z"/>
      <path class="cls-1" d="M128.29,17.33c.01-2.21-.25-4.42-.76-6.57-.22-.94-1.67-.54-1.45,.4,.48,2.03,.72,4.09,.7,6.18,0,.97,1.49,.97,1.5,0h0Z"/>
      <path class="cls-17" d="M110.45,.76c2.38-.12,4.85-.03,7.1,.8,1.93,.71,3.6,2.01,4.92,3.58,3.05,3.63,3.89,8.49,3.7,13.1-.02,.46,.7,.46,.72,0,.2-4.81-.73-9.83-3.91-13.6-1.34-1.59-3.04-2.89-4.99-3.66C115.62,.03,112.97-.09,110.45,.04c-.46,.02-.46,.74,0,.72h0Z"/>
      <path class="cls-1" d="M120.87,43.44c1.94,1,4.16,1.28,6.29,.8,.4-.09,.63-.55,.52-.92-.11-.41-.53-.61-.92-.52-1.72,.39-3.56,.16-5.14-.65-.36-.18-.81-.09-1.03,.27-.2,.34-.09,.84,.27,1.03h0Z"/>
      <g>
        <path class="cls-2" d="M120.24,33.97c1.41-1.81,2.95-3.27,5.1-4.07s4.79-.56,6.41,1.06c1.13,1.13,1.63,2.8,1.59,4.4-.07,3.28-2.41,6.39-5.54,7.37-3.13,.99-6.82-.22-8.76-2.87"/>
        <path class="cls-23" d="M125.55,34.81c.2,.02-.24-.04-.04,0,.04,0,.09,.01,.13,.02,.1,.02,.2,.04,.3,.06,.19,.05,.38,.1,.56,.17,.04,.02,.09,.03,.13,.05,.08,.03,.2,.12-.02-.01,.08,.05,.18,.08,.26,.12,.19,.09,.37,.2,.55,.31,.08,.05,.16,.11,.24,.16,.17,.12-.17-.14-.01-.01,.04,.03,.07,.06,.11,.09,.15,.13,.3,.27,.43,.43,.04,.04,.08,.09,.11,.13,.11,.13-.09-.13-.03-.04,.06,.09,.12,.17,.18,.27,.05,.08,.1,.17,.15,.26,.03,.05,.05,.11,.08,.16,.08,.17-.08-.2,0-.01,.1,.24,.21,.44,.44,.58,.21,.12,.51,.17,.75,.1,.45-.15,.88-.69,.68-1.19-.43-1.07-1.13-1.92-2.09-2.56-.87-.58-1.87-.89-2.89-1.02-.23-.03-.53,.13-.68,.28-.17,.17-.29,.44-.28,.68s.09,.51,.28,.68c.2,.19,.41,.25,.68,.28h0Z"/>
        <path class="cls-17" d="M125,33.4c2.23-.13,4.46,1.25,5.28,3.35,.14,.35,.71,.2,.57-.16-.91-2.33-3.34-3.93-5.85-3.78-.38,.02-.38,.61,0,.59h0Z"/>
        <path class="cls-17" d="M127.92,33.78c-1.45,.98-2.34,2.69-2.26,4.44,.02,.38,.61,.38,.59,0-.07-1.54,.69-3.07,1.97-3.93,.31-.21,.02-.72-.3-.51h0Z"/>
        <path class="cls-5" d="M127.47,32.05s.06-.03,.09-.04l-.19,.08c.21-.09,.42-.15,.65-.18l-.21,.03c.23-.03,.47-.03,.7,0l-.21-.03c.15,.02,.29,.06,.44,.1,.39,.13,.88-.15,.97-.55,.1-.43-.13-.83-.55-.97-.37-.12-.78-.17-1.17-.15-.47,.03-.88,.15-1.31,.34-.17,.08-.31,.3-.36,.47-.05,.19-.03,.44,.08,.61s.27,.32,.47,.36l.21,.03c.14,0,.27-.04,.4-.11h0Z"/>
        <path class="cls-5" d="M130.71,33.46c1.01,0,1.01-1.57,0-1.57s-1.01,1.57,0,1.57h0Z"/>
        <path class="cls-17" d="M120.44,34.17c1.47-1.87,3.29-3.61,5.67-4.22s5.09,.08,6.28,2.37c2.29,4.43-1.45,10.02-6.19,10.43-2.63,.22-5.31-.93-6.91-3.04-.22-.29-.72,0-.5,.29,1.52,2.01,3.88,3.23,6.39,3.34s5.02-1.07,6.61-3.08,2.29-4.69,1.53-7.16-3.1-4.02-5.73-3.94c-3.17,.1-5.69,2.22-7.55,4.6-.23,.29,.18,.7,.41,.41h0Z"/>
      </g>
      <path class="cls-24" d="M102.54,62.92c2.87,.59,5.7-.53,7.84-2.43,.3-.27,.27-.79,0-1.06-.3-.3-.76-.27-1.06,0-1.72,1.52-4.07,2.52-6.38,2.04-.4-.08-.81,.11-.92,.52-.1,.37,.13,.84,.52,.92h0Z"/>
      <path class="cls-17" d="M110.15,58.76c0,2.36,.01,4.73,0,7.09,0,.76-.17,1.49-.72,2.05-.76,.77-1.92,1-2.95,1.02s-2.13-.14-2.96-.76c-.73-.55-1-1.38-1.01-2.27,0-1.33,0-2.66,0-3.99,0-.41-.64-.41-.64,0,0,1.31,0,2.63,0,3.94,0,.86,.19,1.68,.75,2.35,.69,.82,1.75,1.19,2.78,1.32,2.01,.25,4.63-.27,5.25-2.51,.14-.52,.13-1.06,.13-1.6v-2.26c0-1.46,0-2.92,0-4.38,0-.41-.64-.41-.64,0h0Z"/>
      <path class="cls-17" d="M94.95,59.42c2.65,1.53,5.78,2.51,8.86,2.28s5.75-1.64,7.76-3.83c.29-.32-.18-.8-.48-.48-1.95,2.12-4.66,3.5-7.55,3.65s-5.78-.78-8.26-2.21c-.38-.22-.72,.37-.34,.58h0Z"/>
      <path class="cls-10" d="M115,103.17c2.48,4.66,2.16,10.2,3.24,15.24,.3,1.42,2.47,.82,2.17-.6-1.13-5.28-.86-10.89-3.47-15.78-.68-1.28-2.62-.14-1.94,1.14h0Z"/>
      <path class="cls-17" d="M120.79,119.97c.08-6.43-1.46-12.67-3.42-18.75-.14-.44-.83-.25-.69,.19,1.94,6.02,3.47,12.2,3.39,18.56,0,.46,.71,.46,.72,0h0Z"/>
      <path class="cls-5" d="M44.27,84.79c1.41,1.37,2.82,2.75,4.24,4.12,.28,.27,.78,.3,1.06,0s.3-.77,0-1.06c-1.41-1.37-2.82-2.75-4.24-4.12-.28-.27-.78-.3-1.06,0s-.3,.77,0,1.06h0Z"/>
      <path class="cls-5" d="M50.73,90.81c.97,0,.97-1.5,0-1.5s-.97,1.5,0,1.5h0Z"/>
      <path class="cls-5" d="M92.35,76.85l2.65-2.05c.14-.11,.22-.36,.22-.53,0-.18-.08-.4-.22-.53s-.33-.23-.53-.22c-.21,0-.36,.09-.53,.22l-2.65,2.05c-.14,.11-.22,.36-.22,.53,0,.18,.08,.4,.22,.53s.33,.23,.53,.22c.21,0,.36-.09,.53-.22h0Z"/>
      <path class="cls-5" d="M97.21,73.07c.97,0,.97-1.5,0-1.5s-.97,1.5,0,1.5h0Z"/>
      <path class="cls-17" d="M122.81,96.02c-.47-4.54-.57-9.11-.3-13.67,.02-.27-.4-.27-.41,0-.27,4.56-.17,9.13,.3,13.67,.03,.26,.44,.27,.41,0h0Z"/>
      <path class="cls-17" d="M124.45,95.92c-.28-2.76-.32-5.54-.12-8.3,.02-.27-.4-.27-.41,0-.2,2.77-.16,5.54,.12,8.3,.03,.26,.44,.27,.41,0h0Z"/>
      <path class="cls-4" d="M82.85,101.51c-1.01-1.77-.78-4.27-.31-6.18,.51-2.07,1.53-3.96,3.02-5.48,1.02-1.03-.57-2.63-1.59-1.59-1.8,1.83-3.08,4.16-3.65,6.67s-.7,5.45,.59,7.71c.72,1.26,2.66,.13,1.94-1.14h0Z"/>
      <path class="cls-16" d="M102.71,182.82c-2.44,13.96-3.73,28.21-2.31,42.36,.19,1.9,3.19,1.92,3,0-1.4-13.88-.19-27.86,2.2-41.56,.33-1.89-2.56-2.7-2.89-.8h0Z"/>
      <path class="cls-17" d="M101.56,235.68c-1.69-18.75-1.86-37.77,1.98-56.28,.08-.4-.53-.57-.61-.17-3.85,18.57-3.69,37.64-2,56.45,.04,.4,.67,.4,.63,0h0Z"/>
      <path class="cls-17" d="M124.92,271.4c-3.99-.07-7.97,.53-11.96,.4-2.1-.07-4.29-.36-6.23-1.19-1.3-.55-1.12-1.78-1.23-2.95-.08-.86-.23-1.73-.36-2.58-1.26-8.91-2.45-17.84-3.33-26.8-.04-.4-.67-.4-.63,0,.96,9.72,2.51,19.34,3.64,29.03,.15,1.3-.06,2.94,1.25,3.69,1.55,.88,3.58,1.17,5.33,1.34,4.5,.43,9.02-.38,13.53-.31,.41,0,.41-.62,0-.63h0Z"/>
      <path class="cls-5" d="M85.21,241c-.33-2.98-.83-5.95-1.16-8.93-.04-.4-.31-.75-.75-.75-.37,0-.79,.34-.75,.75,.33,2.98,.83,5.95,1.16,8.93,.04,.4,.31,.75,.75,.75,.37,0,.79-.34,.75-.75h0Z"/>
      <path class="cls-5" d="M79.9,195.05c0-1.56-.04-3.13-.12-4.69-.02-.39-.33-.77-.75-.75-.39,.02-.77,.33-.75,.75,.08,1.56,.12,3.13,.12,4.69,0,.39,.35,.77,.75,.75s.75-.33,.75-.75h0Z"/>
      <path class="cls-5" d="M79.16,203.92c.09,.89,.84,1.55,1.61,2.02s1.61,.84,2.16,1.54c1.01,1.3,.62,3.17,1,4.78,.28,1.2,1.02,2.32,.97,3.56-.04,1.03-.63,1.94-1.2,2.8-.82,1.23-1.64,2.47-2.46,3.7-.59-5.34-1.29-10.56-1.77-15.92"/>
      <path class="cls-17" d="M81.15,225.62c1.07,8.27,2.27,16.52,3.46,24.77,.31,2.15,.72,4.31,.87,6.48,.14,1.97,.18,3.92,.44,5.88,.14,1,.02,3.01,1.1,3.55,.76,.37,1.87,.44,2.69,.58,.89,.15,1.79,.26,2.69,.34,4.27,.37,8.49,0,12.47-1.67,.37-.16,.05-.7-.32-.54-4.61,1.95-9.78,2.08-14.67,1.27-1.23-.2-2.62-.19-3.04-1.55-.33-1.06-.36-2.3-.48-3.4-.24-2.23-.22-4.46-.53-6.68-1.36-9.67-2.82-19.33-4.07-29.01-.05-.4-.68-.4-.63,0h0Z"/>
      <path class="cls-17" d="M77.61,185.98c.46,12.77,1.69,25.5,3.3,38.18,.05,.4,.68,.4,.63,0-1.61-12.68-2.84-25.4-3.3-38.18-.01-.4-.65-.41-.63,0h0Z"/>
      <path class="cls-17" d="M78.27,153.41c-.82,10.26-.99,20.55-.68,30.83,.01,.4,.64,.41,.63,0-.31-10.28-.14-20.57,.68-30.83,.03-.4-.6-.4-.63,0h0Z"/>
      <path class="cls-17" d="M119.91,172.56c.28,.74,.64,1.45,1.09,2.11,.1,.14,.28,.2,.43,.11,.14-.08,.21-.29,.11-.43-.42-.61-.78-1.28-1.03-1.96-.06-.15-.22-.28-.39-.22-.15,.05-.28,.22-.22,.39h0Z"/>
      <path class="cls-17" d="M122.2,176.22l1.48,1.3c.12,.11,.33,.13,.45,0,.11-.12,.13-.33,0-.45l-1.48-1.3c-.12-.11-.33-.13-.45,0-.11,.12-.13,.33,0,.45h0Z"/>
      <path class="cls-17" d="M125.49,178.76l1.33,.64c.15,.07,.35,.05,.43-.11,.07-.14,.05-.36-.11-.43l-1.33-.64c-.15-.07-.35-.05-.43,.11-.07,.14-.05,.36,.11,.43h0Z"/>
      <path class="cls-17" d="M128.73,180.24l.07,.07s.06,.05,.1,.07c.04,.02,.08,.03,.12,.03,.04,0,.08,0,.12-.03,.04-.01,.07-.03,.1-.07l.05-.06s.04-.1,.04-.16v-.08c-.03-.05-.05-.1-.09-.14l-.07-.07s-.06-.05-.1-.07c-.04-.02-.08-.03-.12-.03-.04,0-.08,0-.12,.03-.04,.01-.07,.03-.1,.07l-.05,.06s-.04,.1-.04,.16v.08c.03,.05,.05,.1,.09,.14h0Z"/>
      <path class="cls-17" d="M79.48,173.74c.56-.08,1.1-.25,1.61-.5,.15-.07,.2-.3,.11-.43-.1-.15-.27-.19-.43-.11-.06,.03-.12,.06-.18,.08-.01,0-.12,.05-.05,.02-.03,.01-.05,.02-.08,.03-.12,.05-.25,.09-.38,.13-.25,.08-.51,.13-.77,.17-.16,.02-.27,.24-.22,.39,.06,.18,.21,.24,.39,.22h0Z"/>
      <path class="cls-17" d="M82.41,172.55c.54-.19,1.04-.49,1.47-.88,.12-.11,.12-.33,0-.45-.13-.12-.32-.12-.45,0-.05,.04-.1,.09-.15,.13-.02,.02-.05,.04-.07,.06-.03,.03,.05-.03,.01,0-.01,0-.02,.02-.04,.03-.1,.08-.21,.15-.32,.21s-.22,.12-.33,.18c-.03,.01-.05,.03-.08,.04-.01,0-.03,.01-.04,.02-.04,.02,0,0,.01,0-.06,.03-.13,.05-.19,.07-.15,.06-.28,.22-.22,.39,.05,.15,.22,.28,.39,.22h0Z"/>
      <path class="cls-17" d="M85.19,170.9c.5-.3,.98-.65,1.41-1.04,.12-.11,.12-.33,0-.45-.13-.12-.31-.12-.45,0-.1,.09-.2,.18-.31,.27-.05,.04-.11,.09-.16,.13-.03,.02-.01,.01,0,0-.01,.01-.03,.02-.04,.03-.03,.02-.06,.04-.09,.07-.22,.16-.45,.32-.69,.46-.14,.08-.21,.29-.11,.43s.28,.2,.43,.11h0Z"/>
      <path class="cls-5" d="M81.59,284.48c.97-1.37,2-2.69,3.1-3.95,.54-.62,1.1-1.23,1.67-1.82s1.13-1.27,1.83-1.68c.83-.49,.08-1.79-.76-1.3-.76,.45-1.37,1.14-1.99,1.77s-1.23,1.3-1.81,1.97c-1.19,1.36-2.3,2.78-3.34,4.25-.23,.33-.06,.83,.27,1.03,.38,.22,.79,.06,1.03-.27h0Z"/>
      <path class="cls-17" d="M87.72,274.29c-4.78,3.33-8.16,8.08-11.35,12.87-.93,1.39-2.3,3.53-.29,4.64,1.27,.7,2.94,.96,4.35,1.21s2.98,.4,4.49,.45c3.69,.11,7.38-.37,10.99-1.09,.45-.09,.26-.78-.19-.69-3.62,.71-7.29,1.18-10.99,1.05-1.81-.06-3.61-.27-5.37-.67-.82-.18-1.65-.38-2.43-.68-1.14-.43-1.4-1.09-.95-2.15,.49-1.15,1.31-2.2,2-3.23,.94-1.39,1.9-2.76,2.93-4.08,2.07-2.65,4.4-5.1,7.16-7.03,.37-.26,.02-.88-.36-.62h0Z"/>
      <path class="cls-17" d="M81.21,281.27c.79,.15,1.61,.3,2.34,.66,.66,.33,1.22,.83,1.62,1.45,.25,.39,.87,.03,.62-.36-.45-.7-1.07-1.29-1.81-1.68-.8-.42-1.69-.59-2.58-.76-.45-.09-.64,.6-.19,.69h0Z"/>
      <path class="cls-17" d="M82.85,279.61c.79,.15,1.61,.3,2.34,.66,.66,.33,1.22,.83,1.62,1.45,.25,.39,.87,.03,.62-.36-.45-.7-1.07-1.29-1.81-1.68-.8-.42-1.69-.59-2.58-.76-.45-.09-.64,.6-.19,.69h0Z"/>
      <path class="cls-17" d="M84.63,277.68c.79,.15,1.61,.3,2.34,.66,.66,.33,1.22,.83,1.62,1.45,.25,.39,.87,.03,.62-.36-.45-.7-1.07-1.29-1.81-1.68-.8-.42-1.69-.59-2.58-.76-.45-.09-.64,.6-.19,.69h0Z"/>
      <path class="cls-5" d="M101.56,288.19c1.6-2.75,3.73-5.19,6.29-7.09,.32-.24,.49-.65,.27-1.03-.19-.32-.7-.51-1.03-.27-2.76,2.06-5.09,4.64-6.82,7.63-.49,.84,.81,1.59,1.3,.76h0Z"/>
      <g>
        <path class="cls-17" d="M107.95,277.22c-3.81,2.66-6.78,6.24-9.43,10.02-1.03,1.48-2.3,3.04-2.99,4.72-.57,1.38-.19,2.38,1.21,2.96,4.45,1.84,9.88,1.72,14.56,1.16,2.38-.28,4.77-.69,7.09-1.27,1.62-.4,3.36-1.01,4.44-2.36,1.45-1.83,1.18-4.58,1.01-6.75-.22-2.8-.74-5.58-1.29-8.33-.09-.45-.78-.26-.69,.19,.42,2.1,.82,4.21,1.08,6.34,.25,1.99,.52,4.2,.15,6.18-.76,4.08-6.32,4.45-9.62,4.98-4.27,.69-8.68,.93-12.95,.13-.96-.18-1.92-.41-2.86-.7-.68-.21-1.54-.5-1.72-1.31-.09-.38,.26-1.01,.42-1.33,.68-1.37,1.66-2.64,2.53-3.9,2.63-3.81,5.59-7.44,9.42-10.12,.37-.26,.02-.88-.36-.62h0Z"/>
        <path class="cls-17" d="M109.95,272.18c0,2.15,0,4.3,0,6.45,0,.46,.72,.46,.72,0,0-2.15,0-4.3,0-6.45,0-.46-.72-.46-.72,0h0Z"/>
        <path class="cls-17" d="M119.82,271.98c0,2.12,0,4.24,0,6.35,0,.46,.72,.46,.72,0,0-2.12,0-4.24,0-6.35,0-.46-.72-.46-.72,0h0Z"/>
      </g>
      <path class="cls-17" d="M103.43,282.19c.26-.15,.59-.05,.86,.02,.33,.08,.66,.18,.98,.31,.63,.24,1.22,.59,1.76,.99,.15,.12,.4,.03,.49-.13,.11-.18,.03-.37-.13-.49-.63-.47-1.32-.84-2.06-1.11-.35-.13-.72-.24-1.08-.31-.4-.08-.81-.1-1.18,.1-.4,.22-.04,.84,.36,.62h0Z"/>
      <path class="cls-17" d="M101.59,284.32c1.22,.2,2.38,.64,3.42,1.31,.39,.25,.75-.37,.36-.62-1.09-.7-2.31-1.18-3.59-1.38-.19-.03-.38,.05-.44,.25-.05,.17,.06,.41,.25,.44h0Z"/>
      <path class="cls-17" d="M99.62,286.75c1.07,.19,2.08,.6,2.98,1.2,.16,.11,.4,.03,.49-.13,.1-.18,.03-.38-.13-.49-.95-.63-2.03-1.07-3.15-1.27-.19-.03-.39,.05-.44,.25-.05,.17,.06,.41,.25,.44h0Z"/>
      <path class="cls-5" d="M117.03,136.17c-.57-.38-1.14-.77-1.67-1.2-.36-.3-.88-1.1-1.4-1.08-.58,.02-.9,.94-1.14,1.36-.35,.62-.68,1.24-1.01,1.86-.11,.2-.43,.62-.41,.85,.01,.21,.32,.46,.45,.61,.36,.43,.74,.84,1.14,1.24,2.32,2.33,5.19,4.12,8.32,5.14,.29,.1,.62,.19,.9,.07,.2-.08,.35-.26,.49-.43,.91-1.11,1.83-2.22,2.74-3.33-.67-.66-1.62-.92-2.48-1.3-.88-.39-1.67-.93-2.47-1.46-1.16-.78-2.31-1.56-3.47-2.34Z"/>
      <path class="cls-17" d="M113.68,133.71c3.44,3.13,7.37,5.67,11.63,7.52,.42,.18,.78-.43,.36-.62-4.21-1.82-8.09-4.32-11.48-7.41-.34-.31-.85,.2-.51,.51h0Z"/>
      <path class="cls-17" d="M111.09,138.46c3.21,2.94,6.63,5.98,10.96,7.05,.45,.11,.64-.58,.19-.69-4.22-1.04-7.52-4.01-10.65-6.87-.34-.31-.85,.19-.51,.51h0Z"/>
      <path class="cls-17" d="M111.12,161.12c-.52,.73-1.6,.21-2.38,.04-1.05-.24-2.08-.56-3.06-1.01-1.82-.84-3.44-2.09-4.71-3.64-.63-.77-.86-1.09-.29-1.98,.21-.33,.54-.63,.8-.93,.65-.77,1.3-1.54,1.93-2.32,1.22-1.52,2.36-3.08,3.39-4.74,2.21-3.59,4.08-7.39,6.13-11.07l6.64-11.89c.22-.4-.39-.76-.62-.36-3.98,7.13-7.79,14.36-11.86,21.43-1.92,3.34-4.27,6.31-6.78,9.23-.87,1.01-1.11,1.47-.27,2.6,.91,1.24,2.05,2.31,3.32,3.18,1.57,1.08,3.34,1.79,5.19,2.21,.65,.15,1.67,.54,2.34,.44,.45-.07,.58-.43,.85-.8s-.35-.73-.62-.36h0Z"/>
      <path class="cls-17" d="M112.39,160.44c4.45-6.57,9.13-12.96,13.71-19.43,2.88-4.06,5.69-8.18,7.16-12.99s1.79-10.21,1.69-15.36c-.12-6.34-.08-12.66,.08-19,.01-.46-.7-.46-.72,0-.14,5.55-.28,11.11-.14,16.66s.14,10.6-1.13,15.78c-2.11,8.58-8.3,15.35-13.28,22.41-2.71,3.83-5.35,7.7-7.99,11.58-.26,.38,.36,.74,.62,.36h0Z"/>
      <path class="cls-3" d="M19.5,47.45c2.8,9.44,4.2,19.25,7.29,28.61,.3,.91,1.75,.52,1.45-.4-3.09-9.36-4.49-19.17-7.29-28.61-.27-.92-1.72-.53-1.45,.4h0Z"/>
      <path class="cls-3" d="M23.29,52.17c1.85,7.69,3.67,15.37,5.79,22.98,.26,.93,1.71,.53,1.45-.4-2.12-7.62-3.94-15.3-5.79-22.98-.23-.94-1.67-.54-1.45,.4h0Z"/>
      <path class="cls-18" d="M34.98,70.37c-.43,.19-1.04-.22-1.35-.48-.45-.38-.83-.87-1.05-1.42-.47-1.16-.25-2.45,.47-3.45,.24-.33,.06-.83-.27-1.03-.38-.22-.79-.06-1.03,.27-1.06,1.49-1.2,3.46-.41,5.1,.74,1.55,2.61,3.09,4.38,2.3,.37-.16,.46-.7,.27-1.03-.22-.38-.65-.43-1.03-.27h0Z"/>
      <path class="cls-17" d="M42.11,69.94c-.2-1.64-.98-3.09-2.1-4.28s-2.63-2.35-4.32-2.26c-1.59,.08-2.97,1.18-3.44,2.71s.17,3.1,1.47,3.92c1.41,.9,3.36,.51,4.41-.75,.29-.35-.21-.86-.51-.51-.77,.93-2.13,1.33-3.26,.8s-1.79-1.91-1.47-3.14c.35-1.33,1.55-2.31,2.94-2.32s2.64,1,3.57,1.95c1.03,1.06,1.81,2.4,1.99,3.88,.06,.45,.77,.46,.72,0h0Z"/>
      <g>
        <path class="cls-17" d="M16.46,61.55c-1.7-2.37-3.41-4.75-5.11-7.12-.54-.75-1.01-1.53-.04-2.34,.27-.23,.63-.39,.94-.58l4.65-2.87c1.04-.64,2.99-2.42,4.19-1.35,.5,.44,.86,1.22,1.23,1.76l6.06,8.79,4.69,6.8c.2,.28,.67,.01,.47-.27-3.65-5.29-7.29-10.58-10.94-15.87-.43-.63-.91-1.6-1.61-1.97-1.23-.66-2.51,.5-3.51,1.12l-5.16,3.19c-1.09,.68-2.67,1.45-1.98,3.04,.2,.46,.58,.88,.87,1.28l1.85,2.58,2.94,4.09c.2,.28,.67,.01,.47-.27h0Z"/>
        <path class="cls-17" d="M20.94,67.79c-.99-1.38-1.98-2.76-2.97-4.13l-.43-.59c-.2-.28-.67-.01-.47,.27,.99,1.38,1.98,2.76,2.97,4.13l.43,.59c.2,.28,.67,.01,.47-.27h0Z"/>
        <path class="cls-17" d="M36.55,71.1l-6.79,4.23c-.95,.59-2.12,1.62-3.1,.43-.83-1-1.53-2.13-2.29-3.19l-2.33-3.24c-.2-.28-.67-.01-.47,.27,1.54,2.14,3.02,4.33,4.61,6.43,.47,.62,1.19,.98,1.97,.8,.42-.09,.76-.35,1.12-.57l4.16-2.6,3.38-2.1c.29-.18,.02-.65-.27-.47h0Z"/>
        <rect class="cls-5" x="12.94" y="51.99" width="3.81" height="3.71" rx=".65" ry=".65" transform="translate(-28.06 18.09) rotate(-34.78)"/>
        <path class="cls-17" d="M14.63,56.35c-.06,0-.11,0-.17-.01-.24-.04-.45-.18-.59-.38l-1.38-1.98c-.29-.42-.19-.99,.23-1.28l2.06-1.43c.42-.29,.99-.19,1.28,.23l1.38,1.98c.29,.42,.19,.99-.23,1.28h0s-2.06,1.43-2.06,1.43c-.16,.11-.34,.16-.52,.16Zm.68-4.72c-.08,0-.15,.02-.22,.07l-2.06,1.43c-.17,.12-.22,.36-.1,.53l1.38,1.98c.06,.08,.15,.14,.25,.16,.1,.02,.2,0,.29-.06l2.06-1.43c.17-.12,.22-.36,.1-.53l-1.38-1.98c-.06-.08-.15-.14-.25-.16-.02,0-.05,0-.07,0Z"/>
      </g>
      <g class="cls-22">
        <path class="cls-3" d="M21.43,51.9c.04,.69-.48,1.29-1.06,1.67s-1.23,.65-1.74,1.12c-1.38,1.28-1.07,3.67,.14,5.11,.44,.52,.97,.97,1.34,1.54,.64,.99,.71,2.23,1.01,3.37,.39,1.48,1.2,2.84,2.32,3.89,.83,.78,1.87,1.4,3,1.54s2.37-.28,3.03-1.22c.6-.85,.64-1.96,.67-3,.03-1.56,.05-3.2-.68-4.58-.64-1.21-1.79-2.07-3.04-2.63-.64-.29-1.33-.5-1.89-.94-1.48-1.17-1.59-3.51-3.08-4.68"/>
      </g>
      <path class="cls-23" d="M96.65,174.53c1.78,1.97,4.8,2.48,7.17,1.33,1.27-.62,2.43-1.75,3.21-2.92,.83-1.25,1.2-2.95,.61-4.37-.24-.58-.78-1-1.44-.82-.55,.15-1.06,.85-.82,1.44,.38,.92,.17,1.79-.41,2.63s-1.43,1.58-2.33,2.02c-.03,.02-.31,.12-.49,.17-.1,.03-.2,.05-.31,.07-.06,.01-.12,.02-.19,.03,.08,0,.08-.01,0,0-.23,.02-.47,.03-.7,.02-.28-.01-.32-.02-.51-.06-.9-.18-1.53-.53-2.14-1.2-.42-.47-1.22-.43-1.66,0-.47,.47-.42,1.18,0,1.66h0Z"/>
      <path class="cls-17" d="M100.92,157.97c-.69,1.55-1.69,2.82-2.87,4.03-.9,.93-1.83,1.83-2.59,2.88-1.59,2.22-1.96,5.04-.89,7.57s3.2,4.11,5.8,4.43,5.33-.8,6.81-3.07c.83-1.27,1.26-2.8,1.14-4.32-.06-.7-.23-1.37-.33-2.06-.16-1.06,.06-1.91,.7-2.78,.27-.37-.35-.73-.62-.36-.69,.93-.96,1.9-.81,3.05,.16,1.26,.51,2.44,.28,3.72-.51,2.76-2.79,4.88-5.59,5.14s-5.41-1.24-6.61-3.78-.71-5.27,.94-7.41c1.76-2.3,4.06-3.94,5.27-6.66,.19-.42-.43-.78-.62-.36h0Z"/>
      <path class="cls-5" d="M82.52,165.83c1.93,0,1.93-3,0-3s-1.93,3,0,3h0Z"/>
      <path class="cls-17" d="M81.96,162.61c-.63-.04-1.11,.6-1.21,1.16s.06,1.2,.49,1.62c.88,.85,2.44,.69,3.07-.39,.35-.61,.28-1.37-.15-1.92-.11-.13-.33-.11-.45,0-.13,.13-.11,.31,0,.45,.23,.29,.25,.72,.11,1.04-.16,.37-.52,.62-.9,.71-.75,.18-1.58-.36-1.58-1.15,0-.33,.19-.92,.62-.89,.17,.01,.32-.15,.32-.32,0-.18-.14-.3-.32-.32h0Z"/>
      <path class="cls-5" d="M124.09,170.38c1.93,0,1.93-3,0-3s-1.93,3,0,3h0Z"/>
      <path class="cls-17" d="M123.46,167.3c-.63-.04-1.11,.6-1.21,1.16s.06,1.2,.49,1.62c.88,.85,2.44,.69,3.07-.39,.35-.61,.28-1.37-.15-1.92-.11-.13-.33-.11-.45,0-.13,.13-.11,.31,0,.45,.23,.29,.25,.72,.11,1.04-.16,.37-.52,.62-.9,.71-.75,.18-1.58-.36-1.58-1.15,0-.33,.19-.92,.62-.89,.17,.01,.32-.15,.32-.32,0-.18-.14-.3-.32-.32h0Z"/>
      <path class="cls-5" d="M43.63,98.03c.54,1.08,1.27,2.07,2.14,2.92,.2,.2,.41,.39,.67,.51,.35,.17,.74,.21,1.13,.21,3.14-.01,5.74-2.35,7.84-4.68,.57-.63,1.15-1.3,1.42-2.12,.08-.25,.14-.52,.06-.78-.06-.21,.23-.5,.1-.67-.76-.96-1.94-1.8-2.7-2.77-1.94,3.07-4.95,5.45-8.38,6.62"/>
      <path class="cls-17" d="M44.31,98.49c4.16-1.22,7.78-3.99,10.03-7.7,.24-.39-.38-.75-.62-.36-2.16,3.55-5.62,6.2-9.6,7.37-.44,.13-.25,.82,.19,.69h0Z"/>
      <path class="cls-17" d="M47.21,102.22c4.78-.73,8.11-4.55,10.59-8.4,.25-.39-.37-.75-.62-.36-2.39,3.7-5.57,7.37-10.17,8.07-.45,.07-.26,.76,.19,.69h0Z"/>
      <path class="cls-17" d="M57.85,114.14c-1.33-.69-2.24-2.14-3.2-3.26s-1.96-2.24-2.93-3.37c-2.01-2.31-3.95-4.66-5.84-7.06-3.86-4.89-7.53-9.93-11.01-15.09-.26-.38-.88-.02-.62,.36,3.51,5.22,7.22,10.3,11.12,15.24,1.94,2.46,3.94,4.87,6,7.24,1.08,1.24,2.17,2.48,3.24,3.72,.88,1.02,1.67,2.2,2.89,2.83,.41,.21,.77-.41,.36-.62h0Z"/>
      <path class="cls-17" d="M43.11,80.38c6.58,5.58,12.53,11.9,18.66,17.95,.33,.32,.83-.18,.51-.51-6.13-6.05-12.08-12.37-18.66-17.95-.35-.3-.86,.21-.51,.51h0Z"/>
      <path class="cls-17" d="M.15,51.65l3.65,1.08c.26,.08,.37-.32,.11-.4l-3.65-1.08c-.26-.08-.37,.32-.11,.4H.15Z"/>
      <path class="cls-17" d="M3.75,49l.69,1.42c.05,.1,.19,.13,.28,.07,.1-.06,.12-.18,.07-.28l-.69-1.42c-.05-.1-.19-.13-.28-.07-.1,.06-.12,.18-.07,.28h0Z"/>
      <path class="cls-17" d="M2.91,55.9l1.04-.56c.1-.05,.13-.19,.07-.28-.06-.1-.18-.13-.28-.07l-1.04,.56c-.1,.05-.13,.19-.07,.28,.06,.1,.18,.13,.28,.07h0Z"/>
    </g>
  </g>
</svg>