<?xml version="1.0" encoding="UTF-8"?>
<svg id="Layer_2" data-name="Layer 2" xmlns="http://www.w3.org/2000/svg" viewBox="0 0 258.66 165.74">
  <defs>
    <style>
      .cls-1 {
        fill: #f9943a;
      }

      .cls-2 {
        fill: #f2f2ff;
      }

      .cls-3 {
        fill: #f9e1cd;
      }

      .cls-4 {
        fill: #f9a25a;
      }

      .cls-5 {
        fill: #000201;
      }

      .cls-6 {
        fill: #eaeaf6;
      }

      .cls-7 {
        fill: #ffe0c4;
      }

      .cls-8 {
        fill: #f81c46;
      }

      .cls-9 {
        fill: #fcdc3f;
      }

      .cls-10, .cls-11 {
        fill: #e58f41;
      }

      .cls-12 {
        fill: #ffafc2;
      }

      .cls-13, .cls-14 {
        fill: #fff;
      }

      .cls-15 {
        fill: #ffefab;
      }

      .cls-16 {
        fill: #fff6ee;
      }

      .cls-17 {
        fill: #efc30c;
      }

      .cls-18 {
        fill: #ffcd9f;
      }

      .cls-19 {
        fill: #fc9d4f;
      }

      .cls-20 {
        fill: #fbb570;
      }

      .cls-21 {
        fill: #2ff382;
      }

      .cls-22, .cls-23 {
        fill: #d89000;
      }

      .cls-24 {
        fill: #c9c9d7;
      }

      .cls-25, .cls-26 {
        fill: #d07828;
      }

      .cls-27 {
        fill: #caf8ff;
      }

      .cls-28 {
        fill: #d3670d;
      }

      .cls-29 {
        fill: #dbefff;
      }

      .cls-30 {
        fill: #d2eef3;
      }

      .cls-31, .cls-32 {
        fill: #06cb56;
      }

      .cls-33 {
        fill: #6f6372;
      }

      .cls-34 {
        fill: #8686b2;
      }

      .cls-35 {
        fill: #85e4f9;
      }

      .cls-36 {
        fill: #8080b9;
      }

      .cls-37 {
        fill: #61ffa0;
      }

      .cls-38 {
        fill: #24b6ce;
      }

      .cls-39 {
        fill: #5ccce8;
      }

      .cls-32 {
        isolation: isolate;
        opacity: .6;
      }

      .cls-23 {
        opacity: .58;
      }

      .cls-11 {
        opacity: .52;
      }

      .cls-14 {
        opacity: .44;
      }

      .cls-26 {
        opacity: .67;
      }
    </style>
  </defs>
  <g id="Layer_3" data-name="Layer 3">
    <g>
      <rect class="cls-20" x="253.78" y="138.38" width="4.37" height="4.37"/>
      <path class="cls-5" d="M258.16,143.25h-4.37c-.28,0-.5-.22-.5-.5v-4.37c0-.28,.22-.5,.5-.5h4.37c.28,0,.5,.22,.5,.5v4.37c0,.28-.22,.5-.5,.5Zm-3.87-1h3.37v-3.37h-3.37v3.37Z"/>
      <path class="cls-30" d="M62.2,61.71v2.67c0,1.97-1.6,3.56-3.57,3.56H5.27c-1.97,0-3.57-1.59-3.57-3.56v-2.67c0,1.97,1.6,3.56,3.57,3.56H58.63c1.97,0,3.57-1.59,3.57-3.56Z"/>
      <path class="cls-5" d="M46.77,68.81H5.52c-2.24,0-4.07-1.82-4.07-4.07v-20.12c0-.28,.22-.5,.5-.5s.5,.22,.5,.5v20.12c0,1.69,1.38,3.07,3.07,3.07H46.77c.28,0,.5,.22,.5,.5s-.22,.5-.5,.5Z"/>
      <path class="cls-5" d="M58.89,68.81h-8.28c-.28,0-.5-.22-.5-.5s.22-.5,.5-.5h8.28c1.69,0,3.07-1.38,3.07-3.07V16.24c0-.28,.22-.5,.5-.5s.5,.22,.5,.5v48.5c0,2.24-1.82,4.07-4.07,4.07Z"/>
      <path class="cls-8" d="M5.94,5.83H58.95c1.88,0,3.41,1.53,3.41,3.41v6.79H2.04v-6.3c0-2.15,1.75-3.9,3.9-3.9Z"/>
      <path class="cls-12" d="M56.78,9.23h-3.72c-.84,0-1.52-.68-1.52-1.52s.68-1.52,1.52-1.52h3.72c.84,0,1.52,.68,1.52,1.52s-.68,1.52-1.52,1.52Z"/>
      <g>
        <path class="cls-30" d="M23.78,18.78h-7.36c-.84,0-1.52-.68-1.52-1.52s.68-1.52,1.52-1.52h7.36c.84,0,1.52,.68,1.52,1.52s-.68,1.52-1.52,1.52Z"/>
        <path class="cls-30" d="M39.86,18.78h-3.72c-.84,0-1.52-.68-1.52-1.52s.68-1.52,1.52-1.52h3.72c.84,0,1.52,.68,1.52,1.52s-.68,1.52-1.52,1.52Z"/>
      </g>
      <path class="cls-5" d="M1.95,31.18c-.34,0-.61-.27-.61-.61V12.52c0-.34,.27-.61,.61-.61s.61,.27,.61,.61V30.57c0,.34-.27,.61-.61,.61Z"/>
      <path class="cls-30" d="M62.2,58v2.67c0,1.97-1.6,3.56-3.57,3.56H5.27c-1.97,0-3.57-1.59-3.57-3.56v-2.67c0,1.97,1.6,3.56,3.57,3.56H58.63c1.97,0,3.57-1.59,3.57-3.56Z"/>
      <path class="cls-5" d="M46.77,65.09H5.52c-2.24,0-4.07-1.82-4.07-4.07v-20.12c0-.28,.22-.5,.5-.5s.5,.22,.5,.5v20.12c0,1.69,1.38,3.07,3.07,3.07H46.77c.28,0,.5,.22,.5,.5s-.22,.5-.5,.5Z"/>
      <path class="cls-5" d="M58.89,65.09h-8.28c-.28,0-.5-.22-.5-.5s.22-.5,.5-.5h8.28c1.69,0,3.07-1.38,3.07-3.07V12.52c0-.28,.22-.5,.5-.5s.5,.22,.5,.5V61.03c0,2.24-1.82,4.07-4.07,4.07Z"/>
      <path class="cls-5" d="M58.89,61.75H20.56c-.28,0-.5-.22-.5-.5s.22-.5,.5-.5H58.89c1.69,0,3.07-1.38,3.07-3.07V9.18c0-1.69-1.38-3.07-3.07-3.07h-20.85c-.28,0-.5-.22-.5-.5s.22-.5,.5-.5h20.85c2.24,0,4.07,1.82,4.07,4.07V57.69c0,2.24-1.82,4.07-4.07,4.07Z"/>
      <path class="cls-5" d="M61.97,16.53H30.1c-.28,0-.5-.22-.5-.5s.22-.5,.5-.5h31.87c.28,0,.5,.22,.5,.5s-.22,.5-.5,.5Z"/>
      <path class="cls-5" d="M26.71,16.53H12.01c-.28,0-.5-.22-.5-.5s.22-.5,.5-.5h14.71c.28,0,.5,.22,.5,.5s-.22,.5-.5,.5Z"/>
      <path class="cls-5" d="M8.71,16.53H2.12c-.28,0-.5-.22-.5-.5s.22-.5,.5-.5h6.58c.28,0,.5,.22,.5,.5s-.22,.5-.5,.5Z"/>
      <path class="cls-5" d="M34.55,30.25h-4.69c-.64,0-1.17-.52-1.17-1.17v-4.69c0-.64,.52-1.17,1.17-1.17h4.69c.64,0,1.17,.52,1.17,1.17v4.69c0,.64-.52,1.17-1.17,1.17Zm-4.69-6.11c-.14,0-.25,.11-.25,.25v4.69c0,.14,.11,.25,.25,.25h4.69c.14,0,.25-.11,.25-.25v-4.69c0-.14-.11-.25-.25-.25h-4.69Z"/>
      <path class="cls-5" d="M44.23,30.25h-4.69c-.64,0-1.17-.52-1.17-1.17v-4.69c0-.64,.52-1.17,1.17-1.17h4.69c.64,0,1.17,.52,1.17,1.17v4.69c0,.64-.52,1.17-1.17,1.17Zm-4.69-6.11c-.14,0-.25,.11-.25,.25v4.69c0,.14,.11,.25,.25,.25h4.69c.14,0,.25-.11,.25-.25v-4.69c0-.14-.11-.25-.25-.25h-4.69Z"/>
      <path class="cls-5" d="M53.91,30.25h-4.69c-.64,0-1.17-.52-1.17-1.17v-4.69c0-.64,.52-1.17,1.17-1.17h4.69c.64,0,1.17,.52,1.17,1.17v4.69c0,.64-.52,1.17-1.17,1.17Zm-4.69-6.11c-.14,0-.25,.11-.25,.25v4.69c0,.14,.11,.25,.25,.25h4.69c.14,0,.25-.11,.25-.25v-4.69c0-.14-.11-.25-.25-.25h-4.69Z"/>
      <path class="cls-5" d="M15.18,40.29h-4.69c-.64,0-1.17-.52-1.17-1.17v-4.69c0-.64,.52-1.17,1.17-1.17h4.69c.64,0,1.17,.52,1.17,1.17v4.69c0,.64-.52,1.17-1.17,1.17Zm-4.69-6.11c-.14,0-.25,.11-.25,.25v4.69c0,.14,.11,.25,.25,.25h4.69c.14,0,.25-.11,.25-.25v-4.69c0-.14-.11-.25-.25-.25h-4.69Z"/>
      <path class="cls-5" d="M24.86,40.29h-4.69c-.64,0-1.17-.52-1.17-1.17v-4.69c0-.64,.52-1.17,1.17-1.17h4.69c.64,0,1.17,.52,1.17,1.17v4.69c0,.64-.52,1.17-1.17,1.17Zm-4.69-6.11c-.14,0-.25,.11-.25,.25v4.69c0,.14,.11,.25,.25,.25h4.69c.14,0,.25-.11,.25-.25v-4.69c0-.14-.11-.25-.25-.25h-4.69Z"/>
      <path class="cls-5" d="M34.54,40.29h-4.69c-.64,0-1.17-.52-1.17-1.17v-4.69c0-.64,.52-1.17,1.17-1.17h4.69c.64,0,1.17,.52,1.17,1.17v4.69c0,.64-.52,1.17-1.17,1.17Zm-4.69-6.11c-.14,0-.25,.11-.25,.25v4.69c0,.14,.11,.25,.25,.25h4.69c.14,0,.25-.11,.25-.25v-4.69c0-.14-.11-.25-.25-.25h-4.69Z"/>
      <path class="cls-5" d="M44.22,40.29h-4.69c-.64,0-1.17-.52-1.17-1.17v-4.69c0-.64,.52-1.17,1.17-1.17h4.69c.64,0,1.17,.52,1.17,1.17v4.69c0,.64-.52,1.17-1.17,1.17Zm-4.69-6.11c-.14,0-.25,.11-.25,.25v4.69c0,.14,.11,.25,.25,.25h4.69c.14,0,.25-.11,.25-.25v-4.69c0-.14-.11-.25-.25-.25h-4.69Z"/>
      <path class="cls-5" d="M53.9,40.29h-4.69c-.64,0-1.17-.52-1.17-1.17v-4.69c0-.64,.52-1.17,1.17-1.17h4.69c.64,0,1.17,.52,1.17,1.17v4.69c0,.64-.52,1.17-1.17,1.17Zm-4.69-6.11c-.14,0-.25,.11-.25,.25v4.69c0,.14,.11,.25,.25,.25h4.69c.14,0,.25-.11,.25-.25v-4.69c0-.14-.11-.25-.25-.25h-4.69Z"/>
      <path class="cls-5" d="M15.18,50.33h-4.69c-.64,0-1.17-.52-1.17-1.17v-4.69c0-.64,.52-1.17,1.17-1.17h4.69c.64,0,1.17,.52,1.17,1.17v4.69c0,.64-.52,1.17-1.17,1.17Zm-4.69-6.11c-.14,0-.25,.11-.25,.25v4.69c0,.14,.11,.25,.25,.25h4.69c.14,0,.25-.11,.25-.25v-4.69c0-.14-.11-.25-.25-.25h-4.69Z"/>
      <path class="cls-5" d="M24.86,50.33h-4.69c-.64,0-1.17-.52-1.17-1.17v-4.69c0-.64,.52-1.17,1.17-1.17h4.69c.64,0,1.17,.52,1.17,1.17v4.69c0,.64-.52,1.17-1.17,1.17Zm-4.69-6.11c-.14,0-.25,.11-.25,.25v4.69c0,.14,.11,.25,.25,.25h4.69c.14,0,.25-.11,.25-.25v-4.69c0-.14-.11-.25-.25-.25h-4.69Z"/>
      <path class="cls-5" d="M34.54,50.33h-4.69c-.64,0-1.17-.52-1.17-1.17v-4.69c0-.64,.52-1.17,1.17-1.17h4.69c.64,0,1.17,.52,1.17,1.17v4.69c0,.64-.52,1.17-1.17,1.17Zm-4.69-6.11c-.14,0-.25,.11-.25,.25v4.69c0,.14,.11,.25,.25,.25h4.69c.14,0,.25-.11,.25-.25v-4.69c0-.14-.11-.25-.25-.25h-4.69Z"/>
      <path class="cls-5" d="M44.22,50.33h-4.69c-.64,0-1.17-.52-1.17-1.17v-4.69c0-.64,.52-1.17,1.17-1.17h4.69c.64,0,1.17,.52,1.17,1.17v4.69c0,.64-.52,1.17-1.17,1.17Zm-4.69-6.11c-.14,0-.25,.11-.25,.25v4.69c0,.14,.11,.25,.25,.25h4.69c.14,0,.25-.11,.25-.25v-4.69c0-.14-.11-.25-.25-.25h-4.69Z"/>
      <g>
        <path class="cls-5" d="M10.58,57.57H2.12c-.25,0-.46-.2-.46-.46s.2-.46,.46-.46H10.58c.25,0,.46,.2,.46,.46s-.2,.46-.46,.46Z"/>
        <path class="cls-5" d="M14.1,57.57h-1.31c-.25,0-.46-.2-.46-.46s.2-.46,.46-.46h1.31c.25,0,.46,.2,.46,.46s-.2,.46-.46,.46Z"/>
      </g>
      <path class="cls-12" d="M11.48,9.23h-3.72c-.84,0-1.52-.68-1.52-1.52s.68-1.52,1.52-1.52h3.72c.84,0,1.52,.68,1.52,1.52s-.68,1.52-1.52,1.52Z"/>
      <path class="cls-12" d="M31.73,9.23h-7.36c-.84,0-1.52-.68-1.52-1.52s.68-1.52,1.52-1.52h7.36c.84,0,1.52,.68,1.52,1.52s-.68,1.52-1.52,1.52Z"/>
      <path class="cls-5" d="M1.95,33.39c-.28,0-.5-.22-.5-.5V9.18c0-2.24,1.82-4.07,4.07-4.07h29.04c.28,0,.5,.22,.5,.5s-.22,.5-.5,.5H5.52c-1.69,0-3.07,1.38-3.07,3.07v23.71c0,.28-.22,.5-.5,.5Z"/>
      <path class="cls-5" d="M16.55,61.75H5.52c-2.24,0-4.07-1.82-4.07-4.07v-21.05c0-.28,.22-.5,.5-.5s.5,.22,.5,.5v21.05c0,1.69,1.38,3.07,3.07,3.07h11.03c.28,0,.5,.22,.5,.5s-.22,.5-.5,.5Z"/>
      <rect class="cls-24" x="46.21" y=".5" width="3.82" height="10.23" rx="1.91" ry="1.91"/>
      <rect class="cls-24" x="15.92" y=".5" width="3.82" height="10.23" rx="1.91" ry="1.91"/>
      <path class="cls-6" d="M16.82,7.17c-.5,0-.91-.41-.91-.91V2.54c0-.5,.41-.91,.91-.91s.91,.41,.91,.91v3.72c0,.5-.41,.91-.91,.91Z"/>
      <path class="cls-6" d="M47.11,9.83c-.5,0-.91-.41-.91-.91v-3.72c0-.5,.41-.91,.91-.91s.91,.41,.91,.91v3.72c0,.5-.41,.91-.91,.91Z"/>
      <g>
        <path class="cls-5" d="M48.12,11.23c-1.33,0-2.41-1.08-2.41-2.41,0-.28,.22-.5,.5-.5s.5,.22,.5,.5c0,.78,.63,1.41,1.41,1.41s1.41-.63,1.41-1.41V2.41c0-.78-.63-1.41-1.41-1.41s-1.41,.63-1.41,1.41V6.79c0,.28-.22,.5-.5,.5s-.5-.22-.5-.5V2.41c0-1.33,1.08-2.41,2.41-2.41s2.41,1.08,2.41,2.41v6.41c0,1.33-1.08,2.41-2.41,2.41Z"/>
        <path class="cls-5" d="M17.83,11.23c-1.33,0-2.41-1.08-2.41-2.41V4.58c0-.28,.22-.5,.5-.5s.5,.22,.5,.5v4.24c0,.78,.63,1.41,1.41,1.41s1.41-.63,1.41-1.41V2.41c0-.78-.63-1.41-1.41-1.41s-1.41,.63-1.41,1.41c0,.28-.22,.5-.5,.5s-.5-.22-.5-.5c0-1.33,1.08-2.41,2.41-2.41s2.41,1.08,2.41,2.41v6.41c0,1.33-1.08,2.41-2.41,2.41Z"/>
      </g>
      <g>
        <path class="cls-5" d="M54.86,53.16h-.09c-.17-.05-.27-.22-.22-.39l1.02-3.57c.05-.17,.22-.27,.39-.22,0,0,0,0,0,0,.17,.05,.27,.22,.22,.39l-1.03,3.57c-.04,.13-.17,.22-.3,.22Z"/>
        <path class="cls-5" d="M56.16,55.62h-.09c-.17-.05-.27-.22-.22-.39,0,0,0,0,0,0l2.04-7.13c.04-.17,.21-.27,.38-.22,0,0,0,0,.01,0,.17,.05,.27,.22,.22,.39,0,0,0,0,0,0l-2.04,7.12c-.04,.14-.16,.23-.3,.22Z"/>
      </g>
      <path class="cls-36" d="M30.23,161.4l-18.81-.1,1.76-45.9,14.76,.09c.54,0,.98,.43,1,.98l1.29,44.93Z"/>
      <path class="cls-24" d="M17.2,133.91l15.61-10.89v11.3l.06-.03,14.43-10.06c.5-.35,1.19,0,1.19,.62v9.85h.03s14.28-9.98,14.28-9.98c.56-.39,1.34,0,1.34,.7v37.46h-28.05l-3.52-.07h-12.46"/>
      <polygon class="cls-36" points="23.16 162.4 20.45 162.4 20.09 158.89 19.32 132.26 22.24 130.23 23.16 162.4"/>
      <path class="cls-36" d="M63.01,162.75h-22.87c-.68,0-1.23-.55-1.23-1.23s.55-1.23,1.23-1.23h22.87c.68,0,1.23,.55,1.23,1.23s-.55,1.23-1.23,1.23Z"/>
      <path class="cls-36" d="M59.47,130.05l-7.07,4.95c-.58,.35-1.33,.16-1.68-.42s-.16-1.33,.42-1.68l7.07-4.95c.58-.35,1.33-.16,1.68,.42s.16,1.33-.42,1.68Z"/>
      <rect class="cls-29" x="23.87" y="143.43" width="7.18" height="7.18" rx=".83" ry=".83"/>
      <rect class="cls-29" x="37.24" y="143.43" width="7.18" height="7.18" rx=".83" ry=".83"/>
      <rect class="cls-29" x="50.61" y="143.43" width="7.18" height="7.18" rx=".83" ry=".83"/>
      <polygon class="cls-24" points="19.66 162.83 .82 162.7 3.31 97.61 17.79 97.75 19.66 162.83"/>
      <g>
        <path class="cls-5" d="M29.3,90.98c-.28,0-.5-.22-.5-.5,0-3.17-2.55-5.75-5.67-5.75s-5.67,2.58-5.67,5.75c0,.28-.22,.5-.5,.5s-.5-.22-.5-.5c0-3.72,2.99-6.75,6.67-6.75s6.67,3.03,6.67,6.75c0,.28-.22,.5-.5,.5Z"/>
        <path class="cls-5" d="M23.68,97.7c-.28,0-.5-.22-.5-.5,0-3.42-2.74-6.2-6.12-6.2s-6.12,2.78-6.12,6.2c0,.28-.22,.5-.5,.5s-.5-.22-.5-.5c0-3.97,3.19-7.2,7.12-7.2s7.12,3.23,7.12,7.2c0,.28-.22,.5-.5,.5Z"/>
      </g>
      <polygon class="cls-14" points="39.71 150.62 37.47 150.62 39.31 143.77 41.55 143.77 39.71 150.62"/>
      <polygon class="cls-13" points="41.6 150.62 40.59 150.62 42.43 143.77 43.44 143.77 41.6 150.62"/>
      <polygon class="cls-14" points="53.22 150.62 50.99 150.62 52.83 143.77 55.06 143.77 53.22 150.62"/>
      <polygon class="cls-13" points="55.11 150.62 54.1 150.62 55.94 143.77 56.95 143.77 55.11 150.62"/>
      <polygon class="cls-14" points="26.66 150.62 24.42 150.62 26.26 143.77 28.49 143.77 26.66 150.62"/>
      <polygon class="cls-13" points="28.55 150.62 27.54 150.62 29.38 143.77 30.39 143.77 28.55 150.62"/>
      <rect class="cls-29" x="2.99" y="98" width="15.28" height="9.28"/>
      <path class="cls-5" d="M17.98,107.88H8.22c-.28,0-.5-.22-.5-.5s.22-.5,.5-.5h9.76c.28,0,.5,.22,.5,.5s-.22,.5-.5,.5Z"/>
      <path class="cls-5" d="M6.16,107.88H2.69c-.28,0-.5-.22-.5-.5s.22-.5,.5-.5h3.46c.28,0,.5,.22,.5,.5s-.22,.5-.5,.5Z"/>
      <path class="cls-5" d="M10.24,100.6H3.28c-.28,0-.5-.22-.5-.5s.22-.5,.5-.5h6.96c.28,0,.5,.22,.5,.5s-.22,.5-.5,.5Z"/>
      <path class="cls-2" d="M1.75,139l.18-4.94c.03-.85,.74-1.51,1.59-1.48s1.51,.74,1.48,1.59l-.18,4.94c-.03,.85-.74,1.51-1.59,1.48s-1.51-.74-1.48-1.59Z"/>
      <path class="cls-2" d="M2.2,122.34l.27-9.7c.01-.85,.71-1.52,1.55-1.51s1.52,.71,1.51,1.55l-.27,9.7c-.01,.85-.71,1.52-1.55,1.51s-1.52-.71-1.51-1.55Z"/>
      <path class="cls-5" d="M43.59,151.11h-1.49c-.28,0-.5-.22-.5-.5s.22-.5,.5-.5h1.49c.18,0,.33-.15,.33-.33v-5.51c0-.18-.15-.33-.33-.33h-5.51c-.18,0-.33,.15-.33,.33v5.51c0,.18,.15,.33,.33,.33h1.51c.28,0,.5,.22,.5,.5s-.22,.5-.5,.5h-1.51c-.74,0-1.33-.6-1.33-1.33v-5.51c0-.74,.6-1.33,1.33-1.33h5.51c.74,0,1.33,.6,1.33,1.33v5.51c0,.74-.6,1.33-1.33,1.33Z"/>
      <path class="cls-5" d="M56.95,151.11h-5.51c-.74,0-1.33-.6-1.33-1.33v-5.51c0-.74,.6-1.33,1.33-1.33h5.51c.74,0,1.33,.6,1.33,1.33v5.51c0,.74-.6,1.33-1.33,1.33Zm-5.51-7.18c-.18,0-.33,.15-.33,.33v5.51c0,.18,.15,.33,.33,.33h5.51c.18,0,.33-.15,.33-.33v-5.51c0-.18-.15-.33-.33-.33h-5.51Z"/>
      <path class="cls-5" d="M30.22,151.11h-5.51c-.74,0-1.33-.6-1.33-1.33v-5.51c0-.74,.6-1.33,1.33-1.33h5.51c.74,0,1.33,.6,1.33,1.33v5.51c0,.74-.6,1.33-1.33,1.33Zm-5.51-7.18c-.18,0-.33,.15-.33,.33v5.51c0,.18,.15,.33,.33,.33h5.51c.18,0,.33-.15,.33-.33v-5.51c0-.18-.15-.33-.33-.33h-5.51Z"/>
      <g>
        <path class="cls-5" d="M29.29,125.96c-.27,0-.49-.21-.5-.49l-.26-9.04c-.01-.39-.33-.7-.72-.7h-9.03c-.28,0-.5-.22-.5-.5s.22-.5,.5-.5h9.03c.94,0,1.7,.74,1.72,1.67l.26,9.04c0,.28-.21,.51-.49,.51h-.01Z"/>
        <path class="cls-5" d="M1.16,145.09h-.02c-.28-.01-.49-.24-.48-.52l.58-15.06c.01-.27,.21-.49,.52-.48,.28,.01,.49,.24,.48,.52l-.58,15.06c-.01,.27-.23,.48-.5,.48Z"/>
        <g>
          <path class="cls-5" d="M33.03,134.78c-.28,0-.5-.22-.5-.5v-10.18l-.42-.48,.28,.41-5.46,3.76c-.23,.16-.54,.1-.7-.13-.16-.23-.1-.54,.13-.7l5.46-3.76c.33-.23,.76-.26,1.12-.07,.36,.19,.58,.56,.58,.96v10.18c0,.28-.22,.5-.5,.5Z"/>
          <path class="cls-5" d="M19.15,133.16c-.16,0-.31-.07-.41-.21-.16-.23-.1-.54,.12-.7l5.31-3.7c.22-.16,.54-.1,.7,.12,.16,.23,.1,.54-.12,.7l-5.31,3.7c-.09,.06-.19,.09-.29,.09Z"/>
          <path class="cls-5" d="M48.7,135.16c-.28,0-.5-.22-.5-.5v-9.8c0-.16-.11-.23-.15-.25-.05-.02-.17-.07-.29,.02l-7.15,4.99c-.22,.16-.54,.1-.7-.12-.16-.23-.1-.54,.12-.7l7.15-4.99c.39-.27,.9-.31,1.33-.08,.42,.22,.69,.66,.69,1.14v9.8c0,.28-.22,.5-.5,.5Z"/>
          <path class="cls-5" d="M33.09,134.75c-.16,0-.31-.07-.41-.21-.16-.23-.1-.54,.12-.7l4.96-3.46c.22-.16,.54-.1,.7,.12,.16,.23,.1,.54-.12,.7l-4.96,3.46c-.09,.06-.19,.09-.29,.09Z"/>
          <path class="cls-5" d="M48.74,135.17c-.16,0-.31-.07-.41-.21-.16-.23-.1-.54,.12-.7l5.25-3.68c.23-.16,.54-.1,.7,.12,.16,.23,.1,.54-.12,.7l-5.25,3.68c-.09,.06-.19,.09-.29,.09Z"/>
          <g>
            <path class="cls-5" d="M31.63,163.26h-11.3c-.28,0-.5-.22-.5-.5s.22-.5,.5-.5h11.3c.28,0,.5,.22,.5,.5s-.22,.5-.5,.5Z"/>
            <path class="cls-5" d="M63.16,163.33h-28.7c-.28,0-.5-.22-.5-.5s.22-.5,.5-.5h28.7c.38,0,.69-.31,.69-.69v-36.42c0-.15-.1-.22-.15-.24-.04-.02-.16-.07-.28,.02l-6.83,4.79c-.23,.16-.54,.1-.7-.12-.16-.23-.1-.54,.12-.7l6.83-4.79c.39-.27,.89-.31,1.32-.09,.42,.22,.68,.65,.68,1.13v36.42c0,.93-.76,1.69-1.69,1.69Z"/>
            <path class="cls-5" d="M19.84,163.26H1.59c-.44,0-.84-.17-1.15-.49-.3-.32-.46-.73-.44-1.16l.55-14.34c.01-.28,.21-.47,.52-.48,.28,.01,.49,.24,.48,.52l-.55,14.34c0,.16,.05,.32,.17,.43,.11,.12,.26,.18,.43,.18H19.33l-1.83-63.55c0-.3-.25-.54-.55-.54H3.97c-.3,0-.54,.23-.55,.53l-1.06,27.74c-.01,.27-.23,.48-.5,.48h-.02c-.28-.01-.49-.24-.48-.52l1.06-27.74c.03-.84,.72-1.5,1.55-1.5h12.97c.85,0,1.53,.66,1.55,1.51l1.84,64.06c0,.14-.05,.27-.14,.36-.09,.1-.22,.15-.36,.15Z"/>
          </g>
        </g>
      </g>
      <g>
        <path class="cls-5" d="M5.12,154.83h-.09c-.17-.05-.27-.23-.23-.4l1.06-3.7c.05-.17,.23-.28,.4-.23,0,0,0,0,0,0,.17,.05,.27,.23,.23,.4l-1.06,3.7c-.04,.14-.17,.23-.31,.23Z"/>
        <path class="cls-5" d="M6.46,157.37h-.09c-.17-.05-.28-.23-.23-.4,0,0,0,0,0,0l2.11-7.37c.04-.17,.22-.27,.39-.23,0,0,0,0,.01,0,.17,.05,.28,.23,.23,.4,0,0,0,0,0,0l-2.11,7.36c-.04,.14-.17,.24-.31,.23Z"/>
      </g>
      <g>
        <circle class="cls-21" cx="126.85" cy="22.27" r="13"/>
        <circle class="cls-37" cx="121.61" cy="14.76" r="1.72"/>
        <circle class="cls-37" cx="124.03" cy="17.39" r=".93"/>
        <path class="cls-13" d="M126.09,24.04c-.28,0-.54-.1-.75-.29l-4.02-3.59c-.47-.41-.51-1.12-.1-1.59,.41-.47,1.12-.51,1.59-.1h0l3.13,2.81,4.78-5.99c.36-.51,1.06-.63,1.56-.28,.51,.36,.63,1.06,.28,1.56-.03,.04-.06,.08-.09,.11l-5.52,6.92c-.19,.24-.48,.4-.79,.42h-.1Z"/>
        <circle class="cls-5" cx="116.53" cy="14.42" r=".56"/>
        <path class="cls-31" d="M129.22,35.13c-.43,0-.79-.33-.84-.75-.05-.46,.28-.87,.74-.93,0,0,0,0,0,0h0c.2,0,4.79-.62,7.69-5.66,.23-.4,.75-.55,1.15-.31,.4,.23,.55,.75,.31,1.15h0c-3.37,5.81-8.74,6.47-8.99,6.5h-.07Z"/>
        <path class="cls-32" d="M124.79,34.96c-.05,0-.1,0-.16,0-.96-.18-1.9-.45-2.81-.83-.42-.2-.6-.7-.4-1.12,.2-.42,.7-.6,1.12-.4,.77,.31,1.57,.54,2.39,.69,.46,.09,.76,.53,.67,.99-.08,.39-.43,.67-.83,.67Z"/>
        <path class="cls-5" d="M126.85,35.78c-7.46,0-13.52-6.04-13.52-13.5,0-2.32,.59-4.6,1.73-6.63,.13-.24,.44-.33,.68-.2,0,0,0,0,0,0,.24,.14,.33,.45,.2,.69-3.38,6.01-1.24,13.63,4.77,17.01,6.01,3.38,13.63,1.24,17.01-4.77,3.38-6.01,1.24-13.63-4.77-17.01-4.86-2.73-10.95-1.91-14.91,2.02-.2,.2-.52,.2-.71,0-.2-.2-.2-.52,0-.72,5.3-5.26,13.85-5.22,19.11,.08,5.26,5.3,5.22,13.85-.08,19.11-2.53,2.51-5.95,3.92-9.52,3.92h.02Z"/>
      </g>
      <rect class="cls-1" x="118" y="26.19" width="37.7" height="44"/>
      <rect class="cls-20" x="94.23" y="25.98" width="37.7" height="44"/>
      <path class="cls-25" d="M122.93,69.49h-24.89c-.57,0-1.02-.46-1.03-1.02,0-.57,.46-1.02,1.02-1.03h24.89c.57,0,1.02,.46,1.03,1.02,0,.57-.46,1.02-1.02,1.03h0Z"/>
      <path class="cls-26" d="M120,45.49h-24.89c-.57,0-1.02-.46-1.03-1.02,0-.57,.46-1.02,1.02-1.03h24.89c.57,0,1.02,.46,1.03,1.02,0,.57-.46,1.02-1.02,1.03h0Z"/>
      <path class="cls-28" d="M154.74,45.58h-10.18c-.57,0-1.02-.46-1.03-1.02,0-.57,.46-1.02,1.02-1.03h10.18c.57,0,1.02,.46,1.03,1.02,0,.57-.46,1.02-1.02,1.03h0Z"/>
      <path class="cls-5" d="M131.93,70.47h-37.7c-.28,0-.5-.22-.5-.5V25.98c0-.28,.22-.5,.5-.5h37.7c.28,0,.5,.22,.5,.5v44c0,.28-.22,.5-.5,.5Zm-37.2-1h36.7V26.48h-36.7v43Z"/>
      <path class="cls-18" d="M131.77,26.3l-11.71,16.69c-.04,.1-.12,.16-.21,.16h-36.91c-.18,0-.29-.24-.21-.44l11.46-16.53c.04-.1,.12-.16,.21-.16l37.16-.16c.18,0,.29,.24,.21,.44Z"/>
      <g>
        <path class="cls-5" d="M149.06,63.79h-.06c-.12-.03-.19-.16-.15-.27l.72-2.52c.03-.12,.16-.19,.27-.16,0,0,0,0,0,0,.12,.03,.19,.16,.15,.27l-.73,2.52c-.03,.09-.12,.16-.21,.15Z"/>
        <path class="cls-5" d="M149.98,65.53h-.06c-.12-.03-.19-.16-.16-.27,0,0,0,0,0,0l1.44-5.03c.03-.12,.15-.19,.27-.16,0,0,0,0,0,0,.12,.03,.19,.16,.16,.27,0,0,0,0,0,0l-1.44,5.03c-.03,.1-.12,.16-.21,.16Z"/>
      </g>
      <g>
        <rect class="cls-13" x="98.31" y="53.83" width="16.62" height="9.56"/>
        <path class="cls-5" d="M114.92,63.67h-16.62c-.25,0-.45-.2-.45-.45v-9.55c0-.25,.19-.45,.44-.45,0,0,0,0,.01,0h16.62c.25,0,.45,.2,.45,.45v9.55c0,.25-.2,.45-.45,.45Zm-16.17-.91h15.71v-8.65h-15.71v8.65Z"/>
        <path class="cls-5" d="M111.07,56.9h-9.92c-.15,0-.28-.12-.28-.28s.12-.28,.28-.28h9.92c.15,0,.28,.12,.28,.28s-.12,.28-.28,.28Z"/>
        <path class="cls-5" d="M108.69,58.93h-7.53c-.15,0-.28-.12-.28-.28s.12-.28,.28-.28h7.53c.15,0,.28,.12,.28,.28s-.12,.28-.28,.28h0Z"/>
        <path class="cls-5" d="M105.62,60.95h-4.46c-.15,0-.28-.12-.28-.28s.12-.28,.28-.28h4.46c.15,0,.28,.12,.28,.28s-.12,.28-.28,.28h0Z"/>
      </g>
      <path class="cls-4" d="M131.72,26.3l11.71,16.69c.04,.1,.12,.16,.21,.16h23.36c.18,0,.29-.24,.21-.44l-11.46-16.53c-.04-.1-.12-.16-.21-.16l-23.6-.16c-.18,0-.29,.24-.21,.44Z"/>
      <path class="cls-5" d="M166.99,43.65h-4.37c-.28,0-.5-.22-.5-.5s.22-.5,.5-.5h3.93l-11.19-16.13-22.99-.16,11.42,16.29h15.9c.28,0,.5,.22,.5,.5s-.22,.5-.5,.5h-16.06c-.26,0-.51-.16-.64-.4l-11.69-16.66s-.04-.06-.05-.09c-.11-.27-.09-.58,.07-.81,.14-.21,.33-.33,.6-.33l23.6,.16c.27,0,.51,.16,.64,.41l11.44,16.5s.04,.06,.05,.1c.11,.26,.08,.57-.08,.8-.14,.21-.35,.33-.59,.33Zm-11.47-17.13h0Zm-23.6-.16h0Z"/>
      <path class="cls-5" d="M155.78,70.47h-19.45c-.28,0-.5-.22-.5-.5s.22-.5,.5-.5h18.95v-25.84c0-.28,.22-.5,.5-.5s.5,.22,.5,.5v26.34c0,.28-.22,.5-.5,.5Z"/>
      <path class="cls-16" d="M106.41,43.33h-22.44c-.4,0-.76-.22-.94-.57s-.16-.77,.07-1.1l10.01-14.5c.33-.48,1-.6,1.48-.27,.48,.33,.61,1,.27,1.48l-8.86,12.83h20.41c.59,0,1.07,.48,1.07,1.07s-.48,1.07-1.07,1.07Z"/>
      <path class="cls-5" d="M119.86,43.65h-36.91c-.24,0-.46-.12-.59-.33-.16-.23-.18-.54-.08-.8,.01-.03,.03-.06,.05-.09l11.44-16.5c.13-.25,.37-.41,.64-.41l37.16-.16h0c.24,0,.46,.12,.6,.33,.16,.24,.18,.55,.07,.81-.01,.03-.03,.06-.05,.09l-8.4,11.98c-.16,.23-.47,.28-.7,.12-.23-.16-.28-.47-.12-.7l8.16-11.63-36.55,.16-11.19,16.13h36.32l1.54-2.21c.16-.23,.47-.28,.7-.12,.23,.16,.28,.47,.12,.7l-1.59,2.27c-.07,.19-.33,.37-.62,.37Zm-.21-.92s-.03,.04-.04,.06l.04-.06Z"/>
      <path class="cls-35" d="M136.04,122.59c-.36,.35-.52,.85-.44,1.34l1.65,9.59c.22,1.23-1.08,2.17-2.19,1.59l-8.61-4.53c-.44-.23-.97-.23-1.41,0l-1.29,.67-2.02,1.07-1.74,.91-3.56,1.87c-.44,.23-.91,.22-1.3,.05-.6-.25-1.03-.89-.89-1.64l1.65-9.59c.08-.49-.08-.99-.44-1.34l-6.97-6.79c-.9-.88-.4-2.4,.83-2.58l9.63-1.4c.49-.07,.92-.38,1.14-.83l2.65-5.37,1.66-3.35c.55-1.13,2.16-1.13,2.71,0l.56,1.15,.99,2.01,1.15,2.32,1.6,3.24c.22,.45,.65,.76,1.14,.83l9.63,1.4c1.24,.18,1.74,1.71,.84,2.58l-6.97,6.79Z"/>
      <path class="cls-9" d="M137.91,140.14l1.89,3.82c.1,.2,.28,.33,.5,.36l4.22,.61c.54,.08,.76,.75,.37,1.13l-3.05,2.98c-.16,.15-.23,.37-.19,.59l.72,4.2c.09,.54-.48,.95-.96,.7l-3.78-1.98c-.19-.1-.42-.1-.62,0l-3.78,1.98c-.49,.26-1.05-.16-.96-.7l.72-4.2c.04-.22-.03-.43-.19-.59l-3.05-2.98c-.39-.38-.18-1.05,.37-1.13l4.22-.61c.22-.03,.4-.17,.5-.36l1.89-3.82c.24-.49,.95-.49,1.19,0Z"/>
      <path class="cls-9" d="M156.03,131.13l1.89,3.82c.1,.2,.28,.33,.5,.36l4.22,.61c.54,.08,.76,.75,.37,1.13l-3.05,2.98c-.16,.15-.23,.37-.19,.59l.72,4.2c.09,.54-.48,.95-.96,.7l-3.78-1.98c-.19-.1-.42-.1-.62,0l-3.78,1.98c-.49,.26-1.05-.16-.96-.7l.72-4.2c.04-.22-.03-.43-.19-.59l-3.05-2.98c-.39-.38-.18-1.05,.37-1.13l4.22-.61c.22-.03,.4-.17,.5-.36l1.89-3.82c.24-.49,.95-.49,1.19,0Z"/>
      <path class="cls-15" d="M131.38,146.91c.88,.85,1.78,1.68,2.69,2.5l-.33-1.24c-.25,1.63-.5,3.26-.75,4.89-.1,.66,.17,1.4,.89,1.57,.61,.14,1.46-.19,1.57-.89,.13-.83,.26-1.65,.38-2.48l.26-1.68c.05-.34,.16-.72,.16-1.06,0-.83-.96-1.43-1.52-1.95-.52-.48-1.03-.96-1.54-1.45-.48-.46-1.33-.51-1.8,0s-.51,1.31,0,1.8h0Z"/>
      <path class="cls-15" d="M149.08,137.75c.88,.85,1.78,1.68,2.69,2.5l-.33-1.24c-.25,1.63-.5,3.26-.75,4.89-.1,.66,.17,1.4,.89,1.57,.61,.14,1.46-.19,1.57-.89,.13-.83,.26-1.65,.38-2.48l.26-1.68c.05-.34,.16-.72,.16-1.06,0-.83-.96-1.43-1.52-1.95-.52-.48-1.03-.96-1.54-1.45-.48-.46-1.33-.51-1.8,0s-.51,1.31,0,1.8h0Z"/>
      <path class="cls-9" d="M114.99,140.14l1.89,3.82c.1,.2,.28,.33,.5,.36l4.22,.61c.54,.08,.76,.75,.37,1.13l-3.05,2.98c-.16,.15-.23,.37-.19,.59l.72,4.2c.09,.54-.48,.95-.96,.7l-3.78-1.98c-.19-.1-.42-.1-.62,0l-3.78,1.98c-.49,.26-1.05-.16-.96-.7l.72-4.2c.04-.22-.03-.43-.19-.59l-3.05-2.98c-.39-.38-.18-1.05,.37-1.13l4.22-.61c.22-.03,.4-.17,.5-.36l1.89-3.82c.24-.49,.95-.49,1.19,0Z"/>
      <path class="cls-15" d="M108.05,146.64c.88,.85,1.78,1.68,2.69,2.5l-.33-1.24c-.25,1.63-.5,3.26-.75,4.89-.1,.66,.17,1.4,.89,1.57,.61,.14,1.46-.19,1.57-.89,.13-.83,.26-1.65,.38-2.48l.26-1.68c.05-.34,.16-.72,.16-1.06,0-.83-.96-1.43-1.52-1.95-.52-.48-1.03-.96-1.54-1.45-.48-.46-1.33-.51-1.8,0s-.51,1.31,0,1.8h0Z"/>
      <path class="cls-9" d="M95.09,130.98l1.89,3.82c.1,.2,.28,.33,.5,.36l4.22,.61c.54,.08,.76,.75,.37,1.13l-3.05,2.98c-.16,.15-.23,.37-.19,.59l.72,4.2c.09,.54-.48,.95-.96,.7l-3.78-1.98c-.19-.1-.42-.1-.62,0l-3.78,1.98c-.49,.26-1.05-.16-.96-.7l.72-4.2c.04-.22-.03-.43-.19-.59l-3.05-2.98c-.39-.38-.18-1.05,.37-1.13l4.22-.61c.22-.03,.4-.17,.5-.36l1.89-3.82c.24-.49,.95-.49,1.19,0Z"/>
      <path class="cls-15" d="M88.15,137.48c.88,.85,1.78,1.68,2.69,2.5l-.33-1.24c-.25,1.63-.5,3.26-.75,4.89-.1,.66,.17,1.4,.89,1.57,.61,.14,1.46-.19,1.57-.89,.13-.83,.26-1.65,.38-2.48l.26-1.68c.05-.34,.16-.72,.16-1.06,0-.83-.96-1.43-1.52-1.95-.52-.48-1.03-.96-1.54-1.45-.48-.46-1.33-.51-1.8,0s-.51,1.31,0,1.8h0Z"/>
      <path class="cls-27" d="M115.92,124.27c-.48,2.8-.96,5.6-1.44,8.39-.27,1.57,1.17,2.76,2.65,2.03,3.22-1.58,6.44-3.17,9.66-4.75h-1.82c3.26,1.73,6.52,3.46,9.77,5.19,2.05,1.09,3.87-2.02,1.82-3.11-2.89-1.54-5.78-3.07-8.67-4.61-.37-.19-.73-.41-1.1-.59-.88-.42-1.58-.12-2.36,.26l-4.9,2.41-4.23,2.08,2.65,2.03c.48-2.8,.96-5.6,1.44-8.39,.16-.96-.25-1.94-1.26-2.22-.87-.24-2.05,.29-2.22,1.26h0Z"/>
      <path class="cls-38" d="M132.53,115.13c2.4,.34,4.8,.69,7.2,1.03l1.02,.15c.5,.07,.93,.08,1.39-.18,.37-.22,.73-.65,.83-1.08,.19-.85-.26-2.07-1.26-2.22-2.4-.34-4.8-.69-7.2-1.03l-1.02-.15c-.5-.07-.93-.08-1.39,.18-.37,.22-.73,.65-.83,1.08-.19,.85,.26,2.07,1.26,2.22h0Z"/>
      <g>
        <path class="cls-5" d="M111.65,119.16c-.13,0-.25-.05-.35-.14l-3.06-2.98c-.55-.54-.75-1.33-.51-2.06,.24-.73,.86-1.26,1.62-1.37l3.14-.46c.26-.04,.53,.15,.57,.42,.04,.27-.15,.53-.42,.57l-3.14,.46c-.39,.06-.7,.31-.82,.69-.12,.37-.03,.76,.26,1.04l3.06,2.98c.2,.19,.2,.51,0,.71-.1,.1-.23,.15-.36,.15Z"/>
        <path class="cls-5" d="M110,155.12c-.24,0-.48-.08-.68-.22-.36-.26-.54-.7-.46-1.14l.72-4.21c0-.05,0-.11-.05-.14l-3.05-2.98c-.32-.31-.43-.77-.29-1.19s.5-.73,.94-.79l4.22-.61c.05,0,.1-.04,.12-.09l1.89-3.83c.2-.4,.6-.65,1.04-.65s.85,.25,1.04,.65h0l1.89,3.83s.07,.08,.12,.09l4.22,.61c.44,.06,.8,.37,.94,.79,.14,.42,.02,.88-.29,1.19l-3.05,2.98s-.06,.09-.05,.14l.72,4.2c.08,.44-.1,.88-.46,1.14-.36,.26-.83,.3-1.22,.09l-3.78-1.99s-.1-.03-.15,0l-3.78,1.99c-.17,.09-.36,.13-.54,.13Zm4.39-14.85s-.11,.01-.15,.09l-1.89,3.83c-.17,.34-.5,.58-.88,.64l-4.22,.61c-.09,.01-.12,.08-.13,.11s-.02,.11,.04,.17l3.05,2.98c.27,.27,.4,.65,.33,1.03l-.72,4.2c-.02,.09,.03,.14,.06,.16,.03,.02,.09,.05,.17,.01l3.78-1.99c.34-.18,.74-.18,1.08,0l3.78,1.99c.08,.04,.14,0,.17-.01s.08-.07,.06-.16l-.72-4.2c-.06-.38,.06-.76,.33-1.03l3.05-2.98c.06-.06,.05-.13,.04-.17s-.04-.1-.13-.11l-4.22-.61c-.38-.05-.71-.29-.88-.64l-1.89-3.83c-.04-.08-.11-.09-.15-.09Z"/>
        <path class="cls-5" d="M90.1,145.96c-.24,0-.48-.08-.68-.22-.36-.26-.54-.7-.46-1.14l.72-4.21c0-.05,0-.11-.05-.14l-3.05-2.98c-.32-.31-.43-.77-.29-1.19s.5-.73,.94-.79l4.22-.61c.05,0,.1-.04,.12-.09l1.89-3.83c.2-.4,.6-.65,1.04-.65s.85,.25,1.04,.65h0l1.89,3.83s.07,.08,.12,.09l4.22,.61c.44,.06,.8,.37,.94,.79,.14,.42,.02,.88-.29,1.19l-3.05,2.98s-.06,.09-.05,.14l.72,4.2c.08,.44-.1,.88-.46,1.14-.36,.26-.83,.3-1.22,.09l-3.78-1.99s-.1-.03-.15,0l-3.78,1.99c-.17,.09-.36,.13-.54,.13Zm4.39-14.85s-.11,.01-.15,.09l-1.89,3.83c-.17,.34-.5,.58-.88,.64l-4.22,.61c-.09,.01-.12,.08-.13,.11s-.02,.11,.04,.17l3.05,2.98c.27,.27,.4,.65,.33,1.03l-.72,4.2c-.02,.09,.03,.14,.06,.16,.03,.02,.09,.05,.17,.01l3.78-1.99c.34-.18,.74-.18,1.08,0l3.78,1.99c.08,.04,.14,.01,.17-.01,.03-.02,.08-.07,.06-.16l-.72-4.2c-.06-.38,.06-.76,.33-1.03l3.05-2.98c.06-.06,.05-.13,.04-.17s-.04-.1-.13-.11l-4.22-.61c-.38-.05-.71-.29-.88-.64l-1.89-3.83c-.04-.08-.11-.09-.15-.09Z"/>
        <path class="cls-5" d="M141.71,155.12c-.18,0-.37-.04-.54-.13l-3.78-1.99s-.1-.03-.15,0l-3.78,1.99c-.39,.21-.86,.17-1.22-.09-.36-.26-.54-.7-.46-1.14l.72-4.21c0-.05,0-.11-.05-.14l-3.05-2.98c-.32-.31-.43-.77-.29-1.19,.14-.42,.5-.73,.94-.79l4.22-.61c.05,0,.1-.04,.12-.09l1.89-3.83c.2-.4,.6-.65,1.04-.65s.84,.25,1.04,.65h0l1.89,3.83s.07,.08,.12,.09l4.22,.61c.44,.06,.8,.37,.94,.79,.14,.42,.02,.88-.29,1.19l-3.05,2.98s-.06,.09-.05,.14l.72,4.2c.08,.44-.1,.88-.46,1.14-.2,.15-.44,.22-.68,.22Zm-4.39-3.14c.19,0,.37,.04,.54,.13l3.77,1.99c.08,.04,.14,0,.17-.01,.03-.02,.08-.07,.06-.16l-.72-4.2c-.06-.38,.06-.76,.33-1.03l3.05-2.98c.06-.06,.05-.13,.04-.17-.01-.04-.04-.1-.13-.11l-4.22-.61c-.38-.05-.71-.29-.88-.64l-1.89-3.83c-.08-.16-.21-.16-.29,0l-1.89,3.83c-.17,.34-.5,.58-.88,.64l-4.22,.61c-.09,.01-.12,.08-.13,.11-.01,.04-.02,.11,.04,.17l3.05,2.98c.27,.27,.4,.65,.34,1.03l-.72,4.21c-.02,.09,.03,.14,.06,.16s.09,.05,.17,.01l3.78-1.99c.17-.09,.36-.13,.54-.13Z"/>
        <path class="cls-5" d="M159.83,146.11c-.18,0-.37-.04-.54-.13l-3.78-1.98s-.1-.03-.15,0l-3.78,1.98c-.4,.21-.86,.17-1.22-.09-.36-.26-.54-.7-.46-1.14l.72-4.2c0-.05,0-.11-.05-.14l-3.05-2.98c-.32-.31-.43-.77-.29-1.19,.14-.42,.5-.73,.94-.79l4.22-.61c.05,0,.1-.04,.12-.09l1.89-3.83c.2-.4,.6-.65,1.04-.65s.84,.25,1.04,.65l1.89,3.82s.07,.08,.12,.09l4.22,.61c.44,.06,.8,.37,.94,.79,.14,.42,.02,.88-.29,1.19l-3.05,2.98s-.06,.09-.05,.14l.72,4.2c.08,.44-.1,.88-.46,1.14-.2,.15-.44,.22-.68,.22Zm-4.39-3.14c.19,0,.37,.04,.54,.13l3.77,1.98c.08,.04,.14,0,.17-.01,.03-.02,.08-.07,.06-.16l-.72-4.2c-.06-.38,.06-.76,.33-1.03l3.05-2.98c.06-.06,.05-.13,.04-.17s-.04-.1-.13-.11l-4.22-.61c-.38-.05-.71-.29-.88-.64l-1.89-3.82h0c-.08-.16-.21-.16-.29,0l-1.89,3.83c-.17,.34-.5,.58-.88,.64l-4.22,.61c-.09,.01-.12,.07-.13,.11s-.02,.11,.04,.17l3.05,2.98c.27,.27,.4,.65,.34,1.03l-.72,4.21c-.02,.09,.03,.14,.06,.16,.03,.02,.09,.05,.17,.01l3.78-1.98c.17-.09,.36-.13,.54-.13Z"/>
        <path class="cls-5" d="M115.84,135.67c-.42,0-.83-.13-1.18-.39-.62-.45-.93-1.21-.8-1.97l1.65-9.59c.06-.33-.05-.66-.29-.9l-1.94-1.89c-.2-.19-.2-.51,0-.71,.2-.2,.51-.2,.71,0l1.94,1.89c.47,.46,.69,1.13,.58,1.78l-1.65,9.59c-.07,.39,.08,.76,.4,.99,.32,.23,.72,.26,1.07,.08l8.61-4.53c.58-.31,1.29-.31,1.87,0l8.61,4.53c.35,.18,.75,.15,1.07-.08,.32-.23,.47-.6,.4-.99l-1.64-9.59c-.11-.65,.1-1.32,.58-1.78l6.97-6.79c.28-.27,.38-.66,.26-1.04-.12-.38-.43-.63-.82-.69l-9.63-1.4c-.66-.1-1.22-.51-1.52-1.1l-4.3-8.72c-.17-.35-.51-.56-.91-.56h0c-.39,0-.73,.21-.91,.56l-4.31,8.72c-.29,.59-.86,1-1.51,1.1l-3.15,.46c-.27,.03-.53-.15-.57-.42-.04-.27,.15-.53,.42-.57l3.15-.46c.33-.05,.62-.26,.76-.55l4.31-8.72c.34-.69,1.03-1.12,1.8-1.12h0c.77,0,1.46,.43,1.8,1.12l4.31,8.72c.15,.3,.43,.51,.76,.55l9.63,1.4c.76,.11,1.39,.64,1.62,1.37,.24,.73,.04,1.52-.51,2.06l-6.97,6.79c-.24,.23-.35,.57-.29,.9l1.64,9.59c.13,.76-.18,1.52-.8,1.97s-1.44,.51-2.12,.15l-8.61-4.53c-.29-.15-.65-.15-.94,0l-8.61,4.53c-.3,.16-.62,.23-.94,.23Z"/>
      </g>
      <polygon class="cls-1" points="249.37 30.25 236.84 22.14 194.34 22.44 182.14 30.32 215.83 45.77 249.37 30.25"/>
      <path class="cls-18" d="M241.73,73.08h-51.82c-4.29,0-7.77-3.48-7.77-7.77V30.57l27.16,12.37c3.95,1.8,8.47,1.81,12.43,.04l27.76-12.41v34.74c0,4.29-3.48,7.77-7.77,7.77Z"/>
      <path class="cls-13" d="M236.54,36.41V9.13c0-4.06,3.29-7.35,7.35-7.35h-41.8c-4.06,0-7.35,3.29-7.35,7.35v26.22l14,7.17c4.22,2.16,9.2,2.29,13.53,.33l14.27-6.44Z"/>
      <path class="cls-19" d="M214.49,72.12h-26.4c-1,0-1.82-.81-1.82-1.82s.81-1.82,1.82-1.82h26.4c1,0,1.82,.81,1.82,1.82s-.81,1.82-1.82,1.82Z"/>
      <path class="cls-19" d="M229.82,72.12h-6.85c-1,0-1.82-.81-1.82-1.82s.81-1.82,1.82-1.82h6.85c1,0,1.82,.81,1.82,1.82s-.81,1.82-1.82,1.82Z"/>
      <g>
        <path class="cls-5" d="M239.06,62.11h-.12c-.24-.07-.38-.31-.31-.55l1.44-5.05c.07-.24,.31-.38,.55-.31,0,0,0,0,0,0,.24,.07,.38,.31,.31,.55l-1.45,5.05c-.06,.19-.23,.31-.43,.31Z"/>
        <path class="cls-5" d="M240.89,65.6h-.12c-.24-.07-.38-.31-.31-.55,0,0,0,0,0,0l2.88-10.07c.06-.23,.3-.37,.53-.31,0,0,.01,0,.02,0,.24,.07,.38,.31,.31,.55,0,0,0,0,0,0l-2.88,10.06c-.05,.19-.23,.32-.43,.32Z"/>
      </g>
      <path class="cls-5" d="M194.73,35.52c-.28,0-.5-.22-.5-.5V8.8c0-4.33,3.52-7.85,7.85-7.85h34.31c.28,0,.5,.22,.5,.5s-.22,.5-.5,.5h-34.31c-3.78,0-6.85,3.07-6.85,6.85v26.22c0,.28-.22,.5-.5,.5Z"/>
      <path class="cls-5" d="M236.54,36.58c-.28,0-.5-.22-.5-.5V8.8c0-4.33,3.52-7.85,7.85-7.85,.28,0,.5,.22,.5,.5s-.22,.5-.5,.5c-3.78,0-6.85,3.07-6.85,6.85v27.28c0,.28-.22,.5-.5,.5Z"/>
      <path class="cls-5" d="M250.8,9.25h-11.23c-.28,0-.5-.22-.5-.5s.22-.5,.5-.5h10.72c-.2-5.13-3.39-6.12-3.53-6.16-.26-.08-.42-.35-.34-.62,.08-.27,.35-.42,.61-.34,.17,.05,4.26,1.27,4.26,7.63,0,.28-.22,.5-.5,.5Z"/>
      <path class="cls-5" d="M190.29,25.58c-.16,0-.32-.08-.42-.23-.15-.23-.08-.54,.15-.69l4.21-2.72c.23-.15,.54-.08,.69,.15,.15,.23,.08,.54-.15,.69l-4.21,2.72c-.08,.05-.18,.08-.27,.08Z"/>
      <path class="cls-5" d="M182.3,30.75c-.16,0-.32-.08-.42-.23-.15-.23-.08-.54,.15-.69l5.13-3.32c.23-.15,.54-.08,.69,.15,.15,.23,.08,.54-.15,.69l-5.13,3.32c-.08,.05-.18,.08-.27,.08Z"/>
      <path class="cls-5" d="M249.7,30.75c-.09,0-.19-.03-.27-.08l-12.2-7.88c-.23-.15-.3-.46-.15-.69,.15-.23,.46-.3,.69-.15l12.2,7.88c.23,.15,.3,.46,.15,.69-.1,.15-.26,.23-.42,.23Z"/>
      <g>
        <path class="cls-5" d="M225.53,11.04h-23.23c-.28,0-.5-.22-.5-.5s.22-.5,.5-.5h23.23c.28,0,.5,.22,.5,.5s-.22,.5-.5,.5Z"/>
        <path class="cls-5" d="M225.53,15.56h-23.23c-.28,0-.5-.22-.5-.5s.22-.5,.5-.5h23.23c.28,0,.5,.22,.5,.5s-.22,.5-.5,.5Z"/>
        <path class="cls-5" d="M212.43,20.08h-10.13c-.28,0-.5-.22-.5-.5s.22-.5,.5-.5h10.13c.28,0,.5,.22,.5,.5s-.22,.5-.5,.5Z"/>
      </g>
      <g>
        <path class="cls-5" d="M225.53,26.88h-23.23c-.28,0-.5-.22-.5-.5s.22-.5,.5-.5h23.23c.28,0,.5,.22,.5,.5s-.22,.5-.5,.5Z"/>
        <path class="cls-5" d="M225.53,31.4h-23.23c-.28,0-.5-.22-.5-.5s.22-.5,.5-.5h23.23c.28,0,.5,.22,.5,.5s-.22,.5-.5,.5Z"/>
      </g>
      <path class="cls-3" d="M198.86,42.82c-.25,0-.51-.05-.76-.17l-11.26-5.17c-.91-.42-1.31-1.5-.89-2.41,.42-.91,1.5-1.31,2.41-.89l11.26,5.17c.91,.42,1.31,1.5,.89,2.41-.31,.67-.96,1.06-1.65,1.06Z"/>
      <path class="cls-30" d="M219.31,43.12h-6.88c-.27,0-.53-.06-.78-.17l-11.26-5.17c-.94-.43-1.35-1.54-.92-2.47,.43-.94,1.54-1.35,2.47-.92l10.89,5h6.07l13.45-6.07c.94-.43,2.04,0,2.46,.93,.42,.94,0,2.04-.93,2.46l-13.81,6.23c-.24,.11-.5,.17-.77,.17Z"/>
      <path class="cls-3" d="M211.38,47.59c-.19,0-.39-.03-.58-.1l-4.58-1.54c-.95-.32-1.46-1.35-1.14-2.3,.32-.95,1.35-1.47,2.3-1.14l4.58,1.54c.95,.32,1.46,1.35,1.14,2.3-.26,.76-.96,1.24-1.72,1.24Z"/>
      <path class="cls-3" d="M221.32,47.16c-.71,0-1.38-.42-1.68-1.11-.39-.93,.05-1.99,.97-2.38l5.29-2.22c.93-.39,1.99,.05,2.38,.97,.39,.93-.05,1.99-.97,2.38l-5.29,2.22c-.23,.1-.47,.14-.7,.14Z"/>
      <path class="cls-5" d="M241.89,73.25h-51.82c-4.56,0-8.27-3.71-8.27-8.27v-17.77c0-.28,.22-.5,.5-.5s.5,.22,.5,.5v17.77c0,4.01,3.26,7.27,7.27,7.27h51.82c4.01,0,7.27-3.26,7.27-7.27V31.02l-27.06,12.1c-4.09,1.83-8.77,1.81-12.84-.04l-26.45-12.05v11.39c0,.28-.22,.5-.5,.5s-.5-.22-.5-.5v-12.17c0-.17,.09-.33,.23-.42,.14-.09,.32-.11,.48-.03l27.16,12.37c3.81,1.74,8.2,1.75,12.02,.04l27.76-12.42c.16-.07,.33-.05,.48,.04,.14,.09,.23,.25,.23,.42v34.74c0,4.56-3.71,8.27-8.27,8.27Z"/>
      <g>
        <path class="cls-5" d="M196.49,55.14c-.08,0-.17-.02-.25-.07-.24-.14-.32-.44-.18-.68l7.95-13.88c.14-.24,.44-.32,.68-.18,.24,.14,.32,.44,.18,.68l-7.95,13.88c-.09,.16-.26,.25-.43,.25Z"/>
        <path class="cls-5" d="M235.47,55.14c-.17,0-.34-.09-.43-.25l-7.95-13.88c-.14-.24-.05-.55,.18-.68,.24-.14,.54-.06,.68,.18l7.95,13.88c.14,.24,.05,.55-.18,.68-.08,.04-.16,.07-.25,.07Z"/>
      </g>
      <path class="cls-20" d="M192.48,157.85l-5.82-.1-1.16-5.36-.77-6.77-3.35-29.01c-.41-3.45,2.33-6.48,5.84-6.48h37.74c2.35,0,4.25,1.88,4.25,4.2v43.52h-36.74Z"/>
      <path class="cls-9" d="M228.48,157.82v-43.51c0-.25-.02-.5-.07-.73l.34,.12h19.1c3.88,0,7.03,3.15,7.03,7.03v15.26l-3.29-2.88,2.29,2.35c.96,.99,1.51,2.33,1.51,3.72v17.72c0,.64-.52,1.16-1.16,1.16h-23.04"/>
      <path class="cls-29" d="M232.5,116.89h14.6c2.32,0,4.21,1.89,4.21,4.21v11.33h-18.82c-.84,0-1.53-.68-1.53-1.53v-12.49c0-.84,.68-1.53,1.53-1.53Z"/>
      <g>
        <path class="cls-5" d="M220.36,151.48h-.08c-.16-.05-.26-.21-.21-.37l.98-3.44c.04-.16,.21-.26,.37-.21,0,0,0,0,0,0,.16,.05,.26,.21,.21,.37l-.99,3.44c-.04,.13-.16,.21-.29,.21Z"/>
        <path class="cls-5" d="M221.6,153.85h-.08c-.16-.04-.26-.21-.21-.37,0,0,0,0,0,0l1.96-6.85c.04-.16,.2-.25,.36-.21,0,0,0,0,.01,0,.16,.04,.26,.21,.21,.37,0,0,0,0,0,0l-1.96,6.85c-.04,.13-.16,.22-.29,.22Z"/>
      </g>
      <path class="cls-7" d="M213.17,113.33h-12.98c-.92,0-1.67-.75-1.67-1.67,0-.92,.75-1.67,1.67-1.67h12.99c.92,0,1.67,.75,1.67,1.67s-.75,1.67-1.67,1.67h0Z"/>
      <path class="cls-7" d="M224.07,113.33h-4.71c-.92,0-1.67-.75-1.67-1.67,0-.92,.75-1.67,1.67-1.67h4.71c.92,0,1.67,.75,1.67,1.67s-.75,1.67-1.67,1.67h0Z"/>
      <path class="cls-7" d="M194.43,113.33h-4.71c-.92,0-1.67-.75-1.67-1.67,0-.92,.75-1.67,1.67-1.67h4.71c.92,0,1.67,.75,1.67,1.67,0,.92-.75,1.67-1.67,1.67Z"/>
      <path class="cls-13" d="M208.15,113.33h-3.61c-.92,0-1.67-.75-1.67-1.67,0-.92,.75-1.67,1.67-1.67h3.61c.92,0,1.67,.75,1.67,1.67s-.75,1.67-1.67,1.67h0Z"/>
      <path class="cls-17" d="M228.31,154.63v-12.98c0-.92,.75-1.67,1.67-1.67,.92,0,1.67,.75,1.67,1.67h0v12.99c0,.92-.75,1.67-1.67,1.67s-1.67-.75-1.67-1.67h0Z"/>
      <path class="cls-17" d="M228.31,135.88v-4.71c0-.92,.75-1.67,1.67-1.67,.92,0,1.67,.75,1.67,1.67v4.71c0,.92-.75,1.67-1.67,1.67-.92,0-1.67-.75-1.67-1.67Z"/>
      <path class="cls-22" d="M228.31,149.61v-3.61c0-.92,.75-1.67,1.67-1.67,.92,0,1.67,.75,1.67,1.67v3.61c0,.92-.75,1.67-1.67,1.67s-1.67-.75-1.67-1.67h0Z"/>
      <path class="cls-11" d="M184.48,143.45l-1.39-12.91c-.1-.92,.56-1.74,1.48-1.84,.92-.1,1.74,.56,1.84,1.48h0s1.39,12.91,1.39,12.91c.1,.92-.56,1.74-1.48,1.84s-1.74-.56-1.84-1.48h0Z"/>
      <path class="cls-10" d="M183.94,138.46l-.39-3.59c-.1-.92,.57-1.74,1.48-1.84,.92-.1,1.74,.57,1.84,1.48l.39,3.59c.1,.92-.56,1.74-1.48,1.84s-1.74-.56-1.84-1.48h0Z"/>
      <path class="cls-23" d="M228.31,122.75v-3.61c0-.92,.75-1.67,1.67-1.67,.92,0,1.67,.75,1.67,1.67v3.61c0,.92-.75,1.67-1.67,1.67s-1.67-.75-1.67-1.67h0Z"/>
      <path class="cls-39" d="M236.44,119.02h-4.12c-.49,0-.89-.4-.89-.89s.4-.89,.89-.89h4.12c.49,0,.89,.4,.89,.89s-.4,.89-.89,.89Z"/>
      <path class="cls-39" d="M231.7,123.16v-4.12c0-.49,.4-.89,.89-.89s.89,.4,.89,.89h0v4.12c0,.49-.4,.89-.89,.89s-.89-.4-.89-.89Z"/>
      <g>
        <polygon class="cls-13" points="235.88 132.47 234.91 132.47 238.38 116.44 239.34 116.44 235.88 132.47"/>
        <polygon class="cls-13" points="241.38 132.47 237.34 132.47 240.8 116.44 244.84 116.44 241.38 132.47"/>
      </g>
      <circle class="cls-33" cx="199.51" cy="157.69" r="7.37"/>
      <g>
        <path class="cls-5" d="M194.13,124.26h-18.66c-.34,0-.62-.28-.62-.62s.28-.62,.62-.62h18.66c.34,0,.62,.28,.62,.62s-.28,.62-.62,.62Z"/>
        <path class="cls-5" d="M187.7,128.03h-9.3c-.34,0-.62-.28-.62-.62s.28-.62,.62-.62h9.3c.34,0,.62,.28,.62,.62s-.28,.62-.62,.62Z"/>
        <path class="cls-5" d="M188.29,138.31h-8.72c-.34,0-.62-.28-.62-.62s.28-.62,.62-.62h8.72c.34,0,.62,.28,.62,.62s-.28,.62-.62,.62Z"/>
        <path class="cls-5" d="M196.47,142.43h-17.49c-.34,0-.62-.28-.62-.62s.28-.62,.62-.62h17.49c.34,0,.62,.28,.62,.62s-.28,.62-.62,.62Z"/>
      </g>
      <circle class="cls-24" cx="199.27" cy="157.87" r="3.44"/>
      <path class="cls-15" d="M254.2,157.72h-3.9c-.83,0-1.5-.67-1.5-1.5s.67-1.5,1.5-1.5h2.4v-15.81c0-.83,.67-1.5,1.5-1.5s1.5,.67,1.5,1.5v17.32c0,.83-.67,1.5-1.5,1.5Z"/>
      <path class="cls-15" d="M236.69,156.15c.07-.35,.16-.7,.27-1.04,.05-.15,.11-.31,.17-.46,.07-.2-.17,.36-.04,.1,.04-.09,.08-.17,.12-.25,.14-.28,.3-.54,.47-.8,.04-.06,.09-.13,.13-.19,.16-.22,0,0-.07,.09,.12-.12,.22-.26,.33-.39,.23-.25,.47-.49,.73-.71,.07-.06,.13-.12,.2-.17,.04-.03,.08-.07,.13-.1,.1-.08,.06-.04-.13,.1,0,0,.4-.29,.44-.31,.3-.2,.61-.39,.93-.56,.17-.09,.35-.18,.52-.26,.08-.04,.16-.07,.24-.11l-.22,.09c.06-.03,.13-.05,.19-.07,.42-.16,.78-.37,1.01-.78,.21-.36,.3-.9,.17-1.3-.26-.8-1.2-1.52-2.08-1.18-1.69,.65-3.3,1.63-4.52,2.98-1.14,1.26-1.92,2.77-2.26,4.44-.18,.87,.25,1.87,1.18,2.08,.85,.19,1.89-.25,2.08-1.18h0Z"/>
      <circle class="cls-33" cx="243.4" cy="157.52" r="7.37"/>
      <circle class="cls-24" cx="243.55" cy="157.92" r="3.44"/>
      <circle class="cls-34" cx="243.46" cy="157.83" r="1.78"/>
      <circle class="cls-34" cx="199.8" cy="157.83" r="1.78"/>
      <g>
        <path class="cls-13" d="M195.66,155.99c0-.08,.04-.16,.06-.25s.03-.09,.05-.13,.09-.22,0-.06,0,0,0-.04l.06-.12c.04-.08,.09-.16,.13-.24s.11-.18,.17-.26c.03-.04,.06-.08,.09-.12-.05,.09-.11,.13,0,0,.13-.15,.27-.3,.42-.44l.23-.2c.15-.12-.16,.12,0,0l.13-.09c.19-.12,.38-.24,.58-.34l.15-.07,.11-.05-.1,.04s.28-.11,.33-.12c.25-.08,.51-.15,.77-.19,.47-.13,.74-.61,.61-1.08-.15-.45-.62-.7-1.08-.58-2,.36-3.91,1.84-4.41,3.87-.13,.47,.15,.95,.61,1.08,.47,.13,.95-.15,1.08-.61h0Z"/>
        <circle class="cls-13" cx="200.9" cy="152.65" r=".91"/>
      </g>
      <g>
        <g>
          <path class="cls-5" d="M237.41,138.96h-8.33c-.28,0-.5-.22-.5-.5s.22-.5,.5-.5h8.33c.28,0,.5,.22,.5,.5s-.22,.5-.5,.5Z"/>
          <path class="cls-5" d="M240.88,138.96h-1.29c-.28,0-.5-.22-.5-.5s.22-.5,.5-.5h1.29c.28,0,.5,.22,.5,.5s-.22,.5-.5,.5Z"/>
        </g>
        <g>
          <path class="cls-5" d="M213.71,110.43h-12.88c-.28,0-.5-.22-.5-.5s.22-.5,.5-.5h12.88c.28,0,.5,.22,.5,.5s-.22,.5-.5,.5Z"/>
          <g>
            <path class="cls-5" d="M251.58,133.42h-9.18c-.28,0-.5-.22-.5-.5s.22-.5,.5-.5h8.68v-10.44c0-2.52-2.05-4.57-4.57-4.57h-13.6c-.55,0-1,.45-1,1v14.01h7.58c.28,0,.5,.22,.5,.5s-.22,.5-.5,.5h-8.08c-.28,0-.5-.22-.5-.5v-14.51c0-1.1,.9-2,2-2h13.6c3.07,0,5.57,2.5,5.57,5.57v10.94c0,.28-.22,.5-.5,.5Z"/>
            <path class="cls-5" d="M218.79,158.15h-11.53c-.28,0-.5-.22-.5-.5s.22-.5,.5-.5h11.53c.28,0,.5,.22,.5,.5s-.22,.5-.5,.5Z"/>
            <path class="cls-5" d="M229.06,158.15h-6.66c-.28,0-.5-.22-.5-.5s.22-.5,.5-.5h6.15l-.57-24.13c0-.28,.21-.5,.49-.51,.27-.02,.51,.21,.51,.49l.58,24.64c0,.13-.05,.26-.14,.36-.09,.1-.22,.15-.36,.15Z"/>
            <path class="cls-5" d="M228.48,130.71c-.28,0-.5-.22-.5-.5v-16.08c0-2.04-1.66-3.7-3.7-3.7h-5.82c-.28,0-.5-.22-.5-.5s.22-.5,.5-.5h5.82c2.59,0,4.7,2.11,4.7,4.7v16.08c0,.28-.22,.5-.5,.5Z"/>
            <path class="cls-5" d="M185.01,149.35c-.25,0-.47-.19-.5-.44l-3.77-32.43c-.21-1.79,.36-3.58,1.55-4.92,1.2-1.34,2.91-2.11,4.71-2.11h9.33c.28,0,.5,.22,.5,.5s-.22,.5-.5,.5h-9.33c-1.51,0-2.96,.65-3.97,1.78-1.01,1.13-1.48,2.64-1.31,4.14l3.77,32.43c.03,.27-.17,.52-.44,.55-.02,0-.04,0-.06,0Z"/>
            <path class="cls-5" d="M192.21,158.15h-6.17c-.25,0-.47-.19-.5-.44l-.68-5.83c-.03-.27,.17-.52,.44-.55,.27-.03,.52,.17,.55,.44l.63,5.39h5.72c.28,0,.5,.22,.5,.5s-.22,.5-.5,.5Z"/>
            <path class="cls-5" d="M254.87,136.89c-.28,0-.5-.22-.5-.5v-15.85c0-3.6-2.93-6.53-6.53-6.53h-19.1c-.28,0-.5-.22-.5-.5s.22-.5,.5-.5h19.1c4.15,0,7.53,3.38,7.53,7.53v15.85c0,.28-.22,.5-.5,.5Z"/>
            <path class="cls-5" d="M199.68,165.74c-4.34,0-7.88-3.53-7.88-7.87s3.53-7.87,7.88-7.87,7.87,3.53,7.87,7.87-3.53,7.87-7.87,7.87Zm0-14.75c-3.79,0-6.88,3.08-6.88,6.87s3.08,6.87,6.88,6.87,6.87-3.08,6.87-6.87-3.08-6.87-6.87-6.87Z"/>
            <path class="cls-5" d="M199.78,161.81c-2.17,0-3.94-1.77-3.94-3.94s1.77-3.94,3.94-3.94,3.94,1.77,3.94,3.94-1.77,3.94-3.94,3.94Zm0-6.88c-1.62,0-2.94,1.32-2.94,2.94s1.32,2.94,2.94,2.94,2.94-1.32,2.94-2.94-1.32-2.94-2.94-2.94Z"/>
            <path class="cls-5" d="M255.37,145.34c-.28,0-.5-.22-.5-.5v-5.85c0-1.26-.49-2.46-1.37-3.37l-2.29-2.35c-.19-.2-.19-.51,0-.71,.2-.19,.52-.19,.71,0l2.29,2.35c1.06,1.09,1.65,2.54,1.65,4.06v5.85c0,.28-.22,.5-.5,.5Z"/>
            <path class="cls-5" d="M254.22,158.37h-2.86c-.28,0-.5-.22-.5-.5s.22-.5,.5-.5h2.86c.36,0,.66-.29,.66-.66v-9.36c0-.28,.22-.5,.5-.5s.5,.22,.5,.5v9.36c0,.91-.74,1.66-1.66,1.66Z"/>
            <path class="cls-5" d="M243.44,165.74c-4.34,0-7.87-3.53-7.87-7.87s3.53-7.87,7.87-7.87,7.87,3.53,7.87,7.87-3.53,7.87-7.87,7.87Zm0-14.75c-3.79,0-6.87,3.08-6.87,6.87s3.08,6.87,6.87,6.87,6.87-3.08,6.87-6.87-3.08-6.87-6.87-6.87Z"/>
            <path class="cls-5" d="M243.44,161.81c-2.17,0-3.94-1.77-3.94-3.94s1.77-3.94,3.94-3.94,3.94,1.77,3.94,3.94-1.77,3.94-3.94,3.94Zm0-6.88c-1.62,0-2.94,1.32-2.94,2.94s1.32,2.94,2.94,2.94,2.94-1.32,2.94-2.94-1.32-2.94-2.94-2.94Z"/>
            <path class="cls-5" d="M235.92,158.37h-4.75c-.28,0-.5-.22-.5-.5s.22-.5,.5-.5h4.75c.28,0,.5,.22,.5,.5s-.22,.5-.5,.5Z"/>
          </g>
        </g>
      </g>
      <path class="cls-5" d="M13.97,103.65H2.99c-.28,0-.5-.22-.5-.5s.22-.5,.5-.5H13.97c.28,0,.5,.22,.5,.5s-.22,.5-.5,.5Z"/>
    </g>
  </g>
</svg>