<?xml version="1.0" encoding="UTF-8"?>
<svg id="Layer_2" data-name="Layer 2" xmlns="http://www.w3.org/2000/svg" viewBox="0 0 242.25 171.91">
  <defs>
    <style>
      .cls-1, .cls-2 {
        fill: #f2f2ff;
      }

      .cls-3 {
        fill: #f9a06e;
      }

      .cls-4 {
        fill: #f9aa41;
      }

      .cls-5 {
        fill: #00d656;
      }

      .cls-6, .cls-7, .cls-8, .cls-9 {
        fill: #000201;
      }

      .cls-10, .cls-11 {
        fill: #efa500;
      }

      .cls-12 {
        fill: #fdc6a2;
      }

      .cls-13 {
        fill: #fcdc3f;
      }

      .cls-14 {
        fill: #e3e3ee;
      }

      .cls-15 {
        fill: #fff;
      }

      .cls-16 {
        fill: #fff0b3;
      }

      .cls-17 {
        fill: #ff3e6c;
      }

      .cls-18 {
        fill: #fcf6db;
      }

      .cls-19 {
        fill: #efeff9;
      }

      .cls-20 {
        fill: #fdfeff;
      }

      .cls-21 {
        fill: #67919b;
      }

      .cls-22 {
        fill: #b8d6dd;
      }

      .cls-23 {
        fill: #2ff382;
      }

      .cls-24 {
        fill: #8c8c8c;
      }

      .cls-25, .cls-26, .cls-27 {
        fill: #bee4ed;
      }

      .cls-28 {
        fill: #c9c9d7;
      }

      .cls-29 {
        fill: #c8e2e8;
      }

      .cls-30 {
        fill: #dbefff;
      }

      .cls-31, .cls-32, .cls-33 {
        fill: #d2eef3;
      }

      .cls-34 {
        fill: #d2fce0;
      }

      .cls-35 {
        fill: #366e77;
      }

      .cls-36 {
        fill: #93b4be;
      }

      .cls-37 {
        fill: #6d929b;
      }

      .cls-38 {
        fill: #8686b2;
      }

      .cls-39 {
        fill: #86f7b3;
      }

      .cls-40 {
        fill: #85e4f9;
      }

      .cls-41 {
        fill: #555656;
      }

      .cls-42 {
        fill: #29b7ce;
      }

      .cls-43 {
        fill: #38757f;
      }

      .cls-44 {
        fill: #5ccce8;
      }

      .cls-45 {
        fill: #508996;
      }

      .cls-7 {
        opacity: .19;
      }

      .cls-11 {
        opacity: .51;
      }

      .cls-26 {
        opacity: .54;
      }

      .cls-32 {
        opacity: .48;
      }

      .cls-33, .cls-8 {
        opacity: .4;
      }

      .cls-9 {
        opacity: .41;
      }

      .cls-2 {
        opacity: .63;
      }

      .cls-27 {
        opacity: .66;
      }
    </style>
  </defs>
  <g id="Layer_3" data-name="Layer 3">
    <g>
      <polyline class="cls-36" points="30.47 16.3 30.47 12.76 39.61 12.76 39.61 16.3"/>
      <rect class="cls-37" x="30.47" y="12.76" width="9.14" height="1.77"/>
      <path class="cls-6" d="M39.61,16.8c-.28,0-.5-.22-.5-.5v-3.04h-8.14v3.04c0,.28-.22,.5-.5,.5s-.5-.22-.5-.5v-3.54c0-.28,.22-.5,.5-.5h9.14c.28,0,.5,.22,.5,.5v3.54c0,.28-.22,.5-.5,.5Z"/>
      <path class="cls-11" d="M64.69,50.27h0c-.99,0-1.78-.81-1.78-1.79,.01-2.9-.42-5.76-1.28-8.52-.29-.94,.23-1.94,1.17-2.24,.94-.29,1.94,.23,2.24,1.17,.97,3.11,1.46,6.34,1.45,9.61,0,.98-.8,1.78-1.78,1.78Z"/>
      <circle class="cls-13" cx="35.04" cy="47.81" r="31.45"/>
      <circle class="cls-30" cx="35.04" cy="47.81" r="24.14"/>
      <circle class="cls-15" cx="35.04" cy="47.81" r="5.19"/>
      <polyline class="cls-36" points="53.19 22.3 56.32 19.16 60.04 22.88 57.53 25.38"/>
      <polyline class="cls-36" points="16.62 22.03 14.01 19.42 10.3 23.14 12.54 25.38"/>
      <rect class="cls-36" x="25.44" y="4.5" width="19.19" height="8.2"/>
      <g>
        <path class="cls-6" d="M19.2,60.11h-.06c-.12-.05-.17-.18-.13-.3l.99-2.46c.05-.12,.18-.17,.29-.13,0,0,0,0,0,0,.12,.05,.17,.18,.13,.29l-.99,2.46c-.04,.09-.13,.15-.23,.13Z"/>
        <path class="cls-6" d="M19.94,61.95h-.06c-.12-.05-.17-.18-.13-.3,0,0,0,0,0,0l1.97-4.91c.04-.11,.17-.17,.28-.13,0,0,0,0,0,0,.12,.05,.17,.18,.13,.29,0,0,0,0,0,0l-1.97,4.91c-.04,.09-.13,.15-.23,.14Z"/>
      </g>
      <path class="cls-44" d="M43.59,29.2c7.73,3.67,12.51,11.6,11.91,20.18-.54,7.66-5.68,14.65-12.84,17.45-4.86,1.9-10.17,1.84-15.04,.02-1.94-.72-2.78,2.38-.85,3.1,9.14,3.42,19.79,.82,26.19-6.59s7.52-17.38,3.44-25.88c-2.32-4.82-6.35-8.75-11.17-11.04-1.86-.88-3.49,1.89-1.62,2.77h0Z"/>
      <path class="cls-6" d="M11.55,53.91c-.23,0-.43-.15-.49-.38-.44-1.86-.66-3.78-.66-5.71,0-7.08,3.05-13.82,8.37-18.5,.21-.18,.52-.16,.71,.04,.18,.21,.16,.52-.04,.71-5.1,4.49-8.03,10.96-8.03,17.75,0,1.85,.21,3.69,.64,5.48,.06,.27-.1,.54-.37,.6-.04,0-.08,.01-.12,.01Z"/>
      <path class="cls-6" d="M35.04,53.51c-3.14,0-5.69-2.55-5.69-5.69s2.55-5.69,5.69-5.69,5.69,2.55,5.69,5.69-2.55,5.69-5.69,5.69Zm0-10.39c-2.59,0-4.69,2.11-4.69,4.69s2.11,4.69,4.69,4.69,4.69-2.11,4.69-4.69-2.11-4.69-4.69-4.69Z"/>
      <g>
        <circle class="cls-6" cx="35.04" cy="28.97" r="1.89"/>
        <circle class="cls-6" cx="35.04" cy="65.63" r="1.89"/>
      </g>
      <g>
        <circle class="cls-6" cx="53.37" cy="47.3" r="1.89"/>
        <circle class="cls-6" cx="16.71" cy="47.3" r="1.89"/>
      </g>
      <g>
        <path class="cls-6" d="M57.53,25.88c-.13,0-.26-.05-.35-.15-.2-.2-.2-.51,0-.71l2.15-2.15-3.01-3.01-2.39,2.39c-.2,.2-.51,.2-.71,0s-.2-.51,0-.71l2.74-2.74c.2-.2,.51-.2,.71,0l3.72,3.72c.09,.09,.15,.22,.15,.35s-.05,.26-.15,.35l-2.5,2.5c-.1,.1-.23,.15-.35,.15Z"/>
        <path class="cls-6" d="M12.54,25.88c-.13,0-.26-.05-.35-.15l-2.5-2.5c-.2-.2-.2-.51,0-.71l3.72-3.72c.19-.19,.52-.19,.71,0l3.03,3.03c.2,.2,.2,.51,0,.71s-.51,.2-.71,0l-2.68-2.68-3.01,3.01,2.15,2.15c.2,.2,.2,.51,0,.71-.1,.1-.23,.15-.35,.15Z"/>
      </g>
      <path class="cls-6" d="M35.04,48.46c-.14,0-.27-.04-.39-.13-.28-.22-.34-.62-.12-.9l10.53-13.78c.22-.28,.62-.34,.9-.12,.28,.22,.34,.62,.12,.9l-10.53,13.78c-.13,.17-.32,.25-.51,.25Z"/>
      <path class="cls-6" d="M35.04,72.46c-10.03,0-18.98-5.99-22.8-15.27-.11-.26,.02-.55,.27-.65,.26-.1,.55,.02,.65,.27,3.66,8.9,12.25,14.65,21.87,14.65,13.04,0,23.64-10.61,23.64-23.64s-10.61-23.64-23.64-23.64c-4.69,0-9.23,1.37-13.12,3.97-.23,.15-.54,.09-.69-.14s-.09-.54,.14-.69c4.05-2.71,8.78-4.14,13.67-4.14,13.59,0,24.64,11.05,24.64,24.64s-11.05,24.64-24.64,24.64Z"/>
      <path class="cls-16" d="M6.81,39.79c-.2,0-.4-.03-.6-.1-.93-.33-1.41-1.35-1.08-2.28,1.75-4.89,4.75-9.28,8.69-12.68,.75-.65,1.87-.56,2.52,.18,.65,.75,.56,1.87-.18,2.52-3.47,3-6.12,6.87-7.66,11.18-.26,.73-.95,1.18-1.68,1.18Z"/>
      <path class="cls-16" d="M7.58,61.29c-.69,0-1.35-.4-1.64-1.08-2.06-4.77-2.86-10.03-2.31-15.2,.1-.98,.99-1.69,1.96-1.59,.98,.1,1.69,.98,1.58,1.96-.49,4.56,.22,9.19,2.04,13.4,.39,.9-.02,1.96-.93,2.35-.23,.1-.47,.15-.71,.15Z"/>
      <path class="cls-6" d="M35.04,79.77c-17.62,0-31.95-14.33-31.95-31.95,0-5.41,1.38-10.75,3.98-15.46,.13-.24,.44-.33,.68-.2,.24,.13,.33,.44,.2,.68-2.52,4.56-3.86,9.73-3.86,14.97,0,17.07,13.89,30.95,30.95,30.95,.28,0,.5,.22,.5,.5s-.22,.5-.5,.5Z"/>
      <path class="cls-18" d="M20.39,23.99c-.55,0-1.09-.25-1.44-.73-.58-.8-.4-1.91,.39-2.49,2.21-1.61,4.8-2.77,7.47-3.34,.96-.21,1.91,.4,2.12,1.37,.21,.96-.4,1.91-1.37,2.12-2.19,.47-4.31,1.42-6.13,2.74-.32,.23-.68,.34-1.05,.34Z"/>
      <path class="cls-6" d="M9.72,29.65c-.1,0-.21-.03-.3-.1-.22-.16-.27-.48-.11-.7,2.87-3.89,6.65-7.13,10.92-9.36,.24-.13,.55-.03,.67,.21,.13,.24,.03,.55-.21,.67-4.14,2.17-7.8,5.3-10.58,9.07-.1,.13-.25,.2-.4,.2Z"/>
      <path class="cls-22" d="M42.58,7.69h-7.68c-.99,0-1.78-.8-1.78-1.78s.8-1.78,1.78-1.78h7.68c.99,0,1.78,.8,1.78,1.78s-.8,1.78-1.78,1.78Z"/>
      <path class="cls-6" d="M44.64,13.2H25.44c-.28,0-.5-.22-.5-.5V4.5c0-.28,.22-.5,.5-.5h3.36c.28,0,.5,.22,.5,.5s-.22,.5-.5,.5h-2.86v7.2h18.19V5h-12.04c-.28,0-.5-.22-.5-.5s.22-.5,.5-.5h12.54c.28,0,.5,.22,.5,.5V12.7c0,.28-.22,.5-.5,.5Z"/>
      <path class="cls-6" d="M35.04,10.3h-9.6c-.2,0-.36-.16-.36-.36s.16-.36,.36-.36h9.6c.2,0,.36,.16,.36,.36s-.16,.36-.36,.36Z"/>
      <path class="cls-10" d="M51.38,73.47c-.62,0-1.22-.32-1.55-.9-.49-.86-.19-1.95,.66-2.44,4.04-2.31,7.5-6.43,10.28-12.25,.43-.89,1.49-1.27,2.38-.84,.89,.43,1.26,1.49,.84,2.38-3.1,6.48-7.05,11.12-11.73,13.8-.28,.16-.58,.24-.88,.24Z"/>
      <path class="cls-6" d="M39.89,79.4c-.24,0-.46-.18-.49-.42-.04-.27,.14-.53,.42-.57,15.17-2.35,26.18-15.21,26.18-30.59,0-17.07-13.89-30.95-30.96-30.95-3.67,0-7.27,.64-10.68,1.89-.26,.1-.55-.04-.64-.3-.09-.26,.04-.55,.3-.64,3.53-1.3,7.24-1.96,11.03-1.96,17.62,0,31.96,14.33,31.96,31.95,0,15.87-11.37,29.15-27.02,31.58-.03,0-.05,0-.08,0Z"/>
      <path class="cls-20" d="M25.47,34.75c.09-.13,.18-.26,.28-.39l-.28,.36c.37-.48,.8-.9,1.27-1.27l-.36,.28c.11-.09,.22-.17,.34-.25,.21-.11,.37-.26,.5-.46,.16-.17,.26-.37,.32-.6,.07-.24,.08-.47,.03-.71-.01-.24-.08-.46-.21-.66-.24-.38-.61-.71-1.06-.81l-.47-.06c-.32,0-.62,.08-.89,.24-.49,.34-.97,.71-1.4,1.14s-.8,.91-1.13,1.4c-.13,.2-.2,.42-.21,.66-.05,.24-.04,.47,.03,.71,.05,.23,.16,.43,.32,.6,.12,.19,.29,.35,.5,.46,.41,.22,.91,.33,1.37,.18l.42-.18c.27-.16,.48-.37,.64-.64h0Z"/>
      <path class="cls-20" d="M19.98,40.62c2.28,0,2.28-3.54,0-3.54s-2.28,3.54,0,3.54h0Z"/>
      <g>
        <path class="cls-21" d="M31.49,152.26c-8.82,0-15.99-7.19-15.99-16.03s7.17-16.03,15.99-16.03,15.99,7.19,15.99,16.03-7.17,16.03-15.99,16.03Zm0-25.52c-5.22,0-9.46,4.26-9.46,9.49s4.24,9.49,9.46,9.49,9.46-4.26,9.46-9.49-4.24-9.49-9.46-9.49Z"/>
        <path class="cls-36" d="M59.92,128.8c.26-.29,.53-.57,.82-.83l1.21-1.09-2.27-5.4-1.62,.09c-6.29,.32-11.66-4.5-11.99-10.8-.02-.4-.02-.79,0-1.2l.09-1.62-5.41-2.27-1.08,1.21c-2.26,2.5-5.37,3.77-8.49,3.77-2.74,0-5.47-.97-7.66-2.95-.29-.26-.56-.53-.83-.82l-1.08-1.21-5.4,2.27,.08,1.62c.33,6.29-4.5,11.66-10.79,11.99-.4,.02-.8,.02-1.2,0l-1.62-.09-2.27,5.4,1.2,1.09c4.69,4.23,5.06,11.46,.83,16.15-.26,.29-.54,.56-.83,.82l-1.2,1.09,2.27,5.4,1.62-.08c6.29-.33,11.66,4.5,11.98,10.79,.03,.4,.03,.8,0,1.2l-.08,1.62,5.4,2.27,1.08-1.2c4.23-4.69,11.46-5.06,16.15-.83,.29,.26,.56,.54,.83,.83l1.08,1.2,5.41-2.27-.09-1.62c-.32-6.29,4.5-11.66,10.8-11.98,.39-.03,.79-.03,1.2,0l1.62,.08,2.27-5.4-1.21-1.09c-4.68-4.22-5.05-11.45-.82-16.14Zm-28.68,23.81c-8.96,0-16.21-7.26-16.21-16.21s7.26-16.21,16.21-16.21,16.21,7.27,16.21,16.21-7.27,16.21-16.21,16.21Z"/>
        <g>
          <path class="cls-6" d="M8.51,136.41h-.08c-.16-.05-.26-.22-.21-.38l1-3.5c.05-.17,.22-.26,.38-.22,0,0,0,0,0,0,.16,.05,.26,.22,.21,.38l-1.01,3.5c-.04,.13-.16,.22-.3,.21Z"/>
          <path class="cls-6" d="M9.78,138.83h-.08c-.17-.05-.26-.22-.22-.38,0,0,0,0,0,0l2-6.99c.04-.16,.21-.26,.37-.22,0,0,0,0,.01,0,.17,.05,.26,.22,.22,.38,0,0,0,0,0,0l-2,6.98c-.04,.13-.16,.22-.3,.22Z"/>
        </g>
        <path class="cls-6" d="M49.15,118.38c-.13,0-.27-.05-.37-.16-1.88-2.03-2.99-4.67-3.14-7.44-.02-.42-.02-.83,0-1.24l.07-1.27-4.76-2-.84,.94c-1.03,1.13-2.23,2.05-3.59,2.72-.25,.12-.55,.02-.67-.23-.12-.25-.02-.55,.23-.67,1.25-.61,2.35-1.45,3.29-2.49l1.08-1.2c.14-.16,.37-.21,.57-.13l5.41,2.27c.2,.08,.32,.28,.31,.49l-.09,1.62c-.02,.38-.02,.76,0,1.15,.13,2.53,1.15,4.95,2.87,6.81,.19,.2,.17,.52-.03,.71-.1,.09-.22,.13-.34,.13Z"/>
        <path class="cls-6" d="M40.83,167.69c-.14,0-.27-.06-.37-.17l-1.08-1.2c-.25-.27-.51-.54-.79-.79-2.17-1.96-4.98-2.96-7.89-2.81-2.92,.15-5.6,1.43-7.56,3.6l-1.08,1.2c-.14,.16-.37,.21-.57,.13l-5.4-2.27c-.19-.08-.32-.27-.31-.48l.08-1.62c.02-.38,.02-.76,0-1.14-.15-2.91-1.43-5.59-3.59-7.53-2.16-1.95-4.95-2.94-7.87-2.78l-1.63,.08c-.2,.02-.4-.11-.48-.31L.04,146.19c-.08-.2-.03-.42,.12-.56l1.2-1.09c.28-.25,.54-.51,.79-.79,.94-1.04,1.67-2.24,2.15-3.55,.1-.26,.39-.39,.64-.3,.26,.09,.39,.38,.3,.64-.53,1.43-1.32,2.74-2.35,3.88-.29,.32-.58,.6-.87,.86l-.93,.84,1.99,4.75,1.27-.06c3.17-.16,6.22,.91,8.59,3.04,2.36,2.13,3.75,5.05,3.92,8.22,.03,.42,.03,.84,0,1.25l-.06,1.27,4.75,1.99,.84-.93c2.14-2.37,5.07-3.76,8.25-3.93,3.19-.17,6.24,.92,8.6,3.06,.27,.24,.54,.51,.86,.86l.84,.94,4.76-1.99-.07-1.27c-.34-6.56,4.72-12.17,11.27-12.51,.41-.03,.83-.03,1.25,0l1.26,.06,2-4.75-.94-.85c-2.36-2.13-3.76-5.06-3.92-8.24-.16-3.18,.92-6.24,3.06-8.6,.28-.32,.58-.62,.86-.87l.94-.84-2-4.75-1.26,.07c-2.69,.13-5.38-.65-7.56-2.21-.22-.16-.28-.47-.12-.7,.16-.23,.47-.28,.7-.11,2.03,1.46,4.42,2.16,6.92,2.03l1.61-.09c.2,0,.41,.11,.49,.31l2.27,5.4c.08,.2,.03,.42-.13,.57l-1.21,1.09c-.26,.23-.52,.49-.78,.79-1.96,2.17-2.96,4.97-2.81,7.89,.15,2.92,1.42,5.6,3.59,7.55l1.21,1.09c.16,.14,.21,.37,.13,.57l-2.27,5.4c-.08,.19-.29,.32-.48,.31l-1.62-.08c-.39-.02-.77-.02-1.14,0-6.01,.31-10.64,5.45-10.33,11.46l.09,1.62c.01,.21-.11,.41-.31,.49l-5.41,2.27c-.06,.03-.13,.04-.19,.04Z"/>
        <path class="cls-6" d="M5.46,137.38s-.01,0-.02,0c-.28-.01-.49-.24-.48-.52,.07-1.91-.35-3.81-1.23-5.49-.13-.24-.03-.55,.21-.67,.25-.13,.55-.03,.67,.21,.96,1.84,1.42,3.91,1.35,5.99-.01,.27-.23,.48-.5,.48Z"/>
        <path class="cls-6" d="M2.73,129.5c-.14,0-.28-.06-.38-.17-.31-.36-.64-.7-.99-1.01l-1.2-1.09c-.16-.14-.21-.37-.12-.56l2.26-5.4c.08-.19,.27-.31,.49-.31l1.62,.09c.37,.02,.76,.02,1.15,0,1.99-.11,3.9-.75,5.54-1.87,.23-.15,.54-.1,.69,.13,.16,.23,.1,.54-.13,.69-1.79,1.22-3.88,1.92-6.06,2.04-.42,.02-.84,.02-1.24,0l-1.28-.07-1.99,4.75,.93,.85c.38,.34,.74,.71,1.07,1.1,.18,.21,.16,.52-.05,.71-.09,.08-.21,.12-.33,.12Z"/>
        <path class="cls-6" d="M13.47,118.27c-.12,0-.24-.04-.33-.13-.21-.18-.22-.5-.04-.71,1.94-2.17,2.93-4.96,2.78-7.86l-.08-1.62c-.01-.21,.11-.4,.3-.48l5.4-2.27c.2-.08,.42-.03,.57,.13l1.08,1.21c.25,.27,.51,.53,.79,.78,2.56,2.31,6.12,3.28,9.48,2.61,.27-.05,.53,.12,.59,.39,.05,.27-.12,.53-.39,.59-.77,.15-1.56,.23-2.34,.23-2.95,0-5.79-1.09-7.99-3.08-.3-.27-.59-.55-.86-.85l-.84-.94-4.75,2,.06,1.27c.17,3.17-.91,6.21-3.03,8.58-.1,.11-.24,.17-.37,.17Z"/>
        <path class="cls-35" d="M18.78,132.98c-.32,0-.65-.07-.96-.21-1.17-.53-1.68-1.91-1.15-3.08,2.61-5.72,8.37-9.42,14.66-9.42,1.28,0,2.33,1.04,2.33,2.33s-1.04,2.33-2.33,2.33c-4.47,0-8.56,2.63-10.42,6.7-.39,.86-1.24,1.36-2.12,1.36Z"/>
        <path class="cls-35" d="M25.12,150.94c-.34,0-.7-.08-1.03-.24-2.6-1.28-4.81-3.25-6.39-5.7-.7-1.08-.39-2.52,.69-3.22,1.08-.7,2.52-.39,3.22,.69,1.12,1.74,2.69,3.14,4.54,4.05,1.15,.57,1.63,1.96,1.06,3.11-.4,.82-1.23,1.3-2.09,1.3Z"/>
        <path class="cls-6" d="M31.26,146.08c-5.32,0-9.65-4.33-9.65-9.65s4.33-9.65,9.65-9.65,9.65,4.33,9.65,9.65-4.33,9.65-9.65,9.65Zm0-18.3c-4.77,0-8.65,3.88-8.65,8.65s3.88,8.65,8.65,8.65,8.65-3.88,8.65-8.65-3.88-8.65-8.65-8.65Z"/>
        <path class="cls-6" d="M31.26,148.34c-6.57,0-11.91-5.34-11.91-11.91s5.34-11.91,11.91-11.91,11.91,5.34,11.91,11.91-5.34,11.91-11.91,11.91Zm0-23.22c-6.23,0-11.31,5.07-11.31,11.31s5.07,11.31,11.31,11.31,11.31-5.07,11.31-11.31-5.07-11.31-11.31-11.31Z"/>
        <path class="cls-6" d="M20.47,112.29c-.91,0-1.64-.74-1.64-1.64s.74-1.64,1.64-1.64,1.65,.74,1.65,1.64-.74,1.64-1.65,1.64Zm0-2.6c-.53,0-.95,.43-.95,.95s.43,.95,.95,.95,.95-.43,.95-.95-.43-.95-.95-.95Z"/>
        <path class="cls-6" d="M5.96,127.59c-.91,0-1.65-.74-1.65-1.64s.74-1.64,1.65-1.64,1.64,.74,1.64,1.64-.74,1.64-1.64,1.64Zm0-2.6c-.53,0-.95,.43-.95,.95s.43,.95,.95,.95,.95-.43,.95-.95-.43-.95-.95-.95Z"/>
        <path class="cls-6" d="M5.96,148.47c-.91,0-1.65-.74-1.65-1.64s.74-1.64,1.65-1.64,1.64,.74,1.64,1.64-.74,1.64-1.64,1.64Zm0-2.6c-.53,0-.95,.43-.95,.95s.43,.95,.95,.95,.95-.43,.95-.95-.43-.95-.95-.95Z"/>
        <path class="cls-6" d="M21.17,163.42c-.91,0-1.64-.74-1.64-1.64s.74-1.64,1.64-1.64,1.65,.74,1.65,1.64-.74,1.64-1.65,1.64Zm0-2.6c-.53,0-.95,.43-.95,.95s.43,.95,.95,.95,.95-.43,.95-.95-.43-.95-.95-.95Z"/>
        <path class="cls-6" d="M41.88,162.89c-.91,0-1.65-.74-1.65-1.64s.74-1.64,1.65-1.64,1.64,.74,1.64,1.64-.74,1.64-1.64,1.64Zm0-2.6c-.53,0-.95,.43-.95,.95s.43,.95,.95,.95,.95-.43,.95-.95-.43-.95-.95-.95Z"/>
        <path class="cls-6" d="M41.62,112.29c-.91,0-1.64-.74-1.64-1.64s.74-1.64,1.64-1.64,1.65,.74,1.65,1.64-.74,1.64-1.65,1.64Zm0-2.6c-.53,0-.95,.43-.95,.95s.43,.95,.95,.95,.95-.43,.95-.95-.43-.95-.95-.95Z"/>
        <path class="cls-6" d="M31.32,153.09c-9.22,0-16.71-7.5-16.71-16.71s7.5-16.71,16.71-16.71c2.84,0,5.65,.73,8.12,2.1,.24,.13,.33,.44,.19,.68-.13,.24-.44,.33-.68,.19-2.32-1.29-4.96-1.98-7.63-1.98-8.67,0-15.71,7.05-15.71,15.71s7.05,15.71,15.71,15.71,15.71-7.05,15.71-15.71c0-2.13-.42-4.2-1.25-6.14-.11-.25,0-.55,.26-.66,.26-.11,.55,0,.66,.26,.88,2.07,1.33,4.27,1.33,6.53,0,9.22-7.5,16.71-16.71,16.71Z"/>
        <path class="cls-6" d="M45.15,128.41c-.17,0-.33-.08-.43-.24-.93-1.52-2.1-2.86-3.49-3.98-.21-.17-.25-.49-.07-.7,.17-.21,.49-.25,.7-.07,1.47,1.2,2.71,2.62,3.7,4.24,.14,.24,.07,.54-.16,.69-.08,.05-.17,.07-.26,.07Z"/>
        <circle class="cls-29" cx="30.73" cy="114.75" r="1.83"/>
        <path class="cls-29" d="M19.16,121.47c.21-.18,.42-.36,.63-.53,.05-.04,.1-.08,.15-.12-.47,.38-.24,.19-.13,.11,.12-.09,.24-.18,.36-.26,.52-.37,1.06-.72,1.62-1.03,.6-.34,1.21-.65,1.84-.94,.09-.04,.19-.08,.28-.13,.27-.12-.08,.07-.13,.05,.1,.03,.43-.17,.54-.21,.39-.15,.79-.29,1.2-.42,.99-.32,1.73-1.4,1.39-2.45-.32-.99-1.39-1.74-2.45-1.39-2.98,.97-5.75,2.45-8.12,4.51-.79,.69-.76,2.13,0,2.82,.84,.77,1.98,.73,2.82,0h0Z"/>
        <path class="cls-28" d="M54.48,115.02c0,1.35,1.09,2.45,2.44,2.47l5.61,.03c1.35,0,2.45-1.09,2.47-2.44l.07-13.21c7.67,2.94,11.5,11.54,8.56,19.2-1.53,3.99-4.71,7.13-8.72,8.62l-.13,24.21c-.02,2.9-2.38,5.24-5.28,5.23-2.9-.02-5.24-2.38-5.23-5.28l.13-24.21c-7.67-2.94-11.5-11.54-8.56-19.2,1.53-3.99,4.71-7.13,8.72-8.62l-.07,13.17v.04Z"/>
        <path class="cls-6" d="M54.12,140.3h0c-.28,0-.5-.23-.5-.5l.05-9.83c-2.44-1-4.58-2.6-6.21-4.66-.17-.22-.14-.53,.08-.7,.22-.17,.53-.14,.7,.08,1.59,2,3.7,3.55,6.1,4.47,.19,.07,.32,.26,.32,.47l-.06,10.18c0,.27-.23,.5-.5,.5Z"/>
        <circle class="cls-38" cx="59.25" cy="152.62" r="2.35"/>
        <path class="cls-14" d="M60.44,138.24v9.94c0,.97,.85,1.89,1.85,1.85s1.85-.81,1.85-1.85v-9.94c0-.97-.85-1.89-1.85-1.85s-1.85,.81-1.85,1.85h0Z"/>
        <path class="cls-14" d="M67.01,128.68c2.23-.91,4.06-2.35,5.39-4.37s1.92-4.31,2.08-6.65c.07-.97-.9-1.89-1.85-1.85-1.06,.05-1.78,.81-1.85,1.85-.02,.25-.04,.5-.07,.76-.02,.24,.06-.37,0-.02-.02,.13-.04,.27-.07,.4-.09,.48-.21,.95-.35,1.41-.07,.21-.14,.41-.21,.61-.06,.16-.07,.43,0,.03-.02,.1-.09,.2-.13,.29-.2,.42-.42,.82-.67,1.21-.12,.18-.3,.37-.39,.56,.07-.16,.2-.25,.02-.03-.07,.08-.13,.16-.2,.23-.3,.34-.62,.66-.96,.95-.08,.07-.16,.13-.24,.2-.17,.15,.31-.22,.03-.03-.2,.14-.41,.28-.62,.41-.18,.11-.36,.21-.54,.31-.11,.06-.22,.11-.34,.17-.1,.05-.48,.2-.02,.02-.89,.37-1.62,1.24-1.29,2.27,.28,.86,1.32,1.68,2.27,1.29h0Z"/>
        <path class="cls-6" d="M59.3,159.62h-.03c-3.17-.02-5.74-2.61-5.72-5.79l.07-11.01c0-.28,.23-.5,.5-.5h0c.28,0,.5,.23,.5,.5l-.07,11.01c-.01,2.62,2.11,4.77,4.73,4.78h.03c2.61,0,4.74-2.12,4.76-4.73l.13-24.21c0-.21,.13-.39,.33-.47,3.87-1.44,6.94-4.47,8.42-8.33,2.75-7.17-.65-15.21-7.6-18.28l-.07,12.47c-.02,1.61-1.35,2.93-2.96,2.94l-5.61-.03c-1.61-.02-2.93-1.35-2.94-2.96l.07-12.47c-3.55,1.53-6.35,4.43-7.74,8.06-1.33,3.47-1.27,7.27,.17,10.7,.11,.25-.01,.55-.27,.65-.26,.11-.55-.01-.65-.27-1.54-3.67-1.6-7.73-.18-11.44,1.58-4.13,4.87-7.37,9.01-8.91,.15-.06,.33-.04,.46,.06,.13,.09,.21,.25,.21,.41l-.07,13.17c0,1.1,.88,1.98,1.95,2l5.6,.03c1.06,0,1.95-.88,1.96-1.95l.07-13.2c0-.16,.08-.32,.22-.41s.31-.11,.46-.05c7.91,3.03,11.88,11.94,8.85,19.85-1.54,4.02-4.7,7.2-8.68,8.78l-.13,23.87c-.02,3.16-2.6,5.72-5.76,5.72Z"/>
        <path class="cls-6" d="M59.3,155.51c-1.5,0-2.72-1.22-2.72-2.73s1.22-2.73,2.72-2.73,2.73,1.22,2.73,2.73-1.22,2.73-2.73,2.73Zm0-4.7c-1.09,0-1.98,.89-1.98,1.98s.89,1.98,1.98,1.98,1.98-.89,1.98-1.98-.89-1.98-1.98-1.98Z"/>
        <path class="cls-6" d="M61.67,121.25h-4.32c-3.35,0-6.08-2.87-6.08-6.39v-11.93c0-.21,.17-.38,.38-.38s.38,.17,.38,.38v11.93c0,3.1,2.38,5.63,5.31,5.63h4.32c2.93,0,5.31-2.52,5.31-5.63v-10.85c0-.21,.17-.38,.38-.38s.38,.17,.38,.38v10.85c0,3.53-2.73,6.39-6.08,6.39Z"/>
        <path class="cls-6" d="M56.58,148.61c-.22,0-.4-.18-.4-.4v-20.4c0-.22,.18-.4,.4-.4s.4,.18,.4,.4v20.4c0,.22-.18,.4-.4,.4Z"/>
        <path class="cls-6" d="M62.16,148.61c-.22,0-.4-.18-.4-.4v-20.4c0-.22,.18-.4,.4-.4s.4,.18,.4,.4v20.4c0,.22-.18,.4-.4,.4Z"/>
        <g>
          <path class="cls-29" d="M14.84,152.39c1.19,1.31,2.64,2.43,4.21,3.23,.48,.24,1.01,.35,1.54,.2,.46-.13,.96-.48,1.19-.92,.24-.46,.37-1.02,.2-1.54-.15-.48-.45-.96-.92-1.19-.74-.38-1.43-.82-2.09-1.33l.4,.31c-.62-.48-1.19-1.01-1.72-1.59-.33-.37-.92-.58-1.41-.58s-1.07,.22-1.41,.58-.61,.88-.58,1.41,.22,1,.58,1.41h0Z"/>
          <path class="cls-29" d="M24.58,158.01c2.57,0,2.57-3.99,0-3.99s-2.57,3.99,0,3.99h0Z"/>
        </g>
      </g>
      <path class="cls-30" d="M112.21,95.05h26.42c2.36,0,4.27,1.91,4.27,4.27v.98c0,2.36-1.91,4.27-4.27,4.27h-26.42c-2.63,0-4.76-2.13-4.76-4.76h0c0-2.63,2.13-4.76,4.76-4.76Z"/>
      <polyline class="cls-30" points="133.42 118.68 133.42 104.85 116.93 104.85 116.93 118.68"/>
      <circle class="cls-30" cx="125.18" cy="143.92" r="27.49"/>
      <path class="cls-44" d="M129.94,107.56h-11.79c-.78,.06-1.46-.53-1.52-1.31-.06-.78,.53-1.46,1.31-1.52,.07,0,.14,0,.21,0h11.79c.78-.06,1.46,.53,1.52,1.31,.06,.78-.53,1.46-1.31,1.52-.07,0-.14,0-.21,0Z"/>
      <g>
        <path class="cls-6" d="M116.93,117.68c-.28,0-.5-.22-.5-.5v-3.31c0-.28,.22-.5,.5-.5s.5,.22,.5,.5v3.31c0,.28-.22,.5-.5,.5Z"/>
        <path class="cls-6" d="M116.93,111.04c-.28,0-.5-.22-.5-.5v-5.17c0-.28,.22-.5,.5-.5s.5,.22,.5,.5v5.17c0,.28-.22,.5-.5,.5Z"/>
        <path class="cls-6" d="M133.42,117.68c-.28,0-.5-.22-.5-.5v-11.81c0-.28,.22-.5,.5-.5s.5,.22,.5,.5v11.81c0,.28-.22,.5-.5,.5Z"/>
      </g>
      <path class="cls-39" d="M147.1,143.89c.58,.02,1.05,.5,1.03,1.08-.55,12.2-10.61,21.92-22.95,21.92s-21.65-9.01-22.85-20.58c-.12-1.13,.98-2.01,2.05-1.63l.83,.29c6.62,2.32,13.82,2.38,20.48,.18h0c3.54-1.17,7.25-1.71,10.97-1.59l10.43,.33Z"/>
      <g>
        <circle class="cls-5" cx="112.43" cy="152.11" r="2.29"/>
        <circle class="cls-5" cx="115.67" cy="155.62" r="1.24"/>
      </g>
      <path class="cls-34" d="M118.82,150.34c2.91,.11,5.67-.85,8.37-1.82s5.16-1.84,7.92-1.46c.9,.12,1.69-.86,1.69-1.69,0-1.01-.78-1.57-1.69-1.69-5.76-.77-10.62,3.49-16.29,3.28-2.17-.08-2.17,3.3,0,3.37h0Z"/>
      <path class="cls-5" d="M127.42,166.52c4.57-.63,8.82-2.55,12.45-5.37,.72-.56,.59-1.8,0-2.39-.71-.71-1.66-.56-2.39,0-3.11,2.42-6.94,3.95-10.97,4.51-.9,.12-1.4,1.28-1.18,2.08,.27,.97,1.17,1.3,2.08,1.18h0Z"/>
      <path class="cls-6" d="M112.41,163.52c-.1,0-.19-.03-.28-.08-5.96-3.99-9.73-10.37-10.34-17.49-.05-.61,.21-1.19,.69-1.57,.5-.38,1.15-.49,1.73-.28l1.16,.41c2.22,.78,4.54,1.31,6.88,1.57,.27,.03,.47,.28,.44,.55-.03,.27-.28,.47-.55,.44-2.41-.27-4.8-.81-7.09-1.62l-1.16-.41c-.27-.09-.57-.04-.79,.13-.22,.17-.33,.42-.31,.7,.58,6.82,4.19,12.92,9.9,16.74,.23,.15,.29,.46,.14,.69-.1,.14-.25,.22-.42,.22Z"/>
      <path class="cls-6" d="M125.18,167.39c-3.83,0-7.63-.94-10.99-2.73-.24-.13-.34-.43-.21-.68,.13-.24,.43-.34,.68-.21,3.21,1.71,6.85,2.61,10.52,2.61,11.88,0,21.73-9.28,22.43-21.13,.01-.23-.06-.45-.22-.62-.15-.17-.36-.26-.58-.27l-10.16-.32c-3.68-.11-7.31,.41-10.8,1.57-3.53,1.17-7.2,1.72-10.92,1.62-.28,0-.5-.24-.49-.51,0-.28,.23-.47,.51-.49,3.59,.09,7.16-.44,10.58-1.57,3.6-1.19,7.35-1.74,11.15-1.62l10.16,.32c.5,.02,.96,.23,1.29,.59,.34,.37,.51,.85,.48,1.35-.73,12.37-11.02,22.07-23.43,22.07Z"/>
      <path class="cls-20" d="M111.36,129.65c.48-.5,.99-.98,1.52-1.42,.14-.11,.29-.21,.42-.34-.08,.07-.23,.17-.06,.05,.06-.05,.13-.09,.19-.14,.29-.21,.58-.41,.89-.6,.57-.36,1.16-.7,1.76-.99,.16-.08,.32-.16,.48-.23,.07-.03,.14-.07,.22-.1,.22-.1,.15-.02-.02,0,.33-.06,.69-.27,1-.38,.83-.29,1.47-1.17,1.18-2.08-.27-.82-1.18-1.49-2.08-1.18-2.98,1.04-5.7,2.73-7.9,5.01-.61,.64-.68,1.76,0,2.39s1.73,.68,2.39,0h0Z"/>
      <path class="cls-20" d="M122.2,124.18c2.17,0,2.18-3.37,0-3.37s-2.18,3.37,0,3.37h0Z"/>
      <circle class="cls-23" cx="131.66" cy="144.19" r="3.23"/>
      <path class="cls-6" d="M131.59,148.06c-2.05,0-3.73-1.67-3.73-3.73s1.67-3.73,3.73-3.73,3.73,1.67,3.73,3.73-1.67,3.73-3.73,3.73Zm0-6.45c-1.5,0-2.73,1.22-2.73,2.73s1.22,2.73,2.73,2.73,2.73-1.22,2.73-2.73-1.22-2.73-2.73-2.73Z"/>
      <circle class="cls-23" cx="131.66" cy="127.2" r="3.23"/>
      <path class="cls-6" d="M131.59,131.07c-2.05,0-3.73-1.67-3.73-3.73s1.67-3.73,3.73-3.73,3.73,1.67,3.73,3.73-1.67,3.73-3.73,3.73Zm0-6.45c-1.5,0-2.73,1.22-2.73,2.73s1.22,2.73,2.73,2.73,2.73-1.22,2.73-2.73-1.22-2.73-2.73-2.73Z"/>
      <circle class="cls-23" cx="122.01" cy="156.09" r="2.08"/>
      <path class="cls-6" d="M122.45,158.3c-1.42,0-2.58-1.16-2.58-2.58s1.16-2.58,2.58-2.58,2.58,1.16,2.58,2.58-1.16,2.58-2.58,2.58Zm0-4.15c-.87,0-1.58,.71-1.58,1.58s.71,1.58,1.58,1.58,1.58-.71,1.58-1.58-.71-1.58-1.58-1.58Z"/>
      <circle class="cls-23" cx="118.05" cy="138.86" r="2.08"/>
      <path class="cls-6" d="M118.49,141.07c-1.42,0-2.58-1.16-2.58-2.58s1.16-2.58,2.58-2.58,2.58,1.16,2.58,2.58-1.16,2.58-2.58,2.58Zm0-4.15c-.87,0-1.58,.71-1.58,1.58s.71,1.58,1.58,1.58,1.58-.71,1.58-1.58-.71-1.58-1.58-1.58Z"/>
      <path class="cls-44" d="M136.1,169.09c5.42-1.88,10.27-5.83,13-10.89,.43-.8,.2-1.84-.61-2.31s-1.87-.2-2.31,.61c-2.31,4.29-6.47,7.78-10.98,9.34-.86,.3-1.43,1.16-1.18,2.08,.23,.84,1.21,1.48,2.08,1.18h0Z"/>
      <path class="cls-44" d="M124.22,104.23c5.24,0,10.48,0,15.73,0,2.17,0,2.18-3.37,0-3.37-5.24,0-10.48,0-15.73,0-2.17,0-2.18,3.37,0,3.37h0Z"/>
      <path class="cls-44" d="M151.81,150.98c.69-2,.97-4.17,.8-6.28-.07-.88-.73-1.73-1.69-1.69-.85,.04-1.76,.75-1.69,1.69,.08,1,.06,2.01-.07,3.01l.06-.45c-.13,.96-.35,1.91-.67,2.82-.29,.84,.33,1.88,1.18,2.08,.94,.21,1.77-.28,2.08-1.18h0Z"/>
      <path class="cls-6" d="M98.83,136.53s-.1,0-.14-.02c-.26-.08-.42-.36-.34-.62,1.5-5.02,4.38-9.51,8.34-12.99,.21-.18,.52-.16,.71,.04,.18,.21,.16,.52-.04,.71-3.81,3.36-6.59,7.69-8.04,12.53-.07,.22-.26,.36-.48,.36Z"/>
      <path class="cls-6" d="M125.18,171.91c-4.28,0-8.38-.94-12.21-2.79-.68-.33-1.36-.69-2.02-1.08-.69-.41-1.36-.85-2.01-1.31-7.36-5.25-11.76-13.78-11.76-22.81,0-1.71,.16-3.43,.46-5.1,.05-.27,.31-.46,.58-.4,.27,.05,.45,.31,.4,.58-.3,1.61-.45,3.26-.45,4.92,0,8.71,4.24,16.93,11.34,21.99,.63,.45,1.28,.87,1.94,1.26,.63,.37,1.29,.73,1.94,1.04,3.68,1.79,7.64,2.69,11.77,2.69,14.88,0,26.99-12.11,26.99-26.99,0-12.77-9.06-23.89-21.55-26.44-.27-.06-.44-.32-.39-.59,.06-.27,.32-.44,.59-.39,12.95,2.65,22.35,14.18,22.35,27.42,0,15.44-12.56,27.99-27.99,27.99Z"/>
      <path class="cls-6" d="M109.25,122c-.16,0-.31-.07-.41-.21-.16-.23-.11-.54,.12-.7,3.6-2.56,7.81-4.25,12.17-4.88,.26-.04,.53,.15,.57,.42,.04,.27-.15,.53-.42,.57-4.2,.61-8.26,2.23-11.73,4.7-.09,.06-.19,.09-.29,.09Z"/>
      <path class="cls-20" d="M111.94,98.84c2.59,0,5.18,0,7.77,0,.88,0,1.73-.78,1.69-1.69s-.74-1.69-1.69-1.69c-2.59,0-5.18,0-7.77,0-.88,0-1.73,.78-1.69,1.69s.74,1.69,1.69,1.69h0Z"/>
      <path class="cls-6" d="M138.63,105.07h-26.42c-2.9,0-5.26-2.36-5.26-5.26s2.36-5.26,5.26-5.26h16c.28,0,.5,.22,.5,.5s-.22,.5-.5,.5h-16c-2.35,0-4.26,1.91-4.26,4.26s1.91,4.26,4.26,4.26h26.42c2.08,0,3.77-1.69,3.77-3.77v-.98c0-2.08-1.69-3.77-3.77-3.77h-7.78c-.28,0-.5-.22-.5-.5s.22-.5,.5-.5h7.78c2.63,0,4.77,2.14,4.77,4.77v.98c0,2.63-2.14,4.77-4.77,4.77Z"/>
      <g>
        <path class="cls-6" d="M101.96,139.85h-.05c-.1-.04-.14-.15-.11-.25l.83-2.07c.04-.1,.15-.15,.25-.11,0,0,0,0,0,0,.1,.04,.14,.15,.11,.25l-.83,2.07c-.03,.08-.11,.12-.19,.11Z"/>
        <path class="cls-6" d="M102.58,141.4h-.05c-.1-.04-.15-.15-.11-.25,0,0,0,0,0,0l1.65-4.12c.04-.1,.14-.14,.24-.11,0,0,0,0,0,0,.1,.04,.15,.15,.11,.25,0,0,0,0,0,0l-1.65,4.12c-.03,.08-.11,.13-.2,.12Z"/>
      </g>
      <path class="cls-31" d="M108.26,78.55c.64-1.96,2.5-3.24,4.42-4.13,2.37-1.09,4.96-1.81,7.48-2.44,2.07-.52,1.19-3.73-.88-3.2-2.95,.74-5.96,1.62-8.69,2.97-2.51,1.24-4.65,3.21-5.53,5.92-.28,.85,.32,1.81,1.16,2.04,.9,.25,1.76-.3,2.04-1.16h0Z"/>
      <path class="cls-31" d="M146.8,77.66c-.89-2.71-3.02-4.68-5.53-5.92-2.73-1.35-5.74-2.23-8.69-2.97-2.07-.52-2.96,2.68-.88,3.2,2.52,.64,5.12,1.35,7.48,2.44,1.91,.88,3.77,2.16,4.42,4.13,.28,.85,1.15,1.4,2.04,1.16,.83-.23,1.44-1.19,1.16-2.04h0Z"/>
      <path class="cls-13" d="M150.33,40.91s3.3,22.3-9.83,30.16l-6.4-2.78v-5.03l4.18-21.67,12.04-.69Z"/>
      <path class="cls-4" d="M138.78,65.39c3.03-1.74,5.86-4.11,7.47-7.28,.39-.77,.23-1.84-.6-2.27-.76-.4-1.85-.23-2.27,.6-.18,.36-.38,.7-.59,1.04-.11,.17-.22,.33-.33,.5-.05,.07-.1,.15-.16,.22-.03,.04-.06,.09-.1,.13-.07,.1-.04,.06,.09-.12-.03,.13-.25,.32-.34,.42-.13,.15-.26,.3-.4,.45-.27,.29-.55,.58-.85,.85s-.57,.51-.87,.76c-.08,.07-.17,.14-.26,.21-.24,.19,.2-.15,.03-.02s-.32,.24-.49,.36c-.65,.47-1.34,.9-2.03,1.3-.75,.43-1.08,1.52-.6,2.27s1.47,1.06,2.27,.6h0Z"/>
      <path class="cls-13" d="M104.67,42.63l-.15,.78c-.98,5.09-.99,10.28-.12,15.34l.57,2.8c.53,2.24,1.24,4.45,2.1,6.6s1.41,4.2,1.03,5.35c0,0,7.38-3.56,7.38-10.43"/>
      <path class="cls-13" d="M147.02,43.44l-42.76,.71V27.97c0-12.55,10.46-22.73,23.36-22.73h0c12.9,0,23.36,10.18,23.36,22.73l.48,4.1-4.43,11.37Z"/>
      <path class="cls-12" d="M148.2,41.73c3.24,0,5.86-2.62,5.86-5.86s-2.62-5.86-5.86-5.86h-1.8"/>
      <path class="cls-12" d="M105.18,30.01c-3.24,0-5.86,2.62-5.86,5.86,0,3.24,2.62,5.86,5.86,5.86"/>
      <path class="cls-12" d="M147.7,27.96v16.51c0,11.52-9.52,20.85-21.26,20.85h0c-11.74,0-21.26-9.34-21.26-20.85l-.34-16.47,11.97-.04,8.17-6.49,1.78,1.99c1.33,1.49,3.05,2.58,4.97,3.15l3.85,1.14,12.12,.22Z"/>
      <path class="cls-12" d="M131.51,64.99v1.77c0,2.5-1.08,4.87-2.96,6.52l-2.6,2.28-2.6-2.28c-1.88-1.65-2.96-4.02-2.96-6.52v-1.77"/>
      <g>
        <path class="cls-6" d="M147.08,79.77c-.28,0-.5-.22-.5-.5,0-4.63-6.2-8.76-15.07-10.03-.27-.04-.46-.29-.42-.57,.04-.27,.29-.46,.57-.42,9.38,1.35,15.93,5.88,15.93,11.02,0,.28-.22,.5-.5,.5Z"/>
        <path class="cls-6" d="M104.68,79.77c-.28,0-.5-.22-.5-.5,0-5.15,6.56-9.68,15.94-11.02,.28-.04,.53,.15,.57,.42,.04,.27-.15,.53-.42,.57-8.88,1.27-15.09,5.4-15.09,10.03,0,.28-.22,.5-.5,.5Z"/>
      </g>
      <path class="cls-6" d="M115.43,4.31c-.2,0-.39-.12-.46-.31-.1-.26,.02-.55,.28-.65,2.96-1.19,6.29-1.86,9.91-2.01,.29,0,.51,.2,.52,.48,.01,.28-.2,.51-.48,.52-3.5,.14-6.73,.8-9.58,1.94-.06,.02-.12,.04-.19,.04Z"/>
      <path class="cls-6" d="M101.69,18.53c-.06,0-.13-.01-.19-.04-.26-.1-.38-.4-.27-.65,2.2-5.37,5.51-9.52,9.84-12.33,.23-.15,.54-.09,.69,.15,.15,.23,.08,.54-.15,.69-4.16,2.7-7.34,6.69-9.46,11.87-.08,.19-.27,.31-.46,.31Z"/>
      <path class="cls-6" d="M99.32,28.19s-.02,0-.03,0c-.28-.01-.49-.25-.47-.53,0-.12,.17-3.06,1.39-6.99,.08-.26,.36-.41,.62-.33,.26,.08,.41,.36,.33,.63-1.18,3.8-1.34,6.72-1.35,6.75-.01,.27-.23,.47-.5,.47Z"/>
      <path class="cls-6" d="M108.71,14.52c-.11,0-.21-.03-.3-.1-.22-.17-.26-.48-.1-.7,.94-1.24,2.01-2.39,3.19-3.41,3.98-3.43,10.37-5.83,15.54-5.83,.28,0,.5,.22,.5,.5s-.22,.5-.5,.5c-4.95,0-11.07,2.3-14.88,5.59-1.13,.97-2.15,2.07-3.04,3.25-.1,.13-.25,.2-.4,.2Z"/>
      <path class="cls-6" d="M104.44,29.97c-.28,0-.5-.22-.5-.5v-2.69c0-3.65,.92-7.26,2.66-10.44,.13-.24,.44-.33,.68-.2,.24,.13,.33,.44,.2,.68-1.66,3.03-2.54,6.47-2.54,9.95v2.69c0,.28-.22,.5-.5,.5Z"/>
      <path class="cls-6" d="M105.18,42.23c-3.51,0-6.36-2.85-6.36-6.36s2.85-6.36,6.36-6.36c.28,0,.5,.22,.5,.5s-.22,.5-.5,.5c-2.96,0-5.36,2.4-5.36,5.36s2.4,5.36,5.36,5.36c.28,0,.5,.22,.5,.5s-.22,.5-.5,.5Z"/>
      <path class="cls-6" d="M148.2,42.23c-.28,0-.5-.22-.5-.5s.22-.5,.5-.5c2.96,0,5.36-2.4,5.36-5.36s-2.4-5.36-5.36-5.36c-.28,0-.5-.22-.5-.5s.22-.5,.5-.5c3.51,0,6.36,2.85,6.36,6.36s-2.85,6.36-6.36,6.36Z"/>
      <path class="cls-6" d="M127.03,3.68c-1.01,0-1.84-.83-1.84-1.84s.83-1.84,1.84-1.84,1.84,.83,1.84,1.84-.83,1.84-1.84,1.84Zm0-2.68c-.46,0-.84,.38-.84,.84s.38,.84,.84,.84,.84-.38,.84-.84-.38-.84-.84-.84Z"/>
      <circle class="cls-6" cx="125.56" cy="57.84" r="1.34"/>
      <path class="cls-15" d="M118.52,47.55h14.35c0,3.78-3.07,6.84-6.84,6.84h-.66c-3.78,0-6.84-3.07-6.84-6.84h0Z"/>
      <g>
        <path class="cls-6" d="M117.1,38.38c-.07,0-.15-.01-.22-.04-.33-.12-.51-.49-.38-.83,.79-2.15,3.31-3.43,5.51-2.81,.34,.1,.54,.45,.44,.8-.1,.34-.45,.54-.8,.44-1.55-.45-3.4,.5-3.95,2.01-.1,.26-.34,.42-.6,.42Z"/>
        <path class="cls-6" d="M135.78,38.38c-.26,0-.51-.16-.6-.42-.55-1.52-2.4-2.46-3.95-2.01-.35,.1-.7-.1-.8-.44-.1-.34,.1-.7,.44-.8,2.2-.63,4.73,.66,5.52,2.81,.12,.33-.05,.7-.38,.83-.07,.03-.15,.04-.22,.04Z"/>
      </g>
      <g>
        <path class="cls-6" d="M108,73.35c-.12,0-.24-.04-.33-.12-.15-.13-.21-.34-.14-.53,.21-.62,.2-2-1.01-5.01-.88-2.18-1.59-4.42-2.13-6.67-.06-.27,.1-.54,.37-.6,.27-.07,.54,.1,.6,.37,.52,2.21,1.22,4.4,2.08,6.53,.79,1.96,1.18,3.48,1.19,4.61,1.88-1.16,6.26-4.4,6.26-9.5,0-.28,.22-.5,.5-.5s.5,.22,.5,.5c0,7.11-7.35,10.73-7.67,10.88-.07,.03-.14,.05-.22,.05Z"/>
        <path class="cls-6" d="M104.29,58.6c-.24,0-.45-.17-.49-.42-.89-5.22-.85-10.44,.12-15.52l.15-.78c.05-.27,.32-.45,.58-.4,.27,.05,.45,.31,.4,.58l-.15,.78c-.95,4.96-.99,10.06-.12,15.16,.05,.27-.14,.53-.41,.58-.03,0-.06,0-.08,0Z"/>
      </g>
      <path class="cls-6" d="M134.53,69.44c-.28,0-.5-.22-.5-.5v-5.03c0-.28,.22-.5,.5-.5s.5,.22,.5,.5v5.03c0,.28-.22,.5-.5,.5Z"/>
      <path class="cls-6" d="M140.52,71.77c-.17,0-.33-.09-.43-.24-.14-.24-.07-.54,.17-.69,6.89-4.12,9.2-12.3,9.93-18.44,.03-.27,.29-.47,.56-.44,.27,.03,.47,.28,.44,.56-.76,6.36-3.18,14.84-10.41,19.18-.08,.05-.17,.07-.26,.07Z"/>
      <path class="cls-6" d="M150.93,50.3s-.02,0-.03,0c-.28-.02-.49-.25-.47-.53,.29-4.62-.16-8.12-.17-8.15-.04-.27,.16-.52,.43-.56,.27-.04,.53,.16,.56,.43,.02,.15,.47,3.62,.17,8.34-.02,.27-.24,.47-.5,.47Z"/>
      <rect class="cls-36" x="96.05" y="27.69" width="6.48" height="16.25" rx="3.24" ry="3.24"/>
      <path class="cls-6" d="M126.03,54.56h-.66c-4.05,0-7.34-3.29-7.34-7.34,0-.28,.22-.5,.5-.5h14.35c.28,0,.5,.22,.5,.5,0,4.05-3.29,7.34-7.34,7.34Zm-6.99-6.84c.26,3.26,2.99,5.84,6.32,5.84h.66c3.33,0,6.07-2.58,6.32-5.84h-13.31Z"/>
      <path class="cls-3" d="M136.06,31.24h8.06c.87,0,1.7-.76,1.66-1.66s-.73-1.66-1.66-1.66h-8.06c-.87,0-1.7,.76-1.66,1.66s.73,1.66,1.66,1.66h0Z"/>
      <path class="cls-3" d="M109.88,31.24c2.33,0,4.67-.05,6.95-.58,2.82-.66,5.25-2.13,6.98-4.46,.53-.72,.12-1.85-.6-2.27-.84-.49-1.74-.13-2.27,.6,.12-.16-.19,.23-.18,.22-.09,.11-.19,.22-.29,.32-.22,.23-.45,.43-.68,.64l-.13,.11c.1-.07,.1-.07,0,0-.11,.08-.22,.16-.34,.24-.23,.15-.46,.29-.7,.43-.26,.14-.53,.27-.8,.4-.16,.07,.15-.05-.13,.05-.15,.05-.3,.11-.45,.17-.53,.18-1.07,.33-1.62,.44-.26,.05-.52,.1-.78,.15-.13,.02-.26,.04-.39,.06,.36-.05-.15,.02-.17,.02-.52,.06-1.05,.1-1.57,.12-.95,.05-1.9,.05-2.85,.05-2.14,0-2.14,3.32,0,3.32h0Z"/>
      <path class="cls-6" d="M147.7,28.19h-11.36c-2.17,0-4.33-.53-6.23-1.54-.24-.13-.34-.43-.21-.68,.13-.24,.43-.34,.68-.21,1.76,.93,3.76,1.43,5.76,1.43h11.36c.28,0,.5,.22,.5,.5s-.22,.5-.5,.5Z"/>
      <path class="cls-6" d="M127.83,24.96c-.12,0-.24-.04-.33-.13-2.85-2.53-4.49-6.17-4.49-9.98,0-.28,.22-.5,.5-.5s.5,.22,.5,.5c0,3.52,1.51,6.89,4.15,9.23,.21,.18,.23,.5,.04,.71-.1,.11-.24,.17-.37,.17Z"/>
      <path class="cls-6" d="M112.58,28.76h-7.4c-.28,0-.5-.22-.5-.5s.22-.5,.5-.5h7.4c3.97,0,7.72-1.91,10.54-5.39,.17-.21,.49-.25,.7-.07,.21,.17,.25,.49,.07,.7-2.97,3.66-7.1,5.76-11.32,5.76Z"/>
      <g>
        <path class="cls-1" d="M113.35,19.11c.38-.65,.8-1.27,1.26-1.87l-.26,.34c.69-.89,1.47-1.72,2.31-2.46,.31-.27,.49-.77,.49-1.17s-.18-.89-.49-1.17-.73-.51-1.17-.49-.83,.18-1.17,.49c-1.51,1.33-2.81,2.93-3.83,4.67-.44,.75-.2,1.85,.6,2.27s1.8,.21,2.27-.6h0Z"/>
        <path class="cls-1" d="M110.09,24.36c2.14,0,2.14-3.32,0-3.32s-2.14,3.32,0,3.32h0Z"/>
      </g>
      <path class="cls-4" d="M131.9,8.9c3.88,.27,7.62,2.15,10.35,4.88s4.43,6.45,5.57,10.19c.62,2.04,3.83,1.17,3.2-.88-1.33-4.36-3.31-8.63-6.63-11.85s-7.82-5.33-12.49-5.65c-.9-.06-1.66,.81-1.66,1.66,0,.95,.76,1.6,1.66,1.66h0Z"/>
      <path class="cls-6" d="M151.34,31.19c-.28,0-.5-.22-.5-.5v-2.69c0-11.79-10.34-22.53-21.69-22.53-.28,0-.5-.22-.5-.5s.22-.5,.5-.5c11.87,0,22.69,11.22,22.69,23.53v2.69c0,.28-.22,.5-.5,.5Z"/>
      <path class="cls-2" d="M95.99,30.74v5.52c0,.87,.76,1.7,1.66,1.66s1.66-.73,1.66-1.66v-5.52c0-.87-.76-1.7-1.66-1.66s-1.66,.73-1.66,1.66h0Z"/>
      <path class="cls-6" d="M99,44.45c-2.06,0-3.74-1.68-3.74-3.74v-6.65c0-.28,.22-.5,.5-.5s.5,.22,.5,.5v6.65c0,1.51,1.23,2.74,2.74,2.74s2.74-1.23,2.74-2.74v-9.77c0-1.51-1.23-2.74-2.74-2.74s-2.74,1.23-2.74,2.74c0,.28-.22,.5-.5,.5s-.5-.22-.5-.5c0-2.06,1.68-3.74,3.74-3.74s3.74,1.68,3.74,3.74v9.77c0,2.06-1.68,3.74-3.74,3.74Z"/>
      <g>
        <path class="cls-6" d="M98.16,38.72h-.05c-.11-.03-.17-.14-.14-.24l.64-2.24c.03-.11,.14-.17,.24-.14,0,0,0,0,0,0,.11,.03,.17,.14,.14,.24l-.64,2.24c-.03,.08-.1,.14-.19,.14Z"/>
        <path class="cls-6" d="M98.97,40.26h-.05c-.11-.03-.17-.14-.14-.24,0,0,0,0,0,0l1.28-4.47c.03-.1,.13-.17,.24-.14,0,0,0,0,0,0,.11,.03,.17,.14,.14,.24,0,0,0,0,0,0l-1.28,4.46c-.02,.08-.1,.14-.19,.14Z"/>
      </g>
      <path class="cls-6" d="M125.18,58.29h-12.36c-7.91,0-14.34-6.44-14.34-14.35,0-.29,.24-.53,.53-.53s.53,.24,.53,.53c0,7.32,5.96,13.28,13.28,13.28h12.36c.29,0,.53,.24,.53,.53s-.24,.53-.53,.53Z"/>
      <path class="cls-6" d="M150.18,38.48c-.26,0-.48-.2-.5-.46,0-.06-.12-1.57,.89-2.62,.66-.69,1.64-1.01,2.88-.95,.28,.01,.49,.25,.48,.52-.01,.28-.23,.49-.52,.48-.93-.05-1.65,.17-2.1,.64-.7,.72-.62,1.84-.62,1.85,.02,.27-.18,.52-.46,.54-.01,0-.03,0-.04,0Z"/>
      <path class="cls-3" d="M120.99,68.04c2.07,.95,4.56,1.23,6.78,.68,.84-.21,1.43-1.2,1.16-2.04s-1.14-1.39-2.04-1.16c-.25,.06-.5,.11-.76,.14l.44-.06c-.82,.1-1.64,.08-2.46-.02l.44,.06c-.71-.1-1.41-.26-2.07-.54l.4,.17c-.07-.03-.14-.06-.21-.09-.42-.19-.82-.29-1.28-.17-.39,.11-.8,.4-.99,.76-.39,.73-.25,1.88,.6,2.27h0Z"/>
      <path class="cls-6" d="M126.44,65.82c-12,0-21.76-9.76-21.76-21.76v-9.45c0-.28,.22-.5,.5-.5s.5,.22,.5,.5v9.45c0,11.45,9.31,20.76,20.76,20.76s20.76-9.31,20.76-20.76v-7.97c0-.28,.22-.5,.5-.5s.5,.22,.5,.5v7.97c0,12-9.76,21.76-21.76,21.76Z"/>
      <path class="cls-6" d="M125.95,76.06c-.12,0-.24-.04-.33-.12l-2.6-2.28c-1.99-1.74-3.13-4.26-3.13-6.9v-1.77c0-.28,.22-.5,.5-.5s.5,.22,.5,.5v1.77c0,2.35,1.01,4.59,2.79,6.15l2.27,1.99,2.27-1.99c1.77-1.55,2.79-3.79,2.79-6.15v-1.77c0-.28,.22-.5,.5-.5s.5,.22,.5,.5v1.77c0,2.64-1.14,5.16-3.13,6.9l-2.6,2.28c-.09,.08-.21,.12-.33,.12Z"/>
      <path class="cls-28" d="M214.37,68.67c17.78,.95,17.48-4.27,17.11,9.9l-17.25,.07,.14-9.97Z"/>
      <rect class="cls-36" x="214.13" y="60.54" width="8.1" height="8.11"/>
      <polygon class="cls-45" points="222.23 65 214.13 67.15 214.13 60.54 222.23 60.54 222.23 65"/>
      <path class="cls-17" d="M229.82,5.14c.04,2.59-4.04,2.59-4,0-.04-2.59,4.04-2.59,4,0Z"/>
      <path class="cls-13" d="M193.12,41.88c-1.28,6.09-1.12,12.38,.29,18.39,.47,3.48,3.66,8.54,3.04,11.63,0,0,7.18-3.46,7.18-10.15"/>
      <path class="cls-13" d="M234.5,31.23l-.2,11.44-41.58,.69c-1.08-17.81,.08-36.68,22.72-37.84"/>
      <path class="cls-43" d="M235.44,41c8.65-.48,6.64-12.97-1.75-11.4"/>
      <path class="cls-12" d="M193.61,29.6c-7.4-.11-7.39,11.51,0,11.4"/>
      <path class="cls-12" d="M234.96,27.61c.7,16.63,1.09,35.06-20.67,36.33-21.55-1.08-21.33-19.83-21-36.3l11.64-.04,7.94-6.31c4.8,7.3,14.64,6.14,22.09,6.31Z"/>
      <path class="cls-12" d="M214.34,63.91c.05,2.93,.55,6.86-.53,9.99-3.35-2.41-6.14-6.32-5.5-10.67"/>
      <path class="cls-6" d="M193.12,78.02c-.28,0-.5-.22-.5-.5,0-5.33,6.82-10.49,15.52-11.73,.27-.04,.53,.15,.57,.42s-.15,.53-.42,.57c-8.08,1.16-14.66,5.98-14.66,10.74,0,.28-.22,.5-.5,.5Z"/>
      <path class="cls-6" d="M203.58,4.63c-.2,0-.39-.12-.46-.31-.1-.26,.02-.55,.28-.65,2.88-1.15,6.12-1.81,9.64-1.96,.3,0,.51,.2,.52,.48,.01,.28-.2,.51-.48,.52-3.41,.14-6.54,.77-9.31,1.88-.06,.02-.12,.04-.19,.04Z"/>
      <path class="cls-6" d="M190.22,18.46c-.06,0-.13-.01-.19-.04-.26-.1-.38-.4-.27-.65,2.14-5.22,5.36-9.26,9.57-12,.23-.15,.54-.08,.69,.15,.15,.23,.08,.54-.15,.69-4.04,2.62-7.13,6.5-9.19,11.54-.08,.19-.27,.31-.46,.31Z"/>
      <path class="cls-6" d="M187.91,27.85s-.02,0-.03,0c-.28-.01-.49-.25-.47-.53,0-.12,.17-2.98,1.35-6.8,.08-.26,.36-.41,.62-.33,.26,.08,.41,.36,.33,.63-1.14,3.69-1.31,6.53-1.31,6.56-.01,.27-.23,.47-.5,.47Z"/>
      <path class="cls-6" d="M197.04,14.55c-.11,0-.21-.03-.3-.1-.22-.17-.26-.48-.1-.7,4.06-5.35,10.23-8.43,16.92-8.45h0c.28,0,.5,.22,.5,.5s-.22,.5-.5,.5c-6.38,.02-12.26,2.96-16.13,8.06-.1,.13-.25,.2-.4,.2Z"/>
      <path class="cls-6" d="M192.89,29.58c-.27,0-.49-.21-.5-.48-.17-3.53,.15-8.61,2.6-12.8,.14-.24,.45-.32,.68-.18,.24,.14,.32,.45,.18,.68-2.32,3.98-2.62,8.86-2.46,12.25,.01,.28-.2,.51-.48,.52,0,0-.02,0-.02,0Z"/>
      <path class="cls-6" d="M193.51,41.5c-2.21,0-4-.99-5.05-2.79-1.19-2.04-1.19-4.78,0-6.82,1.07-1.83,2.91-2.82,5.16-2.79,.28,0,.5,.23,.49,.51,0,.28-.2,.47-.51,.49-1.89,0-3.4,.79-4.28,2.29-1.02,1.74-1.01,4.08,0,5.81,.86,1.48,2.35,2.29,4.19,2.29,.03,0,.07,0,.1,0,.27,0,.5,.22,.5,.49,0,.28-.22,.5-.49,.51-.04,0-.07,0-.11,0Z"/>
      <path class="cls-6" d="M240.91,37.43s-.1,0-.15-.02c-.26-.08-.41-.36-.33-.63,.48-1.53,.16-3.24-.84-4.59-1.01-1.35-2.54-2.1-4.14-2.09-.25,.02-.5-.22-.51-.49,0-.28,.22-.5,.49-.51,.03,0,.07,0,.1,0,1.9,0,3.67,.9,4.85,2.49,1.2,1.6,1.57,3.65,1,5.48-.07,.21-.26,.35-.48,.35Z"/>
      <path class="cls-6" d="M235.44,41.5c-.28,0-.5-.22-.5-.5s.22-.5,.5-.5c1.51,0,2.94-.65,3.93-1.79,.18-.21,.5-.23,.71-.05,.21,.18,.23,.5,.05,.71-1.18,1.36-2.89,2.14-4.68,2.14Z"/>
      <path class="cls-6" d="M214.86,3.98c-.34,0-.68-.09-.97-.26-.54-.31-.84-.87-.83-1.52,0-.64,.29-1.19,.83-1.5,.58-.34,1.37-.34,1.95,0,.54,.31,.84,.86,.83,1.51,0,.65-.29,1.2-.83,1.51-.29,.17-.63,.26-.97,.26Zm0-2.54c-.17,0-.33,.04-.47,.12-.23,.13-.34,.35-.33,.64,0,.31,.11,.52,.33,.66,.27,.16,.67,.16,.94,0,.23-.13,.34-.35,.33-.64h0c0-.31-.11-.52-.33-.66-.14-.08-.3-.12-.47-.12Z"/>
      <path class="cls-6" d="M214.73,56.67c.02,1.69-2.63,1.69-2.61,0-.02-1.69,2.63-1.69,2.61,0Z"/>
      <path class="cls-15" d="M213.88,53.32c-3.89,.3-7.32-2.71-7.3-6.65l7.18-.19,.12,6.84Z"/>
      <path class="cls-6" d="M205.2,37.75c-.07,0-.14-.01-.21-.04-.33-.12-.49-.48-.37-.8,.76-2.09,3.22-3.34,5.36-2.73,.33,.09,.52,.44,.43,.77-.09,.33-.44,.52-.77,.43-1.5-.43-3.31,.48-3.84,1.96-.09,.25-.33,.41-.59,.41Z"/>
      <path class="cls-6" d="M213.81,74.4c-.1,0-.2-.03-.29-.09-4.19-3.01-6.18-6.83-5.6-10.76,.04-.27,.29-.46,.57-.42,.27,.04,.46,.29,.42,.57-.67,4.53,2.46,7.83,5.2,9.8,.22,.16,.28,.47,.11,.7-.1,.14-.25,.21-.41,.21Z"/>
      <g>
        <path class="cls-6" d="M196.35,71.77c-.11,0-.22-.04-.31-.1-.15-.12-.22-.31-.18-.49,.34-1.68-.61-4.15-1.53-6.54-.68-1.77-1.32-3.45-1.52-4.93-.04-.27,.15-.53,.43-.56,.27-.03,.53,.15,.56,.43,.18,1.36,.81,2.98,1.47,4.7,.81,2.11,1.64,4.29,1.66,6.09,1.82-1.11,6.1-4.26,6.1-9.25,0-.28,.22-.5,.5-.5s.5,.22,.5,.5c0,6.92-7.16,10.45-7.46,10.6-.07,.03-.14,.05-.22,.05Z"/>
        <path class="cls-6" d="M192.75,57.43c-.24,0-.45-.17-.49-.42-.91-5.28-.82-10.62,.27-15.86,.06-.27,.32-.44,.59-.39,.27,.06,.44,.32,.39,.59-1.06,5.12-1.15,10.33-.26,15.49,.05,.27-.14,.53-.41,.58-.03,0-.06,0-.09,0Z"/>
      </g>
      <path class="cls-6" d="M222.16,68.69c-.28,0-.5-.22-.5-.5v-5.61c0-.28,.22-.5,.5-.5s.5,.22,.5,.5v5.61c0,.28-.22,.5-.5,.5Z"/>
      <path class="cls-36" d="M187.88,43.16c-1.74,0-3.15-1.41-3.15-3.15,.62-2.79-2.04-12.86,3.15-12.65,1.74,0,3.15,1.41,3.15,3.15-.62,2.79,2.04,12.86-3.15,12.65Z"/>
      <path class="cls-6" d="M213.31,53.51c-1.84,0-3.64-.71-4.99-1.98-1.45-1.37-2.25-3.21-2.24-5.19,0-.28,.22-.5,.5-.5h7.16c.28,0,.5,.22,.5,.5s-.22,.5-.5,.5h-6.64c.12,1.51,.78,2.9,1.91,3.96,1.26,1.19,2.98,1.81,4.7,1.69,.26-.02,.51,.19,.53,.47,.02,.28-.19,.51-.47,.53-.15,0-.31,.01-.46,.01Z"/>
      <path class="cls-3" d="M198.18,30.81c2.27,0,4.55-.05,6.76-.57,2.74-.64,5.1-2.07,6.79-4.34,.52-.7,.12-1.8-.58-2.21-.82-.48-1.69-.12-2.21,.58,.12-.16-.18,.22-.17,.21-.09,.11-.19,.21-.28,.31-.21,.22-.43,.42-.66,.62l-.13,.1c.09-.07,.1-.07,0,0-.11,.08-.22,.16-.33,.23-.22,.15-.45,.29-.68,.41-.25,.14-.51,.27-.78,.39-.15,.07,.14-.05-.12,.05-.15,.05-.29,.11-.44,.16-.52,.18-1.04,.32-1.58,.43-.25,.05-.5,.1-.76,.14-.13,.02-.25,.04-.38,.06,.35-.05-.14,.02-.17,.02-.51,.06-1.02,.1-1.53,.12-.92,.05-1.85,.04-2.77,.04-2.08,0-2.08,3.23,0,3.23h0Z"/>
      <path class="cls-6" d="M214.05,23.02c-.15,0-.3-.07-.39-.19-1.78-2.29-2.72-5.05-2.72-7.96,0-.28,.22-.5,.5-.5s.5,.22,.5,.5c0,2.69,.87,5.23,2.51,7.34,.17,.22,.13,.53-.09,.7-.09,.07-.2,.1-.31,.1Z"/>
      <path class="cls-6" d="M197.48,28.49c-1.14,0-2.28-.03-3.38-.07h-.5c-.28-.02-.49-.25-.49-.53,0-.28,.27-.47,.51-.49l.5,.02c6.03,.18,12.87,.38,16.9-5.23,.16-.23,.48-.27,.7-.11,.22,.16,.28,.47,.11,.7-3.58,4.97-9.04,5.71-14.36,5.71Z"/>
      <g>
        <path class="cls-1" d="M201.55,19.01c.37-.63,.78-1.24,1.22-1.82l-.25,.33c.67-.87,1.42-1.67,2.25-2.4,.3-.26,.47-.75,.47-1.14s-.18-.87-.47-1.14-.71-.49-1.14-.47-.81,.18-1.14,.47c-1.47,1.3-2.74,2.85-3.72,4.54-.42,.73-.19,1.8,.58,2.21s1.76,.2,2.21-.58h0Z"/>
        <path class="cls-1" d="M198.38,24.11c2.08,0,2.08-3.23,0-3.23s-2.08,3.23,0,3.23h0Z"/>
      </g>
      <path class="cls-6" d="M187.75,43.66c-.06,0-.11,0-.17,0-.97,.03-1.83-.27-2.44-.9-1.44-1.47-1.31-4.41-1.2-6.78,.04-.92,.08-1.8,.01-2.39-.03-.27,.17-.52,.44-.55,.26-.04,.52,.16,.55,.44,.08,.67,.04,1.54,0,2.55-.1,2.17-.22,4.87,.92,6.03,.42,.42,.96,.63,1.74,.6,.75,.03,1.3-.16,1.72-.59,1.36-1.39,1.14-4.97,.96-7.85-.1-1.56-.18-2.92,0-3.77,0-1.2-.63-1.82-1.16-2.13-.88-.52-2.11-.51-2.99,0-.54,.31-1.18,.95-1.16,2.17,0,.28-.22,.5-.49,.51-.27-.02-.5-.22-.51-.49-.02-1.33,.57-2.42,1.65-3.05,1.2-.7,2.8-.7,4,0,1.08,.63,1.67,1.72,1.65,3.05,0,.03,0,.07-.01,.1-.16,.71-.07,2.09,.02,3.55,.19,3.07,.43,6.9-1.24,8.61-.58,.59-1.34,.89-2.27,.89Z"/>
      <path class="cls-6" d="M206.81,57.28c-3.73,0-7.48-.27-10.71-1.35-5.82-1.94-8.77-6.11-9.02-12.75-.01-.29,.21-.53,.5-.54,0,0,.01,0,.02,0,.28,0,.51,.22,.52,.5,.23,6.15,2.95,10.01,8.31,11.8,4.74,1.59,10.79,1.35,16.13,1.15l.47-.02c.33-.03,.53,.21,.54,.5,.01,.29-.21,.53-.5,.54l-.47,.02c-1.87,.07-3.83,.15-5.79,.15Z"/>
      <path class="cls-36" d="M230.83,15.53l.26,6.05,3.9,4.38c-.01,4.52,.01,13.64,.03,18.13-.42,11.01-9.3,19.99-20.72,19.99,0,0,0-58.02,0-58.02,6.43-.46,12.5,2.68,16.34,7.42"/>
      <path class="cls-6" d="M230.61,13.84c-.15,0-.29-.06-.39-.19-3.7-4.63-9.35-7.31-15.51-7.35-.28,0-.5-.23-.5-.5,0-.27,.23-.5,.5-.5h0c6.46,.04,12.4,2.86,16.28,7.73,.17,.22,.14,.53-.08,.7-.09,.07-.2,.11-.31,.11Z"/>
      <polyline class="cls-15" points="214.72 46.42 221.88 46.42 221.88 53.05 214.58 53.05"/>
      <path class="cls-31" d="M215.76,49.64h4.79c.84,0,1.65-.74,1.61-1.61s-.71-1.61-1.61-1.61h-4.79c-.84,0-1.65,.74-1.61,1.61s.71,1.61,1.61,1.61h0Z"/>
      <path class="cls-6" d="M221.88,53.48h-7.29c-.28,0-.5-.22-.5-.5s.22-.5,.5-.5h6.79v-5.64h-6.66c-.28,0-.5-.22-.5-.5s.22-.5,.5-.5h7.16c.28,0,.5,.22,.5,.5v6.64c0,.28-.22,.5-.5,.5Z"/>
      <path class="cls-6" d="M216.12,53.13c-.21,0-.38-.17-.38-.38v-6.1c0-.21,.17-.38,.38-.38s.38,.17,.38,.38v6.1c0,.21-.17,.38-.38,.38Z"/>
      <path class="cls-6" d="M218.12,53.13c-.21,0-.38-.17-.38-.38v-6.1c0-.21,.17-.38,.38-.38s.38,.17,.38,.38v6.1c0,.21-.17,.38-.38,.38Z"/>
      <path class="cls-6" d="M220.12,53.13c-.21,0-.38-.17-.38-.38v-6.1c0-.21,.17-.38,.38-.38s.38,.17,.38,.38v6.1c0,.21-.17,.38-.38,.38Z"/>
      <path class="cls-17" d="M223.07,36.8c.04,2.59-4.04,2.59-4,0-.04-2.59,4.04-2.59,4,0Z"/>
      <path class="cls-6" d="M227.82,10.89c-.28,0-.5-.22-.5-.5v-2.61c0-.28,.22-.5,.5-.5s.5,.22,.5,.5v2.61c0,.28-.22,.5-.5,.5Z"/>
      <path class="cls-6" d="M227.82,7.58c-.48,0-.95-.12-1.36-.36-.74-.43-1.15-1.19-1.14-2.09-.01-.89,.4-1.65,1.14-2.08,.81-.48,1.91-.48,2.72,0,.73,.43,1.15,1.19,1.14,2.09,.01,.9-.4,1.66-1.14,2.09-.41,.24-.88,.36-1.36,.36Zm0-3.89c-.3,0-.6,.07-.86,.22-.3,.17-.65,.53-.64,1.22,0,.7,.34,1.06,.64,1.23,.5,.29,1.21,.29,1.71,0,.3-.17,.65-.53,.64-1.22h0c0-.7-.34-1.06-.64-1.23-.25-.15-.55-.22-.86-.22Z"/>
      <path class="cls-6" d="M220.56,24.94c-.36,0-.73-.09-1.04-.27-.56-.33-.88-.91-.87-1.6,0-.68,.31-1.26,.87-1.59,.62-.36,1.46-.36,2.07,0,.56,.33,.88,.91,.87,1.59,0,.68-.31,1.26-.87,1.59-.31,.18-.67,.27-1.04,.27Zm0-2.98c-.23,0-.47,.06-.66,.17-.23,.13-.5,.41-.5,.94,0,.54,.27,.81,.5,.95,.39,.23,.93,.23,1.32,0,.23-.13,.5-.41,.5-.94h0c0-.54-.26-.81-.5-.95-.19-.11-.43-.17-.66-.17Z"/>
      <path class="cls-39" d="M222.09,74.31c.03,1.99-3.09,1.99-3.06,0-.03-1.98,3.09-1.98,3.06,0Z"/>
      <path class="cls-15" d="M221.21,73.99c.01,.92-1.44,.92-1.42,0-.01-.92,1.44-.92,1.42,0Z"/>
      <path class="cls-39" d="M227.56,74.31c.03,1.99-3.09,1.99-3.06,0-.03-1.98,3.09-1.98,3.06,0Z"/>
      <path class="cls-6" d="M225.93,76.06c-.36,0-.73-.09-1.04-.27-.56-.33-.88-.91-.87-1.6,0-.68,.31-1.26,.87-1.59,.62-.36,1.45-.36,2.07,0,.56,.33,.88,.91,.87,1.59,0,.68-.31,1.26-.87,1.59-.31,.18-.67,.27-1.04,.27Zm0-2.98c-.23,0-.47,.06-.66,.17-.23,.13-.5,.41-.5,.94,0,.54,.27,.81,.5,.95,.39,.23,.93,.23,1.32,0,.23-.13,.5-.41,.5-.94h0c0-.54-.27-.81-.5-.95-.19-.11-.43-.17-.66-.17Z"/>
      <path class="cls-6" d="M220.34,76.11c-.07,0-.13,0-.19-.01-.45-.05-1.48-.39-1.39-2.38,0-.21,.18-.35,.39-.36,.21,.01,.37,.19,.36,.39-.03,.56,.03,1.52,.73,1.6,.63,.07,1.45-.54,1.57-1.15,.13-.69-.76-1.03-1.31-1.18-.2-.05-.32-.26-.27-.46,.05-.2,.26-.32,.46-.27,1.93,.51,1.94,1.6,1.85,2.04-.18,.94-1.23,1.76-2.2,1.76Z"/>
      <g>
        <path class="cls-6" d="M222.83,17.07c-.3,0-.59-.07-.85-.22-.46-.27-.72-.75-.71-1.31,0-.55,.25-1.03,.71-1.3,.5-.3,1.19-.3,1.69,0,.46,.27,.72,.74,.71,1.31,0,.56-.25,1.04-.71,1.31-.25,.15-.55,.22-.85,.22Zm0-2.31c-.17,0-.33,.04-.47,.12-.16,.09-.35,.28-.34,.65,0,.38,.18,.57,.34,.66,.28,.16,.66,.16,.94,0,.16-.09,.35-.28,.34-.65h0c0-.38-.18-.57-.34-.66-.14-.08-.3-.12-.47-.12Z"/>
        <path class="cls-6" d="M222.82,14.47c-.21,0-.38-.17-.38-.38V7.96c0-.21,.17-.38,.38-.38s.38,.17,.38,.38v6.14c0,.21-.17,.38-.38,.38Z"/>
      </g>
      <g>
        <path class="cls-6" d="M227.03,19.6c-.3,0-.59-.07-.85-.22-.46-.27-.72-.75-.71-1.31,0-.55,.25-1.03,.71-1.3,.51-.3,1.19-.3,1.69,0,.46,.27,.72,.75,.71,1.31,0,.56-.25,1.04-.71,1.31-.25,.15-.55,.22-.85,.22Zm0-2.31c-.17,0-.33,.04-.47,.12-.16,.09-.35,.28-.34,.65,0,.38,.18,.57,.34,.66,.28,.16,.66,.16,.94,0,.16-.09,.35-.28,.34-.65h0c0-.38-.18-.57-.34-.66-.14-.08-.3-.12-.47-.12Z"/>
        <path class="cls-6" d="M227.03,16.99c-.21,0-.38-.17-.38-.38v-6.14c0-.21,.17-.38,.38-.38s.38,.17,.38,.38v6.14c0,.21-.17,.38-.38,.38Z"/>
      </g>
      <path class="cls-6" d="M234.78,29.92h-3.93c-.1,0-.19-.04-.26-.11l-2.38-2.38h-3.46c-.21,0-.38-.17-.38-.38s.17-.38,.38-.38h3.61c.1,0,.19,.04,.26,.11l2.38,2.38h3.77c.21,0,.38,.17,.38,.38s-.17,.38-.38,.38Z"/>
      <path class="cls-6" d="M239.62,32.86h-3.93c-.21,0-.38-.17-.38-.38s.17-.38,.38-.38h3.93c.21,0,.38,.17,.38,.38s-.17,.38-.38,.38Z"/>
      <path class="cls-6" d="M221.28,39.3c-.5,0-1-.12-1.42-.37-.78-.45-1.21-1.26-1.2-2.21-.01-.93,.42-1.73,1.2-2.19,.85-.5,2-.5,2.85,0,.77,.45,1.21,1.25,1.2,2.2,.01,.94-.43,1.74-1.2,2.2-.43,.25-.92,.37-1.42,.37Zm0-3.89c-.28,0-.56,.07-.79,.2-.27,.16-.59,.48-.58,1.11,0,.65,.31,.97,.58,1.12,.46,.27,1.12,.27,1.58,0,.27-.16,.59-.48,.58-1.11v-.02c0-.63-.31-.95-.58-1.11-.23-.14-.51-.2-.79-.2Z"/>
      <path class="cls-45" d="M218.94,63.23c4.45-1.12,8.55-3.66,11.46-7.21,.55-.67,.66-1.62,0-2.28-.57-.57-1.73-.68-2.28,0-1.35,1.65-2.8,2.95-4.49,4.02-1.84,1.16-3.45,1.84-5.54,2.37-.85,.21-1.35,1.16-1.13,1.99s1.14,1.34,1.99,1.13h0Z"/>
      <path class="cls-6" d="M214.85,64.2c-2.16,0-4.29-.3-6.27-.86-7.39-2.07-15.88-8.57-15.47-20.08v-9.17c0-.28,.22-.5,.5-.5s.5,.22,.5,.5v9.19c-.38,10.95,7.7,17.13,14.74,19.1,7.67,2.15,17.64,.33,22.63-8.56,.14-.24,.44-.33,.68-.19,.24,.14,.33,.44,.19,.68-3.96,7.06-10.89,9.89-17.51,9.89Z"/>
      <path class="cls-45" d="M231.9,31.86c0,2.57,.17,5.14,.18,7.71,0,.84,.74,1.65,1.61,1.61s1.62-.71,1.61-1.61c0-2.57-.17-5.14-.18-7.71,0-.84-.74-1.65-1.61-1.61s-1.62,.71-1.61,1.61h0Z"/>
      <path class="cls-6" d="M234.53,47.95s-.08,0-.12-.01c-.27-.07-.43-.34-.36-.61,.47-1.88,.44-5.36,.41-8.15,0-1-.02-1.91,0-2.63,0-.27,.23-.49,.5-.49h.01c.28,0,.5,.23,.49,.51-.02,.71,0,1.61,0,2.6,.03,2.85,.06,6.4-.44,8.4-.06,.23-.26,.38-.49,.38Z"/>
      <path class="cls-6" d="M233.26,51.99c-.07,0-.13-.01-.2-.04-.25-.11-.37-.4-.26-.66,.25-.58,.48-1.17,.67-1.76,.08-.26,.37-.4,.63-.32,.26,.09,.41,.37,.32,.63-.2,.62-.44,1.24-.7,1.85-.08,.19-.27,.3-.46,.3Z"/>
      <path class="cls-25" d="M214.72,15.25c0,2.94,0,5.87,0,8.81,0,.84,.74,1.65,1.61,1.61s1.61-.71,1.61-1.61c0-2.94,0-5.87,0-8.81,0-.84-.74-1.65-1.61-1.61s-1.61,.71-1.61,1.61h0Z"/>
      <path class="cls-26" d="M214.72,11.31v1.97c0,.41,.18,.85,.47,1.14s.74,.49,1.14,.47c.87-.04,1.61-.71,1.61-1.61v-.15c0-.41-.18-.85-.47-1.14s-.74-.49-1.14-.47c-.87,.04-1.61,.71-1.61,1.61v1.97c0,.41,.18,.85,.47,1.14s.74,.49,1.14,.47c.87-.04,1.61-.71,1.61-1.61v-1.97c0-.41-.18-.85-.47-1.14s-.74-.49-1.14-.47c-.87,.04-1.61,.71-1.61,1.61v.15c0,.41,.18,.85,.47,1.14s.74,.49,1.14,.47c.87-.04,1.61-.71,1.61-1.61v-1.97c0-.41-.18-.85-.47-1.14s-.74-.49-1.14-.47c-.87,.04-1.61,.71-1.61,1.61h0Z"/>
      <path class="cls-27" d="M214.72,29.26v1.97c0,.41,.18,.85,.47,1.14s.74,.49,1.14,.47c.87-.04,1.61-.71,1.61-1.61v-.15c0-.41-.18-.85-.47-1.14s-.74-.49-1.14-.47c-.87,.04-1.61,.71-1.61,1.61v1.97c0,.41,.18,.85,.47,1.14s.74,.49,1.14,.47c.87-.04,1.61-.71,1.61-1.61v-1.97c0-.41-.18-.85-.47-1.14s-.74-.49-1.14-.47c-.87,.04-1.61,.71-1.61,1.61v.15c0,.41,.18,.85,.47,1.14s.74,.49,1.14,.47c.87-.04,1.61-.71,1.61-1.61v-1.97c0-.41-.18-.85-.47-1.14s-.74-.49-1.14-.47c-.87,.04-1.61,.71-1.61,1.61h0Z"/>
      <path class="cls-6" d="M220.58,21.61c-.21,0-.38-.17-.38-.38v-2.58l-2.45-2.45c-.07-.07-.11-.17-.11-.27V6.54c0-.21,.17-.38,.38-.38s.38,.17,.38,.38V15.78l2.45,2.45c.07,.07,.11,.17,.11,.27v2.74c0,.21-.17,.38-.38,.38Z"/>
      <path class="cls-6" d="M214.28,35.83c-.28,0-.5-.22-.5-.5V5.92c0-.28,.22-.5,.5-.5s.5,.22,.5,.5v29.41c0,.28-.22,.5-.5,.5Z"/>
      <path class="cls-6" d="M231.48,79.07c-.28,0-.5-.22-.5-.5v-8.1c0-.38-.1-.66-.33-.87-.48-.43-1.41-.5-2.12-.42-.27,.03-.52-.17-.55-.44-.03-.27,.17-.52,.44-.55,.58-.07,2.02-.13,2.9,.68,.44,.4,.67,.96,.66,1.62v8.1c0,.28-.22,.5-.5,.5Z"/>
      <path class="cls-45" d="M229.88,24.06c.86,.84,1.72,1.69,2.58,2.53l.37,.36c.4,.39,1.13,.43,1.52,0s.43-1.1,0-1.52c-.86-.84-1.72-1.69-2.58-2.53l-.37-.36c-.4-.39-1.13-.43-1.52,0s-.43,1.1,0,1.52h0Z"/>
      <path class="cls-6" d="M234.96,33.85c-.28,0-.5-.22-.5-.5v-7.32l-4.01-4.01c-.09-.09-.15-.22-.15-.35v-6.28c0-.28,.22-.5,.5-.5s.5,.22,.5,.5v6.07l4.01,4.01c.09,.09,.15,.22,.15,.35v7.52c0,.28-.22,.5-.5,.5Z"/>
      <path class="cls-19" d="M215.23,70.77h7.21c.56,0,1.1-.5,1.08-1.08s-.47-1.08-1.08-1.08h-7.21c-.56,0-1.1,.5-1.08,1.08s.47,1.08,1.08,1.08h0Z"/>
      <path class="cls-6" d="M214.28,79.77c-.28,0-.5-.22-.5-.5V38.52c0-.28,.22-.5,.5-.5s.5,.22,.5,.5v40.75c0,.28-.22,.5-.5,.5Z"/>
      <path class="cls-6" d="M225.88,69.18h-6.21c-.28,0-.5-.22-.5-.5s.22-.5,.5-.5h6.21c.28,0,.5,.22,.5,.5s-.22,.5-.5,.5Z"/>
      <path class="cls-6" d="M216.97,69.18h-2.6c-.28,0-.5-.22-.5-.5s.22-.5,.5-.5h2.6c.28,0,.5,.22,.5,.5s-.22,.5-.5,.5Z"/>
      <path class="cls-41" d="M203.94,168.63h32.91c0-4.26-3.45-7.71-7.71-7.71h-28.54c-4.26,0-7.71,3.45-7.71,7.71h0s8.03,0,8.03,0"/>
      <path class="cls-33" d="M200.98,149.76c2.03,1.56,4.31,2.76,6.72,3.62,.75,.27,1.69-.3,1.86-1.06,.19-.85-.26-1.57-1.06-1.86-.28-.1-.56-.21-.84-.32-.07-.03-.55-.2-.16-.06-.14-.05-.28-.12-.41-.18-.54-.25-1.08-.51-1.6-.8-1.05-.57-2.05-1.23-2.99-1.96-.29-.22-.83-.24-1.17-.15-.35,.1-.73,.37-.9,.7-.19,.35-.28,.78-.15,1.17s.36,.65,.7,.9h0Z"/>
      <path class="cls-32" d="M214.88,154.64c2.54-.28,5.03-.81,7.43-1.66,.74-.26,1.32-1.05,1.06-1.86-.24-.73-1.06-1.34-1.86-1.06-1.12,.39-2.25,.73-3.4,.99-.57,.13-1.13,.25-1.71,.34-.29,.05-.57,.09-.86,.14-.37,.06,.21-.02-.13,.02-.18,.02-.35,.04-.53,.06-.78,.09-1.55,.63-1.51,1.51,.03,.75,.67,1.61,1.51,1.51h0Z"/>
      <path class="cls-31" d="M227.79,149.19c2.39-1.94,4.68-4.27,5.47-7.33,.2-.77-.25-1.68-1.06-1.86s-1.65,.24-1.86,1.06c-.09,.34-.2,.68-.33,1.01-.07,.19-.02-.02,.03-.07-.05,.05-.08,.17-.11,.24-.08,.16-.16,.31-.24,.47-.16,.29-.34,.58-.53,.85-.1,.14-.19,.31-.31,.43,.12-.12,.13-.17,0-.01-.06,.07-.11,.14-.17,.21-.9,1.07-1.96,2.01-3.04,2.89-.62,.5-.56,1.63,0,2.14,.66,.6,1.48,.53,2.14,0h0Z"/>
      <path class="cls-8" d="M201.45,163.9h29.68c1.95,0,1.95-3.03,0-3.03h-29.68c-1.95,0-1.95,3.03,0,3.03h0Z"/>
      <path class="cls-31" d="M208.11,156.7c3.76,1.48,8.14,1.44,11.87-.12,.75-.32,1.29-1,1.06-1.86-.2-.71-1.1-1.37-1.86-1.06-3.33,1.4-6.9,1.44-10.26,.12-.76-.3-1.66,.33-1.86,1.06-.24,.86,.29,1.56,1.06,1.86h0Z"/>
      <path class="cls-41" d="M238.22,118.25h1.3v14.47h-1.3c-1.63,0-2.95-1.32-2.95-2.95v-8.57c0-1.63,1.32-2.95,2.95-2.95Z" transform="translate(474.79 250.98) rotate(-180)"/>
      <path class="cls-41" d="M189.69,119.25c.54-.61,1.33-1,2.21-1h1.3v14.47h-1.3c-1.63,0-2.95-1.32-2.95-2.95v-8.57"/>
      <path class="cls-24" d="M214.1,135.15h6.06c2.6,0,4.71,2.11,4.71,4.71h0c0,2.6-2.11,4.71-4.71,4.71h-11.86c-2.6,0-4.71-2.11-4.71-4.71h0c0-2.6,2.11-4.71,4.71-4.71h2.65"/>
      <path class="cls-30" d="M223.18,101.01s-1.55,9.13-8.92,9.13-8.92-9.13-8.92-9.13c0,0,4.61-1.74,9.54-1.74s8.31,1.74,8.31,1.74Z"/>
      <path class="cls-41" d="M207.5,115.85h15.16c4.74,0,8.58,3.35,8.58,7.49h0c0,4.13-3.84,7.49-8.58,7.49h-16.83c-4.74,0-8.58-3.35-8.58-7.49h0c0-3.7,3.08-6.78,7.13-7.38"/>
      <g>
        <circle class="cls-40" cx="206.02" cy="123.6" r="3.52"/>
        <circle class="cls-40" cx="222.45" cy="123.6" r="3.52"/>
      </g>
      <g>
        <path class="cls-6" d="M197.48,137.14h-.05c-.1-.03-.16-.13-.13-.23l.62-2.16c.03-.1,.13-.16,.23-.13,0,0,0,0,0,0,.1,.03,.16,.13,.13,.23l-.62,2.16c-.02,.08-.1,.13-.18,.13Z"/>
        <path class="cls-6" d="M198.27,138.62h-.05c-.1-.03-.16-.13-.13-.23,0,0,0,0,0,0l1.23-4.3c.03-.1,.13-.16,.23-.13,0,0,0,0,0,0,.1,.03,.16,.13,.13,.23,0,0,0,0,0,0l-1.23,4.3c-.02,.08-.1,.14-.18,.14Z"/>
      </g>
      <path class="cls-6" d="M196.54,145.29c-.16,0-.33-.08-.42-.23-2.23-3.47-3.41-7.49-3.41-11.64v-13.12c0-4.63,1.45-9.04,4.19-12.76,.16-.22,.48-.27,.7-.11,.22,.16,.27,.48,.11,.7-2.61,3.54-3.99,7.75-3.99,12.17v13.12c0,3.95,1.12,7.79,3.25,11.09,.15,.23,.08,.54-.15,.69-.08,.05-.18,.08-.27,.08Z"/>
      <path class="cls-6" d="M222.65,131.24h-16.83c-4.96,0-9-3.55-9-7.9,0-3.87,3.15-7.15,7.49-7.79,.22-.03,.44,.12,.48,.35,.03,.23-.12,.44-.35,.48-3.92,.58-6.77,3.51-6.77,6.96,0,3.9,3.66,7.07,8.17,7.07h16.83c4.5,0,8.16-3.17,8.16-7.07s-3.66-7.07-8.16-7.07h-15.16c-.23,0-.42-.19-.42-.42s.19-.42,.42-.42h15.16c4.96,0,9,3.55,9,7.9s-4.04,7.9-9,7.9Z"/>
      <path class="cls-6" d="M214.24,99.42c-.23,0-.42-.19-.42-.42v-4.92c0-.23,.19-.42,.42-.42s.42,.19,.42,.42v4.92c0,.23-.19,.42-.42,.42Z"/>
      <circle class="cls-17" cx="214.24" cy="92.78" r="3.53"/>
      <path class="cls-6" d="M214.24,96.73c-2.18,0-3.95-1.77-3.95-3.95s1.77-3.95,3.95-3.95,3.95,1.77,3.95,3.95-1.77,3.95-3.95,3.95Zm0-7.06c-1.72,0-3.11,1.4-3.11,3.11s1.4,3.11,3.11,3.11,3.11-1.4,3.11-3.11-1.4-3.11-3.11-3.11Z"/>
      <path class="cls-6" d="M188.95,128.04c-1.46,0-2.64-1.18-2.64-2.64s1.18-2.64,2.64-2.64v5.27Z"/>
      <path class="cls-6" d="M239.62,128.04c1.46,0,2.64-1.18,2.64-2.64s-1.18-2.64-2.64-2.64v5.27Z"/>
      <path class="cls-6" d="M193.2,133.14h-1.3c-1.86,0-3.37-1.51-3.37-3.37v-8.57c0-.23,.19-.42,.42-.42s.42,.19,.42,.42v8.57c0,1.4,1.14,2.53,2.53,2.53h.88v-13.64h-.88c-.72,0-1.42,.31-1.9,.85-.15,.17-.42,.19-.59,.04-.17-.15-.19-.42-.04-.59,.64-.72,1.56-1.14,2.52-1.14h1.3c.23,0,.42,.19,.42,.42v14.47c0,.23-.19,.42-.42,.42Z"/>
      <path class="cls-6" d="M236.57,133.14h-1.3c-.23,0-.42-.19-.42-.42v-14.47c0-.23,.19-.42,.42-.42h1.3c1.86,0,3.37,1.51,3.37,3.37v8.57c0,1.86-1.51,3.37-3.37,3.37Zm-.88-.84h.88c1.4,0,2.53-1.14,2.53-2.53v-8.57c0-1.4-1.14-2.53-2.53-2.53h-.88v13.64Z"/>
      <path class="cls-6" d="M207.44,158.96c-.23,0-.42-.19-.42-.42v-4.97c0-.23,.19-.42,.42-.42s.42,.19,.42,.42v4.97c0,.23-.19,.42-.42,.42Z"/>
      <path class="cls-6" d="M221.03,161.09c-.23,0-.42-.19-.42-.42v-7.1c0-.23,.19-.42,.42-.42s.42,.19,.42,.42v7.1c0,.23-.19,.42-.42,.42Z"/>
      <path class="cls-6" d="M236.85,169.05h-32.91c-.23,0-.42-.19-.42-.42s.19-.42,.42-.42h32.48c-.22-3.83-3.4-6.87-7.28-6.87h-28.54c-3.88,0-7.06,3.05-7.28,6.87h7.6c.23,0,.42,.19,.42,.42s-.19,.42-.42,.42h-8.03c-.23,0-.42-.19-.42-.42,0-4.48,3.65-8.13,8.13-8.13h28.54c4.48,0,8.13,3.65,8.13,8.13,0,.23-.19,.42-.42,.42Z"/>
      <path class="cls-6" d="M224.22,138.5h-15c-.23,0-.42-.19-.42-.42s.19-.42,.42-.42h15c.23,0,.42,.19,.42,.42s-.19,.42-.42,.42Z"/>
      <path class="cls-9" d="M210.49,138.5h-6.55c-.23,0-.42-.19-.42-.42s.19-.42,.42-.42h6.55c.23,0,.42,.19,.42,.42s-.19,.42-.42,.42Z"/>
      <path class="cls-9" d="M224.22,141.48h-8.14c-.23,0-.42-.19-.42-.42s.19-.42,.42-.42h8.14c.23,0,.42,.19,.42,.42s-.19,.42-.42,.42Z"/>
      <path class="cls-6" d="M217.04,141.48h-13.09c-.23,0-.42-.19-.42-.42s.19-.42,.42-.42h13.09c.23,0,.42,.19,.42,.42s-.19,.42-.42,.42Z"/>
      <path class="cls-44" d="M207.63,106.5c1.4,2.6,4.39,3.76,7.22,3.62,.53-.03,1.03-.45,1.01-1.01-.02-.52-.44-1.04-1.01-1.01-.32,.02-.64,.02-.96,0-.15,0-.3-.02-.45-.04-.19-.02,.12,.02-.07,0-.07-.01-.15-.02-.22-.04-.6-.11-1.19-.29-1.65-.52-.53-.27-.85-.49-1.21-.82-.19-.18-.37-.37-.53-.58,.09,.11-.02-.03-.05-.07-.04-.05-.07-.11-.11-.16-.08-.12-.15-.25-.22-.38-.25-.47-.93-.65-1.38-.36-.47,.3-.63,.88-.36,1.38h0Z"/>
      <path class="cls-6" d="M209.44,108.99c-.08,0-.16-.02-.23-.07-2.5-1.68-4-4.49-4-7.5,0-.23,.19-.42,.42-.42s.42,.19,.42,.42c0,2.73,1.36,5.28,3.63,6.8,.19,.13,.24,.39,.11,.58-.08,.12-.21,.19-.35,.19Z"/>
      <path class="cls-6" d="M214.24,110.45c-.98,0-1.94-.15-2.85-.46-.22-.07-.34-.31-.27-.53,.07-.22,.31-.34,.53-.26,.83,.28,1.7,.42,2.59,.42,2.34,0,4.57-1,6.12-2.75,.15-.17,.42-.19,.59-.03,.17,.15,.19,.42,.03,.59-1.71,1.93-4.17,3.03-6.75,3.03Z"/>
      <path class="cls-8" d="M204.09,130.96h10.21c1.3,0,1.3-2.02,0-2.02h-10.21c-1.3,0-1.3,2.02,0,2.02h0Z"/>
      <path class="cls-8" d="M219.42,130.96h1.57c.53,0,1.03-.46,1.01-1.01s-.44-1.01-1.01-1.01h-.07c-.53,0-1.03,.46-1.01,1.01s.44,1.01,1.01,1.01h1.57c.53,0,1.03-.46,1.01-1.01s-.44-1.01-1.01-1.01h-1.57c-.53,0-1.03,.46-1.01,1.01s.44,1.01,1.01,1.01h.07c.53,0,1.03-.46,1.01-1.01s-.44-1.01-1.01-1.01h-1.57c-.53,0-1.03,.46-1.01,1.01s.44,1.01,1.01,1.01h0Z"/>
      <path class="cls-42" d="M202.86,124.03c.06,1.27,1.12,2.3,2.32,2.59,1.12,.27,2.4-.08,3.14-.99,.17-.21,.3-.43,.3-.71,0-.25-.11-.54-.3-.71-.37-.34-1.07-.44-1.43,0-.05,.07-.11,.13-.17,.19-.03,.03-.07,.06-.11,.1-.1,.1,.04-.05,.07-.05-.06,0-.16,.1-.22,.14-.03,.02-.1,.04-.13,.06,.02-.02,.21-.08,.08-.04-.08,.03-.16,.05-.25,.07-.04,0-.1,.03-.14,.03,.03,0,.24-.02,.1-.01-.1,0-.19,0-.29,0-.03,0-.09,0-.12-.01,.06,.03,.24,.04,.06,0-.09-.02-.17-.04-.26-.07-.04-.01-.07-.03-.11-.04,.08,.02,.2,.09,.05,.02-.08-.04-.16-.08-.23-.13-.03-.02-.06-.05-.1-.07,.07,.03,.16,.13,.04,.03-.07-.06-.13-.13-.19-.19-.09-.09,.03,.02,.04,.06-.02-.04-.06-.08-.08-.13-.02-.03-.04-.07-.06-.1-.06-.1,.07,.22,.02,.05-.01-.04-.02-.08-.03-.11-.06-.2,.02,.24,0,.03-.02-.53-.45-1.03-1.01-1.01-.53,.02-1.03,.44-1.01,1.01h0Z"/>
      <g>
        <path class="cls-6" d="M206.02,127.47c-2.28,0-4.13-1.85-4.13-4.13s1.85-4.13,4.13-4.13,4.13,1.85,4.13,4.13-1.85,4.13-4.13,4.13Zm0-7.05c-1.61,0-2.92,1.31-2.92,2.92s1.31,2.92,2.92,2.92,2.92-1.31,2.92-2.92-1.31-2.92-2.92-2.92Z"/>
        <path class="cls-6" d="M222.45,127.47c-2.28,0-4.13-1.85-4.13-4.13s1.85-4.13,4.13-4.13,4.13,1.85,4.13,4.13-1.85,4.13-4.13,4.13Zm0-7.05c-1.61,0-2.92,1.31-2.92,2.92s1.31,2.92,2.92,2.92,2.92-1.31,2.92-2.92-1.31-2.92-2.92-2.92Z"/>
      </g>
      <path class="cls-7" d="M210.49,144.81h8.18c1.3,0,1.3-2.02,0-2.02h-8.18c-1.3,0-1.3,2.02,0,2.02h0Z"/>
      <path class="cls-6" d="M220.17,145.08h-11.86c-2.88,0-5.21-2.34-5.21-5.21s2.34-5.21,5.21-5.21h2.65c.28,0,.5,.22,.5,.5s-.22,.5-.5,.5h-2.65c-2.32,0-4.21,1.89-4.21,4.21s1.89,4.21,4.21,4.21h11.86c2.32,0,4.21-1.89,4.21-4.21s-1.89-4.21-4.21-4.21h-6.06c-.28,0-.5-.22-.5-.5s.22-.5,.5-.5h6.06c2.88,0,5.21,2.34,5.21,5.21s-2.34,5.21-5.21,5.21Z"/>
      <path class="cls-44" d="M218.41,101.64c.51,.12,1.01,.26,1.51,.41s.98,.29,1.44,.48l-.24-.1c.06,.03,.11,.06,.16,.1l-.2-.16s.05,.04,.06,.07l-.16-.2s.03,.05,.05,.08l-.1-.24s.03,.08,.03,.13l-.04-.27s0,.09,0,.14l.04-.27c-.02,.11-.05,.22-.09,.32l.1-.24c-.09,.2-.19,.39-.24,.6-.08,.3-.07,.55-.02,.85,.04,.24,.26,.49,.46,.6,.22,.13,.53,.18,.78,.1s.48-.23,.6-.46c.13-.25,.15-.5,.1-.78v-.05c0,.09,.01,.18,.03,.27,0-.06,0-.1,0-.16l-.04,.27c.02-.11,.06-.21,.1-.31l-.1,.24c.09-.22,.21-.43,.25-.67,.07-.38,.06-.77-.14-1.11-.3-.53-.86-.69-1.4-.88-.79-.27-1.6-.5-2.41-.7-.51-.12-1.12,.16-1.24,.7s.16,1.11,.7,1.24h0Z"/>
      <path class="cls-6" d="M214.24,154.87c-6.52,0-12.61-2.91-16.71-7.99-.14-.18-.12-.44,.06-.59,.18-.15,.44-.12,.59,.06,3.94,4.88,9.79,7.68,16.05,7.68,11.37,0,20.61-9.25,20.61-20.61v-13.12c0-11.37-9.25-20.61-20.61-20.61-5.76,0-11.1,2.31-15.04,6.52-.16,.17-.42,.18-.59,.02-.17-.16-.18-.42-.02-.59,4.04-4.31,9.75-6.78,15.65-6.78,11.83,0,21.45,9.62,21.45,21.45v13.12c0,11.83-9.62,21.45-21.45,21.45Z"/>
      <path class="cls-6" d="M221.82,105.92c-.07,0-.14-.02-.2-.05-.2-.11-.28-.36-.17-.57,.64-1.19,.98-2.53,.98-3.88,0-.23,.19-.42,.42-.42s.42,.19,.42,.42c0,1.49-.37,2.97-1.08,4.28-.08,.14-.22,.22-.37,.22Z"/>
      <path class="cls-15" d="M209.33,103.35c.32-.1,.65-.17,.98-.21l-.27,.04c.12-.02,.24-.03,.36-.04,.14,0,.27-.02,.39-.09,.13-.04,.23-.11,.32-.21,.1-.09,.17-.2,.21-.32,.06-.12,.09-.25,.09-.39-.01-.26-.1-.53-.3-.71s-.45-.32-.71-.3c-.54,.04-1.09,.13-1.61,.29-.25,.07-.47,.24-.6,.46-.07,.12-.11,.24-.12,.38-.03,.13-.02,.27,.02,.4,.08,.24,.23,.48,.46,.6s.51,.18,.78,.1h0Z"/>
      <path class="cls-15" d="M213.11,102.78c1.3,0,1.3-2.02,0-2.02s-1.3,2.02,0,2.02h0Z"/>
      <path class="cls-15" d="M206.02,123.2c1.3,0,1.3-2.02,0-2.02s-1.3,2.02,0,2.02h0Z"/>
      <path class="cls-15" d="M221.94,123.2c1.3,0,1.3-2.02,0-2.02s-1.3,2.02,0,2.02h0Z"/>
      <path class="cls-6" d="M214.29,113.11c-6.3,0-11.43-4.54-11.43-10.12,0-.23,.19-.42,.42-.42s.42,.19,.42,.42c0,5.12,4.75,9.28,10.59,9.28s10.59-4.16,10.59-9.28c0-.23,.19-.42,.42-.42s.42,.19,.42,.42c0,5.58-5.13,10.12-11.43,10.12Z"/>
      <path class="cls-6" d="M194.04,139.23c-.15,0-.3-.08-.37-.23-.1-.21-.02-.46,.19-.56l1.2-.61v-20.81l-1.41-1.41c-.16-.16-.16-.43,0-.59,.16-.16,.43-.16,.59,0l1.54,1.54c.08,.08,.12,.19,.12,.3v21.24c0,.16-.09,.3-.23,.37l-1.43,.72c-.06,.03-.12,.04-.19,.04Z"/>
      <path class="cls-6" d="M234.41,139.23c-.06,0-.13-.01-.19-.04l-1.43-.72c-.14-.07-.23-.22-.23-.37v-21.24c0-.11,.04-.22,.12-.3l1.54-1.54c.16-.16,.43-.16,.59,0,.16,.16,.16,.43,0,.59l-1.41,1.41v20.81l1.2,.61c.21,.1,.29,.36,.19,.56-.07,.15-.22,.23-.37,.23Z"/>
      <g>
        <path class="cls-6" d="M225.3,151.5c-.1,0-.21-.04-.29-.11l-3.36-3.17h-9.79c-.23,0-.42-.19-.42-.42s.19-.42,.42-.42h9.95c.11,0,.21,.04,.29,.11l3.48,3.28c.17,.16,.18,.42,.02,.59-.08,.09-.19,.13-.3,.13Z"/>
        <path class="cls-6" d="M202.81,151.5c-.11,0-.21-.04-.3-.12-.16-.16-.16-.43,0-.59l3.28-3.28c.08-.08,.18-.12,.3-.12h4.08c.23,0,.42,.19,.42,.42s-.19,.42-.42,.42h-3.9l-3.16,3.16c-.08,.08-.19,.12-.3,.12Z"/>
      </g>
      <g>
        <path class="cls-6" d="M231.4,169.05c-.1,0-.21-.04-.29-.11l-3.36-3.17h-9.79c-.23,0-.42-.19-.42-.42s.19-.42,.42-.42h9.96c.11,0,.21,.04,.29,.11l3.48,3.28c.17,.16,.18,.42,.02,.59-.08,.09-.19,.13-.3,.13Z"/>
        <path class="cls-6" d="M208.91,169.05c-.11,0-.21-.04-.3-.12-.16-.16-.16-.43,0-.59l3.28-3.28c.08-.08,.18-.12,.3-.12h4.08c.23,0,.42,.19,.42,.42s-.19,.42-.42,.42h-3.9l-3.16,3.16c-.08,.08-.19,.12-.3,.12Z"/>
      </g>
      <circle class="cls-6" cx="207.44" cy="150.19" r=".93"/>
      <circle class="cls-6" cx="220.67" cy="150.19" r=".93"/>
      <g>
        <path class="cls-6" d="M227.98,47.55h-.06c-.13-.04-.2-.17-.17-.3l.78-2.72c.04-.13,.17-.2,.3-.17,0,0,0,0,0,0,.13,.04,.2,.17,.17,.3l-.78,2.72c-.03,.1-.13,.17-.23,.17Z"/>
        <path class="cls-6" d="M228.97,49.43h-.06c-.13-.04-.2-.17-.17-.3,0,0,0,0,0,0l1.55-5.43c.03-.13,.16-.2,.29-.17,0,0,0,0,0,0,.13,.04,.2,.17,.17,.3,0,0,0,0,0,0l-1.55,5.42c-.03,.1-.12,.17-.23,.17Z"/>
      </g>
    </g>
  </g>
</svg>