<?xml version="1.0" encoding="UTF-8"?>
<svg id="Layer_2" data-name="Layer 2" xmlns="http://www.w3.org/2000/svg" viewBox="0 0 533.57 345.77">
  <defs>
    <style>
      .cls-1 {
        fill: #f49e14;
      }

      .cls-2 {
        fill: #f7bd3d;
      }

      .cls-3 {
        fill: #f92356;
      }

      .cls-4 {
        fill: #f7b14b;
      }

      .cls-5 {
        fill: #f980a0;
      }

      .cls-6 {
        fill: #fc4278;
      }

      .cls-7 {
        fill: #f9a41c;
      }

      .cls-8 {
        fill: #ffdede;
      }

      .cls-9, .cls-10, .cls-11 {
        fill: #e89176;
      }

      .cls-12 {
        fill: #f91949;
      }

      .cls-13 {
        fill: #fc8815;
      }

      .cls-14 {
        fill: #ea3d90;
      }

      .cls-15 {
        fill: #fdc6a2;
      }

      .cls-16 {
        fill: #ffe3c7;
      }

      .cls-17, .cls-18, .cls-19, .cls-20, .cls-21, .cls-22 {
        fill: #fff;
      }

      .cls-23 {
        fill: #fff3e1;
      }

      .cls-24 {
        fill: #ffe8dc;
      }

      .cls-25 {
        fill: #ffe7d9;
      }

      .cls-26 {
        fill: #ffcc6f;
      }

      .cls-27 {
        fill: #ffb667;
      }

      .cls-28 {
        fill: #ff7dc7;
      }

      .cls-29 {
        fill: #91052d;
      }

      .cls-30 {
        fill: #bce5f7;
      }

      .cls-31 {
        fill: #a5f9b3;
      }

      .cls-32 {
        fill: #af143b;
      }

      .cls-33 {
        fill: #c0dbe2;
      }

      .cls-34 {
        fill: #d88205;
      }

      .cls-35 {
        fill: #c6dfe5;
      }

      .cls-36 {
        fill: #df8a3a;
      }

      .cls-37 {
        fill: #dcffed;
      }

      .cls-38 {
        fill: #c60c6e;
      }

      .cls-39 {
        fill: #abffd7;
      }

      .cls-40 {
        fill: #0cc468;
      }

      .cls-41, .cls-42 {
        fill: #366e77;
      }

      .cls-43 {
        fill: #181828;
      }

      .cls-44 {
        fill: #1b1b2b;
      }

      .cls-45 {
        fill: #93b4be;
      }

      .cls-46 {
        fill: #94ddff;
      }

      .cls-47 {
        fill: #25acd6;
      }

      .cls-48 {
        fill: #39ffa5;
      }

      .cls-49 {
        fill: #4bc8f9;
      }

      .cls-18 {
        opacity: .2;
      }

      .cls-18, .cls-10, .cls-19, .cls-20, .cls-11, .cls-21, .cls-22, .cls-50 {
        isolation: isolate;
      }

      .cls-10 {
        opacity: .49;
      }

      .cls-19 {
        opacity: .48;
      }

      .cls-20 {
        opacity: .55;
      }

      .cls-11 {
        opacity: .62;
      }

      .cls-21 {
        opacity: .61;
      }

      .cls-22 {
        opacity: .25;
      }

      .cls-50 {
        fill: #c08976;
        opacity: .39;
      }

      .cls-51 {
        opacity: .35;
      }

      .cls-42 {
        opacity: .47;
      }
    </style>
  </defs>
  <g id="Layer_1-2" data-name="Layer 1">
    <g>
      <g>
        <path class="cls-48" d="M468.98,241.38c-9.94-27.58-22.93-63.34-26.92-92.38-.88-6.39-1.6-12.95-.26-19.26,1.35-6.31,5.12-12.44,11.03-15.03,7.67-3.36,17.03,.17,22.59,6.44,5.56,6.27,8.02,14.66,9.59,22.89,5.36,28.15,2.11,57.15-1.21,85.61"/>
        <path class="cls-40" d="M464,225.66c6.27-1.45,12.54-2.9,18.81-4.36,1.66-.39,.96-2.94-.71-2.56-6.27,1.45-12.54,2.9-18.81,4.36-1.66,.39-.96,2.94,.71,2.56h0Z"/>
        <path class="cls-37" d="M467.68,176.16c-1.05,1.96-3.17,3.3-5.39,3.4s-4.46-1.04-5.68-2.89c-1.3-1.97-1.42-4.46-1.75-6.8-.31-2.26-.85-4.49-1.61-6.64-1.87-5.33-5.06-10.2-6.27-15.72-1-4.56-.56-9.43,1.24-13.73,1.21-2.9,3.21-5.69,6.16-6.76s6.87,.31,7.67,3.35c.24,.91,.19,1.88,.34,2.81,.39,2.37,2.06,4.28,3.46,6.23,7.47,10.4,8.25,25.2,1.91,36.32"/>
        <path class="cls-43" d="M475.8,123.7c3.81,5.27,5.85,11.49,7.22,17.78,1.52,6.97,2.41,14.09,2.91,21.2,.99,14.22,.3,28.5-.99,42.67-.73,8.09-1.67,16.15-2.61,24.22-.15,1.27,1.84,1.26,1.99,0,3.35-28.7,6.69-58.08,1.01-86.72-1.41-7.1-3.53-14.23-7.82-20.16-.74-1.03-2.47-.04-1.72,1h0Z"/>
        <path class="cls-43" d="M446.92,171.01c-1.31-5.38-2.48-10.79-3.43-16.25s-1.76-10.77-1.9-16.2c-.22-8.83,2.56-19.82,11.79-23.28,5.31-1.99,11.1-.62,15.8,2.24,1.1,.67,2.1-1.05,1-1.72-4.35-2.65-9.5-4.07-14.58-3.18-4.7,.82-8.65,3.78-11.35,7.64-6.36,9.09-4.88,20.86-3.32,31.18,1.02,6.76,2.44,13.46,4.05,20.11,.3,1.24,2.22,.72,1.92-.53h0Z"/>
        <path class="cls-43" d="M469.47,241.05c-5.47-15.16-10.92-30.32-15.71-45.71-1.42-4.56-2.78-9.15-4.06-13.75-.34-1.23-2.26-.71-1.92,.53,4.44,15.94,9.8,31.6,15.36,47.17,1.46,4.1,2.94,8.2,4.42,12.29,.43,1.2,2.35,.68,1.92-.53h0Z"/>
        <path class="cls-39" d="M457.02,184.33c-.42,1.18-.32,2.66,.37,3.73,.35,.54,.81,1.04,1.4,1.32,.68,.32,1.36,.42,2.11,.34,1.2-.14,2.31-.99,2.66-2.16,.22-.74,.14-1.5,.06-2.25-.09-.8-.35-1.55-.86-2.18-.78-.97-2.28-1.35-3.45-.98-.74,.23-1.32,.64-1.79,1.25-.42,.54-.62,1.22-.7,1.89-.16,1.39,.56,2.97,1.93,3.46,.85,.3,1.79,0,2.35-.67,.43-.53,.61-1.2,.63-1.88s-.05-1.39-.41-1.95c-.33-.52-.84-.89-1.47-.93-.57-.03-1.14,.22-1.54,.63-.64,.65-.98,1.66-.72,2.56s.98,1.7,1.92,1.9c.36,.08,.69,.08,1.03-.1,.28-.15,.55-.46,.63-.77,.17-.64-.15-1.51-.87-1.66-.1-.02-.19-.05-.29-.09l.31,.14c-.11-.05-.21-.12-.31-.19l.26,.21c-.09-.08-.17-.17-.25-.27l.2,.28c-.06-.09-.1-.17-.14-.27l.13,.33c-.04-.12-.07-.23-.08-.35l.03,.35c0-.12,0-.24,.02-.36l-.06,.34c.02-.1,.05-.2,.09-.29l-.14,.31c.05-.11,.11-.21,.19-.31l-.21,.26c.07-.08,.14-.15,.22-.21l-.28,.2c.06-.05,.12-.08,.2-.11l-.33,.13s.1-.03,.15-.03l-.35,.03s.09,0,.14,0l-.34-.06s.06,.02,.08,.03l-.31-.14s.07,.04,.11,.07l-.26-.21s.08,.08,.12,.13l-.2-.28c.06,.08,.1,.17,.13,.27l-.13-.33c.06,.17,.09,.34,.11,.51l-.03-.35c.02,.29,.02,.59-.03,.88l.06-.34c-.03,.16-.07,.31-.13,.46l.14-.31c-.04,.09-.09,.17-.15,.25l.21-.26s-.09,.09-.14,.13l.28-.2c-.07,.05-.14,.09-.22,.12l.33-.13c-.07,.02-.14,.04-.21,.05l.35-.03c-.07,0-.14,0-.21-.01l.34,.06c-.07-.02-.14-.04-.21-.07l.31,.14c-.1-.05-.2-.11-.29-.18l.26,.21c-.11-.09-.2-.19-.28-.3l.2,.28c-.1-.15-.18-.3-.25-.46l.13,.33c-.07-.21-.12-.42-.14-.64l.03,.35c-.02-.24,0-.48,.03-.71l-.06,.34c.04-.21,.11-.42,.2-.62l-.14,.31c.08-.16,.17-.31,.28-.45l-.21,.26c.11-.14,.24-.26,.38-.37l-.28,.2c.15-.11,.31-.19,.48-.26l-.33,.13c.17-.06,.35-.1,.54-.12l-.35,.03c.2-.02,.4-.01,.6,.02l-.34-.06c.18,.03,.35,.09,.52,.16l-.31-.14c.13,.06,.25,.14,.37,.23l-.26-.21c.12,.1,.22,.21,.31,.33l-.2-.28c.11,.16,.2,.33,.27,.51l-.13-.33c.13,.37,.19,.75,.23,1.14l-.03-.35c.04,.4,.07,.81,0,1.21l.06-.34c-.03,.14-.07,.28-.13,.42l.14-.31c-.06,.12-.13,.23-.21,.34l.21-.26c-.1,.12-.2,.22-.32,.31l.28-.2c-.15,.11-.31,.2-.49,.26l.33-.13c-.19,.07-.39,.12-.6,.14l.35-.03c-.21,.02-.41,.01-.62-.02l.34,.06c-.17-.03-.33-.08-.49-.15l.31,.14c-.17-.08-.32-.17-.46-.29l.26,.21c-.15-.13-.29-.28-.41-.44l.2,.28c-.14-.2-.25-.41-.34-.64l.13,.33c-.09-.25-.15-.51-.17-.77l.03,.35c-.02-.29-.01-.57,.03-.86l-.06,.34c.03-.18,.08-.36,.14-.53,.23-.66-.2-1.48-.87-1.66-.72-.19-1.42,.17-1.66,.87h0Z"/>
        <path class="cls-40" d="M474.92,220.92c.36-14.46-.33-28.94-2.07-43.3-.2-1.67-2.86-1.69-2.65,0,1.74,14.36,2.44,28.83,2.07,43.3-.04,1.71,2.61,1.71,2.65,0h0Z"/>
        <g>
          <path class="cls-43" d="M472.66,224.87c1.1-24.23-1.18-48.6-6.77-72.21-1.6-6.76-3.48-13.46-5.62-20.07-.39-1.21-2.31-.69-1.92,.53,7.45,23.07,11.67,47.15,12.46,71.38,.22,6.79,.17,13.58-.14,20.37-.06,1.28,1.93,1.28,1.99,0h0Z"/>
          <path class="cls-43" d="M467.82,162.85c-4.14-4.5-8.57-8.72-13.25-12.65-.98-.82-2.39,.58-1.41,1.41,4.68,3.93,9.11,8.15,13.25,12.65,.87,.94,2.27-.47,1.41-1.41h0Z"/>
          <path class="cls-43" d="M470.46,177.92c2.03-4.34,4.06-8.68,6.09-13.02,.54-1.15-1.18-2.16-1.72-1-2.03,4.34-4.06,8.68-6.09,13.02-.54,1.15,1.18,2.16,1.72,1h0Z"/>
          <path class="cls-43" d="M477.79,161.7c1.28,0,1.28-1.99,0-1.99s-1.28,1.99,0,1.99h0Z"/>
          <path class="cls-43" d="M472.45,201.95c-4.09-3.67-8.59-6.86-13.42-9.5-1.12-.61-2.13,1.1-1,1.72,4.68,2.55,9.05,5.63,13.02,9.19,.95,.85,2.36-.55,1.41-1.41h0Z"/>
          <path class="cls-43" d="M473.04,213.58c2.38-3.13,5.68-5.6,9.35-7,.5-.19,.85-.67,.69-1.22-.13-.48-.72-.89-1.22-.69-4.2,1.61-7.82,4.33-10.54,7.92-.32,.43-.07,1.11,.36,1.36,.51,.3,1.04,.07,1.36-.36h0Z"/>
        </g>
      </g>
      <g>
        <path class="cls-48" d="M489.83,236.73c-3.92-32.91-9.1-75.63-6.09-108.64,.66-7.27,1.54-14.67,4.63-21.28,3.09-6.61,8.81-12.4,15.98-13.75,9.31-1.75,18.72,4.54,23.24,12.86s5.09,18.2,4.72,27.66c-1.27,32.38-12.25,63.49-23.17,94"/>
        <path class="cls-40" d="M488.29,218.14h21.84c1.93,0,1.93-3,0-3h-21.84c-1.93,0-1.93,3,0,3h0Z"/>
        <path class="cls-37" d="M505.04,164.55c-1.65,1.89-4.34,2.83-6.81,2.37s-4.65-2.28-5.52-4.63c-.93-2.51-.43-5.28-.19-7.94,.23-2.57,.21-5.16-.08-7.73-.7-6.35-2.98-12.53-2.9-18.92,.06-5.28,1.79-10.53,4.87-14.81,2.07-2.88,4.99-5.45,8.51-5.87s7.49,2.09,7.59,5.64c.03,1.07-.27,2.11-.34,3.18-.17,2.71,1.17,5.24,2.22,7.75,5.58,13.36,2.66,29.86-7.16,40.5"/>
        <path class="cls-43" d="M527.35,108.8c2.98,7.07,3.57,14.78,3.41,22.37-.17,8-1.01,16-2.3,23.9-2.57,15.77-6.96,31.17-11.96,46.32-2.84,8.62-5.89,17.16-8.95,25.7-.49,1.37,1.68,1.95,2.17,.6,5.5-15.37,10.98-30.77,15.27-46.53s7.28-31.44,7.94-47.54c.35-8.57-.04-17.43-3.41-25.43-.55-1.31-2.73-.74-2.17,.6h0Z"/>
        <path class="cls-43" d="M483.48,153.64c-.07-6.33,.02-12.67,.38-18.99s.79-12.09,1.99-17.99c2.01-9.93,7.93-21.48,19.19-22.84,6.24-.75,12.22,2.23,16.59,6.51,1.04,1.01,2.63-.58,1.59-1.59-4.13-4.05-9.53-7-15.4-7.26-5.4-.24-10.5,2.03-14.44,5.63-9.24,8.44-10.6,21.72-11.51,33.47-.59,7.67-.74,15.37-.66,23.07,.02,1.45,2.27,1.45,2.25,0h0Z"/>
        <path class="cls-43" d="M490.45,236.54c-2.15-18.09-4.3-36.19-5.65-54.37-.4-5.39-.73-10.79-.97-16.18-.06-1.44-2.31-1.45-2.25,0,.82,18.69,2.73,37.31,4.88,55.88,.57,4.89,1.15,9.78,1.73,14.67,.17,1.42,2.42,1.44,2.25,0h0Z"/>
        <path class="cls-39" d="M491.21,170.83c-.76,1.2-1.03,2.85-.54,4.2,.25,.69,.62,1.35,1.2,1.81,.67,.53,1.39,.81,2.24,.91,1.36,.15,2.8-.5,3.49-1.7,.43-.76,.54-1.62,.64-2.47,.1-.9,0-1.79-.39-2.62-.61-1.27-2.17-2.07-3.56-1.96-.87,.07-1.62,.37-2.29,.92-.6,.49-1,1.18-1.25,1.9-.53,1.49-.14,3.42,1.25,4.3,.86,.54,1.97,.47,2.76-.14,.61-.47,.98-1.17,1.18-1.91s.3-1.54,.05-2.25c-.23-.66-.69-1.19-1.38-1.4-.62-.18-1.32-.04-1.86,.3-.87,.56-1.5,1.58-1.44,2.63s.65,2.13,1.63,2.59c.37,.17,.75,.26,1.16,.15,.35-.1,.73-.36,.9-.69,.35-.66,.22-1.7-.54-2.05-.11-.05-.2-.11-.29-.17l.3,.23c-.11-.09-.2-.18-.29-.29l.23,.3c-.08-.11-.15-.23-.2-.36l.15,.36c-.04-.11-.07-.22-.09-.33l.05,.4c-.02-.14-.02-.27,0-.41l-.05,.4c.02-.14,.06-.27,.12-.39l-.15,.36c.05-.1,.11-.2,.17-.3l-.23,.3c.09-.11,.18-.21,.29-.29l-.3,.23c.09-.07,.19-.13,.29-.18l-.36,.15c.08-.03,.16-.06,.25-.08l-.4,.05c.06,0,.11,0,.17,0l-.4-.05c.05,.01,.1,.02,.15,.04l-.36-.15s.06,.03,.08,.05l-.3-.23s.07,.06,.1,.1l-.23-.3c.04,.06,.07,.11,.1,.18l-.15-.36c.04,.11,.06,.21,.08,.33l-.05-.4c.02,.2,.01,.39-.01,.59l.05-.4c-.05,.33-.13,.65-.25,.96l.15-.36c-.07,.17-.16,.33-.26,.47l.23-.3c-.07,.09-.15,.17-.23,.24l.3-.23c-.06,.04-.12,.08-.19,.11l.36-.15c-.09,.04-.17,.06-.27,.08l.4-.05c-.08,0-.16,0-.25,0l.4,.05c-.08-.02-.16-.04-.23-.07l.36,.15c-.07-.04-.14-.08-.21-.12l.3,.23c-.1-.08-.19-.17-.27-.27l.23,.3c-.09-.13-.17-.26-.23-.4l.15,.36c-.08-.19-.13-.38-.15-.57l.05,.4c-.03-.25-.03-.49,0-.74l-.05,.4c.04-.27,.11-.53,.22-.78l-.15,.36c.1-.23,.22-.43,.37-.63l-.23,.3c.13-.16,.26-.3,.42-.42l-.3,.23c.16-.12,.33-.22,.51-.31l-.36,.15c.19-.08,.39-.13,.6-.16l-.4,.05c.21-.02,.41-.02,.62,0l-.4-.05c.23,.03,.45,.09,.66,.18l-.36-.15c.19,.08,.37,.19,.53,.31l-.3-.23c.13,.1,.24,.22,.35,.35l-.23-.3c.1,.14,.19,.28,.26,.44l-.15-.36c.08,.2,.13,.41,.17,.63l-.05-.4c.05,.44,.02,.88-.03,1.32l.05-.4c-.06,.45-.13,.91-.31,1.33l.15-.36c-.07,.15-.15,.29-.25,.43l.23-.3c-.09,.12-.2,.22-.32,.32l.3-.23c-.14,.1-.28,.19-.43,.26l.36-.15c-.19,.08-.39,.14-.6,.17l.4-.05c-.23,.03-.46,.03-.7,0l.4,.05c-.23-.03-.46-.09-.68-.18l.36,.15c-.18-.08-.35-.17-.5-.29l.3,.23c-.16-.13-.3-.27-.43-.43l.23,.3c-.14-.18-.25-.38-.34-.59l.15,.36c-.1-.25-.17-.51-.21-.79l.05,.4c-.03-.3-.03-.6,0-.9l-.05,.4c.05-.32,.13-.64,.25-.94l-.15,.36c.08-.19,.18-.37,.29-.55,.42-.66,.16-1.68-.54-2.05-.74-.39-1.6-.17-2.05,.54h0Z"/>
        <path class="cls-40" d="M501.58,215.77c4.13-15.97,7.06-32.22,8.81-48.62,.21-1.92-2.8-1.9-3,0-1.73,16.13-4.65,32.12-8.71,47.83-.48,1.87,2.41,2.67,2.89,.8h0Z"/>
        <g>
          <path class="cls-43" d="M498.08,219.53c7.42-26.5,11.13-54.03,10.97-81.55-.05-7.77-.41-15.53-1.07-23.27-.12-1.43-2.37-1.45-2.25,0,2.32,27.23,.85,54.75-4.42,81.56-1.5,7.62-3.3,15.18-5.4,22.66-.39,1.4,1.78,1.99,2.17,.6h0Z"/>
          <path class="cls-43" d="M508.6,149.96c-3.42-6.01-7.22-11.79-11.37-17.31-.86-1.14-2.81-.02-1.94,1.14,4.16,5.52,7.96,11.3,11.37,17.31,.72,1.26,2.66,.13,1.94-1.14h0Z"/>
          <path class="cls-43" d="M507.62,167.22c3.35-4.26,6.69-8.53,10.04-12.79,.37-.48,.47-1.13,0-1.59-.39-.39-1.21-.48-1.59,0-3.35,4.26-6.69,8.53-10.04,12.79-.37,.48-.47,1.13,0,1.59,.39,.39,1.21,.48,1.59,0h0Z"/>
          <path class="cls-43" d="M520.11,151.23c1.45,0,1.45-2.25,0-2.25s-1.45,2.25,0,2.25h0Z"/>
          <path class="cls-43" d="M503.72,194.21c-3.57-5.09-7.71-9.76-12.35-13.89-1.08-.96-2.68,.63-1.59,1.59,4.5,4,8.54,8.5,12,13.43,.83,1.18,2.78,.05,1.94-1.14h0Z"/>
          <path class="cls-43" d="M501.36,207.17c3.52-2.93,7.83-4.76,12.36-5.39,.6-.08,.93-.85,.79-1.38-.18-.65-.78-.87-1.38-.79-4.92,.68-9.54,2.8-13.35,5.97-.47,.39-.4,1.19,0,1.59,.46,.46,1.12,.39,1.59,0h0Z"/>
        </g>
      </g>
      <polyline class="cls-26" points="442.57 219.52 516.88 219.52 500.33 312.66 460.71 312.66"/>
      <path class="cls-7" d="M511.65,247.88l-10.64,59.94h-29.82c18.81-15.56,33.01-36.68,40.46-59.94Z"/>
      <path class="cls-43" d="M500.33,313.93c-.07,0-.15,0-.22-.02-.69-.12-1.15-.78-1.02-1.47l10.02-56.39c.12-.69,.79-1.15,1.47-1.02,.69,.12,1.15,.78,1.02,1.47l-10.02,56.39c-.11,.61-.64,1.04-1.24,1.04Z"/>
      <path class="cls-43" d="M511.86,249.05c-.07,0-.15,0-.22-.02-.69-.12-1.15-.78-1.02-1.47l4.76-26.78h-67.16c-.7,0-1.26-.57-1.26-1.26s.57-1.26,1.26-1.26h68.67c.37,0,.73,.17,.97,.45s.34,.67,.28,1.03l-5.02,28.26c-.11,.61-.64,1.04-1.24,1.04Z"/>
      <g class="cls-51">
        <g>
          <g>
            <polygon class="cls-30" points="171.78 228.71 119.28 228.71 127.27 169.98 163.78 169.98 171.78 228.71"/>
            <rect class="cls-17" x="129.48" y="171.91" width="27.93" height="6.97" rx="3.48" ry="3.48"/>
            <path class="cls-43" d="M166.9,194.02c-.54,0-1-.4-1.08-.94l-1.98-14.46c-.08-.6,.34-1.15,.93-1.23,.61-.09,1.15,.34,1.23,.93l1.98,14.46c.08,.6-.34,1.15-.93,1.23-.05,0-.1,0-.15,0Z"/>
            <path class="cls-43" d="M171.78,229.55h-56.66c-.32,0-.62-.14-.82-.37-.21-.24-.3-.55-.26-.87l8.62-62.92c.07-.54,.54-.94,1.08-.94h39.4c.54,0,1.01,.4,1.08,.94l1.19,8.68c.08,.6-.34,1.15-.93,1.23-.61,.08-1.15-.34-1.23-.93l-1.06-7.74h-37.5l-8.33,60.73h54.15l-4.05-29.52c-.08-.6,.34-1.15,.93-1.23,.61-.08,1.15,.34,1.23,.93l4.22,30.76c.04,.31-.05,.63-.26,.87-.21,.24-.51,.37-.82,.37Z"/>
            <path class="cls-43" d="M153.93,179.74h-20.96c-2.4,0-4.35-1.95-4.35-4.35s1.95-4.35,4.35-4.35h20.96c2.4,0,4.35,1.95,4.35,4.35s-1.95,4.35-4.35,4.35Zm-20.96-6.97c-1.45,0-2.62,1.18-2.62,2.62s1.18,2.62,2.62,2.62h20.96c1.45,0,2.62-1.18,2.62-2.62s-1.18-2.62-2.62-2.62h-20.96Z"/>
          </g>
          <g>
            <path class="cls-43" d="M126.76,215.46l3.08-2.46c.23-.19,.21-.61,0-.8-.25-.23-.56-.2-.8,0l-3.08,2.46c-.23,.19-.21,.61,0,.8,.25,.23,.56,.2,.8,0h0Z"/>
            <path class="cls-43" d="M126.78,218.8c1.04-.88,2.07-1.77,3.11-2.65,.23-.19,.21-.61,0-.8-.24-.22-.56-.21-.8,0-1.04,.88-2.07,1.77-3.11,2.65-.23,.19-.21,.61,0,.8,.24,.22,.56,.21,.8,0h0Z"/>
          </g>
        </g>
        <g>
          <rect class="cls-26" x="47.67" y="91.98" width="65.66" height="55.64"/>
          <rect class="cls-23" x="47.35" y="91.47" width="66.49" height="3.65"/>
          <rect class="cls-23" x="47.35" y="92.42" width="3.97" height="51.64"/>
          <polyline class="cls-12" points="85.65 91.86 85.65 110.98 77.05 102.37 77.91 102.37 69.3 110.98 69.3 91.86"/>
          <g>
            <polygon class="cls-43" points="68.72 112.23 68.72 91.47 70.08 91.47 70.08 108.96 77.53 101.51 78.48 102.47 68.72 112.23"/>
            <polygon class="cls-43" points="86.42 112.23 76.66 102.47 77.62 101.51 85.07 108.96 85.07 91.47 86.42 91.47 86.42 112.23"/>
          </g>
          <path class="cls-1" d="M112.86,115.9v31.66H54.48c7.58-.87,9.36-1.06,16.64-3.41,10.35-3.35,15.57-5.56,24.76-11.38,5.79-3.66,12.44-11.75,16.97-16.88Z"/>
          <path class="cls-43" d="M113.34,148.32H47.67c-.7,0-1.26-.57-1.26-1.26v-55.64c0-.7,.57-1.26,1.26-1.26H113.34c.7,0,1.26,.57,1.26,1.26v8.19c0,.7-.57,1.26-1.26,1.26s-1.26-.57-1.26-1.26v-6.93H48.94v53.11h63.13v-41.31c0-.7,.57-1.26,1.26-1.26s1.26,.57,1.26,1.26v42.58c0,.7-.57,1.26-1.26,1.26Z"/>
          <g>
            <g>
              <rect class="cls-17" x="86.38" y="133.95" width="8.8" height="8.22"/>
              <rect class="cls-17" x="99.2" y="133.95" width="8.8" height="8.22"/>
            </g>
            <g>
              <path class="cls-43" d="M95.18,142.85h-8.8c-.37,0-.68-.3-.68-.68v-8.22c0-.37,.3-.68,.68-.68h8.8c.37,0,.68,.3,.68,.68v8.22c0,.37-.3,.68-.68,.68Zm-8.12-1.35h7.44v-6.87h-7.44v6.87Z"/>
              <path class="cls-43" d="M107.99,142.85h-8.79c-.37,0-.68-.3-.68-.68v-8.22c0-.37,.3-.68,.68-.68h8.79c.37,0,.68,.3,.68,.68v8.22c0,.37-.3,.68-.68,.68Zm-8.12-1.35h7.44v-6.87h-7.44v6.87Z"/>
            </g>
          </g>
          <g>
            <path class="cls-43" d="M63.67,129.24h-10.33c-.37,0-.68-.3-.68-.68s.3-.68,.68-.68h10.33c.37,0,.68,.3,.68,.68s-.3,.68-.68,.68Z"/>
            <path class="cls-43" d="M59.21,132.69h-5.86c-.37,0-.68-.3-.68-.68s.3-.68,.68-.68h5.86c.37,0,.68,.3,.68,.68s-.3,.68-.68,.68Z"/>
            <path class="cls-43" d="M59.21,136.13h-5.86c-.37,0-.68-.3-.68-.68s.3-.68,.68-.68h5.86c.37,0,.68,.3,.68,.68s-.3,.68-.68,.68Z"/>
          </g>
        </g>
        <g>
          <rect class="cls-5" x="120.76" y="110.69" width="65.66" height="37.9"/>
          <path class="cls-43" d="M186.43,149.29H120.76c-.7,0-1.26-.57-1.26-1.26v-37.9c0-.7,.57-1.26,1.26-1.26h65.66c.7,0,1.26,.57,1.26,1.26v8.19c0,.7-.57,1.26-1.26,1.26s-1.26-.57-1.26-1.26v-6.92h-63.13v35.38h63.13v-23.57c0-.7,.57-1.26,1.26-1.26s1.26,.57,1.26,1.26v24.84c0,.7-.57,1.26-1.26,1.26Z"/>
          <g>
            <g>
              <rect class="cls-17" x="159.48" y="134.93" width="8.8" height="8.22"/>
              <rect class="cls-17" x="172.29" y="134.93" width="8.8" height="8.22"/>
            </g>
            <g>
              <path class="cls-43" d="M168.27,143.83h-8.79c-.37,0-.68-.3-.68-.68v-8.22c0-.37,.3-.68,.68-.68h8.79c.37,0,.68,.3,.68,.68v8.22c0,.37-.3,.68-.68,.68Zm-8.12-1.35h7.44v-6.87h-7.44v6.87Z"/>
              <path class="cls-43" d="M181.08,143.83h-8.8c-.37,0-.68-.3-.68-.68v-8.22c0-.37,.3-.68,.68-.68h8.8c.37,0,.68,.3,.68,.68v8.22c0,.37-.3,.68-.68,.68Zm-8.12-1.35h7.44v-6.87h-7.44v6.87Z"/>
            </g>
          </g>
          <g>
            <path class="cls-43" d="M137.61,116.81h-10.33c-.37,0-.68-.3-.68-.68s.3-.68,.68-.68h10.33c.37,0,.68,.3,.68,.68s-.3,.68-.68,.68Z"/>
            <path class="cls-43" d="M133.15,120.25h-5.86c-.37,0-.68-.3-.68-.68s.3-.68,.68-.68h5.86c.37,0,.68,.3,.68,.68s-.3,.68-.68,.68Z"/>
            <path class="cls-43" d="M133.15,123.69h-5.86c-.37,0-.68-.3-.68-.68s.3-.68,.68-.68h5.86c.37,0,.68,.3,.68,.68s-.3,.68-.68,.68Z"/>
          </g>
        </g>
        <rect class="cls-26" x="106.91" y="71.44" width="10.57" height="159.73" rx="5.28" ry="5.28" transform="translate(263.51 39.11) rotate(90)"/>
        <rect class="cls-1" x="109.55" y="68.8" width="5.28" height="159.73" transform="translate(260.87 36.47) rotate(90)"/>
        <path class="cls-43" d="M186.78,157.86H87.69c-.7,0-1.26-.57-1.26-1.26s.57-1.26,1.26-1.26h99.09c2.22,0,4.02-1.8,4.02-4.02s-1.8-4.02-4.02-4.02H37.61c-2.22,0-4.02,1.8-4.02,4.02s1.8,4.02,4.02,4.02h39.53c.7,0,1.26,.57,1.26,1.26s-.57,1.26-1.26,1.26H37.61c-3.61,0-6.55-2.94-6.55-6.55s2.94-6.55,6.55-6.55H186.78c3.61,0,6.55,2.94,6.55,6.55s-2.94,6.55-6.55,6.55Z"/>
        <rect class="cls-26" x="106.91" y="149.6" width="10.57" height="159.73" rx="5.28" ry="5.28" transform="translate(341.67 117.27) rotate(90)"/>
        <path class="cls-43" d="M186.78,236.02H37.61c-3.61,0-6.55-2.94-6.55-6.55s2.94-6.55,6.55-6.55h20.89c.7,0,1.26,.57,1.26,1.26s-.57,1.26-1.26,1.26h-20.89c-2.22,0-4.02,1.8-4.02,4.02s1.8,4.02,4.02,4.02H186.78c2.22,0,4.02-1.8,4.02-4.02s-1.8-4.02-4.02-4.02H68.88c-.7,0-1.26-.57-1.26-1.26s.57-1.26,1.26-1.26h117.9c3.61,0,6.55,2.94,6.55,6.55s-2.94,6.55-6.55,6.55Z"/>
        <path class="cls-26" d="M32.45,65h0c3.85,0,6.97,3.12,6.97,6.97V339.21h-13.95V71.97c0-3.85,3.12-6.97,6.97-6.97Z"/>
        <path class="cls-26" d="M189.27,65h0c3.85,0,6.97,3.12,6.97,6.97V339.21h-13.95V71.97c0-3.85,3.12-6.97,6.97-6.97Z"/>
        <path class="cls-43" d="M196.24,333.23h-13.95c-.7,0-1.26-.57-1.26-1.26V92.42c0-.7,.57-1.26,1.26-1.26s1.26,.57,1.26,1.26v238.28h11.42V161.64c0-.7,.57-1.26,1.26-1.26s1.26,.57,1.26,1.26v170.33c0,.7-.57,1.26-1.26,1.26Z"/>
        <path class="cls-43" d="M196.24,152.57c-.7,0-1.26-.57-1.26-1.26V64.73c0-3.15-2.56-5.71-5.71-5.71s-5.71,2.56-5.71,5.71v17.89c0,.7-.57,1.26-1.26,1.26s-1.26-.57-1.26-1.26v-17.89c0-4.54,3.7-8.24,8.24-8.24s8.24,3.7,8.24,8.24v86.58c0,.7-.57,1.26-1.26,1.26Z"/>
        <rect class="cls-23" x="27.11" y="77.85" width="6.68" height="69.67" rx="3.34" ry="3.34"/>
        <rect class="cls-23" x="25.87" y="167.08" width="6.68" height="28.73" rx="3.34" ry="3.34"/>
        <path class="cls-43" d="M39.42,333.23h-13.95c-.7,0-1.26-.57-1.26-1.26V163.37c0-.7,.57-1.26,1.26-1.26s1.26,.57,1.26,1.26v167.33h11.42V64.73c0-3.15-2.56-5.71-5.71-5.71s-5.71,2.56-5.71,5.71v89.33c0,.7-.57,1.26-1.26,1.26s-1.26-.57-1.26-1.26V64.73c0-4.54,3.7-8.24,8.24-8.24s8.24,3.7,8.24,8.24V331.97c0,.7-.57,1.26-1.26,1.26Z"/>
      </g>
      <path class="cls-46" d="M468.43,308.54l-27.76-.61v-95.24l-5.39-5.5v-43.93s10.63,11.26,10.63,11.26c4.86,5.14,8.76,11.12,11.52,17.63l3.4,8.02,3.69,15.52,3.93,92.86Z"/>
      <path class="cls-46" d="M354.97,163.37l-.46,32.57c-.05,3.57,.29,7.38-.61,10.81-.64,2.44-2.13,4.66-3.81,6.57-1.89,2.15-4.53,3.72-5.78,6.29-.84,1.71-.96,3.67-1.07,5.57-.24,4.15,.81,8.53,.57,12.68-.09,1.61-.32,4.22-.57,5.79-.16,1.05-.69,1.22,.15,1.89,4.28,3.41,8.53,6.18,13.88,6.87,3.41,.44,8.94,.48,12.36,.92-.33,2.93,.79,5.57,3.26,7.19-2.58,2.5-3.61,8.33-.39,9.92-.61,2.67-2.88,4.72-5.41,5.79s-5.31,1.31-8.05,1.53c-8.16,.66-16.36,1.25-24.54,.77-5.24-.31-10.55-1.09-15.3-3.33s-8.93-6.09-10.62-11.06c-2.78-8.18,1.51-16.85,4.64-24.9,3.4-8.73,5.49-17.9,7.65-27.02,1.29-5.48,2.63-11.01,5.14-16.05,3.17-6.36,8.06-11.67,12.92-16.84,1.73-1.84,2.24-4.53,3.98-6.36,3.31-3.47,7.86-6.07,11.21-9.5"/>
      <path class="cls-17" d="M321.44,229.3c3.94-11.44,6.64-23.41,12.66-34.01,1.91-3.36-3.27-6.39-5.18-3.03-6.27,11.06-9.16,23.51-13.26,35.44-.53,1.53,.6,3.28,2.1,3.69,1.65,.45,3.16-.56,3.69-2.1h0Z"/>
      <path class="cls-46" d="M419.47,155.07l-.25,26.13c-.14,13.91-11.46,25.11-25.37,25.11h0c-14.11,0-25.51-11.51-25.37-25.62l.25-24.62,13.08-5.2,25.89,.41,11.77,3.79Z"/>
      <g>
        <path class="cls-46" d="M381.9,153.39c1.13,6.33,6.29,11.7,12.26,11.86s11.26-4.99,11.9-11.42c.19-1.92-2.54-1.9-2.72,0-.49,4.97-5.07,8.67-9.47,8.41-4.7-.28-8.46-4.76-9.33-9.64-.34-1.89-2.96-1.09-2.63,.8h0Z"/>
        <path class="cls-46" d="M384.59,157.44c2.84,3.81,7.47,5.65,11.86,4.84s7.91-4.3,9.52-8.72c.28-.76-.3-1.64-.95-1.85-.77-.24-1.4,.3-1.68,1.05-1.26,3.45-4.29,6.06-7.62,6.62s-7.01-1.11-9.21-4.07c-1.11-1.49-3.03,.64-1.93,2.12h0Z"/>
      </g>
      <path class="cls-43" d="M464.54,244.9c.14,7.08,.28,14.17,.42,21.25,.22,11.29,.45,22.58,.67,33.86,.05,2.59,.1,5.18,.15,7.76,.03,1.59,2.5,1.59,2.47,0-.14-7.08-.28-14.17-.42-21.25-.22-11.29-.45-22.58-.67-33.86-.05-2.59-.1-5.18-.15-7.76-.03-1.59-2.5-1.59-2.47,0h0Z"/>
      <path class="cls-43" d="M387.42,282.04c1.59,0,1.59-2.47,0-2.47s-1.59,2.47,0,2.47h0Z"/>
      <path class="cls-27" d="M442.45,35.47c5.56,12.02,2.65,27.02-1.76,39.51h-2.57l-.56-15.04-.94-7.81-3.01-13.84,8.85-2.82Z"/>
      <path class="cls-13" d="M435.99,40.99c2.06-.58,4.07-1.33,6.02-2.2,.32-.14,.6-.57,.69-.9,.1-.36,.05-.84-.15-1.16-.48-.74-1.28-.88-2.05-.54-.23,.1-.46,.2-.69,.3-.28,.12,.28-.11-.09,.04-.12,.05-.23,.1-.35,.14-.45,.18-.9,.35-1.36,.52-.93,.33-1.87,.63-2.82,.9-.76,.21-1.3,1.07-1.05,1.85s1.04,1.28,1.85,1.05h0Z"/>
      <g>
        <path class="cls-2" d="M154.37,185.51h3.88c12.43,0,22.51,10.07,22.52,22.5h0c0,12.44-10.07,22.52-22.5,22.52h-3.9c-12.43,0-22.51-10.07-22.52-22.5h0c0-12.45,10.08-22.52,22.51-22.52h0Z"/>
        <path class="cls-36" d="M181.14,207.75c0,12.43-10.08,22.51-22.51,22.51h-3.87c-12.43,0-22.51-10.08-22.51-22.51,0-.48,0-.96,.04-1.44,.76,11.87,10.62,21.1,22.51,21.08h3.89c11.88,0,21.71-9.22,22.47-21.08-.03,.48-.02,.96-.02,1.44Z"/>
        <path class="cls-43" d="M178.09,220.11c-4.7-1.11-4.36-.56-8.63-5.41,0,0-1.27,6.1,3.54,9.65l5.09-4.23Z"/>
        <path class="cls-43" d="M174.05,223.38s-3.69-.52-7.18-4.23c0,0-.79,5.03,2.8,7.67l4.39-3.45Z"/>
        <path class="cls-43" d="M186.68,213.58c-.2,0-.38-.11-.49-.27-1.12-1.7-2.19-1.86-3.97-2.11-.8-.1-1.59-.25-2.37-.44-1.12-.28-2.26-.47-3.41-.56-.31-.05-.54-.32-.53-.63,.02-.32,.3-.56,.62-.53,0,0,.01,0,.02,0h0c1.21,.1,2.42,.3,3.6,.59,.74,.18,1.49,.32,2.25,.42,1.81,.26,3.37,.48,4.77,2.61,.18,.27,.11,.64-.16,.82,0,0,0,0,0,0-.1,.06-.21,.1-.32,.1h0Z"/>
        <path class="cls-43" d="M192.86,219.42c-.2,0-.39-.1-.5-.27-1.11-1.69-5.68-3.66-12.53-5.46-1.12-.27-2.26-.46-3.41-.56-.32-.07-.53-.38-.46-.71,.06-.27,.29-.47,.57-.47,1.21,.1,2.42,.3,3.6,.6,5.12,1.33,11.6,3.41,13.22,5.93,.18,.27,.12,.63-.15,.81,0,0,0,0,0,0h0c-.1,.08-.21,.12-.34,.12Z"/>
        <path class="cls-43" d="M185.5,220.69h-.1c-1.94-.27-3.74-1.2-5.08-2.63-.72-.73-1.54-1.35-2.44-1.83-1.04-.51-2.11-.93-3.22-1.27-.31-.1-.48-.42-.38-.73,0,0,0,0,0,0h0c.1-.3,.43-.47,.74-.38,1.17,.37,2.31,.82,3.41,1.36,1,.54,1.91,1.22,2.72,2.01,1.18,1.09,2.2,2.05,4.44,2.34,.32,.07,.53,.38,.47,.7-.05,.27-.28,.46-.55,.48v-.04Z"/>
        <path class="cls-43" d="M126.14,213.58c.2,0,.38-.11,.5-.27,1.12-1.7,2.19-1.86,3.97-2.11,.8-.1,1.59-.25,2.37-.44,1.12-.28,2.26-.47,3.41-.56,.31-.05,.54-.32,.53-.63-.02-.32-.3-.56-.62-.53,0,0-.01,0-.02,0h0c-1.21,.1-2.42,.3-3.6,.59-.74,.18-1.49,.32-2.25,.42-1.81,.26-3.37,.48-4.77,2.61-.18,.27-.11,.64,.16,.82,0,0,0,0,0,0,.1,.06,.21,.1,.32,.1h0Z"/>
        <path class="cls-43" d="M119.95,219.42c.2,0,.39-.1,.5-.27,1.11-1.69,5.68-3.66,12.53-5.46,1.12-.27,2.26-.46,3.41-.56,.32-.07,.53-.38,.46-.71-.06-.27-.29-.47-.57-.47-1.21,.1-2.42,.3-3.6,.6-5.12,1.33-11.6,3.41-13.22,5.93-.18,.27-.12,.63,.15,.81,0,0,0,0,0,0h0c.1,.08,.21,.12,.34,.12Z"/>
        <path class="cls-43" d="M127.32,220.69h.1c1.94-.27,3.74-1.2,5.08-2.63,.72-.73,1.55-1.34,2.45-1.83,1.03-.51,2.11-.93,3.21-1.27,.31-.1,.48-.42,.38-.73,0,0,0,0,0,0h0c-.1-.3-.43-.47-.74-.38-1.17,.37-2.31,.82-3.41,1.36-1,.54-1.91,1.22-2.72,2.01-1.18,1.09-2.2,2.05-4.44,2.34-.32,.07-.53,.38-.47,.7,.05,.27,.28,.46,.55,.48v-.04Z"/>
        <rect class="cls-17" x="139.34" y="195.41" width="15.1" height="18.39" rx="7.55" ry="7.55"/>
        <circle class="cls-43" cx="146.72" cy="205.19" r="5.58"/>
        <circle class="cls-18" cx="148.3" cy="207.57" r="1.41"/>
        <ellipse class="cls-17" cx="145.57" cy="203.04" rx="2.82" ry="2.15"/>
        <rect class="cls-17" x="159.08" y="195.41" width="15.1" height="18.39" rx="7.55" ry="7.55"/>
        <path class="cls-43" d="M161.21,207.08c-.21-.59-.33-1.23-.33-1.89,0-3.08,2.5-5.58,5.58-5.58s5.58,2.5,5.58,5.58-2.5,5.58-5.58,5.58c-2.42,0-4.47-1.54-5.25-3.69"/>
        <circle class="cls-18" cx="168.04" cy="207.57" r="1.41"/>
        <ellipse class="cls-17" cx="165.3" cy="203.04" rx="2.82" ry="2.15"/>
        <path class="cls-17" d="M146.34,191.52c1.15-.55,2.35-.96,3.59-1.24,1.24-.27,2.5-.42,3.76-.44,.22,0,.4,.17,.41,.39,0,.21-.16,.39-.37,.4-1.2,.1-2.4,.31-3.56,.63-1.16,.31-2.29,.71-3.38,1.22-.26,.12-.57,0-.69-.27-.13-.26-.02-.57,.23-.7,0,0,0,0,.01,0Z"/>
        <ellipse class="cls-17" cx="156.39" cy="190.19" rx=".69" ry=".86" transform="translate(-36.8 342.87) rotate(-88.89)"/>
        <ellipse class="cls-36" cx="160.43" cy="225.14" rx="1.64" ry=".62"/>
        <circle class="cls-36" cx="157.32" cy="225.27" r=".63"/>
        <ellipse class="cls-17" cx="172.65" cy="186.97" rx="1.16" ry=".56" transform="translate(-70.35 111.38) rotate(-30)"/>
        <circle class="cls-17" cx="173.98" cy="188" r=".26"/>
        <path class="cls-43" d="M155.76,215.09c.46,.49,1.24,.49,1.7,0l1.02-1.08h0c.71-.75,.18-1.98-.85-1.98h-2.04c-1.03,0-1.56,1.23-.85,1.98h0s1.02,1.08,1.02,1.08Z"/>
        <rect class="cls-43" x="156.37" y="215.04" width=".56" height="2.8"/>
        <g>
          <path class="cls-43" d="M156.3,218.05c.65,.73,1.85,.86,2.76,.69s1.71-.76,2.07-1.59c.11-.24,.07-.53-.18-.68-.21-.12-.57-.07-.68,.18-.27,.6-.78,.98-1.41,1.12-.59,.13-1.44,.06-1.86-.42-.18-.2-.52-.18-.7,0-.2,.2-.18,.5,0,.7h0Z"/>
          <path class="cls-43" d="M156.26,217.35c-.42,.48-1.27,.55-1.86,.42-.63-.14-1.15-.52-1.41-1.12-.11-.25-.47-.3-.68-.18-.25,.15-.29,.43-.18,.68,.36,.83,1.19,1.42,2.07,1.59s2.11,.04,2.76-.69c.18-.2,.2-.5,0-.7-.18-.18-.52-.2-.7,0h0Z"/>
        </g>
        <path class="cls-43" d="M154.36,231.53c-6.27,0-12.17-2.44-16.61-6.88-4.44-4.44-6.89-10.34-6.89-16.62,0-12.97,10.54-23.52,23.5-23.52h3.9c12.96,0,23.5,10.54,23.5,23.5,0,6.28-2.44,12.19-6.88,16.63-4.44,4.44-10.34,6.89-16.62,6.89h-3.9Zm0-45.03c-11.87,0-21.52,9.65-21.52,21.52,0,5.76,2.24,11.16,6.31,15.23,4.06,4.06,9.47,6.3,15.21,6.3h3.89c5.76,0,11.16-2.24,15.23-6.31s6.3-9.47,6.3-15.22c0-11.87-9.66-21.52-21.52-21.52h-3.9Z"/>
        <g>
          <g>
            <path class="cls-2" d="M134.46,197.67c-1.55-5.11-3.97-9.09-7.44-13.15,6.98-2.86,14.79-2.04,20.54,2.89"/>
            <path class="cls-19" d="M144.78,190.85c-1.54-5.11-12.26-6.47-18.37-5.94,6.98-2.86,14.79-2.04,20.54,2.89"/>
            <path class="cls-43" d="M138.16,195.57l-3.67,2.93c-1.37-5.16-3.79-9.98-7.11-14.16h0c4.32,2.97,7.98,6.8,10.78,11.23Z"/>
            <path class="cls-17" d="M136.89,186.4c-.53-.24-1.09-.37-1.67-.39-.11,0-.19-.09-.18-.2h0c0-.1,.09-.18,.2-.18,.63,.02,1.24,.16,1.82,.41,.1,.04,.15,.16,.1,.26,0,0,0,0,0,0-.04,.1-.16,.15-.26,.1h0Z"/>
            <ellipse class="cls-21" cx="133.59" cy="185.98" rx=".69" ry=".86" transform="translate(-54.94 315.94) rotate(-88.89)"/>
            <path class="cls-43" d="M134.07,197.71c-.41,0-.79-.25-.93-.66-1.55-4.37-3.86-8.37-6.87-11.89-.21-.24-.28-.57-.21-.88,.08-.31,.29-.56,.59-.68,7.63-3.12,15.7-1.98,21.56,3.06,.42,.36,.46,.98,.11,1.4-.36,.42-.99,.46-1.4,.11-4.97-4.27-11.71-5.43-18.25-3.2,2.73,3.44,4.86,7.28,6.34,11.43,.18,.52-.09,1.08-.6,1.27-.11,.04-.22,.06-.33,.06Z"/>
          </g>
          <g>
            <path class="cls-2" d="M176.57,198.99c1.55-5.11,4.15-9.85,7.62-13.91-6.98-2.86-14.79-2.04-20.54,2.89"/>
            <path class="cls-19" d="M166.42,191.41c1.54-5.11,12.26-6.47,18.37-5.94-6.98-2.86-14.79-2.04-20.54,2.89"/>
            <path class="cls-43" d="M173.05,196.13l3.67,2.93c1.37-5.16,3.79-9.98,7.11-14.16h0c-4.32,2.97-7.98,6.8-10.78,11.23Z"/>
            <path class="cls-17" d="M174.32,186.96c.53-.24,1.09-.37,1.67-.39,.11,0,.19-.09,.18-.2h0c0-.1-.09-.18-.2-.18-.63,.02-1.24,.16-1.82,.41-.1,.04-.15,.16-.1,.26,0,0,0,0,0,0,.04,.1,.16,.15,.26,.1h0Z"/>
            <ellipse class="cls-21" cx="177.61" cy="186.54" rx=".86" ry=".69" transform="translate(-3.58 3.48) rotate(-1.11)"/>
            <path class="cls-43" d="M176.83,199.47c-.11,0-.22-.02-.32-.05-.52-.18-.79-.74-.61-1.26,1.62-4.69,4.01-9.21,6.66-12.63-6.55-2.22-13.29-1.07-18.26,3.2-.41,.36-1.04,.31-1.4-.11-.36-.42-.31-1.04,.11-1.4,5.87-5.04,13.93-6.18,21.56-3.06,.29,.12,.51,.38,.59,.68,.07,.31,0,.64-.21,.88-2.8,3.28-5.48,8.17-7.17,13.08-.14,.41-.53,.67-.94,.67Z"/>
          </g>
        </g>
      </g>
      <g>
        <rect class="cls-26" x="219.98" y="250.3" width="70.91" height="60.09"/>
        <rect class="cls-23" x="219.64" y="249.75" width="71.8" height="3.94"/>
        <rect class="cls-23" x="219.64" y="250.77" width="4.29" height="55.77"/>
        <polyline class="cls-12" points="261 250.16 261 270.81 251.7 261.52 252.63 261.52 243.34 270.81 243.34 250.16"/>
        <g>
          <polygon class="cls-43" points="242.71 272.16 242.71 249.75 244.18 249.75 244.18 268.63 252.22 260.59 253.25 261.62 242.71 272.16"/>
          <polygon class="cls-43" points="261.83 272.16 251.29 261.62 252.32 260.59 260.37 268.63 260.37 249.75 261.83 249.75 261.83 272.16"/>
        </g>
        <path class="cls-1" d="M290.37,276.13v34.19h-63.04c8.19-.94,10.11-1.14,17.97-3.68,11.18-3.61,16.81-6,26.74-12.29,6.25-3.96,13.44-12.69,18.33-18.22Z"/>
        <path class="cls-43" d="M290.89,311.02h-70.91c-.69,0-1.25-.56-1.25-1.25v-60.09c0-.69,.56-1.25,1.25-1.25h70.91c.69,0,1.25,.56,1.25,1.25v8.84c0,.69-.56,1.25-1.25,1.25s-1.25-.56-1.25-1.25v-7.59h-68.41v57.59h68.41v-44.73c0-.69,.56-1.25,1.25-1.25s1.25,.56,1.25,1.25v45.98c0,.69-.56,1.25-1.25,1.25Z"/>
        <g>
          <g>
            <rect class="cls-17" x="261.79" y="295.62" width="9.5" height="8.88"/>
            <rect class="cls-17" x="275.62" y="295.62" width="9.5" height="8.88"/>
          </g>
          <g>
            <path class="cls-43" d="M271.29,305.23h-9.5c-.4,0-.73-.33-.73-.73v-8.88c0-.4,.33-.73,.73-.73h9.5c.4,0,.73,.33,.73,.73v8.88c0,.4-.33,.73-.73,.73Zm-8.77-1.46h8.04v-7.42h-8.04v7.42Z"/>
            <path class="cls-43" d="M285.12,305.23h-9.5c-.4,0-.73-.33-.73-.73v-8.88c0-.4,.33-.73,.73-.73h9.5c.4,0,.73,.33,.73,.73v8.88c0,.4-.33,.73-.73,.73Zm-8.77-1.46h8.04v-7.42h-8.04v7.42Z"/>
          </g>
        </g>
        <g>
          <path class="cls-43" d="M237.26,290.54h-11.15c-.4,0-.73-.33-.73-.73s.33-.73,.73-.73h11.15c.4,0,.73,.33,.73,.73s-.33,.73-.73,.73Z"/>
          <path class="cls-43" d="M232.44,294.25h-6.33c-.4,0-.73-.33-.73-.73s.33-.73,.73-.73h6.33c.4,0,.73,.33,.73,.73s-.33,.73-.73,.73Z"/>
          <path class="cls-43" d="M232.44,297.97h-6.33c-.4,0-.73-.33-.73-.73s.33-.73,.73-.73h6.33c.4,0,.73,.33,.73,.73s-.33,.73-.73,.73Z"/>
        </g>
      </g>
      <g>
        <rect class="cls-26" x="47.18" y="250.3" width="70.91" height="60.09"/>
        <rect class="cls-23" x="46.84" y="249.75" width="71.8" height="3.94"/>
        <rect class="cls-23" x="46.84" y="250.77" width="4.29" height="55.77"/>
        <polyline class="cls-12" points="88.2 250.16 88.2 270.81 78.9 261.52 79.83 261.52 70.54 270.81 70.54 250.16"/>
        <g>
          <polygon class="cls-43" points="69.91 272.16 69.91 249.75 71.38 249.75 71.38 268.63 79.42 260.59 80.45 261.62 69.91 272.16"/>
          <polygon class="cls-43" points="89.03 272.16 78.49 261.62 79.52 260.59 87.57 268.63 87.57 249.75 89.03 249.75 89.03 272.16"/>
        </g>
        <path class="cls-1" d="M117.57,276.13v34.19H54.54c8.19-.94,10.11-1.14,17.97-3.68,11.18-3.61,16.81-6,26.74-12.29,6.25-3.96,13.44-12.69,18.33-18.22Z"/>
        <path class="cls-43" d="M118.09,311.02H47.18c-.69,0-1.25-.56-1.25-1.25v-60.09c0-.69,.56-1.25,1.25-1.25H118.09c.69,0,1.25,.56,1.25,1.25v8.84c0,.69-.56,1.25-1.25,1.25s-1.25-.56-1.25-1.25v-7.59H48.43v57.59H116.84v-44.73c0-.69,.56-1.25,1.25-1.25s1.25,.56,1.25,1.25v45.98c0,.69-.56,1.25-1.25,1.25Z"/>
        <g>
          <g>
            <rect class="cls-17" x="88.99" y="295.62" width="9.5" height="8.88"/>
            <rect class="cls-17" x="102.82" y="295.62" width="9.5" height="8.88"/>
          </g>
          <g>
            <path class="cls-43" d="M98.49,305.23h-9.5c-.4,0-.73-.33-.73-.73v-8.88c0-.4,.33-.73,.73-.73h9.5c.4,0,.73,.33,.73,.73v8.88c0,.4-.33,.73-.73,.73Zm-8.77-1.46h8.04v-7.42h-8.04v7.42Z"/>
            <path class="cls-43" d="M112.32,305.23h-9.5c-.4,0-.73-.33-.73-.73v-8.88c0-.4,.33-.73,.73-.73h9.5c.4,0,.73,.33,.73,.73v8.88c0,.4-.33,.73-.73,.73Zm-8.77-1.46h8.04v-7.42h-8.04v7.42Z"/>
          </g>
        </g>
        <g>
          <path class="cls-43" d="M64.46,290.54h-11.15c-.4,0-.73-.33-.73-.73s.33-.73,.73-.73h11.15c.4,0,.73,.33,.73,.73s-.33,.73-.73,.73Z"/>
          <path class="cls-43" d="M59.64,294.25h-6.33c-.4,0-.73-.33-.73-.73s.33-.73,.73-.73h6.33c.4,0,.73,.33,.73,.73s-.33,.73-.73,.73Z"/>
          <path class="cls-43" d="M59.64,297.97h-6.33c-.4,0-.73-.33-.73-.73s.33-.73,.73-.73h6.33c.4,0,.73,.33,.73,.73s-.33,.73-.73,.73Z"/>
        </g>
      </g>
      <rect class="cls-43" x="196.07" y="220.1" width="47.96" height="2.5" transform="translate(-91.8 234.23) rotate(-47.53)"/>
      <rect class="cls-43" x="91.55" y="197.37" width="2.5" height="47.96" transform="translate(-125.08 120.68) rotate(-42.46)"/>
      <rect class="cls-26" x="101.18" y="230.76" width="110.96" height="82.16"/>
      <rect class="cls-23" x="100.33" y="230.01" width="112.19" height="5.39"/>
      <rect class="cls-23" x="100.33" y="231.41" width="5.86" height="76.26"/>
      <path class="cls-1" d="M211.06,260.43v46.75H110.86c11.2-1.28,22.29-4.29,33.04-7.76,15.29-4.94,30.37-10.93,43.95-19.52,8.55-5.41,16.52-11.9,23.21-19.47Z"/>
      <path class="cls-43" d="M211.77,313.33H100.8c-.69,0-1.25-.56-1.25-1.25v-82.17c0-.69,.56-1.25,1.25-1.25h110.96c.69,0,1.25,.56,1.25,1.25v12.09c0,.69-.56,1.25-1.25,1.25s-1.25-.56-1.25-1.25v-10.84H102.05v79.67h108.46v-61.62c0-.69,.56-1.25,1.25-1.25s1.25,.56,1.25,1.25v62.87c0,.69-.56,1.25-1.25,1.25Z"/>
      <path class="cls-45" d="M19.64,316.6h496.13c0,16.04-13,29.04-29.04,29.04H48.69c-16.04,0-29.04-13-29.04-29.04h0Z"/>
      <path class="cls-41" d="M515,323.01c-.3,1.31-.69,2.59-1.18,3.84H21.6c-.49-1.25-.88-2.53-1.18-3.84h494.59Z"/>
      <path class="cls-43" d="M486.74,345.77H48.69c-16.64-.02-30.13-13.51-30.15-30.15,.06-.61,.6-1.06,1.21-1.01,.53,.05,.96,.47,1.01,1.01,.02,15.42,12.51,27.92,27.93,27.93H486.74c15.42-.02,27.92-12.51,27.93-27.93,0-.61,.49-1.11,1.1-1.11s1.11,.49,1.11,1.1h0c-.02,16.65-13.5,30.14-30.14,30.16Z"/>
      <path class="cls-43" d="M192.38,309.18h-11.26c-.49,0-.89-.4-.9-.89s.4-.89,.89-.9h11.27c.49,0,.89,.4,.89,.9,0,.49-.4,.89-.89,.89Z"/>
      <path class="cls-43" d="M192.38,313.8h-11.26c-.5,.05-.94-.31-.99-.8-.05-.5,.31-.94,.8-.99,.06,0,.12,0,.19,0h11.26c.5,.05,.86,.49,.8,.99-.04,.42-.38,.76-.8,.8Z"/>
      <ellipse class="cls-17" cx="160.85" cy="316.99" rx="1.34" ry="2.04"/>
      <circle class="cls-17" cx="160.45" cy="322.06" r=".95"/>
      <circle class="cls-43" cx="194.89" cy="320.91" r=".98"/>
      <path class="cls-4" d="M8.01,307.93H524.99c3.97,0,7.18,3.21,7.18,7.18h0c0,3.96-3.22,7.18-7.18,7.18H8.01c-3.97,0-7.18-3.21-7.18-7.18H.83c0-3.96,3.22-7.18,7.18-7.18Z"/>
      <path class="cls-45" d="M8.01,307.93H524.99c3.97,0,7.18,3.21,7.18,7.18h0c0,3.96-3.22,7.18-7.18,7.18H8.01c-3.97,0-7.18-3.21-7.18-7.18H.83c0-3.96,3.22-7.18,7.18-7.18Z"/>
      <path class="cls-42" d="M532.16,314.77c0,3.96-3.2,7.17-7.16,7.18H8c-3.97,0-7.18-3.22-7.18-7.18H.82c0-.97,.2-1.92,.59-2.8,1.13,2.64,3.72,4.36,6.6,4.36H525c1.9,0,3.72-.75,5.07-2.09,.65-.65,1.17-1.42,1.53-2.27,.38,.89,.57,1.84,.57,2.8Z"/>
      <path class="cls-43" d="M434.25,308.78h-19.2c-.61,0-1.11-.49-1.11-1.1,0-.61,.49-1.11,1.1-1.11h19.21c.61,0,1.11,.49,1.11,1.1,0,.61-.49,1.11-1.1,1.11h0Z"/>
      <path class="cls-43" d="M21.76,313.73H1.45c-.47-.05-.81-.47-.76-.94,.04-.4,.36-.72,.76-.76H21.76c.47-.05,.89,.29,.94,.76,.05,.47-.29,.89-.76,.94-.06,0-.12,0-.18,0Z"/>
      <path class="cls-43" d="M29.46,313.73h-3.35c-.47-.05-.81-.47-.76-.94,.04-.4,.36-.72,.76-.76h3.35c.47,.05,.81,.47,.76,.94-.04,.4-.36,.72-.76,.76Z"/>
      <rect class="cls-35" x="174.05" y="308.54" width="59.52" height="4.12" rx="2.06" ry="2.06"/>
      <rect class="cls-35" x="132.54" y="308.54" width="33.26" height="4.12" rx="2.06" ry="2.06"/>
      <rect class="cls-35" x="62.78" y="308.54" width="33.26" height="4.12" rx="2.06" ry="2.06"/>
      <ellipse class="cls-41" cx="64.52" cy="326.84" rx="8.6" ry="2.96"/>
      <circle class="cls-41" cx="80.85" cy="327" r="2.06"/>
      <circle class="cls-41" cx="79.8" cy="334.35" r="1.06"/>
      <circle class="cls-41" cx="72.92" cy="331.54" r="1.06"/>
      <circle class="cls-41" cx="64.52" cy="334.35" r="1.03"/>
      <circle class="cls-41" cx="63.81" cy="330.15" r="1.03"/>
      <circle class="cls-41" cx="49.13" cy="326.55" r="2.51"/>
      <circle class="cls-41" cx="55.92" cy="335.23" r="2.64"/>
      <circle class="cls-41" cx="48.14" cy="330.46" r="2.64"/>
      <g>
        <ellipse class="cls-41" cx="442.31" cy="327.51" rx="8.6" ry="2.96"/>
        <circle class="cls-41" cx="458.64" cy="327.66" r="2.06"/>
        <circle class="cls-41" cx="457.59" cy="335.01" r="1.06"/>
        <circle class="cls-41" cx="450.71" cy="332.2" r="1.06"/>
        <circle class="cls-41" cx="448.01" cy="336.04" r="1.03"/>
        <circle class="cls-41" cx="442.31" cy="335.01" r="1.03"/>
        <circle class="cls-41" cx="441.6" cy="330.81" r="1.03"/>
        <circle class="cls-41" cx="426.93" cy="327.22" r="2.51"/>
        <circle class="cls-41" cx="433.71" cy="335.9" r="2.64"/>
        <circle class="cls-41" cx="425.93" cy="331.12" r="2.64"/>
      </g>
      <path class="cls-15" d="M349.81,74.96l5,.1c6.5,.15,11.66,5.51,11.55,12.01h0c-.09,6.5-5.44,11.69-11.93,11.59,0,0-.02,0-.03,0h0l-5-.1c-6.5-.14-11.67-5.5-11.57-12.01h0c.11-6.5,5.47-11.67,11.96-11.56,0,0,0,0,0,0v-.03Z"/>
      <path class="cls-43" d="M337.44,87.38h0c-.56,0-1.02-.46-1.01-1.03,0,0,0,0,0,0,.03-2.66,.9-5.24,2.49-7.37,.34-.45,.98-.55,1.43-.21,.45,.34,.55,.98,.21,1.43-1.33,1.79-2.06,3.95-2.09,6.18,0,.56-.47,1.01-1.04,1.01,0,0,0,0,0,0Z"/>
      <path class="cls-43" d="M354.21,99.52h-.23l-5.01-.1c-5.23-.1-9.88-3.36-11.74-8.25-.2-.53,.07-1.12,.59-1.32,.53-.2,1.12,.06,1.32,.59,0,0,0,0,0,0,1.56,4.12,5.47,6.88,9.87,6.96l4.98,.11c5.96,0,10.79-4.82,10.8-10.78,0-5.81-4.58-10.58-10.39-10.79l-4.99-.11c-1.96-.05-3.9,.45-5.6,1.43-.49,.28-1.11,.12-1.4-.37h0c-.28-.49-.12-1.12,.37-1.4,2.03-1.17,4.34-1.76,6.68-1.7l4.99,.1c7.09,.23,12.65,6.15,12.42,13.24-.22,6.87-5.8,12.34-12.67,12.43v-.03Z"/>
      <path class="cls-9" d="M351.53,84.62l2.6,.05c3.38,.08,6.07,2.88,6,6.26h0c-.07,3.38-2.86,6.06-6.24,6l-2.6-.05c-3.38-.08-6.06-2.87-6-6.25h0c.07-3.38,2.86-6.07,6.24-6Z"/>
      <path class="cls-17" d="M342.79,82.69c.4-1.04,1.18-1.89,2.18-2.38,.87-.34,.52-1.76-.38-1.41-1.39,.58-2.49,1.68-3.08,3.07-.36,.86,.89,1.6,1.26,.75l.02-.03Z"/>
      <ellipse class="cls-17" cx="342.47" cy="85.51" rx="1.16" ry=".93" transform="translate(206.63 411.3) rotate(-81.38)"/>
      <path class="cls-15" d="M432.43,74.96l5,.1c6.5,.14,11.67,5.5,11.57,12.01h0c-.11,6.5-5.47,11.67-11.96,11.56,0,0,0,0,0,0h0l-4.99-.1c-6.51-.12-11.71-5.48-11.61-11.99h0c.11-6.5,5.47-11.67,11.96-11.56,.01,0,.03,0,.04,0v-.02Z"/>
      <path class="cls-43" d="M437.21,99.54h-.22l-5.02-.11c-7.07-.16-12.69-6-12.58-13.08,.12-6.96,5.79-12.55,12.76-12.57h.29l4.99,.1c7.08,.06,12.78,5.85,12.72,12.93s-5.85,12.78-12.93,12.72h0Zm-5.02-23.7c-5.86,0-10.64,4.7-10.74,10.56-.1,5.95,4.62,10.86,10.57,11l4.99,.1c5.95,.1,10.86-4.64,10.96-10.59,.1-5.95-4.64-10.86-10.59-10.96l-4.99-.11h-.2Z"/>
      <path class="cls-9" d="M434.53,84.62l2.6,.05c3.38,.08,6.06,2.87,6,6.25h0c-.08,3.38-2.87,6.06-6.25,6l-2.59-.05c-3.38-.08-6.06-2.87-6-6.25h0c.08-3.37,2.86-6.05,6.24-6Z"/>
      <path class="cls-44" d="M345,88.44c-.41,.02-.77-.3-.79-.71,0-.2,.06-.39,.19-.54,1.48-1.82,3.55-3.07,5.85-3.53,.41-.08,.82,.18,.9,.6,.08,.41-.18,.82-.6,.9h0c-1.95,.39-3.7,1.46-4.96,3-.14,.18-.37,.29-.6,.29Z"/>
      <path class="cls-44" d="M443.74,88.44c-.23,0-.46-.1-.6-.29-1.26-1.54-3.01-2.61-4.96-3-.41-.08-.68-.49-.6-.9,.08-.41,.49-.68,.9-.6h0c2.3,.47,4.36,1.72,5.84,3.53,.27,.32,.23,.79-.08,1.06,0,0-.02,.02-.03,.02-.13,.11-.3,.17-.48,.17Z"/>
      <path class="cls-15" d="M423.56,25.48c.52,.44,.97,.91,1.43,1.37,8.23,8.21,12.85,19.36,12.84,30.98v39.21c.26,24.2-19.14,44.03-43.34,44.3-24.2,.26-44.03-19.14-44.3-43.34V57.83c-.02-12.31,5.16-24.06,14.26-32.36,15.93-14.53,43.14-14.44,59.11,0Z"/>
      <path class="cls-9" d="M429.25,44.73c1.26,3.95,1.89,8.08,1.86,12.22v40.31c0,22.85-17.56,41.87-40.34,43.68,1.14,.09,2.3,.14,3.47,.14,24.2,0,43.81-19.61,43.82-43.8V58.02c.02-11.62-4.59-22.76-12.82-30.97-.47-.47-.95-.92-1.43-1.37-1.45,.88-2.96,1.68-4.5,2.39,.21,.21,.4,.44,.59,.66l1.58,1.85c2.35,2.9,4.34,6.06,5.93,9.43"/>
      <path class="cls-15" d="M403.38,149.23c0,1.88,.53,4.01-.35,5.48-1.76,2.93-6.06,4.43-9.8,4.36h0c-5.63-.12-10.1-4.76-10.02-10.39l.51-8.17v-.51l20.26,.1"/>
      <path class="cls-10" d="M404.67,140.86l-1.28,10.6c-2.32,.51-4.73,.31-6.94-.56-3.91-1.76-8.01-3.06-12.22-3.89h-.1l.11-6.14c6.75,1.2,13.67,1.2,20.42,0h0Z"/>
      <circle class="cls-20" cx="376.72" cy="136.31" r=".54"/>
      <circle class="cls-20" cx="384.23" cy="138.92" r=".71"/>
      <path class="cls-17" d="M397.92,140.24c-1.12,.08-2.25,.13-3.4,.13-24.2,0-46.41-19.31-43.82-43.82V57.32c-.02-12.31,5.16-24.06,14.26-32.35,1.39,.84,1.09,1.63,2.65,2.35-7.38,7.83-13.09,18.41-13.09,30.01v39.23c.05,23.06,17.81,42.93,43.4,43.68Z"/>
      <circle class="cls-15" cx="418.83" cy="71.64" r="3.21"/>
      <path class="cls-43" d="M353.93,115.65c-.39,0-.75-.23-.92-.59-.46-.96-.83-1.97-1.1-3-.18-.54,.11-1.12,.65-1.3,.54-.18,1.12,.11,1.3,.65,.02,.05,.03,.11,.04,.16,.23,.91,.55,1.8,.95,2.64,.25,.51,.03,1.12-.47,1.36,0,0,0,0,0,0-.14,.06-.29,.08-.44,.08Z"/>
      <ellipse class="cls-11" cx="379.66" cy="83.52" rx="5.63" ry="7.13"/>
      <ellipse class="cls-43" cx="379.41" cy="81.97" rx="5.55" ry="7.04"/>
      <ellipse class="cls-17" cx="377.43" cy="79.42" rx="2.05" ry="2.24"/>
      <ellipse class="cls-11" cx="408.94" cy="83.52" rx="5.63" ry="7.13"/>
      <ellipse class="cls-43" cx="408.69" cy="81.97" rx="5.55" ry="7.04"/>
      <ellipse class="cls-17" cx="406.71" cy="79.42" rx="2.05" ry="2.24"/>
      <path class="cls-43" d="M393.64,159.99c-2.69,0-5.28-1.02-7.26-2.84-2.34-2.14-3.68-5.16-3.68-8.33v-7.94c0-.56,.46-1.02,1.02-1.02s1.02,.46,1.02,1.02v7.94c0,2.6,1.09,5.08,3,6.84,1.83,1.68,4.28,2.5,6.75,2.25l.62-.08c4.39-.74,7.61-4.55,7.59-9v-7.96c-.05-.57,.37-1.06,.94-1.11,.57-.05,1.06,.37,1.11,.94,0,.06,0,.12,0,.18v7.95c.01,5.46-3.94,10.13-9.33,11.01-.25,.04-.49,.07-.75,.09-.34,.04-.68,.06-1.03,.07Z"/>
      <rect class="cls-24" x="357.07" y="66.17" width="3.19" height="17.2" rx="1.59" ry="1.59"/>
      <path class="cls-43" d="M395.76,97.21c-.42,0-.8-.26-.95-.66-.99-2.61-1.58-5.35-1.75-8.14v-11.97c0-.56,.46-1.02,1.02-1.02s1.02,.46,1.02,1.02v11.88c.16,2.57,.71,5.1,1.62,7.5,.2,.53-.06,1.12-.59,1.32,0,0,0,0,0,0-.12,.04-.24,.07-.37,.07Z"/>
      <path class="cls-50" d="M418.82,114.01c0,14.47-10.96,26.21-24.52,26.26h-1c-13.27-.05-24.09-11.34-24.5-25.51l-.23-11.13c1.07-4.18,4.08-4.58,7.86-5.37h34.51c3.75,.79,6.79,.07,7.86,4.28l.02,11.47Z"/>
      <path class="cls-32" d="M376.16,104h35.88v7.93c0,9.91-8.03,17.94-17.94,17.94h0c-9.91,0-17.94-8.03-17.94-17.94h0v-7.93Z"/>
      <path class="cls-29" d="M397.79,129.46c-9.69,2.05-19.21-4.15-21.26-13.84,0,0,0,0,0,0-.26-1.21-.39-2.45-.39-3.69v-7.92h7.45v7.92c0,8.46,5.92,15.77,14.2,17.54Z"/>
      <polygon class="cls-17" points="382.25 104 412 104 412 112.69 382.37 112.41 382.25 104"/>
      <rect class="cls-8" x="382.25" y="104" width="29.76" height="4.54"/>
      <path class="cls-14" d="M410.36,116.08v2.09c0,6.31-5.11,10.5-11.42,10.5-1.99,0-3.86,1.38-5.49,.47l-.08-.69c-.13-.73-.2-1.46-.21-2.2,.01-6.41,5.22-11.61,11.64-11.59,1.92,0,3.81,.48,5.5,1.4l.07,.02Z"/>
      <path class="cls-38" d="M401.05,128.59c-.68,.12-1.38,.18-2.07,.18-2,0-3.86,1.39-5.49,.47l-.07-.69c-.14-.72-.21-1.46-.21-2.2,0-.73,.07-1.46,.2-2.18,1.43,3.13,4.24,3.62,7.64,4.41Z"/>
      <path class="cls-43" d="M393.42,129.49c-.29,0-.54-.21-.59-.5-1.26-6.63,3.09-13.02,9.71-14.29,2.77-.53,5.63-.08,8.11,1.26,.28,.18,.36,.56,.18,.84-.16,.25-.49,.35-.76,.23-5.35-2.9-12.03-.91-14.92,4.43-1.21,2.23-1.61,4.81-1.14,7.3,.07,.32-.14,.63-.46,.7,0,0-.01,0-.02,0l-.11,.02Z"/>
      <path class="cls-28" d="M396.17,120.67c-.06,0-.12-.02-.17-.06-.13-.1-.17-.28-.07-.42,0,0,0,0,0,0,1.91-2.55,4.82-4.17,7.99-4.46,.16-.04,.32,.07,.36,.23,.04,.16-.07,.32-.23,.36-.03,0-.05,0-.08,0-3,.27-5.75,1.81-7.56,4.22-.05,.08-.15,.13-.25,.12Z"/>
      <ellipse class="cls-28" cx="397.36" cy="119.98" rx="1.14" ry=".73" transform="translate(71.52 377.12) rotate(-55.08)"/>
      <circle class="cls-28" cx="399.35" cy="119.4" r=".37"/>
      <path class="cls-28" d="M398.6,121.01c.2,0,.37,.16,.37,.37s-.16,.37-.37,.37-.37-.16-.37-.37,.16-.37,.37-.37Z"/>
      <path class="cls-43" d="M394.87,130.76h-1.59c-9.95-.01-18.01-8.06-18.05-18.01v-7.07c0-1.41,1.15-2.56,2.56-2.56h32.56c1.41,0,2.55,1.14,2.56,2.55v7.06c0,9.97-8.07,18.05-18.04,18.05h0v-.03Zm-17.07-25.85c-.2,0-.39,.08-.53,.22-.14,.14-.22,.33-.22,.53v7.07c.01,8.95,7.27,16.21,16.22,16.21h1.59c8.95,.01,16.21-7.23,16.22-16.18,0-.02,0-.04,0-.05v-7.05c0-.41-.34-.75-.75-.75h-32.54Z"/>
      <path class="cls-17" d="M424.13,99.82h-2.04c-.73,.01-1.37-.5-1.5-1.22l-6.16-32.1c-.16-.81,.37-1.6,1.18-1.76,.11-.02,.21-.03,.32-.03h2.04c.73-.01,1.37,.5,1.5,1.22l6.2,32.1c.16,.81-.36,1.6-1.18,1.77-.12,.02-.24,.03-.36,.03Z"/>
      <path class="cls-22" d="M415.93,98.87h0c-.73,.01-1.37-.5-1.5-1.22l-6.21-32.12c-.16-.81,.37-1.6,1.18-1.76,.11-.02,.21-.03,.32-.03h0c.73-.01,1.37,.5,1.5,1.22l6.2,32.1c.17,.81-.34,1.61-1.15,1.78-.11,.02-.23,.04-.34,.03Z"/>
      <path class="cls-27" d="M416.36,61.43c-11.43,0-20.7,9.26-20.71,20.69,0,11.43,9.26,20.7,20.69,20.71,11.43,0,20.7-9.26,20.71-20.69h0c0-11.44-9.26-20.71-20.69-20.71h0Zm0,35.79c-8.34,0-15.11-6.75-15.11-15.1,0-8.34,6.75-15.11,15.1-15.11,8.34,0,15.11,6.75,15.11,15.1v.02c0,8.34-6.76,15.1-15.1,15.1Z"/>
      <path class="cls-13" d="M437.06,82.12v1.2c-.65-11.41-10.43-20.13-21.84-19.48-10.5,.6-18.88,8.98-19.48,19.48,0-.4-.05-.8-.05-1.2,0-11.43,9.26-20.71,20.69-20.71,11.43,0,20.71,9.26,20.71,20.69v.02h-.04Z"/>
      <path class="cls-43" d="M416.53,103.46c-11.95,0-21.64-9.69-21.64-21.64,0-11.95,9.69-21.64,21.64-21.64,11.95,0,21.64,9.69,21.64,21.64-.01,11.95-9.69,21.63-21.64,21.64Zm0-41.4c-10.92,0-19.77,8.84-19.77,19.76,0,10.92,8.84,19.77,19.76,19.77,10.92,0,19.77-8.84,19.77-19.76h0c-.01-10.91-8.85-19.75-19.76-19.77Z"/>
      <path class="cls-43" d="M416.53,97.86c-8.86,0-16.05-7.17-16.05-16.03,0-8.86,7.17-16.05,16.03-16.05,8.86,0,16.05,7.17,16.05,16.03v.02c-.01,8.85-7.18,16.02-16.03,16.03Zm0-30.19c-7.82,0-14.16,6.34-14.16,14.16s6.34,14.16,14.16,14.16,14.16-6.34,14.16-14.16h0c0-7.82-6.34-14.15-14.16-14.16Z"/>
      <path class="cls-17" d="M379.05,99.82h-2.04c-.73,.01-1.37-.5-1.5-1.22l-6.18-32.1c-.16-.81,.37-1.6,1.18-1.76,.11-.02,.21-.03,.32-.03h2.03c.73-.01,1.37,.5,1.5,1.22l6.19,32.1c.16,.81-.37,1.6-1.18,1.76-.11,.02-.22,.03-.33,.03Z"/>
      <path class="cls-22" d="M370.82,98.87h0c-.73,.01-1.37-.5-1.5-1.22l-6.18-32.12c-.16-.81,.37-1.6,1.18-1.76,.11-.02,.21-.03,.32-.03h0c.73-.01,1.37,.5,1.5,1.22l6.19,32.1c.17,.81-.34,1.61-1.15,1.78-.12,.03-.24,.04-.36,.03Z"/>
      <path class="cls-27" d="M371.28,61.43c-11.43,0-20.7,9.27-20.7,20.7s9.27,20.7,20.7,20.7,20.7-9.27,20.7-20.7h0c0-11.44-9.26-20.7-20.69-20.7h0Zm0,35.79c-8.34,0-15.11-6.75-15.11-15.1s6.75-15.11,15.1-15.11c8.34,0,15.11,6.75,15.11,15.1v.02c0,8.34-6.76,15.1-15.1,15.1Z"/>
      <path class="cls-13" d="M391.98,82.12c0,.4,0,.8-.05,1.2-.69-11.41-10.49-20.1-21.9-19.41-10.45,.63-18.78,8.96-19.41,19.41,0-.4-.05-.8-.05-1.2,0-11.43,9.26-20.71,20.69-20.71,11.43,0,20.71,9.26,20.71,20.69v.02Z"/>
      <path class="cls-43" d="M371.45,103.46c-11.95,0-21.64-9.69-21.64-21.64s9.69-21.64,21.64-21.64,21.64,9.69,21.64,21.64h0c-.02,11.94-9.7,21.62-21.64,21.64Zm0-41.4c-10.92,0-19.76,8.85-19.76,19.76s8.85,19.76,19.76,19.76,19.76-8.85,19.76-19.76c-.01-10.91-8.85-19.75-19.76-19.76Z"/>
      <path class="cls-43" d="M371.45,97.86c-8.86,0-16.04-7.18-16.04-16.04,0-8.86,7.18-16.04,16.04-16.04,8.86,0,16.04,7.18,16.04,16.04h0c-.01,8.86-7.19,16.03-16.04,16.04Zm0-30.19c-7.82,0-14.16,6.34-14.16,14.16s6.34,14.16,14.16,14.16,14.16-6.34,14.16-14.16h0c0-7.82-6.34-14.15-14.16-14.16Z"/>
      <ellipse class="cls-17" cx="375.57" cy="131.73" rx="2.17" ry="1.25" transform="translate(132.35 446.78) rotate(-71.66)"/>
      <circle class="cls-20" cx="379.5" cy="132.95" r=".7"/>
      <path class="cls-20" d="M377.37,133.66c.3,0,.54,.24,.54,.54s-.24,.54-.54,.54-.54-.24-.54-.54,.24-.54,.54-.54Z"/>
      <circle class="cls-20" cx="378.08" cy="129.21" r=".71"/>
      <path class="cls-43" d="M422.26,134.72c-.25,0-.49-.11-.65-.29l-3.43-3.79c-.3-.38-.25-.93,.13-1.23,.35-.28,.86-.26,1.17,.06l3.4,3.79c.32,.36,.29,.91-.07,1.24-.15,.14-.35,.22-.56,.23Z"/>
      <path class="cls-43" d="M431.68,124.14c-.25,0-.49-.11-.65-.29l-3.4-3.75c-.3-.38-.25-.93,.13-1.23,.35-.28,.86-.26,1.17,.06l3.4,3.75c.32,.36,.29,.91-.07,1.24-.16,.15-.37,.23-.59,.23Z"/>
      <path class="cls-43" d="M408.62,141.46c-.37,0-.7-.24-.83-.59l-1.7-4.82c-.2-.44,0-.96,.44-1.16s.96,0,1.16,.44c.02,.05,.04,.1,.05,.15l1.7,4.79c.16,.45-.07,.95-.52,1.11,0,0,0,0-.01,0-.09,.04-.19,.06-.29,.07Z"/>
      <path class="cls-43" d="M414.79,140.15c-.37,0-.7-.24-.83-.59l-1.1-3.11c-.16-.46,.08-.96,.54-1.12,.46-.16,.96,.08,1.12,.54h0l1.1,3.1c.16,.46-.08,.96-.54,1.12,0,0,0,0,0,0-.09,.04-.19,.05-.29,.05Z"/>
      <path class="cls-43" d="M415.27,126.72c-.32,0-.6-.18-.75-.47l-1.25-2.31c-.32-.36-.28-.92,.08-1.24,.36-.32,.92-.28,1.24,.08,.08,.09,.14,.2,.18,.32l1.25,2.32c.23,.42,.08,.95-.35,1.18,0,0,0,0,0,0-.12,.06-.26,.1-.4,.11Z"/>
      <path class="cls-43" d="M423.71,124.76c-.3,.02-.58-.12-.75-.36l-1.56-2.17c-.26-.41-.13-.95,.28-1.21,.37-.23,.86-.15,1.14,.18l1.57,2.18c.28,.39,.19,.93-.2,1.22-.14,.1-.3,.16-.47,.17Z"/>
      <path class="cls-43" d="M365.14,134.72c-.22,0-.42-.08-.59-.23-.36-.32-.39-.88-.07-1.24l3.4-3.79c.3-.38,.86-.44,1.23-.13,.38,.3,.44,.86,.13,1.23-.02,.02-.04,.05-.06,.07l-3.4,3.79c-.17,.19-.4,.29-.65,.29Z"/>
      <path class="cls-43" d="M355.71,124.14c-.22,0-.42-.08-.59-.23-.36-.32-.39-.88-.07-1.24l3.4-3.75c.3-.38,.86-.44,1.23-.13,.38,.3,.44,.86,.13,1.23-.02,.02-.04,.05-.06,.07l-3.4,3.75c-.17,.19-.4,.29-.65,.29Z"/>
      <path class="cls-43" d="M378.78,141.46c-.1,0-.2-.02-.29-.05-.45-.16-.69-.65-.54-1.11,0,0,0,0,0-.01l1.7-4.79c.12-.47,.6-.75,1.07-.64s.75,.6,.64,1.07c-.01,.05-.03,.1-.05,.15l-1.7,4.8c-.12,.35-.45,.58-.83,.59Z"/>
      <path class="cls-43" d="M372.6,140.15c-.1,0-.2-.02-.29-.05-.46-.16-.7-.66-.54-1.12,0,0,0,0,0,0l1.1-3.1c.16-.46,.66-.7,1.12-.54,.46,.16,.7,.66,.54,1.12l-1.1,3.11c-.12,.35-.45,.58-.83,.59Z"/>
      <path class="cls-43" d="M372.12,126.72c-.14,0-.28-.04-.41-.11-.42-.23-.58-.75-.36-1.18,0,0,0,0,0,0l1.25-2.32c.19-.44,.71-.65,1.15-.46,.44,.19,.65,.71,.46,1.15-.02,.05-.04,.09-.07,.13l-1.25,2.31c-.15,.29-.45,.47-.77,.47Z"/>
      <path class="cls-43" d="M363.69,124.76c-.18,0-.36-.06-.51-.17-.39-.28-.48-.82-.2-1.22l1.56-2.18c.28-.39,.83-.48,1.23-.2,.39,.28,.48,.83,.2,1.23h0l-1.56,2.17c-.17,.23-.43,.36-.71,.36Z"/>
      <path class="cls-43" d="M369.57,117.04c-.48-.01-.87-.42-.85-.9,0-.14,.04-.27,.1-.39l1.25-2.32c.23-.43,.76-.59,1.19-.36,.43,.23,.59,.76,.36,1.19h0l-1.25,2.32c-.16,.29-.46,.47-.8,.46Z"/>
      <path class="cls-43" d="M361.15,115.09c-.18,0-.36-.06-.51-.17-.39-.28-.49-.82-.21-1.21,0,0,0,0,0-.01l1.56-2.17c.28-.39,.82-.49,1.21-.21,0,0,0,0,.01,0,.39,.28,.48,.83,.2,1.22l-1.56,2.17c-.16,.23-.43,.37-.71,.37Z"/>
      <path class="cls-43" d="M421.26,115.86c-.31,0-.6-.18-.75-.46l-1.25-2.32c-.27-.4-.16-.95,.25-1.22,.4-.27,.95-.16,1.22,.25,.03,.04,.05,.09,.07,.13l1.25,2.32c.23,.43,.07,.96-.36,1.19-.12,.06-.25,.1-.39,.1h-.05Z"/>
      <path class="cls-43" d="M429.7,113.91c-.3,.01-.58-.13-.75-.37l-1.56-2.17c-.3-.38-.24-.93,.14-1.23,.38-.3,.93-.24,1.23,.14,.02,.02,.04,.05,.06,.08l1.56,2.17c.28,.39,.19,.94-.2,1.22-.14,.1-.3,.16-.47,.17Z"/>
      <g>
        <circle class="cls-2" cx="175.68" cy="233.17" r="8.13"/>
        <path class="cls-17" d="M183.81,233.17c0,4.49-3.64,8.13-8.13,8.13s-8.13-3.64-8.13-8.13,3.64,1.01,8.13,1.01,8.13-5.5,8.13-1.01Z"/>
        <path class="cls-43" d="M175.68,242.47c-5.14,0-9.3-4.17-9.3-9.3s4.17-9.3,9.3-9.3c5.14,0,9.3,4.17,9.3,9.3h0c0,5.14-4.17,9.3-9.3,9.3Zm0-16.26c-3.84,0-6.96,3.12-6.96,6.96s3.12,6.96,6.96,6.96,6.96-3.12,6.96-6.96h0c0-3.84-3.12-6.96-6.96-6.96Z"/>
        <circle class="cls-2" cx="136.72" cy="233.17" r="8.13"/>
        <path class="cls-17" d="M144.85,233.17c0,4.49-3.64,8.13-8.13,8.13s-8.13-3.64-8.13-8.13,3.64,1.01,8.13,1.01,8.13-5.5,8.13-1.01Z"/>
        <path class="cls-43" d="M136.72,242.47c-5.14,0-9.31-4.16-9.31-9.29,0-5.14,4.16-9.31,9.29-9.31s9.31,4.16,9.31,9.29v.02c-.01,5.13-4.17,9.28-9.29,9.29Zm0-16.26c-3.84,0-6.96,3.12-6.96,6.96s3.12,6.96,6.96,6.96,6.96-3.12,6.96-6.96h0c0-3.84-3.12-6.96-6.96-6.96Z"/>
      </g>
      <rect class="cls-30" x="255.9" y="157.45" width="5.83" height="60.09"/>
      <rect class="cls-30" x="298.53" y="157.45" width="5.83" height="60.09"/>
      <rect class="cls-30" x="258.44" y="211.47" width="44.05" height="6.21"/>
      <rect class="cls-30" x="258.44" y="158.11" width="44.05" height="6.21"/>
      <ellipse class="cls-6" cx="273.13" cy="186.34" rx="4.66" ry="4.58"/>
      <rect class="cls-31" x="276.23" y="196.51" width="14.68" height="14.68"/>
      <rect class="cls-31" x="277.36" y="164.03" width="14.68" height="6.57"/>
      <path class="cls-43" d="M304.84,218.8h-48.94c-.7,0-1.26-.57-1.26-1.26v-60.09c0-.7,.57-1.26,1.26-1.26h48.94c.7,0,1.26,.57,1.26,1.26v8.84c0,.7-.57,1.26-1.26,1.26s-1.26-.57-1.26-1.26v-7.58h-46.41v57.56h46.41v-41.71c0-.7,.57-1.26,1.26-1.26s1.26,.57,1.26,1.26v42.98c0,.7-.57,1.26-1.26,1.26Z"/>
      <path class="cls-43" d="M299.01,212.18h-37.27c-.45,0-.81-.36-.81-.81v-47.77c0-.45,.36-.81,.81-.81h37.27c.45,0,.81,.36,.81,.81v7.03c0,.45-.36,.81-.81,.81s-.81-.36-.81-.81v-6.22h-35.66v46.16h35.66v-35.75c0-.45,.36-.81,.81-.81s.81,.36,.81,.81v36.55c0,.45-.36,.81-.81,.81Z"/>
      <circle class="cls-43" cx="279.13" cy="141.94" r="2.44"/>
      <path class="cls-43" d="M269.64,157.48c-.09,0-.18-.02-.26-.08-.23-.15-.31-.45-.16-.69l9.69-15.53c.15-.24,.46-.31,.69-.16,.23,.15,.31,.45,.16,.69l-9.69,15.53c-.09,.15-.26,.24-.42,.24Z"/>
      <path class="cls-43" d="M288.65,157.48c-.17,0-.33-.08-.42-.24l-9.69-15.53c-.15-.23-.08-.54,.16-.69,.23-.15,.54-.08,.69,.16l9.69,15.53c.15,.23,.08,.54-.16,.69-.08,.05-.17,.08-.26,.08Z"/>
      <g>
        <path class="cls-43" d="M265.78,177.24c-.12,0-.23-.04-.33-.12-.21-.18-.23-.5-.05-.71l5.93-6.78c.18-.21,.5-.23,.71-.05,.21,.18,.23,.5,.05,.71l-5.93,6.78c-.1,.11-.24,.17-.38,.17Z"/>
        <path class="cls-43" d="M267.9,179.36c-.12,0-.23-.04-.33-.12-.21-.18-.23-.5-.05-.71l5.93-6.78c.18-.21,.5-.23,.71-.05,.21,.18,.23,.5,.05,.71l-5.93,6.78c-.1,.11-.24,.17-.38,.17Z"/>
      </g>
      <path class="cls-43" d="M270.87,207.17c-.16,0-.31-.08-.41-.22l-5.08-7.34c-.16-.23-.1-.54,.13-.7,.22-.16,.54-.1,.7,.13l5.08,7.34c.16,.23,.1,.54-.13,.7-.09,.06-.19,.09-.28,.09Z"/>
      <path class="cls-43" d="M298.82,197.57c-.15,0-.3-.07-.4-.2l-14.12-18.92c-.17-.22-.12-.53,.1-.7,.22-.17,.53-.12,.7,.1l14.12,18.92c.17,.22,.12,.53-.1,.7-.09,.07-.19,.1-.3,.1Z"/>
      <path class="cls-43" d="M290.91,211.69h-14.68c-.28,0-.5-.22-.5-.5v-14.68c0-.28,.22-.5,.5-.5h14.68c.28,0,.5,.22,.5,.5v14.68c0,.28-.22,.5-.5,.5Zm-14.18-1h13.68v-13.68h-13.68v13.68Z"/>
      <path class="cls-43" d="M292.04,171.02h-14.68c-.19,0-.35-.16-.35-.35v-7.2c0-.19,.16-.35,.35-.35h14.68c.19,0,.35,.16,.35,.35v7.2c0,.19-.16,.35-.35,.35Zm-14.33-.7h13.98v-6.5h-13.98v6.5Z"/>
      <path class="cls-43" d="M273.12,191.49c-2.76,0-5.01-2.25-5.01-5.01s2.25-5.01,5.01-5.01,5.01,2.25,5.01,5.01-2.25,5.01-5.01,5.01Zm0-9.32c-2.38,0-4.31,1.93-4.31,4.31s1.93,4.31,4.31,4.31,4.31-1.93,4.31-4.31-1.93-4.31-4.31-4.31Z"/>
      <rect class="cls-30" x="228.43" y="67.71" width="68.42" height="5.77"/>
      <rect class="cls-30" x="228.43" y="120.23" width="68.42" height="5.77"/>
      <g>
        <rect class="cls-30" x="227.86" y="66.99" width="5.93" height="59.86"/>
        <rect class="cls-30" x="292.24" y="66.99" width="5.93" height="59.86"/>
      </g>
      <ellipse class="cls-6" cx="250.45" cy="95.79" rx="4.66" ry="4.58"/>
      <rect class="cls-31" x="254.4" y="105.38" width="14.68" height="14.68"/>
      <rect class="cls-31" x="254.69" y="73.04" width="14.68" height="6.65"/>
      <path class="cls-43" d="M298.02,127.59h-8.84c-.7,0-1.26-.57-1.26-1.26s.57-1.26,1.26-1.26h7.58v-56.41h-67.56v56.41h54.71c.7,0,1.26,.57,1.26,1.26s-.57,1.26-1.26,1.26h-55.98c-.7,0-1.26-.57-1.26-1.26v-58.94c0-.7,.57-1.26,1.26-1.26h70.09c.7,0,1.26,.57,1.26,1.26v58.94c0,.7-.57,1.26-1.26,1.26Z"/>
      <path class="cls-43" d="M291.87,121.3h-7.03c-.45,0-.81-.36-.81-.81s.36-.81,.81-.81h6.22v-45.66h-56.16v45.66h45.75c.45,0,.81,.36,.81,.81s-.36,.81-.81,.81h-46.55c-.45,0-.81-.36-.81-.81v-47.27c0-.45,.36-.81,.81-.81h57.77c.45,0,.81,.36,.81,.81v47.27c0,.45-.36,.81-.81,.81Z"/>
      <g>
        <path class="cls-43" d="M243.39,86.73c-.12,0-.24-.04-.33-.12-.2-.18-.22-.5-.04-.7l5.93-6.66c.18-.2,.49-.22,.7-.04,.2,.18,.22,.5,.04,.7l-5.93,6.66c-.1,.11-.23,.17-.37,.17Z"/>
        <path class="cls-43" d="M245.51,88.81c-.12,0-.24-.04-.33-.12-.2-.18-.22-.5-.04-.7l5.93-6.66c.18-.2,.49-.22,.7-.04,.2,.18,.22,.5,.04,.7l-5.93,6.66c-.1,.11-.23,.17-.37,.17Z"/>
      </g>
      <path class="cls-43" d="M248.47,116.12c-.16,0-.31-.07-.41-.21l-5.08-7.21c-.16-.22-.1-.53,.12-.69,.22-.16,.53-.11,.69,.12l5.08,7.21c.16,.22,.1,.53-.12,.69-.09,.06-.19,.09-.29,.09Z"/>
      <path class="cls-43" d="M276.43,106.7c-.15,0-.3-.07-.39-.2l-14.12-18.58c-.17-.22-.12-.53,.09-.69,.22-.17,.53-.12,.69,.09l14.12,18.58c.17,.22,.12,.53-.09,.69-.09,.07-.2,.1-.3,.1Z"/>
      <path class="cls-43" d="M268.52,120.56h-14.68c-.27,0-.5-.22-.5-.5v-14.42c0-.27,.22-.5,.5-.5h14.68c.27,0,.5,.22,.5,.5v14.42c0,.27-.22,.5-.5,.5Zm-14.19-.99h13.69v-13.43h-13.69v13.43Z"/>
      <path class="cls-43" d="M269.65,80.61h-14.68c-.19,0-.35-.16-.35-.35v-7.07c0-.19,.16-.35,.35-.35h14.68c.19,0,.35,.16,.35,.35v7.07c0,.19-.16,.35-.35,.35Zm-14.34-.69h13.99v-6.38h-13.99v6.38Z"/>
      <path class="cls-43" d="M250.73,100.72c-2.76,0-5-2.21-5-4.92s2.25-4.92,5-4.92,5.01,2.21,5.01,4.92-2.25,4.92-5.01,4.92Zm0-9.15c-2.38,0-4.31,1.9-4.31,4.23s1.93,4.23,4.31,4.23,4.31-1.9,4.31-4.23-1.93-4.23-4.31-4.23Z"/>
      <path class="cls-43" d="M143.9,301.28h-34.62c-.69,0-1.25-.56-1.25-1.25s.56-1.25,1.25-1.25h34.62c.69,0,1.25,.56,1.25,1.25s-.56,1.25-1.25,1.25Z"/>
      <path class="cls-43" d="M152.84,301.28h-3.11c-.69,0-1.25-.56-1.25-1.25s.56-1.25,1.25-1.25h3.11c.69,0,1.25,.56,1.25,1.25s-.56,1.25-1.25,1.25Z"/>
      <path class="cls-27" d="M389.24,16.86c2.63-.35,5.09-1.99,6.27-4.37,1.18-2.37,.97-5.42-.64-7.52-2.32-3.02-6.68-3.52-10.45-3.03-8.4,1.1-15.85,5.8-22.82,10.62-7.82,5.4-15.47,11.14-21.95,18.1,.29-1.78-2.49-2.68-3.87-1.53-1.38,1.15-1.58,3.18-1.58,4.98-.03,15.16,6.37,30.24,17.3,40.74v-26.02l1.49-1.15,1.75,1.15,7.34,2.26h4.14l3.2-1.51,1.13-4.89-.19-3.58,2.26,2.07,6.96,2.07,9.6,1.88,13.74,1.51,9.41,.19,4.71-.94,2.26-2.64,.19-3.01-.94-2.26,3.39,.19,13.74-1.51,6.78-3.2,3.58-3.2,3.01-4.33,.94-4.89-2.45-3.01-5.84-4.52-5.65-2.26-12.05-2.82-11.67-.19-13.18,1.32-8.47,1.51"/>
      <path class="cls-43" d="M445.6,41.22c-.51-2.18-1.24-4.29-2.18-6.32-.25-.54-1.06-.71-1.54-.4-.55,.36-.67,.97-.4,1.54,.11,.24,.22,.48,.32,.72,.05,.12,.06,.14,.02,.04,.03,.07,.06,.14,.09,.21,.04,.1,.08,.21,.13,.31,.19,.49,.37,.98,.54,1.48,.34,.99,.62,2,.86,3.02,.13,.57,.82,.97,1.38,.79,.6-.19,.93-.77,.79-1.38h0Z"/>
      <path class="cls-43" d="M441.78,75.28c3.18-9.07,5.47-18.76,4.69-28.43-.11-1.43-2.37-1.45-2.25,0,.76,9.49-1.49,18.93-4.61,27.83-.48,1.37,1.69,1.96,2.17,.6h0Z"/>
      <path class="cls-43" d="M349.07,73.83v14.92c0,5.93-.28,11.93,.9,17.78,3.68,18.21,18.92,32.71,37.31,35.42s37.68-6.7,46.52-23.51c3.6-6.85,5.16-14.31,5.16-22.01V63.11c0-5.53-.47-11.03-1.68-16.45-.66-2.95-1.52-5.85-2.59-8.67-.51-1.34-2.68-.76-2.17,.6,2.62,6.97,4.19,14.6,4.19,22.08v32.79c0,5.59-.19,11.05-1.82,16.46-5.31,17.57-21.88,30.02-40.22,30.29-18.34,.27-35.3-11.64-41.13-29.07-1.47-4.39-2.21-8.99-2.22-13.62,0-1.66,0-3.32,0-4.98v-18.71c0-1.45-2.25-1.45-2.25,0h0Z"/>
      <path class="cls-16" d="M345.47,29.45c5.8-5.41,11.79-10.66,18.36-15.13,3.25-2.21,6.63-4.22,10.16-5.94s7.44-3.4,11.37-4.14c2.17-.41,4.57-.34,6.4,1.03,1.57,1.18,2.36,3.22,.99,4.88-1.22,1.48,.89,3.61,2.12,2.12,1.36-1.65,2.03-3.71,1.32-5.81-.64-1.9-2.09-3.43-3.85-4.35-4.29-2.22-9.3-.61-13.53,.95-8.65,3.2-16.43,8.21-23.62,13.93-4.1,3.26-8.01,6.76-11.85,10.33-1.42,1.32,.71,3.44,2.12,2.12h0Z"/>
      <path class="cls-27" d="M369.7,32.17c1.93,0,1.93-3,0-3s-1.93,3,0,3h0Z"/>
      <path class="cls-16" d="M396.79,14.81c9.5-2.14,19.45-2.85,29.08-1.21,4.64,.79,9.42,2.01,13.65,4.14,3.75,1.89,7.38,5.06,7.67,9.54,.12,1.92,3.12,1.93,3,0-.52-8.25-8.38-12.35-15.36-14.59-7.92-2.54-16.37-3.34-24.66-2.84-4.77,.29-9.51,1.01-14.17,2.06-1.88,.43-1.09,3.32,.8,2.89h0Z"/>
      <path class="cls-43" d="M371.06,7.28c3.13-1.73,6.4-3.22,9.87-4.13,3.02-.8,6.33-1.32,9.4-.49s5.24,3.36,4.87,6.64-3.12,5.35-6.16,5.82c-1.43,.22-.82,2.39,.6,2.17,3.63-.56,6.92-3.25,7.66-6.94s-.88-7.26-4.15-8.99-7.16-1.55-10.68-.88c-4.43,.85-8.61,2.68-12.54,4.85-1.27,.7-.13,2.64,1.14,1.94h0Z"/>
      <path class="cls-43" d="M352.38,73.4c-6.3-6.09-11.04-13.62-13.92-21.89-.47-1.36-2.65-.77-2.17,.6,3.01,8.63,7.92,16.52,14.5,22.88,1.04,1.01,2.63-.58,1.59-1.59h0Z"/>
      <path class="cls-17" d="M354.23,24.42c1.23-1.16,2.5-2.28,3.8-3.36,.6-.5,1.2-.99,1.81-1.47,.22-.17-.16,.12-.02,.01,.07-.05,.13-.1,.2-.15,.13-.1,.26-.19,.39-.29,.25-.19,.51-.37,.77-.54,.65-.44,1-1.34,.54-2.05-.42-.65-1.36-1.01-2.05-.54-2.7,1.83-5.18,4.04-7.56,6.27-.57,.54-.58,1.59,0,2.12,.61,.56,1.51,.57,2.12,0h0Z"/>
      <path class="cls-17" d="M379.4,8.62c2.47-1.18,5.32-1.79,8.14-1.76,.78,0,1.54-.7,1.5-1.5s-.66-1.49-1.5-1.5c-3.35-.04-6.64,.72-9.65,2.17-.71,.34-.95,1.41-.54,2.05,.47,.73,1.29,.9,2.05,.54h0Z"/>
      <path class="cls-17" d="M408.85,14.6c2.51-.06,5.02-.12,7.53-.18,.78-.02,1.54-.68,1.5-1.5s-.66-1.52-1.5-1.5c-2.51,.06-5.02,.12-7.53,.18-.78,.02-1.54,.68-1.5,1.5s.66,1.52,1.5,1.5h0Z"/>
      <path class="cls-17" d="M421.46,14.85c1.93,0,1.93-3,0-3s-1.93,3,0,3h0Z"/>
      <path class="cls-9" d="M426.35,46.85c1.93,0,1.93-3,0-3s-1.93,3,0,3h0Z"/>
      <g class="cls-51">
        <path class="cls-9" d="M427.39,51.27c1.93,0,1.93-3,0-3s-1.93,3,0,3h0Z"/>
      </g>
      <path class="cls-13" d="M353.62,46.73c3.76,1.55,7.73,3.74,11.95,2.95,1.97-.37,3.48-1.94,3.88-3.89,.45-2.19-.33-4.27-1.38-6.16-.94-1.69-3.53-.18-2.59,1.51,.67,1.2,1.39,2.64,1.03,4.05s-1.44,1.65-2.72,1.64c-3.32-.04-6.37-1.76-9.37-3-.75-.31-1.65,.33-1.85,1.05-.24,.86,.3,1.53,1.05,1.85h0Z"/>
      <path class="cls-13" d="M373.65,51.71c1.93,0,1.93-3,0-3s-1.93,3,0,3h0Z"/>
      <path class="cls-13" d="M370.72,39.82c1.24,1.44,3.05,2.22,4.78,2.91,1.88,.75,3.82,1.44,5.74,2.07,5.03,1.65,10.28,2.58,15.54,3.08,6.2,.59,13.68,1.31,19.58-1.4,1.13-.52,2.28-1.33,2.68-2.56,.45-1.39-.22-2.67-1.13-3.69-1.29-1.44-3.41,.69-2.12,2.12,.18,.2,.51,.62,.4,.51,.06,.07,.03,.14-.09,.26-.49,.5-1.33,.84-2.1,1.09-1.9,.62-3.92,.94-5.91,1.08-3.65,.27-7.43-.04-11.07-.37-4.54-.42-9.06-1.21-13.44-2.51-2.08-.62-4.11-1.38-6.15-2.12-1.62-.59-3.44-1.22-4.59-2.56-1.26-1.47-3.37,.66-2.12,2.12h0Z"/>
      <path class="cls-13" d="M421.83,39.36c8.56-.98,17.47-2.17,24.22-8.02,1.46-1.27-.67-3.38-2.12-2.12-6.07,5.26-14.42,6.27-22.1,7.15-1.9,.22-1.92,3.22,0,3h0Z"/>
      <path class="cls-16" d="M339.37,44.61c-.51-2.52-.96-5.05-1.32-7.6-.16-1.12-.27-2.25-.22-3.38,.02-.58,.11-1.14,.27-1.71,.02-.08,.18-.41,.18-.52,0-.12,.04-.18,.11-.17-.29,.23-.59,.23-.9,0,1.31,1.42,3.43-.71,2.12-2.12-1.23-1.33-3.24-.6-3.96,.87s-.9,3.32-.81,4.99c.19,3.49,.94,7.01,1.63,10.42,.16,.79,1.1,1.25,1.85,1.05,.83-.23,1.21-1.05,1.05-1.85h0Z"/>
      <path class="cls-43" d="M337.16,47.21c-1.03-4.04-1.64-8.16-1.74-12.33-.04-1.58-.25-3.68,.72-5.05,.52-.74,2.59-1.23,2.47,.17-.08,.98,1.28,1.48,1.92,.8,7.5-8,16.48-14.58,25.64-20.56,1.21-.79,.08-2.74-1.14-1.94-9.31,6.07-18.47,12.77-26.09,20.91l1.92,.8c.16-1.9-1.62-3.12-3.36-3.16-2.2-.06-3.62,1.77-4.08,3.76-.59,2.57-.28,5.46-.03,8.06,.29,3.09,.83,6.14,1.6,9.15,.36,1.4,2.53,.81,2.17-.6h0Z"/>
      <path class="cls-43" d="M346.54,43.92c1.82-.95,3.63-1.89,5.45-2.84,.36-.19,.47-.69,.27-1.03-.21-.36-.67-.46-1.03-.27-1.82,.95-3.63,1.89-5.45,2.84-.36,.19-.47,.69-.27,1.03,.21,.36,.67,.46,1.03,.27h0Z"/>
      <path class="cls-43" d="M347.52,40.41c1.62-.84,3.24-1.67,4.86-2.51,.36-.19,.47-.69,.27-1.03-.21-.37-.66-.46-1.03-.27-1.62,.84-3.24,1.67-4.86,2.51-.36,.19-.47,.69-.27,1.03,.21,.37,.66,.46,1.03,.27h0Z"/>
      <path class="cls-43" d="M426.35,36.27c5.48-.65,10.75-2.42,15.48-5.26,.83-.5,.07-1.79-.76-1.3-4.49,2.7-9.52,4.44-14.73,5.06-.95,.11-.96,1.61,0,1.5h0Z"/>
      <path class="cls-43" d="M443.67,29.16c.97,0,.97-1.5,0-1.5s-.97,1.5,0,1.5h0Z"/>
      <path class="cls-43" d="M373.78,38.92c2.59,1.78,5.59,2.96,8.7,3.42,.4,.06,.81-.1,.92-.52,.1-.35-.12-.86-.52-.92-3-.44-5.84-1.55-8.34-3.27-.8-.55-1.55,.75-.76,1.3h0Z"/>
      <path class="cls-9" d="M374.62,46.3c6.54,3.01,13.77,4.47,20.88,5.34,7.03,.86,14.47,1.21,21.42-.42,1.88-.44,1.08-3.34-.8-2.89-6.55,1.55-13.62,1.15-20.25,.36s-13.61-2.15-19.74-4.98c-1.74-.8-3.27,1.78-1.51,2.59h0Z"/>
      <path class="cls-43" d="M396.69,13c12.88-3.66,27.14-3.62,39.81,.91,2.89,1.03,5.73,2.38,8.2,4.21,2.25,1.67,4.73,4.4,4.22,7.44-.48,2.79-3.3,5.07-5.44,6.68s-4.66,2.99-7.23,3.98c-5.96,2.3-12.41,2.96-18.76,2.57-1.35-.08-1.41,1.79-.3,2.21,2.15,.8,1.13,4.02-.22,5.04-1.74,1.31-4.11,1.43-6.21,1.5-1.63,.06-3.26,.05-4.88,.02-7.84-.15-15.77-.93-23.34-3.03-4.59-1.27-9.12-3.07-12.92-6-.95-.73-2.03,.64-1.54,1.54,.93,1.71,1.63,3.79,1.2,5.76s-2.17,3.14-4.13,3.42c-4.26,.62-9.04-1.41-12.62-3.51-.77-.45-1.65,.14-1.69,.97-.4,7.54-.81,15.08-1.21,22.62-.06,1.08-.12,2.16-.17,3.23-.08,1.45,2.17,1.44,2.25,0,.4-7.54,.81-15.08,1.21-22.62,.06-1.08,.12-2.16,.17-3.23l-1.69,.97c2.57,1.51,5.35,2.67,8.26,3.35,2.4,.57,5.06,.88,7.44,.06,5.39-1.85,5.23-7.9,2.92-12.15l-1.54,1.54c7.54,5.82,17.77,7.69,27.01,8.69,5.74,.62,11.84,1.13,17.61,.46,2.96-.34,6.2-1.49,7.23-4.57,.82-2.45-.03-5.29-2.56-6.23l-.3,2.21c6.27,.39,12.71-.23,18.64-2.38,2.84-1.03,5.57-2.38,8.03-4.13s5.02-3.86,6.32-6.58c3.06-6.4-3.67-11.68-8.69-14.21-6.32-3.18-13.55-4.69-20.56-5.31-8.44-.74-16.99,.1-25.13,2.42-1.39,.4-.8,2.57,.6,2.17h0Z"/>
      <path class="cls-43" d="M343.72,93.31c-1.16,2.13-2.32,4.26-3.47,6.38-.28,.52-.14,1.25,.4,1.54s1.24,.15,1.54-.4c1.16-2.13,2.32-4.26,3.47-6.38,.28-.52,.14-1.25-.4-1.54s-1.24-.15-1.54,.4h0Z"/>
      <path class="cls-43" d="M441.59,93.65c1.35,2.27,2.4,4.56,3.23,7.03,.19,.58,.78,.95,1.38,.79,.56-.15,.98-.81,.79-1.38-.88-2.64-2.04-5.18-3.46-7.57-.31-.52-1.01-.71-1.54-.4s-.72,1.01-.4,1.54h0Z"/>
      <path class="cls-43" d="M411.2,113.41h-28.83c-.55,0-.99-.44-1-.98l-.12-7.5c0-.55,.43-1.01,.98-1.02h.02c.54,0,.99,.44,1,.98l.11,6.52h27.85c.55,0,1,.45,1,1s-.45,1-1,1Z"/>
      <g>
        <path class="cls-15" d="M453.24,307.2c0-7.54,6.11-13.65,13.65-13.65s13.65,6.11,13.65,13.65"/>
        <path class="cls-43" d="M454.48,307.01c.09-6.77,5.58-12.42,12.42-12.42s12.33,5.65,12.42,12.42c.02,1.59,2.49,1.59,2.47,0-.08-6.2-3.89-11.74-9.71-13.95s-12.64-.37-16.58,4.4c-2.24,2.71-3.43,6.04-3.48,9.55-.02,1.59,2.45,1.59,2.47,0h0Z"/>
      </g>
      <path class="cls-43" d="M525,323.14H8c-4.57-.16-8.16-3.99-8-8.56,.15-4.36,3.64-7.85,8-8H403.88c.61,0,1.11,.49,1.11,1.1,0,.61-.49,1.11-1.1,1.11H8c-3.35,.13-5.97,2.96-5.83,6.31,.13,3.17,2.66,5.71,5.83,5.83H525c3.35-.13,5.97-2.96,5.83-6.31-.13-3.17-2.66-5.71-5.83-5.83h-78.51c-.61,0-1.11-.49-1.11-1.1,0-.61,.49-1.11,1.1-1.11h78.51c4.57-.16,8.41,3.43,8.56,8,.16,4.57-3.43,8.41-8,8.56-.19,0-.38,0-.56,0Z"/>
      <path class="cls-43" d="M342.58,280.81v26.87c0,1.59,2.47,1.59,2.47,0v-26.87c0-1.59-2.47-1.59-2.47,0h0Z"/>
      <path class="cls-43" d="M439.43,237.16c0,18.08,0,36.15,0,54.23,0,5.14,0,10.28,0,15.42,0,1.59,2.47,1.59,2.47,0,0-18.08,0-36.15,0-54.23,0-5.14,0-10.28,0-15.42,0-1.59-2.47-1.59-2.47,0h0Z"/>
      <path class="cls-43" d="M340.44,245.62c3.02,1.82,6.26,3.3,9.51,4.64,6.21,2.55,12.92,4.43,19.68,4.31,1.59-.03,1.59-2.49,0-2.47-6.55,.11-13.01-1.76-19.03-4.23-3.05-1.25-6.09-2.68-8.92-4.39-1.36-.82-2.6,1.31-1.25,2.13h0Z"/>
      <path class="cls-43" d="M409.42,222.77h24c1.59,0,1.59-2.47,0-2.47h-24c-1.59,0-1.59,2.47,0,2.47h0Z"/>
      <path class="cls-43" d="M416.3,220.97v-5.36c0-.65-.57-1.26-1.23-1.23s-1.23,.54-1.23,1.23v5.36c0,.65,.57,1.26,1.23,1.23s1.23-.54,1.23-1.23h0Z"/>
      <path class="cls-43" d="M420.81,221.26v-12.14c0-1.59-2.47-1.59-2.47,0v12.14c0,1.59,2.47,1.59,2.47,0h0Z"/>
      <path class="cls-43" d="M356.1,215.38l5.39-5.05c.46-.43-.23-1.11-.68-.68l-5.39,5.05c-.46,.43,.23,1.11,.68,.68h0Z"/>
      <path class="cls-43" d="M359.58,215.38l5.39-5.05c.46-.43-.23-1.11-.68-.68l-5.39,5.05c-.46,.43,.23,1.11,.68,.68h0Z"/>
      <path class="cls-49" d="M378.8,159.13c2.22,5.68,7.5,9.79,13.62,10.3s12.29-3.06,15.14-8.47c.9-1.71-1.69-3.22-2.59-1.51-2.34,4.44-7.15,7.29-12.19,7.01s-9.34-3.65-11.08-8.12c-.69-1.78-3.6-1-2.89,.8h0Z"/>
      <path class="cls-43" d="M380.98,157.23c1.82,5.39,6.78,9.54,12.54,9.86,5.89,.33,11.25-3.59,13.47-8.9,.55-1.31-1.59-1.88-2.13-.59-1.85,4.42-6.51,7.54-11.34,7.27-4.74-.26-8.92-3.82-10.41-8.24-.45-1.34-2.59-.77-2.13,.59h0Z"/>
      <path class="cls-49" d="M368.95,156.22c0,5.58,0,11.17,0,16.75,0,1.93,3,1.93,3,0,0-5.58,0-11.17,0-16.75,0-1.93-3-1.93-3,0h0Z"/>
      <path class="cls-47" d="M368.6,178.96c-.56,6.55,1.55,13.13,5.68,18.23s10.34,8.24,16.84,8.97,12.86-1.24,17.94-5.17c5.56-4.31,8.73-10.63,10.04-17.46,.84-4.37,.53-8.8,.42-13.22s-.24-9.16-.36-13.74c-.05-1.93-3.05-1.93-3,0,.1,3.76,.19,7.52,.29,11.28s.33,7.29,.2,10.92c-.23,6.41-2.61,13.23-7.17,17.84-4.01,4.05-9.52,6.57-15.24,6.68s-11.77-2.11-16-6.22c-4.83-4.69-7.21-11.45-6.64-18.13,.16-1.92-2.84-1.91-3,0h0Z"/>
      <path class="cls-43" d="M375.94,197.13c-3.37-3.76-5.57-8.52-6.1-13.56-.19-1.83-.12-3.67-.11-5.5,.06-5.69,.11-11.38,.17-17.07,.02-1.64,.03-3.28,.05-4.93s-2.45-1.59-2.47,0c-.04,4.44-.09,8.87-.13,13.31l-.08,8.44c-.02,1.91-.09,3.84,.1,5.75,.58,5.72,2.99,11.03,6.82,15.31,1.06,1.19,2.8-.56,1.74-1.74h0Z"/>
      <path class="cls-43" d="M418.24,155.07c-.07,7.55-.15,15.09-.22,22.64-.04,3.99-.14,7.83-1.53,11.65-2.28,6.22-7.26,11.36-13.38,13.89-8.02,3.33-17.23,1.95-24.11-3.26-1.26-.96-2.5,1.18-1.25,2.13,6.47,4.91,14.99,6.62,22.85,4.56,6.68-1.74,12.52-6.16,16.07-12.07,2.73-4.55,3.73-9.57,3.79-14.81,.04-4.47,.09-8.94,.13-13.41,.04-3.77,.07-7.55,.11-11.32,.02-1.59-2.45-1.59-2.47,0h0Z"/>
      <path class="cls-47" d="M307.64,253.98c-.42,5.52,1.18,11.29,4.53,15.72,1.65,2.18,3.72,4.06,6.17,5.29,3.05,1.53,6.39,2.01,9.73,2.43,7.46,.95,14.95,1.6,22.48,1.47,3.77-.07,7.54-.33,11.29-.82,2.38-.31,5.69-.14,7.03-2.55,.42-.75,.43-1.78,1.07-2.39,.52-.49,1.29-.68,1.84-1.16,.97-.86,1.02-2.15,.05-3.03-.86-.79-1.93-.82-2.38-1.99-.66-1.71-.08-3.75,1.38-4.86s.02-3.76-1.51-2.59c-2.34,1.79-3.59,4.53-2.97,7.48,.26,1.21,.83,2.55,1.88,3.28,.32,.22,.67,.39,1.01,.57,.11,.06,.49,.34,.61,.34-.48,.13-.48-.36-.01-1.47l-.2,.11c-1.22,.25-2.42,1.7-2.87,2.77-.19,.45-.27,1.22-.6,1.6s-.94,.44-1.4,.51c-3.19,.48-6.43,.81-9.65,1.01-7.11,.43-14.26,.12-21.34-.61-5.94-.62-12.82-.79-17.4-5.15-4.25-4.05-6.18-10.19-5.74-15.97,.15-1.93-2.85-1.92-3,0h0Z"/>
      <path class="cls-43" d="M382.87,149.4c-19.81,3.22-37.47,16.49-49,32.52-5.64,7.85-9.93,16.64-12.74,25.88-1.18,3.89-2.35,7.78-3.53,11.66-1.39,4.6-2.79,9.21-4.18,13.81-.46,1.52,1.92,2.17,2.38,.66,2.52-8.33,5.04-16.67,7.56-25,5.09-16.81,15.09-31.86,28.93-42.74,9.1-7.15,19.75-12.54,31.24-14.41,1.56-.25,.9-2.63-.66-2.38h0Z"/>
      <path class="cls-47" d="M348.27,214.19c1.93,0,1.93-3,0-3s-1.93,3,0,3h0Z"/>
      <path class="cls-47" d="M343,240.55c.07-6.76,.17-13.52,.17-20.28l-.44,1.06c3.71-4.62,7.62-9.13,11.15-13.88,.53-.72,.5-1.28,.5-2.1v-24.65c0-1.93-3-1.93-3,0v25.62l.44-1.06c-3.5,4.36-7,8.72-10.5,13.08-.54,.67-1.11,1.23-1.14,2.14-.04,1.07,0,2.15,0,3.22-.02,2.78-.06,5.57-.09,8.35s-.06,5.68-.09,8.52c-.02,1.93,2.98,1.93,3,0h0Z"/>
      <path class="cls-43" d="M353.72,163.25c0,4.67,0,9.33,0,14v21.92c0,2.52-.17,5.1,0,7.62,.06,.83-.09-.23,.16-.22-.09,0-.45,.59-.51,.66l-2.79,3.61-6.78,8.78c-.44,.57-.81,.94-.87,1.67-.07,.91,0,1.86,0,2.77v21.16c0,1.59,2.47,1.59,2.47,0v-22.95c0-.3,.07-.7,0-.99-.08-.32-.44,.63-.03,.31,.86-.68,1.55-2.01,2.22-2.88l3.72-4.82,3.35-4.34c.49-.63,1.35-1.4,1.5-2.21,.1-.53,.02-1.13,.02-1.66v-26.58c0-4.97,0-9.95,0-14.92v-.94c0-1.59-2.47-1.59-2.47,0h0Z"/>
      <path class="cls-47" d="M449.92,244.55c-.07-6.08-.13-12.15-.2-18.23,0-.67-.01-1.33-.01-2v-2.78c0-.68,.13-1.55-.2-2.18-.41-.76-1.13-1.46-1.66-2.14l-3.39-4.38c-1.96-2.53-3.92-5.06-5.89-7.6l.44,1.06v-39.34c0-1.93-3-1.93-3,0v37.02c0,.76-.08,1.56,0,2.32,.13,1.26,1.7,2.69,2.44,3.65,2.9,3.75,5.8,7.49,8.7,11.24l-.44-1.06c0,6.88,.09,13.76,.17,20.64l.04,3.78c.02,1.93,3.02,1.93,3,0h0Z"/>
      <path class="cls-43" d="M434.04,163.25c0,4.67,0,9.33,0,14,0,7.31,0,14.62,0,21.92,0,2.54-.05,5.08,0,7.62,.01,.58,.14,.98,.49,1.44l2.56,3.32c2.31,2.99,4.63,5.99,6.94,8.98,.25,.32,.51,.82,.83,1.07,.41,.32,.05-.62-.03-.31-.2,.81,0,1.94,0,2.77,0,6.89,0,13.77,0,20.66v.51c0,1.59,2.47,1.59,2.47,0,0-6.22,0-12.44,0-18.67v-4.28c0-.6,.09-1.27-.21-1.81-.5-.89-1.31-1.7-1.94-2.51l-3.64-4.72-3.48-4.5c-.18-.23-1.38-2.19-1.68-2.17,.26,0,.11,1.04,.16,.22,.02-.36,0-.74,0-1.1v-3.92c0-7.55,0-15.11,0-22.66,0-4.97,0-9.95,0-14.92v-.94c0-1.59-2.47-1.59-2.47,0h0Z"/>
      <path class="cls-43" d="M452.18,184.63c5.12,8.58,8.84,18.02,10.6,27.87,1.05,5.92,1.03,11.92,1.21,17.91,.06,2.09,.13,4.17,.19,6.26,.05,1.58,2.52,1.59,2.47,0-.13-4.16-.25-8.33-.38-12.49-.26-8.68-1.63-17.04-4.58-25.24-1.95-5.41-4.43-10.61-7.37-15.55-.81-1.36-2.95-.12-2.13,1.25h0Z"/>
      <path class="cls-43" d="M403.98,152.13c14.18,.54,27.01,7.68,36.8,17.66,2.87,2.93,5.5,6.1,7.88,9.44,.91,1.28,3.05,.05,2.13-1.25-8.53-11.98-20.3-22.17-34.62-26.36-3.96-1.16-8.07-1.81-12.19-1.97-1.59-.06-1.59,2.41,0,2.47h0Z"/>
      <path class="cls-46" d="M346.93,282.94c3.48,.24,6.97,.2,10.44-.15,1.71-.17,3.41-.4,5.1-.71s3.41-.82,5.13-1.13c.82-.15,.81-.03,1.25,.61,.36,.53,.83,.99,1.38,1.32,1.14,.67,2.49,.82,3.78,.84,3.67,.04,7.34-.11,11.01-.18l-1.5-1.5c0,1.26-.02,2.49,.47,3.69,.65,1.6,1.91,2.87,3.52,3.52,1.4,.57,2.9,.47,4.38,.47h17.52c1.93,0,1.93-3,0-3-6.46,0-12.92,.08-19.37,0-1.01-.01-1.96-.32-2.65-1.09-.93-1.04-.87-2.28-.87-3.58,0-.8-.69-1.51-1.5-1.5-3.61,.06-7.22,.19-10.83,.18-.68,0-1.4,0-2.05-.24-.61-.22-.76-.58-1.1-1.09-.83-1.23-2.1-1.64-3.54-1.45-1.57,.2-3.12,.72-4.67,1.03-1.73,.34-3.48,.61-5.24,.8-3.55,.37-7.12,.41-10.67,.17-1.93-.13-1.92,2.87,0,3h0Z"/>
      <path class="cls-43" d="M311.74,238.82c-1.04,3.43-2.08,6.86-3.11,10.29-.52,1.73-1.26,3.4-1.66,5.17-.67,2.99-.65,6.1,.06,9.08,1.41,5.91,5.6,11.07,11.16,13.55,3.3,1.47,6.93,1.86,10.48,2.35,4.2,.58,8.41,1.03,12.65,1.28,9.35,.55,18.88,.18,27.99-2.16,1.54-.39,.89-2.77-.66-2.38-7.67,1.97-15.64,2.47-23.53,2.24-4.08-.12-8.16-.44-12.22-.91-3.67-.42-7.53-.76-11.11-1.74-5.6-1.53-10.14-5.87-11.95-11.38-.9-2.72-1.15-5.65-.65-8.48,.33-1.88,1.11-3.6,1.65-5.42,1.09-3.62,2.19-7.23,3.28-10.85,.46-1.52-1.92-2.17-2.38-.66h0Z"/>
      <g>
        <polygon class="cls-17" points="410.47 285.31 387.53 284.99 383.23 234.34 414.45 234.34 410.47 285.31"/>
        <g>
          <rect class="cls-33" x="386.22" y="262.39" width="25.86" height="2.35"/>
          <polygon class="cls-33" points="414.59 235.22 414.37 237.86 382.7 237.86 382.47 235.22 414.59 235.22"/>
          <path class="cls-43" d="M408.41,287.22h-19.16c-1.79,0-3.28-1.38-3.43-3.16l-4.13-49.92c-.05-.6,.39-1.12,.98-1.18,.03,0,.07,0,.1,0h32.12c.3,0,.59,.12,.8,.35,.21,.22,.32,.53,.29,.83l-2.76,32.89c-.05,.6-.57,1.04-1.17,1-.6-.05-1.04-.57-1-1.17l2.62-31.72h-29.7l4.04,48.75c.06,.65,.6,1.16,1.26,1.16h19.16c.66,0,1.2-.51,1.26-1.16l1.01-12.13c.05-.6,.57-1.04,1.16-1,0,0,.01,0,.02,0,.6,.05,1.04,.57,1,1.16,0,0,0,.01,0,.02l-1.01,12.12c-.16,1.79-1.66,3.16-3.46,3.16Z"/>
          <rect class="cls-17" x="377.67" y="229.34" width="42.31" height="5.09"/>
          <path class="cls-43" d="M417.43,235.71h-37.21c-1.99,0-3.6-1.61-3.6-3.6s1.61-3.6,3.6-3.6h37.21c1.99,0,3.6,1.61,3.6,3.6s-1.61,3.6-3.6,3.6Zm-37.21-5.09c-.83,0-1.49,.67-1.49,1.49s.67,1.49,1.49,1.49h37.21c.83,0,1.49-.67,1.49-1.49s-.67-1.49-1.49-1.49h-37.21Z"/>
          <path class="cls-43" d="M383.75,230.31h0c-.43-.02-.76-.39-.74-.82,0,0,0,0,0,0,0-.24,.39-5.83,5.2-7.66,.41-.16,.87,.04,1.03,.44,.04,.09,.06,.19,.06,.29v6.5c0,.43-.35,.78-.78,.78s-.78-.35-.78-.78v-5.24c-2.89,1.84-3.14,5.72-3.15,5.76-.02,.42-.38,.75-.81,.73,0,0-.02,0-.03,0Z"/>
          <circle class="cls-17" cx="403.67" cy="242.12" r=".22"/>
          <circle class="cls-33" cx="405.96" cy="238.52" r="1.69"/>
          <circle class="cls-33" cx="409.3" cy="241.43" r=".48"/>
          <circle class="cls-33" cx="410.59" cy="238.66" r=".44"/>
          <circle class="cls-33" cx="402.83" cy="237.82" r="1.06"/>
          <circle class="cls-33" cx="406.29" cy="244.5" r=".4"/>
          <polygon class="cls-4" points="380.66 243 382.04 261.01 416.07 261.01 417.64 243 380.66 243"/>
          <path class="cls-43" d="M415.87,262.69h-34.07c-.57,0-1.04-.44-1.08-1.01l-1.37-18.02c-.05-.6,.4-1.12,.99-1.17,.03,0,.06,0,.09,0h36.96c.31,0,.6,.12,.81,.35,.21,.23,.31,.53,.28,.83l-1.57,18.02c-.04,.55-.5,.98-1.05,1Zm-33.02-2.17h32.02l1.38-15.84h-34.6l1.2,15.84Z"/>
          <path class="cls-43" d="M391.61,248.79h-9.75c-.28-.04-.47-.3-.43-.58,.03-.22,.21-.4,.43-.43h9.75c.28-.04,.54,.15,.58,.43s-.15,.54-.43,.58c-.05,0-.1,0-.15,0Z"/>
        </g>
      </g>
      <g>
        <g>
          <rect class="cls-15" x="369.9" y="271.01" width="24.11" height="9.04" rx="4.52" ry="4.52"/>
          <rect class="cls-15" x="369.9" y="261.09" width="24.11" height="9.04" rx="4.52" ry="4.52"/>
          <rect class="cls-15" x="369.9" y="251.17" width="24.11" height="9.04" rx="4.52" ry="4.52"/>
        </g>
        <path class="cls-43" d="M389.23,280.9h-15.07c-2.96,0-5.37-2.41-5.37-5.37s2.41-5.37,5.37-5.37h15.07c2.96,0,5.37,2.41,5.37,5.37s-2.41,5.37-5.37,5.37Zm-15.07-9.04c-2.03,0-3.68,1.65-3.68,3.68s1.65,3.68,3.68,3.68h15.07c2.03,0,3.68-1.65,3.68-3.68s-1.65-3.68-3.68-3.68h-15.07Z"/>
        <path class="cls-43" d="M389.23,270.98h-15.07c-2.96,0-5.37-2.41-5.37-5.37s2.41-5.37,5.37-5.37h15.07c2.96,0,5.37,2.41,5.37,5.37s-2.41,5.37-5.37,5.37Zm-15.07-9.04c-2.03,0-3.68,1.65-3.68,3.68s1.65,3.68,3.68,3.68h15.07c2.03,0,3.68-1.65,3.68-3.68s-1.65-3.68-3.68-3.68h-15.07Z"/>
        <path class="cls-43" d="M389.23,261.06h-15.07c-2.96,0-5.37-2.41-5.37-5.37s2.41-5.37,5.37-5.37h15.07c2.96,0,5.37,2.41,5.37,5.37s-2.41,5.37-5.37,5.37Zm-15.07-9.04c-2.03,0-3.68,1.65-3.68,3.68s1.65,3.67,3.68,3.67h15.07c2.03,0,3.68-1.65,3.68-3.67s-1.65-3.68-3.68-3.68h-15.07Z"/>
      </g>
      <path class="cls-43" d="M311.85,262.27c2.12,7.96,10.03,11.99,17.69,12.76,.62,.06,.61-.91,0-.97-7.23-.72-14.76-4.54-16.76-12.05-.16-.6-1.09-.35-.93,.26h0Z"/>
      <rect class="cls-25" x="374.4" y="252.61" width="14.89" height="3.66" rx="1.83" ry="1.83"/>
      <rect class="cls-25" x="374.4" y="262.91" width="14.89" height="3.66" rx="1.83" ry="1.83"/>
      <g>
        <rect class="cls-3" x="423.84" y="208.7" width="5.26" height="12.61" rx="2.63" ry="2.63"/>
        <path class="cls-43" d="M426.47,222.05c-1.86,0-3.37-1.51-3.37-3.37v-7.35c0-1.86,1.51-3.37,3.37-3.37s3.37,1.51,3.37,3.37v7.35c0,1.86-1.51,3.37-3.37,3.37Zm0-12.61c-1.04,0-1.88,.85-1.88,1.88v7.35c0,1.04,.85,1.88,1.88,1.88s1.88-.85,1.88-1.88v-7.35c0-1.04-.85-1.88-1.88-1.88Z"/>
      </g>
      <path class="cls-43" d="M343.07,288.9c-2.25,1.34-4.69,2.33-7.26,2.89-1.22,.27-2.53,.43-3.75,.07-.78-.23-1.72-.72-1.41-1.67,.69-2.1,3.52-2.65,5.36-2.04,1.11,.37,2.1,1.05,3.07,1.68,1.2,.78,2.39,1.57,3.59,2.35,1.33,.87,2.57-1.26,1.25-2.13-2.16-1.41-4.3-3.1-6.7-4.07-2.25-.92-4.86-.7-6.84,.77s-3.2,4.08-1.38,6.11,4.77,1.85,7.09,1.39c2.89-.57,5.69-1.72,8.21-3.22,1.36-.81,.12-2.95-1.25-2.13h0Z"/>
      <path class="cls-43" d="M339.66,301.15c-.2-3.56,1.55-7.13,4.6-9.07,.56-.36,.79-1.1,.44-1.69-.33-.56-1.12-.8-1.69-.44-3.74,2.38-6.06,6.75-5.82,11.2,.04,.67,.54,1.23,1.23,1.23,.64,0,1.27-.57,1.23-1.23h0Z"/>
      <path class="cls-16" d="M379.54,20.21c-.53-1.36-2.23-1.86-3.69-1.81-1.64,.06-3.37,.67-4.3,2.02s-.74,3.51,.69,4.33c1.57,.91,3.69-.11,5.35,.63,.81,.37,1.39,1.1,2.05,1.7,.97,.87,2.24,1.46,3.54,1.41s2.6-.85,3.05-2.07c.71-1.96-.89-4.01-2.64-5.13-2.05-1.31-4.59-2.04-6.95-1.42"/>
      <path class="cls-34" d="M401.23,259.74h10.73c.81,0,1.5-.69,1.5-1.5s-.69-1.5-1.5-1.5h-10.73c-.81,0-1.5,.69-1.5,1.5s.69,1.5,1.5,1.5h0Z"/>
      <path class="cls-43" d="M481.57,229.72c10.92,0,21.84,0,32.75,0,1.45,0,1.45-2.25,0-2.25-10.92,0-21.84,0-32.75,0-1.45,0-1.45,2.25,0,2.25h0Z"/>
    </g>
  </g>
</svg>