<svg xmlns="http://www.w3.org/2000/svg" viewBox="0 0 193.06055 190.74707">
  <defs>
    <style>
      .cls-1, .cls-2, .cls-3 {
        fill: #f9d606;
      }

      .cls-2 {
        opacity: 0.2;
      }

      .cls-3 {
        opacity: 0.52;
      }

      .cls-18, .cls-19, .cls-4, .cls-7 {
        fill: #9cef65;
      }

      .cls-4 {
        opacity: 0.55;
      }

      .cls-5 {
        fill: #74ce3a;
      }

      .cls-6 {
        fill: #b0cacc;
      }

      .cls-21, .cls-50, .cls-7 {
        opacity: 0.21;
      }

      .cls-27, .cls-37, .cls-38, .cls-8 {
        fill: #fff;
      }

      .cls-9 {
        fill: #ede6e6;
      }

      .cls-10 {
        fill: #dae4e5;
      }

      .cls-11 {
        fill: #415e6d;
      }

      .cls-12 {
        fill: #f28d33;
      }

      .cls-13 {
        fill: #fcd9b5;
      }

      .cls-14 {
        fill: #f9b56d;
      }

      .cls-15 {
        fill: #dcfaff;
      }

      .cls-16 {
        fill: #84c7ce;
      }

      .cls-17 {
        fill: #c3e9ed;
      }

      .cls-18 {
        opacity: 0.5;
      }

      .cls-20 {
        fill: #40aaf2;
      }

      .cls-21, .cls-22, .cls-25 {
        fill: #7fccf7;
      }

      .cls-23 {
        fill: #fdc6a2;
      }

      .cls-24 {
        fill: #f4a376;
      }

      .cls-25 {
        opacity: 0.57;
      }

      .cls-26 {
        fill: #99b9ba;
      }

      .cls-27 {
        opacity: 0.55;
      }

      .cls-27, .cls-30, .cls-36, .cls-37, .cls-38 {
        isolation: isolate;
      }

      .cls-28 {
        fill: #000201;
      }

      .cls-29 {
        fill: #e89176;
      }

      .cls-30, .cls-31 {
        fill: #ff9976;
      }

      .cls-30 {
        opacity: 0.25;
      }

      .cls-32 {
        fill: #5e5e5e;
      }

      .cls-33, .cls-36 {
        fill: #303030;
      }

      .cls-34 {
        fill: #f9968f;
      }

      .cls-35 {
        fill: #e25959;
      }

      .cls-36 {
        opacity: 0.29;
      }

      .cls-37 {
        opacity: 0.6;
      }

      .cls-38 {
        opacity: 0.35;
      }

      .cls-39 {
        fill: #7b93ee;
      }

      .cls-40 {
        fill: #72def8;
      }

      .cls-41 {
        fill: #8eaeba;
      }

      .cls-42 {
        fill: #2e4751;
      }

      .cls-43 {
        fill: #140c10;
      }

      .cls-44 {
        fill: #f8e760;
      }

      .cls-45 {
        fill: #f21d1d;
      }

      .cls-46 {
        fill: #c90e0e;
      }

      .cls-47 {
        fill: #21363d;
      }

      .cls-48 {
        fill: #2a444f;
      }

      .cls-49 {
        fill: #5f7c87;
      }

      .cls-51 {
        fill: #23ef06;
      }
    </style>
  </defs>
  <g id="Layer_2" data-name="Layer 2">
    <g id="Layer_1-2" data-name="Layer 1">
      <g>
        <path class="cls-1" d="M5.53735,101.0611H52.57251a24.68943,24.68943,0,0,1-47.03516,0Z"/>
        <path class="cls-2" d="M53.19229,88.2814H4.91735a24.69684,24.69684,0,0,1,48.27494,0Z"/>
        <path class="cls-3" d="M53.75732,93.77382a15.1417,15.1417,0,0,1-1.18481,5.85137H5.53735a14.95925,14.95925,0,0,1-.62-9.90789H53.19229A15.14088,15.14088,0,0,1,53.75732,93.77382Z"/>
        <path class="cls-4" d="M121.522,94.98687a13.48388,13.48388,0,0,1-1.18481,5.4968H73.30206a13.25606,13.25606,0,0,1-.62-9.30749H120.957A13.4202,13.4202,0,0,1,121.522,94.98687Z"/>
        <path class="cls-5" d="M73.30206,102.21977h47.03516a24.68943,24.68943,0,0,1-47.03516,0Z"/>
        <g>
          <rect class="cls-6" x="106.94443" y="98.26698" width="2.96844" height="5.80504" transform="translate(-9.63293 11.42819) rotate(-5.77713)"/>
          <path d="M107.24414,104.4707a.26566.26566,0,0,1-.167-.05957.26193.26193,0,0,1-.0957-.17822l-.584-5.77539a.26374.26374,0,0,1,.23633-.28906l2.50976-.25391a.70792.70792,0,0,1,.77735.63379l.49414,4.88965a.70921.70921,0,0,1-.63477.77734h0l-2.50976.25391Zm2.50977-.51806h0Zm-2.80469-5.28516.53125,5.25,2.24707-.22754a.184.184,0,0,0,.123-.06592.18014.18014,0,0,0,.03906-.13232l-.49414-4.88965a.17749.17749,0,0,0-.19922-.16211Z"/>
        </g>
        <path d="M96.82715,124.09912a29.43623,29.43623,0,1,1,27.98926-20.44971A29.26839,29.26839,0,0,1,96.82715,124.09912Zm0-57.33545a27.88556,27.88556,0,1,0,27.26562,21.99658A28.01255,28.01255,0,0,0,96.82715,66.76367Z"/>
        <path d="M84.86719,97.65234a4.41773,4.41773,0,1,1,0-8.83545.3379.3379,0,0,1,0,.67579,3.74194,3.74194,0,1,0,0,7.48388.33789.33789,0,1,1,0,.67578Z"/>
        <path class="cls-7" d="M120.957,89.44007H72.68205a24.69685,24.69685,0,0,1,48.27495,0Z"/>
        <g>
          <rect class="cls-6" x="91.9346" y="88.74097" width="2.31293" height="2.31293"/>
          <rect class="cls-6" x="98.17397" y="88.74097" width="2.31293" height="2.31293"/>
        </g>
        <path d="M29.41016,122.65234A29.43608,29.43608,0,0,1,0,93.22656,29.463,29.463,0,0,1,29.41016,63.81689a29.41774,29.41774,0,0,1,0,58.83545Zm0-57.33545A27.885,27.885,0,1,0,56.67578,87.313,28.01261,28.01261,0,0,0,29.41016,65.31689Z"/>
        <circle class="cls-8" cx="40.19391" cy="77.12916" r="0.47877"/>
        <circle class="cls-8" cx="10.46632" cy="92.0697" r="0.47877"/>
        <circle class="cls-8" cx="30.61914" cy="92.54848" r="0.47877"/>
        <circle class="cls-8" cx="22.09978" cy="112.04613" r="0.47877"/>
        <circle class="cls-8" cx="15.9016" cy="78.25807" r="0.47877"/>
        <circle class="cls-8" cx="43.18805" cy="109.08546" r="0.83944"/>
        <circle class="cls-8" cx="49.85448" cy="90.08799" r="0.83944"/>
        <circle class="cls-8" cx="15.06216" cy="106.05866" r="0.83944"/>
        <path class="cls-8" d="M17.19589,100.64749a5.96605,5.96605,0,0,1,0-11.9321Z"/>
        <path class="cls-8" d="M41.60877,100.64749a5.966,5.966,0,0,0,0-11.9321Z"/>
        <rect class="cls-9" x="25.2557" y="105.79385" width="8.07229" height="3.29161" rx="1.64581"/>
        <path d="M38.709,107.85205H33.54883a.4126.4126,0,1,1,0-.82519H38.709a4.07117,4.07117,0,0,0,4.06641-4.0669V94.91357a.41309.41309,0,0,1,.82617,0V102.96A4.898,4.898,0,0,1,38.709,107.85205Z"/>
        <path d="M38.61914,106.09814H34.81543a.3042.3042,0,1,1,0-.60839h3.80371a3.0012,3.0012,0,0,0,2.998-2.99805V96.55957a.30469.30469,0,0,1,.60937,0v5.93213A3.61083,3.61083,0,0,1,38.61914,106.09814Z"/>
        <path class="cls-10" d="M17.19589,100.64749c-2.58674,0-4.6837-2.67109-4.6837-5.96605s2.097-5.966,4.6837-5.966Z"/>
        <path class="cls-10" d="M41.60877,100.64749c2.58673,0,4.68369-2.67109,4.68369-5.96605s-2.097-5.966-4.68369-5.966Z"/>
        <path d="M41.6084,101.11328a.46543.46543,0,0,1-.46582-.46582V97.72119a.46582.46582,0,1,1,.93164,0v2.44043a5.49989,5.49989,0,0,0,0-10.96045v6.12012a.46582.46582,0,0,1-.93164,0v-6.606a.46544.46544,0,0,1,.46582-.46582,6.43189,6.43189,0,1,1,0,12.86377Z"/>
        <path class="cls-11" d="M39.86988,86.96344c0-5.40768-4.68648-9.79147-10.46755-9.79147s-10.46755,4.38379-10.46755,9.79147l-1.87239-.56209c0-6.375,5.52478-11.54292,12.33994-11.54292s12.33994,5.16794,12.33994,11.54292"/>
        <path d="M29.81348,58.83545A29.433,29.433,0,0,1,.4043,29.40967a29.40385,29.40385,0,0,1,58.1416-6.229,29.54132,29.54132,0,0,1,.66211,6.229A29.43685,29.43685,0,0,1,29.81348,58.83545Zm0-57.33545A27.91774,27.91774,0,1,0,56.374,37.92822a27.72188,27.72188,0,0,0,1.334-8.51855A27.885,27.885,0,0,0,29.81348,1.5Z"/>
        <g>
          <path class="cls-12" d="M6.28859,36.956H53.32375a24.68943,24.68943,0,0,1-47.03516,0Z"/>
          <path class="cls-13" d="M53.94353,24.17627H5.66859a24.69684,24.69684,0,0,1,48.27494,0Z"/>
          <path class="cls-14" d="M54.50857,29.66869a15.14152,15.14152,0,0,1-1.18482,5.85137H6.28859a14.95942,14.95942,0,0,1-.62-9.90789H53.94353A15.14049,15.14049,0,0,1,54.50857,29.66869Z"/>
        </g>
        <circle class="cls-8" cx="40.59765" cy="13.3122" r="0.47877"/>
        <circle class="cls-8" cx="10.87005" cy="28.25274" r="0.47877"/>
        <circle class="cls-8" cx="31.02287" cy="28.73152" r="0.47877"/>
        <circle class="cls-8" cx="22.50351" cy="48.22917" r="0.47877"/>
        <circle class="cls-8" cx="16.30534" cy="14.44111" r="0.47877"/>
        <circle class="cls-8" cx="41.43709" cy="40.51013" r="0.83944"/>
        <circle class="cls-8" cx="50.25821" cy="26.27103" r="0.83944"/>
        <circle class="cls-8" cx="15.46589" cy="42.2417" r="0.83944"/>
        <path class="cls-8" d="M35.568,46.39923H24.04437a3.99758,3.99758,0,0,1-3.99758-3.99758V16.01894a3.99758,3.99758,0,0,1,3.99758-3.99758H35.568a3.99758,3.99758,0,0,1,3.99758,3.99758V42.40165A3.99758,3.99758,0,0,1,35.568,46.39923Z"/>
        <path class="cls-15" d="M39.56875,16.16942V42.25116H20.04359V16.16942Z"/>
        <path class="cls-16" d="M20.92285,42.25684a.60359.60359,0,0,1-.60351-.60352V16.76465a.60359.60359,0,0,1,.60351-.60352H39.21973a.60352.60352,0,0,1,0,1.207H21.52637V41.65332A.6036.6036,0,0,1,20.92285,42.25684Z"/>
        <path d="M24.41211,16.68506H20.04688a.34522.34522,0,1,1,0-.69043h4.36523a.34522.34522,0,1,1,0,.69043Z"/>
        <path d="M23.50781,42.7666H20.04688a.34522.34522,0,1,1,0-.69043h3.46093a.34522.34522,0,1,1,0,.69043Z"/>
        <path class="cls-17" d="M32.61621,45.16455h-5.7334a.5.5,0,0,1,0-1h5.7334a.5.5,0,0,1,0,1Z"/>
        <path class="cls-8" d="M38.82129,39.04736a.60359.60359,0,0,1-.60352-.60351V32.4209a.60352.60352,0,1,1,1.207,0v6.02295A.60359.60359,0,0,1,38.82129,39.04736Z"/>
        <path class="cls-8" d="M38.82129,28.93994a.60359.60359,0,0,1-.60352-.60351V22.313a.60352.60352,0,1,1,1.207,0v6.02344A.60359.60359,0,0,1,38.82129,28.93994Z"/>
        <path d="M35.56836,46.86523H24.044a4.46793,4.46793,0,0,1-4.4629-4.46337V16.019a4.46794,4.46794,0,0,1,4.4629-4.46338H35.56836A4.46793,4.46793,0,0,1,40.03125,16.019V42.40186A4.46793,4.46793,0,0,1,35.56836,46.86523ZM24.044,12.4873A3.5355,3.5355,0,0,0,20.5127,16.019V42.40186A3.5355,3.5355,0,0,0,24.044,45.93359H35.56836a3.5355,3.5355,0,0,0,3.53125-3.53173V16.019a3.53551,3.53551,0,0,0-3.53125-3.53174Z"/>
        <path d="M32.67285,44.66406h-5.7334a.36719.36719,0,0,1,0-.73437h5.7334a.36719.36719,0,1,1,0,.73437Z"/>
        <g>
          <path d="M31.3584,15.31152a.87036.87036,0,1,1,.87012-.8706A.87074.87074,0,0,1,31.3584,15.31152Zm0-1.3374a.467.467,0,1,0,.46777.4668A.46773.46773,0,0,0,31.3584,13.97412Z"/>
          <path d="M29.82227,14.64258H26.77734a.20166.20166,0,0,1,0-.40332h3.04493a.20166.20166,0,0,1,0,.40332Z"/>
        </g>
        <path d="M31.03027,188.6167A29.43246,29.43246,0,0,1,1.62109,159.19141a29.40187,29.40187,0,1,1,58.80371,0A29.4326,29.4326,0,0,1,31.03027,188.6167Zm0-57.335A27.885,27.885,0,1,0,58.2959,153.27783,28.01261,28.01261,0,0,0,31.03027,131.28174Z"/>
        <path class="cls-12" d="M7.5054,166.73753H54.54056a24.68943,24.68943,0,0,1-47.03516,0Z"/>
        <path class="cls-13" d="M55.42529,153.87135H7.15035a24.69684,24.69684,0,0,1,48.27494,0Z"/>
        <path class="cls-13" d="M124.50292,155.84184H76.228a24.69684,24.69684,0,0,1,48.27494,0Z"/>
        <path class="cls-14" d="M55.72538,159.45025a15.14149,15.14149,0,0,1-1.18482,5.85137H7.5054a14.95939,14.95939,0,0,1-.62-9.90788H55.16034A15.14047,15.14047,0,0,1,55.72538,159.45025Z"/>
        <circle class="cls-8" cx="41.81446" cy="143.09376" r="0.47877"/>
        <circle class="cls-8" cx="12.08686" cy="158.0343" r="0.47877"/>
        <circle class="cls-8" cx="32.23968" cy="158.51308" r="0.47877"/>
        <circle class="cls-8" cx="23.72033" cy="178.01074" r="0.47877"/>
        <circle class="cls-8" cx="17.52215" cy="144.22267" r="0.47877"/>
        <circle class="cls-8" cx="42.6539" cy="170.2917" r="0.83944"/>
        <circle class="cls-8" cx="51.47502" cy="156.05259" r="0.83944"/>
        <circle class="cls-8" cx="16.6827" cy="172.02327" r="0.83944"/>
        <path class="cls-8" d="M36.78478,176.18079H25.26118a3.99758,3.99758,0,0,1-3.99758-3.99758V145.8005a3.99758,3.99758,0,0,1,3.99758-3.99758h11.5236a3.99758,3.99758,0,0,1,3.99758,3.99758v26.38271A3.99758,3.99758,0,0,1,36.78478,176.18079Z"/>
        <path class="cls-15" d="M40.78556,145.951v26.08173H21.26041V145.951Z"/>
        <path class="cls-16" d="M22.13965,172.03809a.6036.6036,0,0,1-.60352-.60352V146.54639a.6036.6036,0,0,1,.60352-.60352H40.43652a.60352.60352,0,1,1,0,1.207H22.74316v24.28467A.60359.60359,0,0,1,22.13965,172.03809Z"/>
        <path d="M25.62891,146.4668H21.26367a.34522.34522,0,1,1,0-.69043h4.36524a.34522.34522,0,1,1,0,.69043Z"/>
        <path d="M40.78223,146.4668H27.25293a.34522.34522,0,1,1,0-.69043h13.5293a.34522.34522,0,1,1,0,.69043Z"/>
        <path d="M24.72461,172.54834H21.26367a.34522.34522,0,1,1,0-.69043h3.46094a.34522.34522,0,1,1,0,.69043Z"/>
        <path d="M40.78223,172.54834H26.88379a.34522.34522,0,1,1,0-.69043H40.78223a.34522.34522,0,1,1,0,.69043Z"/>
        <path class="cls-17" d="M33.833,174.94629h-5.7334a.5.5,0,0,1,0-1H33.833a.5.5,0,0,1,0,1Z"/>
        <path class="cls-8" d="M40.03809,168.8291a.60359.60359,0,0,1-.60352-.60351v-6.02344a.60352.60352,0,1,1,1.207,0v6.02344A.60359.60359,0,0,1,40.03809,168.8291Z"/>
        <path class="cls-8" d="M40.03809,158.72168a.6036.6036,0,0,1-.60352-.60352v-6.02343a.60352.60352,0,1,1,1.207,0v6.02343A.60359.60359,0,0,1,40.03809,158.72168Z"/>
        <path d="M36.78516,176.64648H25.26074a4.46793,4.46793,0,0,1-4.46289-4.46337V145.80029a4.46793,4.46793,0,0,1,4.46289-4.46338H36.78516a4.46794,4.46794,0,0,1,4.46289,4.46338v26.38282A4.46793,4.46793,0,0,1,36.78516,176.64648ZM25.26074,142.26855a3.53551,3.53551,0,0,0-3.53125,3.53174v26.38282a3.5355,3.5355,0,0,0,3.53125,3.53173H36.78516a3.5355,3.5355,0,0,0,3.53125-3.53173V145.80029a3.53551,3.53551,0,0,0-3.53125-3.53174Z"/>
        <path d="M31.28809,144.82422a.87012.87012,0,1,1,.86914-.87012A.87148.87148,0,0,1,31.28809,144.82422Zm0-1.33692a.4668.4668,0,1,0,.46679.4668A.46794.46794,0,0,0,31.28809,143.4873Z"/>
        <path d="M33.88965,174.44531h-5.7334a.36719.36719,0,1,1,0-.73437h5.7334a.36719.36719,0,1,1,0,.73437Z"/>
        <path d="M96.82715,58.83545A29.43668,29.43668,0,0,1,67.417,29.40967a29.40236,29.40236,0,1,1,58.80469,0A29.43681,29.43681,0,0,1,96.82715,58.83545Zm0-57.33545a27.885,27.885,0,1,0,27.26562,21.99609A28.01262,28.01262,0,0,0,96.82715,1.5Z"/>
        <circle class="cls-8" cx="83.19831" cy="28.26915" r="0.47877"/>
        <path class="cls-5" d="M73.30194,36.956H120.3371a24.68943,24.68943,0,0,1-47.03516,0Z"/>
        <path class="cls-18" d="M120.95688,24.17627H72.68194a24.69684,24.69684,0,0,1,48.27494,0Z"/>
        <path class="cls-19" d="M121.52192,29.72307a13.48372,13.48372,0,0,1-1.18482,5.49679H73.30194a13.25612,13.25612,0,0,1-.62-9.30749h48.27494A13.41987,13.41987,0,0,1,121.52192,29.72307Z"/>
        <path d="M94.97754,47.70361a3.06811,3.06811,0,0,1-2.94629-2.24218l-1.33008-4.76856a2.38863,2.38863,0,0,0-4.60156,1.28369l.44531,1.59473a.33764.33764,0,1,1-.65039.18164l-.44531-1.59473a3.06391,3.06391,0,1,1,5.90234-1.647l1.33008,4.76856A2.38845,2.38845,0,0,0,95.624,46.938l1.52735-.42627a2.391,2.391,0,0,0,1.65918-2.9419l-1.13672-4.07275a.33764.33764,0,1,1,.65039-.18164l1.13672,4.07275A3.06435,3.06435,0,0,1,97.333,47.16309l-1.52735.42627A3.08493,3.08493,0,0,1,94.97754,47.70361Z"/>
        <path class="cls-8" d="M92.22821,22.71906c.4305,2.123,1.44609,6.31621,2.0339,8.39766a.63593.63593,0,0,0,.70535.51841l1.78562-.1958a2.176,2.176,0,0,1,2.40325,1.85991l1.25267,5.17194A2.17219,2.17219,0,0,1,99.12154,41.218l-3.265.55412a2.28811,2.28811,0,0,1-2.3952-1.13139,47.33491,47.33491,0,0,1-6.30315-26.02394,2.28812,2.28812,0,0,1,1.61206-2.102l3.265-.55412a2.17218,2.17218,0,0,1,2.40165,1.85333l1.25427,5.17852a2.1722,2.1722,0,0,1-1.28746,2.74686l-1.78555.19582A.636.636,0,0,0,92.22821,22.71906Z"/>
        <path class="cls-10" d="M93.247,22.48153c.4305,2.123,1.4461,6.31621,2.0339,8.39767a.63592.63592,0,0,0,.70535.5184l1.78563-.1958a2.176,2.176,0,0,1,2.40324,1.85992l1.25267,5.17193a2.1722,2.1722,0,0,1-1.28745,2.74686l-3.265.55412a2.28808,2.28808,0,0,1-2.39519-1.13139,46.72667,46.72667,0,0,1-5.03009-12.557,46.7262,46.7262,0,0,1-1.27306-13.46695,2.2881,2.2881,0,0,1,1.612-2.102l3.265-.55412a2.17218,2.17218,0,0,1,2.40165,1.85334L96.71,18.75505a2.17219,2.17219,0,0,1-1.28746,2.74686l-1.78555.19582A.636.636,0,0,0,93.247,22.48153Z"/>
        <path d="M95.89453,42.39307a3.28138,3.28138,0,0,1-2.59765-1.27149c-2.41895-3.13867-4.64063-8.72314-5.585-12.61767-.94238-3.89356-1.52246-9.87549-.80664-13.77491a3.2845,3.2845,0,0,1,2.46289-2.59277l3.31348-.80225a2.8356,2.8356,0,0,1,3.42578,2.085l1.25488,5.17822a2.83985,2.83985,0,0,1-2.09375,3.42138l-1.46386.355a.23727.23727,0,0,0-.17871.27587c.14746.76172.37207,1.79151.6289,2.89356a.46619.46619,0,0,1-.9082.21094c-.25879-1.11475-.4873-2.15625-.63672-2.92823a1.169,1.169,0,0,1,.876-1.35839l1.46386-.355a1.90629,1.90629,0,0,0,1.40625-2.29589l-1.25488-5.17823a1.904,1.904,0,0,0-2.30078-1.39795l-3.31348.80225A2.35354,2.35354,0,0,0,87.82129,14.897c-.69238,3.772-.12305,9.58985.79687,13.38721.9209,3.79883,3.07715,9.23291,5.417,12.26807a2.35124,2.35124,0,0,0,2.41894.8413l3.31348-.80224a1.90728,1.90728,0,0,0,1.40625-2.29639L99.9209,33.12354a1.90648,1.90648,0,0,0-2.30274-1.40479l-1.46386.35449a1.16746,1.16746,0,0,1-1.39942-.80713c-.29883-1.02-.416-1.41943-.77441-2.88672a.46637.46637,0,0,1,.90625-.2207c.35254,1.4458.46777,1.83936.73828,2.76123.06055.20654.19238.2749.30957.24707l1.46484-.35449a2.84031,2.84031,0,0,1,3.42774,2.09131l1.25293,5.17187a2.84083,2.84083,0,0,1-2.09375,3.42188l-3.31348.80224A3.31215,3.31215,0,0,1,95.89453,42.39307Z"/>
        <path d="M93.08105,14.71826a.26613.26613,0,0,1-.25878-.20361l-.626-2.584a.26623.26623,0,0,1,.51758-.125l.626,2.584a.26624.26624,0,0,1-.19629.32129A.27316.27316,0,0,1,93.08105,14.71826Z"/>
        <g>
          <path d="M100.55566,28.18115a.25291.25291,0,0,1-.05957-.49853,2.21106,2.21106,0,1,0-1.041-4.29785.24936.24936,0,0,1-.30469-.186.252.252,0,0,1,.18555-.30518,2.71652,2.71652,0,0,1,1.27929,5.28028A.25483.25483,0,0,1,100.55566,28.18115Z"/>
          <path d="M101.58984,29.87988a.25291.25291,0,0,1-.05957-.49853,4.10544,4.10544,0,0,0,1.1709-7.49512,4.06616,4.06616,0,0,0-3.10351-.48486.24848.24848,0,0,1-.30469-.186.252.252,0,0,1,.18555-.30517,4.61079,4.61079,0,0,1,2.17089,8.9624A.25483.25483,0,0,1,101.58984,29.87988Z"/>
          <path d="M103.12109,31.91748a.25291.25291,0,0,1-.05957-.49853,6.44632,6.44632,0,1,0-3.03515-12.53028.25273.25273,0,0,1-.11914-.49121,6.95177,6.95177,0,1,1,3.27343,13.5127A.2549.2549,0,0,1,103.12109,31.91748Z"/>
        </g>
        <g>
          <path d="M88.98633,22.9248a.25037.25037,0,0,1-.249-.22509,30.48937,30.48937,0,0,1,.04883-7.6416.24528.24528,0,0,1,.28907-.20508.25022.25022,0,0,1,.20507.28906,30.007,30.007,0,0,0-.04492,7.50684.24975.24975,0,0,1-.22363.27441Z"/>
          <path d="M89.419,26.07178a.251.251,0,0,1-.24707-.208q-.09962-.58008-.18848-1.18408a.25066.25066,0,0,1,.49609-.07227q.08643.59619.18653,1.17139a.25053.25053,0,0,1-.20411.28906A.21961.21961,0,0,1,89.419,26.07178Z"/>
        </g>
        <path d="M96.76367,42.08984a.26614.26614,0,0,1-.25879-.20361l-.626-2.584a.26623.26623,0,1,1,.51757-.125l.626,2.584a.26624.26624,0,0,1-.19629.32129A.27323.27323,0,0,1,96.76367,42.08984Z"/>
        <path d="M93.08105,14.71826a.26613.26613,0,0,1-.25878-.20361l-.626-2.584a.26623.26623,0,0,1,.51758-.125l.626,2.584a.26624.26624,0,0,1-.19629.32129A.27316.27316,0,0,1,93.08105,14.71826Z"/>
        <g>
          <path d="M100.55566,28.18115a.25291.25291,0,0,1-.05957-.49853,2.21106,2.21106,0,1,0-1.041-4.29785.24936.24936,0,0,1-.30469-.186.252.252,0,0,1,.18555-.30518,2.71652,2.71652,0,0,1,1.27929,5.28028A.25483.25483,0,0,1,100.55566,28.18115Z"/>
          <path d="M101.58984,29.87988a.25291.25291,0,0,1-.05957-.49853,4.10544,4.10544,0,0,0,1.1709-7.49512,4.06616,4.06616,0,0,0-3.10351-.48486.24848.24848,0,0,1-.30469-.186.252.252,0,0,1,.18555-.30517,4.61079,4.61079,0,0,1,2.17089,8.9624A.25483.25483,0,0,1,101.58984,29.87988Z"/>
          <path d="M103.12109,31.91748a.25291.25291,0,0,1-.05957-.49853,6.44632,6.44632,0,1,0-3.03515-12.53028.25273.25273,0,0,1-.11914-.49121,6.95177,6.95177,0,1,1,3.27343,13.5127A.2549.2549,0,0,1,103.12109,31.91748Z"/>
        </g>
        <circle class="cls-8" cx="104.5249" cy="15.51933" r="0.41938"/>
        <circle class="cls-8" cx="96.13795" cy="29.02576" r="0.41938"/>
        <circle class="cls-8" cx="88.67548" cy="46.10458" r="0.41938"/>
        <circle class="cls-8" cx="83.24624" cy="16.50819" r="0.41938"/>
        <circle class="cls-8" cx="105.2602" cy="39.34315" r="0.7353"/>
        <circle class="cls-8" cx="78.71023" cy="21.68298" r="1.38614"/>
        <circle class="cls-8" cx="112.98699" cy="26.87052" r="0.7353"/>
        <circle class="cls-8" cx="82.51094" cy="40.8599" r="0.7353"/>
        <circle class="cls-8" cx="104.52501" cy="80.78314" r="0.41938"/>
        <circle class="cls-8" cx="83.24635" cy="81.772" r="0.41938"/>
        <circle class="cls-8" cx="105.26031" cy="104.60695" r="0.7353"/>
        <circle class="cls-8" cx="78.71034" cy="86.94679" r="1.38614"/>
        <circle class="cls-8" cx="112.9871" cy="92.13432" r="0.7353"/>
        <circle class="cls-8" cx="82.51105" cy="106.12371" r="0.7353"/>
        <path d="M163.06738,59.04443a29.436,29.436,0,0,1-29.41015-29.42578,29.40235,29.40235,0,1,1,58.80468,0,29.43622,29.43622,0,0,1-29.39453,29.42578Zm0-57.33545A27.88552,27.88552,0,1,0,190.333,23.70557,28.01254,28.01254,0,0,0,163.06738,1.709Z"/>
        <path class="cls-20" d="M140.3153,36.956h47.03516a24.68943,24.68943,0,0,1-47.03516,0Z"/>
        <path class="cls-21" d="M187.97024,24.17627H139.6953a24.69684,24.69684,0,0,1,48.27494,0Z"/>
        <path class="cls-22" d="M188.53527,29.66869a15.1417,15.1417,0,0,1-1.18481,5.85137H140.3153a14.95925,14.95925,0,0,1-.62-9.90789h48.27494A15.14088,15.14088,0,0,1,188.53527,29.66869Z"/>
        <circle class="cls-8" cx="174.62435" cy="13.3122" r="0.47877"/>
        <circle class="cls-8" cx="144.89676" cy="28.25274" r="0.47877"/>
        <circle class="cls-8" cx="156.53022" cy="48.22917" r="0.47877"/>
        <circle class="cls-8" cx="150.33204" cy="14.44111" r="0.47877"/>
        <circle class="cls-8" cx="175.46379" cy="40.51013" r="0.83944"/>
        <circle class="cls-8" cx="184.28491" cy="26.27103" r="0.83944"/>
        <circle class="cls-8" cx="149.4926" cy="42.2417" r="0.83944"/>
        <circle class="cls-23" cx="157.64643" cy="38.32288" r="6.93899"/>
        <circle class="cls-24" cx="157.64643" cy="38.32288" r="4.36832"/>
        <path d="M157.64648,45.64209a7.31934,7.31934,0,1,1,7.31836-7.31934A7.32763,7.32763,0,0,1,157.64648,45.64209Zm0-13.87793a6.5586,6.5586,0,1,0,6.5586,6.55859A6.56619,6.56619,0,0,0,157.64648,31.76416Z"/>
        <circle class="cls-8" cx="164.62887" cy="28.38034" r="0.47877"/>
        <path class="cls-8" d="M177.62848,41.1794l-9.87572,5.9383a3.99758,3.99758,0,0,1-5.486-1.36591L149.59809,24.683l-.92672-1.5412a3.99758,3.99758,0,0,1,1.36591-5.48595l9.87572-5.93829a3.99757,3.99757,0,0,1,5.48594,1.3659l13.59545,22.61A3.99758,3.99758,0,0,1,177.62848,41.1794Z"/>
        <path class="cls-15" d="M165.47923,13.21079l13.42789,22.33133.01246.02072L162.18652,45.62447l-.01245-.02071L148.74618,23.27242Z"/>
        <path class="cls-16" d="M162.63281,45.26318a.60416.60416,0,0,1-.51855-.293l-12.8252-21.32959a.6043.6043,0,0,1,.20606-.82861L165.1748,13.3833a.6041.6041,0,0,1,.62305,1.03516l-15.16308,9.11718,12.51464,20.8125a.60375.60375,0,0,1-.5166.915Z"/>
        <path d="M148.83691,23.76221a.34521.34521,0,0,1-.17773-.64112l3.74121-2.25a.34518.34518,0,0,1,.35547.5918l-3.74121,2.25A.34209.34209,0,0,1,148.83691,23.76221Z"/>
        <path d="M162.27734,46.11426a.34521.34521,0,0,1-.17773-.64112l2.96582-1.78369a.34518.34518,0,0,1,.35547.5918l-2.96582,1.78369A.34209.34209,0,0,1,162.27734,46.11426Z"/>
        <path class="cls-17" d="M169.291,44.66846a.50007.50007,0,0,1-.25782-.92871l4.91407-2.95459a.50026.50026,0,1,1,.51562.85742l-4.91406,2.95459A.50157.50157,0,0,1,169.291,44.66846Z"/>
        <path class="cls-8" d="M176.31836,33.28906a.60419.60419,0,0,1-.51856-.293L172.69629,27.834a.60385.60385,0,1,1,1.03516-.62207L176.835,32.374a.60375.60375,0,0,1-.5166.915Z"/>
        <path class="cls-8" d="M171.10938,24.627a.60418.60418,0,0,1-.51856-.293l-3.10352-5.1621a.60385.60385,0,1,1,1.03516-.62208l3.10352,5.16211a.60376.60376,0,0,1-.5166.915Z"/>
        <path d="M165.7002,48.1543a4.4657,4.4657,0,0,1-3.833-2.16211L148.27148,23.38184a4.4686,4.4686,0,0,1,1.5254-6.12549l9.876-5.938a4.47064,4.47064,0,0,1,6.126,1.5249l13.59472,22.60986a4.46906,4.46906,0,0,1-1.52441,6.12549h0l-9.876,5.93848A4.43869,4.43869,0,0,1,165.7002,48.1543Zm-3.7334-36.54151a3.50754,3.50754,0,0,0-1.81348.5044l-9.876,5.938a3.536,3.536,0,0,0-1.207,4.84619L162.666,45.51172a3.53479,3.53479,0,0,0,4.84668,1.20654l9.876-5.93847a3.53462,3.53462,0,0,0,1.20606-4.8462L165,13.32373A3.53533,3.53533,0,0,0,161.9668,11.61279ZM177.62891,41.1792h0Z"/>
        <path d="M156.3125,17.26416a.89867.89867,0,0,1-.21191-.02588.87173.87173,0,1,1,.6582-.09912A.85631.85631,0,0,1,156.3125,17.26416Zm-.00293-1.3374a.46721.46721,0,0,0-.1123.92041.46717.46717,0,1,0,.1123-.92041Z"/>
        <path d="M169.15039,44.19141a.36727.36727,0,0,1-.18945-.68164l4.91406-2.95459a.36711.36711,0,0,1,.37891.6289l-4.91407,2.95459A.36813.36813,0,0,1,169.15039,44.19141Z"/>
        <g>
          <rect class="cls-23" x="164.19176" y="20.86204" width="8.99758" height="3.58102" rx="1.79051" transform="translate(14.75137 95.26363) rotate(-32.90082)"/>
          <path d="M166.41992,26.28174a2.15825,2.15825,0,0,1-1.17578-3.9707l4.54785-2.9419a2.15867,2.15867,0,0,1,2.34571,3.62451h0L167.58984,25.936A2.14879,2.14879,0,0,1,166.41992,26.28174Zm4.542-6.52295a1.40831,1.40831,0,0,0-.76953.22851l-4.54785,2.9419a1.42237,1.42237,0,0,0,1.54492,2.38867l4.54785-2.94238a1.42245,1.42245,0,0,0-.4746-2.58447A1.43156,1.43156,0,0,0,170.96191,19.75879Zm.97559,2.92578h0Z"/>
          <rect class="cls-23" x="166.13472" y="23.86531" width="8.99758" height="3.58102" rx="1.79051" transform="translate(13.43166 96.80071) rotate(-32.90082)"/>
          <path d="M168.36426,29.28662a2.17042,2.17042,0,0,1-.457-.04883,2.15873,2.15873,0,0,1-.72071-3.92334l4.54786-2.94238a2.15887,2.15887,0,1,1,2.3457,3.625h0l-4.54785,2.94238A2.14177,2.14177,0,0,1,168.36426,29.28662Zm4.54-6.5249a1.41229,1.41229,0,0,0-.76953.22851l-4.54786,2.94239a1.42256,1.42256,0,0,0,.47461,2.585,1.40933,1.40933,0,0,0,1.07032-.19629l4.54785-2.94238a1.42358,1.42358,0,0,0-.77539-2.61719Zm.97558,2.92627h0Z"/>
          <rect class="cls-23" x="168.07988" y="26.87198" width="8.99758" height="3.58102" rx="1.79051" transform="translate(12.11046 98.33952) rotate(-32.90082)"/>
          <path class="cls-23" d="M171.81554,29.87864h5.41658a1.7905,1.7905,0,0,1,1.7905,1.7905v0a1.79051,1.79051,0,0,1-1.79051,1.79051h-5.41657a1.79051,1.79051,0,0,1-1.79051-1.79051v0a1.79051,1.79051,0,0,1,1.79051-1.79051Z" transform="translate(10.78926 99.87834) rotate(-32.90082)"/>
          <path d="M170.30957,32.293a2.17049,2.17049,0,0,1-.457-.04883,2.1588,2.1588,0,0,1-.7207-3.92285l4.54785-2.94238a2.15887,2.15887,0,0,1,2.3457,3.625h0l-4.54785,2.94189A2.14185,2.14185,0,0,1,170.30957,32.293Zm4.54-6.52442a1.4123,1.4123,0,0,0-.76953.22852l-4.54785,2.94238a1.42217,1.42217,0,1,0,1.54492,2.38819l4.54785-2.9419a1.42275,1.42275,0,0,0-.47461-2.585A1.43908,1.43908,0,0,0,174.84961,25.76855Zm.97559,2.92627h0Z"/>
          <path d="M172.25488,35.2998a2.1712,2.1712,0,0,1-.457-.04882,2.15846,2.15846,0,0,1-.7207-3.92334l4.54785-2.9419a2.15867,2.15867,0,0,1,2.3457,3.62451h0l-4.54785,2.94239A2.1418,2.1418,0,0,1,172.25488,35.2998Zm4.54-6.52441a1.40824,1.40824,0,0,0-.76953.22852l-4.54785,2.94189a1.42237,1.42237,0,0,0,1.54492,2.38867l4.54785-2.94238a1.42245,1.42245,0,0,0-.47461-2.58447A1.43147,1.43147,0,0,0,176.79492,28.77539Zm.97559,2.92578h0Z"/>
        </g>
        <rect class="cls-23" x="150.00603" y="27.18995" width="8.99758" height="5.82831" rx="2.91415" transform="translate(69.0189 162.27882) rotate(-68.13216)"/>
        <path d="M153.91016,34.86914a3.2938,3.2938,0,0,1-3.05274-4.52148l1.18067-2.94141a3.29419,3.29419,0,1,1,6.11425,2.4541l-1.18066,2.94141A3.30011,3.30011,0,0,1,153.91016,34.86914Zm1.18847-8.76953a2.53772,2.53772,0,0,0-2.35547,1.58984l-1.18066,2.94141a2.53436,2.53436,0,1,0,4.7041,1.88769l1.18067-2.9414a2.53476,2.53476,0,0,0-2.34864-3.47754Z"/>
        <path d="M163.40723,125.24756a29.43246,29.43246,0,0,1-29.41016-29.42578,29.40187,29.40187,0,1,1,58.80371,0,29.43264,29.43264,0,0,1-29.39355,29.42578Zm0-57.33545a27.88051,27.88051,0,1,0,27.26562,21.99658A28.01254,28.01254,0,0,0,163.40723,67.91211Z"/>
        <path class="cls-20" d="M139.88173,103.36826h47.03516a24.68943,24.68943,0,0,1-47.03516,0Z"/>
        <path class="cls-21" d="M187.53667,90.58856H139.26173a24.69684,24.69684,0,0,1,48.27494,0Z"/>
        <path class="cls-25" d="M188.10181,95.90039a15.14171,15.14171,0,0,1-1.18481,5.85138H139.88184a14.95925,14.95925,0,0,1-.62-9.90789h48.27494A15.14086,15.14086,0,0,1,188.10181,95.90039Z"/>
        <circle class="cls-8" cx="174.19078" cy="79.72449" r="0.47877"/>
        <circle class="cls-8" cx="144.46319" cy="94.66503" r="0.47877"/>
        <circle class="cls-8" cx="156.09665" cy="114.64146" r="0.47877"/>
        <circle class="cls-8" cx="183.85134" cy="92.68332" r="0.83944"/>
        <circle class="cls-8" cx="149.05903" cy="108.65399" r="0.83944"/>
        <g>
          <path d="M94.24707,91.34961h-2.3125a.29632.29632,0,0,1-.2959-.2959v-2.3125a.29632.29632,0,0,1,.2959-.2959h2.3125a.29632.29632,0,0,1,.2959.2959v2.3125A.29632.29632,0,0,1,94.24707,91.34961Zm-2.0166-.5918h1.7207v-1.7207h-1.7207Z"/>
          <path d="M100.4873,91.34961H98.17383a.29632.29632,0,0,1-.2959-.2959v-2.3125a.29632.29632,0,0,1,.2959-.2959h2.31347a.29632.29632,0,0,1,.2959.2959v2.3125A.29632.29632,0,0,1,100.4873,91.34961Zm-2.01757-.5918h1.72168v-1.7207H98.46973Z"/>
        </g>
        <path class="cls-10" d="M105.6786,110.2196H86.7429a2.67645,2.67645,0,0,1-2.81224-2.77152l1.40965-14.14914a2.72834,2.72834,0,0,1,2.81224-2.35487H104.269a2.72833,2.72833,0,0,1,2.81223,2.35487l1.40966,14.14914A2.67646,2.67646,0,0,1,105.6786,110.2196Z"/>
        <path class="cls-8" d="M101.69524,84.45817c-2.00681-.05279-8.13312-.00775-10.13513.09017a.58933.58933,0,0,0-.61487.52918l-.19457,1.65331a2.01653,2.01653,0,0,1-2.17952,1.78351l-4.93129.05557a2.013,2.013,0,0,1-2.21289-1.734l.17865-3.06382a2.12045,2.12045,0,0,1,1.51993-1.92777c3.338-1.23181,10.92372-1.89045,14.51456-1.93092a43.30281,43.30281,0,0,1,12.4267,1.65129,2.12046,2.12046,0,0,1,1.563,1.893l-.17865,3.06382A2.01306,2.01306,0,0,1,109.2779,88.305l-4.93755.05564a2.013,2.013,0,0,1-2.2129-1.734l.19453-1.65325A.58938.58938,0,0,0,101.69524,84.45817Z"/>
        <path class="cls-10" d="M101.69785,85.42766c-2.00682-.05278-8.13312-.00774-10.13513.09018a.58934.58934,0,0,0-.61488.52917l-.19456,1.65331a2.01653,2.01653,0,0,1-2.17953,1.78351l-4.93128.05558a2.013,2.013,0,0,1-2.2129-1.734l.17865-3.06382a2.12047,2.12047,0,0,1,1.51993-1.92777,39.19412,39.19412,0,0,1,14.51456-1.93092,57.80524,57.80524,0,0,1,13.2081,2.07723c.94529.32483.77232.64286.78161,1.46709l-.17866,3.06381a2.013,2.013,0,0,1-2.17325,1.78344l-4.93756.05565a2.013,2.013,0,0,1-2.21289-1.734l.19452-1.65325A.58939.58939,0,0,0,101.69785,85.42766Z"/>
        <path class="cls-6" d="M83.96,89.54834a2.20794,2.20794,0,0,1-1.666-.78174,2.83115,2.83115,0,0,1-.68946-1.85351.39845.39845,0,0,1,.39453-.40332h.00391a.398.398,0,0,1,.39844.39453,2.04308,2.04308,0,0,0,.49023,1.33447,1.45982,1.45982,0,0,0,1.083.51172l4.38769-.04932a1.73483,1.73483,0,0,0,1.53809-1.88135l-.0166-1.436a1.03251,1.03251,0,0,1,.917-1.08057c.88379-.0581,1.23242-.081,2.46582-.09717h.00488a.39895.39895,0,0,1,.00489.79786c-1.21094.01562-1.55371.03808-2.32422.08886a.26189.26189,0,0,0-.27149.28223l.01661,1.436a2.5261,2.5261,0,0,1-2.3252,2.688l-4.38769.04932Z"/>
        <g>
          <path d="M109.24023,83.38965a.22764.22764,0,0,1-.08886-.01807,27.426,27.426,0,0,0-6.76953-1.60107.2324.2324,0,0,1-.20215-.25928.23841.23841,0,0,1,.25879-.20166,28.25117,28.25117,0,0,1,6.89062,1.6333.23236.23236,0,0,1-.08887.44678Z"/>
          <path d="M100.58008,81.5835l-.01953-.00049c-.37012-.03076-.73633-.05567-1.09571-.0752a.23175.23175,0,0,1-.21875-.24463.23751.23751,0,0,1,.24414-.21923q.54494.03075,1.10938.07617a.2321.2321,0,0,1-.01953.46338Z"/>
        </g>
        <circle class="cls-6" cx="96.42101" cy="100.52191" r="5.06392"/>
        <circle class="cls-6" cx="96.21075" cy="101.79509" r="5.06392"/>
        <circle class="cls-8" cx="96.21075" cy="100.58184" r="1.39755"/>
        <path d="M96.21094,102.15137a1.6294,1.6294,0,1,1,1.62988-1.6294A1.63168,1.63168,0,0,1,96.21094,102.15137Zm0-2.79492a1.16553,1.16553,0,1,0,1.165,1.16552A1.16655,1.16655,0,0,0,96.21094,99.35645Z"/>
        <g>
          <circle cx="96.21075" cy="103.70977" r="0.33533"/>
          <circle cx="96.21075" cy="97.21417" r="0.33533"/>
        </g>
        <circle cx="92.96295" cy="100.58184" r="0.33533"/>
        <circle cx="99.45855" cy="100.58184" r="0.33533"/>
        <circle cx="107.28148" cy="95.82992" r="0.33533"/>
        <circle cx="99.79389" cy="96.87883" r="0.33533"/>
        <g>
          <circle cx="93.91421" cy="98.28529" r="0.33533"/>
          <circle cx="98.50729" cy="102.87838" r="0.33533"/>
        </g>
        <g>
          <circle cx="98.50729" cy="98.22537" r="0.33533"/>
          <circle cx="93.91421" cy="102.81846" r="0.33533"/>
        </g>
        <path d="M96.21094,105.96582A5.44385,5.44385,0,1,1,98.75,95.70557a.38006.38006,0,0,1-.35547.67187,4.6767,4.6767,0,1,0,1.95215,1.94287.37965.37965,0,1,1,.66992-.35742,5.4458,5.4458,0,0,1-4.80566,8.00293Z"/>
        <rect class="cls-26" x="83.93066" y="107.91943" width="24.56055" height="0.5"/>
        <path d="M108.49121,108.06055h-5.55078a.23194.23194,0,1,1,0-.46387h5.55078a.23194.23194,0,1,1,0,.46387Z"/>
        <path d="M101.48535,108.06055H83.93066a.23194.23194,0,1,1,0-.46387h17.55469a.23194.23194,0,1,1,0,.46387Z"/>
        <rect class="cls-8" x="89.35254" y="90.89893" width="11.92188" height="1"/>
        <circle class="cls-27" cx="161.0004" cy="114.02278" r="0.1759"/>
        <path class="cls-23" d="M152.22356,98.30091h1.21311a2.90537,2.90537,0,0,1,2.83867,2.95391h0a2.88112,2.88112,0,0,1-2.92276,2.83889l-.013-.00022h-1.21311a2.9054,2.9054,0,0,1-2.84474-2.94785h0a2.89327,2.89327,0,0,1,2.94087-2.84486l.007.00013h-.00607Z"/>
        <path class="cls-28" d="M153.39453,104.36377h-.0459l-1.22168-.00049a3.17928,3.17928,0,0,1-1.88769-.66308.26976.26976,0,0,1,.33008-.42676,2.63588,2.63588,0,0,0,1.5625.5498h1.208l.04.00049a2.62671,2.62671,0,0,0,.05078-5.25293h-1.207a2.52357,2.52357,0,0,0-1.8789.73731,2.60586,2.60586,0,0,0-.79981,1.84179,2.63377,2.63377,0,0,0,.19922,1.03955.27021.27021,0,0,1-.5.20508,3.161,3.161,0,0,1,2.92383-4.36426l.05371.00049h1.21484a3.16679,3.16679,0,0,1-.042,6.333Z"/>
        <path class="cls-29" d="M152.57537,99.80516h.63688a1.51031,1.51031,0,0,1,1.47392,1.54065h0a1.51031,1.51031,0,0,1-1.53458,1.47392h-.63688a1.50423,1.50423,0,0,1-1.47393-1.534v-.00061h0A1.51031,1.51031,0,0,1,152.57537,99.80516Z"/>
        <path class="cls-8" d="M150.52521,100.23581a1.07965,1.07965,0,0,1,.53377-.60655c.2123-.07886.12738-.43066-.091-.34574a1.42543,1.42543,0,0,0-.75819.75819c-.091.20623.21836.3882.30934.182Z"/>
        <ellipse class="cls-8" cx="150.10663" cy="100.87286" rx="0.28508" ry="0.23049" transform="matrix(0.14608, -0.98927, 0.98927, 0.14608, 28.38786, 234.63338)"/>
        <path class="cls-23" d="M173.30737,98.30091h1.21311a2.90538,2.90538,0,0,1,2.857,2.953l-.00012.007h0a2.89933,2.89933,0,0,1-2.94179,2.84473h-1.21311a2.91145,2.91145,0,0,1-2.84474-2.95391h0A2.89935,2.89935,0,0,1,173.3195,98.307h0Z"/>
        <path class="cls-28" d="M174.47949,104.37549h-1.25683a3.16948,3.16948,0,0,1,.02929-6.33838.25555.25555,0,0,1,.05567-.00635h1.21289a3.18021,3.18021,0,0,1,3.12695,3.22754l-.001.02344A3.17513,3.17513,0,0,1,174.47949,104.37549Zm-.04394-.54.04.00049a2.63447,2.63447,0,0,0,2.63183-2.58008l.001-.02a2.63889,2.63889,0,0,0-2.59278-2.665h-1.13769a.36933.36933,0,0,0-.0625.00635l-.04-.00049a2.62962,2.62962,0,0,0-.04687,5.25879Z"/>
        <path class="cls-29" d="M173.61065,99.80516h.60655a1.51031,1.51031,0,0,1,1.47392,1.54065h0a1.51031,1.51031,0,0,1-1.53458,1.47392H173.55a1.51031,1.51031,0,0,1-1.47392-1.54065h0A1.5103,1.5103,0,0,1,173.61065,99.80516Z"/>
        <path class="cls-23" d="M170.71132,84.66558l.3518.3336a10.74209,10.74209,0,0,1,3.15408,7.63045v11.11206a10.773,10.773,0,1,1-21.54479.23049V92.62963a10.73,10.73,0,0,1,3.50588-7.958C159.757,81.39625,167.13266,81.43265,170.71132,84.66558Z"/>
        <path class="cls-30" d="M174.2172,92.71455v11.11812a10.7724,10.7724,0,0,1-10.72387,10.80879h-.03639V82.31215a11.10846,11.10846,0,0,1,7.27865,2.42621c.12738.10918.23655.22443.3518.33967A10.736,10.736,0,0,1,174.2172,92.71455Z"/>
        <circle class="cls-27" cx="159.15041" cy="113.37983" r="0.13344"/>
        <ellipse class="cls-8" cx="154.29623" cy="105.98306" rx="0.53377" ry="0.30328" transform="translate(5.14636 219.09386) rotate(-71.66)"/>
        <circle class="cls-27" cx="155.2624" cy="106.28315" r="0.16983"/>
        <path class="cls-27" d="M154.74077,106.453a.13344.13344,0,1,1-.13344.13344.13344.13344,0,0,1,.13344-.13344Z"/>
        <circle class="cls-27" cx="154.91666" cy="105.36119" r="0.1759"/>
        <path class="cls-31" d="M174.22933,92.51438v11.11207a10.77846,10.77846,0,0,1-10.736,10.81485h-.78852c5.60456-.43065,10.49338-5.10718,10.49338-10.81485V92.51438c0-2.86293-1.62556-5.60455-3.63932-7.62438a4.65891,4.65891,0,0,0-.35786-.3336,10.64506,10.64506,0,0,0-6.52652-2.42622,11.26375,11.26375,0,0,1,8.055,2.42622,4.57291,4.57291,0,0,1,.35181.3336A10.736,10.736,0,0,1,174.22933,92.51438Z"/>
        <path class="cls-8" d="M163.93612,114.54441h-.60656a10.66891,10.66891,0,0,1-10.736-10.34174V93.10274a11.06358,11.06358,0,0,1,3.16015-8.09143c.11525-.11524.22442-.22442.3518-.3336a11.24664,11.24664,0,0,1,7.8852-2.42622,10.65618,10.65618,0,0,0-6.67209,2.42622c-.12131.10918-.23049.21836-.34574.3336a10.75421,10.75421,0,0,0-3.18441,7.62438v11.11813A10.7724,10.7724,0,0,0,163.93612,114.54441Z"/>
        <path class="cls-28" d="M155.12305,110.96875a.29163.29163,0,0,1-.22559-.10547,11.04078,11.04078,0,0,1-2.56152-6.88623V97.80957a.29395.29395,0,1,1,.58789,0v6.1626a10.45579,10.45579,0,0,0,2.4248,6.51416.29394.29394,0,0,1-.22558.48242Z"/>
        <path class="cls-28" d="M163.41992,114.81689a11.05218,11.05218,0,0,1-7.40137-2.83789.29391.29391,0,1,1,.39258-.4375,10.47052,10.47052,0,0,0,7.00879,2.6875h.00391a10.497,10.497,0,0,0,10.48144-10.4873v-11.106a10.5152,10.5152,0,0,0-3.06836-7.42187l-.3457-.32862c-3.54394-3.1665-10.69141-3.166-14.15723.00342a10.45465,10.45465,0,0,0-3.41015,7.74024.2932.2932,0,0,1-.293.29443h-.001a.29351.29351,0,0,1-.29394-.29346,11.04453,11.04453,0,0,1,3.60156-8.17578c3.66016-3.34765,11.2041-3.34912,14.95215-.00146l.35742.33935a11.10946,11.10946,0,0,1,3.24609,7.84424V103.7417a11.08548,11.08548,0,0,1-11.06933,11.07519Z"/>
        <path class="cls-28" d="M152.62988,95.76807a.29393.29393,0,0,1-.29394-.29395V94.26123a.29395.29395,0,0,1,.58789,0v1.21289A.29394.29394,0,0,1,152.62988,95.76807Z"/>
        <path class="cls-8" d="M153.80363,100.41171h0a.26538.26538,0,0,1,.26385.26689v2.32916a.26538.26538,0,0,1-.26385.26689h0a.26538.26538,0,0,1-.26385-.26689V100.6786A.26538.26538,0,0,1,153.80363,100.41171Z"/>
        <path class="cls-31" d="M173.03139,94.30978h0a.26537.26537,0,0,1,.26384.26688v2.32917a.26537.26537,0,0,1-.26384.26689h0a.26538.26538,0,0,1-.26385-.26689V94.57666A.26537.26537,0,0,1,173.03139,94.30978Z"/>
        <path class="cls-28" d="M165.9529,97.02108h0a.50193.50193,0,0,1,.50041.50344v1.25556a.50193.50193,0,0,1-.50041.50344h0a.50193.50193,0,0,1-.5004-.50344V97.52452A.50193.50193,0,0,1,165.9529,97.02108Z"/>
        <circle class="cls-8" cx="165.44644" cy="97.93697" r="0.32147"/>
        <path class="cls-32" d="M161.1581,94.87388l-4.12457-.24263a1.16458,1.16458,0,0,1-1.0918-1.14032h0a1.15246,1.15246,0,0,1,1.04935-1.14032l4.11243-.40032a1.16458,1.16458,0,0,1,1.26888,1.05q.004.042.00489.08428v.64295a1.15852,1.15852,0,0,1-1.169,1.14793Z"/>
        <path class="cls-33" d="M161.1581,94.87388l-4.12457-.24263a1.16458,1.16458,0,0,1-1.0918-1.14032h0c0-.60655-.16983.3882.43066.32754l5.55.33967c.67328-.06065.44278-1.7772.45492-1.10392v.64294a1.15852,1.15852,0,0,1-1.13856,1.17814Q161.19839,94.876,161.1581,94.87388Z"/>
        <path class="cls-28" d="M161.21875,95.08154c-.02051,0-.042-.00049-.0625-.00146l-4.12793-.24268a1.3789,1.3789,0,0,1-1.28613-1.34326,1.354,1.354,0,0,1,1.22949-1.34863l.70117-.07276a.19746.19746,0,0,1,.22656.18409.20573.20573,0,0,1-.18359.22607l-.70312.07275a.94368.94368,0,0,0-.8584.936.96187.96187,0,0,0,.89843.93359l4.18165.24366a.9536.9536,0,0,0,.93652-.96827V93.0542c0-.021-.00195-.042-.00391-.06348a.97473.97473,0,0,0-1.04394-.86572l-1.626.15771a.20322.20322,0,0,1-.22461-.185.20645.20645,0,0,1,.18555-.2251l1.626-.15772a1.37039,1.37039,0,0,1,1.49317,1.23536.90388.90388,0,0,1,.00586.104v.64307a1.36294,1.36294,0,0,1-1.34082,1.38378Z"/>
        <circle class="cls-33" cx="160.26646" cy="93.98831" r="0.30934"/>
        <circle class="cls-33" cx="159.45976" cy="93.64257" r="0.16377"/>
        <circle class="cls-33" cx="161.3704" cy="94.0247" r="0.39426"/>
        <path class="cls-32" d="M165.14316,94.9224l4.13063-.24869a1.15851,1.15851,0,0,0,1.0918-1.13425h0a1.17066,1.17066,0,0,0-1.04934-1.18885l-4.11849-.39426a1.16459,1.16459,0,0,0-1.26338,1.05659q-.00346.03874-.00432.07767v.64295a1.15853,1.15853,0,0,0,1.12645,1.18972Q165.09984,94.92447,165.14316,94.9224Z"/>
        <path class="cls-33" d="M165.14316,94.9224l4.13063-.24869a1.15851,1.15851,0,0,0,1.0918-1.13425h0c0-.60656.16983.38819-.43672.32754l-5.55.33967c-.67328-.06672-.43672-1.7772-.44886-1.10393v.64295a1.15851,1.15851,0,0,0,1.13886,1.17784Q165.10605,94.92416,165.14316,94.9224Z"/>
        <path class="cls-28" d="M165.06543,95.12939a1.36471,1.36471,0,0,1-1.3418-1.3872v-.63965c.001-.03858.00293-.06983.00586-.10108a1.37159,1.37159,0,0,1,1.48633-1.23876l1.63281.1582a.20617.20617,0,0,1,.18555.2251.19673.19673,0,0,1-.22461.18505l-1.63184-.15771a.9588.9588,0,0,0-1.03808.86963l-.00391.06738v.63526a.95295.95295,0,0,0,.9375.97168l.0625-.001,4.125-.24854a.957.957,0,0,0,.89844-.93213.9709.9709,0,0,0-.86426-.98l-.70215-.06689a.206.206,0,0,1-.18554-.22461.19147.19147,0,0,1,.22461-.18555l.7041.0669a1.38488,1.38488,0,0,1,1.23535,1.39844,1.37039,1.37039,0,0,1-1.28613,1.33593Z"/>
        <circle class="cls-33" cx="166.0348" cy="94.03683" r="0.30934"/>
        <circle class="cls-33" cx="166.84151" cy="93.6911" r="0.16377"/>
        <circle class="cls-33" cx="164.93086" cy="94.07323" r="0.39426"/>
        <circle class="cls-34" cx="163.41448" cy="101.08499" r="1.57097"/>
        <path class="cls-35" d="M164.98546,101.085a1.571,1.571,0,1,1-3.13588,0c0-.86737.65508.97655,1.51638.97655S164.98546,100.23581,164.98546,101.085Z"/>
        <path class="cls-28" d="M163.41406,103.01953a1.77686,1.77686,0,1,1,1.77735-1.77685A1.77847,1.77847,0,0,1,163.41406,103.01953Zm0-3.1416a1.36475,1.36475,0,1,0,1.36524,1.36475A1.3663,1.3663,0,0,0,163.41406,99.87793Z"/>
        <path class="cls-32" d="M152.40553,98.28271h0a.80066.80066,0,0,1-.80672-.79454q0-.00609,0-.01218l.78853-6.18685c0-.44278-.43066-.66114,0-.66114h0a.80671.80671,0,0,1,.80671.80671h0v6.06554A.80672.80672,0,0,1,152.40553,98.28271Z"/>
        <path class="cls-33" d="M152.57537,93.09667h0c-.33967,0-.21836-.20016-.21836-.53983l.26688-4.65227c0-.33967-.38819-.7036-.04852-.7036h0a.60656.60656,0,0,1,.60655.60656v4.66439a.60655.60655,0,0,1-.58808.62448C152.58769,93.09659,152.58152,93.09668,152.57537,93.09667Z"/>
        <path class="cls-28" d="M152.39941,98.54639a1.06575,1.06575,0,0,1-1.06445-1.05567l.76465-6.65136-.001-.001a.343.343,0,0,1-.166-.292.366.366,0,0,1,.35937-.36377.347.347,0,0,1,.292.16943c.06348-.01514.124-.03418.18164-.05273a.65364.65364,0,0,1,.60645-.001.46843.46843,0,0,1,.1709.40234l-.085,6.79688a1.06935,1.06935,0,0,1-1.04688,1.04883A.09208.09208,0,0,0,152.39941,98.54639Zm.00586-.26368h0Zm.21875-7.39794-.76367,6.62158a.538.538,0,0,0,.53906.51269h.002a.54338.54338,0,0,0,.52929-.53076l.084-6.71338c-.03027.00879-.06153.01856-.08887.02735A2.71559,2.71559,0,0,1,152.624,90.88477Z"/>
        <path class="cls-32" d="M174.2172,98.37369h0a.75819.75819,0,0,0,.75819-.75819l-.74606-5.68948c0-.41852.40639-.75819,0-.75819h0a.7582.7582,0,0,0-.75819.75819V97.6155A.7582.7582,0,0,0,174.2172,98.37369Z"/>
        <path class="cls-28" d="M174.2168,98.62207h-.00391a1.01139,1.01139,0,0,1-.99121-1.00635V91.92578a1.00808,1.00808,0,0,1,1.00781-1.00635.43.43,0,0,1,.37305.16162.50506.50506,0,0,1-.02832.49707.96618.96618,0,0,0-.0957.34766l.74316,5.65772A1.01121,1.01121,0,0,1,174.2168,98.62207Zm-.124-7.17969a.50161.50161,0,0,0-.373.4834v5.68994a.50345.50345,0,1,0,1.00683,0L173.9834,91.958A1.30225,1.30225,0,0,1,174.09277,91.44238Z"/>
        <path class="cls-32" d="M173.55606,79.32184c.76425,0-.99475-1.14032-1.69835-1.43147a7.35751,7.35751,0,0,0-6.74488.66721l1.09786-1.86818a1.95913,1.95913,0,0,0-1.44359-1.00688,3.63929,3.63929,0,0,0-1.81966.20622,6.67209,6.67209,0,0,0-4.05785,4.10637l-1.2131-.24868a9.06169,9.06169,0,0,0-3.148.27295,6.45379,6.45379,0,0,0-3.03277,1.68621,4.64016,4.64016,0,0,0-1.06147,2.42622c-.08491.53377-.04246,1.21311.44886,1.4436a1.81967,1.81967,0,0,0,.81278.07885.45482.45482,0,0,1,.21836.04246c.21229.12131.1395.43672.05458.66114a7.09073,7.09073,0,0,0-.47917,3.15408,1.65586,1.65586,0,0,0,.24262.86737,1.5649,1.5649,0,0,0,1.6013.45492,3.67573,3.67573,0,0,0,2.88113-3.08736l.90983-.10918a1.98947,1.98947,0,0,0,1.4254-.03033,3.34811,3.34811,0,0,0,1.40721-1.69835l1.11-2.13507a8.61912,8.61912,0,0,0,1.70441,2.99638,3.5423,3.5423,0,0,0,1.92884,1.2677,1.81966,1.81966,0,0,0,1.65589-.552l.80672-.05459a5.13139,5.13139,0,0,0,2.73556,2.49294.80072.80072,0,0,1,.24869.12737.74.74,0,0,1,.16983.32754,8.7829,8.7829,0,0,0,3.24507,4.39752,2.1533,2.1533,0,0,0,1.68016.5095,1.81969,1.81969,0,0,0,1.10393-1.04327c.66114-1.41327.25475-3.08129-.30328-4.54309a4.3019,4.3019,0,0,0-2.07442-2.61424l.06672-.06673a4.1182,4.1182,0,0,0,1.37688.182,1.77721,1.77721,0,0,0,1.21311-.56409,2.0502,2.0502,0,0,0,.38213-1.50426,3.84557,3.84557,0,0,0-1.09786-2.35949A6.638,6.638,0,0,0,171.7,81.20822a8.55844,8.55844,0,0,0-3.51194.24869S171.04493,79.3279,173.55606,79.32184Z"/>
        <path class="cls-33" d="M176.06113,89.66965c.56409,1.46179.97049,3.12981.30327,4.54308a1.77719,1.77719,0,0,1-1.09786,1.04328,2.13506,2.13506,0,0,1-1.68015-.51558,8.704,8.704,0,0,1-3.24507-4.42784.74.74,0,0,0-.16983-.32754.96464.96464,0,0,0-.24869-.12737,5.14361,5.14361,0,0,1-2.79014-2.46868l-.80066.05459a2.191,2.191,0,0,1,.2123-.20016,1.90451,1.90451,0,0,1,.72786-.41852c.67934-.1759,1.37081.25475,2.07441.279a1.71654,1.71654,0,0,0,1.43753-.71573,1.54671,1.54671,0,0,0,.097-1.58311c-.3336-.60655-1.04327-.88557-1.50425-1.39507a2.18361,2.18361,0,0,1-.40032-2.18966,9.92335,9.92335,0,0,1,2.74768-.05459,6.803,6.803,0,0,1,4.24588,1.56491,3.80313,3.80313,0,0,1,1.0918,2.35949,2.01989,2.01989,0,0,1-.37606,1.50426,1.77721,1.77721,0,0,1-1.21311.56409,4.10053,4.10053,0,0,1-1.37688-.182l-.07278.06672A4.34765,4.34765,0,0,1,176.06113,89.66965Z"/>
        <path class="cls-36" d="M166.33807,87.49818a1.81966,1.81966,0,0,1-1.65589.552,3.56054,3.56054,0,0,1-1.9349-1.2677,8.43054,8.43054,0,0,1-.89164-1.21311,6.1808,6.1808,0,0,1,1.90458-2.54146c.53983-.41246,1.14032-.74606,1.662-1.21311a4.9373,4.9373,0,0,0,1.63769-4.15489,7.39393,7.39393,0,0,1,4.81.23049c.7036.29115,2.45654,1.43147,1.69835,1.43147-2.51113,0-5.34374,2.13507-5.34374,2.13507a5.7496,5.7496,0,0,1,.77033-.20017,2.17149,2.17149,0,0,0,.41245,2.15327c.461.50951,1.17065.79459,1.50425,1.39507a1.54671,1.54671,0,0,1-.09705,1.58311,1.71654,1.71654,0,0,1-1.43753.71573c-.7036,0-1.39507-.45491-2.07441-.279a1.90451,1.90451,0,0,0-.72786.41852,2.191,2.191,0,0,0-.2123.20016"/>
        <circle class="cls-28" cx="157.89485" cy="79.79495" r="0.31541"/>
        <circle class="cls-28" cx="175.27867" cy="82.2151" r="0.31541"/>
        <circle class="cls-28" cx="170.0987" cy="80.20134" r="0.31541"/>
        <circle class="cls-28" cx="176.10965" cy="89.81522" r="0.31541"/>
        <circle class="cls-33" cx="169.17068" cy="86.87343" r="0.75213"/>
        <circle class="cls-33" cx="169.21313" cy="82.9551" r="0.64901"/>
        <circle class="cls-33" cx="168.00609" cy="83.54952" r="0.32754"/>
        <circle class="cls-33" cx="164.88841" cy="87.37081" r="0.60655"/>
        <path class="cls-28" d="M174.31445,82.08154a.29257.29257,0,0,1-.10156-.01758,9.32213,9.32213,0,0,0-2.50879-.52246,8.2402,8.2402,0,0,0-3.40918.23731.30309.30309,0,1,1-.166-.583,8.78552,8.78552,0,0,1,3.63671-.25732,9.85047,9.85047,0,0,1,2.6504.5542.30326.30326,0,0,1-.10157.58886Z"/>
        <path class="cls-28" d="M175.67871,89.17236a.30355.30355,0,0,1-.28516-.20019,2.9353,2.9353,0,0,0-1.48535-1.6499.30334.30334,0,0,1,.22266-.5625,3.81325,3.81325,0,0,0,1.27539.16845,1.46507,1.46507,0,0,0,1.00293-.46777,1.72546,1.72546,0,0,0,.30371-1.25537,3.54394,3.54394,0,0,0-.86719-2.03174.30307.30307,0,1,1,.45508-.40039,4.1235,4.1235,0,0,1,1.01465,2.3623,2.32566,2.32566,0,0,1-.44141,1.71241,2.07738,2.07738,0,0,1-1.4414.68652c-.07422.00342-.14942.00439-.22266.00293a3.55714,3.55714,0,0,1,.75391,1.229.30358.30358,0,0,1-.18164.38819A.30845.30845,0,0,1,175.67871,89.17236Z"/>
        <path class="cls-28" d="M174.97461,95.63477a2.4091,2.4091,0,0,1-1.61231-.6001,9.06522,9.06522,0,0,1-3.333-4.562.4945.4945,0,0,0-.1084-.21924c-.001.001-.05567-.02246-.11231-.03955a5.43112,5.43112,0,0,1-2.94531-2.61328.30311.30311,0,1,1,.53906-.27735,4.814,4.814,0,0,0,2.60254,2.3169,1.09412,1.09412,0,0,1,.3252.16943,1.069,1.069,0,0,1,.2832.50147,8.48035,8.48035,0,0,0,3.125,4.249,1.86115,1.86115,0,0,0,1.46582.46191,1.52132,1.52132,0,0,0,.86133-.85644,4.65519,4.65519,0,0,0,.05566-3.23682.3033.3033,0,1,1,.57227-.20117,5.26835,5.26835,0,0,1-.06445,3.66211,2.12366,2.12366,0,0,1-1.28907,1.22021A2.744,2.744,0,0,1,174.97461,95.63477Z"/>
        <path class="cls-28" d="M158.91406,80.32275a.32066.32066,0,0,1-.09863-.01611.3042.3042,0,0,1-.18848-.38525,6.903,6.903,0,0,1,4.24317-4.28809,4.008,4.008,0,0,1,1.96093-.22754,2.48878,2.48878,0,0,1,.99219.40283,1.2238,1.2238,0,0,1,.32617,1.61914.30314.30314,0,1,1-.51953-.3125.61713.61713,0,0,0-.15918-.814,1.88351,1.88351,0,0,0-.73242-.2959,3.36622,3.36622,0,0,0-1.6582.19678,6.30216,6.30216,0,0,0-3.87891,3.91553A.30348.30348,0,0,1,158.91406,80.32275Z"/>
        <path class="cls-28" d="M171.166,80.09814a.303.303,0,0,1-.07911-.5957,15.25351,15.25351,0,0,1,1.95313-.39453,2.63466,2.63466,0,0,0-1.27637-.89844,7.05129,7.05129,0,0,0-6.48437.63233.30337.30337,0,0,1-.332-.50782,7.64315,7.64315,0,0,1,7.02343-.69433,3.22634,3.22634,0,0,1,1.85352,1.5708.30357.30357,0,0,1-.23731.44336,14.664,14.664,0,0,0-2.34179.43359A.29382.29382,0,0,1,171.166,80.09814Z"/>
        <path class="cls-8" d="M151.31934,83.31836a.30912.30912,0,0,1-.12207-.02539.30384.30384,0,0,1-.15625-.39844,5.47557,5.47557,0,0,1,4.48632-2.83642.30318.30318,0,1,1,.07618.60156,4.88886,4.88886,0,0,0-4.00684,2.478A.303.303,0,0,1,151.31934,83.31836Z"/>
        <circle class="cls-8" cx="156.68174" cy="80.2256" r="0.33967"/>
        <path class="cls-28" d="M150.84082,83.11279a.303.303,0,0,1-.28027-.41943,4.04984,4.04984,0,0,1,.7334-1.16016,6.7724,6.7724,0,0,1,3.18847-1.77832,7.64689,7.64689,0,0,1,2.34473-.31787.30326.30326,0,0,1-.00586.60645.91141.91141,0,0,0-.14649-.00147,7.0801,7.0801,0,0,0-2.03515.29834,6.17781,6.17781,0,0,0-2.90723,1.61133,3.43762,3.43762,0,0,0-.61133.97412A.30351.30351,0,0,1,150.84082,83.11279Z"/>
        <path class="cls-8" d="M152.10254,90.355a.3031.3031,0,0,1-.29395-.22949,5.37012,5.37012,0,0,1,.25-3.35059.3036.3036,0,0,1,.56055.2334,4.75709,4.75709,0,0,0-.22266,2.96973.30326.30326,0,0,1-.29394.37695Z"/>
        <path class="cls-28" d="M152.9541,91.25586a1.88514,1.88514,0,0,1-1.39258-.61865,1.96243,1.96243,0,0,1-.32129-1.07178,7.42188,7.42188,0,0,1,.501-3.271.55972.55972,0,0,0,.05859-.2998,2.02865,2.02865,0,0,1-.95507-.07617c-.56836-.26367-.79395-.90723-.65528-1.77979a.29977.29977,0,0,1,.34766-.25146.30355.30355,0,0,1,.25195.34717c-.07129.4458-.03515.97412.27735,1.12109a1.60563,1.60563,0,0,0,.64843.05224.79712.79712,0,0,1,.38282.06934c.166.09375.47363.35889.208,1.03906a6.85259,6.85259,0,0,0-.459,3.02735,1.37385,1.37385,0,0,0,.19922.73193,1.26638,1.26638,0,0,0,1.25683.32227,3.39121,3.39121,0,0,0,2.61133-2.85938.30331.30331,0,1,1,.60156.07813,3.99374,3.99374,0,0,1-3.06054,3.36816A1.79,1.79,0,0,1,152.9541,91.25586Z"/>
        <path class="cls-28" d="M165.02734,88.43115a2.13665,2.13665,0,0,1-.38086-.03418,3.87431,3.87431,0,0,1-2.11523-1.38037,8.80641,8.80641,0,0,1-1.5127-2.4624l-.78613,1.52441a3.60934,3.60934,0,0,1-1.52051,1.81348,2.27062,2.27062,0,0,1-1.68457.061.30336.30336,0,0,1,.207-.57031,1.64357,1.64357,0,0,0,1.2041-.03076,3.03379,3.03379,0,0,0,1.24023-1.51855l1.11914-2.17432a.324.324,0,0,1,.29492-.16309.30341.30341,0,0,1,.26368.21045A8.26252,8.26252,0,0,0,163,86.63232a3.27323,3.27323,0,0,0,1.77539,1.17237,1.50693,1.50693,0,0,0,1.35938-.46436.303.303,0,1,1,.44335.41309A2.11093,2.11093,0,0,1,165.02734,88.43115Z"/>
        <circle class="cls-37" cx="151.22882" cy="84.89" r="0.25475"/>
        <circle class="cls-8" cx="153.84306" cy="81.36592" r="0.36393"/>
        <circle class="cls-37" cx="153.35175" cy="82.18477" r="0.2123"/>
        <circle class="cls-37" cx="154.90453" cy="81.54183" r="0.25475"/>
        <circle class="cls-38" cx="154.14028" cy="82.11199" r="0.1759"/>
        <circle class="cls-37" cx="152.73914" cy="87.87425" r="0.1759"/>
        <circle class="cls-38" cx="152.89684" cy="88.75375" r="0.1759"/>
        <circle class="cls-37" cx="153.05454" cy="90.23981" r="0.25475"/>
        <path class="cls-28" d="M153.89159,87.5831h-.07886a.1941.1941,0,0,1-.1033-.25432l.00019-.00043h0l1.0736-2.52933a.19411.19411,0,0,1,.25432-.1033l.00043.00018a.20017.20017,0,0,1,.10312.26082L154.07355,87.48A.19409.19409,0,0,1,153.89159,87.5831Z"/>
        <path class="cls-28" d="M155.317,86.36393a.17.17,0,0,1-.07885,0,.20017.20017,0,0,1-.10918-.25476h0l.57016-1.35261a.19717.19717,0,1,1,.36393.15164l-.57622,1.35261A.20019.20019,0,0,1,155.317,86.36393Z"/>
        <g>
          <circle class="cls-8" cx="177.9589" cy="114.42027" r="0.59006"/>
          <g>
            <circle class="cls-23" cx="165.43472" cy="112.88281" r="4.87756"/>
            <circle class="cls-24" cx="165.43472" cy="112.88281" r="3.07058"/>
            <path d="M165.43457,118.02734a5.14453,5.14453,0,1,1,5.14551-5.14453A5.15008,5.15008,0,0,1,165.43457,118.02734Zm0-9.75488a4.61035,4.61035,0,1,0,4.61035,4.61035A4.61495,4.61495,0,0,0,165.43457,108.27246Z"/>
            <g>
              <circle class="cls-8" cx="170.34281" cy="105.89399" r="0.33654"/>
              <path class="cls-8" d="M179.4805,114.89071l-6.94185,4.17415a2.81,2.81,0,0,1-3.85618-.96012l-8.9051-14.80968-.65141-1.08334a2.81,2.81,0,0,1,.96013-3.85618l6.94184-4.17415a2.81,2.81,0,0,1,3.85618.96013l9.55651,15.893A2.81,2.81,0,0,1,179.4805,114.89071Z"/>
              <path class="cls-15" d="M170.94055,95.231l9.43874,15.69715.00875.01456-11.762,7.07252-.00876-.01456-9.43874-15.69714Z"/>
              <path class="cls-16" d="M168.93848,117.76074a.42278.42278,0,0,1-.36328-.20556l-9.01465-14.99268a.42385.42385,0,0,1,.14453-.58252l11.02148-6.62744a.42448.42448,0,0,1,.4375.72754l-10.6582,6.40869,8.7959,14.62891a.4239.4239,0,0,1-.36328.64306Z"/>
              <path d="M159.24219,102.648a.24267.24267,0,0,1-.125-.45068l2.62988-1.58155a.24268.24268,0,0,1,.25.416l-2.62988,1.58154A.24175.24175,0,0,1,159.24219,102.648Z"/>
              <path d="M162.85059,100.47852a.24268.24268,0,0,1-.125-.45069l8.14941-4.90088a.24268.24268,0,0,1,.25.416l-8.14941,4.90088A.24178.24178,0,0,1,162.85059,100.47852Z"/>
              <path d="M168.68945,118.35938a.24268.24268,0,0,1-.125-.45069l2.085-1.25342a.24268.24268,0,0,1,.25.416l-2.085,1.25342A.24182.24182,0,0,1,168.68945,118.35938Z"/>
              <path d="M172.0752,116.32373a.24267.24267,0,0,1-.125-.45068l8.373-5.03467a.24267.24267,0,1,1,.25.416l-8.373,5.03467A.24178.24178,0,0,1,172.0752,116.32373Z"/>
              <path class="cls-17" d="M173.62012,117.34326a.35156.35156,0,0,1-.18067-.65283l3.4541-2.07666a.35129.35129,0,0,1,.36133.60254l-3.4541,2.07666A.34871.34871,0,0,1,173.62012,117.34326Z"/>
              <path class="cls-8" d="M178.55859,109.34424a.42278.42278,0,0,1-.36328-.20557l-2.18164-3.62842a.42406.42406,0,1,1,.72656-.4375l2.18165,3.62842a.42392.42392,0,0,1-.36329.64307Z"/>
              <path class="cls-8" d="M174.89746,103.25537a.42278.42278,0,0,1-.36328-.20557l-2.18164-3.62841a.42406.42406,0,1,1,.72656-.4375l2.18164,3.62841a.42391.42391,0,0,1-.36328.64307Z"/>
              <path d="M171.09668,119.79346a3.13862,3.13862,0,0,1-2.69434-1.51953l-9.55664-15.89307a3.1371,3.1371,0,0,1,1.07129-4.30615l6.94239-4.17432a3.14037,3.14037,0,0,1,4.30468,1.07227l9.55664,15.89306a3.13637,3.13637,0,0,1-1.07129,4.30567l-6.9414,4.17431A3.1165,3.1165,0,0,1,171.09668,119.79346Zm-2.625-25.68555a2.46752,2.46752,0,0,0-1.27441.354l-6.94239,4.17432a2.486,2.486,0,0,0-.84863,3.40674l9.55664,15.89307a2.487,2.487,0,0,0,3.40723.84814l6.9414-4.17432h0a2.48193,2.48193,0,0,0,.84864-3.40625l-9.55664-15.89306A2.48468,2.48468,0,0,0,168.47168,94.10791Z"/>
              <path d="M164.49707,98.08008a.62509.62509,0,0,1-.14941-.01807.60763.60763,0,0,1-.376-.27881.60125.60125,0,0,1-.06934-.46289.61282.61282,0,0,1,.27832-.37646.61213.61213,0,0,1,.83887.209v.00049a.61143.61143,0,0,1-.52246.92676Zm-.002-.94043a.32848.32848,0,1,0,.28222.15967h0a.33256.33256,0,0,0-.28222-.15967Z"/>
              <path d="M173.52148,117.00781a.25839.25839,0,0,1-.13281-.47949l3.45313-2.07666a.258.258,0,0,1,.26562.44238l-3.45312,2.07666A.25524.25524,0,0,1,173.52148,117.00781Z"/>
            </g>
            <g>
              <rect class="cls-23" x="170.03555" y="100.60923" width="6.32458" height="2.51717" rx="1.25858" transform="translate(-27.55438 110.41711) rotate(-32.90082)"/>
              <path d="M171.60254,104.41943a1.518,1.518,0,0,1-1.48731-1.83545,1.50646,1.50646,0,0,1,.66016-.956l3.19629-2.06836a1.51751,1.51751,0,1,1,1.64844,2.54834h0l-3.19629,2.06787A1.51,1.51,0,0,1,171.60254,104.41943ZM174.794,99.8335a.9937.9937,0,0,0-.541.16064l-3.19629,2.06836a.99967.99967,0,1,0,1.08594,1.67871l3.19629-2.06787a1.00028,1.00028,0,0,0-.54492-1.83984Zm.68554,2.05712h0Z"/>
              <path class="cls-23" d="M172.65989,102.72029h3.80741a1.25859,1.25859,0,0,1,1.25859,1.25859v0a1.25858,1.25858,0,0,1-1.25858,1.25858h-3.80742a1.25858,1.25858,0,0,1-1.25858-1.25858v0A1.25858,1.25858,0,0,1,172.65989,102.72029Z" transform="translate(-28.48203 111.49755) rotate(-32.90082)"/>
              <path d="M172.96777,106.53027a1.51758,1.51758,0,0,1-.82715-2.7915l3.19727-2.06787a1.51731,1.51731,0,1,1,1.64844,2.54785l-3.19727,2.06836A1.50544,1.50544,0,0,1,172.96777,106.53027Zm3.19239-4.585a.99189.99189,0,0,0-.541.16016l-3.19726,2.06787a.99987.99987,0,0,0,1.08593,1.6792l3.19727-2.06836h0a1.0002,1.0002,0,0,0,.29687-1.38232A1.00167,1.00167,0,0,0,176.16016,101.94531Z"/>
              <rect class="cls-23" x="172.76859" y="104.83373" width="6.32458" height="2.51717" rx="1.25858" transform="translate(-29.41072 112.57922) rotate(-32.90082)"/>
              <rect class="cls-23" x="174.13589" y="106.94718" width="6.32458" height="2.51717" rx="1.25858" transform="translate(-30.33942 113.66088) rotate(-32.90082)"/>
              <path d="M174.335,108.64307a1.51694,1.51694,0,0,1-.82715-2.79053l3.19727-2.06836a1.51731,1.51731,0,1,1,1.64844,2.54785l-3.19629,2.06836A1.5122,1.5122,0,0,1,174.335,108.64307Zm3.19238-4.584a.99543.99543,0,0,0-.541.15967l-3.19727,2.06836a.99993.99993,0,0,0,1.08692,1.67871l3.19629-2.06836h0a1.0002,1.0002,0,0,0,.29687-1.38232A1.00235,1.00235,0,0,0,177.52734,104.05908Z"/>
              <path d="M175.70312,110.75781a1.53813,1.53813,0,0,1-.32226-.03418,1.51718,1.51718,0,0,1-.50488-2.75781l3.19629-2.06836a1.51751,1.51751,0,1,1,1.64843,2.54834l-3.19629,2.06787A1.5064,1.5064,0,0,1,175.70312,110.75781Zm3.19141-4.58642a.99367.99367,0,0,0-.541.16064l-3.19629,2.06836a.99966.99966,0,1,0,1.08593,1.67871l3.19629-2.06787h0a1,1,0,0,0-.333-1.81738A1.00834,1.00834,0,0,0,178.89453,106.17139Z"/>
            </g>
            <path class="cls-23" d="M162.11254,105.05725h2.22775a2.04842,2.04842,0,0,1,2.04842,2.04842v0a2.04842,2.04842,0,0,1-2.04842,2.04842h-2.22775a2.04842,2.04842,0,0,1-2.04842-2.04842v0a2.04841,2.04841,0,0,1,2.04841-2.04841Z" transform="matrix(0.37247, -0.92805, 0.92805, 0.37247, 3.03104, 218.69387)"/>
            <path d="M162.80859,110.45508a2.31591,2.31591,0,0,1-2.14648-3.17822l.83008-2.06739a2.31557,2.31557,0,1,1,4.29785,1.7251l-.8291,2.06738A2.32172,2.32172,0,0,1,162.80859,110.45508Zm.835-6.16455a1.78521,1.78521,0,0,0-1.65527,1.11816l-.83008,2.06738a1.78142,1.78142,0,0,0,3.30664,1.32666l.82911-2.06738h0a1.78149,1.78149,0,0,0-1.6504-2.44482Z"/>
          </g>
        </g>
        <path d="M99.82227,190.74707a29.4361,29.4361,0,0,1-29.41016-29.42529,29.40187,29.40187,0,1,1,58.80371,0,29.49155,29.49155,0,0,1-12.915,24.37549.74988.74988,0,0,1-.8418-1.24122,27.89341,27.89341,0,1,0-43.54687-23.13427,27.928,27.928,0,0,0,37.6875,26.16455.75014.75014,0,0,1,.52539,1.40527A29.29271,29.29271,0,0,1,99.82227,190.74707Z"/>
        <path class="cls-39" d="M76.29684,168.86788H123.332a24.68943,24.68943,0,0,1-47.03516,0Z"/>
        <path class="cls-40" d="M124.51693,161.5806a14.89331,14.89331,0,0,1-.73372,5.85138H75.87743a14.90253,14.90253,0,0,1-.76551-5.85138,15.14968,15.14968,0,0,1,.565-4.05651h48.27494A15.14047,15.14047,0,0,1,124.51693,161.5806Z"/>
        <circle class="cls-8" cx="121.1059" cy="160.16466" r="0.83944"/>
        <circle class="cls-40" cx="118.81332" cy="171.43473" r="0.83944"/>
        <circle class="cls-40" cx="80.39953" cy="172.86271" r="0.83944"/>
        <circle class="cls-8" cx="114.12291" cy="179.75002" r="0.41938"/>
        <circle class="cls-8" cx="80.8783" cy="160.16466" r="0.47877"/>
        <circle class="cls-8" cx="93.29828" cy="181.77487" r="0.47877"/>
        <circle class="cls-39" cx="117.97388" cy="162.87223" r="0.47877"/>
        <circle class="cls-8" cx="85.47414" cy="174.15362" r="0.83944"/>
        <path class="cls-8" d="M86.40625,100.2207a.31058.31058,0,0,1-.03613-.00195.37414.37414,0,0,1-.33692-.40918l.49024-5.0625a.36313.36313,0,0,1,.40918-.33691.37413.37413,0,0,1,.33691.40918l-.49023,5.0625A.3747.3747,0,0,1,86.40625,100.2207Z"/>
        <circle class="cls-8" cx="86.24002" cy="101.35172" r="0.51947"/>
        <path d="M83.61914,90.10889a2.57637,2.57637,0,0,1-2.57226-2.54981l-.03516-3.15967a2.99385,2.99385,0,0,1,1.73535-2.75634c3.48731-1.60059,9.84766-2.37452,13.251-2.41309,3.69629-.03857,10.63183.67529,13.999,2.13037a2.99289,2.99289,0,0,1,1.79785,2.71582l.03613,3.15967a2.58029,2.58029,0,0,1-2.54492,2.6084l-4.9375.05566a2.624,2.624,0,0,1-1.82715-.73486,2.56785,2.56785,0,0,1-.77441-1.81543l-.01562-1.39551a.27246.27246,0,0,0-.26172-.271c-.71973-.02491-1.69825-.03809-2.7461-.0337h-.001a.37988.37988,0,0,1-.001-.75976c1.05469-.001,2.04785.0083,2.77539.03467a1.03016,1.03016,0,0,1,.99414,1.021l.01563,1.39551a1.81128,1.81128,0,0,0,.54687,1.28174,1.70087,1.70087,0,0,0,1.28711.51758l4.9375-.05567a1.81817,1.81817,0,0,0,1.793-1.83984l-.03613-3.15967a2.23194,2.23194,0,0,0-1.33887-2.02734c-3.27051-1.4126-10.06055-2.104-13.69043-2.06787-3.33594.03759-9.55664.78955-12.94238,2.34375a2.23383,2.23383,0,0,0-1.292,2.05712l.03516,3.15967a1.817,1.817,0,0,0,1.8125,1.79883h.02148l4.93165-.05566a1.8181,1.8181,0,0,0,1.79785-1.83985l-.01563-1.3955a1.032,1.032,0,0,1,.97071-1.04395l.11132-.00635c.88086-.05127,1.27246-.07422,2.6543-.09179h.00488a.3799.3799,0,0,1,.00489.75976c-1.36426.01709-1.751.03955-2.61914.09033l-.11133.00684a.27185.27185,0,0,0-.25586.27637l.01562,1.3955a2.5825,2.5825,0,0,1-2.5498,2.6084l-4.93164.05567Z"/>
        <path class="cls-8" d="M31.68219,107.21515H26.90151c-.90895,0-1.64581,1.13346-1.64581.2245h0a1.64581,1.64581,0,0,1,1.64581-1.6458h4.78068a1.6458,1.6458,0,0,1,1.6458,1.6458h0C33.328,108.34861,32.59114,107.21515,31.68219,107.21515Z"/>
        <path d="M31.68262,109.49805H26.90137a2.05835,2.05835,0,1,1,0-4.1167h4.78125a2.05835,2.05835,0,1,1,0,4.1167Zm-4.78125-3.29151a1.23316,1.23316,0,0,0,0,2.46631h4.78125a1.23316,1.23316,0,0,0,0-2.46631Z"/>
        <path class="cls-5" d="M11.04867,96.07851a1.1647,1.1647,0,0,1,0-2.3294"/>
        <path d="M17.19629,101.11328a6.43189,6.43189,0,1,1,0-12.86377.46544.46544,0,0,1,.46582.46582v11.93213A.46543.46543,0,0,1,17.19629,101.11328Zm-.46582-11.91211a5.49989,5.49989,0,0,0,0,10.96045Z"/>
        <path d="M11.04883,96.311a1.39722,1.39722,0,1,1,0-2.79444.23243.23243,0,0,1,0,.46485.93237.93237,0,1,0,0,1.86474.23243.23243,0,0,1,0,.46485Z"/>
        <g>
          <path d="M14.71875,97.853a.16047.16047,0,0,1-.1582-.13721l-.22364-1.52832a.15983.15983,0,0,1,.13477-.18115.16368.16368,0,0,1,.18164.13525l.22363,1.52832a.15981.15981,0,0,1-.13476.18115Z"/>
          <path d="M13.95117,97.49609a.16048.16048,0,0,1-.1582-.13671l-.22461-1.52833a.16029.16029,0,0,1,.13476-.18164.16479.16479,0,0,1,.18165.13477l.22461,1.52832a.1603.1603,0,0,1-.13477.18164Z"/>
        </g>
        <g>
          <path d="M104.72266,94.95752a.16048.16048,0,0,1-.15821-.13721l-.22363-1.52832a.15982.15982,0,0,1,.13477-.18115.158.158,0,0,1,.18164.13525l.22363,1.52832a.15983.15983,0,0,1-.13477.18116Z"/>
          <path d="M103.95508,94.60107a.16046.16046,0,0,1-.1582-.13671l-.22461-1.52881a.16028.16028,0,0,1,.13476-.18164.16218.16218,0,0,1,.18164.13476l.22461,1.52881a.16029.16029,0,0,1-.13476.18164Z"/>
        </g>
        <g>
          <path d="M41.74219,87.1333a.45094.45094,0,0,1-.45117-.45068c0-6.11621-5.333-11.09229-11.88868-11.09229S17.51367,80.56641,17.51367,86.68262a.45117.45117,0,0,1-.90234,0c0-6.61328,5.73828-11.99366,12.791-11.99366s12.791,5.38038,12.791,11.99366A.451.451,0,0,1,41.74219,87.1333Z"/>
          <path d="M39.87012,87.62695a.383.383,0,0,1-.38282-.38232c0-5.188-4.52343-9.40918-10.085-9.40918s-10.085,4.22119-10.085,9.40918a.38281.38281,0,0,1-.76562,0c0-5.60986,4.86816-10.17383,10.85058-10.17383s10.85059,4.564,10.85059,10.17383A.383.383,0,0,1,39.87012,87.62695Z"/>
        </g>
        <path class="cls-41" d="M20.707,80.40625a.25005.25005,0,0,1-.208-.38916,6.53618,6.53618,0,0,1,2.64258-2.165.25.25,0,0,1,.19141.46191,6.09557,6.09557,0,0,0-2.418,1.98145A.2506.2506,0,0,1,20.707,80.40625Z"/>
        <path class="cls-41" d="M35.74414,78.42188a.24468.24468,0,0,1-.13769-.04151,10.66388,10.66388,0,0,0-2.248-1.09863.25015.25015,0,0,1,.15527-.47559,10.96131,10.96131,0,0,1,2.36817,1.15723.2498.2498,0,0,1-.1377.4585Z"/>
        <rect class="cls-11" x="15.9016" y="86.06156" width="3.3935" height="17.7183" rx="1.69675"/>
        <path class="cls-42" d="M19.29336,96.55962v5.38a1.695,1.695,0,1,1-3.39,0v-5.38a1.695,1.695,0,1,0,3.39,0Z"/>
        <rect class="cls-11" x="39.32888" y="86.06156" width="3.3935" height="17.7183" rx="1.69675"/>
        <path d="M17.59863,103.99561a1.98051,1.98051,0,0,1-1.97851-1.978V87.69287a1.978,1.978,0,1,1,3.95605,0v14.32471A1.97968,1.97968,0,0,1,17.59863,103.99561Zm0-17.71827a1.41787,1.41787,0,0,0-1.416,1.41553v14.32471a1.41553,1.41553,0,1,0,2.83105,0V87.69287A1.417,1.417,0,0,0,17.59863,86.27734Z"/>
        <path class="cls-42" d="M42.72064,96.55962v5.38a1.695,1.695,0,1,1-3.39,0v-5.38a1.695,1.695,0,1,0,3.39,0Z"/>
        <path d="M41.02539,103.99561a1.97968,1.97968,0,0,1-1.97754-1.978V87.69287a1.978,1.978,0,1,1,3.95606,0v14.32471A1.98052,1.98052,0,0,1,41.02539,103.99561Zm0-17.71827a1.417,1.417,0,0,0-1.415,1.41553v14.32471a1.41553,1.41553,0,1,0,2.83106,0V87.69287A1.41788,1.41788,0,0,0,41.02539,86.27734Z"/>
        <path class="cls-41" d="M17.19629,92.79834a.25017.25017,0,0,1-.25-.25v-3.833a.25.25,0,0,1,.5,0v3.833A.25017.25017,0,0,1,17.19629,92.79834Z"/>
        <path class="cls-41" d="M41.02539,97.31787a.25017.25017,0,0,1-.25-.25V93.23438a.25.25,0,0,1,.5,0v3.83349A.25017.25017,0,0,1,41.02539,97.31787Z"/>
        <path class="cls-41" d="M107.61621,104.63623a.5.5,0,0,1-.49707-.457l-.33594-3.88965a.4999.4999,0,0,1,.9961-.08594l.33593,3.88965a.4998.4998,0,0,1-.45507.541C107.64551,104.63574,107.63086,104.63623,107.61621,104.63623Z"/>
        <path d="M29.05469,107.95264h-1.835a.16016.16016,0,0,1,0-.32032h1.835a.16016.16016,0,0,1,0,.32032Z"/>
        <path d="M105.67871,110.59961H86.74316A3.31794,3.31794,0,0,1,84.291,109.5498a2.77141,2.77141,0,0,1-.73829-2.13525l1.40918-14.15332A3.12627,3.12627,0,0,1,88.15234,90.564h16.11621a3.12485,3.12485,0,0,1,3.19043,2.70118l.0918.91308a.38037.38037,0,0,1-.33984.41553.36974.36974,0,0,1-.416-.34033l-.0918-.917a2.36323,2.36323,0,0,0-2.43457-2.0127H88.15234A2.364,2.364,0,0,0,85.71777,93.333l-1.40918,14.15283a2.0181,2.0181,0,0,0,.544,1.55127,2.55277,2.55277,0,0,0,1.89062.80273h18.93555a2.5528,2.5528,0,0,0,1.89063-.80273,2.02291,2.02291,0,0,0,.54394-1.55518l-1.01953-10.23a.38037.38037,0,0,1,.33984-.41552.35971.35971,0,0,1,.416.34033l1.01953,10.23388a2.77217,2.77217,0,0,1-.73926,2.13916A3.3142,3.3142,0,0,1,105.67871,110.59961Z"/>
        <circle class="cls-8" cx="31.0214" cy="160.3802" r="1.83529"/>
        <g>
          <g>
            <path d="M28.13184,158.69922a.27844.27844,0,0,1-.23145-.43457,3.75665,3.75665,0,0,1,3.12109-1.66162.27881.27881,0,1,1,0,.55761,3.20093,3.20093,0,0,0-2.6582,1.41553A.27761.27761,0,0,1,28.13184,158.69922Z"/>
            <path d="M26.68066,158.13525a.27285.27285,0,0,1-.13964-.03759.27819.27819,0,0,1-.10157-.38086,5.31137,5.31137,0,0,1,4.582-2.64356.27881.27881,0,1,1,0,.55762,4.75361,4.75361,0,0,0-4.0996,2.36523A.27872.27872,0,0,1,26.68066,158.13525Z"/>
            <path d="M25.39746,157.394a.273.273,0,0,1-.13965-.03759.27818.27818,0,0,1-.10156-.38086,6.79817,6.79817,0,0,1,5.86523-3.38428.27881.27881,0,1,1,0,.55762,6.24047,6.24047,0,0,0-5.38281,3.106A.27872.27872,0,0,1,25.39746,157.394Z"/>
          </g>
          <g>
            <path d="M33.916,158.69775a.28091.28091,0,0,1-.23145-.12255,3.20271,3.20271,0,0,0-2.65625-1.41309h-.00391a.27934.27934,0,0,1-.27929-.27832.29232.29232,0,0,1,.2832-.2793,3.76258,3.76258,0,0,1,3.11914,1.65821.27889.27889,0,0,1-.07519.3872A.27584.27584,0,0,1,33.916,158.69775Z"/>
            <path d="M35.36523,158.13232a.27928.27928,0,0,1-.24121-.13867,4.75317,4.75317,0,0,0-4.09765-2.36133h-.00391a.27882.27882,0,1,1,.00391-.55761,5.311,5.311,0,0,1,4.58008,2.63867.279.279,0,0,1-.24122.41894Z"/>
            <path d="M36.64941,157.39014a.27929.27929,0,0,1-.24121-.13868,6.23989,6.23989,0,0,0-5.37988-3.10107h-.00684a.27881.27881,0,1,1,0-.55762h.00684a6.79773,6.79773,0,0,1,5.8623,3.37842.27906.27906,0,0,1-.24121.41895Z"/>
          </g>
        </g>
        <rect class="cls-8" x="110.67325" y="145.15539" width="4.01911" height="32.22837" rx="1.19832"/>
        <rect class="cls-21" x="109.68237" y="145.15539" width="4.01911" height="32.22837" rx="1.19832"/>
        <path class="cls-43" d="M113.49414,178.11426h-1.62305a1.65918,1.65918,0,0,1-1.65722-1.65772v-29.832a1.65917,1.65917,0,0,1,1.65722-1.65771h1.62305a1.65918,1.65918,0,0,1,1.65723,1.65771v29.832A1.65918,1.65918,0,0,1,113.49414,178.11426Zm-1.62305-32.22852a.7402.7402,0,0,0-.73925.73877v29.832a.74019.74019,0,0,0,.73925.73877h1.62305a.74019.74019,0,0,0,.73926-.73877v-29.832a.7402.7402,0,0,0-.73926-.73877Z"/>
        <path class="cls-8" d="M94.32891,178.98608H87.2191a.7297.7297,0,0,1-.69917-.7568V144.42982a.7297.7297,0,0,1,.69917-.7568h22.428a.7297.7297,0,0,1,.69917.7568v33.79946a.7297.7297,0,0,1-.69917.7568H96.70954"/>
        <path class="cls-44" d="M96.47509,178.98608H89.36527a.7297.7297,0,0,1-.69917-.7568V144.42982a.7297.7297,0,0,1,.69917-.7568h22.428a.7297.7297,0,0,1,.69917.7568v33.79946a.7297.7297,0,0,1-.69917.7568H98.85572"/>
        <path class="cls-14" d="M112.15059,144.42992v33.80144a.73643.73643,0,0,1-.70747.75339H88.99771c18.19994-3.0894,22.75655-24.57574,22.40864-35.30823h.03677A.73054.73054,0,0,1,112.15059,144.42992Z"/>
        <path class="cls-43" d="M111.73535,179.44531H97.73145a.45947.45947,0,0,1,0-.91894h14.0039a.29789.29789,0,0,0,.29785-.29688v-33.7998a.298.298,0,0,0-.29785-.29737H87.459a.298.298,0,0,0-.29785.29737V155.792a.459.459,0,1,1-.918,0v-11.3623a1.2173,1.2173,0,0,1,1.21582-1.21631h24.27637a1.2173,1.2173,0,0,1,1.21582,1.21631v33.7998A1.21688,1.21688,0,0,1,111.73535,179.44531Z"/>
        <path class="cls-43" d="M86.70215,169.36133a.45887.45887,0,0,1-.459-.45947v-7.86329a.459.459,0,1,1,.918,0v7.86329A.45887.45887,0,0,1,86.70215,169.36133Z"/>
        <path class="cls-43" d="M95.15527,179.44531H87.459a1.21688,1.21688,0,0,1-1.21582-1.21582v-2.73584a.459.459,0,1,1,.918,0v2.73584a.29789.29789,0,0,0,.29785.29688h7.69629a.45947.45947,0,0,1,0,.91894Z"/>
        <circle class="cls-43" cx="86.70219" cy="172.39074" r="0.5473"/>
        <circle class="cls-8" cx="88.785" cy="149.64181" r="1.0934"/>
        <circle class="cls-8" cx="88.785" cy="158.5052" r="0.61898"/>
        <circle class="cls-8" cx="88.785" cy="154.26807" r="0.43692"/>
        <circle class="cls-8" cx="89.90914" cy="151.32802" r="0.43692"/>
        <circle class="cls-8" cx="89.70377" cy="160.26707" r="0.43692"/>
        <g>
          <path class="cls-43" d="M110.67285,150.55225a.22776.22776,0,0,1-.17383-.07959l-.99023-1.15186a.22954.22954,0,1,1,.34766-.2998l.99023,1.15185a.22945.22945,0,0,1-.17383.3794Z"/>
          <path class="cls-43" d="M109.48828,150.76172a.23.23,0,0,1-.17773-.0835l-1.44532-1.75634a.23.23,0,0,1,.35547-.292l1.44532,1.75635a.22956.22956,0,0,1-.03223.32324A.22572.22572,0,0,1,109.48828,150.76172Z"/>
        </g>
        <path class="cls-8" d="M97.24642,159.977c-.028,1.2192.0074,3.64785.07093,4.86383a.358.358,0,0,0,.3227.37245l1.00474.11486a1.225,1.225,0,0,1,1.08784,1.32041l.0437,2.99553a1.22289,1.22289,0,0,1-1.0489,1.34778l-1.86156-.10235a1.28812,1.28812,0,0,1-1.17414-.91943,26.648,26.648,0,0,1-.21992-15.07277,1.28814,1.28814,0,0,1,1.14681-.95331l1.86156.10235a1.22289,1.22289,0,0,1,1.08778,1.3166l.04376,2.99934a1.22288,1.22288,0,0,1-1.0489,1.34778l-1.00471-.11484A.358.358,0,0,0,97.24642,159.977Z"/>
        <path class="cls-8" d="M97.83536,159.97343c-.028,1.2192.00741,3.64785.07093,4.86383a.358.358,0,0,0,.3227.37245l1.00474.11486a1.225,1.225,0,0,1,1.08784,1.32041l.0437,2.99553a1.22288,1.22288,0,0,1-1.0489,1.34778l-1.86156-.10235a1.28812,1.28812,0,0,1-1.17414-.91943,26.64821,26.64821,0,0,1-.21992-15.07277,1.28812,1.28812,0,0,1,1.14681-.9533l1.86156.10234a1.22289,1.22289,0,0,1,1.08778,1.31661l.04376,2.99933a1.22287,1.22287,0,0,1-1.0489,1.34778l-1.0047-.11484A.358.358,0,0,0,97.83536,159.97343Z"/>
        <path d="M97.2207,171.398a1.968,1.968,0,0,1-1.78515-1.13477,21.93624,21.93624,0,0,1-.22461-15.38183,1.96707,1.96707,0,0,1,1.78125-1.187l1.91894-.02832.02539-.00049a1.7155,1.7155,0,0,1,1.71485,1.687l.04394,2.999a1.71652,1.71652,0,0,1-1.69043,1.73584l-.84765.0127c-.03223.45263-.03711,1.04394-.03321,1.67871a.37884.37884,0,0,1-.377.38183h-.00195a.37917.37917,0,0,1-.37891-.37695c-.00391-.64648.001-1.24853.01563-1.69238a.77344.77344,0,0,1,.76464-.749l.84668-.0127a.95852.95852,0,0,0,.94434-.96777l-.04395-2.99854a.98571.98571,0,0,0-.9707-.93945l-1.91992.02832a1.20806,1.20806,0,0,0-1.09473.728,21.19678,21.19678,0,0,0,.21485,14.76416,1.23647,1.23647,0,0,0,1.11523.69531l1.91992-.02783a.95769.95769,0,0,0,.94336-.96778l-.04394-2.9956a.98037.98037,0,0,0-.97071-.94287l-.84765.01269-.01074.00049a.77609.77609,0,0,1-.7754-.72656c-.03808-.61182-.05273-.856-.06542-1.6875a.37774.37774,0,0,1,.373-.38477l.00586-.00049a.37879.37879,0,0,1,.37891.37354c.01269.81348.02734,1.05273.05859,1.5625l.0293.48389-.00586-.37891.84766-.0127.02539-.00048a1.71713,1.71713,0,0,1,1.71484,1.69043l.04395,2.9956a1.71579,1.71579,0,0,1-1.68946,1.73633l-1.91992.02783Z"/>
        <rect class="cls-9" x="83.98333" y="147.65859" width="7.41656" height="3.02423" rx="1.51211"/>
        <path class="cls-8" d="M89.88777,148.96444H85.49544c-.83512,0-1.51212,1.04138-1.51212.20626h0a1.51212,1.51212,0,0,1,1.51212-1.51211h4.39233a1.5121,1.5121,0,0,1,1.51211,1.51211h0C91.39988,150.00582,90.72289,148.96444,89.88777,148.96444Z"/>
        <path d="M89.8877,150.96191H85.49512a1.79126,1.79126,0,0,1,0-3.58252H89.8877a1.79126,1.79126,0,0,1,0,3.58252ZM85.49512,147.938a1.23267,1.23267,0,0,0,0,2.46533H89.8877a1.23267,1.23267,0,0,0,0-2.46533Z"/>
        <path d="M87.47363,149.64209H85.78809a.147.147,0,0,1,0-.29395h1.68554a.147.147,0,0,1,0,.29395Z"/>
        <rect class="cls-9" x="83.98333" y="155.36572" width="7.41656" height="3.02423" rx="1.51211"/>
        <path class="cls-8" d="M89.88777,156.67157H85.49544c-.83512,0-1.51212,1.04138-1.51212.20626h0a1.51212,1.51212,0,0,1,1.51212-1.51211h4.39233a1.5121,1.5121,0,0,1,1.51211,1.51211h0C91.39988,157.713,90.72289,156.67157,89.88777,156.67157Z"/>
        <path d="M89.8877,158.66943H85.49512a1.7915,1.7915,0,0,1,0-3.583H89.8877a1.7915,1.7915,0,0,1,0,3.583ZM85.49512,155.645a1.23291,1.23291,0,0,0,0,2.46582H89.8877a1.23291,1.23291,0,0,0,0-2.46582Z"/>
        <path d="M87.47363,157.34912H85.78809a.147.147,0,0,1,0-.29394h1.68554a.147.147,0,0,1,0,.29394Z"/>
        <rect class="cls-9" x="83.98333" y="170.77998" width="7.41656" height="3.02423" rx="1.51211"/>
        <path class="cls-8" d="M89.88777,172.08583H85.49544c-.83512,0-1.51212,1.04138-1.51212.20626h0A1.51212,1.51212,0,0,1,85.49544,170.78h4.39233a1.5121,1.5121,0,0,1,1.51211,1.51211h0C91.39988,173.12721,90.72289,172.08583,89.88777,172.08583Z"/>
        <path d="M89.8877,174.0835H85.49512a1.79151,1.79151,0,0,1,0-3.583H89.8877a1.79151,1.79151,0,0,1,0,3.583Zm-4.39258-3.02442a1.23291,1.23291,0,0,0,0,2.46582H89.8877a1.23291,1.23291,0,0,0,0-2.46582Z"/>
        <path d="M87.47363,172.76318H85.78809a.147.147,0,0,1,0-.29394h1.68554a.147.147,0,0,1,0,.29394Z"/>
        <rect class="cls-9" x="83.98333" y="163.07285" width="7.41656" height="3.02423" rx="1.51211"/>
        <path class="cls-8" d="M89.88777,164.3787H85.49544c-.83512,0-1.51212,1.04138-1.51212.20626h0a1.51212,1.51212,0,0,1,1.51212-1.51211h4.39233a1.5121,1.5121,0,0,1,1.51211,1.51211h0C91.39988,165.42008,90.72289,164.3787,89.88777,164.3787Z"/>
        <path d="M89.8877,166.37646H85.49512a1.7915,1.7915,0,0,1,0-3.583H89.8877a1.7915,1.7915,0,0,1,0,3.583Zm-4.39258-3.02441a1.23291,1.23291,0,0,0,0,2.46582H89.8877a1.23291,1.23291,0,0,0,0-2.46582Z"/>
        <path d="M87.47363,165.05615H85.78809a.147.147,0,0,1,0-.29394h1.68554a.147.147,0,0,1,0,.29394Z"/>
        <rect class="cls-45" x="112.49248" y="150.32278" width="3.15281" height="3.72209"/>
        <rect class="cls-46" x="112.49248" y="150.32278" width="1.37635" height="3.72209"/>
        <path d="M115.64551,154.30176h-3.15332a.25684.25684,0,0,1-.25684-.25684v-3.72217a.25684.25684,0,0,1,.25684-.25683h3.15332a.25683.25683,0,0,1,.25683.25683v.979a.25684.25684,0,0,1-.51367,0v-.72217H112.749v3.2085h2.63965V152.396a.25684.25684,0,1,1,.51367,0v1.64892A.25684.25684,0,0,1,115.64551,154.30176Z"/>
        <path d="M31.02344,162.47754a2.114,2.114,0,1,1,2.11426-2.11426A2.11722,2.11722,0,0,1,31.02344,162.47754Zm0-3.67041a1.5564,1.5564,0,1,0,1.55566,1.55615A1.55821,1.55821,0,0,0,31.02344,158.80713Z"/>
        <g>
          <g>
            <g>
              <path class="cls-1" d="M140.141,166.61829h47.03516a24.68943,24.68943,0,0,1-47.03516,0Z"/>
              <path class="cls-2" d="M187.796,153.83859H139.521a24.69684,24.69684,0,0,1,48.27494,0Z"/>
              <path class="cls-3" d="M188.361,159.331a15.14149,15.14149,0,0,1-1.18482,5.85137H140.141a14.95942,14.95942,0,0,1-.62-9.90789H187.796A15.14049,15.14049,0,0,1,188.361,159.331Z"/>
            </g>
            <path d="M163.666,188.49756a29.43246,29.43246,0,0,1-29.40918-29.42529,29.40187,29.40187,0,1,1,58.80371,0A29.43627,29.43627,0,0,1,163.666,188.49756Zm0-57.33545a27.88556,27.88556,0,1,0,27.26562,21.99658A28.01254,28.01254,0,0,0,163.666,131.16211Z"/>
            <circle class="cls-8" cx="163.65849" cy="159.07995" r="0.47877"/>
            <circle class="cls-8" cx="163.65849" cy="159.07995" r="0.47877"/>
            <circle class="cls-8" cx="163.65849" cy="159.07995" r="0.83944"/>
            <circle class="cls-8" cx="163.65849" cy="159.07995" r="0.83944"/>
            <circle class="cls-8" cx="142.54914" cy="161.5888" r="0.83944"/>
            <circle class="cls-8" cx="148.26137" cy="144.61154" r="1.05882"/>
            <circle class="cls-8" cx="183.84123" cy="168.85855" r="0.6"/>
          </g>
          <circle class="cls-8" cx="165.89259" cy="179.79412" r="0.48645"/>
          <circle class="cls-8" cx="171.36378" cy="176.70606" r="0.60573"/>
        </g>
        <circle class="cls-8" cx="170.9559" cy="139.26765" r="0.25294"/>
        <g>
          <polygon class="cls-8" points="29.402 42.251 27.407 42.251 29.692 16.552 31.688 16.552 29.402 42.251"/>
          <polygon class="cls-8" points="31.719 42.267 30.476 42.251 32.761 16.552 34.005 16.568 31.719 42.267"/>
        </g>
        <g>
          <polygon class="cls-8" points="170.63 40.453 168.967 41.555 156.687 18.864 158.35 17.763 170.63 40.453"/>
          <polygon class="cls-8" points="172.571 39.187 171.526 39.86 159.246 17.17 160.291 16.497 172.571 39.187"/>
        </g>
        <path d="M39.56543,16.68506H26.03613a.34522.34522,0,1,1,0-.69043h13.5293a.34522.34522,0,1,1,0,.69043Z"/>
        <path d="M39.56543,42.7666H25.667a.34522.34522,0,1,1,0-.69043H39.56543a.34522.34522,0,1,1,0,.69043Z"/>
        <g>
          <path d="M19.584,22.21582a.49513.49513,0,0,1-.49511-.49512V19.22656a.49512.49512,0,0,1,.99023,0V21.7207A.49513.49513,0,0,1,19.584,22.21582Z"/>
          <path d="M19.584,25.81982a.49512.49512,0,0,1-.49511-.49511V23.7915a.49512.49512,0,0,1,.99023,0v1.53321A.49513.49513,0,0,1,19.584,25.81982Z"/>
        </g>
        <g>
          <path d="M20.75977,152.03467a.49513.49513,0,0,1-.49512-.49512V149.0459a.49512.49512,0,1,1,.99023,0v2.49365A.49513.49513,0,0,1,20.75977,152.03467Z"/>
          <path d="M20.75977,155.63867a.49513.49513,0,0,1-.49512-.49512v-1.5332a.49512.49512,0,1,1,.99023,0v1.5332A.49513.49513,0,0,1,20.75977,155.63867Z"/>
        </g>
        <g>
          <g>
            <path d="M104.96484,162.31006a.27882.27882,0,0,1-.27929-.27881,3.23847,3.23847,0,0,0-1.43164-2.689.27925.27925,0,0,1,.3125-.4629,3.79792,3.79792,0,0,1,1.67773,3.15186A.27882.27882,0,0,1,104.96484,162.31006Z"/>
            <path d="M106.51074,162.31006a.27882.27882,0,0,1-.27929-.27881,4.80526,4.80526,0,0,0-2.39063-4.14453.27872.27872,0,1,1,.2793-.48242,5.36392,5.36392,0,0,1,2.66992,4.62695A.27882.27882,0,0,1,106.51074,162.31006Z"/>
            <path d="M108.00879,162.31006a.27882.27882,0,0,1-.2793-.27881,6.31046,6.31046,0,0,0-3.13965-5.44238.27872.27872,0,1,1,.2793-.48242,6.86971,6.86971,0,0,1,3.41895,5.9248A.27882.27882,0,0,1,108.00879,162.31006Z"/>
          </g>
          <g>
            <path d="M103.41211,165.23486a.27863.27863,0,0,1-.15625-.50976,3.2411,3.2411,0,0,0,1.42871-2.69092.27914.27914,0,0,1,.2793-.27881h0a.27882.27882,0,0,1,.27929.27881,3.79637,3.79637,0,0,1-1.6748,3.15283A.27582.27582,0,0,1,103.41211,165.23486Z"/>
            <path d="M103.9834,166.69971a.2787.2787,0,0,1-.13965-.52,4.803,4.803,0,0,0,2.38574-4.14649.27924.27924,0,0,1,.2793-.27929h0a.27935.27935,0,0,1,.2793.27832,5.36384,5.36384,0,0,1-2.665,4.62988A.27781.27781,0,0,1,103.9834,166.69971Z"/>
            <path d="M104.7334,167.99658a.2787.2787,0,0,1-.13965-.52,6.30658,6.30658,0,0,0,3.13379-5.44482.27924.27924,0,0,1,.2793-.2793h0a.27934.27934,0,0,1,.27929.27832,6.86533,6.86533,0,0,1-3.41308,5.92822A.27771.27771,0,0,1,104.7334,167.99658Z"/>
          </g>
        </g>
        <path d="M167.09375,43.21777a.3452.3452,0,0,1-.17773-.64111l11.91113-7.16211a.34518.34518,0,0,1,.35547.5918l-11.91114,7.16211A.342.342,0,0,1,167.09375,43.21777Z"/>
        <path d="M153.96973,20.67578a.3452.3452,0,0,1-.17774-.64111l11.59473-6.97217a.34518.34518,0,0,1,.35547.5918l-11.59473,6.97216A.342.342,0,0,1,153.96973,20.67578Z"/>
        <g>
          <path class="cls-47" d="M161.23478,156.84454v19.12339a.95068.95068,0,0,1-.95068.95068h-8.39024a.95068.95068,0,0,1-.95068-.95068v-31.8395a.95068.95068,0,0,1,.95068-.95068h8.39024a.95068.95068,0,0,1,.95068.95068v9.26436"/>
          <path d="M160.28418,177.35449h-8.39063a1.38745,1.38745,0,0,1-1.38574-1.38672V144.12842a1.38745,1.38745,0,0,1,1.38574-1.38672h8.39063a1.38744,1.38744,0,0,1,1.38574,1.38672v9.26416a.43555.43555,0,1,1-.87109,0v-9.26416a.51566.51566,0,0,0-.51465-.51465h-8.39063a.51565.51565,0,0,0-.51464.51465v31.83935a.51565.51565,0,0,0,.51464.51465h8.39063a.51566.51566,0,0,0,.51465-.51465v-19.123a.43555.43555,0,1,1,.87109,0v19.123A1.38744,1.38744,0,0,1,160.28418,177.35449Z"/>
          <path class="cls-48" d="M148.2261,144.90484H166.951a.98759.98759,0,0,1,.98759.98759v26.46933a.98759.98759,0,0,1-.98759.98759H148.2261a0,0,0,0,1,0,0V144.90484A0,0,0,0,1,148.2261,144.90484Z" transform="translate(316.16469 318.2542) rotate(-180)"/>
          <path class="cls-43" d="M167.93848,173.72412H149.21387a1.36411,1.36411,0,0,1-1.36231-1.3623V145.89258a1.36421,1.36421,0,0,1,1.36231-1.36279h18.72461a.37509.37509,0,0,1,.375.375v28.44433A.3751.3751,0,0,1,167.93848,173.72412Zm-18.72461-28.44433a.61308.61308,0,0,0-.61231.61279v26.46924a.613.613,0,0,0,.61231.6123h18.34961V145.27979Z"/>
          <path class="cls-11" d="M148.2261,142.911H166.951a.98759.98759,0,0,1,.98759.98759V170.368a.98759.98759,0,0,1-.98759.98759H148.2261a0,0,0,0,1,0,0V142.911A0,0,0,0,1,148.2261,142.911Z" transform="translate(316.16469 314.26658) rotate(-180)"/>
          <path class="cls-43" d="M167.93848,171.73047H149.21387a1.36411,1.36411,0,0,1-1.36231-1.36231V143.89844a1.36411,1.36411,0,0,1,1.36231-1.36231h18.72461a.3751.3751,0,0,1,.375.375v28.44434A.3751.3751,0,0,1,167.93848,171.73047Zm-18.72461-28.44434a.613.613,0,0,0-.61231.61231v26.46972a.613.613,0,0,0,.61231.61231h18.34961V143.28613Z"/>
          <path class="cls-49" d="M179.08749,143.90023v1.60465a.98547.98547,0,0,0-.98823-.98823H159.38179V142.912h18.71747A.98547.98547,0,0,1,179.08749,143.90023Z"/>
          <path class="cls-48" d="M159.3784,144.90484h18.72489a.98759.98759,0,0,1,.98759.98759v26.46933a.98759.98759,0,0,1-.98759.98759H159.3784a0,0,0,0,1,0,0V144.90484A0,0,0,0,1,159.3784,144.90484Z"/>
          <path class="cls-43" d="M178.10352,173.72412H159.37793a.3751.3751,0,0,1-.375-.375V144.90479a.37509.37509,0,0,1,.375-.375h18.72559a1.3642,1.3642,0,0,1,1.3623,1.36279v26.46924A1.36411,1.36411,0,0,1,178.10352,173.72412Zm-18.35059-.75h18.35059a.613.613,0,0,0,.6123-.6123V145.89258a.61307.61307,0,0,0-.6123-.61279H159.75293Z"/>
          <path class="cls-11" d="M159.3784,142.911h18.72489a.98759.98759,0,0,1,.98759.98759V170.368a.98759.98759,0,0,1-.98759.98759H159.3784a0,0,0,0,1,0,0V142.911A0,0,0,0,1,159.3784,142.911Z"/>
          <path class="cls-43" d="M178.10352,171.73047H159.37793a.3751.3751,0,0,1-.375-.375V142.91113a.3751.3751,0,0,1,.375-.375h18.72559a1.36411,1.36411,0,0,1,1.3623,1.36231v26.46972A1.36411,1.36411,0,0,1,178.10352,171.73047Zm-18.35059-.75h18.35059a.613.613,0,0,0,.6123-.61231V143.89844a.613.613,0,0,0-.6123-.61231H159.75293Z"/>
          <rect class="cls-11" x="150.94318" y="141.2413" width="10.29159" height="33.74086" rx="0.95068"/>
          <rect class="cls-48" x="150.94318" y="166.6806" width="10.29159" height="8.30155" rx="0.95068"/>
          <path d="M152.30176,177.35449a4.22693,4.22693,0,0,1-4.22168-4.22265v-.96827a2.86658,2.86658,0,0,1,2.86328-2.86377.436.436,0,0,1,0,.87208,1.99416,1.99416,0,0,0-1.99219,1.99169v.96827a3.35108,3.35108,0,0,0,6.70215,0v-.72559a.43555.43555,0,1,1,.87109,0v.72559A4.22776,4.22776,0,0,1,152.30176,177.35449Z"/>
          <rect class="cls-21" x="163.5257" y="146.23704" width="13.16856" height="5.08117"/>
          <rect class="cls-11" x="163.5257" y="149.92339" width="13.16856" height="1.39481"/>
          <path d="M176.69434,151.6875h-13.169a.36885.36885,0,0,1-.36914-.36914v-5.08154a.36884.36884,0,0,1,.36914-.36914h13.169a.36884.36884,0,0,1,.36914.36914v5.08154A.36885.36885,0,0,1,176.69434,151.6875Zm-12.79981-.73828H176.3252V146.606H163.89453Z"/>
          <g class="cls-50">
            <g>
              <rect class="cls-22" x="163.5257" y="153.18884" width="3.68551" height="1.71924"/>
              <rect class="cls-22" x="168.26723" y="153.18884" width="3.68551" height="1.71924"/>
              <rect class="cls-22" x="173.00875" y="153.18884" width="3.68551" height="1.71924"/>
            </g>
            <g>
              <rect class="cls-22" x="163.5257" y="155.88318" width="3.68551" height="1.71924"/>
              <rect class="cls-22" x="168.26723" y="155.88318" width="3.68551" height="1.71924"/>
              <rect class="cls-22" x="173.00875" y="155.88318" width="3.68551" height="1.71924"/>
            </g>
            <g>
              <rect class="cls-22" x="163.5257" y="158.57752" width="3.68551" height="1.71924"/>
              <rect class="cls-22" x="168.26723" y="158.57752" width="3.68551" height="1.71924"/>
              <rect class="cls-22" x="173.00875" y="158.57752" width="3.68551" height="1.71924"/>
            </g>
          </g>
          <rect class="cls-51" x="164.81493" y="148.06394" width="1.97989" height="1.42736"/>
          <rect class="cls-51" x="167.42297" y="148.06394" width="0.98994" height="1.42736"/>
          <rect class="cls-51" x="169.1162" y="148.06394" width="0.98994" height="1.42736"/>
          <rect class="cls-51" x="170.9041" y="148.06394" width="0.49497" height="1.42736"/>
          <path class="cls-49" d="M152.30176,159.80371a.36666.36666,0,0,1-.36719-.3667V157.7876a.36719.36719,0,0,1,.73438,0V159.437A.36666.36666,0,0,1,152.30176,159.80371Z"/>
          <path class="cls-49" d="M152.30176,156.25a.36666.36666,0,0,1-.36719-.3667v-8.07666a.36719.36719,0,0,1,.73438,0v8.07666A.36666.36666,0,0,1,152.30176,156.25Z"/>
          <g>
            <path d="M158.94336,145.2876a.1577.1577,0,0,1-.15527-.13428l-.21875-1.49561a.15684.15684,0,0,1,.13281-.17724.15932.15932,0,0,1,.17773.13232l.21875,1.49561a.15683.15683,0,0,1-.13281.17724Z"/>
            <path d="M158.19238,144.93848a.15772.15772,0,0,1-.15527-.13379l-.21973-1.49561a.15731.15731,0,0,1,.13282-.17773.15928.15928,0,0,1,.17773.13183l.21973,1.49561a.15731.15731,0,0,1-.13282.17773Z"/>
          </g>
          <g>
            <path d="M177.17969,169.55713a.15772.15772,0,0,1-.15528-.13379l-.21972-1.49512a.15731.15731,0,0,1,.13281-.17773.16009.16009,0,0,1,.17773.13183l.21973,1.49512a.15732.15732,0,0,1-.13281.17774Z"/>
            <path d="M176.42773,169.2085a.15771.15771,0,0,1-.15527-.13428l-.21875-1.49561a.15683.15683,0,0,1,.13281-.17724.16155.16155,0,0,1,.17774.13232l.21875,1.49561a.15683.15683,0,0,1-.13281.17724Z"/>
          </g>
          <g>
            <g>
              <path d="M167.21094,155.13818h-3.68555a.22964.22964,0,0,1-.22949-.23V153.189a.22964.22964,0,0,1,.22949-.23h3.68555a.22964.22964,0,0,1,.22949.23v1.71924A.22964.22964,0,0,1,167.21094,155.13818Zm-3.45606-.46h3.22657V153.419h-3.22657Z"/>
              <path d="M171.95312,155.13818h-3.68554a.22963.22963,0,0,1-.22949-.23V153.189a.22964.22964,0,0,1,.22949-.23h3.68554a.22965.22965,0,0,1,.2295.23v1.71924A.22964.22964,0,0,1,171.95312,155.13818Zm-3.45605-.46h3.22656V153.419h-3.22656Z"/>
              <path d="M176.69434,155.13818h-3.68555a.22964.22964,0,0,1-.22949-.23V153.189a.22964.22964,0,0,1,.22949-.23h3.68555a.22964.22964,0,0,1,.22949.23v1.71924A.22964.22964,0,0,1,176.69434,155.13818Zm-3.45606-.46h3.22656V153.419h-3.22656Z"/>
            </g>
            <g>
              <path d="M167.21094,157.83252h-3.68555a.22964.22964,0,0,1-.22949-.23V155.8833a.22964.22964,0,0,1,.22949-.23h3.68555a.22964.22964,0,0,1,.22949.23v1.71924A.22964.22964,0,0,1,167.21094,157.83252Zm-3.45606-.46h3.22657v-1.25928h-3.22657Z"/>
              <path d="M171.95312,157.83252h-3.68554a.22964.22964,0,0,1-.22949-.23V155.8833a.22964.22964,0,0,1,.22949-.23h3.68554a.22965.22965,0,0,1,.2295.23v1.71924A.22965.22965,0,0,1,171.95312,157.83252Zm-3.45605-.46h3.22656v-1.25928h-3.22656Z"/>
              <path d="M176.69434,157.83252h-3.68555a.22964.22964,0,0,1-.22949-.23V155.8833a.22964.22964,0,0,1,.22949-.23h3.68555a.22964.22964,0,0,1,.22949.23v1.71924A.22964.22964,0,0,1,176.69434,157.83252Zm-3.45606-.46h3.22656v-1.25928h-3.22656Z"/>
            </g>
            <g>
              <path d="M167.21094,160.52686h-3.68555a.22964.22964,0,0,1-.22949-.23v-1.71924a.22964.22964,0,0,1,.22949-.23h3.68555a.22964.22964,0,0,1,.22949.23v1.71924A.22964.22964,0,0,1,167.21094,160.52686Zm-3.45606-.46h3.22657v-1.25927h-3.22657Z"/>
              <path d="M171.95312,160.52686h-3.68554a.22964.22964,0,0,1-.22949-.23v-1.71924a.22963.22963,0,0,1,.22949-.23h3.68554a.22964.22964,0,0,1,.2295.23v1.71924A.22965.22965,0,0,1,171.95312,160.52686Zm-3.45605-.46h3.22656v-1.25927h-3.22656Z"/>
              <path d="M176.69434,160.52686h-3.68555a.22964.22964,0,0,1-.22949-.23v-1.71924a.22964.22964,0,0,1,.22949-.23h3.68555a.22964.22964,0,0,1,.22949.23v1.71924A.22964.22964,0,0,1,176.69434,160.52686Zm-3.45606-.46h3.22656v-1.25927h-3.22656Z"/>
            </g>
          </g>
          <path class="cls-48" d="M161.77637,167.67188a.48919.48919,0,0,1-.48926-.48926V147.084a.48926.48926,0,0,1,.97851,0v20.09864A.48918.48918,0,0,1,161.77637,167.67188Z"/>
          <path d="M160.28418,175.418h-8.39063a1.38745,1.38745,0,0,1-1.38574-1.38672V142.19189a1.38744,1.38744,0,0,1,1.38574-1.38671h8.39063a1.38744,1.38744,0,0,1,1.38574,1.38671v9.26465a.43555.43555,0,1,1-.87109,0v-9.26465a.51565.51565,0,0,0-.51465-.51464h-8.39063a.51565.51565,0,0,0-.51464.51464v31.83936a.51565.51565,0,0,0,.51464.51465h8.39063a.51566.51566,0,0,0,.51465-.51465V154.9082a.43555.43555,0,1,1,.87109,0v19.12305A1.38744,1.38744,0,0,1,160.28418,175.418Z"/>
          <circle cx="161.23478" cy="153.18884" r="0.40288"/>
          <path class="cls-43" d="M158.63184,167.05566h-5.36426a.375.375,0,0,1,0-.75h5.36426a.375.375,0,0,1,0,.75Z"/>
        </g>
      </g>
    </g>
  </g>
</svg>
