<?xml version="1.0" encoding="UTF-8"?>
<svg id="Layer_2" data-name="Layer 2" xmlns="http://www.w3.org/2000/svg" viewBox="0 0 473.12 593.66">
  <defs>
    <style>
      .cls-1 {
        fill: #f7b14b;
      }

      .cls-2 {
        fill: #f6484b;
      }

      .cls-3 {
        fill: #675c6c;
      }

      .cls-4 {
        fill: #eaeaea;
      }

      .cls-5 {
        fill: #ffdede;
      }

      .cls-6, .cls-7, .cls-8 {
        fill: #e89176;
      }

      .cls-9 {
        fill: #f5f6f7;
      }

      .cls-10 {
        fill: #fd5457;
      }

      .cls-11 {
        fill: #ea3d90;
      }

      .cls-12 {
        fill: #fdc6a2;
      }

      .cls-13 {
        fill: #e59328;
      }

      .cls-14 {
        fill: #e8f3f9;
      }

      .cls-15 {
        fill: #e2e5e8;
      }

      .cls-16, .cls-17 {
        fill: #fff;
      }

      .cls-18 {
        fill: #f69246;
      }

      .cls-19 {
        fill: #ffe8dc;
      }

      .cls-20 {
        fill: #ffaa71;
      }

      .cls-21 {
        fill: #ffd097;
      }

      .cls-22 {
        fill: #e5353e;
      }

      .cls-23 {
        fill: #fec66d;
      }

      .cls-24 {
        fill: #ff7b82;
      }

      .cls-25 {
        fill: #ff7dc7;
      }

      .cls-26 {
        fill: #752d67;
      }

      .cls-27 {
        fill: #854277;
      }

      .cls-28 {
        fill: #91052d;
      }

      .cls-29 {
        fill: #ccf2fe;
      }

      .cls-30 {
        fill: #a85b9a;
      }

      .cls-31 {
        fill: #d7ffdf;
      }

      .cls-32 {
        fill: #af143b;
      }

      .cls-33 {
        fill: #a9b8c4;
      }

      .cls-34 {
        fill: #c66a58;
      }

      .cls-35 {
        fill: #d38571;
      }

      .cls-36 {
        fill: #c60c6e;
      }

      .cls-37 {
        fill: #adadad;
      }

      .cls-38 {
        fill: #e07127;
      }

      .cls-39 {
        fill: #1ec441;
      }

      .cls-40 {
        fill: #33e55d;
      }

      .cls-41 {
        fill: #1b3c47;
      }

      .cls-42, .cls-43 {
        fill: #181828;
      }

      .cls-44 {
        fill: #1b1b2b;
      }

      .cls-45 {
        fill: #707070;
      }

      .cls-46, .cls-47 {
        fill: #88d9fc;
      }

      .cls-48 {
        fill: #5aff7d;
      }

      .cls-49 {
        fill: #513f5b;
      }

      .cls-7 {
        opacity: .49;
      }

      .cls-7, .cls-43, .cls-17, .cls-8, .cls-47 {
        isolation: isolate;
      }

      .cls-43, .cls-50 {
        opacity: .35;
      }

      .cls-17 {
        opacity: .55;
      }

      .cls-8 {
        opacity: .62;
      }

      .cls-47 {
        opacity: .25;
      }

      .cls-51 {
        opacity: .15;
      }
    </style>
  </defs>
  <g id="Layer_1-2" data-name="Layer 1">
    <g id="Layer_2-2" data-name="Layer 2">
      <g id="Layer_1-2" data-name="Layer 1-2">
        <g class="cls-50">
          <rect class="cls-15" x="273.98" y="132.42" width="96.9" height="178.27"/>
          <rect class="cls-33" x="273.98" y="132.42" width="96.9" height="5.58"/>
          <path class="cls-42" d="M370.88,312.06h-96.88c-.76,0-1.37-.61-1.37-1.37V132.42c0-.76,.6-1.37,1.36-1.38,0,0,0,0,.01,0h96.9c.76,0,1.37,.61,1.37,1.37,0,0,0,0,0,.01v178.27c0,.76-.61,1.37-1.37,1.37,0,0-.01,0-.02,0Zm-95.52-2.75h94.14V133.8h-94.14v175.51Z"/>
          <rect class="cls-16" x="281.53" y="150.93" width="81.79" height="5.45"/>
          <rect class="cls-16" x="281.53" y="171.88" width="81.79" height="5.45"/>
          <rect class="cls-16" x="281.53" y="192.83" width="81.79" height="5.45"/>
          <rect class="cls-16" x="281.53" y="213.77" width="81.79" height="5.45"/>
          <rect class="cls-16" x="281.53" y="234.72" width="81.79" height="5.45"/>
          <rect class="cls-16" x="281.53" y="276.61" width="81.79" height="5.45"/>
          <rect class="cls-16" x="281.53" y="297.56" width="81.79" height="5.45"/>
          <rect class="cls-16" x="281.53" y="255.67" width="81.79" height="5.45"/>
          <path class="cls-42" d="M363.33,158.06h-81.8c-.48,0-.87-.39-.87-.87v-5.45c0-.48,.38-.87,.86-.88,0,0,0,0,.01,0h81.8c.48,0,.87,.39,.87,.87,0,0,0,0,0,.01v5.45c0,.48-.39,.87-.87,.87Zm-80.92-1.75h80v-3.7h-80v3.7Z"/>
          <path class="cls-42" d="M363.33,179.01h-81.8c-.48,0-.87-.39-.87-.87,0,0,0,0,0-.01v-5.45c0-.48,.39-.87,.87-.87h81.8c.48,0,.87,.39,.87,.87v5.45c0,.48-.38,.87-.86,.88,0,0,0,0-.01,0Zm-80.92-1.75h80v-3.7h-80v3.7Z"/>
          <path class="cls-42" d="M363.33,199.96h-81.8c-.48,0-.87-.4-.87-.88v-5.45c0-.48,.39-.87,.87-.88h81.8c.48,0,.87,.4,.87,.88v5.45c0,.48-.39,.87-.87,.88Zm-80.92-1.76h80v-3.69h-80v3.69Z"/>
          <path class="cls-42" d="M363.33,220.9h-81.8c-.48,0-.87-.39-.87-.87v-5.45c0-.48,.38-.87,.86-.88,0,0,0,0,.01,0h81.8c.48,0,.87,.39,.87,.87,0,0,0,0,0,.01v5.45c0,.48-.39,.87-.87,.87Zm-80.92-1.75h80v-3.7h-80v3.7Z"/>
          <path class="cls-42" d="M363.33,241.85h-81.8c-.48,0-.87-.39-.87-.87,0,0,0,0,0-.01v-5.45c0-.48,.39-.87,.87-.87h81.8c.48,0,.87,.39,.87,.87v5.45c0,.48-.38,.87-.86,.88,0,0,0,0-.01,0Zm-80.92-1.75h80v-3.7h-80v3.7Z"/>
          <path class="cls-42" d="M363.33,283.74h-81.8c-.48,0-.87-.39-.87-.87v-5.45c0-.48,.38-.87,.86-.88,0,0,0,0,.01,0h81.8c.48,0,.87,.39,.87,.87,0,0,0,0,0,.01v5.45c0,.48-.39,.87-.87,.87Zm-80.92-1.75h80v-3.7h-80v3.7Z"/>
          <path class="cls-42" d="M363.33,304.69h-81.8c-.48,0-.87-.39-.87-.87,0,0,0,0,0-.01v-5.45c0-.48,.39-.87,.87-.87h81.8c.48,0,.87,.39,.87,.87v5.44c.01,.48-.37,.88-.85,.89,0,0-.01,0-.02,0Zm-80.92-1.75h80v-3.7h-80v3.7Z"/>
          <path class="cls-42" d="M363.33,262.8h-81.8c-.48,0-.87-.4-.87-.88v-5.45c0-.48,.39-.87,.87-.88h81.8c.48,0,.87,.4,.87,.88v5.45c0,.48-.39,.87-.87,.88Zm-80.92-1.76h80v-3.69h-80v3.69Z"/>
          <path class="cls-42" d="M342.18,112.8h-21.91c-7.7,.21-14.11-5.87-14.32-13.57-.21-7.7,5.87-14.11,13.57-14.32,.25,0,.5,0,.75,0,.59,0,1.07,.48,1.07,1.07,0,.59-.48,1.07-1.07,1.07-6.52-.19-11.96,4.94-12.15,11.46-.19,6.52,4.94,11.96,11.46,12.15,.23,0,.46,0,.69,0h21.91c8.65,0,15.66-7.01,15.66-15.66s-7.01-15.66-15.66-15.66-15.66,7.01-15.66,15.66c0,.59-.48,1.07-1.07,1.07s-1.07-.48-1.07-1.07h0c0-9.83,7.97-17.8,17.8-17.8s17.8,7.97,17.8,17.8-7.97,17.8-17.8,17.8h0Z"/>
          <path class="cls-42" d="M206.11,75.71h-17.92c-8.04,0-14.56-6.52-14.56-14.56s6.52-14.56,14.56-14.56c8.04,0,14.56,6.52,14.56,14.56h0c-.05,.48-.49,.83-.97,.78-.41-.04-.74-.37-.78-.78,0-7.07-5.74-12.81-12.81-12.81-7.07,0-12.81,5.74-12.81,12.81s5.74,12.81,12.81,12.81h17.92c5.34,0,9.66-4.33,9.66-9.66,0-5.33-4.32-9.66-9.66-9.66-.48-.05-.83-.49-.78-.97,.04-.41,.37-.74,.78-.78,6.3,0,11.41,5.11,11.41,11.41s-5.11,11.41-11.41,11.41Z"/>
          <path class="cls-45" d="M370.82,5.06H133.93V317.92h245.41V5.06h-8.52Zm0,302.4H142.45V15.52h228.37V307.46Z"/>
          <rect class="cls-47" x="142.45" y="15.52" width="228.37" height="291.94"/>
          <polygon class="cls-29" points="307.86 15.52 206.97 307.46 162.45 307.46 263.35 15.52 307.86 15.52"/>
          <polygon class="cls-29" points="325.45 15.52 224.56 307.46 214.13 307.46 315.03 15.52 325.45 15.52"/>
          <path class="cls-16" d="M153.19,132.98h0c1.76,0,3.18,1.43,3.18,3.19v41.09c0,1.76-1.43,3.19-3.18,3.19h0c-1.76,0-3.18-1.43-3.18-3.19v-41.09c0-1.76,1.43-3.19,3.18-3.19Z"/>
          <path class="cls-16" d="M153.19,245.58h0c1.76,0,3.18,1.43,3.18,3.19v20.63c0,1.76-1.43,3.19-3.18,3.19h0c-1.76,0-3.18-1.43-3.18-3.19v-20.63c0-1.76,1.43-3.19,3.18-3.19Z"/>
          <path class="cls-16" d="M153.19,24.37h0c1.76,0,3.18,1.43,3.18,3.19v20.63c0,1.76-1.43,3.19-3.18,3.19h0c-1.76,0-3.18-1.43-3.18-3.19V27.56c0-1.76,1.43-3.19,3.18-3.19Z"/>
          <rect class="cls-46" x="143.56" y="16.66" width="227.32" height="3.19"/>
          <rect class="cls-46" x="364.24" y="18.25" width="6.64" height="288.14"/>
          <path class="cls-42" d="M370.82,308.86H142.45c-.77,0-1.4-.63-1.41-1.4V15.52c0-.78,.63-1.41,1.41-1.41h228.37c.77,0,1.4,.64,1.4,1.41V307.46c0,.77-.63,1.4-1.4,1.4Zm-227-2.8h225.6V16.92H143.85l-.03,289.14Z"/>
          <path class="cls-37" d="M133.93,102.97h0c2.49,0,4.51,2.02,4.51,4.51v50.32c0,2.49-2.02,4.51-4.51,4.51h0v-59.34h0Z"/>
          <path class="cls-37" d="M133.93,229.41h0c2.49,0,4.51,2.02,4.51,4.51v50.32c0,2.49-2.02,4.51-4.51,4.51h0v-59.34h0Z"/>
          <path class="cls-42" d="M133,184.91c-.76,0-1.38-.62-1.38-1.38h0V55.66c-.06-.76,.5-1.43,1.26-1.49,.76-.06,1.43,.5,1.49,1.26,0,.08,0,.16,0,.23v127.87c0,.76-.6,1.37-1.36,1.38,0,0,0,0-.01,0Z"/>
          <path class="cls-42" d="M380.32,319.3h0l-247.37-4.78c-.75-.01-1.35-.62-1.35-1.37v-119c-.06-.76,.5-1.43,1.26-1.49,.76-.06,1.43,.5,1.49,1.26,0,.08,0,.16,0,.23v117.65l244.62,4.72V6.43H134.32V45.31c-.06,.76-.73,1.32-1.49,1.26-.67-.06-1.2-.59-1.26-1.26V5.06c0-.76,.62-1.38,1.38-1.38,.02,0,.03,0,.05,0h247.32c.76,0,1.37,.61,1.37,1.37,0,0,0,0,0,.01V317.92c0,.38-.14,.74-.41,1-.26,.25-.6,.38-.96,.38Z"/>
          <circle class="cls-37" cx="137.5" cy="230.21" r="1.36"/>
          <circle class="cls-37" cx="136.19" cy="162.32" r="1.69"/>
          <circle class="cls-37" cx="137.88" cy="104.03" r="2.76"/>
        </g>
        <polyline class="cls-16" points="417.7 307.83 414.96 279.03 407.73 268.86 412.79 266.36 420.03 277.89 422.77 307.38"/>
        <path class="cls-4" d="M422.77,306.91l-5.07,.45-.75-7.88c2.06-7.53,2.87-15.34,2.41-23.13l.67,1.07,2.74,29.49Z"/>
        <path class="cls-42" d="M254.18,394.07c-.5,0-.91-.41-.92-.91v-17.36c-.05-.51,.31-.96,.82-1.01,.51-.05,.96,.31,1.01,.82,0,.06,0,.13,0,.19v17.38c-.01,.49-.42,.89-.91,.89Z"/>
        <path class="cls-42" d="M234.12,393.48h-17.26c-.76,0-1.37-.62-1.37-1.37,0-.75,.61-1.36,1.37-1.37h17.26c.76,0,1.37,.61,1.37,1.37,0,.76-.61,1.37-1.37,1.37h0Z"/>
        <rect class="cls-35" x="161.44" y="371.78" width="155.85" height="12.38"/>
        <path class="cls-34" d="M245.07,379.8h72.22v4.41h-76.63c0-2.44,1.97-4.41,4.41-4.41h0Z"/>
        <rect class="cls-16" x="160.58" y="371.78" width="155.85" height="3.9"/>
        <path class="cls-42" d="M315.4,386.13H165.29c-2.34,0-4.24-1.9-4.24-4.24v-6.64c0-2.34,1.9-4.24,4.24-4.24h150.11c2.34,0,4.24,1.9,4.24,4.24v6.64c0,2.34-1.9,4.24-4.24,4.24Zm-150.11-12.33c-.83,0-1.5,.67-1.5,1.5v6.64c0,.83,.67,1.5,1.5,1.5h150.11c.83,0,1.5-.67,1.5-1.5v-6.64c0-.83-.67-1.5-1.5-1.5H165.29Z"/>
        <ellipse class="cls-16" cx="173.18" cy="375.91" rx="2.55" ry="1.14"/>
        <circle class="cls-16" cx="176.45" cy="377.03" r=".28"/>
        <circle class="cls-16" cx="174.83" cy="377.94" r=".63"/>
        <circle class="cls-16" cx="168.04" cy="377.69" r=".95"/>
        <circle class="cls-16" cx="168.42" cy="375.76" r=".39"/>
        <circle class="cls-16" cx="179.86" cy="375.76" r=".99"/>
        <ellipse class="cls-34" cx="241.85" cy="378.99" rx="1.37" ry=".86" transform="translate(-133.63 131.72) rotate(-24.09)"/>
        <circle class="cls-34" cx="244.88" cy="378.49" r=".52"/>
        <circle class="cls-34" cx="239.55" cy="381.21" r=".51"/>
        <circle class="cls-34" cx="246.95" cy="379.61" r=".96"/>
        <rect class="cls-16" x="224.91" y="371.5" width="28.76" height="14.65" rx="3.74" ry="3.74"/>
        <rect class="cls-9" x="225.76" y="374.63" width="28.76" height="10.81" rx="3.22" ry="3.22"/>
        <path class="cls-42" d="M250.74,386.8h-22.9c-2.84,0-5.14-2.31-5.15-5.15v-6.5c0-2.84,2.31-5.14,5.15-5.15h22.9c2.84,0,5.14,2.31,5.15,5.15v6.5c0,2.84-2.31,5.14-5.15,5.15Zm-22.9-14c-1.32,0-2.39,1.06-2.4,2.38,0,0,0,.01,0,.02v6.5c0,1.32,1.06,2.39,2.38,2.4,0,0,.01,0,.02,0h22.9c1.32,0,2.39-1.06,2.4-2.38,0,0,0-.01,0-.02v-6.5c0-1.32-1.06-2.39-2.38-2.4,0,0-.01,0-.02,0h-22.9Z"/>
        <path class="cls-42" d="M257.26,379.68h-11.13c-.51-.05-.87-.51-.82-1.01,.05-.43,.39-.77,.82-.82h11.13c.51,.05,.87,.51,.82,1.01-.05,.43-.39,.77-.82,.82Z"/>
        <circle class="cls-42" cx="242.03" cy="378.77" r="1.16"/>
        <path class="cls-42" d="M298.62,367.02c.34-.71,.72-1.39,1.14-2.06,.34-.55-.52-1.05-.86-.5-.42,.66-.8,1.35-1.14,2.06-.28,.58,.58,1.08,.86,.5Z"/>
        <path class="cls-42" d="M301.89,366.05c.38-.76,.61-1.58,.68-2.42,.05-.65-.95-.64-1,0-.06,.67-.24,1.32-.55,1.91-.29,.58,.58,1.08,.87,.51Z"/>
        <polyline class="cls-2" points="402.32 313.61 406.29 377.99 445.01 377.99 448.98 314.29"/>
        <path class="cls-22" d="M446.05,353.43l-1.53,24.56h-38.71l-.56-9c9.9-2.19,25.82-6.66,40.8-15.56Z"/>
        <path class="cls-42" d="M422.77,308.23c-.44,0-.81-.34-.85-.78l-2.72-29.28-6.69-10.66-2.9,1.64,2.39,3.65c.25,.4,.14,.93-.26,1.18-.4,.25-.93,.14-1.18-.26h0l-2.85-4.42c-.12-.2-.16-.43-.11-.66,.06-.23,.21-.42,.41-.54l4.38-2.5c.4-.23,.91-.1,1.15,.29l7.23,11.52c.07,.12,.11,.25,.13,.38l2.74,29.49c.05,.46-.29,.87-.75,.92,0,0-.01,0-.02,0l-.1,.03Z"/>
        <path class="cls-42" d="M415.51,285.65c-.44,0-.8-.33-.85-.77l-.53-5.57-1.8-2.79c-.26-.39-.14-.92,.25-1.18s.92-.14,1.18,.25h0l1.92,3c.07,.12,.12,.25,.13,.39l.55,5.77c.05,.47-.3,.88-.76,.93,0,0,0,0,0,0l-.08-.03Z"/>
        <path class="cls-42" d="M417.7,308.68c-.44,0-.8-.33-.85-.77l-1.85-19.7c-.05-.47,.3-.88,.76-.93,0,0,0,0,0,0,.46-.04,.88,.3,.93,.76l1.85,19.76c.05,.47-.3,.88-.76,.93,0,0,0,0,0,0l-.08-.05Z"/>
        <path class="cls-16" d="M446.42,306.8h-42.42v-2.71c0-2,7.09-4.32,3.64-4.32h33.06c2,0,5.68,2.31,5.68,4.32l.04,2.71Z"/>
        <path class="cls-42" d="M447.17,307.35c-1.7,.09-3.49,.13-5.34,.1h-5.4l-10.78,.12c-7.2,.08-14.42,.1-21.61,.1-.51,0-.93-.42-.93-.93-.01-.09-.01-.17,0-.26l1-3.51c.18-.59,.29-1.19,.44-1.78l.5-1.76c.12-.45,.54-.76,1-.74h38.33c.43,0,.81,.3,.91,.72,.34,1.3,.71,2.63,1,4s.62,2.68,.88,3.94Zm-1.5-1.12c-.42-1.08-.84-2.11-1.21-3.12s-.7-2-1-3.07l1,.72c-3.2,.05-6.39,0-9.58,0h-28.79l1-.74-.53,1.75c-.18,.58-.41,1.15-.58,1.74l-1,3.51-.9-1.19c6.94,0,13.85,0,20.78,.1l10.4,.13h5.2c1.64,.05,3.38,.08,5.21,.17Z"/>
        <polygon class="cls-16" points="452.44 313.25 398.03 313.25 400.76 305.1 450.39 305.1 452.44 313.25"/>
        <rect class="cls-22" x="403.04" y="313.72" width="45.22" height="5.91"/>
        <path class="cls-42" d="M436,304.43c.29-.11,.61-.11,.9,0h6.31c.29-.09,.6-.12,.9-.1h6.36c.48,.03,.88,.36,1,.82l2,8.16h0c.14,.57-.2,1.15-.78,1.3,0,0,0,0,0,0-.09,.01-.17,.01-.26,0h-54.41c-.55,0-1-.45-1-1,0-.02,0-.03,0-.05,0-.11,.02-.22,.06-.33l2.73-8.15c.13-.44,.54-.73,1-.71h26.62c.57,0,1.03,.46,1.03,1.03s-.46,1.03-1.03,1.03h-26.67l1-.71-2.76,8.22-1-1.38h54.41l-1.05,1.34-2.06-8.14,1.06,.83c-1.2,.05-2.4,0-3.6,0h-2.71c-.3,.02-.61-.02-.9-.11h-6.31c-.29,.11-.61,.11-.9,0-.57-.25-.82-.91-.57-1.48h0c.12-.27,.35-.48,.63-.57Z"/>
        <path class="cls-42" d="M402.92,313.55c.18,1.33,.27,2.67,.35,4l.24,4,.49,8,1,16.1,1,16.15c.36,5.37,.71,10.73,1,16.1l-1.09-1h38.71l-1,1c.27-5.31,.65-10.62,1-15.92l.93-15.93,2-31.85c.08-.62,.65-1.05,1.27-.97,.56,.07,.98,.55,.98,1.11h0l-2,31.85-1.05,15.92c-.34,5.3-.63,10.62-1,15.92h0c0,.55-.45,1-1,1h-38.87c-.57,0-1.05-.43-1.09-1h0c-.38-5.36-.69-10.73-1-16.09l-1-16.1-1-16.09-.51-8.05-.25-4c-.08-1.34-.16-2.68-.15-4-.03-.55,.39-1.03,.94-1.06s1.03,.39,1.06,.94l.04-.03Z"/>
        <path class="cls-27" d="M363.21,359.46h0c-14.55,10.47-34.83,7.17-45.3-7.38l-41.58-57.75c-10.47-14.55-7.17-34.83,7.37-45.31h0c14.55-10.47,34.83-7.17,45.3,7.38l41.58,57.75c10.47,14.55,7.17,34.83-7.37,45.31Z"/>
        <path class="cls-27" d="M211.6,229.46h0c13.12,12.22,13.84,32.76,1.62,45.87l-48.5,52.07c-12.22,13.12-32.76,13.85-45.87,1.63h0c-13.12-12.22-13.84-32.76-1.62-45.87l48.5-52.07c12.22-13.12,32.76-13.85,45.87-1.63Z"/>
        <path class="cls-42" d="M282.73,16.28c1.36-.39,4.11-2.93,5.52-3-1.17,2.19-1.78,4.63-1.76,7.11"/>
        <path class="cls-42" d="M284.81,17.8c.27-2.76,.33-5.54,.19-8.31-2.62,1.91-4.57,4.59-5.58,7.66"/>
        <path class="cls-42" d="M304.83,57.94c1.31,.51,5,.14,6.23,.91-2.25,1.04-4.21,2.62-5.7,4.6"/>
        <path class="cls-42" d="M305.59,60.38c1.88-2.02,3.61-4.18,5.17-6.46-3.24-.06-6.41,.9-9.07,2.74"/>
        <path class="cls-42" d="M190.22,32.28c-1.3,.54-5,.26-6.21,1.05,2.28,.98,4.27,2.52,5.8,4.48"/>
        <path class="cls-42" d="M189.52,34.74c-1.93-1.98-3.71-4.1-5.33-6.34,3.24-.13,6.43,.75,9.14,2.53"/>
        <path class="cls-42" d="M180.59,79.36c-1.3,.53-5,.25-6.21,1,2.28,.98,4.27,2.52,5.8,4.47"/>
        <path class="cls-42" d="M179.88,81.8c-1.92-1.98-3.7-4.1-5.32-6.33,3.24-.14,6.43,.74,9.14,2.52"/>
        <path class="cls-42" d="M81.5,302.06c-.26,0-.53-.05-.77-.15-1.03-.4-1.55-1.55-1.15-2.58,0-.03,.02-.05,.03-.08l28.33-69.78c.42-1.04,1.61-1.55,2.65-1.12s1.55,1.61,1.12,2.65l-28.33,69.8c-.32,.76-1.06,1.26-1.89,1.26Z"/>
        <path class="cls-42" d="M82.35,304.9c-1.1,.04-2.03-.82-2.07-1.92-.02-.47,.13-.93,.42-1.31l44-61.11c.66-.91,1.94-1.12,2.85-.46,.91,.66,1.12,1.94,.46,2.85l-44.01,61.11c-.39,.53-1,.84-1.65,.84Z"/>
        <path class="cls-42" d="M140.24,339.88c-8.54,0-16.77-3.24-23-9.08h0c-13.65-12.74-14.41-34.13-1.7-47.81l48.46-52.08c12.74-13.67,34.14-14.43,47.82-1.69s14.43,34.14,1.69,47.82l-48.51,52.08c-6.1,6.58-14.58,10.45-23.55,10.75l-1.21,.02Zm48.57-117h-1.13c-8.26,.27-16.07,3.84-21.68,9.92l-48.51,52.07c-11.67,12.58-10.96,32.23,1.59,43.93h0c12.56,11.69,32.22,10.99,43.92-1.57l48.51-52.07c11.7-12.57,10.99-32.24-1.58-43.94-5.74-5.34-13.29-8.32-21.13-8.33h.01Z"/>
        <path class="cls-42" d="M342.48,364.45c-10.89,.03-21.12-5.18-27.5-14l-41.58-57.8c-10.92-15.16-7.48-36.31,7.68-47.23,15.16-10.92,36.31-7.48,47.23,7.68l41.58,57.76c10.92,15.15,7.49,36.28-7.66,47.2-5.75,4.15-12.66,6.38-19.75,6.38h0Zm-41.69-122.65c-17.17,.04-31.06,13.99-31.02,31.16,.02,6.49,2.06,12.82,5.86,18.09l41.58,57.75c10.03,13.93,29.45,17.09,43.39,7.07s17.09-29.45,7.07-43.39h0l-41.59-57.75c-4.8-6.71-12.08-11.21-20.22-12.52-1.67-.27-3.37-.41-5.06-.41Z"/>
        <path class="cls-16" d="M246,215.86h0c48.98,0,88.68,39.7,88.68,88.68v75.3H157.3v-75.3c0-48.98,39.7-88.68,88.68-88.68h.02Z"/>
        <path class="cls-27" d="M245.31,215.86h0c48.98,0,88.68,39.69,88.69,88.67v75.32H156.62v-75.3c0-48.98,39.7-88.68,88.68-88.68h.01Z"/>
        <path class="cls-26" d="M332.94,304.55v22c0-24.49-5.83-52.11-21.88-68.16s-42.31-30.07-66.8-30.07c-49,0-88,24.71-88,73.68v1.18c0-49,39-87.32,88-87.32s88.68,39.7,88.68,88.68h0Z"/>
        <path class="cls-42" d="M334,386.06H156.62c-.76,0-1.37-.61-1.37-1.37v-83.57c.08-46.83,38.02-84.77,84.85-84.85h10.41c46.83,.08,84.78,38.02,84.86,84.85v83.57c0,.76-.61,1.37-1.37,1.37Zm-176-2.75h174.62v-82.19c-.06-45.32-36.79-82.05-82.11-82.1h-10.41c-45.32,.05-82.05,36.78-82.1,82.1v82.19Z"/>
        <path class="cls-16" d="M80.2,307.36c.69-.75,1.24-1.62,1.62-2.56,.4-.95,1.23-1.65,2.24-1.88,.61,.05,1.22,.07,1.83,.06,1-.22,1.55-1.38,2.46-1.92,.45-.23,.93-.38,1.42-.45l4-.78c.53-.08,1.05-.23,1.54-.46,.76-.4,1.42-1.17,2.28-1.08,.34,.09,.67,.19,1,.32,.53,.09,1.08,.09,1.61,0,.58-.06,1.16-.08,1.74-.08h5.19c1.68-.1,3.37,.07,5,.51,1.86,.61,3.52,1.92,5.47,2,.69-.04,1.37-.04,2.06,0,1,.14,4.35,.84,5.09,1.48,1.61,1.39,3,3.02,4.13,4.82"/>
        <polygon class="cls-16" points="134.99 307.97 130.46 338.26 129.3 345.98 124.77 376.25 73.45 376.25 63.23 307.97 134.99 307.97"/>
        <path class="cls-14" d="M128.44,349.29l-4,26.71h-33.64c5.97-1.49,11.73-3.76,17.12-6.74,3.98-2.02,7.67-4.55,11-7.52,2.98-2.9,5.59-6.15,7.77-9.68,.62-.92,1.2-1.84,1.75-2.77Z"/>
        <path class="cls-42" d="M128.32,344.98l-4.53,30.27c-.2,1.29,1.77,1.84,2,.55l4.53-30.27c.19-1.29-1.78-1.85-2-.55Z"/>
        <path class="cls-42" d="M134,306.97l-4.53,30.29c-.19,1.29,1.78,1.84,2,.54l4.53-30.29c.19-1.28-1.78-1.84-2-.54h0Z"/>
        <path class="cls-42" d="M134,307.4l4.72,28.93c.21,1.3,2.18,.75,2-.54l-4.72-28.93c-.22-1.3-2.19-.75-2,.54Z"/>
        <polygon class="cls-14" points="128.46 312.59 125.81 329.25 111.73 338.97 86.49 338.97 81.82 335.75 78 333.11 72.41 329.25 69.76 312.59 128.46 312.59"/>
        <path class="cls-42" d="M75.12,280.28l5,26.55c.24,1.29,2.21,.75,2-.54l-5-26.55c-.24-1.29-2.22-.75-2,.54Z"/>
        <path class="cls-42" d="M82.39,286.91l-.8,19.69c-.06,1.32,2,1.32,2,0l.8-19.69c0-1.31-2-1.31-2,0Z"/>
        <path class="cls-42" d="M99.11,356.28c-9.35,.02-16.95-7.54-16.97-16.89-.02-9.35,7.54-16.95,16.89-16.97,9.35-.02,16.95,7.54,16.97,16.89,0,.01,0,.03,0,.04-.04,9.32-7.57,16.87-16.89,16.93Zm0-32c-8.32,0-15.06,6.74-15.06,15.06s6.74,15.06,15.06,15.06,15.06-6.74,15.06-15.06h0c-.02-8.31-6.75-15.04-15.06-15.05h0Z"/>
        <circle class="cls-10" cx="99.11" cy="339.35" r="12.34"/>
        <path class="cls-42" d="M62.21,307.13l-2.13,30.4c-.09,1.31,2,1.31,2,0l2.14-30.4c.09-1.31-2-1.31-2.05,0h.04Z"/>
        <polygon class="cls-16" points="128.46 308.47 125.81 325.14 111.73 334.86 86.49 334.86 81.82 331.63 78 328.99 72.41 325.14 69.76 308.47 128.46 308.47"/>
        <path class="cls-22" d="M111.44,339.59h-24.66c.04-1.41,.32-2.81,.84-4.12h23c.51,1.32,.79,2.71,.82,4.12Z"/>
        <path class="cls-42" d="M78,330.02c-.21,0-.41-.06-.58-.18l-5.58-3.86c-.23-.16-.39-.4-.43-.68l-2.66-16.67c-.09-.55,.29-1.07,.84-1.16s1.07,.29,1.16,.84l2.59,16.24,5.22,3.6c.47,.3,.6,.92,.3,1.38-.01,.02-.02,.03-.03,.05-.19,.28-.5,.44-.83,.44Z"/>
        <path class="cls-42" d="M111.71,335.88h-25.25c-.21,0-.41-.06-.58-.18l-4.67-3.23c-.46-.32-.58-.95-.25-1.41,.32-.46,.95-.58,1.41-.26h0l4.41,3h24.61l13.45-9.28,2.59-16.24c.09-.55,.61-.93,1.16-.84s.93,.61,.84,1.16l-2.66,16.67c-.04,.28-.2,.52-.43,.68l-14.07,9.72c-.16,.13-.36,.2-.56,.21Z"/>
        <circle class="cls-42" cx="113.5" cy="303.21" r=".81"/>
        <circle class="cls-42" cx="119.01" cy="304.5" r=".81"/>
        <circle class="cls-42" cx="107.11" cy="304.5" r="1.01"/>
        <circle class="cls-42" cx="109.28" cy="301.66" r=".47"/>
        <circle class="cls-42" cx="99.34" cy="301.19" r=".47"/>
        <circle class="cls-42" cx="102.13" cy="304.5" r=".47"/>
        <path class="cls-42" d="M122.33,372.8h-46.22c-.17,0-.32-.12-.34-.29l-.93-7.31c-.02-.18,.11-.35,.29-.38,.18-.03,.35,.09,.38,.27,0,0,0,.02,0,.02l.9,7h45.59l1.15-7c.04-.18,.21-.3,.39-.28,.18,.03,.31,.21,.28,.39l-1.19,7.31c-.03,.14-.15,.25-.3,.26Z"/>
        <path class="cls-42" d="M94.56,310.64h-20.71c-.19,0-.34-.15-.34-.34s.15-.34,.34-.34h20.71c.19,0,.34,.15,.34,.34s-.15,.34-.34,.34h0Z"/>
        <circle class="cls-42" cx="97.89" cy="310.3" r=".99"/>
        <path class="cls-23" d="M100.74,307.69c.21,1.28,.96,2.42,2.06,3.11,.39,.2,.75,.45,1.07,.75,.26,.35,.43,.76,.48,1.19,.21,1.24,.07,2.52,.31,3.76,.13,1.28,1.01,2.36,2.23,2.77,1.58,.33,3-1.29,3.18-2.9s-.34-3.26,.78-4.22c.93-.8,2.36-.44,3.55-.77,1.6-.5,2.53-2.16,2.13-3.78"/>
        <path class="cls-42" d="M74.44,375.25l-8.94-59.71-1.28-8.57-1,1.29h71.78c.55,0,1-.45,1-1s-.45-1-1-1H63.23c-.55-.02-1.02,.4-1.04,.96,0,.11,0,.23,.04,.33l8.93,59.71,1.3,8.54c.2,1.29,2.17,.74,2-.55h-.02Z"/>
        <ellipse class="cls-23" cx="113.28" cy="317.09" rx="1.83" ry="2.18"/>
        <circle class="cls-23" cx="118.84" cy="312.77" r=".64"/>
        <circle class="cls-23" cx="101.67" cy="314.85" r=".93"/>
        <path class="cls-1" d="M39.26,383.8H429.56v199.34c0,4.12-3.34,7.46-7.46,7.46H46.72c-4.12,0-7.46-3.34-7.46-7.46h0s0-199.34,0-199.34Z"/>
        <rect class="cls-18" x="49.56" y="404.78" width="370.38" height="176.86"/>
        <rect class="cls-38" x="49.56" y="404.78" width="370.38" height="6.96"/>
        <rect class="cls-13" x="39.26" y="383.79" width="390.3" height="16.95"/>
        <path class="cls-42" d="M422.11,591.71H46.72c-4.73,0-8.57-3.84-8.58-8.57v-199.34c0-.62,.5-1.12,1.12-1.12H429.57c.61,0,1.11,.51,1.11,1.12v199.34c0,4.73-3.84,8.57-8.57,8.57ZM40.38,384.9v198.24c0,3.5,2.84,6.33,6.34,6.34H422.11c3.5,0,6.33-2.84,6.34-6.34v-198.24H40.38Z"/>
        <path class="cls-42" d="M60.64,401.6h-20.54c-.47,0-.86-.39-.86-.86s.39-.86,.86-.86h20.54c.47,0,.86,.39,.86,.86s-.39,.86-.86,.86Z"/>
        <path class="cls-42" d="M68.41,401.6h-3.41c-.47,0-.86-.39-.86-.86s.39-.86,.86-.86h3.38c.47,0,.86,.39,.86,.86s-.39,.86-.86,.86h.03Z"/>
        <g class="cls-51">
          <path class="cls-41" d="M424.77,248.13h-8.53v-14.33h25.33c.57,0,1.02,.46,1.02,1.02s-.46,1.03-1.02,1.03h-23.26v10.29h6.46c.55,0,1,.45,1,1s-.45,1-1,1h0Z"/>
          <path class="cls-41" d="M431.47,248.13h-3.69c-.55,0-1-.45-1-1s.45-1,1-1h3.69c.55,0,1,.45,1,1s-.45,1-1,1Z"/>
          <path class="cls-41" d="M434.31,248.13h-.07c-.55,0-1-.45-1-1s.45-1,1-1h.07c.55,0,1,.45,1,1s-.45,1-1,1Z"/>
          <path class="cls-41" d="M452.24,248.13h-15.06c-.55,0-1-.45-1-1s.45-1,1-1h13v-10.33h-4.51c-.57,0-1.02-.46-1.02-1.02s.46-1.03,1.02-1.03h6.59l-.02,14.38Z"/>
          <path class="cls-41" d="M435,235.8h-36v-14.35h36v14.35Zm-33.93-2h31.93v-10.31h-31.93v10.31Z"/>
        </g>
        <g class="cls-51">
          <path class="cls-41" d="M78.68,173.29h-.2c-.57,0-1.03-.46-1.03-1.03s.46-1.02,1.03-1.02h.2c.57,0,1.03,.46,1.03,1.02s-.46,1.03-1.03,1.03Z"/>
          <path class="cls-41" d="M86.1,173.29h-4.1c-.57,0-1.03-.46-1.03-1.03s.46-1.02,1.03-1.02h2v-10.26h-31.83v10.26h18.54c.57,0,1.03,.46,1.03,1.03s-.46,1.02-1.03,1.02h-20.58v-14.36h36l-.03,14.36Z"/>
          <path class="cls-41" d="M75.69,173.29h-1.79c-.57,0-1.03-.46-1.03-1.03s.46-1.02,1.03-1.02h1.82c.57,0,1.03,.46,1.03,1.02s-.46,1.03-1.03,1.03h-.03Z"/>
          <path class="cls-41" d="M58.65,197.91h-8.52v-14.36h25.32c.57,0,1.03,.46,1.03,1.02s-.46,1.03-1.03,1.03h-23.28v10.27h6.48c.55,0,1,.45,1,1s-.45,1-1,1v.04Z"/>
          <path class="cls-41" d="M65.33,197.91h-3.7c-.55,0-1-.45-1-1s.45-1,1-1h3.69c.55,0,1,.45,1,1s-.45,1-1,1h.01Z"/>
          <path class="cls-41" d="M68.15,197.91h-.08c-.55,0-1-.45-1-1s.45-1,1-1h.08c.55,0,1,.45,1,1s-.45,1-1,1Z"/>
          <path class="cls-41" d="M86.1,197.91h-15c-.55,0-1-.45-1-1s.45-1,1-1h13v-10.31h-4.56c-.57,0-1.03-.46-1.03-1.03s.46-1.02,1.03-1.02h6.6l-.04,14.36Z"/>
          <path class="cls-41" d="M68.86,185.6H32.86v-14.36h36v14.36Zm-33.92-2.05h31.88v-10.26h-31.88v10.26Z"/>
        </g>
        <path class="cls-12" d="M256.18,219.6c0,2.51,.72,5.35-.46,7.31-2.35,3.9-8.08,5.9-13.06,5.81h0c-7.5-.16-13.47-6.35-13.35-13.85l.81-16.66v-.68l27.11,.51"/>
        <path class="cls-7" d="M257.94,208.45l-1.7,14.14c-3.09,.67-6.31,.41-9.25-.74-5.21-2.35-10.68-4.09-16.29-5.2h-.12l.14-8.18c4,.74,8.05,1.13,12.11,1.18,5.06,.13,10.13-.27,15.11-1.2Z"/>
        <circle class="cls-17" cx="220.65" cy="202.38" r=".72"/>
        <circle class="cls-17" cx="230.67" cy="205.87" r=".95"/>
        <ellipse class="cls-16" cx="220.04" cy="196.13" rx="2.89" ry="1.66" transform="translate(-35.36 343.28) rotate(-71.66)"/>
        <circle class="cls-17" cx="225.27" cy="197.75" r=".93"/>
        <path class="cls-17" d="M222.43,198.69c.4,0,.72,.32,.72,.72s-.32,.72-.72,.72-.72-.32-.72-.72,.32-.72,.72-.72h0Z"/>
        <circle class="cls-17" cx="223.38" cy="192.76" r=".95"/>
        <path class="cls-12" d="M189.29,120.63l6.65,.13c8.66,.19,15.54,7.34,15.41,16h0c-.15,8.66-7.29,15.56-15.95,15.41,0,0,0,0,0,0h0l-6.65-.13c-8.67-.19-15.56-7.33-15.43-16h0c.15-8.67,7.31-15.57,15.97-15.42,0,0,.02,0,.03,0h-.03Z"/>
        <path class="cls-42" d="M168.3,137.18h0c-.75-.01-1.35-.63-1.34-1.38h0c.04-3.54,1.2-6.98,3.31-9.83,.49-.57,1.36-.64,1.93-.14,.51,.44,.63,1.19,.27,1.76-1.77,2.39-2.75,5.28-2.78,8.25-.02,.75-.64,1.35-1.39,1.34Z"/>
        <path class="cls-42" d="M190.66,153.36h-.3l-6.68-.14c-6.98-.11-13.19-4.47-15.65-11-.28-.7,.07-1.5,.77-1.78,.7-.28,1.5,.07,1.78,.78,2.07,5.49,7.28,9.17,13.15,9.28l6.65,.13c7.94,.15,14.49-6.16,14.65-14.1,.15-7.94-6.16-14.49-14.1-14.64l-6.65-.14c-2.62-.06-5.2,.6-7.47,1.91-.65,.38-1.49,.16-1.86-.5-.38-.65-.16-1.49,.49-1.86,2.7-1.56,5.78-2.34,8.9-2.28l6.65,.14c9.41,.25,16.87,8.04,16.71,17.45-.14,9.29-7.71,16.75-17,16.75h-.04Z"/>
        <path class="cls-6" d="M187.09,133.49l3.46,.07c4.51,.1,8.08,3.83,8,8.34h0c-.11,4.5-3.82,8.07-8.32,8l-3.46-.07c-4.51-.1-8.08-3.82-8-8.33h0c.1-4.5,3.82-8.08,8.32-8.01Z"/>
        <path class="cls-16" d="M179,130.42c.53-1.39,1.57-2.52,2.91-3.17,1.15-.45,.68-2.33-.52-1.87-1.85,.78-3.31,2.24-4.09,4.09-.49,1.14,1.18,2.13,1.68,1l.02-.05Z"/>
        <ellipse class="cls-16" cx="176.74" cy="134.05" rx="1.55" ry="1.24" transform="translate(18.31 289.31) rotate(-81.6)"/>
        <path class="cls-12" d="M294.87,120.63l6.65,.13c8.7,.15,15.63,7.33,15.48,16.04h0c-.15,8.66-7.29,15.56-15.94,15.42-.02,0-.04,0-.06,0h0l-6.65-.13c-8.67-.19-15.56-7.33-15.43-16h0c.15-8.66,7.29-15.56,15.95-15.41,0,0,0,0,0,0v-.04Z"/>
        <path class="cls-42" d="M301.27,153.39h-.27l-6.68-.14c-9.45-.2-16.95-8-16.79-17.45,.16-9.28,7.72-16.72,17-16.75h.33l6.65,.14c9.44,.08,17.03,7.79,16.95,17.23-.08,9.44-7.79,17.03-17.23,16.95l.04,.02Zm-6.68-31.59c-7.93-.07-14.41,6.31-14.48,14.24-.07,7.93,6.31,14.41,14.24,14.48l6.64,.14c7.94-.02,14.35-6.47,14.33-14.4-.02-7.71-6.13-14.04-13.83-14.33l-6.65-.13h-.25Z"/>
        <path class="cls-6" d="M297.7,133.49l3.46,.07c4.5,.1,8.08,3.83,8,8.33h0c-.1,4.5-3.82,8.08-8.32,8l-3.46-.07c-4.51-.1-8.08-3.82-8-8.33h0c.1-4.5,3.82-8.07,8.32-8Z"/>
        <path class="cls-16" d="M286.38,132.03c.53-1.4,1.57-2.54,2.91-3.19,1.15-.45,.65-2.33-.52-1.87-1.85,.77-3.32,2.24-4.09,4.09-.49,1.13,1.18,2.12,1.68,1l.02-.03Z"/>
        <ellipse class="cls-16" cx="284.16" cy="135.63" rx="1.55" ry="1.24" transform="translate(108.48 396.93) rotate(-81.6)"/>
        <path class="cls-12" d="M283.08,41.63c.68,.59,1.28,1.21,1.91,1.83,10.98,10.95,17.14,25.83,17.11,41.34v65.32c.11,32.26-25.95,58.5-58.21,58.61-31.92,.11-58.02-25.43-58.6-57.35V84.8c-.03-16.41,6.87-32.08,19-43.14,19.41-17.74,59.32-17.63,78.79-.03Z"/>
        <path class="cls-16" d="M249,207.63c-1.49,.12-3,.17-4.54,.17-32.25,0-61.85-25.73-58.39-58.39V84.07c-.02-16.41,6.88-32.06,19-43.12,1.85,1.12,1.45,2.17,3.53,3.13-9.83,10.44-17.44,24.54-17.44,40v65.34c-.03,30.72,23.64,57.2,57.84,58.21Z"/>
        <circle class="cls-12" cx="276.77" cy="116.2" r="4.28"/>
        <path class="cls-8" d="M280.26,48.44c8.36,10.36,12.91,35.47,12.9,48.79l-59.82-.31v3c.07,5.18,4.29,9.35,9.47,9.34h50.31v41.06c0,30.46-23.41,55.81-53.78,58.21,1.53,.13,3.08,.19,4.63,.19,32.25,0,58.4-26.15,58.4-58.4V85.03c.02-15.49-6.13-30.36-17.1-41.3-.63-.62-1.26-1.23-1.92-1.82-1.93,1.18-3.94,2.24-6,3.18,.27,.28,.53,.58,.78,.88"/>
        <path class="cls-44" d="M178.38,138.59c-.24,0-.47-.08-.65-.23-.43-.34-.51-.97-.17-1.4,0-.01,.02-.02,.03-.04,1.98-2.42,4.73-4.08,7.79-4.7,.55-.11,1.09,.25,1.2,.8s-.25,1.09-.8,1.2c-2.6,.53-4.93,1.95-6.61,4-.19,.24-.48,.37-.79,.37Z"/>
        <path class="cls-44" d="M310,138.59c-.31,0-.6-.13-.79-.37-1.68-2.06-4.01-3.47-6.61-4-.55-.11-.91-.65-.8-1.2,.11-.55,.65-.91,1.2-.8,3.06,.62,5.82,2.28,7.79,4.7,.36,.42,.31,1.05-.1,1.41-.01,.01-.02,.02-.04,.03-.18,.15-.41,.23-.65,.23Z"/>
        <path class="cls-42" d="M190.28,174.85c-.52,0-1-.3-1.23-.77-.62-1.3-1.11-2.65-1.46-4.05-.12-.75,.38-1.45,1.13-1.57,.66-.11,1.31,.28,1.52,.91,.3,1.22,.73,2.4,1.27,3.53,.35,.66,.1,1.49-.56,1.84-.21,.11-.44,.17-.67,.16v-.05Z"/>
        <ellipse class="cls-8" cx="224.57" cy="132.04" rx="7.51" ry="9.5"/>
        <ellipse class="cls-42" cx="224.24" cy="129.97" rx="7.4" ry="9.38"/>
        <ellipse class="cls-16" cx="221.59" cy="126.56" rx="2.73" ry="2.98"/>
        <ellipse class="cls-8" cx="263.59" cy="132.04" rx="7.51" ry="9.5"/>
        <ellipse class="cls-42" cx="263.27" cy="129.97" rx="7.4" ry="9.38"/>
        <ellipse class="cls-16" cx="260.61" cy="126.56" rx="2.73" ry="2.98"/>
        <path class="cls-42" d="M243.66,209.91c-21.12-.05-40.66-11.19-51.45-29.35-.38-.65-.17-1.48,.48-1.86,.65-.38,1.48-.17,1.86,.47,10.3,17.32,28.95,27.96,49.11,28h.06c31.48,0,57-25.52,57-57,0-.03,0-.07,0-.1V84.8c0-15.14-6.02-29.66-16.72-40.38l-.13-.14c-.57-.57-1.11-1.11-1.71-1.63-9.07-8.19-23.1-12.89-38.52-12.91h-.09c-15.41,0-29.37,4.7-38.33,12.89-11.86,10.81-18.61,26.12-18.6,42.17v65.33c0,3.45,.3,6.9,.92,10.29,.18,.73-.26,1.48-1,1.66-.73,.18-1.48-.26-1.66-1-.01-.06-.02-.12-.03-.17-.65-3.56-.99-7.16-1-10.78V84.8c0-16.8,7.07-32.83,19.48-44.15,19.83-18.13,60.51-18.14,80.59,0,.65,.57,1.25,1.17,1.83,1.75l.13,.13c11.21,11.22,17.51,26.41,17.55,42.27v65.32c.04,33.01-26.69,59.8-59.7,59.84h0l-.07-.05Z"/>
        <path class="cls-42" d="M243.21,233.95c-3.58,0-7.04-1.36-9.67-3.79-3.13-2.85-4.91-6.89-4.92-11.12v-10.57c.06-.75,.73-1.31,1.48-1.25,.66,.06,1.19,.58,1.25,1.25v10.57c0,3.46,1.45,6.76,4,9.1,2.43,2.25,5.71,3.34,9,3,.27,0,.55-.06,.83-.1,5.86-.98,10.14-6.06,10.11-12v-10.59c.06-.75,.73-1.31,1.48-1.25,.66,.06,1.19,.58,1.25,1.25v10.63c.03,7.3-5.25,13.54-12.45,14.72l-1,.12c-.44,0-.9,.03-1.36,.03Z"/>
        <path class="cls-12" d="M216.71,141.5c0-3.26,3.37-5.9,7.53-5.9s7.53,2.64,7.53,5.9"/>
        <path class="cls-12" d="M256.07,141.5c0-3.26,3.37-5.9,7.52-5.9s7.53,2.64,7.53,5.9"/>
        <path class="cls-32" d="M215.43,147.68h51.78v42.8c0,14.3-11.59,25.89-25.89,25.89h0c-14.3,0-25.89-11.59-25.89-25.89h0v-42.8h0Z"/>
        <path class="cls-28" d="M246.7,215.8c-14,2.96-27.75-5.99-30.71-19.99-.37-1.76-.56-3.55-.56-5.34v-42.8h10.76v42.8c0,12.23,8.55,22.79,20.51,25.33Z"/>
        <rect class="cls-16" x="224.24" y="147.67" width="42.97" height="15.72"/>
        <rect class="cls-5" x="224.24" y="147.67" width="42.97" height="6.55"/>
        <path class="cls-42" d="M267.21,164.8h-43c-.76,0-1.38-.62-1.38-1.38h0v-15.74c0-.76,.62-1.38,1.38-1.38,.76,0,1.38,.62,1.38,1.38v14.34h41.59c.76-.06,1.43,.5,1.49,1.26,.06,.76-.5,1.43-1.26,1.49-.08,0-.16,0-.23,0l.03,.03Z"/>
        <path class="cls-11" d="M267.13,183.29v6.88c0,14.3-11.61,25.89-25.91,25.89-4.34,0-8.61-1.09-12.42-3.18l-.19-1.55c-.31-1.65-.47-3.32-.47-5,0-14.52,11.76-26.29,26.28-26.3,4.39,0,8.72,1.1,12.58,3.2l.13,.06Z"/>
        <path class="cls-36" d="M246,215.94c-5.86,1.07-11.9,.09-17.13-2.76l-.19-1.55c-.31-1.65-.47-3.32-.47-5,0-1.65,.16-3.31,.47-4.93,3.31,7.13,9.68,12.37,17.32,14.24Z"/>
        <path class="cls-42" d="M241.32,217.8c-15.05-.02-27.25-12.22-27.27-27.27v-42.8c0-.76,.62-1.38,1.38-1.38h51.78c.76,0,1.38,.62,1.38,1.38h0v42.8c-.02,15.05-12.22,27.25-27.27,27.27Zm-24.52-68.7v41.43c.55,13.53,11.96,24.06,25.49,23.51,12.76-.52,22.99-10.75,23.51-23.51v-41.48l-49,.05Z"/>
        <path class="cls-42" d="M228.69,213.7c-.66,0-1.22-.47-1.35-1.12-.32-1.73-.49-3.48-.49-5.24,0-15.28,12.39-27.67,27.67-27.67,4.6,0,9.13,1.15,13.18,3.34,.64,.41,.82,1.27,.41,1.91-.37,.57-1.1,.79-1.72,.51-12.1-6.56-27.23-2.06-33.78,10.04-2.75,5.07-3.65,10.93-2.56,16.59,.14,.74-.35,1.46-1.09,1.61l-.27,.03Z"/>
        <circle class="cls-42" cx="230.57" cy="172.34" r="2.93"/>
        <circle class="cls-42" cx="223.24" cy="186.44" r="1.47"/>
        <circle class="cls-42" cx="211.85" cy="171.62" r="1.47"/>
        <circle class="cls-42" cx="204.41" cy="176.96" r="1.47"/>
        <circle class="cls-42" cx="204.41" cy="192.14" r="1.47"/>
        <path class="cls-3" d="M244.2,2.16h0c34.34,0,62.17,27.83,62.17,62.17h0v35.86h-124.37v-35.86c0-34.34,27.83-62.17,62.17-62.17,0,0,.02,0,.03,0Z"/>
        <path class="cls-49" d="M305.48,75.29v6.08c-1.28-1.01-2.85-1.56-4.48-1.57h-115.76c-1.46,0-2.89,.43-4.1,1.26v-6.09c1.21-.81,2.64-1.24,4.1-1.24h115.76c1.63,0,3.2,.56,4.48,1.56Z"/>
        <path class="cls-42" d="M306.37,101.55h-124.37c-.75,0-1.36-.61-1.36-1.36h0v-35.85C180.2,29.25,208.29,.45,243.38,0c35.09-.44,63.89,27.65,64.33,62.74,0,.53,0,1.06,0,1.6v35.85c0,.74-.6,1.35-1.34,1.36Zm-122.98-2.75h121.61v-34.46c-.01-33.58-27.25-60.8-60.83-60.79-33.57,.01-60.78,27.22-60.79,60.79v34.46Z"/>
        <path class="cls-42" d="M194.45,43.91c-.2,0-.4-.04-.58-.13-.68-.32-.97-1.13-.66-1.81,0,0,0,0,0-.01,5.86-12.33,15.51-22.47,27.53-28.93,.66-.35,1.49-.1,1.84,.56,.35,.66,.1,1.49-.56,1.84,0,0,0,0,0,0-11.51,6.19-20.74,15.9-26.35,27.7-.22,.48-.7,.78-1.23,.78Z"/>
        <rect class="cls-3" x="178.77" y="80.17" width="130.43" height="22.64" rx="7.36" ry="7.36"/>
        <path class="cls-49" d="M309.47,91.64v3.81c0,4.06-3.28,7.35-7.34,7.36,0,0-.01,0-.02,0h-115.7c-4.06,.03-7.38-3.25-7.41-7.31,0-.02,0-.03,0-.05v-3.81c0,4.07,3.3,7.36,7.37,7.36h115.7c4.06,.02,7.38-3.26,7.4-7.32,0-.01,0-.03,0-.04Z"/>
        <path class="cls-42" d="M301.84,104.18h-115.71c-4.82,0-8.72-3.91-8.73-8.73v-7.92c0-4.82,3.91-8.72,8.73-8.73h115.71c4.81,0,8.71,3.91,8.72,8.72v7.92c0,4.82-3.9,8.73-8.72,8.74Zm-115.71-22.64c-3.31,0-6,2.69-6,6v7.92c0,3.31,2.69,6,6,6h115.71c3.31,0,6-2.69,6-6v-7.93c0-3.31-2.69-6-6-6h-115.71Z"/>
        <path class="cls-42" d="M193.85,83.98h0c.84,0,1.52,.69,1.52,1.53v11.96c0,.84-.68,1.53-1.52,1.53h0c-.84,0-1.52-.69-1.52-1.53v-11.96c0-.84,.68-1.53,1.52-1.53Z"/>
        <path class="cls-42" d="M207.41,83.98h0c.84,0,1.52,.69,1.52,1.53v11.96c0,.84-.68,1.53-1.52,1.53h0c-.84,0-1.52-.69-1.52-1.53v-11.96c0-.84,.68-1.53,1.52-1.53Z"/>
        <path class="cls-42" d="M220.97,83.98h0c.84,0,1.52,.69,1.52,1.53v11.96c0,.84-.68,1.53-1.52,1.53h0c-.84,0-1.52-.69-1.52-1.53v-11.96c0-.84,.68-1.53,1.52-1.53Z"/>
        <path class="cls-42" d="M234.53,83.98h0c.84,0,1.52,.69,1.52,1.53v11.96c0,.84-.68,1.53-1.52,1.53h0c-.84,0-1.52-.69-1.52-1.53v-11.96c0-.84,.68-1.53,1.52-1.53Z"/>
        <path class="cls-42" d="M248.11,83.98h0c.84,0,1.52,.69,1.52,1.53v11.96c0,.84-.68,1.53-1.52,1.53h0c-.84,0-1.52-.69-1.52-1.53v-11.96c0-.84,.68-1.53,1.52-1.53Z"/>
        <path class="cls-42" d="M261.67,83.98h0c.84,0,1.52,.69,1.52,1.53v11.96c0,.84-.68,1.53-1.52,1.53h0c-.84,0-1.52-.69-1.52-1.53v-11.96c0-.84,.68-1.53,1.52-1.53Z"/>
        <path class="cls-42" d="M275.23,83.98h0c.84,0,1.52,.69,1.52,1.53v11.96c0,.84-.68,1.53-1.52,1.53h0c-.84,0-1.52-.69-1.52-1.53v-11.96c0-.84,.68-1.53,1.52-1.53Z"/>
        <path class="cls-42" d="M288.79,83.98h0c.84,0,1.52,.69,1.52,1.53v11.96c0,.84-.68,1.53-1.52,1.53h0c-.84,0-1.52-.69-1.52-1.53v-11.96c0-.84,.68-1.53,1.52-1.53Z"/>
        <circle class="cls-42" cx="191.28" cy="51.18" r="3.19"/>
        <rect class="cls-19" x="194.47" y="108.92" width="4.25" height="22.93" rx="2.12" ry="2.12"/>
        <path class="cls-42" d="M246,152.14c-.57,0-1.07-.35-1.27-.88-1.32-3.48-2.11-7.14-2.33-10.85v-9.08c-.06-.75,.49-1.42,1.25-1.48,.75-.06,1.42,.49,1.48,1.25,0,.08,0,.16,0,.23v9c.22,3.42,.94,6.79,2.16,10,.26,.71-.09,1.49-.8,1.76-.16,.05-.32,.06-.49,.05Z"/>
        <path class="cls-27" d="M260.39,334.39l106.19-7.61c10.64-.76,19.88,7.24,20.64,17.88h0c.76,10.64-7.24,19.88-17.88,20.64l-106.19,7.61c-10.64,.76-19.88-7.24-20.64-17.88h0c-.76-10.64,7.24-19.88,17.88-20.64Z"/>
        <path class="cls-26" d="M387.45,348.28c-.01,10.12-7.84,18.51-17.93,19.23l-106.19,7.61c-10.12,.73-19.08-6.51-20.5-16.56,3.4,2.05,7.34,2.99,11.3,2.7l106.19-7.6c10.1-.72,17.92-9.12,17.93-19.24,0-.47,0-.94-.05-1.41s-.08-.88-.14-1.31c5.41,3.22,8.9,8.89,9.34,15.17,.04,.48,.05,.93,.05,1.41Z"/>
        <path class="cls-42" d="M261.82,375.2c-11.43-.07-20.64-9.38-20.57-20.81,.06-10.77,8.38-19.69,19.12-20.51l106.19-7.61c11.39-.91,21.36,7.58,22.28,18.97,.91,11.39-7.58,21.36-18.97,22.28-.1,0-.2,.02-.3,.02l-106.19,7.6c-.54,.04-1.05,.06-1.55,.06Zm106.25-46.23c-.44,0-.87,0-1.31,.05l-106.19,7.6c-9.9,.49-17.52,8.91-17.03,18.81,.49,9.9,8.91,17.52,18.81,17.03,.26-.01,.52-.03,.78-.06l106.19-7.6,.1,1.38-.1-1.38c9.88-.66,17.35-9.21,16.69-19.09-.63-9.44-8.49-16.76-17.94-16.73h0Z"/>
        <ellipse class="cls-12" cx="249.04" cy="350.19" rx="27.64" ry="22.12" transform="translate(-100.88 100.77) rotate(-19.1)"/>
        <path class="cls-8" d="M257,371.6c-10.09,3.49-20.43,1.94-27.09-3.24,5.27,.79,10.66,.27,15.69-1.51,14.43-5,22.88-18.4,18.89-29.94-1.21-3.42-3.39-6.41-6.27-8.62,8.31,1.32,15.14,6.11,17.66,13.37,3.95,11.54-4.5,24.95-18.88,29.94Z"/>
        <path class="cls-42" d="M245.68,375.27c-11,0-20.57-5.5-23.74-14.65-4.24-12.24,4.61-26.46,19.73-31.7s30.87,.47,35.11,12.71h0c4.24,12.24-4.61,26.46-19.73,31.69-3.66,1.28-7.5,1.94-11.37,1.95Zm7.39-45.55c-3.58,.01-7.12,.62-10.5,1.8-13.68,4.74-21.77,17.39-18,28.2s17.92,15.74,31.61,11,21.77-17.39,18-28.19c-2.78-8.02-11.3-12.81-21.11-12.81h0Z"/>
        <circle class="cls-19" cx="239.09" cy="346.45" r="8.75"/>
        <path class="cls-27" d="M275.9,267.04h22.74c4.35,0,7.88,3.53,7.88,7.88h0v25c0,10.63-8.62,19.25-19.25,19.25h0c-10.63,.01-19.26-8.6-19.27-19.23h0v-25.01c0-4.35,3.53-7.88,7.88-7.88h.02Z"/>
        <path class="cls-1" d="M9.46,377.72H463.66c4.53,0,8.2,3.67,8.2,8.2h0c0,4.53-3.67,8.2-8.2,8.2H9.46c-4.53,0-8.2-3.67-8.2-8.2h0c0-4.53,3.67-8.2,8.2-8.2Z"/>
        <path class="cls-1" d="M9.46,377.72H463.66c4.53,0,8.2,3.67,8.2,8.2h0c0,4.53-3.67,8.2-8.2,8.2H9.46c-4.53,0-8.2-3.67-8.2-8.2h0c0-4.53,3.67-8.2,8.2-8.2Z"/>
        <path class="cls-13" d="M471.86,385.54c0,4.53-3.67,8.19-8.2,8.2H9.46c-4.53,0-8.2-3.67-8.2-8.2h0c0-1.1,.22-2.2,.66-3.21,1.28,3.03,4.25,5,7.54,5H463.66c2.17,0,4.26-.86,5.79-2.4,.75-.74,1.34-1.62,1.75-2.59,.44,1.01,.66,2.1,.66,3.2Z"/>
        <path class="cls-42" d="M463.66,395.09H9.46c-5.22,0-9.46-4.24-9.46-9.46s4.24-9.46,9.46-9.46H463.66c5.22,0,9.46,4.24,9.46,9.46s-4.24,9.46-9.46,9.46ZM9.46,378.7c-3.83,.15-6.82,3.37-6.67,7.2,.14,3.63,3.05,6.53,6.67,6.67H463.66c3.83,.15,7.05-2.84,7.2-6.67,.15-3.83-2.84-7.05-6.67-7.2-.18,0-.35,0-.53,0H9.46Z"/>
        <rect class="cls-21" x="181.44" y="379.98" width="67.98" height="4.71" rx="2.35" ry="2.35"/>
        <rect class="cls-21" x="134.03" y="379.98" width="37.98" height="4.71" rx="2.35" ry="2.35"/>
        <rect class="cls-21" x="54.36" y="379.98" width="37.98" height="4.71" rx="2.35" ry="2.35"/>
        <path class="cls-43" d="M468.26,593.66H17.83c-.75,0-1.36-.6-1.37-1.35,0-.75,.6-1.36,1.35-1.37H468.26c.75,0,1.36,.62,1.35,1.37,0,.75-.61,1.35-1.35,1.35Z"/>
        <path class="cls-24" d="M411.28,348.97h0c-1.53,.13-2.87-1.01-3-2.54,0-.01,0-.02,0-.04l-1.74-21.44c-.12-1.54,1.03-2.88,2.57-3,0,0,.02,0,.02,0h0c1.54-.12,2.88,1.03,3,2.56,0,0,0,.01,0,.02l1.73,21.44c.12,1.54-1.03,2.88-2.56,3,0,0-.01,0-.02,0Z"/>
        <ellipse class="cls-16" cx="410.21" cy="324.72" rx="6.07" ry="4.03" transform="translate(-107.4 248.61) rotate(-30)"/>
        <path class="cls-40" d="M273.71,267.04h27.11c3.15,0,5.7,2.55,5.7,5.7h0v29.38c0,9.43-7.64,17.07-17.07,17.07h-4.37c-9.43,0-17.07-7.63-17.08-17.06h0v-29.39c0-3.15,2.55-5.7,5.7-5.7h.01Z"/>
        <path class="cls-39" d="M305.4,272.9v29.38c0,9.43-7.64,17.07-17.07,17.07h-4.33c-2.5,0-4.97-.54-7.23-1.6,1.25,.29,2.52,.43,3.8,.43h4.37c9.43,0,17.07-7.65,17.06-17.08h0v-29.37c0-1.78-.82-3.45-2.23-4.53,3.12,.04,5.63,2.58,5.63,5.7Z"/>
        <rect class="cls-30" x="123.55" y="269.49" width="23.69" height="5.65" rx="2.82" ry="2.82" transform="translate(-156.14 185.77) rotate(-47.03)"/>
        <rect class="cls-30" x="161.44" y="342.11" width="5.65" height="23.69" rx="2.82" ry="2.82"/>
        <rect class="cls-30" x="180.16" y="347.46" width="5.65" height="23.69" rx="2.82" ry="2.82"/>
        <rect class="cls-30" x="178.46" y="296" width="5.65" height="23.69" rx="2.82" ry="2.82"/>
        <path class="cls-30" d="M172.28,320.03h0c.78,0,1.41,.63,1.41,1.41v9.02c0,.78-.63,1.41-1.41,1.41h0c-.78,0-1.41-.63-1.41-1.41v-9.02c0-.78,.63-1.41,1.41-1.41Z"/>
        <path class="cls-30" d="M159.89,309.68h0c.78,0,1.41,.63,1.41,1.41v9.02c0,.78-.63,1.41-1.41,1.41h0c-.78,0-1.41-.63-1.41-1.41v-9.02c0-.78,.63-1.41,1.41-1.41Z"/>
        <ellipse class="cls-30" cx="133.68" cy="277.78" rx="2.42" ry="1.98" transform="translate(-160.69 186.25) rotate(-47.03)"/>
        <circle class="cls-30" cx="138.13" cy="276.29" r=".78"/>
        <circle class="cls-30" cx="137.82" cy="280.48" r=".47"/>
        <circle class="cls-30" cx="131.18" cy="281.41" r="1.4"/>
        <circle class="cls-30" cx="133.53" cy="284.88" r=".81"/>
        <circle class="cls-30" cx="135.79" cy="283.79" r=".39"/>
        <circle class="cls-30" cx="134.66" cy="281.27" r=".33"/>
        <path class="cls-39" d="M305.51,279.8h-22.51c-.72,.06-1.36-.47-1.42-1.19-.06-.72,.47-1.36,1.19-1.42,.08,0,.15,0,.23,0h22.5c.72-.06,1.36,.47,1.42,1.19,.06,.72-.47,1.36-1.19,1.42-.08,0-.15,0-.23,0h.01Z"/>
        <path class="cls-39" d="M275.84,279.8h-7.84c-.72-.06-1.25-.7-1.19-1.42,.06-.63,.56-1.14,1.19-1.19h7.83c.72,.06,1.25,.7,1.19,1.42-.06,.63-.56,1.14-1.19,1.19h.01Z"/>
        <path class="cls-42" d="M305.51,277.71h-22.51c-.72,.06-1.36-.47-1.42-1.19-.06-.72,.47-1.36,1.19-1.42,.08,0,.15,0,.23,0h22.5c.72-.06,1.36,.47,1.42,1.19,.06,.72-.47,1.36-1.19,1.42-.08,0-.15,0-.23,0h.01Z"/>
        <path class="cls-42" d="M275.84,277.71h-7.84c-.72-.06-1.25-.7-1.19-1.42,.06-.63,.56-1.14,1.19-1.19h7.83c.72,.06,1.25,.7,1.19,1.42-.06,.63-.56,1.14-1.19,1.19h.01Z"/>
        <path class="cls-48" d="M273.48,283.79h0c.86,0,1.55,.7,1.55,1.56v18.19c0,.86-.7,1.56-1.55,1.56h0c-.86,0-1.55-.7-1.55-1.56v-18.19c0-.86,.7-1.56,1.55-1.56Z"/>
        <path class="cls-48" d="M278.34,299.05h0c.66,0,1.2,.54,1.2,1.2v8.04c0,.66-.54,1.2-1.2,1.2h0c-.66,0-1.2-.54-1.2-1.2v-8.04c0-.66,.54-1.2,1.2-1.2Z"/>
        <path class="cls-31" d="M283.01,269.46h0c0,.66-.54,1.2-1.2,1.2h-8.04c-.66,0-1.2-.54-1.2-1.2h0c0-.66,.54-1.2,1.2-1.2h8.04c.66,0,1.2,.54,1.2,1.2Z"/>
        <path class="cls-42" d="M289.45,320.49h-4.37c-10.14-.01-18.36-8.23-18.37-18.37v-29.38c0-3.87,3.13-7,7-7h27.11c3.87,0,7,3.13,7,7v29.38c-.01,10.14-8.23,18.36-18.37,18.37Zm-15.74-52.14c-2.42,0-4.38,1.97-4.39,4.39v29.38c.01,8.7,7.06,15.75,15.76,15.76h4.37c8.7-.01,15.75-7.06,15.77-15.76v-29.38c0-2.43-1.97-4.39-4.4-4.39h-27.11Z"/>
        <path class="cls-16" d="M450.22,296.12c-.29,1.07-.61,2.13-1,3.19-.41,1.25,1.57,1.79,2,.54,.34-1.06,.67-2.12,1-3.18,.15-.55-.17-1.12-.73-1.27s-1.12,.17-1.27,.73h0Z"/>
        <path class="cls-25" d="M235,193.72c-.38,0-.68-.32-.68-.7,0-.13,.04-.25,.11-.36,4.31-5.83,10.92-9.53,18.14-10.15,.38-.03,.7,.25,.74,.62s-.25,.7-.62,.74c-6.79,.64-13,4.1-17.11,9.54-.13,.19-.34,.31-.57,.31Z"/>
        <ellipse class="cls-25" cx="237.65" cy="192.14" rx="2.58" ry="1.64" transform="translate(-55.93 277.02) rotate(-55.08)"/>
        <circle class="cls-25" cx="242.16" cy="190.82" r=".84"/>
        <circle class="cls-25" cx="240.48" cy="195.3" r=".84"/>
        <path class="cls-42" d="M419.94,582.8H49.56c-.62,0-1.12-.5-1.12-1.12v-176.88c0-.62,.5-1.12,1.12-1.12H419.94c.62,0,1.12,.5,1.12,1.12v176.84c.02,.62-.46,1.14-1.08,1.16-.01,0-.03,0-.04,0Zm-369.26-2.28H418.82v-174.62H50.68v174.62Z"/>
        <path class="cls-42" d="M169.68,277.85c-.43-2.35-.3-4.77,.38-7.06,.08-.42-.19-.82-.61-.91-.37-.07-.75,.14-.87,.5-.74,2.56-.87,5.26-.38,7.88,.18,1,1.66,.56,1.48-.41Z"/>
        <path class="cls-42" d="M172.8,274.64c.05-2.69,.84-5.31,2.29-7.58,.56-.81-.77-1.58-1.33-.77-1.76,2.53-2.26,5.33-2.49,8.35-.07,1,1.46,1,1.53,0h0Z"/>
        <path class="cls-20" d="M58.26,495.93h0c2.15,0,3.9,1.75,3.9,3.9v38.14c0,2.15-1.75,3.9-3.9,3.9h0c-2.15,0-3.9-1.75-3.9-3.9v-38.14c0-2.15,1.75-3.9,3.9-3.9Z"/>
        <path class="cls-20" d="M56.31,417.41h0c1.08,0,1.95,.87,1.95,1.95v19.07c0,1.08-.87,1.95-1.95,1.95h0c-1.08,0-1.95-.87-1.95-1.95v-19.07c0-1.08,.87-1.95,1.95-1.95Z"/>
        <path class="cls-20" d="M56.31,555.84h0c1.08,0,1.95,.87,1.95,1.95v19.07c0,1.08-.87,1.95-1.95,1.95h0c-1.08,0-1.95-.87-1.95-1.95v-19.07c0-1.08,.87-1.95,1.95-1.95Z"/>
        <path class="cls-42" d="M80.93,308.08c.52-.66,.99-1.36,1.43-2.08,.42-1.11,1.44-1.89,2.62-2,.33,.05,.67,.05,1,0,1.53-.61,2.42-1.91,4-2.38,3.89-1.23,7.94-1.94,12.02-2.1,2.37-.06,4.84-.16,7.21,0,2.71,.17,4.66,1.75,7.21,2.29,1.75,.37,3.52,.12,5.29,.56,3,.74,4.65,2.83,6.33,5.36,.72,1.09,2.5,.07,1.77-1-2.54-3.82-5-6.15-9.64-6.73-1.4-.18-2.75,.06-4.13-.41s-2.64-1.31-4.08-1.69c-2.67-.72-5.61-.42-8.34-.41-1.25,0-2.52,.13-3.76,.13s-2.12-.49-3.33-.13-2.18,1.21-3.51,1.48c-1.43,.19-2.85,.47-4.24,.85-.73,.35-1.4,.8-2,1.34-1.13,.78-2.09,.56-3.29,.91-2.2,.65-2.56,3.07-4,4.59-.89,1,.55,2.42,1.45,1.45v-.03Z"/>
        <ellipse class="cls-12" cx="90.78" cy="290.26" rx="27.64" ry="22.12" transform="translate(-72.03 33.39) rotate(-15)"/>
        <path class="cls-8" d="M97.16,312.18c-10.31,2.76-20.51,.48-26.79-5.18,5.21,1.17,10.62,1.04,15.77-.38,14.75-3.95,24.14-16.72,21-28.51-.96-3.48-2.92-6.61-5.63-9,8.2,1.9,14.67,7.17,16.66,14.59,3.13,11.75-6.26,24.52-21.01,28.48Z"/>
        <circle class="cls-19" cx="81.15" cy="285.82" r="8.75"/>
        <path class="cls-42" d="M88.05,315.11c-12,0-22.33-6.36-25-16.39-3.35-12.51,6.49-26.06,22-30.2s30.75,2.66,34.1,15.18h0c3.36,12.51-6.49,26.06-21.94,30.2-2.99,.8-6.07,1.21-9.16,1.21Zm6.06-45.06c-2.84,0-5.67,.38-8.42,1.12-14,3.75-23,15.79-20,26.84s16.75,17,30.74,13.23,23-15.78,20-26.83h0c-2.36-8.8-11.59-14.36-22.32-14.36Z"/>
      </g>
    </g>
  </g>
</svg>