<?xml version="1.0" encoding="UTF-8"?>
<svg id="Layer_2" data-name="Layer 2" xmlns="http://www.w3.org/2000/svg" viewBox="0 0 457.01 593">
  <defs>
    <style>
      .cls-1 {
        fill: #675c6c;
      }

      .cls-2 {
        fill: #f29681;
      }

      .cls-3, .cls-4, .cls-5 {
        fill: #e89176;
      }

      .cls-6 {
        fill: #f5f6f7;
      }

      .cls-7 {
        fill: #fdc6a2;
      }

      .cls-8, .cls-9, .cls-10, .cls-11, .cls-12, .cls-13, .cls-14, .cls-15, .cls-16 {
        fill: #fff;
      }

      .cls-17 {
        fill: #ecede2;
      }

      .cls-18 {
        fill: #ffccc0;
      }

      .cls-19 {
        fill: #fdfdff;
      }

      .cls-20 {
        fill: #fe7469;
      }

      .cls-21 {
        fill: #ff908a;
      }

      .cls-22 {
        fill: #999af7;
      }

      .cls-23 {
        fill: #8c437c;
      }

      .cls-24 {
        fill: #a1a1c4;
      }

      .cls-25 {
        fill: #b4e4f9;
      }

      .cls-26 {
        fill: #302f2f;
      }

      .cls-27 {
        fill: #af143b;
      }

      .cls-28 {
        fill: #c16e5d;
      }

      .cls-29 {
        fill: #cacad8;
      }

      .cls-30 {
        fill: #c66a58;
      }

      .cls-31 {
        fill: #e0534c;
      }

      .cls-32 {
        fill: #d38571;
      }

      .cls-33 {
        fill: #ac94b2;
      }

      .cls-34 {
        fill: #d2f2ff;
      }

      .cls-35 {
        fill: #dd9742;
      }

      .cls-36 {
        fill: #dd7b6b;
      }

      .cls-37 {
        fill: #dc166d;
      }

      .cls-38 {
        fill: #dfe0cd;
      }

      .cls-39 {
        fill: #1e1e30;
      }

      .cls-40 {
        fill: #3fd7ec;
      }

      .cls-41 {
        fill: #43a8bf;
      }

      .cls-42 {
        fill: #1b3c47;
      }

      .cls-43 {
        fill: #181828;
      }

      .cls-44 {
        fill: #181728;
      }

      .cls-45 {
        fill: #3f3e3e;
      }

      .cls-46 {
        fill: #1b1b2b;
      }

      .cls-47 {
        fill: #a3a3a3;
      }

      .cls-48 {
        fill: #707070;
      }

      .cls-49 {
        fill: #70bee0;
      }

      .cls-50 {
        fill: #546b76;
      }

      .cls-51 {
        fill: #55495b;
      }

      .cls-52 {
        fill: #566078;
      }

      .cls-53 {
        fill: #3c5159;
      }

      .cls-54 {
        fill: #772b69;
      }

      .cls-55 {
        fill: #7997a3;
      }

      .cls-56 {
        fill: #4f4f4f;
      }

      .cls-57 {
        fill: #525ac1;
      }

      .cls-58 {
        fill: #504556;
      }

      .cls-59 {
        fill: #4f3e52;
      }

      .cls-9 {
        opacity: .3;
      }

      .cls-9, .cls-10, .cls-4, .cls-11, .cls-12, .cls-5, .cls-13, .cls-14, .cls-15, .cls-16, .cls-60 {
        isolation: isolate;
      }

      .cls-10 {
        opacity: .5;
      }

      .cls-4 {
        opacity: .49;
      }

      .cls-11 {
        opacity: .56;
      }

      .cls-12 {
        opacity: .55;
      }

      .cls-5 {
        opacity: .62;
      }

      .cls-13 {
        opacity: .59;
      }

      .cls-14 {
        opacity: .25;
      }

      .cls-15 {
        opacity: .23;
      }

      .cls-16 {
        opacity: .39;
      }

      .cls-60 {
        fill: #670118;
        opacity: .4;
      }

      .cls-61 {
        opacity: .15;
      }

      .cls-62 {
        opacity: .35;
      }
    </style>
  </defs>
  <g id="Layer_1-2" data-name="Layer 1">
    <g id="Layer_2-2" data-name="Layer 2">
      <g id="Layer_1-2" data-name="Layer 1-2">
        <g class="cls-61">
          <path class="cls-42" d="M330.17,460.48h-8v-13.55h23.82c.53-.14,1.08,.17,1.23,.7s-.17,1.08-.7,1.23c-.17,.05-.35,.05-.52,0h-21.91v9.69h6.09c.53,.14,.85,.69,.7,1.23-.09,.34-.36,.61-.7,.7h0Z"/>
          <path class="cls-42" d="M336.48,460.48h-3.47c-.53,.14-1.08-.17-1.23-.7s.17-1.08,.7-1.23c.17-.05,.35-.05,.52,0h3.47c.53,.14,.85,.69,.7,1.23-.09,.34-.36,.61-.7,.7Z"/>
          <path class="cls-42" d="M339.16,460.48h-.07c-.53,.14-1.08-.17-1.23-.7s.17-1.08,.7-1.23c.17-.05,.35-.05,.52,0h.07c.53,.14,.85,.69,.7,1.23-.09,.34-.36,.61-.7,.7Z"/>
          <path class="cls-42" d="M356.04,460.48h-14.18c-.53-.14-.85-.69-.7-1.23,.09-.34,.36-.61,.7-.7h12.26v-9.69h-4.25c-.53,.14-1.08-.17-1.23-.7s.17-1.08,.7-1.23c.17-.05,.35-.05,.52,0h6.21l-.04,13.55Z"/>
          <path class="cls-42" d="M339.8,448.86h-33.88v-13.52h33.88v13.52Zm-32-1.93h30v-9.66h-30v9.66Z"/>
        </g>
        <g class="cls-61">
          <path class="cls-42" d="M66,188.8h-8v-13.54h23.82c.53-.15,1.09,.15,1.24,.68,.15,.53-.15,1.09-.68,1.24-.18,.05-.38,.05-.56,0h-21.91v9.7h6.09c.53-.15,1.09,.15,1.24,.68,.15,.53-.15,1.09-.68,1.24-.18,.05-.38,.05-.56,0h0Z"/>
          <path class="cls-42" d="M72.29,188.8h-3.45c-.53,.15-1.09-.15-1.24-.68-.15-.53,.15-1.09,.68-1.24,.18-.05,.38-.05,.56,0h3.45c.53-.15,1.09,.15,1.24,.68,.15,.53-.15,1.09-.68,1.24-.18,.05-.38,.05-.56,0Z"/>
          <path class="cls-42" d="M74.99,188.8h-.07c-.53,.15-1.09-.15-1.24-.68-.15-.53,.15-1.09,.68-1.24,.18-.05,.38-.05,.56,0h.07c.53,.15,.83,.71,.68,1.24-.1,.33-.35,.58-.68,.68Z"/>
          <path class="cls-42" d="M91.87,188.8h-14.18c-.53-.15-.83-.71-.68-1.24,.1-.33,.35-.58,.68-.68h12.26v-9.7h-4.25c-.53,.15-1.09-.15-1.24-.68-.15-.53,.15-1.09,.68-1.24,.18-.05,.38-.05,.56,0h6.21l-.04,13.54Z"/>
          <path class="cls-42" d="M75.63,177.18H41.75v-13.52h33.88v13.52Zm-32-1.92h30v-9.67h-30v9.67Z"/>
        </g>
        <g class="cls-62">
          <path class="cls-17" d="M67.15,392.48H8.9c-4.2,0-7.6-3.39-7.61-7.59,0,0,0,0,0-.01h0c0-4.19,3.39-7.59,7.58-7.6h58.28"/>
          <path class="cls-39" d="M11.71,384.35H2.06c-.41,.01-.76-.32-.77-.73,0,0,0-.01,0-.02,0-.42,.34-.76,.76-.76H11.7c.42,0,.76,.34,.76,.76h0c0,.41-.34,.75-.75,.75Z"/>
          <rect class="cls-38" x="1.31" y="381.92" width="65.85" height="1.01"/>
          <rect class="cls-38" x="1.31" y="384.48" width="65.85" height="1.01"/>
          <rect class="cls-38" x="1.31" y="387.03" width="65.85" height="1.01"/>
          <rect class="cls-38" x="3.32" y="389.58" width="63.83" height="1.01"/>
          <rect class="cls-38" x="3.32" y="379.37" width="63.83" height="1.01"/>
          <path class="cls-39" d="M42.39,388.09H2.29c-.41,0-.75-.34-.75-.75,0-.42,.33-.75,.75-.76H42.39c.42,0,.76,.34,.76,.76h0c0,.41-.34,.75-.75,.75,0,0,0,0-.01,0Z"/>
          <path class="cls-8" d="M20.79,377.2h24.23c0,1.48-1.2,2.68-2.68,2.68H23.49c-1.48,0-2.68-1.2-2.68-2.68h-.02Z"/>
          <path class="cls-39" d="M67.15,393.48H8.9c-4.75,.16-8.74-3.56-8.9-8.31s3.56-8.74,8.31-8.9c.2,0,.39,0,.59,0h58.25c.55,0,1,.45,1,1s-.45,1-1,1H8.9c-3.64,0-6.59,2.94-6.6,6.58,0,3.64,2.94,6.59,6.58,6.6h58.26c.55,0,1,.45,1,1s-.45,1-1,1v.03Z"/>
          <path class="cls-39" d="M416.04,372.3c-.52,0-.95-.39-1-.9l-3.72-34c-.06-.55,.34-1.05,.89-1.11,.55-.06,1.05,.34,1.11,.89l3.72,34c.06,.55-.33,1.04-.88,1.11,0,0,0,0-.01,0h-.11Z"/>
          <path class="cls-39" d="M410.5,352.65c-.38,0-.7-.29-.75-.67l-1.18-10.16c-.05-.41,.25-.79,.66-.84l3.15-.39c.42-.05,.8,.24,.85,.66s-.24,.8-.66,.85l-2.41,.3,1.09,9.41c.05,.41-.25,.79-.66,.84h-.09Z"/>
          <path class="cls-39" d="M420.61,371.29h-.13c-.55-.06-.94-.56-.88-1.11,0,0,0,0,0-.01h0l4.15-34c.07-.55,.57-.95,1.12-.88s.95,.57,.88,1.12h0l-4.15,34c-.06,.5-.49,.88-.99,.88Z"/>
          <path class="cls-39" d="M431.81,371.29h-.12c-.55-.06-.94-.56-.88-1.11,0,0,0,0,0-.01h0l4.16-34c.07-.55,.57-.95,1.12-.88s.95,.57,.88,1.12h0l-4.16,34c-.06,.5-.49,.88-1,.88Z"/>
          <rect class="cls-23" x="411.92" y="355.2" width="30.83" height="38.34"/>
          <rect class="cls-54" x="412.9" y="355.91" width="5.21" height="36.88"/>
          <rect class="cls-8" x="432.14" y="355.91" width="1.77" height="37.13"/>
          <rect class="cls-11" x="435.44" y="355.91" width=".87" height="37.13"/>
          <rect class="cls-11" x="438.2" y="355.91" width=".87" height="37.13"/>
          <path class="cls-39" d="M442.74,394.57h-30.82c-.55,0-1-.45-1-1v-38.37c0-.55,.45-1,1-1h30.82c.55,0,1,.45,1,1v38.36c0,.55-.45,1-1,1h0Zm-29.82-1.99h28.81v-36.37h-28.81v36.37Z"/>
          <path class="cls-45" d="M91.54,381.74c-5.71,0-10.33-4.62-10.33-10.33,0-5.71,4.62-10.33,10.33-10.33s10.33,4.62,10.33,10.33h0c0,5.7-4.63,10.32-10.33,10.33Zm0-15.62c-2.92,0-5.29,2.37-5.29,5.29,0,2.92,2.37,5.29,5.29,5.29,2.92,0,5.29-2.37,5.29-5.29,0,0,0,0,0,0h0c-.01-2.91-2.38-5.27-5.29-5.27h0Z"/>
          <path class="cls-39" d="M91.58,383c-6.12,0-11.09-4.97-11.09-11.09s4.97-11.09,11.09-11.09,11.09,4.97,11.09,11.09h0c0,6.12-4.97,11.09-11.09,11.09Zm0-20.67c-5.29,0-9.58,4.28-9.59,9.57,0,5.29,4.28,9.58,9.57,9.59,5.29,0,9.58-4.28,9.59-9.57,0,0,0,0,0-.01,0-5.29-4.28-9.57-9.57-9.58Zm0,15.63c-3.34,.03-6.07-2.66-6.1-6-.03-3.34,2.66-6.07,6-6.1s6.07,2.66,6.1,6c0,.02,0,.03,0,.05-.01,3.31-2.69,6-6,6.03v.02Zm0-10.59c-2.51,0-4.54,2.02-4.55,4.53,0,2.51,2.02,4.54,4.53,4.55,2.51,0,4.54-2.02,4.55-4.53,0,0,0,0,0,0,.01-2.51-2.01-4.55-4.52-4.56,0,0,0,0-.01,0v.02Z"/>
          <rect class="cls-45" x="57.53" y="349.52" width="33.71" height="42.75" rx="2.74" ry="2.74"/>
          <path class="cls-26" d="M91.54,358.05v33c0,1.51-1.23,2.74-2.74,2.75h-28.23c-1.51,0-2.74-1.23-2.74-2.74h0v-6.06c2.36,1.29,5.03,1.92,7.72,1.83,5.13-.19,10-2.79,13.62-6.38,3.56-3.71,6.44-8.01,8.52-12.71,1.54-3.12,2.82-6.36,3.85-9.69Z"/>
          <path class="cls-29" d="M381.36,392.38c-.19-6.59,4.99-12.08,11.58-12.27s12.08,4.99,12.27,11.58c0,.23,0,.46,0,.69"/>
          <path class="cls-24" d="M405.22,392.36h-19.71c5.49-2.18,10.43-5.56,14.46-9.89,3.28,2.22,5.25,5.93,5.25,9.89Z"/>
          <path class="cls-29" d="M268.05,397.93h-70.46c-2.58,0-4.67-2.1-4.66-4.68,0-.59,.11-1.17,.33-1.72l13.03-32.77,26.51-7.28,26.5,7.3,13.06,32.77c.95,2.39-.22,5.09-2.6,6.04,0,0-.02,0-.03,.01-.53,.22-1.1,.33-1.68,.33Z"/>
          <polygon class="cls-24" points="264.69 372.37 201.71 372.37 202.32 368.2 264.08 368.2 264.69 372.37"/>
          <circle class="cls-24" cx="207.65" cy="373" r="2.21"/>
          <circle class="cls-24" cx="214.33" cy="375.95" r="1.13"/>
          <circle class="cls-24" cx="209.56" cy="380.11" r="1.47"/>
          <path class="cls-39" d="M268.05,398.94h-70.46c-3.14,0-5.68-2.55-5.67-5.69h0c0-.72,.14-1.43,.4-2.1l13.06-32.76c.12-.29,.36-.52,.67-.6l26.51-7.28c.17-.05,.36-.05,.53,0l26.51,7.26c.31,.08,.55,.31,.67,.6l13.02,32.77c1.16,2.91-.26,6.22-3.18,7.38-.67,.27-1.38,.4-2.1,.4l.04,.02Zm-61-39.32l-12.88,32.31c-.74,1.88,.18,4.01,2.07,4.75,.42,.17,.88,.25,1.33,.25h70.47c2.02,0,3.66-1.64,3.65-3.67,0-.46-.09-.91-.25-1.33l-12.87-32.31-25.75-7.06-25.77,7.06Z"/>
          <path class="cls-50" d="M119.95,195.24h222.21c4.76,0,8.62,3.86,8.62,8.62v156.51c0,4.52-3.67,8.19-8.19,8.19H119.52c-4.52,0-8.18-3.66-8.18-8.18,0,0,0,0,0-.01V203.86c0-4.76,3.84-8.61,8.6-8.62h.01Z"/>
          <path class="cls-55" d="M350.51,203.85v5.32c0-4.76-3.86-8.62-8.62-8.62H119.69c-4.76,0-8.62,3.86-8.62,8.62v-5.32c0-4.76,3.86-8.61,8.62-8.61h222.2c4.76,0,8.61,3.85,8.62,8.61Z"/>
          <path class="cls-29" d="M350.78,340.33v20c0,4.52-3.67,8.19-8.19,8.19H119.52c-4.52,0-8.18-3.66-8.18-8.18,0,0,0,0,0-.01v-20h239.44Z"/>
          <rect class="cls-24" x="111.44" y="339.91" width="239.44" height="4.42"/>
          <path class="cls-53" d="M350.88,335.91v4.42H111.43s-1.92-12.36,.4-11.94c40.8,7.36,239.05,7.52,239.05,7.52Z"/>
          <rect class="cls-25" x="123.66" y="208.98" width="215" height="119.57"/>
          <path class="cls-39" d="M111.44,288.23c-.55,0-1-.45-1-1v-59.52c0-.55,.45-1,1-1s1,.45,1,1v59.51c0,.55-.44,1-.99,1.01,0,0,0,0-.01,0Z"/>
          <path class="cls-39" d="M350.88,268c-.55,0-1-.45-1-1v-8.8c0-.55,.45-1,1-1s1,.45,1,1v8.8c0,.55-.45,1-1,1Z"/>
          <path class="cls-39" d="M350.88,253.1c-.55,0-1-.45-1-1v-16.59c0-.55,.45-1,1-1s1,.45,1,1v16.58c0,.55-.44,1-.99,1.01,0,0,0,0-.01,0Z"/>
          <path class="cls-39" d="M350.88,229.87c-.55,0-1-.45-1-1v-25c0-4.2-3.41-7.6-7.61-7.61H120.05c-4.2,0-7.6,3.41-7.6,7.61v17.3c0,.55-.45,1-1,1s-1-.45-1-1v-17.3c.01-5.31,4.31-9.61,9.62-9.63h222.22c5.31,.01,9.62,4.32,9.63,9.63v25c0,.55-.45,1-1,1-.01,0-.03,0-.04,0Z"/>
          <path class="cls-39" d="M350.88,341.34H111.43c-.55,0-1-.45-1-1s.45-1,1-1h239.45c.55,0,1,.45,1,1s-.45,1-1,1Z"/>
          <rect class="cls-49" x="123.66" y="323.64" width="215" height="4.91"/>
          <polygon class="cls-13" points="215.74 328.55 210.83 328.55 241.08 208.98 245.99 208.98 215.74 328.55"/>
          <polygon class="cls-9" points="204.95 328.55 200.04 328.55 230.28 208.98 235.19 208.98 204.95 328.55"/>
          <polygon class="cls-8" points="237.7 328.55 222.7 328.55 252.95 208.98 267.94 208.98 237.7 328.55"/>
          <path class="cls-39" d="M123.66,259.86c-.55,0-1-.45-1-1v-11.6c0-.55,.45-1,1-1s1,.45,1,1v11.6c0,.55-.45,1-1,1Z"/>
          <circle class="cls-53" cx="319.15" cy="334.87" r="1.26"/>
          <circle class="cls-53" cx="321.51" cy="333.98" r=".37"/>
          <circle class="cls-53" cx="319.68" cy="332.46" r=".37"/>
          <circle class="cls-53" cx="316.08" cy="332.41" r=".86"/>
          <circle class="cls-53" cx="314.85" cy="334.96" r=".76"/>
          <circle class="cls-53" cx="312.69" cy="333.22" r=".39"/>
          <circle class="cls-53" cx="313.55" cy="331.49" r=".47"/>
          <circle class="cls-53" cx="309.85" cy="334.42" r=".82"/>
          <circle class="cls-53" cx="324.4" cy="333.34" r=".51"/>
          <circle class="cls-53" cx="322.49" cy="331.79" r=".29"/>
          <circle class="cls-53" cx="324.74" cy="330.73" r=".51"/>
          <circle class="cls-53" cx="322.4" cy="332.92" r=".35"/>
          <circle class="cls-53" cx="320.65" cy="330.73" r=".4"/>
          <circle class="cls-53" cx="318.14" cy="330.15" r=".58"/>
          <circle class="cls-53" cx="318.62" cy="331.62" r=".13"/>
          <circle class="cls-53" cx="318.08" cy="332.84" r=".19"/>
          <circle class="cls-53" cx="324.38" cy="335.44" r=".82"/>
          <circle class="cls-53" cx="327.66" cy="334.47" r=".63"/>
          <circle class="cls-53" cx="330.88" cy="335.52" r="1.33"/>
          <circle class="cls-53" cx="334.9" cy="335.62" r="1.42"/>
          <circle class="cls-53" cx="337.41" cy="335.04" r=".62"/>
          <circle class="cls-53" cx="335.12" cy="333.05" r=".22"/>
          <circle class="cls-53" cx="332.04" cy="331.97" r=".48"/>
          <circle class="cls-53" cx="330.03" cy="331.3" r=".48"/>
          <circle class="cls-53" cx="328.32" cy="331.9" r=".66"/>
          <circle class="cls-53" cx="326.55" cy="332.46" r=".48"/>
          <circle class="cls-53" cx="331.27" cy="333.51" r=".29"/>
          <circle class="cls-49" cx="294.1" cy="321.81" r="2.39"/>
          <circle class="cls-49" cx="298.59" cy="320.13" r=".71"/>
          <circle class="cls-49" cx="295.11" cy="317.22" r=".72"/>
          <circle class="cls-49" cx="288.26" cy="317.14" r="1.64"/>
          <circle class="cls-49" cx="285.92" cy="321.99" r="1.45"/>
          <circle class="cls-49" cx="281.81" cy="318.68" r=".74"/>
          <circle class="cls-49" cx="283.46" cy="315.39" r=".9"/>
          <circle class="cls-49" cx="276.4" cy="320.97" r="1.55"/>
          <circle class="cls-49" cx="304.1" cy="318.91" r=".97"/>
          <circle class="cls-49" cx="300.46" cy="315.95" r=".55"/>
          <circle class="cls-49" cx="304.73" cy="313.95" r=".97"/>
          <circle class="cls-49" cx="300.28" cy="318.1" r=".67"/>
          <circle class="cls-49" cx="296.96" cy="313.95" r=".76"/>
          <circle class="cls-49" cx="292.19" cy="312.83" r="1.11"/>
          <circle class="cls-49" cx="293.08" cy="315.63" r=".24"/>
          <circle class="cls-49" cx="292.06" cy="317.96" r=".36"/>
          <circle class="cls-49" cx="304.06" cy="322.9" r="1.55"/>
          <circle class="cls-49" cx="310.3" cy="321.07" r="1.2"/>
          <circle class="cls-49" cx="316.42" cy="323.07" r="2.52"/>
          <circle class="cls-49" cx="324.08" cy="323.24" r="2.7"/>
          <circle class="cls-49" cx="328.85" cy="322.15" r="1.17"/>
          <circle class="cls-49" cx="324.5" cy="318.36" r=".42"/>
          <circle class="cls-49" cx="318.64" cy="316.31" r=".91"/>
          <circle class="cls-49" cx="314.81" cy="315.03" r=".92"/>
          <circle class="cls-49" cx="311.56" cy="316.17" r="1.26"/>
          <circle class="cls-49" cx="308.19" cy="317.22" r=".92"/>
          <circle class="cls-49" cx="317.17" cy="319.22" r=".54"/>
          <circle class="cls-24" cx="147.71" cy="348.32" r="1.13"/>
          <path class="cls-39" d="M130.8,233.34c-.1,0-.2-.02-.3-.06-.39-.16-.57-.61-.4-1,0,0,0,0,0,0h0l7.06-16.35c.17-.38,.61-.56,.99-.39s.56,.61,.39,.99l-7,16.35c-.12,.3-.42,.48-.74,.46Z"/>
          <path class="cls-39" d="M136.76,230.1c-.1,0-.2-.02-.3-.06-.39-.16-.57-.61-.4-1,0,0,0,0,0,0h0l3.53-8.17c.16-.38,.6-.57,.98-.41,0,0,.01,0,.02,0,.39,.16,.57,.61,.4,1,0,0,0,0,0,0l-3.53,8.17c-.12,.28-.39,.47-.7,.46Z"/>
          <circle class="cls-39" cx="135.54" cy="232.85" r="1.2"/>
          <path class="cls-39" d="M155.59,201.5h-24c-.42,.05-.79-.25-.84-.67s.25-.79,.67-.84c.06,0,.12,0,.17,0h24c.42,.05,.72,.43,.67,.84-.04,.35-.32,.63-.67,.67Z"/>
          <path class="cls-39" d="M165.69,201.5h-4.82c-.42,.05-.79-.25-.84-.67s.25-.79,.67-.84c.06,0,.12,0,.17,0h4.82c.42,.05,.72,.43,.67,.84-.04,.35-.32,.63-.67,.67Z"/>
          <path class="cls-39" d="M350.78,279.79c-.55,0-1-.45-1-1v-4.73c0-.55,.45-1,1-1s1,.45,1,1v4.73c0,.55-.45,1-1,1Z"/>
          <circle class="cls-24" cx="140.72" cy="345.87" r="3.76"/>
          <circle class="cls-24" cx="144.71" cy="353.24" r="1.87"/>
          <circle class="cls-24" cx="133.88" cy="349.63" r="1.86"/>
          <circle class="cls-8" cx="231.06" cy="355.11" r="6.79"/>
          <path class="cls-39" d="M231.18,364.15c-4.8,0-8.7-3.89-8.7-8.7,0-4.64,3.64-8.47,8.28-8.69h.42c.55,0,1,.45,1,1s-.45,1-1,1c-3.69,0-6.68,2.98-6.69,6.67,0,3.69,2.98,6.68,6.67,6.69s6.68-2.98,6.69-6.67c0,0,0-.01,0-.02,0-1.22-.35-2.42-1-3.46-.29-.48-.14-1.1,.34-1.39,.48-.29,1.1-.14,1.39,.34,2.5,4.1,1.2,9.45-2.9,11.94-1.36,.83-2.93,1.27-4.53,1.27l.03,.02Z"/>
          <path class="cls-39" d="M198.92,392.11c-.09,0-.18-.02-.27-.05-.39-.13-.6-.56-.47-.95,0-.02,.01-.03,.02-.05h0l1.88-4.95c.15-.39,.58-.59,.97-.44s.59,.58,.44,.97l-1.88,5c-.12,.28-.39,.46-.69,.47Z"/>
          <path class="cls-39" d="M202.61,382.34c-.09,.01-.18,.01-.27,0-.4-.15-.59-.6-.44-1,0,0,0,0,0,0h0l1.11-2.94c.12-.4,.54-.62,.94-.5s.62,.54,.5,.94c0,.03,0,.06,0,.09l-1.16,2.92c-.11,.28-.38,.48-.68,.49Z"/>
          <path class="cls-49" d="M172.6,325.91h-22.53c-1.25,.08-2.33-.86-2.42-2.11-.08-1.25,.86-2.33,2.11-2.42,.1,0,.2,0,.3,0h22.53c1.25,.08,2.2,1.16,2.11,2.42-.08,1.14-.98,2.04-2.11,2.11Z"/>
          <path class="cls-55" d="M255.38,203h-22.54c-1.25,.08-2.33-.86-2.42-2.11-.08-1.25,.86-2.33,2.11-2.42,.1,0,.2,0,.3,0h22.54c1.25,.08,2.2,1.16,2.11,2.42-.08,1.14-.98,2.04-2.11,2.11Z"/>
          <path class="cls-55" d="M305.36,203h-10.43c-1.25,.08-2.33-.86-2.42-2.11-.08-1.25,.86-2.33,2.11-2.42,.1,0,.2,0,.3,0h10.43c1.25-.08,2.33,.86,2.42,2.11,.08,1.25-.86,2.33-2.11,2.42-.1,0-.2,0-.3,0Z"/>
          <path class="cls-18" d="M11.29,393H449.5c3.74,0,6.77,3.03,6.77,6.77h0c0,3.75-3.03,6.78-6.77,6.78H11.29c-3.74,0-6.77-3.03-6.77-6.77h0c0-3.74,3.02-6.77,6.76-6.78h.01Z"/>
          <path class="cls-2" d="M456.29,400.12c0,3.74-3.03,6.77-6.77,6.77H11.29c-3.74,0-6.77-3.03-6.77-6.77h0c0-1.19,.31-2.36,.91-3.39,1.21,2.1,3.44,3.39,5.86,3.39H449.5c2.42,0,4.65-1.3,5.86-3.39,.61,1.03,.93,2.2,.93,3.39Z"/>
          <path class="cls-19" d="M83.69,397.09H50.11c-.97-.07-1.71-.92-1.63-1.9,.07-.87,.76-1.57,1.63-1.63h33.58c.97,.07,1.71,.92,1.63,1.9-.07,.87-.76,1.57-1.63,1.63Z"/>
          <path class="cls-19" d="M101.78,397.09h-8.37c-.97-.07-1.71-.92-1.63-1.9,.07-.87,.76-1.57,1.63-1.63h8.37c.97,.07,1.71,.92,1.63,1.9-.07,.87-.76,1.57-1.63,1.63Z"/>
          <path class="cls-2" d="M337.29,401.58h-33.58c-.97-.07-1.71-.92-1.63-1.9,.07-.87,.76-1.57,1.63-1.63h33.58c.97,.07,1.71,.92,1.63,1.9-.07,.87-.76,1.57-1.63,1.63Z"/>
          <path class="cls-2" d="M355.38,401.58h-8.36c-.97,.07-1.82-.66-1.9-1.63-.07-.97,.66-1.82,1.63-1.9,.09,0,.18,0,.27,0h8.36c.97-.07,1.82,.66,1.9,1.63,.07,.97-.66,1.82-1.63,1.9-.09,0-.18,0-.27,0Z"/>
          <path class="cls-36" d="M213.18,406.59h-33.58c-.97-.07-1.71-.92-1.63-1.9,.07-.87,.76-1.57,1.63-1.63h33.58c.97,.07,1.71,.92,1.63,1.9-.07,.87-.76,1.57-1.63,1.63Z"/>
          <path class="cls-36" d="M231.29,406.59h-8.36c-.97,.07-1.82-.66-1.9-1.63-.07-.97,.66-1.82,1.63-1.9,.09,0,.18,0,.27,0h8.36c.97-.07,1.82,.66,1.9,1.63,.07,.97-.66,1.82-1.63,1.9-.09,0-.18,0-.27,0Z"/>
          <path class="cls-36" d="M41.97,406.59H8.39c-.97-.07-1.71-.92-1.63-1.9,.07-.87,.76-1.57,1.63-1.63H41.97c.97-.07,1.82,.66,1.9,1.63,.07,.97-.66,1.82-1.63,1.9-.09,0-.18,0-.27,0Z"/>
          <path class="cls-36" d="M60.06,406.59h-8.34c-.97,.07-1.82-.66-1.9-1.63-.07-.97,.66-1.82,1.63-1.9,.09,0,.18,0,.27,0h8.37c.97,.07,1.71,.92,1.63,1.9-.07,.87-.76,1.57-1.63,1.63h-.03Z"/>
          <path class="cls-36" d="M433.44,406.59h-33.57c-.97,.07-1.82-.66-1.9-1.63-.07-.97,.66-1.82,1.63-1.9,.09,0,.18,0,.27,0h33.57c.97-.07,1.82,.66,1.9,1.63,.07,.97-.66,1.82-1.63,1.9-.09,0-.18,0-.27,0Z"/>
          <path class="cls-36" d="M451.54,406.59h-8.38c-.97-.07-1.71-.92-1.63-1.9,.07-.87,.76-1.57,1.63-1.63h8.38c.97,.07,1.71,.92,1.63,1.9-.07,.87-.76,1.57-1.63,1.63Z"/>
          <path class="cls-39" d="M449.5,407.6H11.29c-4.31,0-7.8-3.49-7.8-7.8s3.49-7.8,7.8-7.8h121.64c.55,0,1,.45,1,1s-.45,1-1,1H11.29c-3.18,.13-5.66,2.82-5.52,6.01,.12,3,2.53,5.4,5.52,5.52H449.5c3.18-.13,5.66-2.82,5.52-6.01-.12-3-2.53-5.4-5.52-5.52H167.74c-.55,0-1-.45-1-1s.45-1,1-1H449.5c4.3,.15,7.66,3.76,7.51,8.06-.15,4.08-3.42,7.36-7.51,7.51v.03Z"/>
          <path class="cls-39" d="M149.06,394.07h-7.28c-.55,0-1-.45-1-1s.45-1,1-1h7.28c.55,0,1,.45,1,1s-.45,1-1,1Z"/>
          <path class="cls-39" d="M159.22,394.07h-3.74c-.55,0-1-.45-1-1s.45-1,1-1h3.74c.55,0,1,.45,1,1s-.45,1-1,1Z"/>
          <path class="cls-39" d="M405.21,393.39c-.55,0-1-.45-1-1,0-6.03-4.88-10.93-10.91-10.93-1.82,0-3.62,.45-5.22,1.32-.49,.28-1.11,.1-1.39-.38-.28-.49-.1-1.11,.39-1.39,6.29-3.4,14.14-1.05,17.54,5.24,1.02,1.89,1.55,4,1.55,6.14,0,.54-.42,.98-.96,1Z"/>
          <path class="cls-39" d="M381.36,393.39c-.55,0-1-.45-1-1,0-2.96,1.01-5.84,2.88-8.14,.33-.45,.96-.54,1.41-.21s.54,.96,.21,1.41h0l-.06,.07c-1.57,1.95-2.42,4.37-2.43,6.87,0,.55-.45,1-1,1,0,0,0,0-.01,0Z"/>
          <rect class="cls-8" x="67.4" y="349.63" width="2.86" height="43.41"/>
          <rect class="cls-16" x="72.27" y="349.63" width="1.37" height="43.41"/>
          <path class="cls-39" d="M74.4,345.34c-.41,0-.75-.34-.75-.75,0,0,0,0,0-.01v-11.31c0-3.12,2.52-5.64,5.64-5.65,2.7,0,4.89-2.19,4.89-4.89,0-2.7-2.19-4.89-4.89-4.89-.42,0-.76-.34-.76-.76h0c0-.41,.34-.75,.75-.75,0,0,0,0,.01,0,3.53,0,6.4,2.87,6.39,6.41,0,3.53-2.86,6.39-6.39,6.39-2.29,0-4.14,1.85-4.14,4.14h0v11.31c0,.42-.33,.75-.75,.76Z"/>
          <path class="cls-39" d="M68.29,340.35c-.42,0-.76-.34-.76-.76h0v-11.18c-.05-.42,.25-.79,.67-.84,.42-.05,.79,.25,.84,.67,0,.06,0,.12,0,.17v11.18c0,.42-.33,.75-.75,.76Z"/>
          <path class="cls-39" d="M80.45,346.26c-.42,0-.76-.34-.76-.76h0v-11.19c0-.42,.34-.76,.76-.76,.42,0,.76,.34,.76,.76v11.19c0,.42-.34,.76-.76,.76h0Z"/>
          <path class="cls-35" d="M82.51,363.14h0c-.78,0-1.41-.63-1.41-1.41h0v-11.84h2.81v11.84c0,.77-.63,1.4-1.4,1.41Z"/>
          <path class="cls-35" d="M89.48,350.65c0,1.38-1.12,2.5-2.5,2.5s-2.5-1.12-2.5-2.5"/>
          <rect class="cls-15" x="60.88" y="355.33" width="3.31" height="12.5" rx="1.65" ry="1.65"/>
          <path class="cls-53" d="M122.18,310.15c-.69,0-1.25-.55-1.26-1.24,0,0,0-.01,0-.02v-25.33c0-.7,.57-1.26,1.26-1.26,.69,0,1.26,.56,1.26,1.26v25.31c.01,.7-.54,1.27-1.24,1.28h-.02Z"/>
          <path class="cls-53" d="M339.92,254.64c-.69,0-1.25-.57-1.26-1.26v-25.33c0-.7,.56-1.26,1.26-1.26,.7,0,1.26,.56,1.26,1.26h0v25.34c0,.7-.56,1.26-1.26,1.26Z"/>
          <path class="cls-53" d="M339.92,315c-.7,0-1.26-.56-1.26-1.26h0v-25.3c0-.7,.56-1.26,1.26-1.26,.7,0,1.26,.56,1.26,1.26h0v25.34c-.01,.69-.57,1.24-1.26,1.23Z"/>
          <path class="cls-49" d="M336.85,290.68c-.97,0-1.76-.78-1.77-1.75,0,0,0,0,0-.01v-25.33c-.07-.97,.66-1.82,1.63-1.9,.97-.07,1.82,.66,1.9,1.63,0,.09,0,.18,0,.27v25.33c0,.97-.79,1.76-1.76,1.76h0Z"/>
          <path class="cls-49" d="M336.85,221c-.98,0-1.77-.79-1.77-1.77v-5.23c.07-.97,.92-1.71,1.9-1.63,.87,.07,1.57,.76,1.63,1.63v5.16c.04,.97-.71,1.79-1.68,1.84-.03,0-.05,0-.08,0Z"/>
          <path class="cls-49" d="M125.29,280.76c-.98,0-1.77-.79-1.77-1.77v-5.16c-.07-.97,.66-1.82,1.63-1.9,.97-.07,1.82,.66,1.9,1.63,0,.09,0,.18,0,.27v5.17c0,.97-.79,1.76-1.76,1.76h0Z"/>
          <path class="cls-24" d="M301.89,368.38h-5.18c-.97,0-1.76-.78-1.76-1.76,0-.97,.78-1.76,1.76-1.76h5.18c.97,0,1.76,.78,1.76,1.76,0,.97-.78,1.76-1.76,1.76h0Z"/>
          <path class="cls-49" d="M125.29,318.84c-.98,0-1.77-.79-1.77-1.77v-5.17c-.07-.97,.66-1.82,1.63-1.9,.97-.07,1.82,.66,1.9,1.63,0,.09,0,.18,0,.27v5.16c.01,.97-.77,1.77-1.74,1.78h-.01s-.01,0-.01,0Z"/>
          <path class="cls-49" d="M125.29,217.63c-.97,0-1.76-.78-1.77-1.75,0,0,0,0,0-.01v-5.17c.07-.97,.92-1.71,1.9-1.63,.87,.07,1.57,.76,1.63,1.63v5.17c0,.97-.79,1.76-1.76,1.76h0Z"/>
          <path class="cls-39" d="M338.65,329.31H123.65c-.42,0-.76-.34-.76-.76h0v-64.18c0-.42,.34-.76,.76-.76h0c.41,0,.75,.34,.75,.75,0,0,0,0,0,.01v63.42h213.5v-118.06H124.41v29.88c0,.41-.34,.75-.75,.75-.42,0-.75-.33-.76-.75v-30.61c0-.42,.34-.76,.76-.76h215c.42,0,.76,.34,.76,.76h0v119.53c.01,.42-.32,.77-.74,.78h-.03Z"/>
          <path class="cls-35" d="M75.49,350.32h2.58v6.05c0,.71-.58,1.29-1.29,1.29h0c-.71,0-1.29-.58-1.29-1.29h0v-6.05Z"/>
          <path class="cls-39" d="M88.81,393.8h-28.23c-2.07,0-3.75-1.68-3.75-3.75v-13.36c0-.55,.45-1,1-1s1,.45,1,1v13.31c.01,.95,.79,1.72,1.74,1.72h28.24c.95,0,1.72-.77,1.72-1.72h0v-37.22c.02-.96-.74-1.76-1.7-1.78-.01,0-.02,0-.03,0h-28.23c-.96,0-1.73,.78-1.74,1.74v10.61c0,.55-.45,1-1,1s-1-.45-1-1v-10.57c-.02-2.07,1.65-3.76,3.72-3.78,0,0,.01,0,.02,0h28.23c2.07,0,3.75,1.68,3.75,3.75h0v37.25c0,2.07-1.67,3.75-3.74,3.76v.04Z"/>
          <path class="cls-39" d="M57.84,372.9c-.55,0-1-.45-1-1v-4.27c0-.55,.45-1,1-1s1,.45,1,1v4.27c0,.55-.45,1-1,1Z"/>
          <circle class="cls-37" cx="436.89" cy="332.08" r="3.98"/>
          <path class="cls-39" d="M436.89,336.81c-2.62,0-4.74-2.12-4.74-4.74s2.12-4.74,4.74-4.74,4.74,2.12,4.74,4.74h0c0,2.62-2.12,4.74-4.73,4.74h-.01Zm0-7.95c-1.78,0-3.22,1.45-3.21,3.23,0,1.78,1.45,3.22,3.23,3.21,1.77,0,3.21-1.45,3.21-3.22h0c0-1.78-1.44-3.22-3.22-3.22h-.01Z"/>
          <path class="cls-39" d="M428.79,351.64h-.09c-.41-.04-.7-.4-.66-.81,0,0,0-.01,0-.02h0l1.09-9.42-2.41-.29c-.41-.1-.67-.51-.58-.92,.08-.35,.4-.6,.76-.6l3.16,.39c.41,.06,.7,.43,.65,.84l-1.17,10.19c-.06,.37-.38,.64-.75,.64Z"/>
          <path class="cls-8" d="M343.09,369.61h-11.09c-1.1,0-2-.9-2-2s.9-2,2-2h11.09c2.24,0,4.79-2.41,4.79-4.54v-6.26c0-1.1,.9-2,2-2s2,.9,2,2v6.27c.01,4.29-4.36,8.53-8.79,8.53Z"/>
          <path class="cls-8" d="M139.87,370.16h-11.09c-1.1,0-2-.9-2-2s.9-2,2-2h11.09c1.1,0,2,.9,2,2s-.9,2-2,2Z"/>
          <path class="cls-39" d="M342.69,369.57H119.62c-5.07-.01-9.18-4.13-9.19-9.2v-66.87c0-.55,.45-1,1-1s1,.45,1,1v66.87c0,3.96,3.2,7.17,7.16,7.18h223.1c3.96,0,7.17-3.22,7.18-7.18v-74.68c0-.55,.45-1,1-1s1,.45,1,1v74.68c0,5.07-4.11,9.18-9.18,9.2Z"/>
        </g>
        <path class="cls-1" d="M361.13,341.6l-2.28-1c-2.37-1.04-3.45-3.81-2.41-6.18,0-.01,.01-.03,.02-.04l26.77-58.73,10.25,4.5-26.28,59.08c-1.01,2.33-3.71,3.39-6.04,2.38-.01,0-.02,0-.03-.01Z"/>
        <path class="cls-51" d="M387.65,293.43l-9.62-4.22c-.32-.14-.47-.52-.33-.85s.52-.47,.85-.33h0l9.61,4.22c.31,.17,.43,.55,.27,.87-.15,.28-.48,.41-.78,.3h0Z"/>
        <path class="cls-43" d="M388.34,292.5c-.09,0-.18-.02-.26-.05l-9.62-4.23c-.32-.14-.47-.52-.33-.85s.52-.47,.85-.33h0l9.62,4.22c.32,.15,.47,.52,.33,.85-.1,.23-.34,.38-.59,.38Z"/>
        <path class="cls-51" d="M384.83,299.84l-9.61-4.22c-.32-.13-.47-.5-.34-.82,0,0,0-.02,.01-.03,.14-.32,.52-.47,.84-.33l9.62,4.23c.32,.14,.47,.52,.33,.84-.13,.32-.5,.47-.82,.34,0,0-.02,0-.03-.01Z"/>
        <path class="cls-43" d="M385.52,298.91c-.09,0-.17-.02-.25-.05l-9.62-4.23c-.32-.14-.47-.52-.33-.85s.52-.47,.85-.33l9.61,4.22c.33,.14,.48,.51,.34,.84-.1,.24-.34,.4-.6,.39h0Z"/>
        <path class="cls-51" d="M382.02,306.25l-9.62-4.25c-.33-.14-.47-.52-.33-.85,.14-.33,.52-.47,.85-.33h0l9.61,4.23c.32,.13,.47,.5,.34,.82,0,0,0,.01,0,.02-.12,.33-.48,.49-.81,.37-.01,0-.02,0-.03-.01Z"/>
        <path class="cls-43" d="M382.71,305.32c-.09,0-.18-.02-.26-.06l-9.62-4.26c-.32-.15-.47-.52-.33-.85,.14-.32,.52-.47,.85-.32,0,0,0,0,0,0l9.62,4.22c.33,.14,.48,.51,.34,.84-.1,.24-.34,.4-.6,.39v.04Z"/>
        <path class="cls-51" d="M379.2,312.66l-9.61-4.22c-.32-.13-.47-.5-.34-.82,0,0,0-.02,.01-.03,.14-.32,.52-.47,.84-.33l9.62,4.22c.32,.15,.47,.52,.33,.85-.14,.32-.52,.47-.84,.33,0,0,0,0,0,0Z"/>
        <path class="cls-43" d="M379.9,311.73c-.09,0-.18-.02-.26-.06l-9.62-4.22c-.33-.14-.47-.52-.33-.85,.14-.33,.52-.47,.85-.33h0l9.61,4.23c.32,.13,.47,.5,.34,.82,0,0,0,.01,0,.02-.1,.23-.33,.39-.58,.39Z"/>
        <path class="cls-51" d="M376.39,319.07l-9.62-4.22c-.33-.14-.47-.52-.33-.85,.14-.33,.52-.47,.85-.33h0l9.62,4.22c.33,.14,.47,.52,.33,.85-.14,.33-.52,.47-.85,.33Z"/>
        <path class="cls-43" d="M377.08,318.14c-.09,0-.18-.02-.26-.06l-9.61-4.22c-.32-.13-.47-.5-.34-.82,0,0,0-.02,.01-.03,.14-.32,.52-.47,.84-.33l9.62,4.23c.32,.14,.47,.52,.33,.84-.1,.23-.33,.39-.59,.39Z"/>
        <path class="cls-51" d="M373.58,325.48l-9.62-4.22c-.32-.15-.47-.52-.33-.85,.14-.32,.52-.47,.84-.33,0,0,0,0,0,0l9.61,4.22c.33,.14,.48,.52,.33,.85s-.52,.48-.85,.33Z"/>
        <path class="cls-43" d="M374.29,324.55c-.09,0-.18-.02-.26-.06l-9.62-4.22c-.33-.14-.47-.52-.33-.85,.14-.33,.52-.47,.85-.33h0l9.62,4.23c.32,.14,.47,.52,.33,.84-.1,.23-.33,.39-.59,.39Z"/>
        <path class="cls-51" d="M370.76,331.89l-9.62-4.23c-.32-.14-.47-.52-.33-.85s.52-.47,.85-.33h0l9.62,4.22c.33,.14,.47,.52,.33,.85-.14,.33-.52,.47-.85,.33h0Z"/>
        <path class="cls-43" d="M371.45,331c-.09,0-.17-.01-.25-.05l-9.62-4.22c-.33-.14-.47-.52-.33-.85,.14-.33,.52-.47,.85-.33h0l9.61,4.22c.32,.15,.47,.52,.33,.85-.1,.23-.33,.38-.59,.38Z"/>
        <path class="cls-51" d="M389.77,288.59l-10.76-4.72s-.07-.05-.06-.06l11.73-25.13,10.25,4.5-11.16,25.41Z"/>
        <path class="cls-43" d="M362.79,342.77c-.77,0-1.53-.16-2.24-.47h0l-2.27-1c-2.86-1.26-4.16-4.59-2.91-7.46,0-.01,.01-.03,.02-.04l27.36-59.42,12,5.27-26.86,59.79c-.58,1.36-1.69,2.42-3.07,2.95-.65,.25-1.34,.38-2.03,.38Zm20.92-65.86l-26.56,57.69c-.84,1.87-.01,4.06,1.85,4.91,.02,0,.03,.01,.05,.02l2.28,1c.88,.4,1.89,.42,2.79,.06,.9-.35,1.62-1.04,2-1.93l26.07-58-8.48-3.75Z"/>
        <rect class="cls-43" x="414.42" y="249.66" width="10.72" height="6.9" rx="3.37" ry="3.37" transform="translate(14.32 528.58) rotate(-65.28)"/>
        <path class="cls-48" d="M411.6,254.11l-19.48-8.55,7-6.86c1.02-1.01,2.55-1.29,3.87-.72l6.88,3c1.32,.58,2.15,1.89,2.1,3.33l-.37,9.8Z"/>
        <path class="cls-43" d="M412.51,255.56l-22.07-9.69,8-7.86c1.3-1.29,3.26-1.65,4.93-.91l6.89,3c1.68,.73,2.74,2.41,2.67,4.24l-.42,11.22Zm-18.7-10.31l16.87,7.41,.29-8.35c.05-1.04-.55-2-1.51-2.42l-6.89-3c-.95-.42-2.07-.22-2.81,.51l-5.95,5.85Z"/>
        <path class="cls-43" d="M408.62,255.52l-15.71-6.9,6.48-7.56c.81-1.13,2.26-1.58,3.57-1.12l5.25,2.31c1.23,.65,1.87,2.02,1.59,3.38l-1.18,9.89Zm-14.57-7.16l14,6.14,1.07-8.95c.24-1.05-.24-2.13-1.18-2.66l-5.25-2.31c-1.02-.34-2.15,.04-2.76,.93l-5.88,6.85Z"/>
        <rect class="cls-48" x="370.87" y="229.05" width="41.89" height="68.62" rx="9.04" ry="9.04" transform="translate(-6.86 516.2) rotate(-66.29)"/>
        <path class="cls-47" d="M428.16,266l-1.3,3c2.06-4.52,.06-9.86-4.47-11.92-.06-.03-.12-.05-.18-.08l-46.28-20.3c-4.54-2.02-9.86,.03-11.88,4.57-.01,.02-.02,.05-.03,.07l1.31-3c1.98-4.56,7.28-6.65,11.84-4.67,.04,.02,.08,.04,.12,.05l46.23,20.28c4.57,1.96,6.68,7.25,4.72,11.82-.03,.06-.05,.12-.08,.18Z"/>
        <path class="cls-8" d="M429.4,263.14l-.86,2c1.32-3,1-6.06-3.53-8.06l-51.57-22.65c-4.57-2-6.41,.11-7.74,3.12l.87-2c1.32-3,6.1-3.84,10.67-1.83l46.28,20.28c4.57,2,7.2,6.12,5.88,9.14Z"/>
        <polygon class="cls-56" points="367.04 274.95 365.29 274.15 381.9 236.49 383.65 237.3 367.04 274.95"/>
        <circle class="cls-56" cx="394.15" cy="267.4" r="12.58"/>
        <path class="cls-43" d="M410.29,294.12c-1.38,0-2.74-.29-4-.85l-46.27-20.27c-5.06-2.22-7.36-8.12-5.14-13.17h0s3.59-8.19,3.59-8.19c.23-.47,.78-.68,1.27-.49,.47,.23,.68,.78,.49,1.27l-3.59,8.18c-1.79,4.08,.07,8.85,4.15,10.64l46.28,20.32c4.08,1.79,8.85-.07,10.64-4.15l4.39-10c.08-.55,.59-.93,1.13-.85,.55,.08,.93,.59,.85,1.13-.03,.18-.1,.35-.22,.5l-4.39,10c-1.59,3.64-5.19,6-9.16,6l-.02-.07Z"/>
        <path class="cls-43" d="M424.78,274.62c-.13,0-.27-.03-.39-.08-.47-.23-.68-.78-.49-1.27l3.38-7.71c1.79-4.08-.07-8.85-4.15-10.64l-46.27-20.32c-4.09-1.79-8.85,.07-10.65,4.15l-4.43,10.09c-.23,.47-.78,.69-1.27,.5-.47-.23-.68-.78-.49-1.27l4.43-10.1c2.22-5.06,8.12-7.36,13.17-5.14h0s46.28,20.32,46.28,20.32c5.06,2.22,7.36,8.12,5.14,13.17h0s-3.39,7.73-3.39,7.73c-.16,.34-.5,.56-.88,.57Z"/>
        <path class="cls-43" d="M367.39,275.68c-.09,0-.18-.02-.26-.05-.32-.15-.46-.52-.33-.85l11-24.94c.13-.32,.5-.47,.82-.34,0,0,.01,0,.02,0,.32,.13,.47,.5,.34,.82,0,0,0,.01,0,.02l-11,25c-.12,.21-.34,.34-.58,.33Z"/>
        <path class="cls-43" d="M379.98,247.13c-.09,.02-.17,.02-.26,0-.32-.14-.47-.52-.32-.85h0s4.27-9.69,4.27-9.69c.14-.33,.52-.47,.85-.33,.33,.14,.47,.52,.33,.85h0l-4.28,9.69c-.12,.22-.35,.34-.59,.33Z"/>
        <circle class="cls-8" cx="420.52" cy="261.14" r="2.89"/>
        <path class="cls-43" d="M420.52,264.67c-.49,0-.97-.1-1.42-.3-1.79-.78-2.6-2.86-1.82-4.65,.78-1.79,2.86-2.6,4.65-1.82,1.79,.78,2.6,2.86,1.82,4.65h0c-.56,1.28-1.83,2.11-3.23,2.11h0Zm0-5.77c-.89,0-1.7,.52-2.06,1.34-.5,1.14,.02,2.47,1.15,2.96s2.47-.02,2.96-1.15h0c.52-1.12,.03-2.45-1.1-2.97-.02,0-.04-.02-.06-.03-.29-.11-.59-.16-.9-.15Z"/>
        <path class="cls-43" d="M407.03,288.92c1.59,.63,3.31,.84,5,.59,.3-.07,.17-.53-.13-.47-1.62,.24-3.27,.04-4.78-.58-.29-.1-.42,.36-.13,.46h.04Z"/>
        <path class="cls-43" d="M410.12,288.48c1.12,.11,2.26,.07,3.37-.14,.3-.06,.17-.53-.13-.46-1.07,.19-2.16,.24-3.24,.12-.31,0-.31,.47,0,.48Z"/>
        <path class="cls-43" d="M395.07,248.44c-1.72-.16-3.44,.15-5,.89-.27,.15,0,.56,.25,.41,1.48-.7,3.11-.98,4.74-.82,.31,0,.31-.47,0-.48h.01Z"/>
        <path class="cls-43" d="M392.29,249.75c-1.11,.21-2.18,.58-3.19,1.1-.27,.15,0,.57,.25,.42,.96-.5,1.99-.86,3.06-1.06,.12-.05,.18-.19,.13-.31-.04-.1-.14-.16-.25-.15Z"/>
        <path class="cls-43" d="M358.11,263c-.27,2.58,.69,5.14,2.59,6.91,.23,.21,.57-.13,.34-.34-1.81-1.68-2.72-4.12-2.45-6.57,0-.31-.45-.31-.48,0h0Z"/>
        <path class="cls-43" d="M359.83,266.84c.23,.44,.5,.88,.78,1.29,.33,.43,.76,.78,1.25,1,.28,.13,.53-.29,.25-.42-.47-.2-.89-.52-1.19-.93-.24-.37-.47-.75-.67-1.14-.16-.26-.58,0-.42,.24v-.04Z"/>
        <ellipse class="cls-8" cx="376.33" cy="235.84" rx=".95" ry="2.35" transform="translate(9.07 485.57) rotate(-66.29)"/>
        <circle class="cls-8" cx="377.61" cy="238.49" r=".43"/>
        <circle class="cls-8" cx="374.45" cy="238.02" r=".4"/>
        <circle class="cls-8" cx="374.81" cy="236.2" r=".7"/>
        <circle class="cls-40" cx="395.45" cy="264.44" r="12.58"/>
        <polygon class="cls-8" points="393.51 277.33 390.39 275.96 404.72 256.7 406.92 259.29 393.51 277.33"/>
        <polygon class="cls-10" points="389.39 275.52 387.91 275.28 403.46 254.84 404.35 255.39 389.39 275.52"/>
        <polygon class="cls-10" points="387.51 274.26 386.02 274.03 401.57 253.59 402.47 254.14 387.51 274.26"/>
        <path class="cls-41" d="M395.47,276.46c-.64,0-1.27-.05-1.9-.15-6.54-1.05-11-7.2-9.96-13.74s7.2-11,13.74-9.96c6.53,1.04,10.98,7.17,9.96,13.7h0c-.91,5.84-5.94,10.15-11.85,10.15Zm0-22.34c-5.7,0-10.31,4.64-10.3,10.34,0,5.7,4.64,10.31,10.34,10.3,5.07,0,9.39-3.7,10.18-8.71h0c.89-5.63-2.95-10.92-8.58-11.81,0,0,0,0,0,0-.55-.08-1.11-.12-1.67-.12h.04Z"/>
        <path class="cls-8" d="M386.56,263.63h0c-.17-.03-.29-.19-.27-.36,.44-2.59,1.82-4.93,3.88-6.57,2.32-1.59,5.2-2.15,7.95-1.54,.17,.02,.29,.17,.27,.34,0,0,0,.01,0,.02-.03,.17-.19,.29-.37,.27-2.58-.57-5.28-.05-7.47,1.42-1.91,1.55-3.19,3.73-3.63,6.15-.02,.17-.17,.29-.34,.27,0,0-.01,0-.02,0Z"/>
        <path class="cls-43" d="M395.48,278.1c-.72,0-1.45-.06-2.16-.17-7.41-1.18-12.45-8.15-11.27-15.55s8.15-12.45,15.55-11.27c7.41,1.18,12.45,8.15,11.27,15.55-1.05,6.58-6.73,11.43-13.39,11.44Zm-.06-25.39c-6.48,0-11.73,5.27-11.73,11.75,0,6.48,5.27,11.73,11.75,11.73,5.78,0,10.69-4.21,11.59-9.92h0c1.01-6.39-3.35-12.4-9.74-13.42-.62-.09-1.24-.14-1.87-.14Z"/>
        <path class="cls-22" d="M99.34,316.66c-6-.27-11.3-4.39-12.36-10.16-1.21-6.65,3.61-13,10.78-14.09,20.4-3.21,49.69-21.3,63.45-44.09,6.59-10.93,11.66-22.7,15.08-35,1.6-6.58,8.66-10.71,15.75-9.22s11.56,8,9.95,14.6c-3.98,14.61-9.97,28.59-17.79,41.55-17.59,29.14-53.79,51.8-82,56.24-.95,.15-1.9,.21-2.86,.17Z"/>
        <path class="cls-57" d="M200.97,218c-3.98,14.61-9.96,28.59-17.78,41.55-17.6,29.13-53.8,51.79-82,56.24-.96,.18-1.93,.25-2.9,.21-4.41-.14-8.46-2.45-10.83-6.17,1.58,.7,3.28,1.09,5,1.16,.95,.04,1.9-.01,2.84-.16,28.26-4.44,71.12-28.78,88.71-57.92,12.71-21,10.92-39,11.11-39.87,.72-2.98,.21-6.13-1.41-8.74,5.51,2.37,8.64,8.03,7.26,13.7Z"/>
        <path class="cls-43" d="M99.93,317.64h-.64c-6.65-.3-12.29-5-13.41-11.08-.62-3.36,.16-6.83,2.16-9.61,2.28-3.13,5.72-5.22,9.55-5.79,19.32-3,48.77-20.57,62.66-43.57,6.55-10.84,11.6-22.52,15-34.72,1.73-7.12,9.39-11.64,17.07-10,3.79,.77,7.11,3.03,9.21,6.27,1.84,2.88,2.42,6.38,1.6,9.7-4.01,14.72-10.04,28.81-17.92,41.87-16.64,27.55-52.24,52-82.81,56.77-.82,.12-1.64,.17-2.47,.16Zm-.55-2.26c.88,.03,1.75-.02,2.62-.16,30-4.72,64.91-28.67,81.24-55.7,7.77-12.88,13.71-26.76,17.67-41.27,.66-2.72,.18-5.59-1.33-7.94-1.77-2.73-4.57-4.63-7.76-5.26-6.5-1.36-13,2.39-14.43,8.38-3.44,12.41-8.56,24.29-15.21,35.32-14.23,23.55-44.42,41.5-64.24,44.62-3.23,.48-6.13,2.24-8.06,4.88-1.64,2.28-2.29,5.13-1.79,7.9,.94,5.09,5.68,8.98,11.29,9.23Z"/>
        <ellipse class="cls-7" cx="89.98" cy="307.97" rx="15.23" ry="14.11"/>
        <path class="cls-5" d="M91.7,321.64c-.62,0-1.12-.52-1.12-1.14,0-.54,.39-1,.92-1.1,1.85-.39,3.61-1.11,5.2-2.13,3.2-1.88,5.21-5.28,5.31-9-.02-.62,.46-1.15,1.09-1.17,.62-.02,1.15,.46,1.17,1.09,0,.06,0,.13,0,.19-.49,11.05-12.25,13.24-12.37,13.26h-.19Z"/>
        <path class="cls-43" d="M89.99,322.92c-4.53,.05-8.89-1.75-12.06-5-2.79-2.86-4.24-6.76-4-10.75,.28-4.08,2.26-7.85,5.46-10.39,.36-.3,.89-.24,1.18,.11,.3,.36,.24,.89-.11,1.18h0c-2.84,2.25-4.6,5.59-4.85,9.2-.21,3.51,1.07,6.96,3.52,9.48,5.48,5.53,14.25,6.05,20.35,1.21,2.83-2.24,4.59-5.56,4.84-9.16,.22-3.52-1.06-6.98-3.52-9.51-.36-.3-.41-.84-.1-1.2,.3-.36,.84-.41,1.2-.1,.05,.04,.09,.08,.13,.13,2.79,2.87,4.25,6.79,4,10.79-.28,4.07-2.27,7.83-5.47,10.36-3,2.39-6.73,3.67-10.56,3.64Z"/>
        <path class="cls-22" d="M365.01,316.66c6-.27,11.3-4.39,12.36-10.16,1.21-6.65-3.61-13-10.79-14.09-20.39-3.21-49.68-21.3-63.45-44.09-6.59-10.93-11.66-22.7-15.07-35-1.61-6.58-8.66-10.71-15.76-9.22s-11.56,8-9.95,14.6c3.98,14.61,9.97,28.59,17.8,41.55,17.59,29.14,53.79,51.8,82,56.24,.95,.15,1.9,.21,2.86,.17Z"/>
        <path class="cls-57" d="M263.38,218c3.98,14.61,9.96,28.59,17.78,41.55,17.6,29.13,53.8,51.79,82,56.24,.94,.16,1.89,.21,2.84,.16,4.41-.14,8.46-2.45,10.83-6.17-1.58,.7-3.28,1.09-5,1.16-.95,.04-1.9-.01-2.84-.16-28.21-4.43-71.11-28.78-88.7-57.91-12.7-21-10.92-39-11.1-39.87-.73-2.98-.23-6.13,1.39-8.74-5.46,2.41-8.59,8.07-7.2,13.74Z"/>
        <path class="cls-43" d="M364.41,317.64c-.81,0-1.63-.06-2.43-.19-30.57-4.81-66.17-29.22-82.81-56.77-7.86-13.06-13.87-27.14-17.88-41.84-.82-3.33-.24-6.84,1.6-9.73,2.1-3.24,5.42-5.5,9.21-6.27,7.67-1.61,15.34,2.9,17.08,10,3.39,12.19,8.42,23.86,14.95,34.69,13.89,23,43.34,40.52,62.66,43.57,3.83,.57,7.27,2.66,9.55,5.79,2,2.78,2.78,6.25,2.16,9.61-1.12,6.12-6.76,10.78-13.41,11.08h-.64l-.04,.06Zm-89.2-112.87c-.9,0-1.81,.09-2.69,.28-3.19,.63-5.99,2.53-7.76,5.26-1.52,2.37-2,5.27-1.32,8,3.96,14.5,9.9,28.37,17.66,41.24,16.33,27,51.25,51,81.23,55.7,.87,.14,1.75,.19,2.63,.16,5.6-.25,10.35-4.14,11.29-9.23,.5-2.77-.15-5.62-1.79-7.9-1.93-2.64-4.83-4.4-8.06-4.88-19.82-3.12-50-21.07-64.24-44.62-6.64-11.02-11.76-22.89-15.2-35.29-1.26-5.21-6.24-8.72-11.75-8.72Z"/>
        <ellipse class="cls-7" cx="374.36" cy="307.97" rx="15.23" ry="14.11"/>
        <path class="cls-5" d="M372.65,321.64h-.2c-.12,0-11.87-2.21-12.36-13.26-.03-.62,.45-1.15,1.07-1.18,.61-.04,1.14,.43,1.18,1.04,0,.01,0,.03,0,.04,.09,3.71,2.1,7.12,5.3,9,1.6,1.01,3.36,1.73,5.2,2.13,.61,.12,1.02,.7,.92,1.31-.1,.53-.57,.92-1.11,.92Z"/>
        <path class="cls-43" d="M374.36,322.92c-3.84,.02-7.58-1.28-10.58-3.68-3.21-2.52-5.2-6.29-5.49-10.36-.25-4,1.21-7.92,4-10.79,.34-.32,.88-.31,1.2,.03,.3,.32,.31,.81,.03,1.14-2.46,2.53-3.74,5.99-3.53,9.51,.25,3.6,2.01,6.93,4.85,9.16,6.09,4.85,14.86,4.33,20.34-1.21,2.47-2.53,3.75-5.98,3.53-9.51-.25-3.6-2.01-6.93-4.85-9.16-.39-.26-.5-.79-.24-1.18,.26-.39,.79-.5,1.18-.24,.04,.03,.08,.06,.12,.1,3.2,2.53,5.19,6.3,5.48,10.37,.24,4-1.21,7.91-4,10.78-3.16,3.25-7.51,5.07-12.04,5.04Z"/>
        <path class="cls-43" d="M401.95,593H243.08c-.89,.07-1.66-.59-1.73-1.48-.07-.89,.59-1.66,1.48-1.73,.08,0,.17,0,.25,0h158.87c.89,.07,1.55,.85,1.48,1.73-.06,.79-.69,1.42-1.48,1.48Z"/>
        <path class="cls-43" d="M209.07,593H50.2c-.89-.07-1.55-.85-1.48-1.73,.06-.79,.69-1.42,1.48-1.48H209.07c.89-.07,1.66,.59,1.73,1.48,.07,.89-.59,1.66-1.48,1.73-.08,0-.17,0-.25,0Z"/>
        <path class="cls-1" d="M187.64,539.18h27.19c0-43.62,10-148.2,10.11-149.07l-27-3.14c-.42,3.61-10.3,107.03-10.3,152.21Z"/>
        <path class="cls-58" d="M222.59,407.22h-25.41s-8.39-17.47,25.64-10.66l-.23,10.66Z"/>
        <path class="cls-1" d="M275.96,539.18h-27.15c0-43.62-10-148.2-10.12-149.07l27-3.14c.42,3.61,10.27,107.03,10.27,152.21Z"/>
        <path class="cls-58" d="M275.57,514.4c-3-8.2-5.23-42.44-6.86-51-2.79-14.48-4.72-29.12-5.78-43.83-.11-2.89-.65-5.75-1.6-8.49-.52-1.58-1.61-2.9-3.05-3.72-1.83-.87-4-.33-6-.07-4.01,.54-8.1,0-11.83-1.59-.8-7.42-1.32-12-1.34-12.16l27-3.14c.37,2.93,7.02,78.39,9.46,124Z"/>
        <path class="cls-43" d="M275.96,540.47h-27.15c-.71,0-1.29-.58-1.29-1.29,0-43.26-10-148-10.11-148.92-.08-.71,.43-1.34,1.13-1.43l27-3.14c.7-.08,1.34,.42,1.43,1.12,.5,4.27,10.32,107.09,10.32,152.37,0,.71-.58,1.29-1.29,1.29-.01,0-.03,0-.04,0Zm-25.87-2.57h24.59c-.17-43.6-8.87-137-10.16-149.51l-24.43,2.85c1.2,11.99,9.82,104.76,10,146.66Z"/>
        <path class="cls-43" d="M214.82,540.47h-27.18c-.71,0-1.28-.57-1.28-1.28,0,0,0,0,0-.01,0-45.36,9.78-147.85,10.33-152.37,.09-.7,.72-1.2,1.42-1.12l27,3.14c.7,.08,1.21,.72,1.13,1.42-.1,.93-10.11,105.39-10.11,148.93,0,.71-.58,1.29-1.29,1.29,0,0-.01,0-.02,0Zm-25.89-2.57h24.61c.18-41.6,8.86-134.69,10-146.66l-24.44-2.85c-1.28,12.61-9.99,106.71-10.17,149.51h0Z"/>
        <path class="cls-20" d="M196.64,563.65h6.65c11.06,.05,19.99,9.03,20,20.09v.52c-.03,3.82-3.13,6.91-6.95,6.94h-32.86c-3.82-.03-6.92-3.12-6.95-6.94v-.52c0-11.09,9-20.08,20.09-20.09h.02Z"/>
        <rect class="cls-7" x="193.6" y="541.68" width="16.31" height="22.59"/>
        <rect class="cls-28" x="193.6" y="541.68" width="16.31" height="12.33"/>
        <path class="cls-43" d="M209.92,565.43h-16.32c-.55,0-1-.45-1-1v-22.55c0-.55,.45-1,1-1h16.32c.55,0,1,.45,1,1v22.59c-.02,.54-.46,.96-1,.96Zm-15.35-1.92h14.38v-20.67h-14.38v20.67Z"/>
        <rect class="cls-59" x="180.99" y="526.86" width="40.8" height="21.43" rx="10.45" ry="10.45"/>
        <path class="cls-33" d="M221.63,538.07v.53c0,.73-.08,1.46-.23,2.17-1.01-4.84-5.28-8.31-10.22-8.31h-19.89c-4.94,0-9.2,3.47-10.23,8.3-.15-.71-.22-1.44-.22-2.17v-.54c0-5.77,4.68-10.45,10.45-10.45h19.91c5.77,0,10.45,4.68,10.45,10.45h0l-.02,.02Z"/>
        <path class="cls-43" d="M211.29,549.27h-19.9c-6.3,0-11.4-5.11-11.41-11.41v-.53c0-6.3,5.11-11.41,11.41-11.42h19.9c6.3,.01,11.4,5.12,11.41,11.42v.53c0,6.3-5.11,11.4-11.41,11.41Zm-19.9-21.43c-5.23,.01-9.47,4.26-9.48,9.49v.53c0,5.23,4.25,9.48,9.48,9.49h19.9c5.24,0,9.48-4.25,9.49-9.49v-.53c0-5.24-4.25-9.48-9.49-9.49h-19.9Z"/>
        <path class="cls-43" d="M194.58,541.55h-12.12c-.35,0-.64-.29-.64-.64h0c0-.35,.29-.64,.64-.64h12.12c.35,0,.64,.29,.64,.64s-.29,.64-.64,.64Z"/>
        <path class="cls-43" d="M220.29,534.33h-5.68c-.35,0-.64-.29-.64-.64h0c0-.35,.29-.64,.64-.64h5.68c.35,0,.64,.29,.64,.64h0c0,.35-.29,.64-.64,.64h0Z"/>
        <rect class="cls-31" x="176.7" y="583.19" width="45.87" height="1.28"/>
        <path class="cls-21" d="M209.6,578.15c-8.39-5.52-18.91-6.69-28.31-3.15h-.1c-3.85,0-5.4,13.07-5.4,9.24v-.52c.01-11.09,9-20.08,20.09-20.09h6.6c11.09,0,20.08,9,20.09,20.09l-1-5.37c-.03,1.94-5.5,4.05-11.97-.2Z"/>
        <path class="cls-43" d="M216.29,591.88h-32.9c-4.37-.01-7.9-3.55-7.9-7.92v-.52c.01-11.62,9.43-21.04,21.05-21.05h6.59c11.6,.04,20.99,9.45,21,21.05v.56c-.02,4.33-3.51,7.84-7.84,7.88Zm-19.87-27.56c-10.51,.08-18.98,8.61-19,19.12v.56c0,3.31,2.69,6,6,6h32.88c3.31,0,6-2.69,6-6v-.51c-.01-10.56-8.57-19.12-19.13-19.13h-6.71l-.04-.04Z"/>
        <path class="cls-43" d="M222.55,582.83h-33c-.35,0-.64-.29-.64-.64s.29-.64,.64-.64h33c.35,0,.64,.29,.64,.64s-.29,.64-.64,.64Z"/>
        <path class="cls-43" d="M185.16,582.83h-7.59c-.35,0-.64-.29-.64-.64s.29-.64,.64-.64h7.59c.35,0,.64,.29,.64,.64s-.29,.64-.64,.64Z"/>
        <circle class="cls-43" cx="200.01" cy="540.84" r="2.36"/>
        <rect class="cls-7" x="255.84" y="541.22" width="16.31" height="22.59"/>
        <rect class="cls-28" x="255.84" y="541.22" width="16.31" height="12.33"/>
        <path class="cls-43" d="M272.15,565h-16.31c-.55,0-1-.45-1-1v-22.58c0-.55,.45-1,1-1h16.31c.55,0,1,.45,1,1v22.58c0,.55-.45,1-1,1h0Zm-15.35-1.93h14.39v-20.68h-14.39v20.68Z"/>
        <rect class="cls-59" x="242.15" y="528.47" width="40.8" height="21.43" rx="10.45" ry="10.45"/>
        <path class="cls-33" d="M282.78,539.39v.54c0,.73-.07,1.46-.22,2.17-1.02-4.85-5.31-8.32-10.27-8.29h-19.87c-4.93,0-9.18,3.46-10.2,8.29-.15-.71-.23-1.44-.23-2.17v-.54c0-5.77,4.68-10.44,10.45-10.45h19.91c5.76,0,10.43,4.67,10.43,10.43,0,0,0,.01,0,.02Z"/>
        <path class="cls-43" d="M272.41,550.6h-19.9c-6.3,0-11.41-5.11-11.42-11.41v-.53c0-6.3,5.12-11.41,11.42-11.42h19.9c6.3,.01,11.4,5.12,11.41,11.42v.53c0,6.3-5.11,11.4-11.41,11.41Zm-19.9-21.43c-5.24,0-9.48,4.25-9.49,9.49v.53c0,5.24,4.25,9.48,9.49,9.49h19.9c5.23-.01,9.47-4.26,9.48-9.49v-.53c0-5.23-4.25-9.48-9.48-9.49h-19.9Z"/>
        <path class="cls-43" d="M255.74,542.88h-12.12c-.35,0-.64-.29-.64-.64s.29-.64,.64-.64h12.12c.35,0,.64,.29,.64,.64h0c0,.35-.29,.64-.64,.64h0Z"/>
        <path class="cls-43" d="M281.47,535.66h-5.68c-.35,0-.64-.29-.64-.64h0c0-.35,.29-.64,.64-.64h5.68c.35,0,.64,.29,.64,.64h0c0,.35-.29,.64-.64,.64h0Z"/>
        <path class="cls-20" d="M261,563.2h6.61c11.09,0,20.08,8.98,20.09,20.07v.02h0v.51c.03,3.83-3.05,6.97-6.88,7-.02,0-.04,0-.06,0h-32.91c-3.84-.03-6.94-3.16-6.94-7v-.51c0-11.09,8.98-20.08,20.07-20.09h.02Z"/>
        <path class="cls-21" d="M274.73,577.69c-8.39-5.52-18.91-6.69-28.31-3.16h-.13c-3.85,0-5.4,13.07-5.4,9.24v-.51c0-11.1,8.99-20.09,20.09-20.09h6.59c11.09,0,20.08,8.98,20.09,20.07v.02h0l-1-5.38c.02,1.95-5.46,4.04-11.93-.19Z"/>
        <path class="cls-43" d="M286.9,582.38h-7.61c-.36-.04-.61-.37-.56-.73,.04-.3,.27-.53,.56-.56h7.58c.36,.04,.61,.37,.56,.73-.04,.3-.27,.53-.56,.56h.03Z"/>
        <path class="cls-43" d="M274.92,582.38h-25.8c-.36,.04-.68-.21-.73-.56-.04-.36,.21-.68,.56-.73,.05,0,.11,0,.16,0h25.8c.36,.04,.61,.37,.56,.73-.04,.3-.27,.53-.56,.56Z"/>
        <rect class="cls-31" x="240.83" y="582.74" width="45.87" height="1.28"/>
        <circle class="cls-43" cx="274.46" cy="544.94" r="1.53"/>
        <path class="cls-43" d="M280.58,591.41h-32.88c-4.36,0-7.9-3.54-7.9-7.9h0v-.51c.04-11.58,9.42-20.96,21-21h6.6c11.6,.02,21.01,9.4,21.05,21v.52c-.01,4.35-3.52,7.87-7.87,7.89Zm-19.74-27.54c-10.56,.02-19.11,8.57-19.12,19.13v.52c0,3.31,2.69,6,6,6h32.88c3.31,0,6-2.69,6-6v-.52c-.02-10.55-8.57-19.1-19.12-19.12h-6.64Z"/>
        <path class="cls-43" d="M276.93,555.28h-7.79c-.36,.04-.68-.21-.73-.56-.04-.36,.21-.68,.56-.73,.05,0,.11,0,.16,0h7.79c.36,.04,.61,.37,.56,.73-.04,.3-.27,.53-.56,.56Z"/>
        <path class="cls-43" d="M275.13,559.16h-6c-.36,.04-.68-.21-.73-.56-.04-.36,.21-.68,.56-.73,.05,0,.11,0,.16,0h6c.36,.04,.61,.37,.56,.73-.04,.3-.27,.53-.56,.56Z"/>
        <path class="cls-59" d="M180.91,302.11h91.78v74.89c.02,11.3-9.1,20.48-20.4,20.52h-51c-11.29-.05-20.41-9.23-20.38-20.52v-74.89Z"/>
        <path class="cls-33" d="M180.21,303.5h99.61v74.09c0,11.77-9.55,21.31-21.32,21.31h-57c-11.77,0-21.31-9.54-21.32-21.31h0v-74.09h.03Z"/>
        <path class="cls-1" d="M185.4,303.5h95.52v74.5c0,11.53-9.33,20.87-20.86,20.88h-53.77c-11.53,0-20.87-9.35-20.86-20.88h0v-74.5h-.03Z"/>
        <path class="cls-58" d="M233.16,387.46c-5.56,1.25-11.07-2.24-12.32-7.8-.16-.72-.25-1.46-.25-2.2v-24.6h4.56v24.57c0,4.79,3.33,8.94,8,10v.03Z"/>
        <path class="cls-43" d="M259.6,400.19h-57c-12.48-.02-22.59-10.13-22.6-22.61v-73.95s0-.09,0-.13c0-.71,.57-1.28,1.28-1.29h99.62c.71,0,1.29,.58,1.29,1.29h0v74.08c-.01,12.47-10.12,22.59-22.59,22.61Zm-77-95.41v72.8c.03,11.03,8.97,19.97,20,20h57c11.03-.03,19.97-8.97,20-20v-72.8h-97Z"/>
        <path class="cls-43" d="M230.63,388.32c-6.02,0-10.92-4.87-10.94-10.89v-24.59c0-.35,.29-.64,.64-.64h0c.35,0,.64,.29,.64,.64h0v24.56c0,5.32,4.31,9.63,9.63,9.63h0c5.33,.02,9.67-4.28,9.69-9.61,0,0,0-.01,0-.02v-4.86c-.04-.36,.21-.68,.56-.73,.36-.04,.68,.21,.73,.56,0,.05,0,.11,0,.16v4.86c0,6.03-4.89,10.91-10.92,10.92h-.03Z"/>
        <path class="cls-43" d="M240.95,365.69c-.36,0-.64-.28-.65-.64v-12.21c.04-.36,.37-.61,.73-.56,.3,.04,.53,.27,.56,.56v12.21c0,.35-.29,.64-.64,.64h0Z"/>
        <path class="cls-43" d="M226.86,365.28h-12.12c-.53,.14-1.08-.17-1.23-.7-.14-.53,.17-1.08,.7-1.23,.17-.05,.35-.05,.52,0h12.12c.53,.14,.85,.69,.7,1.23-.09,.34-.36,.61-.7,.7h0Z"/>
        <path class="cls-43" d="M226.86,370.24h-12.12c-.53,.14-1.08-.17-1.23-.7-.14-.53,.17-1.08,.7-1.23,.17-.05,.35-.05,.52,0h12.12c.53,.14,.85,.69,.7,1.23-.09,.34-.36,.61-.7,.7h0Z"/>
        <ellipse class="cls-8" cx="192.93" cy="373.67" rx="1.45" ry="2.19"/>
        <circle class="cls-8" cx="192.51" cy="379.12" r="1.03"/>
        <ellipse class="cls-43" cx="269.85" cy="393.39" rx="2.28" ry="2.19"/>
        <circle class="cls-43" cx="270.55" cy="387.34" r="1.23"/>
        <circle class="cls-43" cx="273.62" cy="382.35" r="1.14"/>
        <circle class="cls-43" cx="231.02" cy="382.38" r=".76"/>
        <circle class="cls-43" cx="229.56" cy="377.88" r="1.05"/>
        <path class="cls-43" d="M281.78,371.32c-9.04,0-16.37-7.34-16.38-16.38v-2.24c.15-.53,.71-.83,1.24-.68,.33,.1,.58,.35,.68,.68v2.24c.01,7.98,6.48,14.45,14.46,14.46,.53-.15,1.09,.15,1.24,.68,.15,.53-.15,1.09-.68,1.24-.18,.05-.38,.05-.56,0Z"/>
        <path class="cls-43" d="M181.21,371.32c-.53,.15-1.09-.15-1.24-.68-.15-.53,.15-1.09,.68-1.24,.18-.05,.38-.05,.56,0,7.98-.01,14.44-6.48,14.45-14.46v-2.24c.14-.53,.69-.85,1.23-.7,.34,.09,.61,.36,.7,.7v2.24c0,9.04-7.34,16.37-16.38,16.38Z"/>
        <path class="cls-44" d="M196.66,457.52h-.08c-.35-.04-.6-.35-.56-.69,0,0,0-.01,0-.02,0-.08,.91-8.13,1.81-18.35,.03-.35,.33-.61,.68-.58,0,0,0,0,.01,0,.35,.03,.62,.33,.59,.69,0,0,0,0,0,0-.9,10.23-1.82,18.3-1.82,18.43-.06,.3-.32,.52-.63,.52Z"/>
        <path class="cls-44" d="M199.75,455.26h-.07c-.35-.03-.6-.34-.57-.68,0,0,0-.01,0-.02,.2-2.12,.51-5.35,.82-8.91,.04-.35,.35-.61,.7-.58,.35,.03,.61,.34,.58,.69-.31,3.57-.62,6.8-.83,8.93-.04,.32-.31,.57-.63,.57Z"/>
        <path class="cls-44" d="M205.87,516.86c.23-1.45,.66-2.87,1.28-4.2,.26-.56-.57-1-.83-.48-.65,1.41-1.11,2.9-1.37,4.43-.09,.64,.83,.86,.93,.25h0Z"/>
        <path class="cls-44" d="M207.61,518.62c.11-.91,.3-1.8,.57-2.67,.07-.26-.08-.52-.33-.6-.26-.07-.52,.08-.6,.34h0c-.29,.96-.49,1.94-.6,2.93-.07,.64,.89,.61,1,0h-.04Z"/>
        <path class="cls-44" d="M267.37,492.64l-.91-1.7c-.29-.54-1.13-.06-.83,.48l.91,1.71c.29,.55,1.13,.06,.83-.49Z"/>
        <path class="cls-44" d="M265.97,488.65l1.1,1.71c.33,.52,1.17,0,.83-.48l-1.1-1.73c-.34-.52-1.17,0-.83,.48v.02Z"/>
        <path class="cls-44" d="M248.72,462.28c1.48-8.33,2.72-16.7,3.73-25.09,.07-.61-.89-.61-1,0-1,8.32-2.23,16.6-3.7,24.84-.07,.6,.86,.86,.97,.25Z"/>
        <path class="cls-44" d="M252.89,451.74c1.4-6.59,2.62-13.21,3.66-19.86,.1-.61-.82-.87-.92-.26-1.05,6.67-2.28,13.29-3.67,19.87-.13,.61,.8,.86,.93,.25Z"/>
        <path class="cls-44" d="M246.29,488.79c-.45,.29-.99,.4-1.51,.3-.61-.12-.87,.8-.26,.93,.78,.16,1.59,.02,2.26-.4,.53-.32,0-1.16-.49-.83Z"/>
        <path class="cls-44" d="M247.29,489.19c-1.05-.55-1.93-1.36-2.57-2.35-.33-.52-1.17,0-.83,.48,.72,1.13,1.72,2.05,2.9,2.68,.55,.29,1-.54,.49-.84v.03Z"/>
        <path class="cls-44" d="M268.6,408.23c1.03-.38,1.99-.94,2.83-1.65,.47-.41-.21-1.09-.68-.68-.72,.6-1.53,1.08-2.41,1.4-.58,.22-.33,1.15,.26,.93Z"/>
        <path class="cls-44" d="M268.04,408.5l1.87,1.29c.51,.36,1-.48,.49-.83l-1.88-1.28c-.51-.36-.99,.47-.48,.82Z"/>
        <path class="cls-44" d="M248.99,527.92l-1.52-2c-.37-.48-1.21,0-.84,.49l1.52,2c.37,.49,1.21,0,.84-.49Z"/>
        <path class="cls-44" d="M249.63,528.65c-1.17-.82-2.5-1.39-3.9-1.67-.61-.12-.87,.8-.26,.93,1.32,.26,2.57,.8,3.68,1.57,.51,.36,1-.48,.48-.83Z"/>
        <path class="cls-44" d="M256.79,562.18l-.19-.19c-.19-.18-.49-.18-.68,0-.17,.19-.17,.47,0,.66l.18,.19c.19,.19,.5,.19,.69,0,.19-.19,.19-.49,0-.68,0,0,0,0,0,0v.02Z"/>
        <path class="cls-44" d="M192.87,388.2l1.68,1.88c.41,.47,1.09-.22,.68-.68l-1.68-1.89c-.41-.46-1.1,.22-.68,.69Z"/>
        <path class="cls-44" d="M194.86,387.87l3,2.09c.51,.36,1-.48,.48-.83l-3-2.08c-.5-.36-1,.47-.48,.82h0Z"/>
        <path class="cls-44" d="M190.93,335.84l2.26-2.25c.43-.44-.25-1.13-.68-.68l-2.22,2.25c-.48,.43,.21,1.12,.64,.68Z"/>
        <path class="cls-44" d="M193.45,336.64l4.16-2.64c.52-.33,0-1.16-.49-.83l-4.13,2.62c-.52,.33,0,1.16,.49,.83l-.03,.02Z"/>
        <g class="cls-61">
          <path class="cls-42" d="M159.85,468.75h-.18c-.53,.15-1.09-.15-1.24-.68-.15-.53,.15-1.09,.68-1.24,.18-.05,.38-.05,.56,0h.18c.53,.15,.83,.71,.68,1.24-.1,.33-.35,.58-.68,.68Z"/>
          <path class="cls-42" d="M166.85,468.75h-3.86c-.53,.15-1.09-.15-1.24-.68-.15-.53,.15-1.09,.68-1.24,.18-.05,.38-.05,.56,0h1.93v-9.68h-30v9.68h17.46c.53,.15,.83,.71,.68,1.24-.1,.33-.35,.58-.68,.68h-19.42v-13.52h33.89v13.52Z"/>
          <path class="cls-42" d="M157.04,468.75h-1.68c-.53,.15-1.09-.15-1.24-.68-.15-.53,.15-1.09,.68-1.24,.18-.05,.38-.05,.56,0h1.71c.53,.15,.83,.71,.68,1.24-.1,.33-.35,.58-.68,.68h-.03Z"/>
          <path class="cls-42" d="M140.99,492h-8v-13.58h23.85c.53-.14,1.08,.17,1.23,.7,.14,.53-.17,1.08-.7,1.23-.17,.05-.35,.05-.52,0h-21.95v9.65h6.1c.53,.14,.85,.69,.7,1.23-.09,.34-.36,.61-.7,.7v.07Z"/>
          <path class="cls-42" d="M147.29,492h-3.5c-.53-.14-.85-.69-.7-1.23,.09-.34,.36-.61,.7-.7h3.5c.53,.14,.85,.69,.7,1.23-.09,.34-.36,.61-.7,.7Z"/>
          <path class="cls-42" d="M149.92,492h-.07c-.53-.14-.85-.69-.7-1.23,.09-.34,.36-.61,.7-.7h.07c.53-.14,1.08,.17,1.23,.7,.14,.53-.17,1.08-.7,1.23-.17,.05-.35,.05-.52,0Z"/>
          <path class="cls-42" d="M166.85,492h-14.19c-.53-.14-.85-.69-.7-1.23,.09-.34,.36-.61,.7-.7h12.26v-9.67h-4.25c-.53,.14-1.08-.17-1.23-.7-.14-.53,.17-1.08,.7-1.23,.17-.05,.35-.05,.52,0h6.21l-.03,13.53Z"/>
          <path class="cls-42" d="M150.61,480.35h-33.89v-13.49h33.89v13.49Zm-32-1.93h30v-9.64h-30v9.64Z"/>
        </g>
        <g class="cls-61">
          <path class="cls-42" d="M350.66,127.66h-.18c-.53,.14-1.08-.17-1.23-.7-.14-.53,.17-1.08,.7-1.23,.17-.05,.35-.05,.52,0h.18c.53-.14,1.08,.17,1.23,.7,.14,.53-.17,1.08-.7,1.23-.17,.05-.35,.05-.52,0Z"/>
          <path class="cls-42" d="M357.66,127.66h-3.86c-.53-.14-.85-.69-.7-1.23,.09-.34,.36-.61,.7-.7h1.93v-9.67h-30v9.67h17.46c.53,.14,.85,.69,.7,1.23-.09,.34-.36,.61-.7,.7h-19.42v-13.53h33.89v13.53Z"/>
          <path class="cls-42" d="M347.85,127.66h-1.68c-.53,.14-1.08-.17-1.23-.7-.14-.53,.17-1.08,.7-1.23,.17-.05,.35-.05,.52,0h1.71c.53,.14,.85,.69,.7,1.23-.09,.34-.36,.61-.7,.7h-.03Z"/>
          <path class="cls-42" d="M331.8,150.85h-8v-13.53h23.85c.53-.14,1.08,.17,1.23,.7,.14,.53-.17,1.08-.7,1.23-.17,.05-.35,.05-.52,0h-21.95v9.67h6.1c.53,.14,.85,.69,.7,1.23-.09,.34-.36,.61-.7,.7h0Z"/>
          <path class="cls-42" d="M338.09,150.85h-3.49c-.53-.14-.85-.69-.7-1.23,.09-.34,.36-.61,.7-.7h3.48c.53,.14,.85,.69,.7,1.23-.09,.34-.36,.61-.7,.7h0Z"/>
          <path class="cls-42" d="M340.73,150.85h-.07c-.53-.14-.85-.69-.7-1.23,.09-.34,.36-.61,.7-.7h.07c.53-.14,1.08,.17,1.23,.7,.14,.53-.17,1.08-.7,1.23-.17,.05-.35,.05-.52,0Z"/>
          <path class="cls-42" d="M357.66,150.85h-14.19c-.53-.14-.85-.69-.7-1.23,.09-.34,.36-.61,.7-.7h12.26v-9.67h-4.25c-.53,.14-1.08-.17-1.23-.7-.14-.53,.17-1.08,.7-1.23,.17-.05,.35-.05,.52,0h6.21l-.03,13.53Z"/>
          <path class="cls-42" d="M341.42,139.25h-33.89v-13.49h33.89v13.49Zm-32-1.93h30v-9.63h-30v9.63Z"/>
        </g>
        <path class="cls-22" d="M222.78,188h15.51c24.03,0,43.51,19.49,43.52,43.52h0v121.8h-102.52v-121.85c.03-24,19.49-43.45,43.49-43.47Z"/>
        <path class="cls-57" d="M265.35,198.23c-1.06,1.56-2.34,3.21-2.18,5.09,.19,1,.53,1.97,1,2.87,1.8,4.49,.79,9.8-1.89,13.84-2.83,3.97-6.75,7.03-11.28,8.83h-1v-1.76c3.11-1.72,5.77-4.14,7.79-7.07,2.68-4,3.69-9.34,1.88-13.84-.46-.9-.78-1.87-.95-2.87-.16-1.87,1.11-3.52,2.17-5.09,.84-1.21,1.56-2.5,2.16-3.85,1.13,.75,2.21,1.55,3.26,2.41-.33,.47-.62,.96-.96,1.44Z"/>
        <path class="cls-8" d="M229.5,188c-24.13,0-43.7,19.56-43.71,43.69h0v123.24h-6.66v-123.21c-.02-24.12,19.52-43.7,43.64-43.72h6.73Z"/>
        <path class="cls-43" d="M282.19,355.67c-.71,0-1.28-.57-1.28-1.28v-123.21c-.02-23.42-19.01-42.41-42.43-42.43h-15.14c-23.42,.02-42.41,19.01-42.43,42.43v112.21c-.06,.71-.69,1.23-1.4,1.17-.62-.05-1.12-.55-1.17-1.17v-112.21c0-24.85,20.15-45,45-45h15.14c24.84,.03,44.97,20.16,45,45v123.21c0,.71-.57,1.28-1.28,1.28,0,0,0,0-.01,0Z"/>
        <path class="cls-32" d="M178.09,350h107.2v8.69h-109.48v-6.41c0-1.26,1.02-2.28,2.28-2.28Z"/>
        <path class="cls-30" d="M178.67,350h41.62v5.71c0,.8-.64,1.44-1.44,1.44h-38.75c-.79,0-1.43-.65-1.43-1.44v-5.71Z"/>
        <path class="cls-30" d="M234.55,355.64h50.74v3.09h-53.84c0-1.71,1.38-3.09,3.09-3.09,0,0,0,0,.01,0Z"/>
        <path class="cls-8" d="M179.29,349.4l85.31,1.24c1.81,.16,3.25,1.61,3.4,3.42h0l-87.9,.35-.81-5.01Z"/>
        <path class="cls-43" d="M283.95,360.12h-105.44c-1.66,0-3-1.34-3-3v-4.66c0-1.66,1.34-3,3-3,.53,.14,.85,.69,.7,1.23-.09,.34-.36,.61-.7,.7-.55-.03-1.02,.4-1.05,.95,0,.03,0,.07,0,.1v4.66c0,.58,.46,1.05,1.04,1.06,0,0,0,0,.01,0h105.44c.56-.03,1.01-.5,1-1.06v-4.66c.03-.55-.4-1.02-.95-1.05-.02,0-.03,0-.05,0h-95.2c-.53-.14-.85-.69-.7-1.23,.09-.34,.36-.61,.7-.7h95.2c1.66,0,3,1.34,3,3v4.66c0,1.66-1.34,3-3,3Z"/>
        <circle class="cls-8" cx="186.35" cy="353.72" r=".2"/>
        <circle class="cls-8" cx="185.21" cy="354.37" r=".44"/>
        <circle class="cls-8" cx="180.44" cy="354.19" r=".67"/>
        <polygon class="cls-22" points="245.72 343.92 246.76 357.26 280.92 355.21 280.83 343.2 260.45 349.42 245.72 343.92"/>
        <circle class="cls-8" cx="180.71" cy="352.83" r=".27"/>
        <circle class="cls-8" cx="188.75" cy="352.83" r=".69"/>
        <ellipse class="cls-30" cx="232.3" cy="355.09" rx=".96" ry=".61" transform="translate(-124.71 125.74) rotate(-24.09)"/>
        <circle class="cls-30" cx="234.41" cy="354.75" r=".37"/>
        <circle class="cls-30" cx="230.68" cy="356.66" r=".36"/>
        <circle class="cls-30" cx="235.87" cy="355.54" r=".67"/>
        <path class="cls-7" d="M246.74,181.21c-.12,7.07-7.86,12.7-14.92,12.57h0c-7.05-.17-12.64-6-12.53-13.05l.76-15.69v-.64l25.54,.48"/>
        <path class="cls-4" d="M246.21,170.92l-1.6,13.31c-2.91,.64-5.94,.4-8.71-.69-4.91-2.21-10.06-3.85-15.34-4.89h-.11l.12-7.71c8.48,1.51,17.16,1.51,25.64,0v-.02Z"/>
        <circle class="cls-12" cx="211.09" cy="165.2" r=".68"/>
        <circle class="cls-12" cx="205.84" cy="174.5" r=".68"/>
        <circle class="cls-12" cx="220.53" cy="168.48" r=".9"/>
        <ellipse class="cls-8" cx="210.52" cy="159.32" rx="2.72" ry="1.56" transform="translate(-6.95 309.01) rotate(-71.66)"/>
        <circle class="cls-12" cx="215.44" cy="160.84" r=".88"/>
        <path class="cls-12" d="M212.77,161.72c.38,0,.68,.3,.68,.68s-.3,.68-.68,.68-.68-.3-.68-.68h0c0-.38,.3-.68,.68-.68Z"/>
        <circle class="cls-12" cx="213.66" cy="156.14" r=".9"/>
        <path class="cls-43" d="M209.98,217.52c1.23,4.81,2.25,9.66,1.93,14.65-.38,4.41-1.22,8.77-2.53,13-2.13,7.7-4.6,15.38-3.85,23.48,.11,1.22,2,1.24,1.93,0-.8-9,2.47-17.5,4.66-26.13,2.23-8.81,1.93-16.73-.28-25.52-.28-.47-.9-.63-1.37-.35-.31,.18-.49,.51-.49,.87Z"/>
        <path class="cls-43" d="M250.29,218c2,9.14,3.55,18,2.57,27.41-.79,7.7-1.8,15.67,2.5,22.57,.64,1,2.32,.08,1.66-1-4.78-7.71-2.47-16.65-1.92-25.05s-1.2-16.41-3-24.44c-.27-1.21-2.13-.7-1.86,.51h.05Z"/>
        <path class="cls-22" d="M260.29,199.12c-1.05,1.56-2.33,3.21-2.17,5.09,.19,1,.52,1.97,1,2.87,1.81,4.49,.8,9.81-1.88,13.84-2.84,3.96-6.75,7.03-11.28,8.83h-1v-66.19h12.2c8.98,9.19,10.4,24.91,3.13,35.56Z"/>
        <path class="cls-22" d="M205.02,199.12c1.06,1.56,2.34,3.21,2.18,5.09-.19,1-.52,1.97-1,2.87-1.8,4.49-.79,9.81,1.89,13.84,2.83,3.98,6.76,7.05,11.31,8.84h1v-66.2h-12.11c-9.1,9.19-10.52,24.91-3.27,35.56Z"/>
        <path class="cls-57" d="M265.08,178.75c-2.02,.23-4.06,.34-6.09,.34-4.62,0-9.22-.58-13.7-1.73v-9.18c4.62-1.03,9.08-2.66,13.28-4.85,3.67,4.37,5.94,9.74,6.51,15.42Z"/>
        <path class="cls-43" d="M255.81,164.19c8.28,8.72,9.9,22.81,3.48,33.07-1.28,2-3,4-2.87,6.57,.17,3.13,2.11,5.59,1.82,8.93-.65,7.52-6.91,12.5-13.32,15.37-1.69,.75-.22,3.25,1.47,2.49,6-2.69,11.56-7,13.81-13.41,1.15-3.19,1.28-6.66,.36-9.92-.74-2.44-1.69-4.1-.08-6.63,.95-1.38,1.82-2.81,2.61-4.29,5.45-11.4,3.37-24.98-5.24-34.23-1.28-1.35-3.33,.7-2,2.05h-.04Z"/>
        <path class="cls-7" d="M181.55,88.19l6.27,.12c8.15,.21,14.62,6.95,14.47,15.11h0c-.14,8.15-6.85,14.64-15,14.52h0l-6.27-.13c-8.18-.17-14.68-6.93-14.53-15.11h0c.14-8.15,6.85-14.64,15-14.51h.06Z"/>
        <path class="cls-43" d="M161.78,103.78h0c-.71,0-1.28-.58-1.27-1.29,0,0,0,0,0-.01,.04-3.34,1.14-6.58,3.13-9.26,.42-.57,1.22-.69,1.79-.27,0,0,0,0,0,0,.57,.42,.69,1.23,.27,1.8-1.67,2.25-2.58,4.96-2.62,7.76,0,.71-.58,1.28-1.29,1.27,0,0,0,0-.01,0Z"/>
        <path class="cls-43" d="M182.84,119h-.28l-6.3-.13c-6.58-.12-12.42-4.23-14.74-10.39-.25-.66,.08-1.4,.74-1.65s1.4,.08,1.65,.74c1.95,5.18,6.87,8.64,12.4,8.73l6.26,.13h.08c7.48-.05,13.51-6.15,13.47-13.63-.04-7.25-5.79-13.18-13.04-13.46l-6.26-.12c-2.45-.06-4.87,.56-7,1.79-.61,.36-1.4,.15-1.75-.47-.36-.61-.15-1.4,.46-1.75,2.54-1.47,5.44-2.21,8.38-2.14l6.27,.13c8.89,.29,15.87,7.73,15.58,16.63-.28,8.6-7.28,15.47-15.89,15.58h-.04Z"/>
        <path class="cls-3" d="M179.47,100.31l3.27,.06c4.25,.08,7.64,3.6,7.56,7.85h0c-.09,4.25-3.59,7.62-7.84,7.55l-3.26-.07c-4.25-.08-7.64-3.59-7.56-7.84h0c.08-4.25,3.58-7.63,7.83-7.55Z"/>
        <path class="cls-8" d="M171.81,97.42c.5-1.31,1.48-2.39,2.74-3,1.08-.42,.64-2.2-.49-1.77-1.74,.74-3.12,2.12-3.85,3.86-.46,1.07,1.11,2,1.58,.92h.02Z"/>
        <ellipse class="cls-8" cx="170.46" cy="101.1" rx="1.46" ry="1.17" transform="translate(44.97 254.49) rotate(-81.38)"/>
        <path class="cls-7" d="M281.01,88.19l6.26,.12c8.18,.17,14.68,6.93,14.53,15.11h0c-.14,8.15-6.85,14.65-15,14.52h0l-6.26-.13c-8.18-.17-14.68-6.93-14.53-15.11h0c.14-8.15,6.85-14.64,15-14.51Z"/>
        <path class="cls-43" d="M287.04,119.05h-.28l-6.3-.13c-8.89-.07-16.04-7.34-15.97-16.23,.07-8.89,7.34-16.04,16.23-15.97h.31l6.27,.13c8.89,.07,16.04,7.34,15.97,16.23-.07,8.89-7.34,16.04-16.23,15.97Zm-6.32-29.76c-7.47-.06-13.58,5.95-13.63,13.43-.06,7.47,5.95,13.58,13.42,13.63l6.26,.13c7.47,.14,13.65-5.8,13.79-13.27,.14-7.47-5.8-13.65-13.27-13.79l-6.27-.13h-.3Z"/>
        <path class="cls-3" d="M283.67,100.31l3.26,.06c4.26,.08,7.65,3.59,7.57,7.85,0,0,0,0,0,0h0c-.09,4.24-3.6,7.62-7.84,7.55l-3.26-.07c-4.25-.08-7.64-3.59-7.56-7.84,0,0,0,0,0,0h0c.08-4.25,3.58-7.63,7.83-7.55,0,0,0,0,0,0Z"/>
        <path class="cls-8" d="M273.01,98.93c.5-1.31,1.48-2.39,2.74-3,1.08-.43,.61-2.2-.49-1.77-1.74,.73-3.12,2.11-3.85,3.84-.46,1.07,1.11,2,1.58,.92h.02Z"/>
        <ellipse class="cls-8" cx="270.93" cy="102.32" rx="1.46" ry="1.17" transform="translate(130.13 355.39) rotate(-81.6)"/>
        <path class="cls-7" d="M269.9,13.77c.64,.56,1.21,1.14,1.8,1.72,10.33,10.31,16.13,24.31,16.11,38.91v61.53c.33,30.38-24.03,55.27-54.4,55.6-30.38,.33-55.27-24.03-55.6-54.41V54.4c-.02-15.46,6.48-30.21,17.9-40.63,18.25-16.68,55.85-16.58,74.19,0Z"/>
        <path class="cls-8" d="M237.75,170.15c-1.41,.1-2.83,.16-4.27,.16-30.38,0-58.27-24.24-55-55V53.75c-.02-15.46,6.48-30.21,17.91-40.62,1.74,1,1.36,2,3.32,2.95-9.26,9.84-16.42,23.11-16.42,37.67v61.55c0,28.95,22.29,53.9,54.46,54.85Z"/>
        <circle class="cls-7" cx="263.96" cy="84.02" r="4.03"/>
        <path class="cls-5" d="M267.29,20.19c7.86,9.76,12.13,21.93,12.1,34.46v61.55c-.01,28.68-22.06,52.53-50.65,54.8,1.44,.12,2.89,.18,4.36,.18,30.38,0,55-24.62,55-55V54.65c.02-14.59-5.78-28.59-16.11-38.9-.59-.58-1.19-1.16-1.8-1.72-1.84,1.11-3.74,2.11-5.69,3,.26,.27,.5,.55,.74,.83"/>
        <path class="cls-46" d="M171.29,105.11c-.55-.04-.96-.53-.92-1.08,.01-.18,.08-.35,.18-.49,1.86-2.28,4.45-3.85,7.33-4.43,.49-.25,1.09-.06,1.35,.44,.25,.49,.06,1.09-.44,1.35-.15,.08-.33,.12-.5,.11-2.45,.5-4.65,1.83-6.23,3.77-.19,.22-.48,.35-.77,.34Z"/>
        <path class="cls-46" d="M295.23,105.11c-.29,0-.55-.13-.74-.35-1.57-1.93-3.76-3.25-6.2-3.76-.51-.12-.83-.62-.75-1.13,.12-.51,.61-.84,1.13-.76,2.88,.59,5.48,2.16,7.34,4.44,.31,.42,.25,1.01-.14,1.35-.18,.15-.41,.22-.64,.21Z"/>
        <path class="cls-43" d="M234.22,126c-.53,0-1.01-.33-1.21-.83-1.24-3.28-1.98-6.72-2.19-10.22v-8.59c.06-.71,.69-1.23,1.4-1.17,.62,.05,1.12,.55,1.17,1.17v8.47c.19,3.23,.86,6.41,2,9.43,.25,.66-.09,1.4-.75,1.65,0,0,0,0,0,0-.13,.06-.28,.09-.42,.09Z"/>
        <path class="cls-43" d="M182.48,139.27c-.49,0-.95-.28-1.16-.73-.58-1.22-1.04-2.5-1.37-3.81-.17-.69,.25-1.38,.94-1.55,.69-.17,1.38,.25,1.55,.93,.29,1.14,.69,2.26,1.2,3.32,.3,.64,.03,1.4-.6,1.71-.17,.09-.37,.13-.56,.13Z"/>
        <ellipse class="cls-5" cx="214.79" cy="98.94" rx="7.07" ry="8.95"/>
        <ellipse class="cls-43" cx="214.47" cy="96.99" rx="6.98" ry="8.83"/>
        <ellipse class="cls-8" cx="211.98" cy="93.78" rx="2.57" ry="2.81"/>
        <ellipse class="cls-5" cx="251.54" cy="98.94" rx="7.07" ry="8.95"/>
        <ellipse class="cls-43" cx="251.24" cy="96.99" rx="6.98" ry="8.83"/>
        <ellipse class="cls-8" cx="248.74" cy="93.78" rx="2.57" ry="2.81"/>
        <path class="cls-27" d="M212.74,125.7h36.67v8.42c0,10.12-8.21,18.33-18.33,18.33h0c-10.12,0-18.33-8.21-18.33-18.33h0v-8.42h0Z"/>
        <ellipse class="cls-60" cx="231.07" cy="137.82" rx="11.18" ry="6.94"/>
        <path class="cls-8" d="M246.76,134.58h-31c-1.24,0-2.24-1-2.24-2.24h0v-7.48h35.47v7.48c0,1.23-.99,2.23-2.22,2.24,0,0,0,0-.01,0Z"/>
        <path class="cls-34" d="M246.59,134.58h-30.64c-1.32,0-2.39-1.06-2.4-2.38,0,0,0-.01,0-.02v-1.13h35.45v1.13c0,1.32-1.06,2.39-2.38,2.4,0,0-.01,0-.02,0h-.01Z"/>
        <path class="cls-46" d="M248.99,135.54h-35.45c-.53-.14-.85-.69-.7-1.23,.09-.34,.36-.61,.7-.7h35.45c.53-.14,1.08,.17,1.23,.7,.14,.53-.17,1.08-.7,1.23-.17,.05-.35,.05-.52,0Z"/>
        <path class="cls-46" d="M231.29,152.75c-10.83-.01-19.61-8.79-19.62-19.62v-4.35c0-2.96,2.4-5.35,5.36-5.35h28.52c2.95,0,5.34,2.4,5.35,5.35v4.35c-.01,10.83-8.78,19.6-19.61,19.62Zm-14.28-26.75c-1.54,0-2.78,1.24-2.79,2.78v4.35c0,9.41,7.63,17.04,17.04,17.04s17.04-7.63,17.04-17.04v-4.35c0-1.53-1.25-2.77-2.78-2.78h-28.52Z"/>
        <path class="cls-43" d="M232.76,172.29c-19.9-.04-38.31-10.54-48.47-27.65-.36-.61-.16-1.4,.45-1.76,.61-.36,1.4-.16,1.76,.45,9.69,16.33,27.26,26.35,46.25,26.39h.07c29.67-.04,53.7-24.12,53.67-53.79V54.39c-.02-14.25-5.68-27.91-15.74-38l-.11-.11c-.54-.55-1.05-1.06-1.62-1.56-8.54-7.72-21.73-12.13-36.28-12.15h-.08c-14.52,0-27.68,4.43-36.11,12.14-11.16,10.18-17.52,24.58-17.52,39.68v61.54c0,3.25,.29,6.5,.87,9.7,.12,.7-.34,1.37-1.04,1.49-.7,.12-1.37-.34-1.49-1.04-.61-3.35-.91-6.75-.91-10.15V54.4c0-15.82,6.66-30.91,18.35-41.58,18.69-17.09,57-17.09,75.92,0,.62,.54,1.19,1.11,1.74,1.66l.11,.11c10.54,10.57,16.47,24.88,16.49,39.81v61.54c.03,31.09-25.15,56.33-56.24,56.36h-.07Z"/>
        <path class="cls-8" d="M244.84,187.91v161.5h-24.75V188.2c3.52,2.69,13.53,8.64,24.75-.29Z"/>
        <path class="cls-43" d="M232.11,195h-1.19c-4.6-.46-8.87-2.59-12-6-.46-.54-.4-1.35,.14-1.81s1.35-.4,1.81,.14c2.71,2.86,6.36,4.66,10.28,5.07,4.31,.3,8.69-1.45,13-5.2,.53-.47,1.34-.41,1.81,.12s.41,1.34-.12,1.81c-4.49,3.87-9.1,5.87-13.73,5.87Z"/>
        <path class="cls-22" d="M185.88,347.59l-.09,5.79c-.11,1.1,.69,2.08,1.79,2.19,0,0,.01,0,.02,0h30.47c1.21-.14,2.1-1.21,2-2.43v-6.33l-34.19,.78Z"/>
        <path class="cls-43" d="M248.66,358.8h0c-2.57-.04-4.63-2.13-4.64-4.7V169.59c-.06-.71,.46-1.34,1.17-1.4,.71-.06,1.34,.46,1.4,1.17,0,.08,0,.15,0,.23v184.51c0,1.14,.91,2.08,2.05,2.13l32-2.5,.21-2.9c.05-.71,.66-1.24,1.37-1.19s1.24,.66,1.19,1.37l-.28,4c-.04,.64-.54,1.15-1.18,1.2l-33.23,2.59h-.06Z"/>
        <rect class="cls-8" x="222.31" y="349.2" width="20.2" height="10.29" rx="2.63" ry="2.63"/>
        <rect class="cls-6" x="222.91" y="351.4" width="20.2" height="7.59" rx="2.26" ry="2.26"/>
        <path class="cls-43" d="M240.46,360h-16.08c-2,0-3.61-1.61-3.62-3.61v-4.57c0-2,1.62-3.61,3.62-3.61h16.08c1.99,0,3.61,1.62,3.61,3.61v4.57c0,1.99-1.62,3.61-3.61,3.61Zm-16.08-9.87c-.93,0-1.69,.76-1.69,1.69h0v4.57c0,.93,.76,1.69,1.69,1.69h16.08c.93,0,1.69-.76,1.69-1.69h0v-4.57c0-.93-.76-1.69-1.69-1.69h-16.08Z"/>
        <path class="cls-43" d="M245.04,354.94h-7.82c-.35,0-.64-.29-.64-.64h0c0-.35,.29-.64,.64-.64h7.82c.35,0,.64,.29,.64,.64h0c0,.35-.29,.64-.64,.64h0Z"/>
        <circle class="cls-43" cx="234.34" cy="354.3" r=".82"/>
        <path class="cls-43" d="M250.58,220.46c2.53-1.38,4.46-3.65,5.44-6.36,.21-.59-.72-.84-.93-.26-.9,2.47-2.68,4.53-5,5.78-.54,.3-.06,1.13,.49,.83h0Z"/>
        <path class="cls-43" d="M251.29,217.35c1.48-1.24,2.53-2.92,3-4.79,.04-.26-.14-.51-.4-.55,0,0,0,0,0,0-.22-.03-.44,.09-.53,.3-.44,1.71-1.42,3.24-2.78,4.36-.49,.39,.2,1.07,.68,.68h.03Z"/>
        <path class="cls-43" d="M277.06,345.4c1.07-2.67,1.12-5.65,.15-8.36-.21-.59-1.08-.19-.88,.39,.87,2.48,.81,5.2-.18,7.64-.08,.25,.06,.52,.32,.6,.23,.07,.48-.04,.58-.27h.01Z"/>
        <path class="cls-43" d="M275.63,342.56c.36-1.9,.12-3.87-.71-5.62-.13-.23-.43-.31-.66-.18-.19,.12-.28,.35-.21,.57,.74,1.6,.96,3.4,.62,5.13-.12,.61,.84,.7,1,.1h-.04Z"/>
        <path class="cls-43" d="M205,180.45c.14-3.7,1.21-7.31,3.1-10.5,.12-.24,.03-.53-.21-.65-.22-.11-.49-.04-.62,.17-1.97,3.34-3.08,7.12-3.21,11,0,.28,.22,.5,.5,.5s.5-.22,.5-.5h0l-.06-.02Z"/>
        <path class="cls-43" d="M207.41,176.26c.19-1.47,.65-2.89,1.35-4.19,.3-.54-.54-1-.83-.48-.75,1.37-1.24,2.86-1.45,4.41-.09,.6,.84,.87,.93,.26Z"/>
        <path class="cls-43" d="M211.5,220c1.44,1.83,3.19,3.39,5.17,4.6,.53,.33,1-.51,.49-.83-1.92-1.17-3.61-2.68-5-4.45-.37-.46-1.04,.23-.66,.68Z"/>
        <path class="cls-43" d="M258.44,225.88c3.9-3.66,5.8-8.97,5.11-14.27-.08-.61-1-.61-1,0,.69,5.05-1.11,10.11-4.83,13.59-.43,.43,.27,1.11,.72,.68Z"/>
        <ellipse class="cls-57" cx="258.1" cy="182.51" rx="2.61" ry="1.71"/>
        <path class="cls-8" d="M208.86,209c1.07-3.15,2.34-5.68,.72-8.83-.85-1.67-2.08-3.11-2.94-4.78-1.1-2.19-1.82-4.56-2.1-7-.16-1.22-2-.7-1.85,.52,.4,3.12,1.45,6.13,3.09,8.82,.86,1.4,2.22,2.83,2.61,4.46,.49,2.06-.75,4.36-1.39,6.26-.4,1.21,1.47,1.72,1.86,.55Z"/>
        <path class="cls-43" d="M205.48,164.44c-7.42,9.68-8.44,23.76-1.93,34.23,1.11,1.79,2.78,3.39,2.35,5.78-.29,1.66-1.28,3.15-1.54,4.87-.41,3.01,0,6.08,1.19,8.88,2.43,5.91,7.75,9.89,13.43,12.44,1.68,.76,3.15-1.74,1.46-2.49-5.75-2.57-11.38-6.73-12.93-13.19-.87-3.66,.2-6.31,1.18-9.74,.69-2.41-.29-4.42-1.58-6.43-6.65-10.2-6.61-23.08,.9-32.89,1.13-1.48-1.38-2.92-2.5-1.46h-.03Z"/>
        <path class="cls-43" d="M191.97,75.27c3.77-2,9.77-2.15,14.25-1.45,3,.47,5.83,1.53,8.8,1.93s6.27,.12,8.27-1.75c.66-.64,1.17-1.41,1.5-2.27,.35-.73,.51-1.53,.47-2.34-.21-2.29-2.67-4.07-5.13-4.85-3.32-.94-6.85-.94-10.17,0-3.18,.94-6.23,2.26-9.1,3.92-3.39,1.82-6.82,3.81-8.88,6.82"/>
        <path class="cls-43" d="M272.84,75.27c-3.77-2-9.77-2.15-14.26-1.45-3,.47-5.83,1.53-8.8,1.93s-6.26,.12-8.23-1.76c-.65-.65-1.16-1.42-1.5-2.27-.34-.74-.5-1.55-.46-2.37,.22-2.29,2.68-4.07,5.14-4.84,3.32-.95,6.83-.95,10.15,0,3.16,.93,6.2,2.24,9.06,3.89,3.39,1.82,6.81,3.81,8.88,6.82"/>
        <circle class="cls-5" cx="226.01" cy="28.42" r="1.85"/>
        <circle class="cls-5" cx="232.47" cy="28.42" r="1.85"/>
        <circle class="cls-5" cx="238.94" cy="28.42" r="1.85"/>
        <circle class="cls-5" cx="226.01" cy="34.91" r="1.85"/>
        <circle class="cls-5" cx="232.47" cy="34.91" r="1.85"/>
        <circle class="cls-5" cx="238.94" cy="34.91" r="1.85"/>
        <path class="cls-8" d="M268.34,117.39h-2.15c-.76,0-1.42-.54-1.56-1.29l-6.53-33.83c-.17-.86,.4-1.7,1.26-1.86,.1-.02,.21-.03,.31-.03h2.15c.76,0,1.42,.54,1.56,1.29l6.53,33.83c.16,.87-.41,1.7-1.28,1.86-.09,.02-.19,.03-.29,.03Z"/>
        <path class="cls-14" d="M259.67,116.39h0c-.76,0-1.42-.54-1.57-1.29l-6.52-33.83c-.17-.87,.4-1.71,1.27-1.87,.1-.02,.19-.03,.29-.03h0c.76,0,1.41,.54,1.56,1.29l6.53,33.83c.17,.87-.4,1.71-1.27,1.87-.1,.02-.19,.03-.29,.03Z"/>
        <path class="cls-52" d="M236.75,80.2v25.59c0,7.25,5.87,13.12,13.12,13.12h14.07c7.24,0,13.11-5.88,13.12-13.12v-25.59c0-.88-.71-1.59-1.59-1.59h-37.13c-.88,0-1.59,.71-1.59,1.59Zm35.27,26.4c0,4.62-3.74,8.36-8.36,8.36h-12.49c-4.62,0-9.34-3.85-9.34-8.46l.46-22.24c.02-.87,.72-1.56,1.59-1.56h27c.88,0,1.59,.71,1.59,1.59,0,.01,0,.02,0,.03l-.45,22.28Z"/>
        <path class="cls-43" d="M263.65,115.87h-13.26c-5.5-.11-9.87-4.64-9.79-10.14v-23c.02-.52,.45-.93,.97-.91,.01,0,.02,0,.03,0h30.92c.5,0,.91,.42,.91,.92v23c.07,5.49-4.29,10.01-9.78,10.13Zm-21.22-32.26v22.12c-.09,4.5,3.49,8.22,7.99,8.31,0,0,0,0,.01,0h13.26c4.5-.08,8.08-3.8,8-8.3,0,0,0,0,0-.01v-22.12h-29.26Z"/>
        <path class="cls-8" d="M211.77,117.39h-2.15c-.76,0-1.42-.54-1.57-1.29l-6.52-33.83c-.17-.86,.4-1.7,1.26-1.86,.1-.02,.2-.03,.3-.03h2.2c.76,0,1.42,.54,1.56,1.29l6.44,33.83c.17,.86-.4,1.7-1.26,1.86-.09,.02-.17,.03-.26,.03Z"/>
        <path class="cls-14" d="M203.09,116.39h0c-.76,0-1.41-.54-1.56-1.29l-6.53-33.83c-.17-.87,.4-1.71,1.27-1.87,.1-.02,.19-.03,.29-.03h0c.76,0,1.42,.54,1.57,1.29l6.52,33.83c.17,.87-.4,1.71-1.27,1.87-.1,.02-.19,.03-.29,.03Z"/>
        <path class="cls-52" d="M187.84,80.2v25.59c0,7.25,5.88,13.12,13.13,13.12h14.06c7.25,0,13.12-5.87,13.13-13.12v-25.59c0-.88-.72-1.59-1.6-1.59h-37.12c-.88,0-1.59,.71-1.6,1.59Zm6.16,2.5h27c.87,0,1.57,.69,1.59,1.56l.44,22.24c0,4.61-4.72,8.46-9.33,8.46h-12.41c-4.61,0-8.35-3.74-8.35-8.35h0s-.48-22.29-.48-22.29c-.02-.87,.67-1.59,1.54-1.62Z"/>
        <path class="cls-43" d="M215.03,120.08h-14.06c-7.89-.01-14.28-6.4-14.29-14.29v-27.18c0-.64,.52-1.16,1.16-1.17h40.18c.66-.04,1.22,.45,1.27,1.11,0,.02,0,.04,0,.05h0v27.19c-.01,7.88-6.38,14.26-14.26,14.29Zm-26-40.3v26c0,6.63,5.37,12,12,12h14.06c6.63,0,12-5.37,12-12v-26h-38.06Z"/>
        <path class="cls-43" d="M214.52,115.87h-13.23c-5.5-.11-9.87-4.64-9.79-10.14v-23c0-.51,.41-.92,.92-.92h30.87c.51-.04,.96,.35,1,.86,0,.02,0,.04,0,.05h0v23c.08,5.49-4.28,10.02-9.77,10.15Zm-21.23-32.26v22.12c-.09,4.49,3.47,8.21,7.97,8.31,.01,0,.02,0,.03,0h13.27c4.49-.08,8.08-3.78,8-8.28,0-.01,0-.02,0-.03v-22.12h-29.27Z"/>
        <path class="cls-43" d="M236.02,97.76h-7.31c-.65,0-1.17-.52-1.17-1.17,0-.65,.52-1.17,1.17-1.17h7.31c.65,0,1.17,.52,1.17,1.17,0,.65-.52,1.17-1.17,1.17h0Z"/>
        <rect class="cls-5" x="229.38" y="97.8" width="6.64" height="1.93"/>
        <path class="cls-43" d="M187.36,89.75h-9.76c-.71,.06-1.34-.46-1.4-1.17s.46-1.34,1.17-1.4c.08,0,.15,0,.23,0h9.76c.71-.06,1.34,.46,1.4,1.17s-.46,1.34-1.17,1.4c-.08,0-.15,0-.23,0Z"/>
        <rect class="cls-52" x="276.36" y="88.92" width="10.47" height="3.25"/>
        <path class="cls-43" d="M287.47,89.75h-9.77c-.71-.06-1.23-.69-1.17-1.4,.05-.62,.55-1.12,1.17-1.17h9.77c.71,.06,1.23,.69,1.17,1.4-.05,.62-.55,1.12-1.17,1.17Z"/>
        <path class="cls-43" d="M287.47,93.91h-9.77c-.71-.06-1.23-.69-1.17-1.4,.05-.62,.55-1.12,1.17-1.17h9.77c.71,.06,1.23,.69,1.17,1.4-.05,.62-.55,1.12-1.17,1.17Z"/>
        <path class="cls-43" d="M263.94,120.08h-14.07c-7.89-.01-14.28-6.4-14.29-14.29v-27.19c.01-.66,.56-1.18,1.21-1.16,.03,0,.06,0,.09,0h40.18c.65,0,1.17,.52,1.17,1.17h0v27.18c-.01,7.89-6.4,14.28-14.29,14.29Zm-26-40.3v26c0,6.63,5.37,12,12,12h14.07c6.63,0,12-5.37,12-12v-26h-38.07Z"/>
        <path class="cls-43" d="M217.61,356.22h-36.16c-1.89,0-3.43-1.53-3.43-3.43,0-.02,0-.05,0-.07l.11-5.79c.02-.7,.59-1.26,1.29-1.26h0c.71,.01,1.27,.59,1.26,1.3,0,0,0,0,0,.01l-.11,5.79c0,.23,.08,.46,.25,.62,.16,.17,.38,.26,.61,.26h36.16c.63,0,1.14-.52,1.15-1.15V169.59c-.06-.71,.46-1.34,1.17-1.4,.71-.06,1.34,.46,1.4,1.17,0,.08,0,.15,0,.23v182.91c0,2.04-1.66,3.7-3.7,3.72Z"/>
        <circle class="cls-57" cx="253.06" cy="180.62" r=".75"/>
        <circle class="cls-57" cx="255.12" cy="185.69" r=".75"/>
      </g>
    </g>
  </g>
</svg>