<?xml version="1.0" encoding="UTF-8"?>
<svg id="Layer_2" data-name="Layer 2" xmlns="http://www.w3.org/2000/svg" viewBox="0 0 693.57 992.69">
  <defs>
    <style>
      .cls-1 {
        fill: #f59b79;
      }

      .cls-2 {
        fill: #f7b14b;
      }

      .cls-3 {
        fill: #f8c5a6;
      }

      .cls-4 {
        fill: #675c6c;
      }

      .cls-5 {
        fill: #ed9a5d;
      }

      .cls-6, .cls-7 {
        fill: #e89176;
      }

      .cls-8 {
        fill: #fdc6a2;
      }

      .cls-9 {
        fill: #e87249;
      }

      .cls-10 {
        fill: #e59328;
      }

      .cls-11 {
        fill: #ffa403;
      }

      .cls-12, .cls-13 {
        fill: #fff;
      }

      .cls-14 {
        fill: #ff9d76;
      }

      .cls-15 {
        fill: #ffe6c7;
      }

      .cls-16 {
        fill: #ffcc5a;
      }

      .cls-17 {
        fill: #ffd6bb;
      }

      .cls-18 {
        fill: #ffba31;
      }

      .cls-19 {
        fill: #ffa96e;
      }

      .cls-20 {
        fill: #fe7469;
      }

      .cls-21 {
        fill: #ff908a;
      }

      .cls-22 {
        fill: #b3dee0;
      }

      .cls-23 {
        fill: #31a8bc;
      }

      .cls-24 {
        fill: #aaaaaf;
      }

      .cls-25 {
        fill: #af143b;
      }

      .cls-26 {
        fill: #c16e5d;
      }

      .cls-27 {
        fill: #caccce;
      }

      .cls-28 {
        fill: #c9ced2;
      }

      .cls-29 {
        fill: #e0534c;
      }

      .cls-30 {
        fill: #ac94b2;
      }

      .cls-31 {
        fill: #d2f2ff;
      }

      .cls-32 {
        fill: #dcdfe2;
      }

      .cls-33 {
        fill: #e0b151;
      }

      .cls-34 {
        fill: #dff5f7;
      }

      .cls-35 {
        fill: #d89844;
      }

      .cls-36 {
        fill: #a8abad;
      }

      .cls-37 {
        fill: #432549;
      }

      .cls-38 {
        fill: #1b3c47;
      }

      .cls-39, .cls-40 {
        fill: #181828;
      }

      .cls-41 {
        fill: #181728;
      }

      .cls-42 {
        fill: #1b1b2b;
      }

      .cls-43 {
        fill: #58cbe5;
      }

      .cls-44 {
        fill: #838789;
      }

      .cls-45 {
        fill: #504556;
      }

      .cls-46 {
        fill: #4f3e52;
      }

      .cls-47 {
        fill: #7b697f;
      }

      .cls-40 {
        opacity: .5;
      }

      .cls-40, .cls-13, .cls-7, .cls-48 {
        isolation: isolate;
      }

      .cls-13 {
        opacity: .55;
      }

      .cls-7 {
        opacity: .62;
      }

      .cls-48 {
        fill: #670118;
        opacity: .4;
      }

      .cls-49 {
        opacity: .15;
      }

      .cls-50 {
        opacity: .35;
      }
    </style>
  </defs>
  <g id="Layer_1-2" data-name="Layer 1">
    <g id="Layer_2-2" data-name="Layer 2">
      <g id="Layer_1-2" data-name="Layer 1-2">
        <g class="cls-50">
          <path class="cls-39" d="M645.39,87.76h-132.64c-.98-.07-1.72-.93-1.64-1.91,.07-.88,.76-1.58,1.64-1.64h132.64c.98,.07,1.72,.93,1.64,1.91-.07,.88-.76,1.58-1.64,1.64Z"/>
          <path class="cls-39" d="M494.67,87.76h-125.66c-.98-.07-1.72-.93-1.64-1.91,.07-.88,.76-1.58,1.64-1.64h125.66c.98,.07,1.72,.93,1.64,1.91-.07,.88-.76,1.58-1.64,1.64Z"/>
          <rect class="cls-36" x="592.11" y="141.48" width="18.7" height="67.77"/>
          <path class="cls-39" d="M610.81,211.26h-18.7c-1.1,0-2-.9-2-2v-67.77c0-1.1,.9-2,2-2h18.7c1.1,0,2,.9,2,2v67.77c0,1.1-.9,2-2,2Zm-16.7-4h14.7v-63.77h-14.7v63.77Z"/>
          <path class="cls-19" d="M619.56,155.5h-36.19v-49.67c0-10,8.1-18.1,18.1-18.1h0c10,0,18.1,8.1,18.1,18.1v49.67h0Z"/>
          <path class="cls-5" d="M607.01,89.32h.29c6.63,0,12,5.37,12,12v54.16h-24.29v-54.14c0-6.63,5.37-12,12-12v-.02Z"/>
          <path class="cls-39" d="M619.56,157h-36.2c-.83,0-1.5-.67-1.5-1.5v-49.67c0-10.82,8.78-19.6,19.6-19.6s19.6,8.78,19.6,19.6v49.68c0,.82-.68,1.49-1.5,1.49Zm-34.7-3h33.2v-48.17c0-9.17-7.43-16.6-16.6-16.6s-16.6,7.43-16.6,16.6v48.17Z"/>
          <path class="cls-28" d="M526.12,268c-.02,41.42,33.55,75.01,74.97,75.03,41.42,.02,75.01-33.55,75.03-74.97,.02-41.42-33.55-75.01-74.97-75.03-18.51,0-36.37,6.83-50.14,19.2-15.85,14.21-24.9,34.49-24.89,55.77Z"/>
          <path class="cls-12" d="M561.09,206.23c1-.45,2-.87,3-1.27,38.51-15.07,81.94,3.92,97.01,42.43,12.94,33.05,.89,70.64-28.85,90.02,37.75-16.89,54.67-61.19,37.78-98.94-16.28-36.39-58.22-53.65-95.4-39.26-4.74,1.87-9.28,4.22-13.54,7.02Z"/>
          <path class="cls-36" d="M526.65,268c.02,41.36,33.57,74.87,74.93,74.85,19.35-.01,37.94-7.51,51.88-20.92-37.19,18.09-82,2.61-100.09-34.58-14.19-29.17-7.98-64.16,15.37-86.67-25.73,12.57-42.06,38.69-42.09,67.32Z"/>
          <ellipse class="cls-44" cx="544.42" cy="290.31" rx="3.47" ry="5.87" transform="translate(-51.65 449.59) rotate(-43.03)"/>
          <circle class="cls-44" cx="549.27" cy="300.26" r="1.48"/>
          <circle class="cls-44" cx="540.45" cy="298.72" r="1.28"/>
          <circle class="cls-44" cx="542.22" cy="276.75" r="2.24"/>
          <path class="cls-39" d="M601.01,345.59c-42.17,0-76.36-34.18-76.37-76.35,0-42.17,34.18-76.36,76.35-76.37,42.17,0,76.36,34.18,76.37,76.35v.02c-.06,42.14-34.21,76.29-76.35,76.35Zm0-149.72c-40.35,.09-72.99,32.87-72.9,73.22,.09,40.35,32.87,72.99,73.22,72.9,40.35-.09,72.99-32.87,72.9-73.22-.06-30.04-18.51-56.98-46.5-67.9-8.51-3.33-17.58-5.02-26.72-5Z"/>
          <circle class="cls-24" cx="600.71" cy="269.81" r="64.83"/>
          <path class="cls-39" d="M600.71,336.14c-36.64,.02-66.36-29.66-66.38-66.3-.02-36.64,29.66-66.36,66.3-66.38s66.36,29.66,66.38,66.3v.05c-.04,36.61-29.69,66.27-66.3,66.33Zm0-129.67c-34.98-.02-63.36,28.32-63.38,63.3-.02,34.98,28.32,63.36,63.3,63.38s63.36-28.32,63.38-63.3v-.04c-.03-34.95-28.35-63.28-63.3-63.34h0Z"/>
          <path class="cls-40" d="M600.71,333.05c-34.93-.03-63.23-28.37-63.2-63.3,.03-34.93,28.37-63.23,63.3-63.2,34.92,.03,63.21,28.34,63.2,63.26-.04,34.93-28.37,63.23-63.3,63.24Zm0-120.49c-31.62,.03-57.23,25.68-57.2,57.3,.03,31.62,25.68,57.23,57.3,57.2,31.6-.03,57.2-25.65,57.2-57.25-.03-31.62-25.68-57.24-57.3-57.25Z"/>
          <ellipse class="cls-17" cx="594.99" cy="111.5" rx="5.26" ry="7.74" transform="translate(3.82 241.76) rotate(-23.04)"/>
          <circle class="cls-17" cx="593.1" cy="124.98" r="2.48"/>
          <circle class="cls-17" cx="588.28" cy="116.51" r="1.02"/>
          <circle class="cls-17" cx="593.98" cy="98.11" r="1.75"/>
        </g>
        <g class="cls-50">
          <path class="cls-39" d="M247.83,692.16c-.75,0-1.36-.61-1.36-1.36v-20.8c0-.75,.61-1.36,1.36-1.36s1.36,.61,1.36,1.36v20.8c0,.75-.61,1.36-1.36,1.36Z"/>
          <path class="cls-39" d="M152.9,692.16c-.75,0-1.36-.61-1.36-1.36v-20.8c0-.75,.61-1.36,1.36-1.36s1.36,.61,1.36,1.36v20.8c0,.75-.61,1.36-1.36,1.36Z"/>
          <path class="cls-39" d="M201.19,692.16c-.75,0-1.36-.61-1.36-1.36v-20.8c.06-.75,.73-1.31,1.48-1.25,.66,.06,1.19,.58,1.25,1.25v20.8c0,.75-.61,1.36-1.36,1.36,0,0,0,0-.01,0Z"/>
          <rect class="cls-32" x="136.01" y="674.97" width="129.89" height="10.67"/>
          <rect class="cls-27" x="136.01" y="674.98" width="129.89" height="4.73"/>
          <path class="cls-39" d="M108.09,641.88H61.21c-1.1,0-2-.9-2-2s.9-2,2-2h46.88c1.1,0,2,.9,2,2s-.9,2-2,2Z"/>
          <path class="cls-47" d="M132.07,660.74h128.77c16.35,0,29.6-23.26,29.6-39.61H102.44c.02,16.35,13.28,39.61,29.63,39.61Z"/>
          <path class="cls-37" d="M236.29,660.74h24.83c16.35,0,29.61-23.26,29.61-39.61h-24.83c0,16.35-13.26,39.61-29.61,39.61Z"/>
          <path class="cls-16" d="M104.63,629.51c.59,1.93,1.37,3.79,2.34,5.55h180.72c.97-1.76,1.75-3.62,2.34-5.55H104.63Z"/>
          <path class="cls-33" d="M262.57,635.35h24.82c.95-1.76,1.72-3.62,2.28-5.55h-24.83c-.56,1.92-1.32,3.79-2.27,5.55Z"/>
          <path class="cls-39" d="M261.42,662.53H132.65c-17.75,0-31.1-24.94-31.1-41.11,0-.83,.67-1.5,1.5-1.5h187.96c.83,0,1.5,.67,1.5,1.5,.01,16.17-13.34,41.11-31.09,41.11Zm-156.83-39.61c.78,15,13.06,36.61,28.06,36.61h128.77c15,0,27.28-21.58,28.06-36.61H104.59Z"/>
          <path class="cls-39" d="M286.61,636.65H107.82c-.55,0-1-.45-1-1s.45-1,1-1h178.79c.55,0,1,.45,1,1s-.45,1-1,1Z"/>
          <path class="cls-39" d="M265.31,683.65c-.75,0-1.36-.61-1.36-1.36v-5.67h-127.17v5.67c0,.75-.61,1.36-1.36,1.36s-1.36-.61-1.36-1.36v-7c0-.75,.61-1.36,1.36-1.36h129.89c.75,0,1.36,.61,1.36,1.36v7c0,.75-.61,1.36-1.36,1.36Z"/>
          <path class="cls-16" d="M221.39,685c-2-2.14-1.56-5.65-.24-8.28s3.34-4.92,4.24-7.72c1.25-3.87,.18-8.08-1.18-11.91-1.11-3.1-2.47-6.24-4.93-8.44,1.16,4.11,2.31,8.51,1,12.56-1.25,3.73-4.41,6.48-6.25,10-2.41,4.65-2.33,10.2,.2,14.78"/>
          <path class="cls-18" d="M220.82,685.72c1-.85,3-2.19,2.52-3.42s-.24-2.23-.49-3.51c-.36-1.78,.44-4.58,1.24-6.2,.56-1.36,1.46-2.55,2.6-3.48-.72,1.76-1.45,3.65-1.06,5.5s1.62,3.09,2.26,4.72c.82,2.18,.51,4.62-.84,6.52"/>
          <path class="cls-18" d="M216.59,684.52c-1.44-.76-1.83-2.69-1.61-4.31s.87-3.18,.84-4.82c0-2.25-1.36-4.28-2.76-6-1.05-1.5-2.46-2.72-4.1-3.55,1.34,2,2.74,4.06,2.76,6.43,0,2.18-1.16,4.2-1.5,6.35-.43,2.88,.61,5.78,2.77,7.73"/>
          <path class="cls-11" d="M217.33,685.69c1.45-.77,1.83-2.69,1.61-4.31s-.87-3.18-.84-4.82c0-2.25,1.36-4.28,2.76-6,1.07-1.51,2.49-2.74,4.15-3.56-1.35,1.95-2.74,4.06-2.76,6.42,0,2.19,1.15,4.2,1.49,6.36,.43,2.88-.61,5.78-2.76,7.73"/>
          <path class="cls-16" d="M184.38,684.75c-2-2.15-1.55-5.65-.23-8.28s3.33-4.92,4.24-7.72c1.25-3.87,.18-8.08-1.18-11.92-1.11-3.1-2.48-6.24-4.93-8.43,1.16,4.11,2.31,8.51,1,12.56-1.25,3.73-4.41,6.48-6.26,10-2.4,4.65-2.32,10.19,.21,14.77"/>
          <path class="cls-18" d="M183.82,685.42c1-.84,3-2.18,2.51-3.41s-.23-2.23-.49-3.52c-.35-1.77,.45-4.57,1.24-6.19,.57-1.36,1.46-2.56,2.61-3.48-.72,1.75-1.45,3.64-1.06,5.5,.36,1.71,1.62,3.09,2.26,4.72,.82,2.18,.51,4.62-.84,6.52"/>
          <path class="cls-18" d="M179.59,684.23c-1.44-.77-1.83-2.69-1.61-4.31s.87-3.18,.84-4.82c0-2.26-1.36-4.28-2.76-6-1.05-1.51-2.46-2.73-4.1-3.55,1.34,2,2.74,4.06,2.75,6.42,0,2.19-1.15,4.2-1.49,6.36-.4,2.86,.64,5.74,2.79,7.67"/>
          <path class="cls-11" d="M180.33,685.39c1.44-.76,1.83-2.68,1.61-4.3s-.87-3.19-.84-4.82c0-2.26,1.36-4.28,2.76-6,1.05-1.5,2.47-2.72,4.11-3.54-1.35,2-2.74,4.05-2.76,6.42,0,2.19,1.15,4.2,1.49,6.36,.43,2.87-.61,5.77-2.76,7.72"/>
          <path class="cls-39" d="M258.31,687.29h-116.89c-.75,0-1.36-.6-1.37-1.35s.6-1.36,1.35-1.37h116.9c.75,0,1.36,.62,1.35,1.37,0,.75-.61,1.35-1.35,1.35Z"/>
          <g class="cls-49">
            <path class="cls-39" d="M187.65,614.23c-5.75-4.82-9.15-12.55-9.36-20.45-.06-2.01,.09-4.02,.44-6,.36-1.98,.92-3.91,1.66-5.78,1.45-3.67,3.34-6.86,4.64-10,2.74-6.29,3.8-13.18,3.06-20-.87-7.07-3.89-13.7-8.65-19,3.34,1.86,6.21,4.44,8.42,7.56,2.29,3.19,3.94,6.78,4.86,10.59,1.79,7.76,1.03,15.89-2.17,23.18-1.57,3.64-3.51,6.77-4.94,9.86-.7,1.52-1.28,3.08-1.73,4.69-.43,1.64-.73,3.31-.89,5-.64,7.11,1,14.23,4.66,20.35Z"/>
            <path class="cls-39" d="M209.01,584.73c-5.75-4.82-9.14-12.56-9.35-20.46-.06-2.01,.09-4.02,.43-6,.37-1.97,.93-3.91,1.66-5.78,1.46-3.67,3.34-6.85,4.65-10,2.74-6.27,3.79-13.15,3.05-19.95-.86-7.07-3.88-13.71-8.65-19,3.34,1.86,6.22,4.44,8.43,7.56,2.25,3.2,3.88,6.81,4.78,10.62,1.79,7.76,1.02,15.89-2.18,23.18-1.56,3.64-3.51,6.76-4.93,9.86-.7,1.51-1.28,3.08-1.73,4.69-.44,1.64-.73,3.31-.89,5-.6,7.09,1.06,14.19,4.73,20.28Z"/>
          </g>
          <path class="cls-12" d="M243.36,632.65h-45.18c-.55,0-1-.45-1-1s.45-1,1-1h45.18c.55,0,1,.45,1,1s-.45,1-1,1Z"/>
          <path class="cls-39" d="M289.61,631.1H104.82c-.55,0-1-.45-1-1s.45-1,1-1h184.79c.55,0,1,.45,1,1s-.45,1-1,1Z"/>
          <path class="cls-10" d="M534.88,708c.08,3.84-.77,7.63-2.48,11.07-1.53,2.84-3.65,4.6-6,4.6H57.84c-4.67,0-8.46-7-8.46-15.67v-.7c.03-.72,.63-1.28,1.35-1.25,.45,.02,.86,.27,1.08,.66,1.53,2.88,3.67,4.68,6,4.68h468.61c2.33,0,4.45-1.76,6-4.58h0c.31-.64,1.08-.91,1.72-.6,.44,.21,.72,.65,.73,1.14,0,.21,.01,.44,.01,.65Z"/>
          <rect class="cls-2" x="49.38" y="693.07" width="485.5" height="31.33" rx="15.66" ry="15.66"/>
          <rect class="cls-2" x="49.38" y="693.07" width="485.5" height="31.33" rx="15.66" ry="15.66"/>
          <path class="cls-35" d="M518.51,723.38l-457.5,1.02c-3.63,0-7.58-2.95-7.58-6.59h-1c0-3.63,0-6.58,3.58-6.58h472.28c3.64,0,4.63,2.28,4.63,5.92l-.59-.39c0,3.63-10.19,6.62-13.82,6.62Z"/>
          <path class="cls-15" d="M51.29,713.08c5.79-6.48,13.8-10.72,22.19-13,8.43-2.09,17.06-3.33,25.74-3.69,8.69-.38,17.39,.07,26,1.32,4.31,.58,8.59,1.38,12.82,2.4,4.23,1.06,8.37,2.38,12.48,3.73s8.18,2.79,12.3,4c4.11,1.27,8.28,2.32,12.49,3.16,8.43,1.62,17.04,2.17,25.61,1.61,17.32-1.11,33.78-7.9,46.85-19.31-6.29,6-13.58,10.86-21.53,14.37-8.01,3.46-16.53,5.59-25.23,6.33-8.69,.72-17.44,.25-26-1.38-4.28-.78-8.52-1.78-12.69-3-4.17-1.22-8.28-2.61-12.37-4s-8.19-2.7-12.34-3.77-8.39-1.8-12.63-2.45c-8.51-1.26-17.11-1.78-25.71-1.57-8.61,.2-17.17,1.26-25.57,3.17-4.17,.96-8.21,2.46-12,4.44-3.84,2-7.35,4.58-10.41,7.64Z"/>
          <path class="cls-15" d="M57.13,720.72c1.18-1.82,2.68-3.41,4.42-4.7,1.75-1.29,3.62-2.41,5.58-3.34,3.87-1.9,7.85-3.57,11.92-5,4.08-1.43,8.26-2.58,12.5-3.44,4.28-.84,8.63-1.32,13-1.43,4.36-.1,8.72,.25,13,1.06,4.28,.82,8.46,2.11,12.46,3.85,7.98,3.46,14.98,8.84,20.36,15.67-6.05-5.96-13.26-10.62-21.18-13.68-3.92-1.48-7.98-2.58-12.12-3.27-4.13-.7-8.32-1-12.51-.87-8.44,.26-16.8,1.66-24.86,4.16-4,1.21-8.07,2.62-12,4.18s-7.78,3.5-10.57,6.81Z"/>
          <path class="cls-15" d="M166.13,692.25c3.79,4.27,8.8,7.28,14.36,8.61,5.52,1.29,11.19,1.79,16.85,1.49,2.84-.07,5.67-.31,8.48-.71,2.81-.38,5.59-.95,8.32-1.69,5.52-1.55,10.77-3.94,15.57-7.09-4.25,4.1-9.33,7.22-14.91,9.14-2.79,.98-5.66,1.73-8.58,2.23-2.91,.48-5.85,.77-8.8,.88-2.95,.08-5.9-.02-8.84-.32-2.96-.31-5.88-.94-8.71-1.87-2.84-.92-5.51-2.3-7.91-4.09-2.37-1.77-4.36-4.01-5.83-6.58Z"/>
          <path class="cls-15" d="M222.34,723c2.92-.49,5.8-1,8.64-1.57s5.65-1.31,8.44-2.07,5.51-1.67,8.21-2.67,5.35-2.08,8-3.26c5.24-2.36,10.29-5.09,15.13-8.19,4.88-3.1,9.13-7.09,12.52-11.77-2,5.58-6.14,10.36-10.82,14.08-4.72,3.68-9.86,6.78-15.32,9.23-2.73,1.22-5.52,2.28-8.37,3.19-2.85,.89-5.74,1.61-8.67,2.17-2.93,.54-5.89,.89-8.86,1.07-2.97,.15-5.94,.08-8.9-.21Z"/>
          <path class="cls-15" d="M532.53,713.08c-3.04-3.06-6.54-5.64-10.36-7.65-3.8-1.98-7.83-3.48-12-4.44-8.4-1.9-16.96-2.96-25.57-3.16-8.6-.21-17.2,.31-25.71,1.57-4.25,.65-8.49,1.39-12.64,2.45s-8.24,2.39-12.33,3.77-8.2,2.74-12.37,4c-4.18,1.22-8.41,2.22-12.69,3-8.56,1.63-17.31,2.1-26,1.38-8.69-.75-17.21-2.89-25.22-6.35-7.99-3.5-15.31-8.37-21.63-14.38,13.07,11.41,29.53,18.2,46.85,19.31,8.57,.56,17.17,.01,25.6-1.61,4.23-.81,8.42-1.83,12.55-3.07,4.12-1.23,8.19-2.65,12.29-4s8.26-2.67,12.49-3.73c4.23-1.02,8.51-1.82,12.82-2.4,8.61-1.25,17.31-1.7,26-1.32,8.68,.36,17.31,1.6,25.74,3.69,8.37,2.22,16.39,6.46,22.18,12.94Z"/>
          <path class="cls-15" d="M526.69,720.72c-2.79-3.31-6.62-5.29-10.55-6.81s-8-3-12-4.18c-8.06-2.5-16.42-3.9-24.85-4.16-4.19-.13-8.38,.16-12.51,.87-4.14,.69-8.2,1.79-12.12,3.27-7.92,3.06-15.13,7.72-21.18,13.68,5.38-6.83,12.38-12.21,20.36-15.67,4-1.74,8.19-3.03,12.48-3.84,4.28-.81,8.64-1.16,13-1.06,4.35,.11,8.68,.59,12.95,1.43,4.24,.86,8.42,2.01,12.51,3.44,4.07,1.43,8.05,3.1,11.92,5,1.96,.93,3.83,2.05,5.58,3.34,1.74,1.29,3.23,2.88,4.41,4.69Z"/>
          <path class="cls-15" d="M417.69,692.25c-1.48,2.56-3.46,4.8-5.83,6.57-2.4,1.79-5.07,3.17-7.92,4.09-2.82,.93-5.74,1.56-8.7,1.87-2.94,.3-5.89,.4-8.84,.32-2.95-.11-5.89-.4-8.8-.88-2.92-.5-5.79-1.24-8.59-2.22-5.58-1.92-10.67-5.04-14.92-9.13,4.8,3.16,10.05,5.57,15.58,7.13,2.74,.74,5.52,1.31,8.33,1.69,2.81,.4,5.64,.64,8.48,.71,5.66,.3,11.33-.2,16.85-1.49,5.56-1.35,10.57-4.37,14.36-8.66Z"/>
          <path class="cls-15" d="M361.47,723c-2.95,.29-5.91,.36-8.87,.21-2.97-.18-5.92-.53-8.85-1.07-2.93-.56-5.83-1.28-8.68-2.17-2.84-.91-5.63-1.97-8.36-3.19-5.46-2.45-10.61-5.54-15.32-9.23-4.68-3.72-8.79-8.5-10.83-14.08,3.4,4.68,7.64,8.67,12.52,11.77,4.84,3.1,9.9,5.83,15.14,8.19,2.62,1.18,5.28,2.26,8,3.26s5.45,1.84,8.21,2.67,5.59,1.48,8.43,2.07,5.7,1.09,8.61,1.57Z"/>
          <path class="cls-39" d="M519.21,725.63H65.01c-9.63-.23-17.25-8.22-17.02-17.85,.22-9.3,7.71-16.79,17.02-17.02h454.2c9.63-.23,17.62,7.39,17.85,17.02s-7.39,17.62-17.02,17.85c-.28,0-.56,0-.84,0Zm-454.2-31.33c-7.67,0-13.89,6.22-13.89,13.89s6.22,13.89,13.89,13.89h454.2c7.67,0,13.89-6.22,13.89-13.89s-6.22-13.89-13.89-13.89H65.01Z"/>
          <polygon class="cls-12" points="7.42 646.29 7.57 632.85 78.57 633.05 78.42 646.49 7.42 646.29"/>
          <polygon class="cls-32" points="8.35 646.59 8.45 637.1 79.45 637.3 79.35 646.79 8.35 646.59"/>
          <polygon class="cls-27" points="8.35 646.59 8.41 641.4 79.4 641.61 79.35 646.79 8.35 646.59"/>
          <path class="cls-39" d="M79.01,648.42h0l-71-.21c-.82,0-1.49-.66-1.5-1.48,0-.01,0-.02,0-.03l.15-13.44c.01-.82,.68-1.48,1.5-1.48h0l71,.2c.83,0,1.5,.68,1.49,1.51,0,0,0,0,0,.01l-.14,13.43c-.01,.82-.68,1.48-1.5,1.49Zm-69.48-3.2l68,.19,.08-10.41-68-.2-.08,10.42Z"/>
          <path class="cls-39" d="M6.45,646.52c-3.46,0-6.31-2.73-6.44-6.19-.08-1.71,.54-3.37,1.7-4.62,1.16-1.26,2.77-2.01,4.48-2.07,.55-.02,1.02,.41,1.04,.96,.02,.55-.41,1.02-.96,1.04-1.18,.04-2.29,.55-3.09,1.42-1.66,1.8-1.55,4.61,.25,6.27,.87,.8,2.01,1.22,3.19,1.18,.55-.02,1.02,.41,1.04,.96,.02,.55-.41,1.02-.96,1.04h-.25Z"/>
        </g>
        <path class="cls-39" d="M641.46,992.69h-247.35c-1.38,0-2.5-1.12-2.5-2.5s1.12-2.5,2.5-2.5h247.35c1.38,0,2.5,1.12,2.5,2.5s-1.12,2.5-2.5,2.5Z"/>
        <path class="cls-39" d="M341.17,992.69H93.82c-1.38,0-2.5-1.12-2.5-2.5s1.12-2.5,2.5-2.5h247.35c1.38,0,2.5,1.12,2.5,2.5s-1.12,2.5-2.5,2.5Z"/>
        <g class="cls-49">
          <path class="cls-38" d="M561.95,841h-12.5v-21.1h37.14c.83,0,1.5,.67,1.5,1.5s-.67,1.5-1.5,1.5h-34.11v15.1h9.47c.83,0,1.5,.67,1.5,1.5s-.67,1.5-1.5,1.5h0Z"/>
          <path class="cls-38" d="M571.78,841h-5.41c-.83,0-1.5-.67-1.5-1.5s.67-1.5,1.5-1.5h5.41c.83,0,1.5,.67,1.5,1.5s-.67,1.5-1.5,1.5Z"/>
          <path class="cls-38" d="M575.95,841h-.11c-.83,0-1.5-.67-1.5-1.5s.67-1.5,1.5-1.5h.11c.83,0,1.5,.67,1.5,1.5s-.67,1.5-1.5,1.5Z"/>
          <path class="cls-38" d="M602.24,841h-22.08c-.83,0-1.5-.67-1.5-1.5s.67-1.5,1.5-1.5h19.08v-15.1h-6.62c-.83,0-1.5-.67-1.5-1.5s.67-1.5,1.5-1.5h9.67l-.05,21.1Z"/>
          <path class="cls-38" d="M576.95,822.9h-52.75v-21h52.75v21Zm-49.76-3h46.76v-15h-46.75v15Z"/>
        </g>
        <path class="cls-4" d="M307.8,908.85h42.32c0-67.93,15.6-230.75,15.76-232.11l-42-4.89c-.7,5.64-16.08,166.64-16.08,237Z"/>
        <path class="cls-45" d="M362.22,703.35h-39.57s-13.07-27.2,39.92-16.6l-.35,16.6Z"/>
        <path class="cls-4" d="M445.36,908.85h-42.35c0-67.93-15.59-230.75-15.75-232.11l42-4.89c.75,5.64,16.1,166.64,16.1,237Z"/>
        <path class="cls-45" d="M444.69,870.27c-4.7-12.78-8.12-66.09-10.66-79.46-5-26.49-6.7-41.39-9-68.25-.39-4.49-.81-9-2.49-13.22-1-2.37-2.44-4.7-4.75-5.79-2.84-1.34-6.17-.52-9.29-.09-6.25,.83-12.61-.03-18.42-2.5-1.25-11.54-2.07-18.62-2.07-18.96l42-4.89c.55,4.65,10.9,122.14,14.68,193.16Z"/>
        <path class="cls-39" d="M445.36,910.85h-42.35c-1.1,0-2-.9-2-2,0-67.71-15.58-230.46-15.74-231.88-.12-1.1,.66-2.08,1.76-2.21l42-4.89c1.1-.13,2.09,.65,2.22,1.75,1,8.66,16.05,168.39,16.05,237.23,0,1.08-.86,1.97-1.94,2Zm-40.33-4h38.32c-.27-66.63-13.74-212.51-15.81-232.78l-38.08,4.43c1.79,18.68,15.29,163.5,15.55,228.35h.02Z"/>
        <path class="cls-39" d="M350.12,910.85h-42.32c-1.1,0-2-.9-2-2,0-68.8,15-228.56,16-237.23,.13-1.1,1.12-1.88,2.22-1.75l42,4.89c1.1,.13,1.88,1.11,1.76,2.21-.16,1.42-15.75,164.26-15.75,231.88,0,1.07-.84,1.95-1.91,2Zm-40.31-4h38.32c.28-64.76,13.78-209.65,15.57-228.35l-38.09-4.43c-2.06,20.28-15.53,166.18-15.8,232.78Z"/>
        <path class="cls-20" d="M321.82,946.95h10.27c17.28,0,31.28,14,31.28,31.28h0v.8c0,5.97-4.84,10.81-10.81,10.81h-51.22c-5.97,0-10.81-4.85-10.8-10.82,0,0,0-.01,0-.02v-.8c.02-17.26,14.02-31.25,31.28-31.25Z"/>
        <rect class="cls-8" x="317.09" y="912.72" width="25.4" height="35.17"/>
        <rect class="cls-26" x="317.09" y="912.72" width="25.4" height="19.19"/>
        <path class="cls-39" d="M342.49,949.72h-25.4c-.83,0-1.5-.67-1.5-1.5v-35.17c0-.83,.67-1.5,1.5-1.5h25.4c.83,0,1.5,.67,1.5,1.5h0v35.17c0,.83-.67,1.5-1.5,1.5Zm-23.9-3h22.42v-32.17h-22.4l-.02,32.17Z"/>
        <rect class="cls-46" x="297.45" y="889.67" width="63.52" height="33.37" rx="16.27" ry="16.27"/>
        <path class="cls-30" d="M360.72,907.1v.84c0,1.14-.12,2.27-.36,3.38-1.58-7.53-8.22-12.93-15.92-12.92h-31c-7.69,0-14.33,5.39-15.92,12.92-.24-1.11-.36-2.24-.35-3.38v-.84c0-8.98,7.29-16.26,16.27-16.27h31c8.99,0,16.27,7.27,16.28,16.26h0Z"/>
        <path class="cls-39" d="M344.54,924.56h-31c-9.81-.02-17.76-7.97-17.77-17.78v-.78c.01-9.81,7.96-17.76,17.77-17.78h31c9.81,.02,17.76,7.97,17.78,17.78v.82c-.04,9.8-7.98,17.72-17.78,17.74Zm-31-33.38c-8.16,.03-14.76,6.66-14.74,14.82v.82c0,8.16,6.61,14.77,14.77,14.78h31c8.16-.01,14.77-6.62,14.78-14.78v-.82c-.01-8.16-6.62-14.77-14.78-14.78l-31.03-.04Z"/>
        <path class="cls-39" d="M318.6,912.53h-18.87c-.55,0-1-.45-1-1s.45-1,1-1h18.87c.55,0,1,.45,1,1s-.45,1-1,1Z"/>
        <path class="cls-39" d="M358.66,901.3h-8.83c-.55,0-1-.45-1-1s.45-1,1-1h8.83c.55,0,1,.45,1,1s-.45,1-1,1Z"/>
        <rect class="cls-29" x="290.77" y="977.37" width="71.42" height="2"/>
        <path class="cls-21" d="M342.01,969.51c-13.07-8.61-29.47-10.44-44.12-4.92h-.14c-6,0-8.4,20.35-8.4,14.38v-.79c.05-17.23,14.03-31.17,31.26-31.18h10.26c17.27,0,31.27,13.99,31.28,31.26v.02l-1.56-8.37c0,2.93-8.52,6.22-18.58-.4Z"/>
        <path class="cls-39" d="M352.32,990.87h-51.21c-6.79-.01-12.3-5.52-12.31-12.31v-.8c.03-18.09,14.69-32.74,32.78-32.76h10.27c18.09,.02,32.76,14.69,32.78,32.78v.8c-.02,6.79-5.52,12.28-12.31,12.29Zm-30.74-42.87c-16.44,.02-29.76,13.34-29.78,29.78v.8c.01,5.14,4.17,9.3,9.31,9.31h51.21c5.14-.01,9.3-4.17,9.31-9.31v-.8c-.02-16.44-13.34-29.76-29.78-29.78h-10.27Z"/>
        <path class="cls-39" d="M362.15,976.81h-51.45c-.55,0-1-.45-1-1s.45-1,1-1h51.45c.55,0,1,.45,1,1s-.45,1-1,1Z"/>
        <path class="cls-39" d="M303.95,976.81h-11.82c-.55,0-1-.45-1-1s.45-1,1-1h11.82c.55,0,1,.45,1,1s-.45,1-1,1Z"/>
        <circle class="cls-39" cx="327.06" cy="911.42" r="3.68"/>
        <rect class="cls-8" x="413.98" y="912.01" width="25.4" height="35.17"/>
        <rect class="cls-26" x="413.98" y="912.01" width="25.4" height="19.19"/>
        <path class="cls-39" d="M439.39,949h-25.38c-.83,0-1.5-.67-1.5-1.5h0v-35.16c0-.83,.67-1.5,1.5-1.5h25.41c.83,0,1.5,.67,1.5,1.5v35.17c0,.83-.68,1.5-1.51,1.49,0,0-.01,0-.02,0Zm-23.91-3h22.41v-32.16h-22.41v32.16Z"/>
        <rect class="cls-46" x="392.67" y="892.16" width="63.52" height="33.37" rx="16.27" ry="16.27"/>
        <path class="cls-30" d="M455.94,909.17v.83c0,1.13-.12,2.26-.35,3.37-1.58-7.53-8.23-12.91-15.92-12.91h-31c-7.69,.01-14.32,5.39-15.92,12.91-.23-1.11-.35-2.24-.35-3.37v-.84c0-8.98,7.29-16.26,16.27-16.27h31c8.99,0,16.27,7.28,16.27,16.27h0Z"/>
        <path class="cls-39" d="M439.77,926.63h-31c-9.8-.03-17.74-7.98-17.76-17.78v-.85c.02-9.81,7.97-17.76,17.78-17.77h31c9.8,.02,17.74,7.97,17.75,17.77v.83c0,9.82-7.95,17.78-17.77,17.8Zm-31-33.38c-8.14,.02-14.74,6.61-14.76,14.75v.83c.01,8.16,6.62,14.77,14.78,14.78h31c8.16-.01,14.76-6.62,14.77-14.78v-.83c-.01-8.15-6.62-14.76-14.77-14.77l-31.02,.02Z"/>
        <path class="cls-39" d="M413.83,914.6h-18.82c-.55,0-1-.45-1-1s.45-1,1-1h18.87c.55,0,1,.45,1,1s-.45,1-1,1h-.05Z"/>
        <path class="cls-39" d="M453.89,903.37h-8.88c-.55,0-1-.45-1-1s.45-1,1-1h8.84c.55,0,1,.45,1,1s-.45,1-1,1h.04Z"/>
        <path class="cls-20" d="M422.01,946.24h10.27c17.28,0,31.28,14,31.28,31.28h0v.8c0,5.97-4.84,10.81-10.81,10.81h-51.21c-5.97,0-10.81-4.84-10.81-10.81v-.8c0-17.28,14-31.28,31.28-31.28h0Z"/>
        <path class="cls-21" d="M443.4,968.8c-13.07-8.61-29.47-10.44-44.12-4.92l-.14,.06c-6,0-8.41,20.34-8.41,14.38v-.8c0-17.28,14-31.28,31.28-31.28h10.27c17.28,0,31.28,14,31.28,31.28h0l-1.55-8.37c0,2.98-8.53,6.28-18.61-.35Z"/>
        <path class="cls-39" d="M462.35,976.1h-11.81c-.55,0-1-.45-1-1s.45-1,1-1h11.81c.55,0,1,.45,1,1s-.45,1-1,1Z"/>
        <path class="cls-39" d="M443.69,976.1h-40.18c-.55,0-1-.45-1-1s.45-1,1-1h40.18c.55,0,1,.45,1,1s-.45,1-1,1Z"/>
        <rect class="cls-29" x="390.62" y="976.66" width="71.42" height="2"/>
        <circle class="cls-39" cx="442.97" cy="917.81" r="2.38"/>
        <path class="cls-39" d="M452.52,990.16h-51.21c-6.79-.01-12.29-5.52-12.3-12.31v-.8c.02-18.09,14.69-32.75,32.78-32.77h10.22c18.09,.02,32.75,14.68,32.77,32.77v.8c0,6.78-5.48,12.28-12.26,12.31Zm-30.74-42.88c-16.43,.02-29.75,13.34-29.77,29.77v.8c.01,5.14,4.17,9.3,9.31,9.31h51.21c5.14-.01,9.29-4.17,9.3-9.31v-.8c-.02-16.45-13.37-29.78-29.82-29.77h-10.23Z"/>
        <path class="cls-39" d="M446.82,933.91h-12.13c-.55,0-1-.45-1-1s.45-1,1-1h12.13c.55,0,1,.45,1,1s-.45,1-1,1Z"/>
        <path class="cls-39" d="M444.01,939.94h-9.33c-.55,0-1-.45-1-1s.45-1,1-1h9.33c.55,0,1,.45,1,1s-.45,1-1,1Z"/>
        <path class="cls-46" d="M297.28,539.74h142.93v116.67c0,17.6-14.26,31.86-31.86,31.86h-79.2c-17.6,0-31.86-14.26-31.86-31.86v-116.67h-.01Z"/>
        <path class="cls-30" d="M296.23,541.9h155.1v115.34c0,18.33-14.86,33.19-33.19,33.19h-88.72c-18.33,0-33.19-14.86-33.19-33.19h0v-115.34h0Z"/>
        <path class="cls-4" d="M304.35,541.9h148.66v116c0,17.95-14.55,32.5-32.5,32.5h-83.66c-17.95,0-32.5-14.55-32.5-32.5h0v-116h0Z"/>
        <path class="cls-4" d="M304.35,541.9h148.66v116c0,17.95-14.55,32.5-32.5,32.5h-83.66c-17.95,0-32.5-14.55-32.5-32.5h0v-116h0Z"/>
        <path class="cls-45" d="M304.35,493.86h148.66v148.54h-139.34c-5.14,0-9.31-4.17-9.31-9.31v-139.23h-.01Z"/>
        <path class="cls-39" d="M419.84,692.44h-88.71c-19.43-.03-35.17-15.77-35.19-35.2v-115.34c0-1.1,.9-2,2-2h155.07c1.1,0,2,.9,2,2v115.34c-.02,19.42-15.75,35.16-35.17,35.2Zm-119.9-148.54v113.34c.02,17.22,13.97,31.18,31.19,31.2h88.71c17.22-.02,31.18-13.98,31.2-31.2v-113.34h-151.1Z"/>
        <ellipse class="cls-12" cx="305.23" cy="653.08" rx="2.25" ry="3.41" transform="translate(-33.32 16.63) rotate(-2.96)"/>
        <circle class="cls-12" cx="304.97" cy="661.62" r="1.6"/>
        <ellipse class="cls-39" cx="435.8" cy="681.85" rx="3.55" ry="3.41"/>
        <circle class="cls-39" cx="436.89" cy="672.44" r="1.91"/>
        <circle class="cls-39" cx="441.66" cy="664.66" r="1.77"/>
        <path class="cls-39" d="M459.35,648.48c-14.07-.02-25.46-11.41-25.48-25.48v-3.49c0-.83,.67-1.5,1.5-1.5s1.5,.67,1.5,1.5v3.49c.01,12.41,10.07,22.47,22.48,22.48,.83,0,1.5,.67,1.5,1.5s-.67,1.5-1.5,1.5Z"/>
        <path class="cls-39" d="M291.81,649.48c-.83,0-1.5-.67-1.5-1.5s.67-1.5,1.5-1.5c12.41-.02,22.46-10.07,22.48-22.48v-3.49c0-.83,.67-1.5,1.5-1.5s1.5,.67,1.5,1.5v3.49c-.02,14.07-11.41,25.46-25.48,25.48Z"/>
        <path class="cls-41" d="M321.84,781.7h-.12c-.55-.06-.94-.56-.88-1.11,0,0,0,0,0,0,0-.12,1.43-12.66,2.82-28.57,.05-.55,.53-.96,1.08-.91,0,0,0,0,0,0,.55,.05,.95,.53,.9,1.08-1.39,15.94-2.81,28.5-2.82,28.63-.06,.5-.49,.88-.99,.88Z"/>
        <path class="cls-41" d="M326.65,778.18h-.1c-.55-.05-.95-.54-.9-1.09,.46-4.7,.89-9.36,1.29-13.87,.05-.55,.53-.96,1.08-.91,.55,.05,.96,.53,.92,1.08-.39,4.52-.83,9.19-1.29,13.89-.05,.51-.48,.9-1,.9Z"/>
        <path class="cls-41" d="M336.17,874.1c.36-2.26,1.04-4.47,2-6.55,.4-.87-.89-1.63-1.3-.75-1.02,2.19-1.74,4.51-2.13,6.9-.15,.94,1.3,1.35,1.45,.4h-.02Z"/>
        <path class="cls-41" d="M338.89,876.83c.17-1.41,.47-2.81,.89-4.17,.28-.92-1.17-1.32-1.45-.4-.45,1.49-.77,3.02-.94,4.57-.11,.95,1.39,.95,1.5,0Z"/>
        <path class="cls-41" d="M431.94,836.42l-1.42-2.65c-.46-.85-1.75-.09-1.3,.76l1.42,2.65c.46,.85,1.76,.09,1.3-.76Z"/>
        <path class="cls-41" d="M429.75,830.18l1.71,2.65c.53,.81,1.83,.06,1.3-.75l-1.75-2.66c-.52-.81-1.82-.06-1.3,.76h.04Z"/>
        <path class="cls-41" d="M402.89,789.11c2.31-12.96,4.25-25.98,5.81-39.06,.12-1-1.39-.95-1.5,0-1.55,12.94-3.46,25.83-5.75,38.66-.17,.95,1.27,1.35,1.44,.4Z"/>
        <path class="cls-41" d="M409.39,772.71c2.17-10.26,4.07-20.57,5.71-30.93,.15-.95-1.3-1.36-1.45-.4-1.63,10.36-3.53,20.67-5.7,30.93-.2,.94,1.25,1.34,1.44,.4h0Z"/>
        <path class="cls-41" d="M399.09,830.34c-.7,.45-1.54,.61-2.36,.46-.94-.19-1.34,1.26-.4,1.44,1.2,.27,2.47,.05,3.51-.61,.82-.51,.07-1.81-.75-1.29h0Z"/>
        <path class="cls-41" d="M400.64,831c-1.63-.86-3.01-2.12-4-3.68-.52-.81-1.81-.06-1.29,.76,1.12,1.78,2.68,3.23,4.54,4.21,.86,.45,1.62-.84,.76-1.29h-.01Z"/>
        <path class="cls-41" d="M433.84,705c1.61-.59,3.1-1.47,4.41-2.58,.74-.62-.33-1.68-1.06-1.06-1.11,.94-2.37,1.69-3.74,2.19-.9,.33-.51,1.78,.39,1.45h0Z"/>
        <path class="cls-41" d="M433.01,705.39l2.92,2.05c.79,.55,1.54-.75,.76-1.3l-2.92-2c-.79-.55-1.54,.75-.76,1.3v-.05Z"/>
        <path class="cls-41" d="M403.34,891.32l-2.33-3.19c-.57-.77-1.87,0-1.29,.76l2.37,3.18c.57,.77,1.87,0,1.29-.75h-.04Z"/>
        <path class="cls-41" d="M404.27,892.45c-1.83-1.28-3.9-2.17-6.09-2.61-.94-.19-1.34,1.26-.39,1.45,2.06,.41,4.01,1.24,5.72,2.45,.79,.56,1.54-.74,.76-1.29h0Z"/>
        <path class="cls-41" d="M415.46,944.65l-.29-.29c-.3-.28-.78-.27-1.06,.04-.27,.29-.27,.73,0,1.02l.29,.29c.3,.28,.78,.27,1.06-.04,.27-.29,.27-.73,0-1.02Z"/>
        <path class="cls-41" d="M315.94,673.77l2.61,2.93c.65,.72,1.7-.34,1.06-1.06l-2.6-2.94c-.65-.72-1.7,.35-1.06,1.07h-.01Z"/>
        <path class="cls-41" d="M319.01,673.27l4.65,3.24c.8,.55,1.55-.75,.76-1.3l-4.62-3.21c-.8-.55-1.55,.75-.76,1.3l-.03-.03Z"/>
        <path class="cls-41" d="M312.93,592.25l3.5-3.51c.69-.68-.37-1.74-1.06-1.06l-3.5,3.51c-.69,.68,.37,1.74,1.06,1.06Z"/>
        <path class="cls-41" d="M316.84,593.5l6.44-4.08c.81-.52,.06-1.82-.76-1.3l-6.43,4.08c-.82,.52-.06,1.82,.75,1.3Z"/>
        <g class="cls-49">
          <path class="cls-38" d="M177.78,816.71h-.29c-.83,0-1.5-.67-1.5-1.5s.67-1.5,1.5-1.5h.29c.83,0,1.5,.67,1.5,1.5s-.67,1.5-1.5,1.5Z"/>
          <path class="cls-38" d="M188.67,816.71h-6c-.83,0-1.5-.67-1.5-1.5s.67-1.5,1.5-1.5h3v-15.06h-46.76v15.06h27.19c.83,0,1.5,.67,1.5,1.5s-.67,1.5-1.5,1.5h-30.19v-21.06h52.76v21.06Z"/>
          <path class="cls-38" d="M173.4,816.71h-2.62c-.83,0-1.5-.67-1.5-1.5s.67-1.5,1.5-1.5h2.67c.83,0,1.5,.67,1.5,1.5s-.67,1.5-1.5,1.5h-.05Z"/>
          <path class="cls-38" d="M148.41,852.82h-12.5v-21.06h37.1c.83,0,1.5,.67,1.5,1.5s-.67,1.5-1.5,1.5h-34.1v15.06h9.5c.83,0,1.5,.67,1.5,1.5s-.67,1.5-1.5,1.5Z"/>
          <path class="cls-38" d="M158.21,852.82h-5.43c-.83,0-1.5-.67-1.5-1.5s.67-1.5,1.5-1.5h5.41c.83,0,1.5,.67,1.5,1.5s-.67,1.5-1.5,1.5h.02Z"/>
          <path class="cls-38" d="M162.34,852.82h-.11c-.83,0-1.5-.67-1.5-1.5s.67-1.5,1.5-1.5h.11c.83,0,1.5,.67,1.5,1.5s-.67,1.5-1.5,1.5Z"/>
          <path class="cls-38" d="M188.67,852.82h-22.08c-.83,0-1.5-.67-1.5-1.5s.67-1.5,1.5-1.5h19.08v-15.06h-6.66c-.83,0-1.5-.67-1.5-1.5s.67-1.5,1.5-1.5h9.67v21.06Z"/>
          <path class="cls-38" d="M163.39,834.76h-52.76v-21h52.76v21Zm-49.76-3h46.76v-15h-46.76v15Z"/>
        </g>
        <g class="cls-50">
          <rect class="cls-43" x="104.76" y="180.01" width="137.91" height="137.91"/>
          <rect class="cls-23" x="114.6" y="303.74" width="119.55" height="6.38"/>
          <rect class="cls-23" x="226.69" y="188.87" width="6.27" height="115.51"/>
          <path class="cls-39" d="M242.66,320H104.76c-1.14,0-2.06-.92-2.06-2.06V180c0-1.14,.92-2.06,2.06-2.06H242.66c1.14,0,2.06,.92,2.06,2.06v137.9c.02,1.14-.88,2.08-2.02,2.1-.01,0-.03,0-.04,0Zm-135.84-4.11H240.61V182.06H106.82v133.83Z"/>
          <path class="cls-39" d="M233.6,310.22H113.83c-.76,0-1.37-.6-1.38-1.36,0,0,0,0,0-.01v-119.78c0-.76,.61-1.37,1.37-1.37,0,0,0,0,.01,0h119.77c.76,0,1.37,.61,1.37,1.37v119.78c0,.76-.61,1.37-1.37,1.37Zm-118.4-2.75h117v-117H115.2v117Z"/>
          <path class="cls-12" d="M126.83,264.61c-1.1,0-2-.9-2-2v-36.81c0-1.1,.9-2,2-2s2,.9,2,2v36.81c0,1.1-.9,2-2,2Z"/>
          <path class="cls-12" d="M126.83,215.83c-1.1,0-2-.9-2-2v-13.44c0-1.1,.9-2,2-2s2,.9,2,2v13.44c0,1.1-.9,2-2,2h0Z"/>
        </g>
        <rect class="cls-32" x="605.84" y="483.58" width="41.18" height="5.76" transform="translate(-44.1 910.08) rotate(-70.11)"/>
        <rect class="cls-27" x="634.33" y="464.07" width="3.42" height="5.76" transform="translate(-17.37 909.26) rotate(-70.38)"/>
        <path class="cls-39" d="M625.51,506.09c-.09,.01-.19,.01-.28,0l-5.43-1.93c-.21-.08-.38-.23-.47-.43-.09-.2-.09-.44,0-.64l13.83-38.81c.07-.21,.23-.38,.43-.47,.2-.08,.44-.08,.64,0l5.43,1.94c.43,.15,.66,.63,.5,1.06,0,0,0,0,0,0l-13.83,38.8c-.15,.31-.48,.5-.82,.47Zm-4.36-3.28l3.86,1.38,13.27-37.19-3.86-1.37-13.27,37.18Z"/>
        <rect class="cls-12" x="555.25" y="529.51" width="111" height="13.44" transform="translate(-99.43 931.47) rotate(-70.38)"/>
        <rect class="cls-32" x="557.7" y="531.38" width="111" height="9.48" transform="translate(-97.7 933.7) rotate(-70.38)"/>
        <rect class="cls-27" x="559.72" y="534.25" width="111" height="5.18" transform="translate(-97.03 936.08) rotate(-70.38)"/>
        <path class="cls-39" d="M599.01,591.88c-.17,0-.34-.03-.5-.09l-12.66-4.51c-.38-.13-.68-.41-.85-.77-.17-.36-.19-.77-.06-1.15l37.3-104.56c.28-.78,1.14-1.18,1.92-.91l12.66,4.52c.37,.13,.68,.41,.85,.77,.17,.36,.19,.77,.05,1.14l-37.27,104.56c-.21,.61-.79,1.01-1.44,1Zm-10.71-6.88l9.83,3.5,36.27-101.73-9.84-3.51-36.26,101.74Z"/>
        <path class="cls-12" d="M163.26,556.63c-9.42-.41-17.59-6.84-19.24-15.81-1.9-10.35,5.62-20.17,16.79-21.93,31.74-5,77.35-33.17,98.78-68.65,10.26-17.02,18.16-35.35,23.48-54.5,2.5-10.24,13.48-16.67,24.53-14.35s18,12.49,15.49,22.73c-6.2,22.74-15.53,44.51-27.7,64.7-27.4,45.36-83.76,80.64-127.71,87.56-1.46,.24-2.94,.32-4.42,.25Z"/>
        <path class="cls-34" d="M321.5,403c-6.2,22.74-15.52,44.52-27.69,64.7-27.41,45.36-83.77,80.64-127.72,87.57-1.46,.23-2.94,.31-4.42,.25-6.86-.22-13.17-3.82-16.86-9.61,2.47,1.08,5.11,1.69,7.8,1.81,1.48,.06,2.96-.02,4.43-.25,43.95-6.92,100.31-42.2,127.7-87.57,12.18-20.18,21.5-41.95,27.71-64.69,1.13-4.64,.34-9.53-2.18-13.58,8.51,3.73,13.38,12.53,11.23,21.37Z"/>
        <path class="cls-39" d="M215.01,496.84c-.97,.01-1.76-.76-1.77-1.73,0-.59,.28-1.14,.77-1.47,8.02-5.43,15.57-11.52,22.57-18.21,.71-.67,1.83-.64,2.5,.07s.64,1.83-.07,2.5h0c-7.13,6.83-14.83,13.04-23,18.58-.3,.19-.65,.28-1,.26Z"/>
        <path class="cls-39" d="M164.23,558.13h-1c-10.35-.46-19.13-7.71-20.88-17.25-.97-5.25,.25-10.67,3.37-15,3.55-4.87,8.91-8.12,14.87-9,13.92-2.2,30.48-8.88,46.65-18.83,.84-.49,1.92-.21,2.41,.63,.48,.82,.23,1.86-.57,2.37-16.55,10.19-33.58,17-47.94,19.31-5.03,.74-9.56,3.48-12.55,7.59-2.56,3.55-3.57,7.98-2.79,12.29,1.46,7.94,8.86,14,17.59,14.37,1.36,.06,2.72-.02,4.07-.23,46.68-7.36,101.06-44.65,126.48-86.74,12.09-20.03,21.35-41.63,27.5-64.2,1.03-4.26,.26-8.76-2.12-12.44-2.75-4.24-7.1-7.19-12.06-8.18-10.12-2.12-20.2,3.74-22.47,13.06-5.37,19.32-13.33,37.82-23.68,55-4.13,6.77-8.89,13.13-14.21,19-.6,.76-1.71,.9-2.47,.3-.76-.6-.9-1.71-.3-2.47,.05-.06,.1-.12,.16-.18,5.18-5.7,9.81-11.87,13.82-18.44,10.16-16.87,17.99-35.03,23.27-54,2.72-11.14,14.65-18.16,26.6-15.65,5.89,1.18,11.04,4.69,14.31,9.73,2.87,4.49,3.78,9.96,2.52,15.14-6.25,22.91-15.63,44.85-27.9,65.18-25.91,42.9-81.34,80.9-128.94,88.4-1.24,.17-2.49,.25-3.74,.24Z"/>
        <ellipse class="cls-8" cx="148.7" cy="543.08" rx="23.71" ry="21.97"/>
        <path class="cls-7" d="M151.36,564.31c-.97-.01-1.75-.81-1.74-1.78,.01-.84,.61-1.55,1.44-1.71h0c2.87-.62,5.62-1.75,8.1-3.32,4.98-2.93,8.1-8.22,8.25-14,.1-.97,.97-1.67,1.93-1.57,.88,.09,1.56,.83,1.58,1.72-.76,17.19-19.06,20.62-19.25,20.65-.1,.01-.21,.02-.31,0Z"/>
        <path class="cls-39" d="M148.72,566.35c-7.08,.06-13.88-2.78-18.8-7.87-4.34-4.48-6.59-10.58-6.2-16.81,.44-6.33,3.53-12.19,8.51-16.13,.47-.56,1.3-.63,1.86-.16s.63,1.3,.16,1.86c-.1,.12-.22,.22-.36,.3-4.4,3.48-7.14,8.66-7.54,14.26-.34,5.49,1.65,10.88,5.48,14.83,8.16,8.62,22.37,9.47,31.67,1.91,4.38-3.48,7.11-8.64,7.51-14.22,.33-5.49-1.66-10.88-5.49-14.83-.54-.49-.59-1.32-.1-1.86,.49-.54,1.32-.59,1.86-.1,.05,.05,.1,.1,.15,.15,4.34,4.48,6.6,10.58,6.21,16.81-.45,6.34-3.54,12.19-8.52,16.13-4.65,3.73-10.44,5.76-16.4,5.73Z"/>
        <path class="cls-12" d="M590.32,556.63c9.42-.41,17.59-6.84,19.23-15.81,1.9-10.35-5.62-20.17-16.78-21.93-31.75-5-77.36-33.17-98.79-68.65-10.26-17.02-18.16-35.35-23.48-54.5-2.49-10.24-13.49-16.67-24.49-14.35s-18,12.49-15.49,22.73c6.21,22.74,15.53,44.51,27.7,64.7,27.4,45.36,83.76,80.64,127.71,87.56,1.45,.23,2.92,.32,4.39,.25Z"/>
        <path class="cls-34" d="M432.07,403c6.2,22.74,15.53,44.51,27.7,64.69,27.4,45.36,83.76,80.64,127.71,87.57,1.47,.23,2.95,.31,4.43,.25,6.86-.23,13.17-3.82,16.86-9.61-2.47,1.08-5.12,1.69-7.81,1.81-1.48,.06-2.96-.02-4.42-.25-43.95-6.92-100.32-42.2-127.71-87.57-12.17-20.18-21.5-41.95-27.7-64.69-1.14-4.63-.35-9.53,2.17-13.58-8.5,3.74-13.38,12.54-11.23,21.38Z"/>
        <path class="cls-39" d="M589.34,558.13c-1.25,0-2.5-.1-3.74-.29-47.6-7.5-103-45.5-128.94-88.4-12.27-20.33-21.65-42.27-27.9-65.18-1.26-5.18-.35-10.65,2.52-15.14,3.27-5.04,8.43-8.55,14.32-9.73,12-2.51,23.88,4.51,26.59,15.65,5.29,18.97,13.13,37.13,23.28,54,21.63,35.81,67.48,63.09,97.55,67.83,5.96,.88,11.32,4.13,14.87,9,3.12,4.33,4.34,9.75,3.37,15-1.75,9.54-10.53,16.79-20.88,17.25h-1.04Zm-138.8-175.77c-1.4,0-2.8,.14-4.18,.43-4.98,.99-9.35,3.96-12.11,8.22-2.36,3.69-3.11,8.18-2.07,12.43,6.15,22.57,15.4,44.17,27.49,64.2,25.43,42.09,79.8,79.38,126.48,86.74,1.35,.21,2.72,.29,4.08,.23h0c8.73-.38,16.12-6.43,17.58-14.37,.78-4.31-.23-8.75-2.8-12.29-3-4.11-7.52-6.84-12.55-7.59-30.86-4.86-77.87-32.81-100-69.48-10.34-17.18-18.3-35.68-23.68-55-1.95-8.02-9.71-13.48-18.28-13.48l.04-.04Z"/>
        <ellipse class="cls-8" cx="604.87" cy="543.08" rx="23.71" ry="21.97"/>
        <path class="cls-7" d="M602.21,564.31c-.1,0-.21,0-.31,0-.18,0-18.49-3.46-19.25-20.65,.02-.97,.82-1.74,1.79-1.73,.89,.02,1.62,.69,1.72,1.58,.16,5.77,3.28,11.06,8.25,14,2.49,1.58,5.23,2.7,8.11,3.32,.96,.18,1.59,1.1,1.41,2.05-.15,.83-.87,1.43-1.72,1.44h0Z"/>
        <path class="cls-39" d="M604.86,566.35c-5.98,.04-11.79-1.99-16.45-5.73-4.98-3.94-8.07-9.8-8.51-16.13-.39-6.23,1.86-12.33,6.2-16.81,.46-.57,1.29-.66,1.86-.2,.57,.46,.66,1.29,.2,1.86-.04,.06-.09,.11-.15,.15-3.83,3.95-5.82,9.34-5.49,14.83,.4,5.6,3.14,10.78,7.55,14.26,9.3,7.56,23.51,6.71,31.67-1.91,3.83-3.95,5.82-9.34,5.48-14.83-.4-5.6-3.14-10.78-7.54-14.26-.63-.36-.86-1.17-.5-1.8,.36-.63,1.17-.86,1.8-.5,.14,.08,.26,.18,.36,.3,4.98,3.94,8.07,9.8,8.51,16.13,.39,6.23-1.86,12.33-6.2,16.81-4.93,5.07-11.72,7.9-18.79,7.83Z"/>
        <path class="cls-12" d="M387.01,351h-24.14c-37.42,0-67.76,30.34-67.76,67.76h0v201.81c0,5.43,4.4,7.82,9.82,7.82h140.08c5.43,0,9.83-1.39,9.83-6.82v-202.81c0-37.42-30.34-67.76-67.76-67.76-.02,0-.05,0-.07,0Z"/>
        <path class="cls-39" d="M448.14,632.12h-145.23c-5.1,0-9.22-4.13-9.23-9.23v-204.6c.04-38.67,31.38-70.01,70.05-70.05h23.59c38.67,.05,70,31.38,70.05,70.05v204.6c0,5.1-4.13,9.22-9.23,9.23Zm-84.41-279.88c-36.46,.04-66.01,29.59-66.05,66.05v204.6c0,2.89,2.34,5.23,5.23,5.23h145.23c2.89,0,5.23-2.34,5.23-5.23v-204.6c-.04-36.46-29.59-66.01-66.05-66.05h-23.59Z"/>
        <path class="cls-39" d="M296.01,172.08c-4.29-5.38-10.97-8.29-17.84-7.77,1.39-2.09,3.63-3.45,6.12-3.71-1.87-1.62-3.9-3.03-6.06-4.23,13.85-3.12,28.2,2.47,36.3,14.12"/>
        <path class="cls-39" d="M295.21,191.2c-4.29-5.38-10.97-8.29-17.84-7.77,1.39-2.08,3.63-3.44,6.12-3.71-1.87-1.62-3.9-3.03-6.06-4.23,13.85-3.12,28.2,2.47,36.3,14.12"/>
        <path class="cls-39" d="M456.95,200.3c4.29-5.39,10.97-8.3,17.84-7.77-1.38-2.09-3.63-3.45-6.12-3.72,1.87-1.61,3.9-3.03,6.06-4.23-13.85-3.11-28.2,2.47-36.3,14.12"/>
        <path class="cls-39" d="M458.41,170.79c4.29-5.39,10.97-8.31,17.84-7.79-1.39-2.08-3.63-3.45-6.12-3.72,1.87-1.61,3.9-3.03,6.06-4.22-13.85-3.12-28.2,2.47-36.3,14.12"/>
        <path class="cls-8" d="M357.6,254.32l39.76,.75h0l-1.19,85.44c-.16,10.96-9.18,19.72-20.14,19.55-.03,0-.05,0-.08,0h0c-11-.24-19.74-9.3-19.57-20.3l1.18-85.44h.04Z"/>
        <path class="cls-1" d="M398.36,316.48l-2.5,20.73c-4.43,.85-9.47,.73-13.56-1.09-7.65-3.43-15.66-5.99-23.89-7.61h-.17l.2-12c13.2,2.35,26.72,2.35,39.92,0v-.03Z"/>
        <path class="cls-42" d="M395.65,352.51h0c-1.1,0-2-.9-2-2l1.16-83.51-35.8-.68-1.16,83.42c0,1.1-.9,2-2,2s-2-.9-2-2l1.16-85.45c.01-.53,.23-1.04,.62-1.41,.38-.38,.9-.59,1.44-.56l39.78,.75c1.1,0,2,.9,2,2l-1.19,85.44c0,1.1-.9,2-2,2,0,0,0,0-.01,0Z"/>
        <circle class="cls-13" cx="343.67" cy="315.58" r="1.06"/>
        <circle class="cls-13" cx="358.36" cy="320.69" r="1.4"/>
        <ellipse class="cls-12" cx="342.76" cy="306.4" rx="4.24" ry="2.43" transform="translate(-55.93 535.34) rotate(-71.66)"/>
        <circle class="cls-13" cx="350.44" cy="308.78" r="1.37"/>
        <circle class="cls-13" cx="346.29" cy="311.21" r="1.06"/>
        <circle class="cls-13" cx="347.68" cy="301.47" r="1.4"/>
        <path class="cls-8" d="M297.65,195.66l9.76,.2c12.73,.28,22.83,10.8,22.6,23.53h0c-.21,12.7-10.68,22.82-23.38,22.61-.01,0-.02,0-.04,0l-9.75-.2c-12.74-.27-22.85-10.79-22.63-23.53h0c.21-12.7,10.68-22.82,23.38-22.61,.02,0,.04,0,.06,0Z"/>
        <path class="cls-39" d="M266.89,220h0c-1.1,0-2-.9-2-2,.06-3.92,1.05-7.77,2.88-11.24,.59-1.1,1.26-2.16,2-3.17,.66-.89,1.91-1.08,2.8-.42,.89,.66,1.08,1.91,.42,2.8-2.59,3.51-4.02,7.74-4.09,12.1-.04,1.08-.93,1.94-2.01,1.93Z"/>
        <path class="cls-39" d="M299.75,243.68h-.52l-9.76-.2c-10.24-.18-19.34-6.59-22.95-16.18-.39-1.03,.13-2.19,1.16-2.58,1.03-.39,2.19,.13,2.58,1.16,3.03,8.06,10.68,13.45,19.29,13.6l9.76,.2c11.6,.22,21.17-9.01,21.39-20.6,0-.03,0-.05,0-.08,.17-11.62-9.07-21.21-20.69-21.46l-9.75-.19c-3.83-.09-7.61,.88-10.92,2.8-.98,.51-2.19,.13-2.7-.85-.48-.92-.18-2.06,.7-2.61,3.95-2.28,8.44-3.44,13-3.34l9.75,.19c13.83,.31,24.81,11.74,24.58,25.57-.23,13.62-11.33,24.54-24.95,24.57h.03Z"/>
        <path class="cls-6" d="M294.44,214.53l5.08,.11c6.63,.12,11.9,5.59,11.78,12.22,0,0,0,0,0,.01h0c-.13,6.61-5.59,11.87-12.2,11.76l-5.08-.1c-6.63-.12-11.9-5.59-11.78-12.22,0,0,0-.02,0-.02h0c.13-6.61,5.59-11.87,12.2-11.76Z"/>
        <path class="cls-12" d="M282.51,210c.78-2.05,2.3-3.72,4.27-4.68,1.68-.66,1-3.41-.76-2.74-2.71,1.13-4.87,3.29-6,6-.72,1.66,1.73,3.11,2.46,1.43h.03Z"/>
        <ellipse class="cls-12" cx="279.25" cy="215.36" rx="2.28" ry="1.82" transform="translate(25.41 460.15) rotate(-81.6)"/>
        <path class="cls-8" d="M452.53,195.66l9.75,.2c12.74,.27,22.85,10.79,22.62,23.53h0c-.21,12.7-10.68,22.82-23.38,22.61-.02,0-.03,0-.05,0l-9.76-.2c-12.73-.27-22.85-10.79-22.62-23.53h0c.21-12.7,10.68-22.82,23.38-22.61,.02,0,.04,0,.06,0Z"/>
        <path class="cls-39" d="M461.95,243.68h-.52l-9.76-.2c-13.83-.31-24.81-11.73-24.58-25.56,.24-13.81,11.63-24.8,25.43-24.56,.02,0,.03,0,.05,0h0l9.75,.19c13.83,.31,24.81,11.74,24.58,25.57-.23,13.62-11.33,24.54-24.95,24.57h0Zm-9.94-46.35c-11.46,0-20.8,9.18-21,20.64-.2,11.63,9.04,21.23,20.66,21.49l9.76,.2c11.6,.26,21.21-8.93,21.47-20.52,0-.05,0-.1,0-.15,.2-11.63-9.03-21.23-20.66-21.5l-9.75-.19-.48,.03Z"/>
        <path class="cls-6" d="M456.64,214.53l5.08,.11c6.63,.12,11.9,5.59,11.78,12.22,0,0,0,0,0,.01h0c-.13,6.61-5.59,11.87-12.2,11.76l-5.08-.1c-6.63-.12-11.9-5.59-11.78-12.22,0,0,0-.02,0-.02h0c.13-6.61,5.59-11.87,12.2-11.76Z"/>
        <path class="cls-12" d="M440.07,212.35c.78-2.04,2.31-3.72,4.27-4.68,1.69-.66,.95-3.42-.75-2.74-2.71,1.13-4.87,3.29-6,6-.72,1.67,1.73,3.12,2.45,1.44l.03-.02Z"/>
        <ellipse class="cls-12" cx="436.81" cy="217.66" rx="2.28" ry="1.82" transform="translate(157.67 617.99) rotate(-81.6)"/>
        <path class="cls-3" d="M463.12,143.05v95.82c-.02,47.3-38.38,85.63-85.69,85.61-47.27-.02-85.59-38.34-85.61-85.61v-95.82c-.03-24.07,10.11-47.04,27.9-63.25,15,9.09,35.32,14.67,57.75,14.67s42.77-5.58,57.76-14.66c1,.87,1.89,1.76,2.8,2.68,16.09,16.04,25.12,37.84,25.09,60.56Z"/>
        <path class="cls-12" d="M385.18,323.27c-2.19,.18-4.42,.26-6.65,.26-47.31,0-90.73-37.74-85.66-85.65v-95.82c-.03-24.08,10.11-47.05,27.91-63.26,2.71,1.65,2.13,3.19,5.17,4.59-14.42,15.32-25.57,36-25.57,58.67v95.82c0,45.12,34.72,83.92,84.8,85.39Z"/>
        <circle class="cls-8" cx="425.99" cy="189.17" r="6.28"/>
        <path class="cls-1" d="M438.5,82.89c-.91-.92-1.84-1.81-2.8-2.68-2.86,1.73-5.81,3.29-8.85,4.67,.39,.42,.76,.86,1.15,1.28-27.49,13.13-56.09,10.12-56.39,10.09-1.27-.14-2.42,.77-2.56,2.04-.14,1.27,.77,2.42,2.04,2.56,2.92,.29,5.86,.42,8.79,.39,11.17,0,31.35-1.64,51.22-11.44,12.26,15.19,18.94,34.13,18.91,53.65v95.82c0,44.68-34.32,81.85-78.86,85.39,2.24,.17,4.51,.27,6.79,.27,47.3,0,85.65-38.35,85.65-85.65h0v-95.83c.03-22.72-9-44.52-25.09-60.56Z"/>
        <path class="cls-42" d="M281.69,222c-.82,0-1.5-.65-1.51-1.47,0-.34,.11-.68,.33-.95,2.91-3.53,6.93-5.97,11.4-6.92,.8-.18,1.61,.31,1.81,1.11,.19,.81-.3,1.62-1.11,1.81h0c-3.82,.78-7.25,2.84-9.73,5.85-.29,.36-.73,.57-1.19,.57Z"/>
        <path class="cls-42" d="M474.67,222c-.46,0-.9-.21-1.18-.57-2.48-3.01-5.92-5.07-9.74-5.85-.81-.2-1.3-1.01-1.11-1.81,.2-.81,1.01-1.3,1.82-1.11,4.47,.95,8.48,3.39,11.39,6.92,.51,.64,.41,1.58-.23,2.09-.27,.21-.6,.33-.95,.33h0Z"/>
        <path class="cls-39" d="M379.7,254.49c-.85,0-1.61-.54-1.89-1.34-2.21-6.32-3.27-11.23-3.43-15.92v-13.32c0-1.1,.9-2,2-2s2,.9,2,2v13.25c.14,4.21,1.13,8.75,3.21,14.67,.37,1.04-.18,2.18-1.23,2.55,0,0,0,0,0,0-.21,.07-.44,.11-.66,.11Z"/>
        <path class="cls-39" d="M299.09,275.19c-.71,0-1.36-.38-1.72-1-.95-1.94-1.68-3.99-2.18-6.09-.28-1.07,.37-2.16,1.44-2.44s2.16,.37,2.44,1.44c.4,1.72,.98,3.4,1.73,5,.57,.94,.27,2.17-.67,2.75,0,0,0,0,0,0-.31,.21-.66,.32-1.03,.34Z"/>
        <ellipse class="cls-7" cx="349.42" cy="212.4" rx="11.01" ry="13.94"/>
        <ellipse class="cls-39" cx="348.94" cy="209.37" rx="10.86" ry="13.75"/>
        <ellipse class="cls-12" cx="345.06" cy="204.37" rx="4" ry="4.37"/>
        <ellipse class="cls-7" cx="406.65" cy="212.4" rx="11.01" ry="13.94"/>
        <ellipse class="cls-39" cx="406.17" cy="209.37" rx="10.86" ry="13.75"/>
        <ellipse class="cls-12" cx="402.29" cy="204.37" rx="4" ry="4.37"/>
        <path class="cls-25" d="M346.24,254.08h57.09v13.11c0,15.76-12.78,28.54-28.54,28.54h0c-15.76,0-28.54-12.78-28.54-28.54h0v-13.11h0Z"/>
        <ellipse class="cls-48" cx="374.78" cy="272.93" rx="17.4" ry="10.8"/>
        <path class="cls-12" d="M399.16,267.89h-48.24c-1.92,0-3.48-1.56-3.48-3.48h0v-11.65h55.2v11.65c0,1.92-1.56,3.48-3.48,3.48h0Z"/>
        <path class="cls-31" d="M398.94,267.89h-47.71c-2.07,0-3.74-1.67-3.74-3.74v-1.76h55.2v1.76c0,2.07-1.67,3.74-3.74,3.74h-.01Z"/>
        <path class="cls-42" d="M402.68,269.4h-55.2c-.83,0-1.5-.67-1.5-1.5s.67-1.5,1.5-1.5h55.2c.83,0,1.5,.67,1.5,1.5s-.67,1.5-1.5,1.5Z"/>
        <path class="cls-42" d="M375.08,296.19c-16.86-.02-30.52-13.68-30.54-30.54v-6.78c0-4.6,3.74-8.33,8.34-8.34h44.41c4.6,0,8.33,3.74,8.34,8.34v6.78c-.02,16.86-13.69,30.52-30.55,30.54Zm-22.2-41.66c-2.39,0-4.33,1.95-4.34,4.34v6.78c.28,14.66,12.4,26.31,27.06,26.03,14.26-.28,25.75-11.77,26.03-26.03v-6.78c0-2.39-1.95-4.33-4.34-4.34h-44.41Z"/>
        <path class="cls-39" d="M377.4,326.52c-30.93-.09-59.54-16.39-75.39-42.95-.45-1.01,0-2.19,1-2.65,.86-.39,1.88-.12,2.44,.65,23.58,39.74,74.91,52.85,114.65,29.27,25.4-15.07,40.97-42.4,40.98-71.93v-95.86c.05-22.2-8.78-43.5-24.53-59.15-.57-.57-1.12-1.11-1.65-1.61-15.74,9.16-36.09,14.18-57.5,14.18s-41.76-5-57.48-14.19c-16.68,15.82-26.14,37.78-26.17,60.77v95.82c0,5.07,.45,10.14,1.36,15.13,.2,1.09-.53,2.13-1.61,2.33-1.09,.2-2.13-.53-2.33-1.62h0c-.94-5.21-1.42-10.5-1.42-15.8v-95.86c.03-24.62,10.39-48.1,28.55-64.73,.66-.6,1.63-.69,2.39-.23,15.32,9.28,35.42,14.38,56.71,14.38s41.43-5.1,56.73-14.37c.76-.46,1.72-.36,2.38,.23,.91,.82,1.85,1.72,2.87,2.74,16.5,16.41,25.75,38.73,25.68,62v95.82c-.07,48.38-39.28,87.58-87.66,87.63Z"/>
        <circle class="cls-12" cx="360.37" cy="56.26" r="1.54"/>
        <circle class="cls-12" cx="364.94" cy="54.73" r="1"/>
        <path class="cls-12" d="M488.88,38.89c-1.26-20.82-19.15-36.67-39.97-35.41-8.33,.5-16.25,3.75-22.54,9.23-14.21-12.39-35.38-12.39-49.59,0-14.21-12.39-35.39-12.39-49.6,0-15.73-13.71-39.6-12.07-53.3,3.66-13.71,15.73-12.07,39.6,3.66,53.3,4.01,3.49,8.71,6.1,13.8,7.65l-3.57,74.47c-.24,4.72,3.39,8.75,8.11,8.99,.15,0,.29,.01,.44,.01h165.81c3.6,0,6.51-2.91,6.51-6.51,0-.18,0-.37-.02-.55l-6.4-76.38c16.72-5.11,27.74-21.02,26.66-38.47Z"/>
        <path class="cls-34" d="M416.35,78.21v83.43s41.47,4.85,47.24-.29c12.49-11.13-1.53-86.21-1.53-86.21,21.91-4.52,26.21-16,26.6-33.07,.68-29.58-16.92-37.78-37.79-37.78-8.23,0-16.23,2.71-22.77,7.71,16.64,12.6,19.91,36.3,7.31,52.94-4.8,6.33-11.47,10.99-19.06,13.32v-.05Z"/>
        <rect class="cls-34" x="290.9" y="135.74" width="170.4" height="5.14"/>
        <path class="cls-39" d="M389.83,137.14h-96.6c-.83,0-1.5-.67-1.5-1.5s.67-1.5,1.5-1.5h96.6c.83,0,1.5,.67,1.5,1.5s-.67,1.5-1.5,1.5Z"/>
        <path class="cls-39" d="M462.66,137.14h-26.59c-.83,0-1.5-.67-1.5-1.5s.67-1.5,1.5-1.5h26.59c.83,0,1.5,.67,1.5,1.5s-.67,1.5-1.5,1.5h0Z"/>
        <path class="cls-39" d="M486.91,57.14c-.24,0-.48-.04-.71-.13-1.04-.38-1.57-1.53-1.19-2.57,0,0,0,0,0,0,1.52-4.05,2.3-8.34,2.3-12.66,0-7-.91-12.56-2.77-17.1-.46-1-.02-2.19,.98-2.65,1-.46,2.19-.02,2.65,.98,.02,.05,.05,.11,.07,.16,2.07,5,3.07,11.12,3.07,18.61,0,4.81-.86,9.57-2.56,14.07-.29,.77-1.02,1.28-1.84,1.29Z"/>
        <path class="cls-39" d="M323.9,118.16c-.83,0-1.49-.67-1.5-1.5v-40.61c0-.83,.67-1.5,1.5-1.5s1.5,.67,1.5,1.5v40.61c0,.83-.67,1.5-1.5,1.5h0Z"/>
        <path class="cls-39" d="M360.81,118.16c-.83,0-1.5-.67-1.5-1.5h0v-40.61c0-.83,.67-1.5,1.5-1.5s1.5,.67,1.5,1.5v40.61c0,.83-.67,1.5-1.5,1.5h0Z"/>
        <path class="cls-39" d="M434.62,119c-.83,0-1.5-.67-1.5-1.5v-40.57c0-.83,.67-1.5,1.5-1.5s1.5,.67,1.5,1.5v40.6c-.02,.82-.68,1.47-1.5,1.47Z"/>
        <path class="cls-39" d="M397.71,119c-.83,0-1.5-.67-1.5-1.5v-40.57c0-.83,.67-1.5,1.5-1.5s1.5,.67,1.5,1.5v40.6c-.02,.82-.68,1.47-1.5,1.47Z"/>
        <path class="cls-39" d="M319.22,188.23c12.45-2.63,31.44-5.18,46.45-.83,2.2,.66,3.44,2.97,2.78,5.17-.42,1.4-1.55,2.48-2.96,2.83h0c-.8,.2-1.64,.16-2.41-.12-14.04-4.67-28.87-6.54-43.63-5.51-.43,.04-.81-.28-.84-.71-.03-.39,.23-.75,.61-.83Z"/>
        <path class="cls-39" d="M435.77,187.84c-12.44-2.63-31.43-5.18-46.44-.83-2.2,.66-3.44,2.97-2.78,5.17,.42,1.4,1.55,2.48,2.96,2.83h0c.8,.2,1.64,.16,2.41-.12,14.04-4.67,28.86-6.54,43.62-5.51,.43,.04,.81-.28,.84-.71,.03-.39-.23-.75-.61-.83Z"/>
        <path class="cls-39" d="M399.45,362.23l-2.53,.28c-13.32,1.48-26.77,1.15-40-1l-3.73-.61c-4.17-.68-7.2-4.34-7.08-8.56h0c.13-4.66,4.01-8.33,8.67-8.2,.37,.01,.74,.05,1.11,.1l1.66,.27c13.25,2.15,26.72,2.49,40.06,1h0c4.64-.52,8.82,2.83,9.33,7.47,.04,.38,.06,.77,.05,1.15h0c-.15,4.2-3.36,7.65-7.54,8.1Z"/>
        <path class="cls-34" d="M376.87,392.92l-.75,16.69c-.39,8.61-.79,17.24-2.38,25.71-1.77,9.41-5,18.83-3.73,28.31,.04,.87,.35,1.7,.88,2.39,.87,.73,1.98,1.1,3.11,1.05,5.89,.43,11.8,.46,17.69,.09,1.84,.03,3.65-.41,5.27-1.29,2.87-1.88,3.37-5.8,3.59-9.22,1.52-23.74,2.83-48.66-7.31-70.18"/>
        <path class="cls-34" d="M381.46,464c2.44,13,14.92,23.06,17.14,35.51,.14,.87,.96,1.47,1.83,1.33,.68-.11,1.22-.64,1.33-1.33v-.06c.6-5.17,1.2-10.34,1.81-15.51,1.33-9.95,2.16-19.96,2.47-30,.31-23.19-4.8-46.14-14.94-67"/>
        <path class="cls-34" d="M367.11,370.16l28.7-4.85h0l4.23,25.02c.83,4.9-2.47,9.55-7.37,10.37l-10.98,1.86c-4.9,.83-9.55-2.47-10.37-7.37l-4.23-25.02h.03Z"/>
        <circle class="cls-34" cx="417.67" cy="415.24" r="5.84"/>
        <circle class="cls-34" cx="417.67" cy="450.88" r="5.84"/>
        <circle class="cls-34" cx="417.67" cy="486.52" r="5.84"/>
        <circle class="cls-34" cx="417.67" cy="522.16" r="5.84"/>
        <circle class="cls-34" cx="335.88" cy="415.24" r="5.84"/>
        <circle class="cls-34" cx="335.88" cy="450.88" r="5.84"/>
        <circle class="cls-34" cx="335.88" cy="486.52" r="5.84"/>
        <circle class="cls-34" cx="335.88" cy="522.16" r="5.84"/>
        <path class="cls-39" d="M316.01,523c-.83,0-1.5-.67-1.5-1.5v-151.75c0-.83,.67-1.5,1.5-1.5s1.5,.67,1.5,1.5v151.73c.01,.83-.65,1.51-1.48,1.52,0,0-.01,0-.02,0Z"/>
        <path class="cls-39" d="M436.37,523c-.83,0-1.5-.67-1.5-1.5v-151.75c0-.83,.67-1.5,1.5-1.5s1.5,.67,1.5,1.5v151.73c.01,.83-.65,1.51-1.48,1.52,0,0-.01,0-.02,0Z"/>
        <path class="cls-39" d="M316.01,575.28c-.83,0-1.5-.67-1.5-1.5v-30.73c0-.83,.67-1.5,1.5-1.5s1.5,.67,1.5,1.5v30.73c0,.83-.67,1.5-1.5,1.5h0Z"/>
        <path class="cls-39" d="M436.37,576.28c-.83,0-1.5-.67-1.5-1.5v-31.73c0-.83,.67-1.5,1.5-1.5s1.5,.67,1.5,1.5v31.73c0,.83-.67,1.5-1.5,1.5h0Z"/>
        <path class="cls-39" d="M316.01,630.37c-.83,0-1.5-.67-1.5-1.5v-30.73c0-.83,.67-1.5,1.5-1.5s1.5,.67,1.5,1.5v30.73c0,.83-.67,1.5-1.5,1.5Z"/>
        <path class="cls-39" d="M436.37,631.37c-.83,0-1.5-.67-1.5-1.5v-31.73c0-.83,.67-1.5,1.5-1.5s1.5,.67,1.5,1.5v31.73c0,.83-.67,1.5-1.5,1.5Z"/>
        <path class="cls-39" d="M592.27,596.11c-.63,0-1.26-.09-1.86-.28-3.4-1.02-5.33-4.59-4.31-7.99,0,0,0,0,0-.01,.16-.53,.71-.83,1.24-.67,.53,.16,.83,.72,.67,1.24,0,0,0,0,0,0-.7,2.35,.63,4.83,2.98,5.53,2.35,.7,4.83-.63,5.53-2.98,.16-.53,.72-.83,1.25-.67s.83,.72,.67,1.25h0c-.82,2.72-3.33,4.59-6.17,4.59v-.02Z"/>
        <path class="cls-39" d="M665.36,476.56c-.18,0-.35-.03-.52-.09l-59-22.21c-.78-.29-1.17-1.15-.88-1.93l26.71-71c.29-.78,1.15-1.17,1.93-.88l59,22.21c.77,.28,1.16,1.13,.88,1.9,0,.01,0,.02-.01,.03l-26.7,71c-.22,.58-.78,.97-1.41,.97Zm-57.06-24.56l56.19,21.15,25.65-68.15-56.19-21.15-25.65,68.15Z"/>
        <path class="cls-39" d="M672.5,428.16c-.35,0-.67-.22-.79-.55l-8.77-22.53c-.17-.44,.05-.94,.49-1.11,.43-.18,.92,.03,1.1,.46,0,.01,0,.02,.01,.03l8.76,22.54c.17,.44-.04,.93-.48,1.1,0,0,0,0-.01,0-.1,.04-.2,.05-.31,.05Z"/>
        <path class="cls-39" d="M636.95,452.2c-.35,0-.67-.22-.8-.55l-8.76-22.54c-.17-.44,.05-.93,.48-1.11,.44-.17,.93,.05,1.11,.49h0l8.77,22.51c.17,.44-.05,.94-.49,1.11-.1,.05-.2,.08-.31,.09Z"/>
        <path class="cls-39" d="M646.46,456c-.35,0-.67-.22-.8-.55l-13.77-36.06c-.13-.46,.14-.93,.6-1.06,.4-.11,.82,.08,1,.45l13.77,36.06c.17,.44-.05,.93-.49,1.1,0,0,0,0,0,0-.1,.04-.2,.06-.31,.06Z"/>
        <path class="cls-39" d="M656.73,460.46c-.35,0-.67-.22-.8-.55l-20.53-53.08c-.14-.45,.11-.94,.57-1.08,.41-.13,.85,.07,1.03,.46l20.53,53.08c.17,.44-.05,.94-.49,1.11-.1,.04-.2,.06-.31,.06h0Z"/>
        <path class="cls-39" d="M662.01,450.44c-.36,0-.67-.22-.8-.55l-20.53-53.08c-.14-.45,.11-.94,.57-1.08,.41-.13,.85,.07,1.03,.46l20.53,53.09c.17,.45-.06,.94-.51,1.11-.09,.04-.19,.05-.29,.05Z"/>
        <path class="cls-39" d="M666.75,437.92c-.36,0-.68-.22-.81-.55l-13.77-36.05c-.17-.44,.05-.94,.5-1.11,0,0,0,0,0,0,.43-.17,.92,.04,1.09,.47,0,0,0,.02,.01,.03l13.78,36.05c.16,.44-.06,.94-.5,1.11-.1,.04-.2,.05-.3,.05Z"/>
        <path class="cls-39" d="M327.57,15.29c-.48,0-.95-.17-1.31-.49-12.62-11-31.17-11.77-44.66-1.86-.87,.68-2.13,.53-2.81-.34-.68-.87-.53-2.13,.34-2.81,.03-.02,.06-.05,.1-.07,14.49-10.63,34.31-10.22,48.34,1,5.42-4.35,11.9-7.19,18.77-8.23,1.1-.17,2.13,.6,2.3,1.7,.17,1.1-.6,2.13-1.7,2.3h0c-6.69,1.02-12.96,3.94-18.06,8.39-.37,.29-.84,.43-1.31,.41Z"/>
        <path class="cls-39" d="M377.17,15.29c-.48,0-.95-.17-1.32-.49-6.3-5.49-12.63-8.69-18.81-9.5-1.1-.14-1.88-1.16-1.74-2.26,.14-1.1,1.16-1.88,2.26-1.74,6.53,.85,13.12,4,19.6,9.33,8.52-7.04,16.85-10.63,24.85-10.63s16.29,3.59,24.81,10.68c7.03-5.61,15.75-8.67,24.74-8.68,4,0,17.5,.44,25.61,6.05,.93,.59,1.21,1.83,.62,2.76-.59,.93-1.83,1.21-2.76,.62-.04-.03-.08-.06-.12-.09-5.69-3.94-15.79-5.34-23.34-5.34-8.64,0-16.98,3.13-23.49,8.8-.75,.65-1.87,.65-2.62,0-8.23-7.17-16.13-10.8-23.44-10.8s-15.3,3.63-23.53,10.8c-.36,.32-.83,.49-1.31,.49Z"/>
        <g class="cls-49">
          <path class="cls-38" d="M223.52,419.08h-.29c-.83,0-1.5-.67-1.5-1.5s.67-1.5,1.5-1.5h.29c.83,0,1.5,.67,1.5,1.5s-.67,1.5-1.5,1.5Z"/>
          <path class="cls-38" d="M219.18,419.08h-2.67c-.83,0-1.5-.67-1.5-1.5s.67-1.5,1.5-1.5h2.67c.83,0,1.5,.67,1.5,1.5s-.67,1.5-1.5,1.5Z"/>
        </g>
        <g class="cls-49">
          <path class="cls-38" d="M234.45,419.08h-6c-.83,0-1.5-.67-1.5-1.5s.67-1.5,1.5-1.5h3v-15.08h-46.76v15.06h27.19c.83,0,1.5,.67,1.5,1.5s-.67,1.5-1.5,1.5h-30.19v-21.06h52.76v21.08Z"/>
          <path class="cls-38" d="M194.19,455.19h-12.5v-21.06h37.14c.83,0,1.5,.67,1.5,1.5s-.67,1.5-1.5,1.5h-34.14v15.06h9.5c.83,0,1.5,.67,1.5,1.5s-.67,1.5-1.5,1.5Z"/>
          <path class="cls-38" d="M204.01,455.19h-5.41c-.83,0-1.5-.67-1.5-1.5s.67-1.5,1.5-1.5h5.41c.83,0,1.5,.67,1.5,1.5s-.67,1.5-1.5,1.5Z"/>
          <path class="cls-38" d="M208.12,455.19h-.06c-.83,0-1.5-.67-1.5-1.5s.67-1.5,1.5-1.5h.11c.83,0,1.5,.67,1.5,1.5s-.67,1.5-1.5,1.5h-.05Z"/>
          <path class="cls-38" d="M234.45,455.19h-22.08c-.83,0-1.5-.67-1.5-1.5s.67-1.5,1.5-1.5h19.08v-15.06h-6.62c-.83,0-1.5-.67-1.5-1.5s.67-1.5,1.5-1.5h9.67l-.05,21.06Z"/>
          <path class="cls-38" d="M209.17,437.13h-52.76v-21.05h52.76v21.05Zm-49.76-3h46.76v-15.05h-46.76v15.05Z"/>
        </g>
        <circle class="cls-39" cx="417.67" cy="411.4" r="5.84"/>
        <circle class="cls-39" cx="417.67" cy="447.04" r="5.84"/>
        <circle class="cls-39" cx="417.67" cy="482.68" r="5.84"/>
        <circle class="cls-39" cx="417.67" cy="518.32" r="5.84"/>
        <circle class="cls-39" cx="335.88" cy="411.4" r="5.84"/>
        <circle class="cls-39" cx="335.88" cy="447.04" r="5.84"/>
        <circle class="cls-39" cx="335.88" cy="482.68" r="5.84"/>
        <circle class="cls-39" cx="335.88" cy="518.32" r="5.84"/>
        <circle class="cls-34" cx="417.67" cy="557.8" r="5.84"/>
        <circle class="cls-34" cx="335.88" cy="557.8" r="5.84"/>
        <circle class="cls-39" cx="417.67" cy="553.95" r="5.84"/>
        <circle class="cls-39" cx="335.88" cy="553.95" r="5.84"/>
        <circle class="cls-34" cx="417.59" cy="589.84" r="5.84"/>
        <circle class="cls-34" cx="335.8" cy="589.84" r="5.84"/>
        <circle class="cls-39" cx="417.59" cy="586" r="5.84"/>
        <circle class="cls-39" cx="335.8" cy="586" r="5.84"/>
        <path class="cls-14" d="M373.79,161.64v.71c-16.36,12.77-55.94,15.67-73.48,16.32-3.5,.14-13.13,.18-14.51,.19l3-17.22h84.99Z"/>
        <path class="cls-9" d="M290.32,166.8l1.45-5.16h82v.71c-12.61,2.62-22.82,5.09-36.29,6.19-4.36,.34-8.73,.4-13.1,.15l-34.06-1.89Z"/>
        <path class="cls-39" d="M286.79,180.58h0c-.59,0-1.15-.26-1.53-.71-.38-.45-.54-1.04-.44-1.62l3.26-19.19c.14-1.1,1.14-1.87,2.24-1.73,1.1,.14,1.87,1.14,1.73,2.24,0,.05-.02,.11-.03,.16l-2.86,16.83c11.9-.18,65.2-1.8,83.49-16.08,.9-.64,2.15-.44,2.79,.46,.61,.85,.46,2.02-.33,2.69-9.15,7.14-26.83,12.16-52.56,14.92-18.71,2.01-35.09,2.03-35.76,2.03Z"/>
        <path class="cls-39" d="M461.49,163.35h-167.29c-4.11,0-7.15-3-8.13-8.08-5.24-27.05,1.68-67.08,3.36-76-20.7-7.37-31.51-30.13-24.13-50.83,1.21-3.39,2.87-6.6,4.94-9.55,.66-.88,1.92-1.06,2.8-.39,.84,.63,1.05,1.81,.47,2.69-11.37,16.17-7.48,38.49,8.69,49.86,3.09,2.17,6.5,3.84,10.11,4.95,.99,.3,1.58,1.3,1.38,2.31-.1,.47-9.34,47-3.69,76.2,.28,1.45,1.26,4.84,4.2,4.84h167.29c2.55,0,4.62-2.07,4.62-4.62,0-.11,0-.22-.01-.33v-.11c0-.57-1.2-57.9-5.44-75.92-1.27-5.38,4.61-7,8.91-8.11,2.72-.73,5.54-1.48,6.9-2.8,.79-.77,2.06-.75,2.83,.04,.77,.79,.75,2.06-.04,2.83-2.11,2-5.44,2.93-8.66,3.8-5,1.35-6.35,2.07-6,3.33,4.31,18.32,5.48,73.71,5.54,76.71,.31,4.75-3.29,8.85-8.04,9.16-.19,.01-.37,.02-.56,.02h-.05Z"/>
        <ellipse class="cls-22" cx="452.89" cy="41.97" rx="4.44" ry="7.4"/>
        <circle class="cls-22" cx="446.7" cy="28.44" r="1.75"/>
        <circle class="cls-22" cx="447.6" cy="57.36" r="2.64"/>
        <rect class="cls-39" x="363.38" y="631.12" width="3" height="3.5"/>
        <path class="cls-39" d="M370.35,674.85c-2.07-1.29-3.79-3.07-5-5.18l2.6-1.5c.97,1.69,2.35,3.1,4,4.13l-1.6,2.55Zm-6.57-9c-.27-1.12-.4-2.27-.4-3.43v-3.44h3v3.44c0,.92,.11,1.84,.32,2.73l-2.92,.7Zm2.6-10.61h-3v-6.55h3v6.55Zm0-10.29h-3v-6.55h3v6.55Z"/>
        <path class="cls-39" d="M378.01,677c-1.3,0-2.6-.17-3.85-.51l.78-2.9c1,.27,2.03,.41,3.07,.41v3Z"/>
        <path class="cls-39" d="M377.86,691.37c-.83,0-1.5-.67-1.5-1.5v-59.1c0-.83,.67-1.5,1.5-1.5s1.5,.67,1.5,1.5v59.1c0,.83-.67,1.5-1.5,1.5Z"/>
        <path class="cls-39" d="M400.24,398.16c-.6-4.24-1.49-8.44-2.66-12.56,2.05-2.05,2.98-4.96,2.49-7.82l-4.23-25-28.71,4.85,4.24,25c.5,2.92,2.41,5.42,5.1,6.66-.12,2.59-.24,5.18-.35,7.79-.39,8.61-.79,17.25-2.38,25.71-1.77,9.41-5,18.83-3.73,28.31,.04,.87,.35,1.71,.88,2.4,.88,.71,1.99,1.06,3.11,1,2.77,.2,5.56,.31,8.34,.33,3.71,11.38,14.24,20.77,16.26,32.1,.14,.87,.96,1.47,1.83,1.33,.68-.11,1.22-.64,1.33-1.33v-.06c.6-5.17,1.2-10.34,1.81-15.51,1.33-9.95,2.16-19.96,2.47-30,.2-14.61-1.75-29.16-5.8-43.2Z"/>
      </g>
    </g>
  </g>
</svg>