<?xml version="1.0" encoding="UTF-8"?>
<svg id="Layer_2" data-name="Layer 2" xmlns="http://www.w3.org/2000/svg" viewBox="0 0 271.61 650.98">
  <defs>
    <style>
      .cls-1 {
        fill: none;
      }

      .cls-2, .cls-3, .cls-4, .cls-5 {
        fill: #f57a59;
      }

      .cls-6 {
        fill: #f8c5a6;
      }

      .cls-7 {
        fill: #f9aa0d;
      }

      .cls-8, .cls-9, .cls-10, .cls-11, .cls-12 {
        fill: #fff;
      }

      .cls-13 {
        fill: #ffbe71;
      }

      .cls-14, .cls-15 {
        fill: #9f9ec3;
      }

      .cls-16 {
        fill: #9dbfc9;
      }

      .cls-17 {
        fill: #a0ede7;
      }

      .cls-18 {
        fill: #cdf3fc;
      }

      .cls-19 {
        fill: #c6dbff;
      }

      .cls-20 {
        fill: #d32456;
      }

      .cls-21 {
        fill: #d2f2ff;
      }

      .cls-22 {
        fill: #dcdfea;
      }

      .cls-23 {
        fill: #db8128;
      }

      .cls-24 {
        fill: #e28600;
      }

      .cls-25 {
        fill: #4385f2;
      }

      .cls-26 {
        fill: #42cbea;
      }

      .cls-27 {
        fill: #181828;
      }

      .cls-28 {
        fill: #181728;
      }

      .cls-29 {
        fill: #1b1b2b;
      }

      .cls-30, .cls-31 {
        fill: #88d9fc;
      }

      .cls-32 {
        fill: #54455b;
      }

      .cls-33 {
        fill: #2564bf;
      }

      .cls-34 {
        fill: #7495a2;
      }

      .cls-35 {
        fill: #78def9;
      }

      .cls-3, .cls-9 {
        opacity: .3;
      }

      .cls-3, .cls-9, .cls-36, .cls-10, .cls-15, .cls-4, .cls-11, .cls-12, .cls-31, .cls-37, .cls-38, .cls-5 {
        isolation: isolate;
      }

      .cls-36 {
        fill: #385159;
        opacity: .8;
      }

      .cls-10 {
        opacity: .89;
      }

      .cls-15, .cls-39 {
        opacity: .5;
      }

      .cls-4, .cls-11 {
        opacity: .6;
      }

      .cls-12 {
        opacity: .59;
      }

      .cls-31 {
        opacity: .25;
      }

      .cls-37 {
        fill: #670118;
      }

      .cls-37, .cls-38, .cls-5 {
        opacity: .4;
      }

      .cls-38 {
        fill: #c9ced2;
      }

      .cls-40 {
        opacity: .15;
      }
    </style>
  </defs>
  <g id="Layer_1-2" data-name="Layer 1">
    <g id="Layer_2-2" data-name="Layer 2">
      <g id="Layer_1-2" data-name="Layer 1-2">
        <g class="cls-40">
          <path class="cls-30" d="M151.18,299.4c-.13,9.39,6.49,18.04,14.76,22.76,8.27,4.73,17.97,6.06,27.42,6.69,20.49,1.34,43.18-1.16,57.43-15.94,6.87-7.11,11.01-16.39,14.76-25.53,3.1-6.65,5.12-13.76,5.97-21.04,.85-12.11-4.48-24.08-12.71-32.99-8.53-8.68-18.98-15.26-30.5-19.19-7.31-2.72-14.96-4.82-21.51-9.05-18.12-11.79-24.1-37.5-43.43-47.26-4.63-2.24-9.58-3.75-14.67-4.46-26.46-4.17-56.25,5.33-71.05,27.62-9.68,14.71-13.26,34.24-28,43.69-8.67,5.6-19.95,6.51-27.87,13.2-6.27,5.72-9.86,13.81-9.9,22.29-.27,17.81,10.99,33.75,27.87,39.44,19.04,5.93,39.59-2.94,59.43-.96,6.53,.67,13.91,3.43,15.78,9.72"/>
        </g>
        <path class="cls-31" d="M45.25,155.16c.41-.01,.82-.01,1.23,0,9.36,.34,16.68,8.21,16.34,17.57-.34,9.36-8.21,16.68-17.57,16.34H16.87c-5.66-.03-10.93-2.88-14.05-7.6-5.17-7.81-3.03-18.34,4.78-23.51,7.81-5.17,18.34-3.03,23.51,4.78,3.15-4.73,8.45-7.58,14.13-7.58Z"/>
        <path class="cls-31" d="M243.68,180.31v.07c4.99,.24,8.98,4.23,9.22,9.22,.26,5.35-3.87,9.89-9.22,10.15h-16.21c-3.26,0-6.3-1.64-8.09-4.37-2.93-4.47-1.68-10.47,2.78-13.4,4.47-2.93,10.47-1.68,13.4,2.78,1.77-2.77,4.83-4.45,8.11-4.46Z"/>
        <path class="cls-8" d="M26.25,258.31v.07h0c5.34,0,9.67,4.33,9.67,9.68,0,5.34-4.33,9.67-9.68,9.67H10.07c-3.27,0-6.33-1.65-8.12-4.39-2.92-4.48-1.65-10.47,2.82-13.39,4.48-2.92,10.47-1.65,13.39,2.82,1.76-2.76,4.81-4.44,8.09-4.46Z"/>
        <path class="cls-31" d="M232.11,224.69v-.07h.02c7.54,0,13.64,6.12,13.64,13.65s-6.12,13.64-13.65,13.64h-22.81c-4.69,.05-9.08-2.3-11.62-6.24-4.09-6.33-2.27-14.77,4.06-18.86,6.33-4.09,14.77-2.27,18.86,4.06,2.54-3.87,6.87-6.2,11.5-6.18Z"/>
        <path class="cls-31" d="M51.18,312.77c.41-.01,.82-.01,1.23,0,9.36,.34,16.68,8.21,16.34,17.57-.34,9.36-8.21,16.68-17.57,16.34H22.8c-5.73,0-11.08-2.89-14.21-7.69-5.12-7.85-2.91-18.36,4.93-23.48,7.85-5.12,18.36-2.91,23.48,4.93,3.13-4.79,8.46-7.67,14.18-7.67Z"/>
        <path class="cls-7" d="M81.79,649.11c-1.82-4.77-6.01-8.25-11.04-9.16-9.05-2.1-11.41,.13-11.41,.13h0c6.44,9.79,17.17,9.76,22.45,9.03Z"/>
        <path class="cls-27" d="M81.79,650.27c.08,.07,.17,.11,.27,.13,0,0,.02,0,.03,0,.53-.15,.84-.71,.69-1.24-1.91-5.16-6.4-8.93-11.82-9.92-9.36-2.25-12.08,.11-12.37,.4,0,0-.01,.01-.02,.02-.38,.39-.37,1.01,.02,1.39,.41,.36,1.02,.36,1.43,0,.02-.11,2.32-1.94,10.48,0,4.69,.83,8.6,4.05,10.32,8.49,.13,.44,.53,.73,.98,.74Z"/>
        <path class="cls-7" d="M182.35,649.11c1.82-4.77,6.01-8.25,11.04-9.16,9.05-2.1,11.41,.13,11.41,.13h0c-6.44,9.79-17.17,9.76-22.45,9.03Z"/>
        <path class="cls-27" d="M182.33,650.27c.45,0,.85-.3,.98-.74,1.74-4.43,5.64-7.64,10.32-8.49,8-1.92,10.48-.11,10.48-.11,.4,.39,1.03,.39,1.43,0,.39-.41,.39-1.04,0-1.45-.29-.4-3.03-2.63-12.37-.4-5.41,.99-9.9,4.76-11.82,9.92,0,0,0,0,0,0-.15,.55,.17,1.11,.72,1.26h.27Z"/>
        <ellipse class="cls-38" cx="132.97" cy="627.82" rx="86.63" ry="9.74"/>
        <polygon class="cls-6" points="118.06 600.4 116.27 548.99 98.93 553.63 98.19 601.09 118.06 600.4"/>
        <polygon class="cls-2" points="117.14 581.56 116.18 533.32 98.84 537.95 98.55 580.82 117.14 581.56"/>
        <path class="cls-27" d="M96.9,602.4l22.56-.78-1.58-46.04-20.06-6.49-.91,53.3Zm3.32-49.8l15.07,4.79,1.45,41.71-17.25,.58,.74-47.08Z"/>
        <path class="cls-8" d="M123.16,602.67c0-.12,0-.23-.01-.35-.16-2.24-2.1-3.92-4.34-3.76-3.9,.31-9.16,.09-8.92-3.25,.38-5.35-1.92-9.18-9.18-9.18s-11.1-.38-12.26,8.05c-.89,6.69-18.95,26.89-26.35,34.91-2.01,2.19-3.13,5.05-3.12,8.03v3.39c8.81,13.38,25.64,8.4,25.64,8.4l35.13-16.99c2.81-1.37,4.69-4.11,4.97-7.22l.54-6.69c.14-1.56-.22-3.12-1.03-4.46h0c-.7-1.16-1.07-2.48-1.07-3.83v-7.04Z"/>
        <path class="cls-17" d="M125.08,616.96c.08-1.38-.24-2.76-.91-3.97-.69-1.16-1.05-2.48-1.05-3.83v-7c.01-1.42-.7-2.74-1.89-3.5-6.95,11.34-15.59,21.55-25.61,30.3-5.97,5.15-12.49,9.64-19.44,13.38,.68,.46,1.32,.98,1.89,1.56h0l-.13-.16,22.03-12.39h0l25.12-14.09v.29h0c.01-.19,.01-.39,0-.58Z"/>
        <path class="cls-7" d="M106.91,627.75l-.4-13.04v-1.32c-2.49,3.15-5.2,6.13-8.09,8.92-1.05,1.01-2.17,1.96-3.34,2.83v9.25l5.44-3.05,6.4-3.59Z"/>
        <path class="cls-7" d="M125.68,617.52l-47.04,26.37c1.45,1.38,2.55,3.09,3.21,4.97h0v.13c1.08-.14,2.14-.35,3.19-.62l35.25-16.94c2.76-1.41,4.59-4.14,4.84-7.22l.56-6.69Z"/>
        <path class="cls-24" d="M125.68,617.96l-47.15,26.44c.65,.64,1.23,1.34,1.74,2.1l45.14-25.3,.27-3.23Z"/>
        <path class="cls-27" d="M106.53,615.15c.4-.02,.81-.07,1.2-.13v-.31c-.71,.13-1.2,.13-1.2,.13v.31Z"/>
        <path class="cls-27" d="M109.94,614.58c.75-.18,1.48-.42,2.18-.71l-.13-.29c-.66,.29-1.35,.53-2.05,.71v.29Zm4.04-1.83c.32-.25,.62-.53,.89-.82l.65-.8-.25-.18-.65,.76c-.25,.3-.54,.56-.85,.8l.2,.25Zm2.81-3.43h0c.37-.64,.71-1.3,1-1.98l-.29-.11c-.27,.67-.6,1.32-.98,1.94l.27,.16Zm1.67-4.1h0c.19-.73,.32-1.48,.38-2.23h-.31c-.07,.75-.19,1.5-.36,2.23h.29Z"/>
        <path class="cls-27" d="M118.59,600.78l.29,.13v-1.27h-.29v1.14Z"/>
        <circle class="cls-8" cx="98.55" cy="630.16" r=".85"/>
        <path class="cls-27" d="M98.55,631.25c.6,.05,1.12-.39,1.18-.98,.02-.29-.07-.58-.25-.8-.18-.22-.45-.36-.74-.38-.29-.03-.58,.06-.8,.25-.22,.18-.36,.45-.38,.74h0c-.02,.29,.07,.58,.25,.8,.19,.22,.45,.35,.74,.38h0Zm0-1.69c.16,.01,.31,.09,.4,.22,.1,.11,.15,.25,.15,.4,0,.33-.27,.6-.6,.6h0c-.16-.02-.3-.1-.4-.22-.1-.13-.16-.28-.16-.45h0c.02-.16,.1-.31,.22-.42,.11-.09,.24-.13,.38-.13Z"/>
        <circle class="cls-8" cx="103.99" cy="627.13" r=".85"/>
        <path class="cls-27" d="M103.99,628.22c.29,.02,.58-.07,.8-.25,.22-.19,.35-.45,.38-.74,.02-.29-.07-.58-.25-.8-.19-.22-.45-.35-.74-.38h-.11c-.56,0-1.02,.43-1.07,.98h0s0,.02,0,.03c-.05,.59,.39,1.1,.98,1.15h0Zm-.6-1.14h0s0-.02,0-.03c.04-.33,.34-.57,.67-.53h0c.16,.01,.31,.09,.4,.22,.11,.12,.16,.28,.16,.45-.01,.16-.09,.31-.22,.4-.13,.1-.28,.16-.45,.16-.33-.05-.57-.34-.56-.67Z"/>
        <path class="cls-24" d="M105.51,626.66c1.07,0,1.94-.87,1.94-1.94v-6.69h0c0-1.07-.87-1.94-1.94-1.94s-1.94,.87-1.94,1.94v6.69c0,1.07,.87,1.94,1.94,1.94Z"/>
        <path class="cls-8" d="M96.12,633.12c.53,0,.96-.43,.96-.96v-5.19c0-.53-.43-.96-.96-.96-.53,0-.97,.43-.98,.96v5.19c.01,.53,.45,.96,.98,.96Z"/>
        <path class="cls-35" d="M113.19,627.65c-.91,.49-1.25,1.63-.76,2.54h0c.49,.91,1.63,1.25,2.54,.76l5.56-2.99c.91-.49,1.25-1.63,.76-2.54h0c-.49-.91-1.63-1.25-2.54-.76l-5.56,2.99Z"/>
        <polygon class="cls-18" points="114.02 628.71 118.35 626.41 117.9 625.57 113.58 627.86 114.02 628.71"/>
        <polygon class="cls-18" points="114.98 630.58 116.45 629.8 115.98 628.95 114.51 629.73 114.98 630.58"/>
        <polygon class="cls-26" points="119.1 628.44 120.58 627.66 120.13 626.79 118.66 627.57 119.1 628.44"/>
        <polygon class="cls-8" points="115.23 628.62 119.53 626.32 119.08 625.45 114.76 627.77 115.23 628.62"/>
        <path class="cls-27" d="M114.11,631.63c.38,.03,.76-.03,1.11-.18l5.55-3.01c.56-.28,.97-.78,1.14-1.38,.18-.59,.11-1.24-.18-1.78-.28-.56-.78-.97-1.38-1.14-.6-.17-1.23-.1-1.78,.18l-5.57,3.01c-1.14,.61-1.57,2.03-.96,3.17,.3,.55,.8,.96,1.4,1.14,.22,.03,.45,.03,.67,0Zm5.57-6.69l.36,.02c.74,.23,1.15,1,.94,1.74-.11,.36-.36,.65-.69,.82l-5.51,3.03c-.68,.36-1.52,.12-1.89-.56-.36-.68-.12-1.52,.56-1.89l5.57-2.99c.2-.12,.43-.18,.67-.18Z"/>
        <path class="cls-27" d="M77.75,650.96c2.65,.02,5.28-.3,7.85-.96l35.27-16.96c3.28-1.58,5.48-4.78,5.77-8.4l.56-6.69c.15-1.86-.28-3.73-1.25-5.33-.56-.93-.85-1.99-.85-3.08v-7.02c0-1.57-.65-3.08-1.81-4.15-1.13-1.04-2.64-1.56-4.17-1.45-5.39,.42-6.87-.6-7.18-.91-.21-.19-.3-.48-.25-.76,.39-2.81-.42-5.65-2.23-7.82-2.28-2.1-5.33-3.16-8.43-2.92h-.91c-6.73-.11-11.53-.04-12.8,9.3-.6,4.32-10.37,17.1-25.97,34.13-2.25,2.43-3.51,5.61-3.52,8.92v3.34c.01,.31,.1,.61,.27,.87,4.37,6.5,11.81,10.25,19.64,9.9Zm-16.97-11.15l.07-3.01c0-2.6,.98-5.11,2.74-7.02,9.61-10.37,25.79-28.98,26.75-35.67s3.19-6.8,9.88-6.69h.82c2.28-.23,4.54,.5,6.26,2.01,1.24,1.59,1.77,3.63,1.45,5.62-.11,1.13,.3,2.25,1.11,3.03,1.56,1.58,4.68,2.16,9.47,1.78,.72-.08,1.44,.17,1.96,.67,.54,.52,.85,1.23,.85,1.98v7.02c0,1.62,.44,3.21,1.27,4.59,.64,1.07,.93,2.32,.82,3.57l-.54,6.69c-.22,2.59-1.79,4.86-4.12,6l-35.04,16.88c-.65,.2-15.49,4.37-23.76-7.45Z"/>
        <path class="cls-27" d="M76.3,632.97c8.67,.08,17.02-3.29,23.18-9.39,16.39-15.83,16.21-25.04,16.21-25.41,0-.02,0-.05,0-.07-.05-.79-.73-1.38-1.51-1.33-.8,.02-1.44,.69-1.43,1.49,0,.09-.16,8.56-15.32,23.21-15.16,14.65-33.6,6.38-34.38,6.02-.74-.33-1.61-.02-1.96,.71,0,0,0,.01-.01,.02-.33,.73,0,1.59,.72,1.92,4.6,1.88,9.52,2.85,14.49,2.83Z"/>
        <path class="cls-27" d="M75.7,628.95l.65-.09c1.36-.26,2.63-.87,3.68-1.76,.91-.72,1.93-1.28,3.03-1.65,.9-.22,1.82-.39,2.74-.51,3.59-.29,6.98-1.73,9.68-4.12,17.48-16.23,16.12-23.68,16.12-23.99,0,0,0-.02,0-.03-.08-.36-.44-.59-.8-.51-.38,.07-.62,.43-.56,.8,0,.07,1.14,7.11-15.61,22.72-2.48,2.2-5.61,3.52-8.92,3.77-.94,.16-1.89,.29-2.83,.54-1.27,.4-2.46,1.04-3.5,1.87-.86,.73-1.89,1.24-2.99,1.49-3.53,.17-7-1.01-9.7-3.3h0s-.03-.02-.05-.04c-.29-.19-.67-.12-.87,.17-.23,.32-.17,.76,.13,1,2.75,2.3,6.2,3.58,9.79,3.63Z"/>
        <path class="cls-27" d="M78.49,645.21c.17,0,.34-.05,.49-.13l47.26-26.46s0,0,0,0c.49-.28,.66-.91,.37-1.4-.28-.49-.9-.67-1.4-.4l-47.24,26.48s0,0,0,0c-.49,.28-.66,.91-.37,1.4,.18,.32,.52,.52,.89,.51Z"/>
        <path class="cls-27" d="M96.14,609.94v.02c.26,.04,.5-.14,.54-.4,.04-.26-.14-.5-.4-.54l-15.61-4.84s-.07-.03-.11-.03c-.27-.04-.52,.14-.56,.41s.14,.52,.41,.56l15.61,4.82h.13Z"/>
        <path class="cls-27" d="M94.11,612.48c.12-.02,.23-.08,.31-.18,.19-.19,.19-.5,0-.69l-12.84-10.14c-.18-.1-.41-.08-.57,.07-.2,.18-.22,.49-.03,.69l12.84,10.14c.08,.07,.18,.11,.29,.11Z"/>
        <path class="cls-27" d="M92.53,614.04c.2,0,.39-.12,.47-.31,.08-.26-.06-.53-.31-.62l-15.61-4.82s0,0,0,0c-.26-.08-.53,.06-.62,.31-.07,.26,.07,.54,.33,.62l15.61,4.82h.13Z"/>
        <path class="cls-27" d="M90.5,616.58c.13,.03,.27,0,.38-.09,0,0,0,0,0,0,.18-.18,.18-.48,0-.66l-12.84-10.14s0,0,0,0c-.18-.18-.48-.18-.66,0-.19,.19-.19,.5,0,.69l12.84,10.1c.08,.06,.18,.1,.29,.11Z"/>
        <path class="cls-27" d="M88.32,618.23c.21,0,.39-.12,.47-.31,0,0,0-.01,0-.02,.07-.25-.07-.51-.32-.58l-15.61-4.84s-.02,0-.04-.01c-.25-.06-.5,.09-.57,.34-.07,.25,.06,.52,.31,.6l15.61,4.82h.13Z"/>
        <path class="cls-27" d="M86.31,620.77c.12,.05,.25,.06,.38,.02,.19-.19,.19-.5,0-.69l-12.82-10.14c-.19-.19-.5-.19-.69,0,0,0,0,0,0,0-.18,.18-.18,.48,0,.66l12.82,10.14c.1,.03,.21,.03,.31,0Z"/>
        <path class="cls-27" d="M97.68,605.61c.21,0,.39-.12,.47-.31,0,0,0,0,0,0,.08-.26-.06-.53-.31-.62l-15.61-4.82s-.01,0-.02,0c-.25-.07-.51,.07-.58,.32,0,0,0,.01,0,.02-.07,.25,.07,.51,.32,.58l15.61,4.84h.13Z"/>
        <path class="cls-27" d="M95.76,608.15c.14,.01,.28-.04,.38-.13,0,0,0,0,0,0,.18-.18,.18-.48,0-.66l-12.82-10.14c-.19-.19-.5-.19-.69,0-.19,.19-.19,.5,0,.69l12.82,10.14c.09,.07,.2,.11,.31,.11Z"/>
        <line class="cls-1" x1="83.59" y1="641.33" x2="100.56" y2="631.56"/>
        <rect class="cls-27" x="94.49" y="625.36" width="1.25" height="8.89"/>
        <polygon class="cls-27" points="106.4 628.22 107.65 628.17 107.13 615.18 105.88 615.24 106.4 628.22"/>
        <path class="cls-27" d="M99.29,598.23c3.87-.09,7.68-.97,11.19-2.59,0,0,0,0,0,0,.35-.15,.51-.56,.35-.91-.16-.33-.55-.49-.89-.36-13.75,5.91-20.4-.69-20.69-.98-.01-.02-.03-.03-.05-.05-.26-.24-.67-.22-.91,.05,0,0,0,0-.01,.01-.26,.26-.25,.69,.01,.95,3.01,2.68,6.96,4.08,10.99,3.88Z"/>
        <polygon class="cls-6" points="147.39 600.44 149.16 549.03 164.29 553.58 164.74 601.04 147.39 600.44"/>
        <polygon class="cls-2" points="148.06 580.85 149.16 549.03 164.34 552.31 165.16 580.13 148.06 580.85"/>
        <path class="cls-27" d="M165.96,602.29l-.58-53.26-17.68,6.69-1.58,45.88,19.84,.69Zm-17.32-3.03l1.45-41.82,12.91-4.86,.49,47.19-14.85-.51Z"/>
        <path class="cls-8" d="M140.97,602.67c0-.15,0-.31,.01-.46,.19-2.22,2.14-3.87,4.36-3.68,4.01,.31,9.27,.09,9.03-3.25-.38-5.35,1.92-9.18,9.18-9.18s11.1-.38,12.24,8.05c.91,6.69,18.97,26.89,26.37,34.91,2,2.19,3.11,5.06,3.1,8.03v3.39c-8.81,13.38-25.64,8.4-25.64,8.4l-35.27-16.94c-2.8-1.38-4.68-4.12-4.95-7.22l-.54-6.69c-.14-1.56,.22-3.12,1.03-4.46h0c.7-1.16,1.07-2.48,1.07-3.83v-7.04Z"/>
        <path class="cls-17" d="M139.06,616.96c-.02-1.38,.35-2.73,1.07-3.9,.62-1.24,.89-2.63,.78-4.01v-7c-.01-1.42,.7-2.74,1.89-3.5,6.95,11.34,15.59,21.55,25.61,30.3,5.97,5.16,12.49,9.65,19.44,13.38-.69,.45-1.32,.97-1.89,1.56h0l.13-.16-21.91-12.28h0l-25.12-14.09v.29h0c-.01-.19-.01-.39,0-.58Z"/>
        <path class="cls-7" d="M157.31,627.75l.4-13.04v-1.32c2.49,3.16,5.19,6.14,8.09,8.92,1.05,1.02,2.17,1.97,3.34,2.83v9.25l-5.44-3.05-6.4-3.59Z"/>
        <path class="cls-7" d="M138.46,617.52l47.15,26.37c-1.46,1.38-2.56,3.08-3.23,4.97h0v.13c-1.07-.14-2.13-.35-3.17-.62l-35.25-16.94c-2.8-1.38-4.68-4.12-4.95-7.22l-.56-6.69Z"/>
        <path class="cls-24" d="M138.46,617.96l47.15,26.44c-.65,.64-1.23,1.34-1.74,2.1l-45.14-25.3-.27-3.23Z"/>
        <path class="cls-27" d="M157.6,615.15l-.02-.31s-.49-.02-1.2-.13v.31c.41,.07,.82,.11,1.23,.13Z"/>
        <path class="cls-27" d="M154.19,614.58l.09-.29c-.7-.18-1.39-.42-2.05-.71l-.13,.29c.68,.29,1.38,.53,2.1,.71Zm-4.04-1.83l.2-.25c-.31-.23-.6-.5-.85-.8l-.65-.76-.25,.18,.65,.8c.28,.3,.57,.57,.89,.82Zm-2.81-3.43l.27-.16c-.38-.62-.71-1.27-.98-1.94l-.29,.11c.29,.68,.63,1.34,1,1.98Zm-1.69-4.1h.31c-.18-.73-.3-1.48-.36-2.23h-.31c.07,.75,.19,1.5,.36,2.23Z"/>
        <path class="cls-27" d="M145.54,600.78c0-.33,.02-.71-.02-1.09v-.07h-.29v1.16h.31Z"/>
        <circle class="cls-8" cx="165.59" cy="630.16" r=".85"/>
        <path class="cls-27" d="M165.59,631.25h.11c.29-.03,.55-.16,.74-.38,.18-.23,.27-.51,.25-.8h0c-.02-.29-.16-.55-.38-.74-.22-.19-.51-.28-.8-.25-.29,.02-.55,.16-.74,.38-.18,.23-.27,.51-.25,.8,.05,.56,.51,.98,1.07,.98Zm0-1.69h.02c.13,0,.26,.05,.36,.13,.12,.11,.19,.26,.22,.42h0c0,.16-.05,.32-.16,.45-.1,.12-.24,.2-.4,.22h0c-.32,0-.58-.24-.6-.56-.02-.16,.03-.32,.13-.45,.11-.12,.26-.2,.42-.22h0Z"/>
        <circle class="cls-8" cx="160.12" cy="627.13" r=".85"/>
        <path class="cls-27" d="M160.15,628.22h.09s.02,0,.03,0c.59-.06,1.01-.59,.95-1.18h0c-.06-.6-.59-1.03-1.18-.98-.29,.02-.55,.16-.74,.38-.18,.23-.27,.51-.25,.8,.02,.29,.16,.55,.38,.74,.2,.16,.45,.25,.71,.25Zm0-1.69l-.02-.09s.03,0,.05,0c.36,0,.65,.29,.64,.65,.01,.33-.23,.62-.56,.67-.16,0-.32-.06-.45-.16-.13-.1-.21-.24-.22-.4,0-.16,.05-.32,.16-.45,.1-.13,.24-.21,.4-.22h0Z"/>
        <path class="cls-24" d="M158.63,626.66c1.07,0,1.94-.87,1.94-1.94v-6.69h0c0-1.08-.87-1.94-1.94-1.94-1.07,0-1.94,.87-1.94,1.94v6.69c0,1.07,.87,1.94,1.94,1.94Z"/>
        <path class="cls-8" d="M168.02,633.12c.53,0,.97-.43,.98-.96v-5.19c-.01-.53-.45-.96-.98-.96-.53,0-.96,.43-.96,.96v5.19c0,.53,.43,.96,.96,.96Z"/>
        <path class="cls-35" d="M149.11,630.93c.91,.49,2.05,.15,2.54-.76h0c.49-.91,.15-2.05-.76-2.54l-5.56-2.99c-.91-.49-2.05-.15-2.54,.76h0c-.49,.91-.15,2.05,.76,2.54l5.56,2.99Z"/>
        <polygon class="cls-18" points="150.11 628.71 150.56 627.86 146.24 625.57 145.79 626.41 150.11 628.71"/>
        <polygon class="cls-18" points="149.16 630.58 149.62 629.73 148.15 628.95 147.68 629.8 149.16 630.58"/>
        <polygon class="cls-26" points="145.03 628.44 145.48 627.57 144.01 626.79 143.56 627.66 145.03 628.44"/>
        <polygon class="cls-8" points="148.91 628.62 149.38 627.77 145.05 625.45 144.61 626.32 148.91 628.62"/>
        <path class="cls-27" d="M150.03,631.63c.23,0,.45-.03,.67-.09,.6-.17,1.1-.58,1.38-1.14,.04-.06,.07-.12,.1-.19,.54-1.11,.07-2.44-1.04-2.98l-5.57-2.99c-.06-.04-.12-.07-.19-.1-1.11-.54-2.44-.07-2.98,1.04-.29,.55-.36,1.19-.18,1.78,.17,.6,.58,1.1,1.14,1.38l5.55,3.01c.35,.18,.73,.27,1.11,.27Zm-5.57-6.69v-.04c.23,0,.46,.05,.67,.16l5.57,2.99c.67,.37,.92,1.22,.56,1.89-.37,.67-1.22,.92-1.89,.56l-5.57-2.99c-.32-.18-.56-.48-.67-.82-.22-.74,.2-1.51,.94-1.74h.4Z"/>
        <path class="cls-27" d="M186.34,650.96c7.84,.34,15.3-3.43,19.68-9.94,.17-.26,.26-.56,.27-.87v-3.34c-.02-3.31-1.27-6.49-3.52-8.92-15.43-16.79-25.39-29.85-25.97-34.13-1.27-9.3-6.11-9.41-12.8-9.3h-.91c-3.09-.24-6.15,.82-8.43,2.92-1.81,2.18-2.62,5.02-2.23,7.82,.06,.28-.04,.57-.25,.76-.31,.31-1.81,1.36-7.18,.91-1.53-.11-3.04,.41-4.17,1.45-1.15,1.07-1.81,2.57-1.81,4.15v7.02c0,1.08-.29,2.15-.85,3.08-.96,1.6-1.4,3.47-1.25,5.33l.56,6.69c.3,3.63,2.49,6.83,5.77,8.4l35.49,17.03c2.47,.65,5.02,.97,7.58,.94Zm-41.78-51.27l.2,.2c4.84,.45,7.91-.2,9.5-1.78,.81-.79,1.22-1.91,1.11-3.03-.32-1.99,.2-4.02,1.43-5.62,1.73-1.5,4-2.23,6.29-2.01h.82c6.71-.18,8.92,0,9.88,6.69s17.17,25.26,26.75,35.67c1.76,1.87,2.76,4.32,2.81,6.89v2.92c-8.14,11.86-23.12,7.67-23.54,7.56l-35.27-16.96c-2.35-1.12-3.92-3.41-4.12-6l-.54-6.69c-.11-1.25,.18-2.49,.82-3.57,.83-1.39,1.27-2.97,1.27-4.59v-7.02c0-.75,.3-1.47,.85-1.98,.47-.44,1.09-.68,1.74-.67Z"/>
        <path class="cls-27" d="M187.83,632.97c4.97,.02,9.89-.95,14.49-2.83,.08-.03,.15-.06,.23-.11,.7-.41,.94-1.31,.54-2.01-.41-.7-1.31-.94-2.01-.54-.2,.09-19.06,8.69-34.38-6.02-15.32-14.71-15.32-23.18-15.32-23.18,.03-.81-.6-1.5-1.42-1.53-.81-.03-1.5,.6-1.53,1.42,0,.38-.18,9.59,16.21,25.41,6.17,6.09,14.51,9.47,23.18,9.39Z"/>
        <path class="cls-27" d="M188.55,628.95c3.59-.07,7.05-1.38,9.79-3.7l-.36-.6-.51-.45c-2.72,2.36-6.26,3.57-9.85,3.37-1.09-.26-2.11-.77-2.96-1.49-1.04-.83-2.23-1.47-3.5-1.87-.94-.25-1.89-.38-2.83-.54-3.3-.25-6.44-1.57-8.92-3.77-16.65-15.54-15.61-22.72-15.61-22.72,.06-.37-.18-.71-.54-.8,0,0,0,0,0,0-.37-.08-.74,.16-.82,.54-.04,.31-1.36,7.76,16.12,23.99,2.69,2.39,6.09,3.84,9.68,4.12,.92,.12,1.82,.29,2.72,.51,1.1,.37,2.14,.93,3.05,1.65,1.05,.89,2.31,1.5,3.66,1.76h.89Z"/>
        <path class="cls-27" d="M185.65,645.21c.37,0,.71-.19,.89-.51,0,0,0,0,0,0,.28-.49,.11-1.12-.38-1.4l-47.26-26.48h0c-.5-.28-1.13-.1-1.4,.4-.28,.5-.1,1.13,.4,1.4l47.24,26.46c.16,.09,.33,.13,.51,.13Z"/>
        <path class="cls-27" d="M167.99,609.94l.13-.02,15.61-4.82c.21-.09,.33-.31,.29-.53-.04-.27-.29-.45-.56-.41l-15.61,4.84c-.26,.04-.44,.28-.4,.54,.04,.26,.28,.44,.54,.4Z"/>
        <path class="cls-27" d="M170.02,612.48c.08-.02,.16-.05,.22-.11l12.84-10.14c.14-.16,.17-.38,.07-.57-.13-.24-.43-.32-.67-.19l-12.84,10.14c-.19,.19-.19,.5,0,.69,.09,.12,.23,.18,.38,.18Z"/>
        <path class="cls-27" d="M171.56,614.04l.29-.04,15.61-4.82s0,0,0,0c.26-.09,.39-.37,.31-.62,0,0,0-.01,0-.02-.08-.24-.35-.37-.59-.29l-15.61,4.82c-.05,0-.11,0-.16,.03-.26,.09-.4,.36-.31,.62,.07,.2,.26,.34,.47,.33Z"/>
        <path class="cls-27" d="M173.63,616.58c.11-.03,.22-.09,.29-.18l12.84-10.14c.19-.19,.19-.5,0-.69-.19-.18-.48-.18-.67,0l-12.84,10.14s0,0,0,0c-.18,.18-.18,.48,0,.66,.08,.13,.23,.2,.38,.2Z"/>
        <path class="cls-27" d="M175.8,618.23l.16-.02,15.61-4.82c.25-.08,.39-.35,.31-.6,0-.01,0-.02-.01-.04-.08-.25-.35-.38-.59-.3l-15.61,4.84s-.01,0-.02,0c-.24,.08-.37,.35-.29,.6,.06,.2,.24,.33,.45,.33Z"/>
        <path class="cls-27" d="M177.82,620.77c.15,.02,.3-.02,.42-.11l12.71-10.23s0,0,0,0c.18-.18,.18-.48,0-.66-.19-.19-.5-.19-.69,0l-12.82,10.14c-.19,.19-.19,.5,0,.69,.1,.11,.23,.18,.38,.18Z"/>
        <path class="cls-27" d="M166.43,605.61l.16-.02,15.61-4.84s.01,0,.02,0c.24-.08,.37-.35,.29-.6,0,0,0-.01,0-.02-.08-.24-.35-.37-.59-.29l-15.61,4.82s0,0,0,0c-.26,.09-.39,.37-.31,.62,.06,.2,.24,.33,.45,.33Z"/>
        <path class="cls-27" d="M168.46,608.15c.15,0,.3-.06,.4-.18l12.82-10.14c.19-.19,.19-.5,0-.69-.2-.18-.5-.18-.69,0l-12.82,10.14c-.11,.09-.17,.22-.18,.36-.01,.27,.2,.5,.47,.51Z"/>
        <line class="cls-1" x1="180.54" y1="641.33" x2="163.58" y2="631.56"/>
        <rect class="cls-27" x="168.39" y="625.36" width="1.25" height="8.89"/>
        <polygon class="cls-27" points="157.74 628.22 158.25 615.24 156.98 615.18 156.49 628.17 157.74 628.22"/>
        <path class="cls-27" d="M164.87,598.23c4.04,.19,8-1.19,11.04-3.86,0,0,0,0,.01-.01,.26-.26,.25-.69-.01-.95,0,0,0,0,0,0-.27-.27-.71-.27-.98,0-.27,.29-6.91,6.91-20.67,.98-.34-.13-.73,.03-.89,.36,0,0,0,0,0,0-.15,.35,0,.76,.36,.91,3.5,1.6,7.3,2.48,11.15,2.56Z"/>
        <path class="cls-22" d="M74.79,405.73c36.25,16.16,77.67,16.15,113.92-.02l-6.69,3.34-5.73,31.68c-.69,4.39-.96,6.53-5.15,8.03,3.66,49.36,.54,112.36-.8,125.26-.16,1.28-1.25,2.24-2.54,2.23h-25.55c-2.32,0-3.72-1.2-3.72-3.43,2.12-39.57-4.77-98.16-5.19-100.61-9.18,27.26-11.15,91.71-11.41,102.55-.02,.88-.75,1.57-1.63,1.56h-24.3c-.89,0-5.19-.54-5.35-1.32-.96-5.11,2.01-10.52,1.47-16.25-4.35-46.08,.22-108.5,.22-108.5-1.34-.42,1.14,.42,0,0-4.18-1.5-7.25-5.12-8.03-9.5l-5.75-31.68-3.77-3.34Zm59.14,64.94l1.56-3.9c-.54,1.16-1.05,2.5-1.56,3.9Z"/>
        <path class="cls-14" d="M181.3,404.66h.02c-.17,4.13-3.42,7.47-7.54,7.76h-23.54c-11.77,1.49-23.68,1.49-35.45,0h-26.44c-4.41-.37-7.76-4.12-7.62-8.54v10.57l.76,4.19c1.04,2.93,3.76,4.93,6.87,5.06h85.43c2.35-.08,4.52-1.3,5.8-3.28l1.72-9.5v-6.26Z"/>
        <path class="cls-27" d="M109.67,456.18v.04c.55-.03,1.01-.41,1.15-.94,.18-.68-.23-1.37-.9-1.55-5.68-1.2-11.28-2.8-16.74-4.77-.6-.15-1.22,.14-1.47,.7-.29,.64-.01,1.39,.62,1.68,5.57,2.01,11.28,3.63,17.08,4.84h.27Z"/>
        <path class="cls-27" d="M80.98,421.34l.25-.04c.68-.12,1.13-.77,1-1.45l-2.01-11.15c-.13-.68-.79-1.13-1.47-1s-1.13,.79-1,1.47l2.01,11.15c.12,.59,.63,1.02,1.23,1.03Z"/>
        <path class="cls-27" d="M151.12,456.29l.07-.02c6.06-1.22,12.02-2.88,17.83-4.97,4.63-1.64,8.02-5.63,8.92-10.46l5.75-31.68s0-.01,0-.02c.12-.68-.33-1.33-1.01-1.45-.68-.11-1.33,.33-1.47,1l-5.75,31.68c-.7,3.93-3.44,7.19-7.2,8.54-5.67,2.06-11.48,3.69-17.39,4.88-.69,.07-1.19,.68-1.13,1.37,.07,.69,.68,1.19,1.37,1.13Z"/>
        <path class="cls-27" d="M132.86,411.46c19.61,.03,38.99-4.16,56.85-12.26,.15-.04,.29-.1,.42-.19,.56-.4,.69-1.18,.3-1.74s-1.18-.69-1.74-.3c-59.39,26.75-112.38,.29-112.89,0,0,0-.02,0-.02-.01-.62-.3-1.37-.05-1.67,.57,0,.02-.02,.04-.03,.05-.3,.61-.05,1.34,.56,1.64,18.31,8.19,38.17,12.36,58.23,12.24Z"/>
        <path class="cls-27" d="M129.63,456.29c.69,0,1.26-.56,1.27-1.25v-36.29c-.01-.69-.58-1.25-1.27-1.25-.69,0-1.25,.56-1.25,1.25v36.29c0,.69,.56,1.25,1.25,1.25Z"/>
        <path class="cls-27" d="M131.43,448.09c.49,0,.89-.4,.89-.89s-.4-.89-.89-.89h-1.87c-.49,0-.89,.4-.89,.89s.4,.89,.89,.89h1.87Z"/>
        <path class="cls-27" d="M137.9,448.09h0c.49,0,.89-.4,.89-.89v-1.87c0-.49-.4-.89-.89-.89-.49,0-.89,.4-.89,.89v.98h-.98c-.49,0-.89,.4-.89,.89s.4,.89,.89,.89h1.87Z"/>
        <path class="cls-27" d="M137.9,439.75c.49,0,.89-.4,.89-.89v-3.21c0-.49-.4-.89-.89-.89-.49,0-.89,.4-.89,.89v3.21c0,.49,.4,.89,.89,.89Zm0-9.63h0c.48,0,.88-.39,.89-.87v-3.21c0-.49-.4-.89-.89-.89-.49,0-.89,.4-.89,.89v3.21c.01,.48,.41,.87,.89,.87Z"/>
        <path class="cls-27" d="M137.9,420.51c.49,0,.89-.4,.89-.89v-1.87c0-.49-.4-.89-.89-.89-.49,0-.89,.4-.89,.89v1.87c0,.49,.4,.89,.89,.89Z"/>
        <circle class="cls-15" cx="98.93" cy="481.69" r=".76"/>
        <circle class="cls-15" cx="102.56" cy="468.27" r=".76"/>
        <circle class="cls-15" cx="97.66" cy="529.73" r=".76"/>
        <circle class="cls-15" cx="93.89" cy="550.77" r=".76"/>
        <circle class="cls-15" cx="97.28" cy="537.95" r=".76"/>
        <circle class="cls-15" cx="94.45" cy="544.6" r=".76"/>
        <circle class="cls-15" cx="98.73" cy="544.29" r=".76"/>
        <circle class="cls-15" cx="103.1" cy="475.58" r=".76"/>
        <circle class="cls-15" cx="99.33" cy="496.62" r=".76"/>
        <circle class="cls-15" cx="102.72" cy="483.8" r=".76"/>
        <circle class="cls-15" cx="99.89" cy="490.47" r=".76"/>
        <circle class="cls-15" cx="104.17" cy="490.16" r=".76"/>
        <g class="cls-39">
          <circle class="cls-15" cx="103.72" cy="496.31" r=".76"/>
          <circle class="cls-15" cx="99.95" cy="517.36" r=".76"/>
          <circle class="cls-15" cx="103.34" cy="504.54" r=".76"/>
          <circle class="cls-15" cx="100.51" cy="511.18" r=".76"/>
          <circle class="cls-15" cx="104.79" cy="510.87" r=".76"/>
        </g>
        <circle class="cls-15" cx="149.02" cy="490.27" r=".76"/>
        <circle class="cls-15" cx="145.39" cy="476.85" r=".76"/>
        <circle class="cls-15" cx="150.29" cy="538.31" r=".76"/>
        <circle class="cls-15" cx="154.08" cy="559.36" r=".76"/>
        <circle class="cls-15" cx="150.67" cy="546.54" r=".76"/>
        <circle class="cls-15" cx="153.5" cy="553.18" r=".76"/>
        <circle class="cls-15" cx="149.22" cy="552.87" r=".76"/>
        <circle class="cls-15" cx="144.85" cy="484.16" r=".76"/>
        <circle class="cls-15" cx="148.62" cy="505.21" r=".76"/>
        <circle class="cls-15" cx="145.23" cy="492.39" r=".76"/>
        <circle class="cls-15" cx="148.06" cy="499.05" r=".76"/>
        <circle class="cls-15" cx="143.78" cy="498.74" r=".76"/>
        <g class="cls-39">
          <circle class="cls-15" cx="144.23" cy="504.89" r=".76"/>
          <circle class="cls-15" cx="148.02" cy="525.94" r=".76"/>
          <circle class="cls-15" cx="144.61" cy="513.12" r=".76"/>
          <circle class="cls-15" cx="147.44" cy="519.79" r=".76"/>
          <circle class="cls-15" cx="143.18" cy="519.47" r=".76"/>
        </g>
        <circle class="cls-8" cx="95.54" cy="471.72" r="1.11"/>
        <path class="cls-8" d="M97.46,467.69c-.13,1.81-2.81,1.81-2.81,0l.51-7.29c.11-1.78,2.92-1.81,2.79,0l-.49,7.29Z"/>
        <path class="cls-8" d="M94.52,535.37h.04c.51-.05,.9-.49,.87-1-.02-.13-.91-13.8-.58-24.81,0,0,0,0,0,0,.01-.52-.4-.95-.91-.96h0c-.5,0-.91,.39-.94,.89-.33,11.12,.58,24.88,.58,25.01,.04,.49,.44,.87,.94,.87Z"/>
        <path class="cls-6" d="M69.44,420.65c.18-65.61,15.45-142.14,15.72-142.81l-21.96-4.46c-.65,3.21-15.85,79.41-16.05,147.27h22.29Z"/>
        <path class="cls-2" d="M75.45,338.1c4.9-38.1,9.99-59.72,9.97-59.95l-21.8-5.17c-.2,.91-5.37,22.85-10.46,62.26l22.29,2.85Z"/>
        <path class="cls-27" d="M69.01,424.08c.7-.05,1.24-.64,1.23-1.34,.25-64.92,15.52-149.83,16.16-153.42,.08-.47-.09-.94-.45-1.25-.37-.3-.87-.37-1.32-.2l-22.85,8.92c-.43,.16-.73,.53-.8,.98-.42,2.27-4.19,23.41-8.92,65.56-.08,.72,.44,1.37,1.16,1.45,.03,0,.06,0,.08,0,.7,.05,1.31-.47,1.37-1.17,4.39-39.21,7.96-60.19,8.74-64.65l20.06-7.78c-2.43,14.42-15.38,90.44-15.81,150.28h-18.15c.13-2.56,.13-5.13,.13-7.71,0-.02,0-.03,0-.05,0-.71-.58-1.29-1.29-1.29-.7,.02-1.28,.57-1.34,1.27-.11,3.05-.11,6.09-.11,9.07,0,.35,.13,.69,.38,.94,.24,.24,.57,.38,.91,.38h20.8Z"/>
        <ellipse class="cls-6" cx="58.7" cy="426.25" rx="16.43" ry="20.93" transform="translate(-28.64 4.93) rotate(-3.87)"/>
        <path class="cls-8" d="M62.03,447.82c-7.94-1-14.49-9.3-15.25-19.8-.74-11.1,5.48-20.67,14.04-21.82-.86-.1-1.73-.1-2.59,0-9.05,.58-15.74,10.43-14.98,21.96,.76,11.53,8.76,20.4,17.83,19.77,.31-.01,.63-.05,.94-.11Z"/>
        <path class="cls-27" d="M59.27,449.07l.96-.02c4.98-.45,9.47-3.2,12.13-7.45,3.07-4.7,4.49-10.28,4.04-15.87h0c-.82-12.19-9.43-21.6-19.15-20.93s-16.97,11.12-16.14,23.32c.8,11.79,8.85,20.96,18.17,20.96Zm-1.05-41.8c8.03,0,14.96,8.16,15.67,18.53h0c.44,5.06-.82,10.12-3.59,14.38-2.23,3.6-6.02,5.95-10.23,6.35-8.38,.54-15.74-7.8-16.47-18.61s5.46-20.09,13.82-20.64h.8Z"/>
        <path class="cls-27" d="M52.63,355.04c.67,0,1.23-.52,1.29-1.18l.45-4.79s0-.04,0-.06c.06-.7-.47-1.31-1.17-1.37-.72-.06-1.36,.46-1.43,1.18l-.47,4.79c-.06,.72,.46,1.36,1.18,1.43h.13Z"/>
        <path class="cls-8" d="M53.93,364.28c-1.09-.08-2.03,.75-2.11,1.84l-.85,12.32c-.08,1.09,.74,2.04,1.83,2.12h0c1.09,.08,2.03-.75,2.11-1.84l.85-12.32c.08-1.09-.74-2.04-1.83-2.12h0Z"/>
        <path class="cls-27" d="M49.8,384.24c.72,.05,1.35-.49,1.4-1.2,.49-7,1.09-14.36,1.81-21.89,0-.01,0-.02,0-.03,.06-.71-.47-1.34-1.18-1.39-.72-.05-1.34,.47-1.43,1.18-.71,7.56-1.34,14.94-1.83,21.96-.04,.72,.51,1.33,1.23,1.38h0Z"/>
        <circle class="cls-8" cx="51.69" cy="396.44" r="2.05"/>
        <path class="cls-27" d="M48.46,409.97s0,0,0,0c.73,.02,1.33-.54,1.36-1.27,.16-5.39,.42-10.83,.74-16.32,0,0,0,0,0,0,.04-.73-.52-1.34-1.25-1.38-.02,0-.05,0-.07,0-.7-.02-1.29,.53-1.31,1.23-.31,5.51-.56,10.99-.74,16.39,0,0,0,0,0,0-.02,.73,.54,1.33,1.27,1.36h0Z"/>
        <path class="cls-34" d="M95.76,239.14c-52.01,31.7-47.91,91.58-47.91,91.58l51.03,3.68-3.12-95.26Z"/>
        <path class="cls-36" d="M68.1,318.41l.91-9.36c1.56-11.95,4.46-27.67,11.39-36.96,3.25-4.3-1.61,20.15,2.85,17.19,.71-.45,1.46-.86,2.23-1.2l-.94,43.9h-18.19c.51-.31,1.32-9.47,1.74-13.55Z"/>
        <path class="cls-27" d="M93.82,335.82c.26,.02,.53-.04,.76-.18,.27-.24,.42-.58,.42-.94l1.98-95.39c0-.47-.25-.9-.65-1.14-.41-.24-.93-.24-1.34,0-5.39,3.45-10.47,7.35-15.2,11.66-.01,.01-.03,.03-.04,.04-.48,.5-.46,1.29,.04,1.77,0,0,0,0,0,0,.5,.49,1.3,.49,1.8,0,4.04-3.67,8.33-7.04,12.86-10.08l-1.89,91.6-13.38-1.14s-.07,0-.1,0c-.68-.03-1.25,.49-1.28,1.17,0,0,0,0,0,0-.06,.7,.46,1.31,1.16,1.37l14.74,1.25h.11Z"/>
        <path class="cls-8" d="M131.03,224.67v-.02h0c-27.78,0-50.29,19.86-50.29,52.37v130.7h0c-.33,4.56,3.07,8.54,7.62,8.92h85.36c4.54-.4,7.91-4.37,7.58-8.92v-130.7c0-32.48-22.49-52.34-50.27-52.34h0Z"/>
        <path class="cls-32" d="M138.39,227.61c23.59,0,42.69,22.78,42.62,50.36v129.12c0,5.24-3.66,9.5-8.11,9.5h-29.87c-.18-.13-6.73-.27-6.87-.4-4.21-4.79,2.18-12.68,6.29-17.63,39.04-46.32,37.34-149.36-19.28-173.89h0l15.23,2.94Z"/>
        <path class="cls-17" d="M135.89,224.87c23.59,0,45.19,22.29,45.1,49.87v132.29c0,5.24-3.66,9.5-8.11,9.5h-29.87c-.13-.13-16.47-.27-16.59-.4-4.24-4.79-1.07-12.68,3.03-17.63,15.47-18.35,3.54-64.54,4.66-92.36,1.18-29.49,23.18-66.7-10.97-81.46h0l12.75,.2Z"/>
        <path class="cls-27" d="M173.79,418.15c5.37-.42,9.42-5.06,9.1-10.43v-130.68h-3.01v130.68c.31,3.71-2.39,6.99-6.09,7.4H88.36c-3.71-.4-6.42-3.68-6.11-7.4v-130.7h-3.03v130.7c-.33,5.4,3.75,10.05,9.14,10.43h85.43Z"/>
        <path d="M147.95,217.71h.18c.51-.11,.83-.61,.74-1.11l-1.76-8.4s-.02-.1-.03-.14c-.14-.5-.66-.78-1.16-.64-.5,.14-.78,.66-.64,1.16l1.76,8.4c.09,.43,.47,.74,.91,.74Z"/>
        <path d="M149.27,217.85c.41,.01,.79-.25,.91-.65l1.61-5.91c.11-.48-.17-.96-.63-1.1-.49-.16-1.02,.12-1.17,.61l-1.61,5.91c-.13,.49,.16,1,.65,1.14h.25Z"/>
        <path class="cls-34" d="M118.35,226.52c-.8-1.85,4.39-7.74-.45-5.95-1.18,.42-17.61,9.68-18.84,10.17-14.09,5.88-23.23,19.69-23.14,34.96v142.05h41.55V255.9l-8.05-21.54,8.92-7.85Z"/>
        <path class="cls-16" d="M119.02,220.32c-7.65-.16-13.96,7.65-20.2,10.19-14.09,5.88-23.22,19.69-23.12,34.96v142.05h5.84v-142.05c0-15.25,11.19-30.99,25.3-36.74,4.46-1.81,8.69-4.97,13.38-5.55l-1.2-2.85Z"/>
        <path class="cls-27" d="M81.63,266.29c.17,0,.34-.06,.47-.18l8.69-8.92h0c.25-.25,.25-.65,0-.89s-.65-.25-.89,0l-8.72,8.92c-.12,.12-.18,.28-.18,.45,.01,.34,.28,.61,.62,.62Z"/>
        <path class="cls-8" d="M85.49,294.49c1.03-.01,1.86-.84,1.87-1.87v-10.3c0-1.03-.84-1.87-1.87-1.87s-1.87,.84-1.87,1.87v10.3c.01,1.03,.84,1.86,1.87,1.87Z"/>
        <circle class="cls-8" cx="85.49" cy="299.28" r="2.41"/>
        <path class="cls-27" d="M80.63,262.86c.15,.03,.31,0,.45-.07l5.39-5.53h0c.16-.23,.16-.53,0-.76-.21-.29-.62-.35-.9-.13l-5.37,5.42s0,0,0,0c-.24,.25-.24,.64,0,.88,.12,.12,.28,.18,.45,.18Z"/>
        <path class="cls-28" d="M108.81,398.49c.06,.02,.12,.02,.18,.02,.33-.01,.59-.29,.58-.62v-18.12c-.05-.26-.25-.47-.52-.52-.35-.07-.69,.16-.75,.52,.04,10.08-.11,18.1-.11,18.1h0c0,.34,.28,.62,.62,.62h0Z"/>
        <path class="cls-28" d="M112.55,396.1c.34,0,.62-.28,.62-.62v-8.78c0-.34-.28-.62-.62-.62-.02,0-.03,0-.05,0-.33,.01-.59,.29-.58,.62v8.78c0,.34,.28,.62,.62,.62h0Z"/>
        <rect class="cls-16" x="86.74" y="363.87" width="4.26" height="19.06" rx="1.92" ry="1.92"/>
        <rect class="cls-16" x="94.23" y="348.93" width="2.52" height="11.24" rx="1.14" ry="1.14"/>
        <rect class="cls-16" x="85.22" y="309.94" width="4.26" height="19.06" rx="1.92" ry="1.92"/>
        <rect class="cls-16" x="89.34" y="333.7" width="2.52" height="11.24" rx="1.14" ry="1.14"/>
        <path class="cls-27" d="M75.92,274.32s.08,0,.11,0c.82-.01,1.48-.69,1.47-1.52v-7.11c0-19.39,13.26-33.64,40.55-43.92,.8-.31,1.19-1.22,.88-2.02-.31-.8-1.22-1.19-2.02-.88-28.6,10.83-42.51,26.13-42.51,46.82v7.11s0,.03,0,.04c.01,.82,.69,1.48,1.52,1.47Z"/>
        <path class="cls-27" d="M117.54,409.26h0c.84,0,1.52-.68,1.52-1.52v-73.83c0-.84-.68-1.52-1.52-1.52s-1.52,.68-1.52,1.52v72.32h-38.59v-126.18c0-.84-.68-1.52-1.52-1.52s-1.52,.68-1.52,1.52v127.69s0,.03,0,.04c.01,.82,.69,1.48,1.52,1.47h41.62Z"/>
        <path class="cls-27" d="M113.15,245.67c.2,.05,.4,.06,.6,.02,0,0,0,0,.01,0,.78-.3,1.18-1.17,.88-1.96l-3.28-8.92,8.05-7.18c.12-.08,.23-.18,.33-.3,.53-.65,.44-1.6-.2-2.13-.65-.53-1.6-.44-2.13,.2l-8.92,7.82c-.48,.41-.64,1.08-.42,1.67l3.66,9.79c.22,.59,.79,.98,1.43,.98Z"/>
        <path class="cls-8" d="M51.69,309.27c.94,0,1.73-.7,1.85-1.63,.66-4.37,1.66-8.69,2.99-12.91,.32-.98-.2-2.03-1.18-2.36-.98-.31-2.03,.23-2.36,1.2-1.39,4.44-2.44,8.98-3.14,13.58,0,.01,0,.03,0,.04-.14,1.01,.58,1.94,1.59,2.08h.27Z"/>
        <path class="cls-27" d="M75.7,334.26c.65-.05,1.16-.57,1.18-1.23,0-.01,0-.02,0-.03,.05-.7-.48-1.31-1.18-1.35l-26.75-2.23c-.86-25.02,7.61-49.47,23.76-68.6,.37-.51,.31-1.22-.13-1.67-.5-.51-1.32-.51-1.83,0-16.8,19.97-25.43,45.54-24.17,71.61,.07,.61,.57,1.09,1.18,1.14l27.82,2.36h.11Z"/>
        <path class="cls-6" d="M194.12,420.25l22.43-.09c-.2-67.86-15.43-144.04-16.07-147.27l-21.96,4.46c.13,.78,15.4,77.29,15.61,142.9Z"/>
        <path class="cls-2" d="M187.17,338.7l22.23-2.85c-5.02-39.17-9.3-61.82-9.47-62.75l-22.03,4.17c.04,.22,4.35,23.01,9.27,61.44Z"/>
        <path class="cls-27" d="M194.57,423.68l.11-.02h20.78s.03,0,.04,0c.71-.01,1.28-.6,1.27-1.32-.13-2.99-.13-6.02-.13-9.07-.04-.71-.62-1.27-1.34-1.27-.72,.02-1.28,.62-1.27,1.34v7.71h-18.17c-.42-59.9-13.15-135.85-15.85-150.23l20.06,7.78c.8,4.46,4.3,25.44,8.76,64.65,0,.03,0,.06,0,.08,.1,.69,.75,1.18,1.44,1.08,0,0,.01,0,.02,0,.71-.09,1.21-.74,1.12-1.45-4.73-42.13-8.52-63.33-8.92-65.56-.09-.45-.4-.82-.82-.98l-22.83-8.92c-.24-.1-.5-.12-.75-.07-.7,.14-1.15,.82-1.01,1.52,.56,3.59,15.89,88.5,16.16,153.42,0,.02,0,.03,0,.04,.01,.71,.6,1.28,1.32,1.27Z"/>
        <ellipse class="cls-6" cx="204.84" cy="425.89" rx="20.93" ry="16.43" transform="translate(-233.91 601.52) rotate(-86.13)"/>
        <path class="cls-8" d="M201.5,447.42c7.96-1,14.51-9.3,15.25-19.68,.74-11.1-5.48-20.67-14.02-21.82,.85-.14,1.71-.17,2.56-.11,9.07,.58,15.78,10.43,15,21.96s-8.78,20.42-17.83,19.8c-.33-.13-.67-.13-.96-.13Z"/>
        <path class="cls-27" d="M204.29,448.67c4.65-.09,9.03-2.18,12.04-5.73,3.68-4.23,5.83-9.58,6.11-15.18,.82-12.17-6.4-22.65-16.14-23.32-5-.21-9.81,1.92-13.02,5.75-7.36,8.79-8.21,21.33-2.1,31.03,2.66,4.24,7.15,6.99,12.13,7.45h.98Zm1.05-41.8l.8,.02c8.34,.6,14.56,9.83,13.82,20.67-.27,5.04-2.2,9.86-5.48,13.69-1.01,1.28-2.25,2.37-3.66,3.19-6.14,3.58-14.01,1.5-17.59-4.64-2.74-4.23-4-9.26-3.57-14.29h0c.25-5.04,2.17-9.86,5.46-13.69,2.54-3.04,6.25-4.84,10.21-4.95Z"/>
        <path class="cls-27" d="M210.93,354.64h.11s.02,0,.03,0c.71-.08,1.22-.71,1.15-1.42l-.45-4.79c0-.08,0-.16-.02-.24-.13-.71-.82-1.19-1.53-1.05-.71,.13-1.19,.82-1.05,1.53l.45,4.79c.08,.67,.64,1.17,1.32,1.18Z"/>
        <path class="cls-27" d="M213.74,383.84h.11s0,0,0,0c.71-.05,1.25-.67,1.2-1.38-.49-7.02-1.09-14.4-1.83-21.96,0-.08,0-.16-.02-.24-.13-.71-.82-1.19-1.53-1.05-.71,.13-1.19,.82-1.05,1.53,.74,7.54,1.34,14.91,1.83,21.89,.05,.68,.61,1.21,1.29,1.2Z"/>
        <path class="cls-27" d="M215.1,409.57h.02s0,0,0,0c.73-.03,1.29-.63,1.27-1.36-.16-5.39-.42-10.88-.74-16.39-.08-.7-.68-1.23-1.38-1.23-.72,.05-1.26,.66-1.23,1.38,.31,5.48,.56,10.92,.74,16.32,.02,.71,.61,1.27,1.32,1.27Z"/>
        <path class="cls-34" d="M167.75,238.74c52.05,31.7,47.95,91.49,47.95,91.49l-51.03,3.7,3.08-95.19Z"/>
        <path class="cls-36" d="M195.46,318.03l-.98-9.41c-1.49-11.97-4.32-27.69-11.35-37.03-3.23-4.3,1.61,20.15-2.85,17.19-.71-.46-1.46-.86-2.23-1.2l.94,43.98h18.19c-.49-.31-1.29-9.47-1.72-13.53Z"/>
        <path class="cls-27" d="M169.73,335.42l.11-.04,14.74-1.27s0,0,0,0c.7-.06,1.21-.68,1.15-1.38,0,0,0,0,0,0-.06-.7-.68-1.21-1.38-1.15l-13.38,1.14-1.89-91.58c4.52,3.04,8.82,6.4,12.86,10.05,.52,.47,1.33,.43,1.81-.09s.43-1.33-.09-1.81c-4.74-4.31-9.83-8.21-15.23-11.66-.4-.24-.91-.24-1.32,0-.42,.23-.67,.68-.65,1.16l1.96,95.37c.01,.71,.59,1.27,1.29,1.27Z"/>
        <path class="cls-34" d="M145.21,226.14c.8-1.87-4.41-7.67,.45-5.97,1.18,.42,17.61,9.68,18.84,10.17,14.08,5.89,23.21,19.69,23.12,34.96v142.07h-41.53V255.5l8.05-21.54-8.92-7.82Z"/>
        <path class="cls-16" d="M145.66,220.17c7.6-.16,13.96,7.65,20.13,10.17,14.09,5.88,23.22,19.69,23.12,34.96v141.98h-5.75v-142.05c0-15.25-11.21-30.99-25.32-36.74-4.46-1.81-8.72-4.97-13.38-5.55l1.2-2.76Z"/>
        <path class="cls-27" d="M187.61,408.85c.82,.01,1.49-.63,1.52-1.45v-142.05c0-20.75-13.89-36.05-42.49-46.82-.79-.29-1.66,.11-1.96,.89,0,0,0,.02-.01,.03-.28,.78,.13,1.63,.9,1.91,27.18,10.28,40.55,24.63,40.55,43.92v140.56h-38.59v-52.12c0-.84-.68-1.52-1.52-1.52s-1.52,.68-1.52,1.52v53.61s0,.03,0,.04c.01,.82,.69,1.48,1.52,1.47h41.6Z"/>
        <path class="cls-27" d="M151.12,243.37c.68,.07,1.33-.33,1.56-.98l2.94-7.87c.23-.59,.07-1.25-.4-1.67l-8.92-7.82s-.09-.08-.13-.12c-.65-.51-1.59-.4-2.1,.25-.03,.03-.06,.06-.09,.1-.53,.65-.43,1.6,.22,2.13l8.07,7.13-2.59,6.91c-.29,.78,.11,1.65,.89,1.94,.18,.03,.36,.03,.54,0Z"/>
        <path class="cls-8" d="M211.87,308.87l.16-.07c1.02-.15,1.73-1.1,1.58-2.12-.7-4.6-1.76-9.14-3.17-13.58-.31-.93-1.29-1.45-2.23-1.18,0,0-.01,0-.02,0-.97,.32-1.5,1.36-1.18,2.33,1.34,4.25,2.34,8.59,3.01,13,.13,.92,.92,1.6,1.85,1.61Z"/>
        <path class="cls-27" d="M187.88,333.86l.25,.04,27.82-2.36c.61-.06,1.09-.53,1.16-1.14,1.29-26.06-7.35-51.64-24.17-71.58-.46-.54-1.26-.61-1.81-.16,0,0,0,0-.01,.01-.53,.46-.58,1.27-.12,1.79,16.11,19.15,24.53,43.61,23.63,68.62l-26.75,2.23c-.7,0-1.27,.57-1.27,1.27,0,.7,.57,1.27,1.27,1.27Z"/>
        <path class="cls-6" d="M119.88,188.78h.02l-.76,49.04c-.11,7.03,5.47,12.84,12.51,13h0c7,.09,12.76-5.5,12.89-12.51l.76-49.04h0l-25.41-.49Z"/>
        <path class="cls-2" d="M144.81,217.6c-2.29,.88-4.72,1.33-7.18,1.34h-7.56c-3.86,.01-7.64-1.08-10.9-3.14v6.69c3.24,2.01,6.98,3.08,10.79,3.08h7.67c2.41,.01,4.79-.42,7.04-1.27l.13-6.69Z"/>
        <path class="cls-29" d="M131.43,251.91c7.63,0,13.84-6.13,13.93-13.75l.82-49.04c-.01-.7-.57-1.26-1.27-1.27l-25.41-.47h0s-.05,0-.07,0c-.68,0-1.23,.55-1.22,1.23l-.76,49.04c-.12,7.72,6.01,14.1,13.73,14.27h.25Zm-10.66-61.84l22.81,.54-.76,47.71h0c-.15,6.3-5.36,11.28-11.66,11.15-6.28-.22-11.24-5.42-11.15-11.7l.76-47.68Z"/>
        <polygon class="cls-33" points="188.97 65.01 176.8 72.07 184.49 86.76 193.52 76.47 188.97 65.01"/>
        <polygon class="cls-33" points="79.6 62.87 85.82 93.88 70.8 80.66 79.6 62.87"/>
        <ellipse class="cls-25" cx="133.53" cy="54.26" rx="48.33" ry="45.75"/>
        <path d="M81.12,89.28c.3-.01,.6-.05,.89-.11,.69-.07,1.19-.69,1.11-1.38-.07-.69-.69-1.19-1.38-1.11-5.24,.58-9.9-6.69-9.9-6.69,0-.01-.01-.02-.02-.03-.37-.57-1.13-.73-1.69-.37-.59,.37-.78,1.14-.42,1.74,.27,.33,5.04,7.96,11.41,7.96Z"/>
        <path d="M185.29,84.42l.2-.04c2.67-.58,5.26-1.47,7.74-2.63,0,0,.01,0,.02,0,.6-.35,.8-1.11,.45-1.71-.01-.02-.02-.04-.03-.06-.35-.58-1.11-.76-1.68-.41-2.26,1.03-4.62,1.82-7.04,2.36-.56,.15-.95,.67-.94,1.25,.01,.7,.59,1.26,1.29,1.25Z"/>
        <circle class="cls-6" cx="69.48" cy="124.4" r="15.43"/>
        <circle class="cls-2" cx="70.84" cy="123.55" r="6.51"/>
        <path d="M69.48,141.2c9.28-.01,16.8-7.53,16.81-16.81,0-.01,0-.03,0-.04-.01-9.3-7.56-16.82-16.85-16.81s-16.82,7.56-16.81,16.85,7.56,16.82,16.85,16.81Zm0-30.83c7.74,.01,14,6.29,14,14.02,0,0,0,.01,0,.02-.01,7.74-6.3,14.01-14.04,14s-14.01-6.3-14-14.04,6.3-14.01,14.04-14Z"/>
        <path d="M77.24,121.27c.19,0,.36-.07,.51-.18,0,0,0,0,0,0,.42-.28,.54-.84,.26-1.27-3.39-5.13-11.57-4.86-11.93-4.86h0c-.52,.03-.91,.46-.89,.98,0,.02,0,.05,0,.07,.04,.49,.46,.86,.96,.82,.09,.02,7.49-.25,10.3,4.01,.18,.26,.47,.42,.78,.42Z"/>
        <path d="M67.92,126.71s0,0,0,0c.5-.01,.9-.43,.89-.94,0-3.77,3.95-7.76,3.95-7.76,.27-.34,.27-.82,0-1.16-.32-.41-.91-.47-1.32-.15-.18,.16-4.46,4.61-4.46,9.07,0,.52,.42,.94,.94,.94Z"/>
        <circle class="cls-6" cx="194.08" cy="124.4" r="15.43"/>
        <circle class="cls-2" cx="193.5" cy="123.3" r="7.02"/>
        <path d="M194.08,141.2c9.28-.01,16.8-7.53,16.81-16.81,0-.01,0-.03,0-.04-.01-9.3-7.56-16.82-16.85-16.81-9.3,.01-16.82,7.56-16.81,16.85,.01,9.3,7.56,16.82,16.85,16.81Zm0-30.83s0,0,0,0c7.74,0,14.02,6.28,14.02,14.02s-6.28,14.02-14.02,14.02-14.02-6.28-14.02-14.02,6.28-14.02,14.02-14.02Z"/>
        <path d="M186.3,121.27c.31-.01,.6-.18,.76-.45,2.81-4.26,10.3-4.01,10.3-4.01,0,0,.02,0,.02,0,.5,.01,.92-.39,.93-.89,.01-.5-.37-.92-.87-.96-.33,0-8.52-.27-11.93,4.86-.27,.43-.15,.99,.27,1.27,.15,.11,.33,.17,.51,.18Z"/>
        <path d="M195.64,126.71s0,0,0,0c.5-.01,.9-.43,.89-.94,0-4.61-4.26-8.89-4.46-9.07-.04-.06-.1-.11-.15-.15-.41-.32-.99-.25-1.32,.15-.32,.41-.25,.99,.15,1.32,.04,.04,3.95,3.99,3.95,7.76,0,.52,.42,.94,.94,.94Z"/>
        <path class="cls-6" d="M185.29,83.15c.05-14.29-5.61-28.01-15.72-38.12-.58-.58-1.14-1.16-1.76-1.69-11.08,6.28-23.65,9.46-36.38,9.23-12.76,.24-25.34-2.95-36.45-9.23-11.21,10.2-17.59,24.66-17.57,39.82v59.1l1.16-1.67c.02,29.78,22.98,55.6,52.86,55.6,29.76-.04,53.86-24.17,53.86-53.93v-59.1Z"/>
        <path class="cls-8" d="M136.72,195.4c-31.54-.94-53.41-25.39-53.41-53.77v-59.14c0-14.22,7.02-27.24,16.12-36.94-1.92-.89-1.56-1.85-3.25-2.88-11.21,10.2-17.59,24.66-17.59,39.82v59.14c-3.19,30.16,24.17,53.93,53.95,53.93,1.4,0,2.81-.16,4.19-.16Z"/>
        <ellipse class="cls-8" cx="91.42" cy="58.09" rx="5.97" ry="4.24" transform="translate(-4.6 108.22) rotate(-60)"/>
        <ellipse class="cls-8" cx="98.66" cy="57.45" rx="1.23" ry="1.74"/>
        <circle class="cls-8" cx="97.52" cy="61.86" r="1"/>
        <path class="cls-2" d="M170.53,44.23c10.15,10.14,15.84,23.91,15.81,38.25v58.97h0c-.01,29.79-24.16,53.93-53.95,53.93-1.43,0-2.85-.04-4.28-.16,28-2.23,49.61-25.57,49.67-53.66v-59.08c.07-12.34-4.12-24.34-11.86-33.95-10.08,4.79-21.1,7.25-32.26,7.2-1.86,.04-3.72-.03-5.57-.2h0s-.01,0-.02,0c-.8-.09-1.37-.81-1.28-1.6,.09-.81,.82-1.38,1.63-1.29,12.17,.87,24.37-1.31,35.49-6.35l-.71-.8c1.91-.87,3.78-1.85,5.57-2.94l1.76,1.69Z"/>
        <ellipse class="cls-2" cx="162.33" cy="54.26" rx="2.34" ry="1.76"/>
        <ellipse class="cls-2" cx="165.99" cy="56.22" rx=".94" ry=".71"/>
        <ellipse class="cls-2" cx="159.08" cy="56.96" rx="1.2" ry=".91"/>
        <path class="cls-27" d="M131.81,197.45c30.45-.09,55.1-24.79,55.11-55.24v-59.08c.04-14.65-5.78-28.72-16.16-39.06l-1.81-1.72c-.42-.38-1.04-.43-1.52-.13-10.87,6.15-23.19,9.27-35.67,9.03-12.49,.24-24.81-2.89-35.67-9.05-.48-.29-1.09-.22-1.49,.16-11.46,10.47-17.99,25.27-17.99,40.8v59.1c0,3.33,.29,6.66,.89,9.94h0s0,.01,0,.02c.13,.68,.79,1.12,1.47,.98,.01,0,.03,0,.04,0,.66-.13,1.1-.78,.96-1.44-.56-3.13-.84-6.31-.85-9.5v-59.1c.04-14.48,6.03-28.31,16.56-38.25,11.09,6.06,23.57,9.13,36.2,8.92,12.64,.22,25.12-2.85,36.2-8.92l1.05,1c9.91,9.86,15.47,23.27,15.43,37.25v59.19c.02,18.69-9.87,35.99-25.98,45.46-25.08,14.75-57.36,6.37-72.11-18.71-.36-.47-.99-.64-1.54-.4,0,0-.02,0-.02,.01-.62,.29-.89,1.04-.6,1.66,9.97,16.74,28,27.02,47.48,27.09Z"/>
        <ellipse class="cls-8" cx="86.54" cy="156" rx="2.45" ry="3.99" transform="translate(-47.34 38.09) rotate(-19.61)"/>
        <circle class="cls-10" cx="88.79" cy="149.79" r="1.2"/>
        <circle class="cls-12" cx="92.44" cy="156.74" r="1.45"/>
        <path class="cls-27" d="M82.5,165.12l.11-.07c.22,0,.44-.07,.62-.18,0,0,0,0,0,0,.59-.35,.79-1.12,.44-1.71-.47-1.01-.83-2.06-1.09-3.14-.17-.68-.86-1.08-1.54-.91-.67,.18-1.06,.87-.89,1.54,.27,1.32,.69,2.61,1.25,3.83,.23,.39,.64,.64,1.09,.65Z"/>
        <circle class="cls-11" cx="85.02" cy="121.45" r="1.47"/>
        <circle class="cls-9" cx="87.02" cy="117.13" r="1.47"/>
        <circle class="cls-8" cx="83.21" cy="125.55" r="1.47"/>
        <circle class="cls-11" cx="85.46" cy="130.33" r="1.47"/>
        <circle class="cls-9" cx="87.47" cy="126" r="1.47"/>
        <circle class="cls-8" cx="83.66" cy="134.43" r="1.47"/>
        <circle class="cls-4" cx="169.8" cy="161.87" r="1.47"/>
        <circle class="cls-3" cx="167.79" cy="157.55" r="1.47"/>
        <circle class="cls-2" cx="171.58" cy="165.97" r="1.47"/>
        <circle class="cls-4" cx="169.35" cy="170.74" r="1.47"/>
        <circle class="cls-3" cx="167.35" cy="166.42" r="1.47"/>
        <circle class="cls-2" cx="171.16" cy="174.87" r="1.47"/>
        <path d="M173.48,134.74c.35,0,.69-.06,1.03-.16,0,0,0,0,0,0,1.8-.57,2.79-2.48,2.23-4.28-.26-.87-.86-1.61-1.67-2.03-.8-.43-1.74-.51-2.61-.22h0c-1.49,.43-2.51,1.81-2.47,3.36,.05,1.88,1.61,3.37,3.49,3.33Zm-.62-5.44c.53-.16,1.1-.1,1.58,.16,.5,.25,.87,.69,1.03,1.23,0,0,0,.01,0,.02,.34,1.11-.29,2.28-1.4,2.61-1.11,.34-2.28-.29-2.61-1.4-.34-1.11,.29-2.28,1.4-2.61Z"/>
        <path d="M179.94,135.7c.22,0,.44-.04,.65-.11,.5-.18,.93-.53,1.19-.99,.62-1.07,.25-2.43-.82-3.05-.52-.27-1.12-.32-1.67-.16-.56,.18-1.02,.57-1.29,1.09-.26,.51-.32,1.1-.16,1.65,.17,.55,.56,1.02,1.07,1.29,.32,.17,.67,.26,1.03,.27Zm0-3.54c.19,.01,.37,.06,.54,.16,.27,.04,.52,.15,.72,.33,.55,.5,.59,1.34,.1,1.89-.5,.55-1.34,.59-1.89,.1-.32-.17-.55-.46-.65-.8-.14-.33-.14-.7,0-1.03,.16-.31,.44-.54,.78-.65h0c.13-.02,.27-.02,.4,0Z"/>
        <path d="M177.85,128.5c.21,.02,.43,0,.62-.09,.45-.13,.83-.43,1.05-.85,.17-.43,.17-.91,0-1.34-.02-.12-.06-.23-.11-.34-.38-.89-1.42-1.31-2.31-.93-.89,.38-1.31,1.42-.93,2.31,.15,.44,.46,.81,.87,1.03,.25,.13,.52,.2,.8,.2Zm0-2.83c.18-.03,.37,0,.54,.07,.24,.13,.43,.36,.51,.62,.11,.26,.11,.56,0,.82,0,.01-.01,.03-.02,.04-.28,.5-.92,.69-1.43,.4-.26-.13-.45-.35-.54-.62-.1-.27-.1-.56,0-.82,.13-.25,.35-.43,.62-.51,.1-.02,.21-.02,.31,0Z"/>
        <path class="cls-25" d="M159.95,27.82c8.61,.4,7.78,8.18,22.49,22.09,8.59,7.7,12.48,19.36,10.23,30.68-55.98-50.72-116.17,0-116.17,0h-5.73s-4.9-20.06,16.79-28.98c0,0,7.71-16.36,23.32-19.64"/>
        <path class="cls-33" d="M192.69,79.7c.69-3.12,.85-6.34,.47-9.52-.22,1.81-.47,2.85-.47,2.85-55.96-50.72-116.15,0-116.15,0h-5.75c-.13-.56-.22-1.12-.27-1.69-.36,2.78-.27,5.61,.27,8.36h5.75s60.12-50.72,116.15,0Z"/>
        <path class="cls-33" d="M93.04,51.45c.07-.18,6.84-11.53,16.88-14.42l-1.05-3.59c-11.44,3.32-18.75,15.61-19.06,16.12l3.23,1.89Z"/>
        <path class="cls-33" d="M179.21,53.21l2.76-2.5c-5.59-5.68-12.57-9.81-20.24-11.97l-.94,3.61c6.96,2.01,13.29,5.74,18.41,10.86Z"/>
        <path d="M190.38,62.13c.21,.01,.43-.03,.62-.11,0,0,.02,0,.02-.01,.62-.29,.89-1.04,.6-1.66-2.02-4.27-4.86-8.1-8.36-11.28-6.32-5.85-13.97-10.07-22.29-12.31-.67-.14-1.34,.27-1.52,.94,0,.01,0,.03,0,.04-.14,.67,.29,1.34,.97,1.48,7.88,2.17,15.14,6.18,21.18,11.68,3.19,2.98,5.78,6.54,7.62,10.5,.21,.45,.66,.74,1.16,.74Z"/>
        <path class="cls-33" d="M75.52,68.22c.45-2.26,1.62-4.31,3.34-5.84l-2.23-3.01c-2.47,2.1-4.16,4.98-4.79,8.16l3.68,.69Z"/>
        <path d="M75.7,61.31c.4-.03,.76-.23,.98-.56,2.25-2.71,5.02-4.94,8.16-6.55,2.27-1.21,4.19-2.98,5.57-5.15,3.12-4.88,10.03-13.6,20.69-15.83,.68-.15,1.12-.81,.98-1.49,0,0,0-.02,0-.03-.15-.67-.81-1.1-1.49-.95-11.55,2.43-18.93,11.73-22.29,17.05-1.15,1.8-2.75,3.26-4.64,4.26-3.42,1.78-6.45,4.22-8.92,7.18-.44,.54-.36,1.34,.18,1.78,.22,.18,.5,.28,.78,.29Z"/>
        <path d="M70.57,73.23c.62,0,1.15-.46,1.25-1.07,.27-1.92,.77-3.8,1.49-5.6,.25-.65-.07-1.38-.71-1.65,0,0,0,0,0,0-.64-.26-1.37,.05-1.62,.69-.8,1.99-1.35,4.07-1.65,6.2-.09,.69,.38,1.32,1.07,1.43h.18Z"/>
        <path class="cls-19" d="M91.86,37.1c.7,0,1.34-.37,1.67-.98,3.98-6.85,9.5-12.67,16.14-16.99,.01,0,.02-.01,.03-.02,.87-.53,1.15-1.67,.61-2.54-.53-.89-1.68-1.17-2.56-.65-7.23,4.66-13.24,10.97-17.54,18.41,0,0,0,0,0,0-.49,.91-.15,2.05,.76,2.54,.27,.15,.58,.23,.89,.22Z"/>
        <path class="cls-8" d="M116.59,15.61c.25,.03,.49,.01,.74-.04,2.62-.91,5.31-1.59,8.05-2.03,.05,0,.1-.02,.15-.03,1-.22,1.63-1.2,1.41-2.2,0-.07-.02-.13-.03-.19-.23-.98-1.21-1.59-2.19-1.37-2.98,.49-5.91,1.23-8.76,2.23-.96,.36-1.46,1.42-1.11,2.39,.26,.75,.97,1.25,1.76,1.25Z"/>
        <path d="M181.48,49.8h.13c.7-.09,1.18-.73,1.09-1.43-1.23-9.02-5.14-17.46-11.21-24.23,0,0-.01-.02-.02-.02-.46-.51-1.25-.55-1.76-.09,0,0-.02,.02-.03,.03-.47,.49-.46,1.26,.03,1.73,5.72,6.42,9.39,14.4,10.54,22.92,.08,.62,.6,1.09,1.23,1.09Z"/>
        <path d="M166.48,22.05c.34-.01,.65-.17,.87-.42,0,0,.01-.01,.02-.02,.48-.49,.47-1.28-.02-1.77-2.09-1.82-4.33-3.47-6.69-4.93,0,0-.02,0-.02-.01-.59-.36-1.36-.17-1.72,.42-.36,.59-.19,1.37,.4,1.74,2.23,1.39,4.35,2.96,6.33,4.68,.22,.21,.52,.32,.82,.31Z"/>
        <path d="M85.29,52.7c.66,0,1.2-.52,1.23-1.18,1.52-23.41,22.16-41.73,46.99-41.73,5.36,0,10.68,.86,15.76,2.56,1.31,.42,2.6,.91,3.86,1.47,.64,.26,1.37-.03,1.65-.67,0,0,0,0,0,0,.27-.63-.02-1.37-.65-1.64-1.32-.58-2.65-1.09-4.04-1.56-5.34-1.78-10.93-2.69-16.56-2.68-26.15,0-47.91,19.48-49.4,44.1,0,0,0,0,0,0-.05,.69,.47,1.28,1.16,1.33h0Z"/>
        <ellipse class="cls-19" cx="119.66" cy="24.08" rx="7.18" ry="3.81"/>
        <circle class="cls-19" cx="127.8" cy="18.37" r="1.89"/>
        <path class="cls-2" d="M179.25,74.68c.44,.02,.85-.19,1.09-.56,.01-.01,.02-.03,.03-.04,.37-.57,.2-1.33-.36-1.7-42.76-28.71-85.2-1.74-85.63-1.47-.58,.38-.75,1.15-.38,1.74,.39,.58,1.17,.75,1.76,.38,.36-.27,41.44-26.22,82.8,1.45,.21,.13,.45,.2,.69,.2Z"/>
        <path d="M192.67,81.9l.31-.16c.42-.13,.75-.47,.87-.89,1.1-5.17,.9-10.53-.56-15.61h0c-.18-.68-.88-1.08-1.56-.89-.67,.19-1.06,.89-.87,1.56,1.09,3.97,1.4,8.11,.91,12.19-53.35-46.37-110.64-2.9-115.77,1.18h-4.24c-.16-1.16-.25-2.33-.25-3.5-.01-.69-.58-1.25-1.27-1.25h0s-.03,0-.04,0c-.68,.01-1.22,.57-1.2,1.25-.01,1.72,.18,3.45,.56,5.13,.13,.56,.63,.95,1.2,.96h5.73c.3,0,.59-.1,.82-.29,.58-.49,59.9-49.42,114.5,0,.24,.2,.54,.31,.85,.31Z"/>
        <path d="M88.12,83.69c.9,.06,1.79-.24,2.47-.82,1.33-1.34,1.33-3.5,0-4.84h0c-1.14-.82-2.66-.86-3.84-.1-1.58,1.02-2.04,3.13-1.02,4.71,.63,.65,1.48,1.03,2.39,1.05h0Zm0-5.51h-.18c1.16,0,2.1,.94,2.1,2.1s-.94,2.1-2.1,2.1h0c-.55-.01-1.07-.25-1.45-.65-.38-.41-.6-.95-.6-1.52,.1-1.15,1.07-2.03,2.23-2.03Z"/>
        <path d="M89.08,89.17c.56,0,1.1-.22,1.52-.6,.42-.4,.67-.95,.69-1.54,0-.58-.22-1.14-.62-1.56h0c-.16-.26-.37-.48-.62-.65-1.01-.7-2.4-.46-3.1,.55-.7,1.01-.46,2.4,.55,3.1,.41,.43,.98,.68,1.58,.69Zm0-3.54c.36,.01,.69,.17,.94,.42h0c.5,.53,.5,1.36,0,1.89h0c-.54,.51-1.38,.49-1.89-.04-.51-.54-.49-1.38,.04-1.89,.24-.24,.57-.38,.91-.38Z"/>
        <path d="M94.14,83.91c.48,.02,.95-.16,1.29-.49,.68-.69,.68-1.79,0-2.47-.32-.32-.74-.5-1.19-.52-.97-.03-1.79,.73-1.82,1.7-.01,.46,.17,.91,.49,1.25,.32,.33,.76,.52,1.23,.54h0Zm0-2.83h.02c.28,.02,.54,.14,.74,.33,.41,.42,.41,1.09,0,1.52-.22,.18-.49,.29-.78,.31-.28-.01-.54-.13-.74-.33-.2-.21-.31-.49-.31-.78,.02-.28,.14-.54,.33-.74,.19-.2,.46-.31,.74-.31Z"/>
        <circle class="cls-33" cx="106.15" cy="44.45" r="1.14"/>
        <circle class="cls-33" cx="96.68" cy="47.08" r="1.14"/>
        <circle class="cls-33" cx="101.54" cy="44.45" r=".8"/>
        <circle class="cls-33" cx="107.29" cy="40.53" r=".8"/>
        <circle class="cls-33" cx="102.34" cy="47.89" r=".8"/>
        <circle class="cls-33" cx="105.91" cy="48.44" r=".56"/>
        <circle class="cls-33" cx="130.34" cy="36.18" r=".56"/>
        <circle class="cls-33" cx="153.08" cy="23.5" r=".56"/>
        <circle class="cls-33" cx="144.36" cy="27.89" r=".56"/>
        <circle class="cls-33" cx="132.39" cy="27.31" r=".56"/>
        <circle class="cls-33" cx="159.08" cy="51.68" r=".56"/>
        <circle class="cls-33" cx="88.12" cy="60.35" r=".56"/>
        <circle class="cls-33" cx="144.92" cy="50.52" r=".56"/>
        <circle class="cls-33" cx="131.83" cy="45.7" r=".56"/>
        <circle class="cls-33" cx="95.56" cy="54.26" r=".56"/>
        <circle class="cls-33" cx="89.03" cy="55.51" r=".56"/>
        <path class="cls-13" d="M162.51,148.12h0c.02,3.53,2.91,6.38,6.44,6.35h0c3.34,0,6.04,2.7,6.04,6.04v42.56c0,4.92-3.99,8.92-8.92,8.92l-16.14,5.08-17.5,1.85-18.19-1.85-16.61-5.08c-4.92,0-8.92-3.99-8.92-8.92v-42.56c.05-3.3,2.74-5.95,6.04-5.95h0s.01,0,.02,0c3.53-.01,6.39-2.89,6.38-6.42v-3.23s0-.03,0-.04c.02-3.39,2.79-6.11,6.18-6.09h49.04c3.39,0,6.13,2.74,6.13,6.13v3.21Z"/>
        <path class="cls-23" d="M174.93,194.11c0,4.92-3.98,8.9-8.89,8.92H97.59c-4.92,0-8.92-3.99-8.92-8.92v8.25c0,4.92,3.99,8.92,8.92,8.92l16.61,5.77,18.19,1.85,17.5-1.85,16.12-5.77c4.92,0,8.92-3.99,8.92-8.92v-8.25Z"/>
        <path class="cls-20" d="M112.6,151.59s0,9.07,0,9.07h0c.01,10.9,8.85,19.73,19.75,19.73h0c10.89-.01,19.72-8.84,19.73-19.73v-9.07h-39.48Z"/>
        <ellipse class="cls-37" cx="132.32" cy="164.66" rx="12.04" ry="7.47"/>
        <path class="cls-8" d="M150.05,161.18c.86,0,1.56-.68,1.58-1.54v-8.92h-38.19v8.05h0s0,.01,0,.02c0,1.32,1.07,2.39,2.39,2.39h34.22Z"/>
        <path class="cls-21" d="M149.04,161.18c1.43,0,2.59-1.16,2.59-2.59v-1.23h-38.17v1.23h0c0,1.43,1.16,2.59,2.59,2.59h32.99Z"/>
        <path class="cls-29" d="M151.63,162.23c.57-.01,1.03-.48,1.03-1.05,0-.57-.46-1.03-1.03-1.03h-38.17s-.02,0-.02,0c-.57,0-1.03,.46-1.03,1.03h0c0,.58,.47,1.05,1.05,1.05h38.17Z"/>
        <path class="cls-29" d="M132.55,180.75h0c11.68,.01,21.17-9.45,21.18-21.13v-4.68s0-.02,0-.02c-.02-3.2-2.64-5.78-5.84-5.75h-30.74c-3.18,.01-5.76,2.59-5.77,5.77v4.68c.02,11.68,9.5,21.13,21.18,21.13Zm-15.36-28.82h30.7c1.66,.01,3,1.35,3.01,3.01v4.68h0c-.34,9.64-8.08,17.38-17.72,17.72-10.14,.35-18.64-7.58-19-17.72v-4.68c.01-1.66,1.35-3,3.01-3.01Z"/>
        <path class="cls-27" d="M133.26,146.84c.12,0,.24,0,.36-.02h0c.66-.23,1-.95,.78-1.61-1.15-2.95-1.83-6.07-2.03-9.23v-8.4c-.08-.57-.52-1.02-1.09-1.09-.7-.09-1.33,.4-1.43,1.09v8.4c.21,3.43,.96,6.81,2.23,10.01,.17,.51,.64,.85,1.18,.85Z"/>
        <path class="cls-28" d="M106.33,158.64s.02,0,.02,0c.34,0,.62-.28,.62-.62v-18.1c-.05-.26-.25-.47-.52-.52-.35-.07-.69,.16-.75,.52,.16,10.08,0,18.08,0,18.08h0s0,.02,0,.02c0,.34,.28,.62,.62,.62h0Z"/>
        <path class="cls-28" d="M120.29,199.63s.02,0,.02,0c.34,0,.62-.28,.62-.62,0-.09,.11-8.05,.11-18.12-.01-.34-.28-.61-.62-.62h0c-.36,0-.65,.29-.65,.65,.04,10.05-.11,18.08-.11,18.08h0c0,.35,.28,.63,.62,.65h0Z"/>
        <path class="cls-28" d="M108.89,156.25c.34,0,.62-.28,.62-.62v-8.78c0-.34-.28-.62-.62-.62-.02,0-.03,0-.05,0-.33,.01-.59,.29-.58,.62v8.78c.01,.34,.28,.61,.62,.62h0Z"/>
        <path class="cls-28" d="M117.3,190.61s.02,0,.02,0c.34,0,.62-.28,.62-.62v-8.78c-.01-.35-.29-.63-.65-.65-.35,.01-.62,.3-.62,.65v8.78c0,.34,.28,.62,.62,.62h0Z"/>
        <path class="cls-8" d="M91.48,176.76c.77-.01,1.38-.64,1.38-1.4v-13.53c.01-.12,.01-.24,0-.35-.1-.77-.8-1.31-1.57-1.22-.77,.1-1.31,.8-1.22,1.57v13.53c0,.78,.63,1.4,1.4,1.4Z"/>
        <path class="cls-8" d="M91.48,185.57c.76-.01,1.37-.62,1.38-1.38v-3.61c-.08-.64-.58-1.14-1.22-1.22-.77-.1-1.47,.45-1.57,1.22v3.59c0,.78,.63,1.4,1.4,1.4Z"/>
        <path class="cls-28" d="M94.18,173.08c.34-.01,.62-.28,.65-.62v-8.78h0c0-.36-.29-.65-.65-.65-.34,.02-.61,.3-.62,.65v8.76c0,.35,.28,.63,.62,.65h0Z"/>
        <path class="cls-28" d="M96.97,179.73s0,0,0,0c.34,.01,.63-.26,.65-.6v-8.78c.01-.08,.01-.16,0-.24-.07-.35-.4-.58-.75-.52-.35,.07-.58,.4-.52,.75v8.76s0,.03,0,.05c.01,.33,.29,.59,.62,.58h0Z"/>
        <circle class="cls-23" cx="133.68" cy="197.65" r="1.14"/>
        <circle class="cls-23" cx="143.45" cy="198.68" r="1.14"/>
        <circle class="cls-23" cx="137.96" cy="199.32" r=".8"/>
        <circle class="cls-23" cx="131.19" cy="200.88" r=".8"/>
        <circle class="cls-23" cx="138.48" cy="195.84" r=".8"/>
        <circle class="cls-23" cx="135.36" cy="194.02" r=".56"/>
        <circle class="cls-23" cx="108.16" cy="196.47" r=".56"/>
        <circle class="cls-23" cx="110.23" cy="187.08" r=".56"/>
        <circle class="cls-23" cx="147.13" cy="192.41" r=".56"/>
        <circle class="cls-23" cx="153.66" cy="193.64" r=".56"/>
        <circle class="cls-23" cx="160.53" cy="178.26" r="1.14"/>
        <circle class="cls-23" cx="165.43" cy="169.76" r="1.14"/>
        <circle class="cls-23" cx="163.8" cy="175.02" r=".8"/>
        <circle class="cls-23" cx="162.46" cy="181.84" r=".8"/>
        <circle class="cls-23" cx="160.84" cy="173.15" r=".8"/>
        <circle class="cls-23" cx="157.89" cy="175.25" r=".56"/>
        <circle class="cls-23" cx="149.04" cy="201.11" r=".56"/>
        <circle class="cls-23" cx="141.31" cy="195.35" r=".56"/>
        <circle class="cls-23" cx="161.19" cy="163.83" r=".56"/>
        <circle class="cls-23" cx="164.98" cy="158.37" r=".56"/>
        <circle class="cls-23" cx="94.87" cy="199.86" r="1.14"/>
        <circle class="cls-23" cx="99.78" cy="191.36" r="1.14"/>
        <circle class="cls-23" cx="98.15" cy="196.62" r=".8"/>
        <circle class="cls-23" cx="96.81" cy="203.45" r=".8"/>
        <circle class="cls-23" cx="95.18" cy="194.75" r=".8"/>
        <circle class="cls-23" cx="92.24" cy="196.85" r=".56"/>
        <circle class="cls-23" cx="95.56" cy="185.43" r=".56"/>
        <circle class="cls-23" cx="99.33" cy="179.97" r=".56"/>
        <path class="cls-8" d="M126.17,141.25c.77,0,1.4-.63,1.4-1.4,0-.78-.63-1.41-1.4-1.41h-9.25c-.77,0-1.4,.63-1.4,1.4,0,.78,.63,1.41,1.4,1.41h9.25Z"/>
        <path class="cls-8" d="M111.99,141.25c.77,0,1.4-.63,1.4-1.4,0-.78-.63-1.41-1.4-1.41h-2.36c-.77,0-1.4,.63-1.4,1.4,0,.78,.63,1.41,1.4,1.41h2.36Z"/>
        <path d="M132.41,220.12c11.69-.03,23.24-2.57,33.86-7.47,5.47-.17,9.82-4.65,9.83-10.12v-42.49c-.01-4-3.25-7.23-7.25-7.25h0c-2.87,0-5.19-2.33-5.19-5.19v-3.23c0-4.05-3.28-7.34-7.33-7.36h-49.04c-4.05,.01-7.33,3.3-7.33,7.36v3.23c-.01,2.86-2.33,5.18-5.19,5.19-4,.01-7.23,3.25-7.25,7.25v42.49c0,5.48,4.36,9.96,9.83,10.12,10.63,4.9,22.2,7.45,33.91,7.47h1.16Zm-25.12-80.68h49.16c2.71,.01,4.9,2.21,4.9,4.93v3.23c0,4.21,3.41,7.62,7.62,7.62h0c2.66,0,4.82,2.16,4.82,4.82v42.49c0,4.24-3.43,7.68-7.67,7.69-.17-.03-.34-.03-.51,0-10.38,4.83-21.68,7.34-33.13,7.36h-1.16c-11.45-.02-22.75-2.53-33.13-7.36-.17-.03-.34-.03-.51,0-4.24-.01-7.67-3.45-7.67-7.69v-42.49h0c0-2.66,2.16-4.82,4.82-4.82,4.21-.01,7.61-3.42,7.62-7.62v-3.23c0-2.69,2.15-4.88,4.84-4.93Z"/>
        <polyline points="138.48 8.54 137.14 0 136.03 8.54 134.29 4.04 133.53 8.54"/>
        <polyline points="137.21 7.4 137.14 0 134.78 7.4"/>
        <polyline points="85.8 51.3 78.82 46.21 84.06 53.04 79.65 51.1 82.3 54.8"/>
        <polyline points="84.1 51.41 78.82 46.21 82.39 53.12"/>
        <polyline points="180.08 47.89 187.05 42.8 181.82 49.6 186.23 47.66 183.58 51.39"/>
        <polyline points="181.77 47.97 187.05 42.8 183.49 49.69"/>
        <path class="cls-5" d="M153.37,87.41l3.19-9.12-3.72-1.36c-18.15-6.69-39.95-.38-40.86-.11l-4.06,1.2,2.74,9.45,4.08-1.38c4.91-3.34,10.54-5.45,16.43-6.15,6.13-.36,11.95,3.81,18.3,6.04l3.9,1.43Z"/>
        <path class="cls-13" d="M154.06,82.71l3.37-9.34-4.59-1.69c-18.15-6.58-39.95-.27-40.86,0l-4.68,1.38,2.76,9.36,4.68-1.38c.18,0,19.6-5.57,34.73,0l4.59,1.67Z"/>
        <path class="cls-23" d="M155.33,79.05l-4.35-1.43c-16.3-5.64-37.21,0-37.39,0l-4.19,1.2,.85,2.92,4.7-1.38c.18-.11,19.62-5.64,34.73-.11l4.59,1.67,1.05-2.88Z"/>
        <path class="cls-8" d="M110.25,74.86c.1,0,.2-.02,.29-.07,4.71-1.48,9.57-2.45,14.49-2.9,0,0,.02,0,.03,0,.5-.04,.88-.48,.84-.98,0-.02,0-.03,0-.05-.04-.5-.48-.88-.98-.84-5.08,.45-10.1,1.46-14.96,3.01,0,0,0,0,0,0-.49,.16-.76,.69-.6,1.18,.14,.38,.49,.63,.89,.65Z"/>
        <path d="M154.06,83.55c.35,0,.67-.22,.78-.56l3.34-9.14c.1-.2,.1-.44,0-.65-.1-.2-.26-.36-.47-.45l-4.59-1.67c-.91-.38-2.1-.74-3.14-1.03-.45-.13-.92,.13-1.05,.58-.13,.45,.13,.92,.58,1.05,1.03,.29,2.03,.62,3.03,.98l3.79,1.4-2.79,7.56-3.79-1.38c-15.43-5.75-35.09,0-35.27,0l-3.9,1.2-2.23-7.74,3.86-1.16c10.68-2.92,21.85-3.58,32.79-1.94,.47,.08,.91-.23,1-.69,0,0,0,0,0,0,.08-.46-.23-.9-.69-.98-11.21-1.68-22.64-1-33.57,1.98l-4.68,1.38c-.22,.07-.4,.22-.51,.42-.09,.21-.09,.44,0,.65l2.76,9.36c.15,.44,.62,.7,1.07,.58l4.68-1.38c.18-.13,19.24-5.62,34.2-.13l4.5,1.74h.29Z"/>
        <polyline class="cls-23" points="140.42 76.55 144.76 73.39 133.86 75.75"/>
        <polyline class="cls-23" points="144.63 76.55 148.96 73.39 138.05 75.75"/>
        <circle class="cls-8" cx="118.46" cy="73.28" r=".85"/>
        <circle class="cls-8" cx="116.59" cy="73.28" r=".6"/>
        <path d="M108.72,78.49l.27-.02c2.83-1.02,5.72-1.83,8.67-2.41,0,0,.01,0,.02,0,.25-.05,.42-.3,.36-.55,0-.02,0-.04-.01-.06-.06-.24-.31-.38-.55-.32-3.03,.59-6.01,1.41-8.92,2.45-.2,.06-.33,.25-.33,.46,0,.26,.22,.46,.48,.45Z"/>
        <path d="M109.14,80.26l.27-.02s1.83-.69,4.28-1.38c0,0,0,0,0,0,.25-.07,.39-.33,.32-.58-.08-.25-.33-.39-.58-.33-2.61,.71-4.46,1.4-4.46,1.4,0,0,0,0,0,0-.24,.09-.37,.36-.28,.6,.07,.18,.25,.31,.45,.31Z"/>
        <path class="cls-14" d="M121.42,570.7c1.03-.01,1.86-.84,1.87-1.87,0-.62,.45-62.55,9.18-88.68,.32-.98-.2-2.03-1.18-2.36-.98-.31-2.03,.21-2.36,1.18-8.92,26.68-9.36,87.28-9.36,89.84h0c-.01,1.03,.82,1.88,1.85,1.89h0Z"/>
        <path class="cls-14" d="M141.46,563.57h.02s0,0,0,0c1.03,.02,1.89-.79,1.92-1.83,0-.4,.85-40.55-2.96-70.16,0-.01,0-.02,0-.03-.14-1.01-1.08-1.72-2.09-1.57-1.01,.14-1.73,1.06-1.63,2.07,3.79,29.34,2.94,69.2,2.94,69.6-.01,1.02,.79,1.87,1.81,1.92Z"/>
        <path class="cls-27" d="M126.08,518.56c.61-.04,1.11-.51,1.18-1.11,2.52-24.79,5.77-41.71,9.72-50.27,.29-.63,.02-1.37-.6-1.67,0,0-.02,0-.02-.01-.63-.28-1.37,0-1.65,.64-4.06,8.72-7.42,25.99-9.97,51.07,0,0,0,.02,0,.03-.04,.7,.5,1.3,1.21,1.33h.13Z"/>
        <path class="cls-27" d="M122.96,561.36c.7,.03,1.29-.51,1.34-1.2,.54-11.12,1.23-21.82,2.07-31.79h0c.06-.69-.46-1.29-1.15-1.35-.69-.06-1.29,.46-1.35,1.15-.85,9.99-1.56,20.73-2.1,31.88,0,0,0,0,0,0-.04,.69,.49,1.28,1.18,1.31h0Z"/>
        <path class="cls-27" d="M92.09,556.35h.11s0,0,0,0c.69-.06,1.19-.67,1.13-1.36-4.3-45.14,.67-104.18,.67-104.78,0,0,0,0,0,0,.06-.69-.45-1.29-1.14-1.35-.69-.04-1.29,.47-1.36,1.16-.04,.58-4.99,59.86-.67,105.2,.06,.65,.6,1.14,1.25,1.14Z"/>
        <path class="cls-27" d="M168.22,577.39c1.95,.01,3.58-1.45,3.79-3.39,1.43-13.73,3.43-72.99,.8-125.44-.05-.68-.63-1.21-1.32-1.18-.02,0-.03,0-.05,0-.68,.05-1.18,.64-1.13,1.31,2.61,52.32,.62,111.38-.8,125.06-.07,.66-.63,1.16-1.29,1.16h-25.53c-.91-.01-1.78-.4-2.41-1.07-.42-.45-.63-1.06-.58-1.67,3.95-34.29-4.7-97.44-4.7-98.09-.09-.68-.72-1.16-1.4-1.07-.68,.09-1.16,.72-1.07,1.4,.09,.65,8.58,63.49,4.68,97.42-.15,1.32,.28,2.65,1.18,3.63,1.1,1.22,2.66,1.91,4.3,1.92h25.53Z"/>
        <path class="cls-27" d="M160.41,392.36c-.17,0-.34-.06-.47-.18l-8.69-8.92h0c-.25-.25-.25-.65,0-.89,.25-.25,.65-.25,.89,0l8.72,8.92c.11,.11,.18,.26,.18,.42,0,.35-.28,.63-.62,.65Z"/>
        <path class="cls-27" d="M161.35,388.84c-.17,0-.33-.06-.45-.18l-5.39-5.51h0c-.24-.26-.24-.66,0-.91,0,0,0,0,0,0,.25-.24,.64-.24,.88,0l5.37,5.53s0,0,0,0c.24,.25,.24,.64,0,.88-.11,.11-.26,.18-.42,.18Z"/>
        <path class="cls-27" d="M138.99,525.78c.12,0,.25-.03,.36-.09l6.89-4.15c.32-.21,.42-.63,.22-.96,0,0,0,0,0-.01-.2-.33-.62-.43-.95-.23l-6.87,4.15s0,0-.01,0c-.33,.2-.43,.62-.23,.95,.13,.21,.36,.34,.6,.33Z"/>
        <path class="cls-27" d="M138.99,525.78c.25,.02,.5-.11,.62-.33l3.9-8.29c.15-.35,0-.74-.33-.91,0,0-.01,0-.02-.01-.35-.16-.76,0-.91,.34l-3.9,8.29c-.15,.35,0,.74,.33,.91,.1,.02,.21,.02,.31,0Z"/>
        <path class="cls-27" d="M99.75,491.87s0,0,0,0c.38,.03,.72-.24,.75-.62,0,0,0,0,0,0,.03-.38-.24-.72-.62-.75l-7.98-.8c-.32,0-.59,.23-.67,.54-.1,.38,.13,.77,.52,.87l8,.78h0Z"/>
        <path class="cls-27" d="M91.75,491.09c.12,0,.23-.03,.33-.09l8.07-4.3c.34-.19,.47-.61,.29-.96-.19-.33-.6-.46-.94-.29l-8.07,4.32s-.03,.01-.04,.02c-.32,.18-.43,.59-.25,.91,.11,.24,.34,.38,.6,.38Z"/>
        <path class="cls-14" d="M122.36,576.48c1.03,0,1.86-.84,1.87-1.87,0-1.03-.83-1.88-1.87-1.88h-15.34c-1.03,0-1.86,.84-1.87,1.87,0,1.03,.83,1.88,1.87,1.88h15.34Z"/>
        <path class="cls-27" d="M122.16,578.22c1.53,0,2.79-1.19,2.88-2.72-.04-.99-.18-1.98-.42-2.94-.47-1.84-.7-3.72-.69-5.62,.03-.69-.51-1.28-1.2-1.32-.04,0-.08,0-.12,0-.66,0-1.2,.54-1.2,1.21,0,2.1,.24,4.2,.74,6.24,.2,.77,.32,1.55,.38,2.34,0,.19-.15,.34-.33,.36l-29.49-.78c-.18,0-.34-.12-.38-.29-.19-2.03,.08-4.08,.78-6,.77-2.3,1.1-4.73,.96-7.16-.1-.68-.72-1.16-1.4-1.09,0,0-.01,0-.02,0-.68,.09-1.16,.72-1.07,1.4,.09,2.1-.21,4.21-.89,6.2-.82,2.27-1.1,4.71-.82,7.11,.3,1.31,1.47,2.23,2.81,2.23h0l29.52,.82Z"/>
        <path class="cls-8" d="M86.85,440.82l.25-.02c.76-.14,1.27-.86,1.14-1.63l-2.23-11.66c-.15-.75-.87-1.25-1.63-1.11-.76,.14-1.27,.86-1.14,1.63l2.23,11.66c.13,.66,.71,1.14,1.38,1.14Z"/>
        <path class="cls-27" d="M86.85,446.73c.24,.02,.48-.04,.69-.16,0,0,0,0,0,0,.57-.39,.72-1.17,.33-1.73-.92-1.34-1.54-2.86-1.81-4.46l-2.99-16.45c-.14-.68-.78-1.13-1.47-1.03-.68,.13-1.13,.79-1,1.47l2.99,16.47c.36,1.92,1.12,3.75,2.23,5.35,.23,.34,.62,.54,1.03,.54Z"/>
        <circle class="cls-36" cx="102.12" cy="288.09" r="2.52"/>
        <circle class="cls-36" cx="102.12" cy="267.32" r="2.52"/>
        <circle class="cls-36" cx="161.39" cy="288.09" r="2.52"/>
        <circle class="cls-36" cx="161.39" cy="267.32" r="2.52"/>
        <polygon class="cls-36" points="101.31 278.93 102.07 276.88 91.71 273.02 90.75 275.56 101.31 278.93"/>
        <path class="cls-36" d="M114.85,295.61c1.03-.01,1.86-.84,1.87-1.87v-25.9c0-1.03-.84-1.87-1.87-1.87s-1.87,.84-1.87,1.87v25.9c.01,1.03,.84,1.86,1.87,1.87Z"/>
        <path class="cls-36" d="M147.04,322.94c22.67-11.66,24.75-36.11,24.68-37.14l-2.01-.16c0,.31-3.95,23.14-24.52,33.75l1.85,3.54Z"/>
        <polygon class="cls-36" points="162.13 278.75 172.76 275.56 171.81 273.02 161.44 276.88 162.13 278.75"/>
        <path class="cls-27" d="M146.59,320.08c.16-.02,.31-.08,.45-.18,.8-.56,19.22-14.51,23.68-34,.1-.37-.02-.76-.31-1l-8.92-8.05,10.01-3.54c.43-.16,.71-.59,.67-1.05-1.21-11.18-7.68-21.12-17.41-26.75h0c-.49-.28-1.12-.11-1.4,.38-.28,.49-.11,1.12,.38,1.4,8.82,5.19,14.82,14.09,16.34,24.21l-10.88,3.86c-.17,.06-.31,.16-.43,.29-.37,.43-.33,1.07,.1,1.45l9.88,8.92c-4.44,18.41-22.58,32.06-22.76,32.19,0,0-.01,0-.02,.01-.45,.34-.54,.98-.2,1.44,.2,.27,.51,.43,.85,.42Z"/>
        <path class="cls-36" d="M148.67,295.61c1.03-.01,1.86-.84,1.87-1.87v-25.9c0-1.03-.84-1.87-1.87-1.87s-1.87,.84-1.87,1.87v25.9c.01,1.03,.84,1.86,1.87,1.87Z"/>
        <path class="cls-27" d="M117.54,325.48s.06,0,.09,0c.84,0,1.51-.68,1.51-1.52v-68.04c0-.18-.04-.37-.11-.54l-2.41-6.44c-.29-.78-1.16-1.18-1.94-.89-.78,.3-1.18,1.17-.89,1.96l2.23,6.18v67.77s0,.03,0,.04c.01,.82,.69,1.48,1.52,1.47Z"/>
        <path class="cls-27" d="M146.01,344.14c.61-.04,1.08-.55,1.07-1.16v-87.28l2.36-6.29s0,0,0-.01c.22-.59-.08-1.24-.67-1.46-.02,0-.04-.01-.05-.02-.58-.2-1.22,.11-1.42,.69l-2.43,6.49c-.02,.13-.02,.27,0,.4v87.48s0,.02,0,.02c0,.63,.51,1.14,1.14,1.14Z"/>
        <circle class="cls-8" cx="131.17" cy="101.86" r="21.91"/>
        <ellipse class="cls-21" cx="131.39" cy="103.17" rx="9.43" ry="11.95"/>
        <ellipse class="cls-27" cx="130.96" cy="100.59" rx="9.32" ry="11.79"/>
        <ellipse class="cls-8" cx="127.64" cy="96.28" rx="3.43" ry="3.75"/>
        <path d="M131.17,125.02c5.42,.01,10.67-1.86,14.85-5.31,0,0,0,0,0,0,.53-.44,.6-1.23,.15-1.76,0,0,0,0-.01-.01-.44-.52-1.21-.58-1.73-.14-3.72,3.1-8.42,4.81-13.26,4.82-4.21,0-8.32-1.27-11.78-3.66-9.39-6.49-11.74-19.36-5.25-28.75,6.49-9.39,19.36-11.74,28.75-5.25,9.39,6.49,11.74,19.36,5.25,28.75-.34,.54-.22,1.25,.27,1.64,.54,.43,1.32,.34,1.75-.19,2.7-3.87,4.16-8.48,4.17-13.2,.02-12.77-10.31-23.14-23.07-23.16-12.77-.02-23.14,10.31-23.16,23.07-.02,12.77,10.31,23.14,23.07,23.16Z"/>
        <circle class="cls-8" cx="135.2" cy="105.83" r="1.18"/>
        <path class="cls-28" d="M154.77,330.29c.31-.03,.55-.31,.54-.62,0-.09,.13-8.05,.13-18.12-.01-.35-.3-.62-.65-.62-.34,0-.62,.28-.62,.62,.16,10.08,0,18.1,0,18.1h0c0,.34,.26,.62,.6,.65h0Z"/>
        <path class="cls-28" d="M158.52,327.91s0,0,0,0c.34,.01,.63-.26,.65-.6v-8.78c-.05-.26-.25-.47-.52-.52-.35-.07-.69,.16-.75,.52v8.76s0,.03,0,.05c.01,.33,.29,.59,.62,.58h0Z"/>
        <path class="cls-8" d="M95.76,268.25c.46,.02,.86-.29,.96-.74,1.57-6.41,5.3-12.09,10.57-16.07,.07-.04,.14-.1,.2-.16,.36-.37,.34-.97-.03-1.32s-.97-.34-1.32,.03c-5.59,4.26-9.53,10.32-11.15,17.17-.08,.52,.27,1,.78,1.09h0Z"/>
        <path class="cls-27" d="M116.92,320.08c.34,.05,.69-.06,.94-.31,0,0,0-.01,.01-.02,.33-.46,.22-1.1-.24-1.43-.18-.13-18.28-13.75-22.74-32.19l9.85-8.92c.13-.12,.23-.26,.29-.43,.19-.53-.09-1.12-.63-1.31l-10.88-3.86c1.41-10.13,7.33-19.08,16.1-24.34h0c.49-.28,.66-.91,.38-1.4-.28-.49-.91-.66-1.4-.38-9.73,5.64-16.2,15.57-17.41,26.75-.04,.46,.24,.89,.67,1.05l10.01,3.54-8.92,8.05c-.29,.25-.41,.64-.31,1,4.35,19.48,22.87,33.39,23.68,34,.17,.13,.39,.2,.6,.2Z"/>
        <path d="M102.12,291.21c.31,.02,.62-.01,.91-.09,.8-.25,1.46-.8,1.85-1.54,.4-.74,.48-1.61,.23-2.41-.51-1.65-2.26-2.56-3.91-2.05h0c-.81,.24-1.49,.8-1.88,1.56-.78,1.52-.18,3.39,1.34,4.17,.45,.23,.95,.35,1.45,.36Zm-.56-4.93h0s.01,0,.02,0c1-.31,2.06,.25,2.37,1.25,.16,.48,.11,1.01-.13,1.45-.24,.45-.65,.79-1.14,.94-.48,.16-1.01,.11-1.45-.13-.44-.24-.78-.64-.94-1.11-.14-.49-.09-1.01,.13-1.47,.24-.45,.65-.78,1.14-.91Z"/>
        <path d="M102.12,270.44v-.04c.32,0,.64-.05,.95-.14,1.63-.52,2.53-2.26,2.02-3.89-.24-.79-.78-1.45-1.52-1.83-.73-.38-1.58-.46-2.36-.22-.79,.24-1.45,.78-1.83,1.52-.39,.73-.47,1.59-.22,2.39,.39,1.31,1.59,2.22,2.96,2.23Zm0-5.02c.81-.02,1.55,.48,1.83,1.25,.24,.95-.27,1.93-1.19,2.27-.99,.37-2.1-.14-2.46-1.13-.14-.49-.09-1.01,.13-1.47,.24-.45,.65-.78,1.14-.91h0c.18-.03,.37-.03,.56,0Z"/>
        <path d="M161.39,291.21c.5,0,1-.13,1.45-.36,.72-.39,1.27-1.04,1.52-1.83,0-.01,0-.02,.01-.03,.5-1.64-.42-3.37-2.06-3.87h0s0,0,0,0c-1.64-.5-3.37,.42-3.87,2.05-.25,.78-.17,1.64,.22,2.36,.37,.74,1.03,1.29,1.83,1.52,.29,.11,.6,.16,.91,.16Zm0-5.02c.19,0,.38,.03,.56,.09h0c.49,.15,.91,.49,1.15,.95,.48,.93,.12,2.07-.81,2.55-.44,.24-.97,.29-1.45,.13-.85-.23-1.43-1.01-1.4-1.89,.03-1.05,.91-1.87,1.96-1.83Z"/>
        <path d="M161.39,270.44c1.36,0,2.56-.89,2.96-2.18,.25-.79,.17-1.65-.22-2.39-.38-.73-1.04-1.28-1.83-1.52-.79-.24-1.64-.16-2.36,.22-.73,.38-1.28,1.04-1.52,1.83-.1,.31-.15,.63-.14,.95,0,1.71,1.4,3.09,3.11,3.09Zm0-5.02c.19,0,.38,.03,.56,.09h0c.49,.14,.9,.47,1.14,.91,.23,.45,.28,.98,.13,1.47-.34,.92-1.32,1.43-2.27,1.19-1.03-.26-1.65-1.3-1.39-2.33,.15-.48,.49-.88,.94-1.11,.27-.15,.58-.23,.89-.22Z"/>
        <path class="cls-28" d="M157.16,190.54s.02,0,.02,0c.34,0,.62-.28,.62-.62v-18.1c.01-.08,.01-.16,0-.24-.07-.35-.4-.58-.75-.52-.35,.07-.58,.4-.52,.75,.16,10.05,0,18.08,0,18.08h0s0,.02,0,.02c0,.34,.28,.62,.62,.62h0Z"/>
        <path class="cls-28" d="M160.06,177.99s.02,0,.02,0c.34,0,.62-.28,.62-.62v-8.78c-.05-.26-.25-.47-.52-.52-.35-.07-.69,.16-.75,.52v8.78c0,.34,.28,.62,.62,.62h0Z"/>
        <path class="cls-28" d="M98.62,211.92s.02,0,.02,0c.34,0,.62-.28,.62-.62,0-.07,.11-8.03,.11-18.1,0-.34-.28-.62-.62-.62s-.62,.28-.62,.62c.04,10.05-.13,18.08-.13,18.08h0s0,.02,0,.02c0,.34,.28,.62,.62,.62h0Z"/>
        <path class="cls-27" d="M95.76,439.17c2.68,.01,4.92-2.04,5.15-4.7l1.56-17.83s0,0,0,0c.02-.32-.22-.6-.54-.62-.3-.01-.57,.21-.6,.51l-1.56,17.83c-.17,2.08-1.92,3.69-4.01,3.68h-10.48c-.07-.01-.15-.01-.23,0-.31,.06-.52,.37-.46,.68,.06,.31,.37,.52,.68,.46h10.48Z"/>
        <path class="cls-27" d="M84.8,443.14l.13-.04,11.15-.11c4.64-.09,8.48-3.65,8.92-8.27l1.74-18.01s0-.02,0-.03c.02-.31-.21-.57-.52-.6-.31-.03-.59,.2-.62,.51l-1.74,18.12c-.42,4.06-3.83,7.15-7.91,7.18l-11.15,.11c-.23,.05-.41,.23-.46,.46-.06,.31,.14,.62,.46,.68Z"/>
        <path class="cls-27" d="M175.8,439.17v-.02c.07,.01,.15,.01,.23,0,.31-.06,.52-.37,.46-.68-.06-.31-.37-.52-.68-.46h-10.5c-2.1,.02-3.85-1.59-4.01-3.68l-1.56-17.83c-.05-.31-.32-.53-.62-.51-.31,.04-.54,.31-.51,.62l1.56,17.83c.21,2.68,2.46,4.75,5.15,4.73h10.5Z"/>
        <path class="cls-27" d="M176.26,443.14h.11c.23-.05,.41-.23,.46-.46,.06-.31-.14-.62-.46-.68l-11.15-.11c-4.09-.04-7.49-3.17-7.87-7.25l-1.76-18.12s0-.05,0-.07c-.05-.29-.33-.49-.62-.44-.31,.04-.54,.31-.51,.62l1.74,18.12c.44,4.62,4.28,8.18,8.92,8.27l11.15,.11h0Z"/>
      </g>
    </g>
  </g>
</svg>