<?xml version="1.0" encoding="UTF-8"?>
<svg id="Layer_2" data-name="Layer 2" xmlns="http://www.w3.org/2000/svg" viewBox="0 0 121.86 183.32">
  <defs>
    <style>
      .cls-1 {
        fill: #f68e2a;
      }

      .cls-2 {
        fill: #ea3d90;
      }

      .cls-3 {
        fill: #eda4ff;
      }

      .cls-4, .cls-5, .cls-6 {
        fill: #fff;
      }

      .cls-7 {
        fill: #ffe8dc;
      }

      .cls-8 {
        fill: #ffc4a4;
      }

      .cls-9 {
        fill: #ffc871;
      }

      .cls-10 {
        fill: #ff9976;
      }

      .cls-11 {
        fill: #fcc6a6;
      }

      .cls-12 {
        fill: #ba17e2;
      }

      .cls-13 {
        fill: #af143b;
      }

      .cls-14 {
        fill: #c60c6e;
      }

      .cls-15 {
        fill: #d2f2ff;
      }

      .cls-16 {
        fill: #dc59fc;
      }

      .cls-17 {
        fill: #1f1712;
      }

      .cls-18 {
        fill: #403126;
      }

      .cls-19 {
        fill: #181828;
      }

      .cls-20, .cls-21 {
        fill: #88d9fc;
      }

      .cls-5 {
        opacity: .55;
      }

      .cls-5, .cls-22, .cls-21, .cls-23, .cls-6 {
        isolation: isolate;
      }

      .cls-22 {
        fill: #e89176;
        opacity: .62;
      }

      .cls-21 {
        opacity: .25;
      }

      .cls-23 {
        fill: #670118;
      }

      .cls-23, .cls-6 {
        opacity: .4;
      }

      .cls-24 {
        opacity: .15;
      }
    </style>
  </defs>
  <g id="Layer_1-2" data-name="Layer 1">
    <g id="Layer_2-2" data-name="Layer 2">
      <g id="Layer_1-2" data-name="Layer 1-2">
        <path class="cls-9" d="M45.35,137.27s8.76,22.78,7.88,40h7.89v-37.1l-14.6-2.92-1.17,.02Z"/>
        <path class="cls-9" d="M76.9,137.27s-8.77,22.78-7.89,40h-7.89v-37.1l14.61-2.92,1.17,.02Z"/>
        <path class="cls-1" d="M68.13,179.92h-2.15c-.83-16.26,6.92-37.45,7.81-39.8l1.1-.22h1.09s-8.73,22.78-7.85,40.02Z"/>
        <path class="cls-1" d="M74.98,142.84c-.34,1-.71,2.22-1.1,3.52h0c-3.27,3.72-7.96,5.87-12.91,5.92h-.2c-4.73,.02-9.26-1.89-12.55-5.28-.35-1.16-.68-2.25-1-3.23,3.32,4.03,8.27,6.36,13.49,6.36h.2c5.59-.03,10.82-2.75,14.07-7.29Z"/>
        <path class="cls-17" d="M61.12,177.77h-7.89c-.14,0-.27-.06-.36-.16-.09-.1-.14-.23-.14-.37,.86-16.91-7.76-39.57-7.85-39.8-.06-.15-.04-.32,.05-.46,.09-.14,.24-.22,.41-.22l1.17-.02s.07,0,.11,0l14.6,2.92c.23,.05,.4,.25,.4,.49v37.1c0,.28-.22,.5-.5,.5Zm-7.37-1h6.87v-36.19l-14.15-2.83h-.41c1.41,3.86,8.3,23.61,7.69,39.02Z"/>
        <path class="cls-17" d="M69.01,177.77h-7.89c-.28,0-.5-.22-.5-.5v-37.1c0-.24,.17-.44,.4-.49l14.61-2.92s.07,0,.11,0l1.17,.02c.16,0,.31,.08,.41,.22,.09,.14,.11,.31,.05,.46-.09,.23-8.72,22.88-7.86,39.79,0,.14-.04,.27-.14,.37-.09,.1-.23,.16-.36,.16Zm-7.39-1h6.87c-.61-15.41,6.29-35.16,7.7-39.01h-.41s-14.16,2.82-14.16,2.82v36.19Z"/>
        <path class="cls-17" d="M60.04,183.32h-14.36c-.99,0-1.8-.81-1.8-1.8h0c0-3.78,3.06-6.84,6.84-6.84h9.22c.62,0,1.13,.51,1.13,1.13h0v6.52c0,.55-.46,1-1.01,.99,0,0-.01,0-.02,0Z"/>
        <path class="cls-17" d="M57.95,176.68h-7.28v-3.2c0-.86,.7-1.56,1.56-1.56h4.16c.86,0,1.56,.7,1.56,1.56v3.2h0Z"/>
        <path class="cls-17" d="M61.98,174.68h9.19c3.77,.02,6.81,3.07,6.81,6.84v.8c0,.55-.45,1-1,1h-15.15c-.55,0-1-.45-1-1v-6.52c0-.62,.52-1.13,1.14-1.12,0,0,0,0,.01,0Z"/>
        <path class="cls-17" d="M65.48,172h4.13c.86,0,1.56,.7,1.56,1.56v3.2h-7.25v-3.2c0-.86,.7-1.56,1.56-1.56Z"/>
        <path class="cls-17" d="M63.25,175.58c-.14,0-.25-.11-.25-.25v-.5c0-.14,.11-.25,.25-.25s.25,.11,.25,.25v.5c0,.14-.11,.25-.25,.25Z"/>
        <path class="cls-17" d="M63.25,173.2c-.14,0-.25-.11-.25-.25v-.94c0-.14,.11-.25,.25-.25s.25,.11,.25,.25v.94c0,.14-.11,.25-.25,.25Zm0-2.82c-.14,0-.25-.11-.25-.25v-.94c0-.14,.11-.25,.25-.25s.25,.11,.25,.25v.94c0,.14-.11,.25-.25,.25Zm0-2.82c-.14,0-.25-.11-.25-.25v-.94c0-.14,.11-.25,.25-.25s.25,.11,.25,.25v.94c0,.14-.11,.25-.25,.25Zm0-2.82c-.14,0-.25-.11-.25-.25v-.94c0-.14,.11-.25,.25-.25s.25,.11,.25,.25v.94c0,.14-.11,.25-.25,.25Zm0-2.82c-.14,0-.25-.11-.25-.25v-.94c0-.14,.11-.25,.25-.25s.25,.11,.25,.25v.94c0,.14-.11,.25-.25,.25Zm0-2.82c-.14,0-.25-.11-.25-.25v-.94c0-.14,.11-.25,.25-.25s.25,.11,.25,.25v.94c0,.14-.11,.25-.25,.25Zm0-2.82c-.14,0-.25-.11-.25-.25v-.94c0-.14,.11-.25,.25-.25s.25,.11,.25,.25v.94c0,.14-.11,.25-.25,.25Zm0-2.82c-.14,0-.25-.11-.25-.25v-.94c0-.14,.11-.25,.25-.25s.25,.11,.25,.25v.94c0,.14-.11,.25-.25,.25Z"/>
        <path class="cls-17" d="M63.25,150.59c-.14,0-.25-.11-.25-.25v-.5c0-.14,.11-.25,.25-.25s.25,.11,.25,.25v.5c0,.14-.11,.25-.25,.25Z"/>
        <path class="cls-17" d="M58.29,175.58c-.14,0-.25-.11-.25-.25v-.5c0-.14,.11-.25,.25-.25s.25,.11,.25,.25v.5c0,.14-.11,.25-.25,.25Z"/>
        <path class="cls-17" d="M58.29,173.2c-.14,0-.25-.11-.25-.25v-.94c0-.14,.11-.25,.25-.25s.25,.11,.25,.25v.94c0,.14-.11,.25-.25,.25Zm0-2.82c-.14,0-.25-.11-.25-.25v-.94c0-.14,.11-.25,.25-.25s.25,.11,.25,.25v.94c0,.14-.11,.25-.25,.25Zm0-2.82c-.14,0-.25-.11-.25-.25v-.94c0-.14,.11-.25,.25-.25s.25,.11,.25,.25v.94c0,.14-.11,.25-.25,.25Zm0-2.82c-.14,0-.25-.11-.25-.25v-.94c0-.14,.11-.25,.25-.25s.25,.11,.25,.25v.94c0,.14-.11,.25-.25,.25Zm0-2.82c-.14,0-.25-.11-.25-.25v-.94c0-.14,.11-.25,.25-.25s.25,.11,.25,.25v.94c0,.14-.11,.25-.25,.25Zm0-2.82c-.14,0-.25-.11-.25-.25v-.94c0-.14,.11-.25,.25-.25s.25,.11,.25,.25v.94c0,.14-.11,.25-.25,.25Zm0-2.82c-.14,0-.25-.11-.25-.25v-.94c0-.14,.11-.25,.25-.25s.25,.11,.25,.25v.94c0,.14-.11,.25-.25,.25Zm0-2.82c-.14,0-.25-.11-.25-.25v-.94c0-.14,.11-.25,.25-.25s.25,.11,.25,.25v.94c0,.14-.11,.25-.25,.25Z"/>
        <path class="cls-17" d="M58.29,150.59c-.14,0-.25-.11-.25-.25v-.5c0-.14,.11-.25,.25-.25s.25,.11,.25,.25v.5c0,.14-.11,.25-.25,.25Z"/>
        <circle class="cls-9" cx="60.72" cy="134.76" r="15.76"/>
        <path class="cls-1" d="M72.23,140.2c1.14-4.84-13,2.43-16.61-2.92,1.43,.17,2.88,.25,4.32,.24v-.09h.89v.09c7.81,0,12.39-2.11,14.62-3.56,.15-.11,.3-.22,.43-.35,0,.49,.07,1,.07,1.49,0,8.58-6.86,15.58-15.43,15.76-6.11,.14,10.65-6.19,11.71-10.66Z"/>
        <path class="cls-17" d="M60.72,150.97c-8.94,0-16.21-7.27-16.21-16.21s7.27-16.21,16.21-16.21,16.21,7.27,16.21,16.21-7.27,16.21-16.21,16.21Zm0-31.52c-8.44,0-15.31,6.87-15.31,15.31s6.87,15.31,15.31,15.31,15.31-6.87,15.31-15.31-6.87-15.31-15.31-15.31Z"/>
        <path class="cls-4" d="M47.11,137.39c.06,1.81,.69,3.56,1.8,5,.52,.69,1.69,0,1.17-.68-.98-1.22-1.54-2.73-1.62-4.29-.05-.37-.38-.64-.76-.59-.31,.04-.55,.28-.59,.59v-.03Z"/>
        <circle class="cls-4" cx="51.36" cy="143.88" r=".92"/>
        <path class="cls-17" d="M60.18,146.64h-.45c-.19,0-.34-.15-.34-.34s.15-.34,.34-.34h.45c.19,0,.34,.15,.34,.34s-.15,.34-.34,.34Z"/>
        <path class="cls-17" d="M57.89,146.6s-.07,0-.11-.02c-.41-.14-.72-.49-.8-.91-.04-.18,.08-.36,.26-.4,.19-.04,.36,.08,.4,.26,.04,.19,.18,.34,.36,.41,.18,.06,.27,.25,.21,.43-.05,.14-.18,.23-.32,.23Zm-.6-2.5c-.19,0-.34-.15-.34-.34v-.92c0-.19,.15-.34,.34-.34s.34,.15,.34,.34v.92c0,.19-.15,.34-.34,.34Zm0-2.76c-.19,0-.34-.15-.34-.34v-.92c0-.19,.15-.34,.34-.34s.34,.15,.34,.34v.92c0,.19-.15,.34-.34,.34Z"/>
        <path class="cls-17" d="M57.29,138.57c-.19,0-.34-.15-.34-.34v-.46c0-.19,.15-.34,.34-.34s.34,.15,.34,.34v.46c0,.19-.15,.34-.34,.34Z"/>
        <path class="cls-17" d="M60.97,150.94c-.19,0-.34-.15-.34-.34v-13.43c0-.19,.15-.34,.34-.34s.34,.15,.34,.34v13.43c0,.19-.15,.34-.34,.34Z"/>
        <g class="cls-24">
          <path class="cls-20" d="M51.6,78.15c-.84-2.83-4.15-4.07-7.08-4.36-8.9-.89-18.12,3.09-26.66,.42-7.57-2.55-12.62-9.7-12.5-17.68,.02-3.81,1.63-7.43,4.44-10,3.55-3,8.61-3.42,12.5-5.92,6.61-4.25,8.22-13,12.56-19.6,6.64-10,20-14.26,31.87-12.39,2.28,.3,4.5,.96,6.58,1.95,8.67,4.43,11.35,15.95,19.48,21.22,2.94,1.9,6.37,2.83,9.65,4.06,5.17,1.76,9.85,4.71,13.68,8.6,3.69,4,6.08,9.38,5.7,14.8-.38,3.27-1.29,6.46-2.68,9.44-1.68,4.11-3.54,8.26-6.62,11.46-6.39,6.63-16.54,7.75-25.76,7.14-4.24-.28-8.59-.87-12.3-3s-6.68-6-6.62-10.2"/>
        </g>
        <path class="cls-21" d="M20.32,9.42c-2.56,.01-4.94,1.3-6.34,3.44-2.3-3.52-7.01-4.51-10.53-2.21C-.07,12.95-1.06,17.66,1.24,21.18c1.4,2.15,3.79,3.44,6.35,3.45h12.73c4.2,.15,7.73-3.13,7.88-7.33,.15-4.2-3.13-7.73-7.33-7.88-.18,0-.37,0-.55,0Z"/>
        <path class="cls-21" d="M109.33,20.7c-1.47,0-2.84,.76-3.64,2-1.31-2-4-2.56-6.01-1.25-2,1.31-2.56,4-1.25,6.01,.8,1.22,2.17,1.96,3.63,1.96h7.27c2.4,0,4.34-1.94,4.34-4.34,0-2.4-1.94-4.34-4.34-4.34h0v-.04Z"/>
        <path class="cls-4" d="M11.8,55.69c-1.47,0-2.84,.76-3.63,2-1.31-2-4-2.56-6.01-1.25-2,1.31-2.56,4-1.25,6.01,.8,1.22,2.17,1.96,3.63,1.96h7.26c2.4,0,4.34-1.94,4.34-4.34s-1.94-4.34-4.34-4.34h0v-.04Z"/>
        <path class="cls-21" d="M104.14,40.61c-2.08-.01-4.02,1.03-5.16,2.77-1.85-2.83-5.64-3.62-8.47-1.77-2.83,1.85-3.62,5.64-1.77,8.47,1.13,1.73,3.06,2.77,5.13,2.77h10.23c3.38,0,6.12-2.74,6.12-6.12s-2.74-6.12-6.12-6.12h.04Z"/>
        <path class="cls-21" d="M22.98,80.11c-2.57,0-4.96,1.3-6.36,3.45-2.3-3.52-7.01-4.51-10.53-2.21-3.52,2.3-4.51,7.01-2.21,10.53,1.41,2.15,3.8,3.45,6.37,3.45h12.73c4.2,0,7.61-3.41,7.61-7.61s-3.41-7.61-7.61-7.61Z"/>
        <path class="cls-8" d="M81.18,105.45c2.53,10.91,2.68,24.06,2.68,24.06l-1.51,2.43-3.07,.58-4.09-27.31,5.99,.24Z"/>
        <path class="cls-10" d="M77.77,105.55c2.53,10.91,2.68,24,2.68,24l-1.47,2.45-3.07,.58-4.13-27.27,5.99,.24Z"/>
        <path class="cls-17" d="M79.28,133.02c-.24,0-.45-.17-.49-.41-.05-.27,.13-.53,.4-.58l2.85-.54,1.32-2.12c-.14-5.98-.65-12-1.54-17.92-.04-.27,.15-.53,.42-.57,.28-.03,.53,.15,.57,.42,.9,6.01,1.42,12.13,1.56,18.19,0,.1-.02,.19-.08,.27l-1.51,2.43c-.07,.12-.19,.2-.33,.23l-3.07,.58s-.06,0-.09,0Z"/>
        <path class="cls-17" d="M81.9,109.44c-.24,0-.45-.17-.49-.41-.22-1.16-.46-2.33-.72-3.47-.06-.27,.11-.54,.38-.6,.27-.06,.54,.11,.6,.38,.26,1.16,.5,2.33,.72,3.51,.05,.27-.13,.53-.4,.58-.03,0-.06,0-.09,0Z"/>
        <circle class="cls-8" cx="81.66" cy="134.06" r="5.7"/>
        <path class="cls-4" d="M86.46,135.6s-.07,0-.1,0c-.33-.05-.55-.36-.49-.69,.18-1.11-.13-2.24-.86-3.09-.22-.25-.19-.63,.07-.85,.25-.22,.63-.19,.85,.07,.96,1.12,1.38,2.61,1.14,4.07-.05,.29-.3,.5-.59,.5Z"/>
        <path class="cls-17" d="M81.67,140.26c-.46,0-.92-.05-1.38-.15-3.34-.75-5.45-4.08-4.7-7.42,.36-1.62,1.34-3,2.74-3.89,1.4-.89,3.07-1.17,4.68-.81,1.62,.36,3,1.34,3.89,2.74,.89,1.4,1.18,3.06,.81,4.68-.06,.27-.33,.44-.6,.38-.27-.06-.44-.33-.38-.6,.3-1.36,.06-2.75-.68-3.93-.74-1.18-1.9-1.99-3.26-2.3-1.36-.3-2.75-.06-3.93,.68s-1.99,1.9-2.3,3.26c-.63,2.8,1.14,5.6,3.94,6.23,1.94,.43,3.93-.25,5.19-1.8,.18-.21,.49-.25,.7-.07,.21,.17,.25,.49,.07,.7-1.2,1.48-2.96,2.3-4.8,2.3Z"/>
        <path class="cls-8" d="M40.67,105.16c-2.53,10.91-2.69,24.05-2.69,24.05l1.5,2.44,3.07,.58,4.09-27.31-5.97,.24Z"/>
        <path class="cls-4" d="M38.98,121.77s-.01,0-.02,0c-.14-.01-.24-.13-.23-.27,0-.05,.4-4.89,1.21-9.61,.02-.14,.15-.23,.29-.2,.14,.02,.23,.15,.2,.29-.81,4.7-1.2,9.52-1.21,9.57-.01,.13-.12,.23-.25,.23Z"/>
        <path class="cls-10" d="M44.08,105.26c-2.53,10.91-2.68,24-2.68,24l1.51,2.43,3.07,.59,4.09-27.28-5.99,.26Z"/>
        <path class="cls-17" d="M42.55,132.73s-.06,0-.09,0l-3.07-.58c-.14-.03-.26-.11-.33-.23l-1.5-2.44c-.05-.08-.08-.18-.07-.27,.13-6.07,.66-12.19,1.57-18.19,.04-.27,.3-.46,.57-.42,.27,.04,.46,.3,.42,.57-.89,5.91-1.42,11.94-1.55,17.92l1.31,2.13,2.85,.54c.27,.05,.45,.31,.4,.58-.05,.24-.25,.41-.49,.41Z"/>
        <path class="cls-17" d="M39.95,109.15s-.06,0-.09,0c-.27-.05-.45-.31-.4-.58,.21-1.15,.46-2.33,.72-3.51,.06-.27,.33-.44,.6-.38,.27,.06,.44,.33,.38,.6-.26,1.16-.5,2.33-.72,3.47-.04,.24-.25,.41-.49,.41Z"/>
        <circle class="cls-8" cx="40.19" cy="133.76" r="5.7"/>
        <path class="cls-4" d="M35.39,135.31c-.29,0-.54-.21-.59-.5-.24-1.46,.17-2.94,1.14-4.07,.22-.25,.59-.28,.85-.06,.25,.22,.28,.59,.06,.85-.73,.85-1.05,1.98-.86,3.09,.05,.33-.17,.64-.49,.69-.03,0-.07,0-.1,0Z"/>
        <path class="cls-17" d="M40.18,139.95c-.72,0-1.45-.13-2.17-.4-1.03-.39-1.94-1.04-2.62-1.9-.17-.21-.14-.53,.08-.7,.21-.17,.53-.14,.7,.08,.58,.71,1.34,1.26,2.2,1.59,2.67,1.01,5.67-.35,6.68-3.02,.49-1.3,.45-2.71-.12-3.97s-1.6-2.23-2.89-2.72c-1.3-.49-2.71-.45-3.97,.12-1.26,.57-2.23,1.6-2.72,2.89-.36,.95-.44,1.97-.21,2.96,.06,.27-.11,.54-.38,.6-.26,.06-.54-.11-.6-.38-.27-1.18-.18-2.41,.25-3.54,.58-1.54,1.74-2.77,3.24-3.45,1.51-.68,3.19-.73,4.73-.15,1.55,.58,2.77,1.74,3.45,3.24s.73,3.19,.15,4.74c-.94,2.47-3.3,4-5.8,4Z"/>
        <path class="cls-16" d="M73.55,93.53c-.66-4.26-3.49-7.86-7.46-9.53-1.65-.69-3.36-1.25-5.11-1.66h-.2c-1.71,.42-3.39,.97-5.01,1.66-3.98,1.67-6.8,5.29-7.46,9.55l-2,12.8-3.66,23.65c-.21,1.37,.4,2.75,1.57,3.5,2.47,1.61,7.55,3.95,16.22,3.95v-.1h1v.1c8.67,0,13.75-2.34,16.23-3.95,1.16-.76,1.78-2.13,1.57-3.5l-5.69-36.47Z"/>
        <path class="cls-16" d="M46.32,106.33c-4,2-8.91-2-8.91-2,0,0,3.57-18.96,18.36-20.33"/>
        <path class="cls-16" d="M75.78,106.33c3.12,.87,6.46,.12,8.91-2,0,0-3.57-18.96-18.36-20.33"/>
        <path class="cls-12" d="M80.98,106.38c-1.64,.43-3.36,.43-5,0l-.38-.89-1.85-11.96c-.64-4.16-3.34-7.71-7.18-9.43v-.13c1.54,.13,3.05,.48,4.49,1.03,5.33,6.77,8.63,16.9,9.92,21.38Z"/>
        <rect class="cls-3" x="40.33" y="120.89" width="9.15" height="1.63" rx=".81" ry=".81" transform="translate(-82.47 146.26) rotate(-80.66)"/>
        <path class="cls-3" d="M45.46,112.74l1.82-11.07c.07-.45,.49-.75,.94-.68h0c.44,.07,.74,.49,.67,.94l-1.82,11.07c-.07,.45-.49,.75-.94,.68h0c-.44-.07-.74-.49-.67-.94Z"/>
        <path class="cls-12" d="M77.21,133.61c-2.48,1.61-7.56,3.95-16.23,3.95v-.1h-1s0,.07,0,.1c-8.67,0-13.75-2.34-16.22-3.95-.89-.59-1.46-1.55-1.56-2.61,4.41,1.93,9.19,2.86,14,2.72v-.09h1v.09c8.67,0,13.76-2.34,16.23-3.95,1.17-.75,1.79-2.13,1.57-3.5l-5.68-36.38c-.27-1.71-.89-3.34-1.82-4.79,3.02,1.92,5.07,5.04,5.61,8.58l5.67,36.43c.21,1.37-.41,2.74-1.57,3.5Z"/>
        <path class="cls-17" d="M61.44,137.95c-.11,0-.22-.04-.3-.1h-.4c-.08,.06-.19,.1-.3,.1-8.97,0-14.18-2.53-16.49-4.03-1.33-.86-2.04-2.43-1.79-4l5.66-36.45c.68-4.4,3.65-8.21,7.76-9.93,1.64-.7,3.35-1.26,5.09-1.68,.04,0,.08-.01,.12-.01h.2s.08,0,.11,.01c1.77,.42,3.51,.98,5.19,1.69,4.1,1.72,7.08,5.52,7.76,9.91l5.69,36.47c.23,1.57-.47,3.13-1.79,4-2.83,1.84-7.99,4.03-16.5,4.03Zm-.56-55.11c-1.66,.4-3.32,.94-4.92,1.62-3.79,1.59-6.54,5.1-7.16,9.17l-5.66,36.45c-.18,1.18,.35,2.36,1.35,3,2.19,1.43,7.12,3.81,15.65,3.87,.08-.06,.19-.1,.3-.1h1c.11,0,.22,.04,.3,.1,8.52-.05,13.46-2.44,15.66-3.87,1-.65,1.52-1.83,1.35-3.01l-5.69-36.47h0c-.63-4.06-3.37-7.56-7.16-9.15-1.61-.67-3.28-1.22-4.97-1.62h-.04Z"/>
        <path class="cls-17" d="M43.8,107.27c-3.66,0-6.56-2.43-6.71-2.56-.14-.12-.2-.3-.17-.47,.04-.19,3.81-19.35,18.81-20.74,.28-.03,.52,.18,.54,.45,.03,.27-.18,.52-.45,.54-13.25,1.23-17.32,17.25-17.85,19.63,.92,.69,4.48,3.06,8.19,1.73,.26-.09,.55,.04,.64,.3,.09,.26-.04,.55-.3,.64-.92,.33-1.83,.47-2.69,.47Z"/>
        <path class="cls-17" d="M78.43,107.4c-.92,0-1.88-.17-2.85-.61-.25-.11-.36-.41-.25-.66s.41-.36,.66-.25c3.55,1.6,7.23-1.01,8.15-1.74-.53-2.35-4.59-18.41-17.85-19.64-.28-.03-.48-.27-.45-.54,.03-.27,.27-.48,.54-.45,14.99,1.39,18.77,20.54,18.81,20.74,.03,.17-.03,.35-.16,.47-.15,.14-3.07,2.69-6.6,2.69Z"/>
        <path class="cls-6" d="M47.32,121.83h0c.28,.04,.46,.3,.42,.58l-.72,4.59c-.04,.28-.3,.47-.58,.43h0c-.28-.04-.46-.3-.42-.58l.72-4.59c.04-.28,.3-.47,.58-.43Z"/>
        <path class="cls-6" d="M49.7,110.27h0c.28,.04,.46,.3,.42,.58l-.72,4.59c-.04,.28-.3,.47-.58,.43h0c-.28-.04-.46-.3-.42-.58l.72-4.59c.04-.28,.3-.47,.58-.43Z"/>
        <path class="cls-6" d="M51.22,97.51h0c.28,.04,.46,.3,.42,.58l-.72,4.59c-.04,.28-.3,.47-.58,.43h0c-.28-.04-.46-.3-.42-.58l.72-4.59c.04-.28,.3-.47,.58-.43Z"/>
        <path class="cls-17" d="M73.49,135.37c-.18,0-.34-.13-.37-.32l-.59-3.8c-.03-.2,.11-.4,.31-.43,.21-.03,.4,.11,.43,.31l.59,3.8c.03,.2-.11,.4-.31,.43-.02,0-.04,0-.06,0Z"/>
        <path class="cls-17" d="M72.55,129.37c-.18,0-.34-.13-.37-.32l-.28-1.82c-.03-.21,.11-.4,.31-.43,.21-.03,.4,.11,.43,.31l.28,1.82c.03,.21-.11,.4-.31,.43-.02,0-.04,0-.06,0Z"/>
        <path class="cls-17" d="M69.7,94.04c-.18,0-.34-.13-.37-.32l-.6-3.8c-.03-.2,.11-.4,.31-.43,.21-.03,.4,.11,.43,.31l.6,3.8c.03,.2-.11,.4-.31,.43-.02,0-.04,0-.06,0Z"/>
        <path class="cls-17" d="M68.76,88.03c-.18,0-.34-.13-.37-.32l-.29-1.83c-.03-.2,.11-.4,.31-.43,.2-.03,.4,.11,.43,.31l.29,1.83c.03,.2-.11,.4-.31,.43-.02,0-.04,0-.06,0Z"/>
        <path class="cls-4" d="M45.37,92.94c-.15,0-.29-.03-.43-.1-.5-.24-.71-.84-.47-1.33,1.44-2.99,3.69-5.51,6.5-7.27,.47-.29,1.09-.15,1.38,.31,.29,.47,.15,1.08-.31,1.38-2.49,1.57-4.49,3.79-5.76,6.45-.17,.36-.53,.57-.9,.57Z"/>
        <circle class="cls-5" cx="56.64" cy="74.28" r=".38"/>
        <circle class="cls-17" cx="40.41" cy="90.05" r="8.1"/>
        <circle class="cls-17" cx="38.56" cy="77.96" r="8.1"/>
        <circle class="cls-17" cx="39.12" cy="64.65" r="8.1"/>
        <circle class="cls-19" cx="40.41" cy="85.87" r="8.1"/>
        <circle class="cls-17" cx="45.58" cy="90.87" r="7.87"/>
        <circle class="cls-17" cx="43.78" cy="79.13" r="7.87"/>
        <circle class="cls-17" cx="44.33" cy="66.21" r="7.87"/>
        <circle class="cls-17" cx="51.04" cy="78.85" r="7.87"/>
        <circle class="cls-17" cx="69.66" cy="79.27" r="7.87"/>
        <circle class="cls-17" cx="55.15" cy="71.14" r="7.87"/>
        <circle class="cls-17" cx="73.78" cy="71.56" r="7.87"/>
        <circle class="cls-19" cx="44.31" cy="69.74" r="7.87"/>
        <circle class="cls-19" cx="62.93" cy="70.16" r="7.87"/>
        <circle class="cls-17" cx="39.27" cy="62.98" r="7.87"/>
        <circle class="cls-17" cx="37.47" cy="51.24" r="7.87"/>
        <circle class="cls-17" cx="38.02" cy="38.32" r="7.87"/>
        <circle class="cls-17" cx="41.7" cy="28.02" r="7.87"/>
        <circle class="cls-17" cx="79.32" cy="63.75" r="7.87"/>
        <circle class="cls-17" cx="81.98" cy="52" r="7.87"/>
        <circle class="cls-17" cx="81.39" cy="39.09" r="7.87"/>
        <circle class="cls-17" cx="81.39" cy="29.17" r="7.87"/>
        <circle class="cls-11" cx="38.79" cy="51.65" r="4.14"/>
        <circle class="cls-22" cx="38.79" cy="51.65" r="1.74"/>
        <path class="cls-17" d="M38.79,56.51c-.37,0-.74-.04-1.11-.13-.88-.21-1.69-.66-2.33-1.3-.18-.18-.35-.38-.5-.58-.23-.32-.16-.77,.16-1.01s.77-.16,1.01,.16c.11,.15,.23,.28,.35,.41,.45,.46,1.02,.77,1.64,.92,1.83,.43,3.68-.71,4.11-2.55,.43-1.84-.71-3.68-2.55-4.11-.89-.21-1.81-.06-2.58,.42-.78,.48-1.32,1.24-1.53,2.13-.09,.39-.48,.63-.87,.54-.39-.09-.63-.48-.54-.87,.61-2.61,3.23-4.23,5.84-3.62,2.61,.61,4.23,3.23,3.62,5.84-.53,2.24-2.53,3.75-4.73,3.75Z"/>
        <circle class="cls-11" cx="83.8" cy="51.65" r="4.14"/>
        <circle class="cls-22" cx="83.8" cy="51.65" r="2.21"/>
        <path class="cls-17" d="M83.8,56.51c-2.68,0-4.86-2.18-4.86-4.86s2.18-4.86,4.86-4.86,4.86,2.18,4.86,4.86-2.18,4.86-4.86,4.86Zm0-8.28c-1.89,0-3.42,1.53-3.42,3.42s1.53,3.42,3.42,3.42,3.42-1.53,3.42-3.42-1.53-3.42-3.42-3.42Z"/>
        <path class="cls-11" d="M57.77,69.25h6.69v13.31c0,1.85-1.5,3.35-3.35,3.35h0c-1.85,0-3.35-1.5-3.35-3.35v-13.31h0Z"/>
        <path class="cls-10" d="M64.39,76v3.26c-1.22-.27-.46,1-3.46,1-2.73,0-2.34-2-3.24-3.35v-.91h6.7Z"/>
        <path class="cls-17" d="M61.06,86.5c-2.14,0-3.86-1.73-3.86-3.85v-13.34c0-.28,.22-.5,.5-.5h6.69c.28,0,.5,.22,.5,.5v13.32c0,1.03-.39,1.99-1.11,2.73-.72,.73-1.69,1.14-2.72,1.14Zm-2.86-16.69v12.84c0,1.57,1.28,2.85,2.85,2.85,.77,0,1.48-.31,2.02-.85,.53-.54,.83-1.26,.82-2.02v-12.82h-5.69Z"/>
        <path class="cls-8" d="M61.4,18.96h0c12.15,0,22,9.85,22,22v13.65c0,12.15-9.85,22-22,22h0c-12.15,0-22-9.85-22-22v-13.65c0-12.15,9.85-22,22-22Z"/>
        <path class="cls-10" d="M82.81,41.39v13.66c0,12.15-9.85,22-22,22h0c-.52,0-1.04-.02-1.56-.06,11.51-.82,20.44-10.4,20.44-21.94v-13.66c0-11.54-8.93-21.12-20.44-21.94,.52,0,1-.05,1.56-.05,12.15,0,22,9.85,22,22h0Z"/>
        <path class="cls-4" d="M63.39,77h-1.48c-12.14,0-22.54-9.89-22.54-22l-.2-13.66c0-12.14,10.6-21.95,22.74-21.95h1.48c-11.45,.76-22.16,10.3-22.16,22v13.71c0,11.65,10.75,21.18,22.16,21.9Z"/>
        <path class="cls-19" d="M45.4,40.26c-.04,.74,.53,1.38,1.28,1.42,.32,.02,.63-.08,.88-.27,1.61-1.01,3.53-1.43,5.42-1.18,2.72,.33,4.15,1.5,4.79,1.51,.65,.14,1.3-.28,1.43-.94,.1-.5-.11-1-.54-1.27-5-2.65-10.1-2.1-12.78-.06-.25,.19-.42,.48-.48,.79Z"/>
        <path class="cls-19" d="M77.3,40.26c.04,.74-.53,1.38-1.28,1.42-.32,.02-.63-.08-.88-.27-1.6-1.01-3.51-1.43-5.39-1.18-2.73,.33-4.16,1.5-4.79,1.51-.65,.15-1.3-.27-1.44-.92-.11-.5,.11-1.02,.54-1.29,5-2.65,10.1-2.1,12.78-.06,.25,.19,.42,.48,.46,.79Z"/>
        <rect class="cls-19" x="60.87" y="48.72" width="1" height="7.81"/>
        <path class="cls-17" d="M61.37,77.82c-12.53,0-22.72-10.19-22.72-22.72v-10.19c0-.4,.32-.72,.72-.72s.72,.32,.72,.72v10.19c0,11.73,9.55,21.28,21.28,21.28s21.28-9.55,21.28-21.28v-13.66c0-11.73-9.55-21.28-21.28-21.28s-21.28,9.55-21.28,21.28c0,.4-.32,.72-.72,.72s-.72-.32-.72-.72c0-12.53,10.19-22.72,22.72-22.72s22.72,10.19,22.72,22.72v13.66c0,12.53-10.19,22.72-22.72,22.72Z"/>
        <circle class="cls-4" cx="43.63" cy="35.07" r=".09"/>
        <circle class="cls-4" cx="42.17" cy="36.68" r="1.21"/>
        <circle class="cls-4" cx="44.68" cy="35.43" r=".54"/>
        <circle class="cls-4" cx="43.82" cy="37.88" r=".47"/>
        <circle class="cls-4" cx="41.47" cy="38.55" r=".22"/>
        <circle class="cls-4" cx="44.1" cy="33.86" r=".18"/>
        <circle class="cls-4" cx="44.19" cy="37.04" r=".09"/>
        <circle class="cls-4" cx="46.75" cy="35.16" r=".09"/>
        <circle class="cls-4" cx="45.55" cy="33.39" r=".29"/>
        <circle class="cls-4" cx="45.52" cy="34.51" r=".2"/>
        <ellipse class="cls-10" cx="52.67" cy="48.72" rx="3.36" ry="4.25"/>
        <ellipse class="cls-19" cx="52.67" cy="47.68" rx="3.36" ry="4.25"/>
        <ellipse class="cls-10" cx="70.25" cy="48.72" rx="3.36" ry="4.25"/>
        <path class="cls-19" d="M72.77,45.84c1.09-.72,2.05-1.62,2.85-2.66-1.12,.75-2.35,1.33-3.64,1.72-1.5,.34,.79,.94,.79,.94Z"/>
        <path class="cls-19" d="M72.79,46.69c1.19-.53,2.29-1.26,3.25-2.15-1.22,.54-2.51,.91-3.84,1.1-1.57,.09,.59,1.05,.59,1.05Z"/>
        <path class="cls-19" d="M72.5,47.38c1.28-.23,2.52-.68,3.66-1.31-1.32,.24-2.67,.29-4,.15-1.53-.29,.34,1.16,.34,1.16Z"/>
        <path class="cls-19" d="M49.83,45.84c-1.09-.73-2.05-1.62-2.85-2.66,1.11,.74,2.33,1.32,3.61,1.72,1.54,.34-.76,.94-.76,.94Z"/>
        <path class="cls-19" d="M49.81,46.69c-1.19-.54-2.28-1.26-3.24-2.15,1.22,.55,2.51,.92,3.84,1.1,1.57,.09-.6,1.05-.6,1.05Z"/>
        <path class="cls-19" d="M50.11,47.38c-1.28-.23-2.52-.68-3.66-1.31,1.32,.24,2.67,.29,4,.15,1.53-.29-.34,1.16-.34,1.16Z"/>
        <ellipse class="cls-19" cx="70.25" cy="47.68" rx="3.36" ry="4.25"/>
        <ellipse class="cls-4" cx="71.63" cy="46.12" rx=".71" ry=".77"/>
        <circle class="cls-17" cx="75.61" cy="24.68" r="8.72"/>
        <circle class="cls-17" cx="46.31" cy="24.5" r="8.72"/>
        <circle class="cls-17" cx="61.04" cy="26.7" r="7.1"/>
        <circle class="cls-17" cx="45.76" cy="20.6" r="7.87"/>
        <circle class="cls-17" cx="76.16" cy="20.6" r="7.87"/>
        <circle class="cls-17" cx="54.18" cy="16.03" r="7.87"/>
        <circle class="cls-17" cx="67.74" cy="16.03" r="7.87"/>
        <circle class="cls-17" cx="60.96" cy="11.19" r="7.1"/>
        <circle class="cls-17" cx="45.9" cy="16.51" r="7.87"/>
        <circle class="cls-17" cx="76.31" cy="16.51" r="7.87"/>
        <circle class="cls-17" cx="54.32" cy="11.94" r="7.87"/>
        <circle class="cls-17" cx="67.89" cy="11.94" r="7.87"/>
        <circle class="cls-17" cx="61.1" cy="7.1" r="7.1"/>
        <circle class="cls-17" cx="56.88" cy="21.64" r="7.1"/>
        <circle class="cls-19" cx="65.55" cy="20.6" r="7.1"/>
        <path class="cls-13" d="M55.41,59.62h11.86c.55,0,1,.45,1,1v2.21c0,3.81-3.08,6.89-6.89,6.89h0c-3.81,0-6.89-3.08-6.89-6.89v-2.2c0-.55,.45-1,1-1h-.08Z"/>
        <ellipse class="cls-23" cx="61.33" cy="64.89" rx="4.2" ry="2.61"/>
        <path class="cls-4" d="M67.22,62.95h-11.64c-.46,0-.84-.38-.84-.84v-1.75c-.03-.58,.42-1.08,1.01-1.11,.03,0,.05,0,.08,0h12.23v2.86c0,.46-.38,.84-.84,.84h0Z"/>
        <path class="cls-15" d="M67.16,62.96h-11.51c-.5,0-.9-.4-.9-.9h0v-.48h13.31v.42c.03,.5-.34,.92-.84,.96-.02,0-.04,0-.06,0Z"/>
        <rect class="cls-18" x="54.75" y="62.68" width="13.32" height=".53"/>
        <path class="cls-2" d="M65.05,68c-2.35,1.27-5.17,1.27-7.52,0,0-2.08,1.68-3.76,3.76-3.76s3.76,1.68,3.76,3.76Z"/>
        <path class="cls-14" d="M63.98,65.35c-1.7,.64-3.58,.64-5.28,0,1.47-1.44,3.81-1.44,5.28,0Z"/>
        <path class="cls-18" d="M57.35,68.01c-.11-2.22,1.6-4.12,3.82-4.24,2.22-.12,4.12,1.6,4.24,3.82,0,.14,0,.28,0,.42l-.53-.03c0-.12,0-.24,0-.36-.1-1.93-1.75-3.41-3.68-3.32-1.93,.1-3.42,1.75-3.32,3.68l-.53,.03Z"/>
        <path class="cls-19" d="M61.4,69.79c-4.07,0-7.39-3.31-7.39-7.39v-1.63c0-1.12,.91-2.03,2.03-2.03h10.72c1.12,0,2.03,.91,2.03,2.03v1.63c0,4.07-3.32,7.39-7.39,7.39Zm-5.36-10.05c-.57,0-1.03,.46-1.03,1.03v1.63c0,3.52,2.87,6.39,6.39,6.39s6.39-2.87,6.39-6.39v-1.63c0-.57-.46-1.03-1.03-1.03h-10.72Z"/>
        <ellipse class="cls-4" cx="51.29" cy="46.12" rx=".71" ry=".77"/>
        <rect class="cls-4" x="40.97" y="51.15" width="1.06" height="5.74" rx=".53" ry=".53"/>
        <rect class="cls-7" x="43.75" y="43.43" width="1.06" height="7.7" rx=".53" ry=".53"/>
      </g>
    </g>
  </g>
</svg>