<?xml version="1.0" encoding="utf-8"?>
<!-- Generator: Adobe Illustrator 27.0.0, SVG Export Plug-In . SVG Version: 6.00 Build 0)  -->
<svg version="1.1" id="icons" xmlns="http://www.w3.org/2000/svg" xmlns:xlink="http://www.w3.org/1999/xlink" x="0px" y="0px"
	 viewBox="0 0 512 512" style="enable-background:new 0 0 512 512;" xml:space="preserve">
<style type="text/css">
	.st0{fill:#B2BCD0;}
</style>
<path class="st0" d="M412.2,118.7c-3.2-1.7-6.4-3.5-9.5-5.5c-8.9-5.9-17-12.8-24.3-20.6c-18.1-20.7-24.9-41.7-27.4-56.4h0.1
	C349.1,23.9,350,16,350.1,16h-82.4v318.8c0,4.3,0,8.5-0.2,12.7c0,0.5,0,1-0.1,1.6c0,0.2,0,0.5,0,0.7c0,0.1,0,0.1,0,0.2
	c-1.8,23.2-15,44.1-35.2,55.6c-10.4,5.9-22.2,9-34.1,9c-38.4,0-69.5-31.3-69.5-70s31.1-70,69.5-70c7.3,0,14.5,1.1,21.4,3.4l0.1-83.9
	c-42.4-5.5-85.2,7-118,34.5c-14.2,12.3-26.2,27.1-35.3,43.5c-3.5,6-16.6,30.1-18.2,69.2c-1,22.2,5.7,45.2,8.9,54.7v0.2
	c2,5.6,9.8,24.7,22.4,40.8c10.2,12.9,22.2,24.3,35.7,33.7v-0.2l0.2,0.2c39.9,27.1,84.2,25.3,84.2,25.3c7.7-0.3,33.3,0,62.5-13.8
	c32.3-15.3,50.7-38.1,50.7-38.1c11.8-13.6,21.1-29.2,27.6-45.9c7.5-19.6,10-43.1,10-52.5V176.5c1,0.6,14.3,9.4,14.3,9.4
	s19.2,12.3,49.1,20.3c21.5,5.7,50.4,6.9,50.4,6.9v-81.8C453.9,132.4,433.3,129.2,412.2,118.7z"/>
</svg>
