<?xml version="1.0" encoding="UTF-8"?>
<svg id="Layer_2" data-name="Layer 2" xmlns="http://www.w3.org/2000/svg" viewBox="0 0 694.87 461.4">
  <defs>
    <style>
      .cls-1 {
        fill: #ed9a7a;
      }

      .cls-2 {
        fill: #f0fbff;
      }

      .cls-3 {
        fill: #eaedf4;
      }

      .cls-4 {
        fill: #ea911b;
      }

      .cls-5 {
        fill: #fff;
      }

      .cls-6 {
        fill: #ffdeb3;
      }

      .cls-7 {
        fill: #ffba57;
      }

      .cls-8, .cls-9 {
        fill: #fc8c60;
      }

      .cls-10 {
        fill: #feb999;
      }

      .cls-11 {
        fill: #67a3c4;
      }

      .cls-12 {
        fill: #92d3ef;
      }

      .cls-13 {
        fill: #9db0d6;
      }

      .cls-14 {
        fill: #c1b1aa;
      }

      .cls-15, .cls-16 {
        fill: #306c90;
      }

      .cls-17 {
        fill: #cdd5e8;
      }

      .cls-18 {
        fill: #cb7a57;
      }

      .cls-19 {
        fill: #e0dcda;
      }

      .cls-20 {
        fill: #215063;
      }

      .cls-21 {
        fill: #19af55;
      }

      .cls-22 {
        fill: #3bcc76;
      }

      .cls-23 {
        fill: #1b222d;
      }

      .cls-24 {
        fill: #3a0b0e;
      }

      .cls-25, .cls-26 {
        fill: #3c4456;
      }

      .cls-27 {
        fill: #616779;
      }

      .cls-28 {
        fill: #5f1112;
      }

      .cls-29 {
        fill: #53bfe5;
      }

      .cls-16 {
        opacity: .51;
      }

      .cls-9 {
        opacity: .46;
      }

      .cls-26 {
        opacity: .39;
      }
    </style>
  </defs>
  <g id="Layer_1-2" data-name="Layer 1">
    <g>
      <path class="cls-10" d="M203.83,111.54c-4.49,2.61-7.57,7.32-8.67,12.4-1.1,5.07-.32,10.45,1.68,15.24,2.98,7.1,8.97,13.16,16.43,15.08,7.46,1.92,16.22-.94,20.22-7.53,1.72-2.83,2.51-6.13,2.96-9.42,.65-4.72,.58-9.73-1.55-13.99-1.63-3.24-4.33-5.81-7.16-8.08-2.93-2.35-6.11-4.48-9.68-5.64-3.57-1.16-7.6-1.26-10.99,.36"/>
      <path class="cls-8" d="M222.12,144.03c-3.83,.24-7.7-.07-11.45-.92-3.47-.78-7.25-2.44-8.36-5.82-.88-2.68,.22-5.57,1.43-8.12,1.07-2.27,2.27-4.55,4.07-6.3,1.8-1.75,4.33-2.92,6.81-2.55,2.7,.4,4.88,2.56,6.06,5.03s1.52,5.24,1.84,7.95c.19,1.61,.39,3.22,.58,4.82"/>
      <rect class="cls-17" x="428.66" y="11.42" width="262.58" height="165.83"/>
      <path class="cls-27" d="M431.15,188.54l-.08-1-13.4-166.29,1-.08L681.39,0l.08,1,13.4,166.29-1,.08-262.72,21.17Zm-11.33-165.46l13.16,163.3,259.73-20.93L679.56,2.15,419.83,23.08Z"/>
      <path class="cls-8" d="M604.91,440.02c-.24-23.72-1.2-47.43-2.89-71.09-1.69-23.66-4.11-47.26-7.25-70.77-3.14-23.53-6.99-46.97-11.55-70.26-4.56-23.28-9.83-46.41-15.81-69.37s-12.66-45.72-20.04-68.26c-.92-2.8-1.85-5.6-2.79-8.4-.61-1.82-3.51-1.04-2.89,.8,7.51,22.38,14.34,44.98,20.47,67.78,6.16,22.9,11.61,46,16.36,69.24,4.72,23.13,8.74,46.4,12.05,69.77,3.34,23.58,5.94,47.26,7.81,70.99,1.86,23.53,3,47.12,3.41,70.72,.05,2.95,.09,5.9,.12,8.85,.02,1.93,3.02,1.93,3,0h0Z"/>
      <g>
        <rect class="cls-5" x="445.07" y="37.73" width="31.87" height="31.87"/>
        <rect class="cls-5" x="485.69" y="37.73" width="31.87" height="31.87"/>
        <rect class="cls-5" x="526.31" y="37.73" width="31.87" height="31.87"/>
        <rect class="cls-5" x="566.93" y="37.73" width="31.87" height="31.87"/>
      </g>
      <g>
        <rect class="cls-5" x="445.07" y="79.64" width="31.87" height="31.87"/>
        <rect class="cls-5" x="485.69" y="79.64" width="31.87" height="31.87"/>
        <rect class="cls-5" x="526.31" y="79.64" width="31.87" height="31.87"/>
        <rect class="cls-5" x="566.93" y="79.64" width="31.87" height="31.87"/>
      </g>
      <rect class="cls-3" x="10.09" y="373.85" width="112.2" height="29.82" transform="translate(83.07 -5.23) rotate(12.12)"/>
      <rect class="cls-17" x=".83" y="382.61" width="112.2" height="1.36" transform="translate(81.72 -3.41) rotate(12.12)"/>
      <rect class="cls-17" x="8.78" y="394.51" width="112.2" height=".68" transform="translate(84.32 -4.82) rotate(12.12)"/>
      <polyline class="cls-17" points="15.92 374.49 14.19 382.56 49.27 382.34"/>
      <circle class="cls-17" cx="54.17" cy="392.34" r="2.37"/>
      <rect class="cls-3" x="10.21" y="404.4" width="112.2" height="29.82"/>
      <rect class="cls-17" y="415.23" width="112.2" height="1.36"/>
      <rect class="cls-17" x="10.21" y="425.21" width="112.2" height=".68"/>
      <polyline class="cls-17" points="14.16 415.91 14.16 424.17 48.42 416.59"/>
      <circle class="cls-17" cx="55.31" cy="425.34" r="2.37"/>
      <rect class="cls-6" x="70.32" y="208.61" width="74.83" height="221.53" transform="translate(52.31 -13.09) rotate(9.18)"/>
      <rect class="cls-5" x="86.21" y="214.6" width="60.99" height="98.27" transform="translate(43.55 -15.24) rotate(9.18)"/>
      <path class="cls-17" d="M100.38,230.74c12.68,1.23,25.35,2.46,38.03,3.7,1.44,.14,1.43-2.11,0-2.25-12.68-1.23-25.35-2.46-38.03-3.7-1.44-.14-1.43,2.11,0,2.25h0Z"/>
      <path class="cls-17" d="M97.68,246.57c12.68,1.23,25.35,2.46,38.03,3.7,1.44,.14,1.43-2.11,0-2.25-12.68-1.23-25.35-2.46-38.03-3.7-1.44-.14-1.43,2.11,0,2.25h0Z"/>
      <path class="cls-17" d="M96.14,263.01c12.68,1.23,25.35,2.46,38.03,3.7,1.44,.14,1.43-2.11,0-2.25-12.68-1.23-25.35-2.46-38.03-3.7-1.44-.14-1.43,2.11,0,2.25h0Z"/>
      <g>
        <path class="cls-22" d="M566.54,156.74c-13.05-26.9-40.85-46.05-70.64-48.66-7.41-.65-15.3-.23-21.59,3.74-11.48,7.24-13.43,23.45-10.49,36.7,5.1,22.92,21.59,42.87,42.88,52.79,21.29,9.92,46.86,9.8,68.33,.28"/>
        <g>
          <ellipse class="cls-5" cx="514.38" cy="179.78" rx="9.98" ry="6.73"/>
          <circle class="cls-5" cx="504.41" cy="168.06" r="3.36"/>
        </g>
        <g>
          <path class="cls-21" d="M518.68,159.2c5.46-6.84,9.17-14.92,10.68-23.56,.25-1.42-1.92-2.02-2.17-.6-1.43,8.23-4.88,16.03-10.1,22.56-.9,1.12,.69,2.72,1.59,1.59h0Z"/>
          <path class="cls-21" d="M501.58,147.98c-4.57,5.42-11.75,6.87-18.38,8.09-1.42,.26-.82,2.43,.6,2.17,7-1.29,14.56-2.96,19.38-8.67,.93-1.1-.66-2.7-1.59-1.59h0Z"/>
        </g>
        <g>
          <path class="cls-21" d="M483.13,126.6c7.06,11.58,16.46,21.62,27.4,29.62,10.95,8.01,23.45,13.96,36.59,17.34,7.45,1.91,15.11,2.98,22.8,3.17,1.45,.04,1.45-2.21,0-2.25-13.28-.32-26.45-3.38-38.58-8.78s-23.21-13.05-32.49-22.53c-5.25-5.36-9.87-11.29-13.78-17.7-.75-1.23-2.7-.11-1.94,1.14h0Z"/>
          <path class="cls-21" d="M547.99,173.7c-1.66,8.11-6.2,15.53-12.8,20.57-1.14,.87-.02,2.82,1.14,1.94,7.06-5.39,12.05-13.19,13.83-21.91,.29-1.41-1.88-2.02-2.17-.6h0Z"/>
        </g>
      </g>
      <g>
        <path class="cls-22" d="M580.84,224.82c2.24-24.76,18.22-47.83,40.61-58.62,5.57-2.68,11.83-4.68,17.89-3.44,11.06,2.26,17.34,14.28,18.95,25.45,2.78,19.32-4.18,39.69-17.81,53.66-13.63,13.97-33.56,21.4-53.05,20.32"/>
        <g>
          <ellipse class="cls-5" cx="628.18" cy="227.39" rx="8.29" ry="5.59" transform="translate(-39.82 236.99) rotate(-20.72)"/>
          <circle class="cls-5" cx="632.49" cy="215.34" r="2.8"/>
        </g>
        <g>
          <path class="cls-21" d="M618.78,212.65c-6.26-3.71-11.52-8.91-15.23-15.18-.61-1.03,.9-2.14,1.51-1.1,3.54,5.98,8.51,11.03,14.49,14.57,1.03,.61,.27,2.32-.77,1.71h0Z"/>
          <path class="cls-21" d="M628.78,198.9c5.15,2.87,11.16,1.89,16.68,.88,1.18-.22,1.35,1.65,.17,1.86-5.82,1.06-12.19,1.98-17.62-1.04-1.05-.58-.28-2.29,.77-1.71h0Z"/>
        </g>
        <g>
          <path class="cls-21" d="M636.84,176.84c-2.08,11.08-6.44,21.65-12.59,31.09-6.15,9.45-14.12,17.75-23.35,24.24-5.23,3.68-10.87,6.76-16.8,9.17-1.12,.45-1.78-1.3-.66-1.75,10.23-4.16,19.57-10.41,27.41-18.18,7.83-7.76,14.21-16.97,18.64-27.08,2.5-5.71,4.35-11.69,5.5-17.82,.22-1.18,2.07-.88,1.84,.31h0Z"/>
          <path class="cls-21" d="M600.26,232.55c3.67,5.82,9.39,10.25,16,12.23,1.14,.34,.84,2.19-.31,1.84-7.08-2.12-13.25-6.71-17.2-12.97-.64-1.01,.87-2.12,1.51-1.1h0Z"/>
        </g>
      </g>
      <g>
        <path class="cls-22" d="M601.95,372.69c5.99-24.13,25.32-44.48,49.1-51.72,5.91-1.8,12.4-2.81,18.2-.67,10.58,3.92,14.96,16.76,14.84,28.05-.21,19.52-10.19,38.59-25.8,50.31-15.61,11.72-36.43,16.02-55.53,11.98"/>
        <g>
          <ellipse class="cls-5" cx="648.34" cy="382.47" rx="8.29" ry="5.59" transform="translate(-65.07 142.31) rotate(-11.93)"/>
          <circle class="cls-5" cx="654.44" cy="371.22" r="2.8"/>
        </g>
        <g>
          <path class="cls-21" d="M641.3,366.46c-5.62-4.62-10.03-10.56-12.73-17.33-.44-1.11,1.21-1.98,1.66-.86,2.58,6.45,6.72,12.2,12.09,16.62,.92,.76-.09,2.33-1.02,1.57h0Z"/>
          <path class="cls-21" d="M653.29,354.4c4.65,3.62,10.74,3.57,16.34,3.42,1.2-.03,1.08,1.84-.11,1.87-5.92,.16-12.35,.1-17.25-3.72-.94-.74,.07-2.31,1.02-1.57h0Z"/>
        </g>
        <g>
          <path class="cls-21" d="M664.62,333.84c-3.75,10.64-9.67,20.41-17.19,28.8-7.53,8.4-16.67,15.39-26.78,20.39-5.73,2.84-11.78,5.02-18,6.5-1.17,.28-1.56-1.55-.39-1.83,10.74-2.54,20.93-7.3,29.87-13.78,8.92-6.47,16.64-14.6,22.55-23.91,3.35-5.26,6.09-10.88,8.16-16.77,.4-1.13,2.18-.55,1.78,.59h0Z"/>
          <path class="cls-21" d="M619.95,383.3c2.74,6.31,7.72,11.57,13.94,14.53,1.07,.51,.5,2.29-.59,1.78-6.67-3.17-12.07-8.66-15.02-15.44-.48-1.1,1.18-1.96,1.66-.86h0Z"/>
        </g>
      </g>
      <g>
        <path class="cls-22" d="M594.18,315.44c-9.31-23.05-31.28-40.51-55.84-44.36-6.11-.96-12.68-1.05-18.12,1.88-9.93,5.36-12.47,18.69-10.77,29.84,2.93,19.3,15.48,36.78,32.58,46.21,17.09,9.43,38.31,10.78,56.66,4.1"/>
        <g>
          <ellipse class="cls-5" cx="549.61" cy="331.6" rx="5.59" ry="8.29" transform="translate(181.36 857.36) rotate(-86.1)"/>
          <circle class="cls-5" cx="541.99" cy="321.31" r="2.8"/>
        </g>
        <g>
          <path class="cls-21" d="M554.34,314.77c4.92-5.36,8.45-11.86,10.19-18.93,.28-1.16-1.48-1.79-1.77-.62-1.65,6.75-4.95,13.02-9.65,18.14-.81,.88,.42,2.3,1.23,1.41h0Z"/>
          <path class="cls-21" d="M540.79,304.5c-4.09,4.24-10.14,5.03-15.71,5.67-1.19,.14-.82,1.97,.37,1.83,5.88-.67,12.25-1.63,16.56-6.09,.83-.86-.39-2.28-1.23-1.41h0Z"/>
        </g>
        <g>
          <path class="cls-21" d="M526.69,285.72c5.2,10.01,12.43,18.86,21.05,26.12,8.63,7.27,18.66,12.91,29.37,16.45,6.07,2.01,12.37,3.33,18.73,3.92,1.2,.11,1.33-1.76,.13-1.87-10.99-1.02-21.75-4.3-31.5-9.47-9.74-5.16-18.51-12.13-25.67-20.53-4.05-4.74-7.55-9.93-10.42-15.46-.55-1.07-2.23-.24-1.68,.83h0Z"/>
          <path class="cls-21" d="M577.83,328.46c-1.83,6.63-6.02,12.53-11.78,16.33-.99,.66-.17,2.34,.83,1.68,6.16-4.07,10.74-10.26,12.71-17.39,.32-1.16-1.44-1.78-1.77-.62h0Z"/>
        </g>
      </g>
      <path class="cls-25" d="M146.51,399.01c-7.15-31.42-14.29-62.85-21.44-94.27-1.86-8.19-3.73-16.7-1.96-24.92,1.71-7.92,6.63-14.72,11.48-21.22,19.69-26.43,42.92-54.12,75.27-60.42,12.78-2.49,25.95-1.35,38.91-.07,30.83,3.05,62.52,7.12,89.44,22.45,6.53,3.72,12.83,8.19,17.19,14.31,4.72,6.62,6.85,14.69,8.71,22.6,10.09,42.71,15.17,86.6,15.1,130.48"/>
      <path class="cls-17" d="M162.42,380.61c-7.15-31.42-14.29-62.85-21.44-94.27-1.86-8.19-3.73-16.7-1.96-24.92,1.71-7.92,6.63-14.72,11.48-21.22,19.69-26.43,42.92-54.12,75.27-60.42,12.78-2.49,25.95-1.35,38.91-.07,30.83,3.05,62.52,7.12,89.44,22.45,6.53,3.72,12.83,8.19,17.19,14.31,4.72,6.62,6.85,14.69,8.71,22.6,10.09,42.71,15.17,86.6,15.1,130.48"/>
      <path class="cls-26" d="M164.9,287.54c-1.84-5.23-3.69-10.56-4.41-16.08s-.05-10.85,2.33-15.86c2.18-4.6,5.16-8.83,7.99-13.06s5.61-8.2,8.63-12.15c11.76-15.41,26.64-29.23,45.77-34.43,10.33-2.81,21.35-2.89,31.43,.93,1.36,.51,1.94-1.66,.6-2.17-18.69-7.08-39.94-1.15-55.63,10.19-8.31,6.01-15.48,13.43-21.84,21.44-3.19,4.02-6.21,8.18-9.1,12.41s-6.01,8.72-8.55,13.33c-3.01,5.46-4.54,11.27-4.05,17.53,.5,6.39,2.57,12.52,4.68,18.53,.48,1.36,2.65,.77,2.17-.6h0Z"/>
      <path class="cls-5" d="M364.3,268.97c-2.25-9.02-5.78-17.59-10.44-25.49-.69-1.18-1.41-2.34-2.15-3.49-4.82-7.43-10.66-14.19-17.38-20.07-1.27-1.12-2.58-2.21-3.92-3.26-6.02-4.73-12.85-8.23-20.1-10.35-5.44-1.6-11.11-2.43-16.84-2.43h-35.79l-3.46,10.11-3.15,9.2-2.3,6.72-20.08,58.68v145.68h140.05v-147.57l-4.44-17.73Zm-105.78-49.17c.76-.95,1.54-1.89,2.33-2.82l.78-.72,1.21-1.14c.41,1.27,.91,2.5,1.5,3.69l-1.18,1.29-.45,.48c-1.02,1.19-1.3,1.44-1.95,2.23-.18,.23-.4,.52-.68,.88-.01-.02-.02-.03-.03-.05-.19-.27-.37-.53-.55-.78-.57-.8-1.09-1.51-1.63-2.22,.21-.28,.43-.56,.65-.84Z"/>
      <path class="cls-5" d="M277.58,199.78c-29.7,17.08-56.8,38.66-80.1,63.77-7.01,7.56-13.72,15.48-19.1,24.27-14.73,24.05-21.8,51.31-22.98,79.8-.14,3.29,.42,10.38,.42,13.59v54.13l52.3,1.91,45.58-39.23,20.87-197.81c-37.71,3.34-96.99,61.35-113.5,98.3-10.16,22.73-6.97,45.6-5.68,69.1"/>
      <path class="cls-5" d="M264.34,218.81l-1.18,1.29-.45,.48c-1.02,1.19-1.3,1.44-1.95,2.23-.18,.23-.4,.52-.68,.88-.01-.02-.02-.03-.03-.05-.19-.27-.37-.53-.55-.78-.57-.8-1.09-1.51-1.63-2.22,.21-.28,.43-.56,.65-.84,.76-.95,1.54-1.89,2.33-2.82l.78-.72,1.21-1.14c.41,1.27,.91,2.5,1.5,3.69Z"/>
      <ellipse class="cls-5" cx="237.76" cy="424.09" rx="4.45" ry="2.62" transform="translate(-233.64 543.08) rotate(-74.89)"/>
      <path class="cls-5" d="M242.63,345.52s63.89,2.64,83.47-5.27v95.51s-81.44,.11-81.44,.11l-2.04-90.34Z"/>
      <ellipse class="cls-5" cx="241.28" cy="425.24" rx="1.76" ry="2.12"/>
      <path class="cls-11" d="M118.58,430.77c0-9.86-8-17.86-17.86-17.86s-17.86,8-17.86,17.86v5.89h35.72v-5.89Z"/>
      <path class="cls-16" d="M118.58,430.77v5.17c0-9.86-8-17.86-17.86-17.86s-17.86,8-17.86,17.86v-5.17c0-9.86,7.99-17.86,17.86-17.86s17.86,8,17.86,17.86Z"/>
      <ellipse class="cls-20" cx="100.72" cy="424.07" rx="3.01" ry="6.07"/>
      <path class="cls-15" d="M128.33,434.66h-49.88c-.55,0-1-.45-1-1s.45-1,1-1h49.88c.55,0,1,.45,1,1s-.45,1-1,1Z"/>
      <path class="cls-15" d="M554.17,441H57.68c-.42,0-.8-.27-.94-.67-.14-.4-.01-.85,.32-1.11l13.55-10.86c.37-.29,.88-.29,1.25,0l6.03,4.83c.43,.34,.5,.97,.16,1.41-.34,.43-.97,.5-1.41,.16l-5.41-4.33-10.71,8.58h493.64c6.86,0,12.93-3.61,16.23-9.65,3.26-5.96,3.03-12.92-.62-18.6l-.19-.29c-.3-.46-.17-1.08,.29-1.38,.46-.3,1.08-.17,1.38,.29l.2,.31c4.05,6.31,4.3,14.03,.69,20.64-3.66,6.69-10.38,10.69-17.99,10.69Z"/>
      <path class="cls-5" d="M310.31,206.31s7.54,18.18,1.26,29.76c-6.27,11.58-22.9,15.15-36.2,6.21-9.07-6.09-19.27-19.29-19.27-19.29,0,0,5.55-8.24,8.64-8.87"/>
      <path class="cls-8" d="M327.77,137.34c6.69-2.12,12.01-9.29,12.89-17.37,.87-8.08-2.75-16.59-8.78-20.61-2.38-1.58-5.03-2.5-7.71-3.14-3.12-.75-6.51-1.13-9.37,.52l12.98,40.6Z"/>
      <path class="cls-10" d="M311.61,185.34l-.03,.47-1.27,20.5-.49,7.89c-.15,2.39-.67,4.66-1.51,6.74-3.26,8.2-11.3,13.67-20.15,13.67-2.1,0-4.25-.31-6.39-.96-6.25-1.91-11.57-5.86-15.2-11.07-.81-1.16-1.54-2.38-2.17-3.65-.02-.04-.04-.08-.06-.12-.59-1.19-1.09-2.42-1.5-3.69-.16-.46-.3-.92-.43-1.38l-2.71-9.86-4.89-17.76-.43-1.52-.92-3.36h0s-.1-.37-.1-.37c0,0-.01,0-.01,0h0s-.47-1.73-.47-1.73l7.65,.81h.07s51.01,5.4,51.01,5.4Z"/>
      <path class="cls-10" d="M290.96,192.3c7.9,0,15.58-2.6,21.86-7.39l.69-.52c6.68-5.1,11.37-12.38,13.25-20.57,5.03-21.94,5.55-44.67,1.53-66.82-.48-2.62-.77-6.76-1.07-11.39-1.65-25.32-20.5-49.3-45.36-55.44-20.06-4.95-42.58,1.87-56.53,17.12-21.1,23.07-14.75,49.76-5.44,75.99,0,0,6.44,18.21,6.44,18.21,3.01,8.5,6.94,16.65,11.72,24.31,.08,.12,.17,.23,.25,.35,11.77,16.22,30.63,25.79,50.67,26.13l1.98,.03Z"/>
      <path class="cls-8" d="M311.58,185.81l-.91,14.18c-1.67,.25-3.36,.37-5.07,.37l-1.98-.04c-19.57-.32-38.35-3.58-50.17-19.12l-.09-.35c10.34,7.17,22.74,11.2,35.62,11.42l1.98,.03c7.39,0,14.58-2.27,20.62-6.49Z"/>
      <rect class="cls-28" x="265.6" y="95.8" width="12.98" height="21.17" rx="5.93" ry="5.93" transform="translate(-17.9 70.93) rotate(-14.38)"/>
      <circle class="cls-5" cx="277.33" cy="112.83" r="3.19"/>
      <rect class="cls-15" x="204.41" y="428.89" width="123.11" height="7.36" rx="3.68" ry="3.68"/>
      <path class="cls-20" d="M242.84,461.4c-6.33,0-12.5-2.13-17.59-6.19l-26.33-21c-.33-.27-.46-.71-.32-1.11,.14-.4,.52-.67,.94-.67h26.24c.55,0,1,.45,1,1s-.45,1-1,1h-23.38l24.1,19.22c6.4,5.1,14.64,6.93,22.59,5.01,7.96-1.92,14.45-7.3,17.82-14.76,.02-.05,.05-.1,.08-.15l7.28-10.88c.19-.28,.5-.44,.83-.44h22.96c.55,0,1,.45,1,1s-.45,1-1,1h-22.43l-6.94,10.37c-3.63,7.99-10.6,13.75-19.14,15.81-2.23,.54-4.48,.8-6.71,.8Z"/>
      <rect class="cls-18" x="70.32" y="434.88" width="584.47" height="12.06" rx="6.03" ry="6.03"/>
      <g>
        <path class="cls-1" d="M411.68,372.25c.18-.34,24.64-9.96,34.35-13.77,2.21-.87,4.7,.11,5.73,2.25h0c1.18,2.42,0,5.33-2.53,6.25l-19.31,7.06"/>
        <path class="cls-10" d="M425.42,383.4c-.65,.89-31.65,33.81-31.65,33.81h0c8.98,.95,17.76,3.24,26.06,6.79l6.18,2.65c2.21,.95,3.09,3.63,1.85,5.7h0c-.91,1.52-2.7,2.26-4.42,1.81l-5.05-1.13c-12.07-2.69-24.65-1.9-36.29,2.27h0s-19.99-4.85-19.99-4.85l-29.47-12.25,11.08-17.85,21.28-8.38,21.69-14.58c3.65-2.45,7.86-3.96,12.24-4.38l51.76-4.95c1.66-.16,3.25,.74,3.98,2.24h0c1.16,2.4-.32,5.24-2.95,5.68l-18.22,2.99,11.26-1.02c1.39-.13,2.75,.47,3.59,1.59h0c1.81,2.39,.49,5.84-2.45,6.42l-49.25,9.66"/>
        <polygon class="cls-1" points="417.66 391.38 406.02 392.53 410.58 399.01 417.66 391.38"/>
        <path class="cls-10" d="M340.9,421.45l-16.28,4.2c-42.93,11.07-87.14,16.48-131.44,15.98-6.83-.08-13.5-2.11-19.26-5.8h0s-6.62-4.19-6.62-4.19c-6.46-4.07-10.53-11.04-10.91-18.66h0c-.29-5.87,1.64-11.64,5.4-16.16h0c6.65-7.99,15.74-13.58,25.87-15.91l2.23-.51c5.71-1.32,11.62-1.57,17.42-.74l139.07,19.83"/>
      </g>
      <polyline class="cls-10" points="313.3 125.77 298.15 108.48 298.15 129.62"/>
      <g>
        <circle class="cls-19" cx="214.97" cy="132.18" r="4.06"/>
        <path class="cls-5" d="M225.53,146.47c-.38,0-.75-.1-1.09-.33l-12.99-8.47c-.92-.6-1.19-1.84-.58-2.77,.6-.92,1.84-1.19,2.77-.58l12.99,8.47c.92,.6,1.19,1.84,.58,2.77-.38,.59-1.02,.91-1.68,.91Z"/>
        <circle class="cls-5" cx="211.98" cy="135.71" r="6.21"/>
        <circle class="cls-5" cx="209.02" cy="139.95" r="2.87"/>
        <path class="cls-14" d="M218.82,133.38c-.16,.51-.42,.98-.75,1.39-.45-2.98-3.03-5.26-6.13-5.26h-.05c.32-.37,.7-.68,1.14-.91,2.83,.11,5.17,2.12,5.79,4.78Z"/>
      </g>
      <path class="cls-8" d="M249.38,70.33c15.93-6.7,33.05-10.35,50.33-10.71,.96-.02,.97-1.52,0-1.5-17.41,.36-34.67,4.01-50.73,10.77-.88,.37-.49,1.82,.4,1.45h0Z"/>
      <path class="cls-8" d="M255.87,62.41c10.72-4.14,21.95-6.86,33.38-8.04,.95-.1,.96-1.6,0-1.5-11.57,1.19-22.93,3.9-33.78,8.1-.89,.34-.5,1.8,.4,1.45h0Z"/>
      <path class="cls-8" d="M261.76,54.1c4.58-1.09,9.2-2.01,13.85-2.75,.95-.15,.55-1.6-.4-1.45-4.65,.75-9.27,1.67-13.85,2.75-.94,.22-.54,1.67,.4,1.45h0Z"/>
      <ellipse class="cls-7" cx="97.36" cy="376.24" rx="14.5" ry="18.96"/>
      <path class="cls-4" d="M112.2,376.3c0,.84-.04,1.67-.13,2.48-.93-9.29-7-16.47-14.36-16.47s-13.44,7.18-14.37,16.47c-.09-.81-.13-1.64-.13-2.48,0-10.47,6.49-18.96,14.5-18.96s14.49,8.49,14.49,18.96Z"/>
      <path class="cls-17" d="M71.8,245.06c1.77-7.46,3.54-14.92,5.3-22.37s3.15-14.36,5.11-21.41c.78-2.79,1.94-5.73,4.5-7.35s5.66-1.59,8.5-1.17c3.27,.48,6.45,1.5,9.62,2.37,3.61,.99,7.21,1.98,10.82,2.96,8.26,2.26,16.51,4.52,24.77,6.78,1.4,.38,2-1.79,.6-2.17-7.69-2.11-15.39-4.21-23.08-6.32-3.85-1.05-7.69-2.11-11.54-3.16-3.37-.92-6.74-2-10.2-2.57-2.88-.47-5.95-.64-8.73,.41s-4.84,3.2-6.08,5.88c-1.4,3.02-2,6.36-2.76,9.58-.92,3.89-1.84,7.78-2.77,11.67-2.08,8.75-4.15,17.51-6.23,26.26-.33,1.41,1.84,2.01,2.17,.6h0Z"/>
      <path class="cls-5" d="M328.58,217.51c25.22,2.29,49.14,16.25,63.53,37.1,1.68,2.43,3.28,5.48,2.11,8.19-1.28,2.95-5.05,3.72-8.25,3.96-12.99,.98-26.14-.13-38.79-3.26"/>
      <path class="cls-5" d="M225.47,145.61c7.47,8.19,13.68,17.46,18.42,27.48,5.08,10.76,7.92,22.19,10.28,33.81,2.33,11.47,4.57,22.98,8.86,33.92,3.9,9.93,9.34,19.4,17,26.92s18.31,13.51,29.57,14.77c.96,.11,.95-1.39,0-1.5-10.18-1.13-19.58-6.09-27.07-12.96-7.99-7.33-13.71-16.81-17.73-26.81-4.31-10.73-6.61-22.03-8.89-33.32s-4.89-22.47-9.57-33.06c-4.91-11.09-11.63-21.34-19.8-30.3-.65-.71-1.71,.35-1.06,1.06h0Z"/>
      <path class="cls-5" d="M334.53,128.93c6.65,15.58,7.3,32.86,6.08,49.53-.65,8.86-1.89,17.66-2.83,26.49-.89,8.43-.91,16.9-.76,25.37,.17,9.59,.43,19.19-.25,28.77-.07,.96,1.43,.96,1.5,0,1.23-17.22-.73-34.49,.78-51.69,.78-8.84,2.13-17.63,2.87-26.48s1.01-17.36,.27-26.02c-.79-9.18-2.73-18.23-6.36-26.73-.38-.89-1.67-.12-1.3,.76h0Z"/>
      <path class="cls-17" d="M216.69,163.39c-3.74,0-6.78-3.04-6.78-6.78s3.04-6.78,6.78-6.78,6.78,3.04,6.78,6.78-3.04,6.78-6.78,6.78Zm0-11.55c-2.63,0-4.78,2.14-4.78,4.78s2.14,4.78,4.78,4.78,4.78-2.14,4.78-4.78-2.14-4.78-4.78-4.78Z"/>
      <path class="cls-17" d="M340.79,138.56c-3.74,0-6.78-3.04-6.78-6.78s3.04-6.78,6.78-6.78,6.78,3.04,6.78,6.78-3.04,6.78-6.78,6.78Zm0-11.55c-2.63,0-4.78,2.14-4.78,4.78s2.14,4.78,4.78,4.78,4.78-2.14,4.78-4.78-2.14-4.78-4.78-4.78Z"/>
      <path class="cls-5" d="M228.76,56.59c2.37-3.92,5.64-7.33,9.45-9.84,.68-.45,.96-1.33,.54-2.05-.39-.67-1.37-.99-2.05-.54-4.27,2.81-7.88,6.54-10.52,10.92-.42,.69-.15,1.65,.54,2.05s1.63,.16,2.05-.54h0Z"/>
      <path class="cls-5" d="M243.78,44.31c1.93,0,1.93-3,0-3s-1.93,3,0,3h0Z"/>
      <path class="cls-8" d="M250.58,101.57c5.74-4.98,13.01-8.11,20.58-8.83,1.91-.18,1.92-3.18,0-3-8.41,.8-16.32,4.17-22.7,9.7-1.46,1.27,.67,3.38,2.12,2.12h0Z"/>
      <path class="cls-28" d="M247.51,102.07c7.1-5.89,15.51-10.99,24.73-11.16,.85-.02,1.88-.1,2.23-.87,.15-.34,.13-.72,.1-1.09-.23-2.7-.53-5.4-.92-8.08-.06-.42-.13-.85-.37-1.19-.41-.57-1.19-.73-1.89-.73-1.85,0-3.59,.81-5.23,1.64-6.51,3.3-12.64,7.36-18.22,12.08-.91,.77-1.82,1.57-2.38,2.61-.57,1.04-.74,2.38-.14,3.4"/>
      <path class="cls-8" d="M306.99,87.57c5.74-2.08,11.94-2.2,17.75-.33,1.84,.59,2.63-2.3,.8-2.89-6.27-2.02-13.15-1.91-19.35,.33-1.8,.65-1.02,3.55,.8,2.89h0Z"/>
      <path class="cls-28" d="M333.62,87.26c-8.72-2.99-18.4-4.79-27.08-1.69-.8,.28-1.79,.57-2.4-.02-.26-.26-.38-.63-.48-.99-.74-2.61-1.41-5.24-2-7.88-.09-.41-.18-.84-.07-1.24,.18-.68,.85-1.11,1.51-1.36,1.73-.65,3.64-.51,5.48-.32,7.26,.78,14.43,2.41,21.32,4.84,1.12,.39,2.25,.83,3.15,1.6s1.53,1.96,1.33,3.13"/>
      <path class="cls-2" d="M254.78,107.22c-13.06,.98-26.14,1.61-39.23,1.88-1.93,.04-1.93,3.04,0,3,13.09-.27,26.17-.9,39.23-1.88,1.91-.14,1.93-3.15,0-3h0Z"/>
      <path class="cls-2" d="M287.4,106.5c3.7-.59,7.42-.95,11.16-1.12,.81-.04,1.5-.66,1.5-1.5,0-.78-.69-1.54-1.5-1.5-4.01,.18-8,.59-11.96,1.22-.8,.13-1.25,1.13-1.05,1.85,.23,.85,1.04,1.18,1.85,1.05h0Z"/>
      <path class="cls-28" d="M247.21,175.35c8.01-1.03,15.35-6.29,18.9-13.55,2.73-5.58,3.31-12.12,6.71-17.32,4.8-7.34,14.11-10.34,22.84-11.11,4.71-.42,9.55-.33,14.04,1.17,10.09,3.38,16.9,14.03,16.86,24.67s-6.32,20.76-15.22,26.59c-8.91,5.82-20.11,7.58-30.64,6.04-10.53-1.54-20.42-6.2-29.17-12.26"/>
      <g>
        <ellipse class="cls-8" cx="304.65" cy="134.23" rx="7.54" ry="5.84" transform="translate(47.05 345.12) rotate(-63.08)"/>
        <circle class="cls-24" cx="304.44" cy="154.62" r="7.1"/>
      </g>
      <rect class="cls-13" x="616.31" y="43.56" width="60.42" height="8.47"/>
      <rect class="cls-13" x="616.31" y="59.93" width="60.42" height="8.47"/>
      <rect class="cls-13" x="616.31" y="76.19" width="33.76" height="8.59"/>
      <g>
        <path class="cls-9" d="M261.29,126.57c4.13,3.37,9.98,4.73,15.09,2.97s7.82-6.39,9.36-11.06c.3-.92-1.15-1.31-1.45-.4-1.36,4.13-3.97,8.52-8.31,10.01-4.58,1.57-9.91,.45-13.64-2.58-.74-.61-1.81,.45-1.06,1.06h0Z"/>
        <ellipse class="cls-12" cx="271.08" cy="107.83" rx="15.4" ry="21.32"/>
      </g>
      <g>
        <path class="cls-9" d="M304.91,123.47c4.13,3.37,9.98,4.73,15.09,2.97s7.82-6.39,9.36-11.06c.3-.92-1.15-1.31-1.45-.4-1.36,4.13-3.97,8.52-8.31,10.01-4.58,1.57-9.91,.45-13.64-2.58-.74-.61-1.81,.45-1.06,1.06h0Z"/>
        <ellipse class="cls-12" cx="314.7" cy="104.73" rx="15.4" ry="21.32"/>
      </g>
      <path class="cls-5" d="M264.69,126.5c-.52,0-1.04-.2-1.43-.6-.77-.79-.76-2.06,.04-2.83l6.36-6.2-8.72-9.87c-.7-.79-.66-1.98,.08-2.73l14.87-15.06c.78-.79,2.04-.79,2.83-.02,.79,.78,.79,2.04,.02,2.83l-13.56,13.73,8.74,9.89c.71,.8,.66,2.01-.1,2.76l-7.72,7.53c-.39,.38-.89,.57-1.4,.57Z"/>
      <path class="cls-5" d="M315.89,125.89c-.38,0-.77-.11-1.11-.34-.92-.62-1.16-1.86-.55-2.78l6.03-9-14.87-9.67c-.84-.54-1.14-1.62-.72-2.53l8-17.08c.47-1,1.66-1.43,2.66-.96,1,.47,1.43,1.66,.96,2.66l-7.26,15.51,15.11,9.83c.45,.29,.76,.75,.87,1.28s0,1.07-.3,1.51l-7.15,10.68c-.39,.58-1.02,.89-1.66,.89Z"/>
      <path class="cls-5" d="M356.29,104.52l-.41-2.63c-.05-.35-.4-.73-.69-.9-.32-.19-.8-.27-1.16-.15s-.71,.34-.9,.69l-.15,.36c-.07,.27-.07,.53,0,.8l.41,2.63c.05,.35,.4,.73,.69,.9,.32,.19,.8,.27,1.16,.15s.71-.34,.9-.69l.15-.36c.07-.27,.07-.53,0-.8h0Z"/>
      <path class="cls-29" d="M269.53,128.76c2.91,.78,6.04-.09,8.41-1.89s4.13-4.43,5.59-7.09c.93-1.69-1.66-3.21-2.59-1.51-2.08,3.78-5.63,8.92-10.61,7.59-1.87-.5-2.66,2.39-.8,2.89h0Z"/>
      <g>
        <rect class="cls-25" x="274.47" y="418.24" width="242.26" height="17.79" rx="8.89" ry="8.89"/>
        <rect class="cls-23" x="285.3" y="423.88" width="3.44" height="9.02" rx="1.58" ry="1.58"/>
        <rect class="cls-23" x="290.85" y="423.88" width="3.44" height="9.02" rx="1.58" ry="1.58"/>
        <rect class="cls-23" x="296.41" y="423.88" width="3.44" height="9.02" rx="1.58" ry="1.58"/>
      </g>
      <g>
        <rect class="cls-25" x="329.81" y="418.24" width="242.26" height="17.79" rx="8.89" ry="8.89"/>
        <rect class="cls-23" x="340.64" y="423.88" width="3.44" height="9.02" rx="1.58" ry="1.58"/>
        <rect class="cls-23" x="346.19" y="423.88" width="3.44" height="9.02" rx="1.58" ry="1.58"/>
        <rect class="cls-23" x="351.75" y="423.88" width="3.44" height="9.02" rx="1.58" ry="1.58"/>
      </g>
      <g>
        <path class="cls-25" d="M557.57,419.19h-225.77c-9.73,0-17.62-7.89-17.62-17.62v-142.58c0-8.68,7.04-15.72,15.72-15.72h219.29c8.68,0,15.72,7.04,15.72,15.72v152.85c0,4.06-3.29,7.35-7.35,7.35Z"/>
        <path class="cls-27" d="M553.61,419.19h-213.7c-10.23,0-18.52-8.29-18.52-18.52v-142.71c0-8.11,6.58-14.69,14.69-14.69h221.35c8.11,0,14.69,6.58,14.69,14.69v142.71c0,10.23-8.29,18.52-18.52,18.52Z"/>
        <circle class="cls-25" cx="446.76" cy="341.11" r="22.44"/>
        <path class="cls-25" d="M442.07,362.57c-12.65,0-22.94-10.29-22.94-22.94s10.29-22.94,22.94-22.94,22.94,10.29,22.94,22.94-10.29,22.94-22.94,22.94Zm0-44.88c-12.1,0-21.94,9.84-21.94,21.94s9.84,21.94,21.94,21.94,21.94-9.84,21.94-21.94-9.84-21.94-21.94-21.94Z"/>
        <g>
          <path class="cls-25" d="M337.68,268.87c5.33-3.29,10.67-6.57,16-9.86,1.64-1.01,.14-3.61-1.51-2.59-5.33,3.29-10.67,6.57-16,9.86-1.64,1.01-.14,3.61,1.51,2.59h0Z"/>
          <path class="cls-25" d="M345.68,272.41c3.74-2.67,7.48-5.33,11.23-8,.66-.47,.97-1.31,.54-2.05-.38-.65-1.39-1.01-2.05-.54-3.74,2.67-7.48,5.33-11.23,8-.66,.47-.97,1.31-.54,2.05,.38,.65,1.39,1.01,2.05,.54h0Z"/>
        </g>
      </g>
    </g>
  </g>
</svg>