<?xml version="1.0" encoding="utf-8"?>
<!-- Generator: Adobe Illustrator 24.1.1, SVG Export Plug-In . SVG Version: 6.00 Build 0)  -->
<svg version="1.1" id="Layer_1" xmlns="http://www.w3.org/2000/svg" xmlns:xlink="http://www.w3.org/1999/xlink" x="0px" y="0px"
	 viewBox="0 0 512 512" style="enable-background:new 0 0 512 512;" xml:space="preserve">
<style type="text/css">
	.st0{fill-rule:evenodd;clip-rule:evenodd;}
</style>
<g>
	<path class="st0" d="M48,32c-8.8,0-16,7.2-16,16v96c0,8.8-7.2,16-16,16s-16-7.2-16-16V48C0,21.5,21.5,0,48,0h96c8.8,0,16,7.2,16,16
		s-7.2,16-16,16H48z M352,16c0-8.8,7.2-16,16-16h96c26.5,0,48,21.5,48,48v96c0,8.8-7.2,16-16,16s-16-7.2-16-16V48
		c0-8.8-7.2-16-16-16h-96C359.2,32,352,24.8,352,16z M16,352c8.8,0,16,7.2,16,16v96c0,8.8,7.2,16,16,16h96c8.8,0,16,7.2,16,16
		s-7.2,16-16,16H48c-26.5,0-48-21.5-48-48v-96C0,359.2,7.2,352,16,352z M496,352c8.8,0,16,7.2,16,16v96c0,26.5-21.5,48-48,48h-96
		c-8.8,0-16-7.2-16-16s7.2-16,16-16h96c8.8,0,16-7.2,16-16v-96C480,359.2,487.2,352,496,352z"/>
	<path class="st0" d="M96,448c0,0-32,0-32-32s32-128,192-128s192,96,192,128s-32,32-32,32H96z M256,256c53,0,96-43,96-96
		s-43-96-96-96s-96,43-96,96S203,256,256,256z"/>
</g>
</svg>
